<?xml version="1.0" encoding="utf-8"?>
<!-- Generator: Adobe Illustrator 25.3.1, SVG Export Plug-In . SVG Version: 6.00 Build 0)  -->
<svg version="1.1" id="Capa_1" xmlns="http://www.w3.org/2000/svg" xmlns:xlink="http://www.w3.org/1999/xlink" x="0px" y="0px"
	 viewBox="0 0 1200 1200" style="enable-background:new 0 0 1200 1200;" xml:space="preserve">
<style type="text/css">
	.st0{clip-path:url(#SVGID_2_);fill:#4FAFC3;}
	.st1{clip-path:url(#SVGID_2_);}
	.st2{fill:#9AE8E8;}
	.st3{fill:#CCF9FF;}
	.st4{fill:#FFFFFF;}
	.st5{fill:#3093A0;}
	.st6{clip-path:url(#SVGID_2_);fill:#FFFFFF;}
</style>
<g>
	<defs>
		
			<ellipse id="SVGID_1_" transform="matrix(0.7071 -0.7071 0.7071 0.7071 -248.5296 599.9993)" cx="600" cy="600" rx="592" ry="592"/>
	</defs>
	<clipPath id="SVGID_2_">
		<use xlink:href="#SVGID_1_"  style="overflow:visible;"/>
	</clipPath>
	<ellipse transform="matrix(0.7071 -0.7071 0.7071 0.7071 -248.5296 599.9993)" class="st0" cx="600" cy="600" rx="592" ry="592"/>
	<g class="st1">
		<rect x="505.45" y="776.39" class="st2" width="189.13" height="126.88"/>
		<g>
			<path class="st3" d="M585.72,285.93v-85.92c-16.55-5.88,45.11-5.84,28.53,0.05v85.88c33.37,0,84.68,53.99,84.68,112.48H501.1
				C501.1,339.92,543.73,285.93,585.72,285.93z"/>
		</g>
		<path class="st4" d="M954.49,644.88c0,124.35-49.19,173.5-173.56,173.5H419.1c-124.37,0-173.48-49.15-173.48-173.5V475.05
			c0-124.35,49.12-173.5,173.48-173.5h361.83c124.36,0,173.56,49.14,173.56,173.5V644.88z"/>
		<path class="st2" d="M780.93,301.55h-36.81c124.36,0,173.55,49.14,173.55,173.5v169.83c0,124.35-49.19,173.5-173.55,173.5h36.81
			c124.36,0,173.56-49.15,173.56-173.5V475.05C954.49,350.69,905.3,301.55,780.93,301.55z"/>
		<path class="st2" d="M918.24,456.96c45.48,6.22,78.6,7.3,78.6,96.88c0,87.89-30.11,88.21-72.33,95.84L918.24,456.96z"/>
		<path class="st4" d="M281.76,456.96c-45.5,6.22-78.6,7.3-78.6,96.88c0,87.89,30.11,88.21,72.33,95.84L281.76,456.96z"/>
		<g>
			<path class="st4" d="M780.87,878.88H419.04c-124.36,0-173.48,49.12-173.48,173.47v68.43l0,0
				c223.45,95.35,475.89,96.63,700.29,3.56l8.58-3.56v-68.43C954.44,928,905.25,878.88,780.87,878.88z"/>
			<path class="st2" d="M780.87,878.88h-42.07c109.97,0,212.75,47.56,187.34,234.56c23.77-15.46,37.99-25.5,37.99-25.5
				C980.49,892.23,880.39,878.88,780.87,878.88z"/>
		</g>
		<path class="st2" d="M434.87,698.7c-76.5,0-101.91-25.44-101.91-101.93v-73.62c0-76.49,25.41-101.9,101.91-101.9h330.29
			c75.94,0,100.97,24.49,101.89,100.19c0,0.57,0.01,75.33,0.01,75.33c0,76.49-25.38,101.93-101.9,101.93H434.87z"/>
		<g>
			<path class="st5" d="M687.22,559.97c0-20.51,16.68-37.11,37.14-37.11c20.57,0,37.19,16.6,37.19,37.11
				c0,20.55-16.61,37.11-37.19,37.11C703.9,597.08,687.22,580.52,687.22,559.97z"/>
			<path class="st5" d="M438.51,559.97c0-20.51,16.6-37.11,37.1-37.11c20.53,0,37.14,16.6,37.14,37.11
				c0,20.55-16.61,37.11-37.14,37.11C455.11,597.08,438.51,580.52,438.51,559.97z"/>
		</g>
		<path class="st4" d="M642.71,159.85c0-23.58-19.1-42.67-42.66-42.67c-23.56,0-42.66,19.1-42.66,42.67
			c0,23.57,19.1,42.67,42.66,42.67C623.61,202.52,642.71,183.42,642.71,159.85z"/>
	</g>
	<path class="st6" d="M698.94,336.16c-6.39-46.71-7.49-80.69-99.45-80.69c-90.23,0-90.56,30.89-98.39,74.25L698.94,336.16z"/>
</g>
</svg>
