<svg width="102" height="100" viewBox="0 0 102 100" fill="none" xmlns="http://www.w3.org/2000/svg">
<path d="M32.812 47.9779C32.812 47.9779 21.5337 26.453 4.43586 26.2296C-5.83771 44.0429 12.2875 58.5202 12.2875 58.5202L32.7116 64.3893L32.812 47.9779Z" fill="#CDCBCB"/>
<path d="M21.7634 33.9409L18.0356 44.0515L4.84045 26.2425C4.70554 26.2382 4.57171 26.2306 4.43572 26.2296C4.39579 26.2997 4.35909 26.3688 4.31916 26.4389L11.3873 35.9775L1.4116 35.1357C1.40081 35.2307 1.39325 35.3235 1.38462 35.4185L1.36304 35.6688L11.8114 36.5506L23.5895 52.4461L6.03519 51.5266C6.16363 51.7144 6.29206 51.9011 6.42049 52.0824L24.0029 53.003L32.3661 64.29L32.7115 64.3893L32.7147 63.8615L18.4166 44.5664L22.1908 34.3295C22.0505 34.2 21.9069 34.0704 21.7634 33.9409Z" fill="white"/>
<path d="M84.6828 65.6973C85.0433 65.3681 85.2883 63.515 85.1523 61.4321C86.8467 60.8277 88.4192 59.9837 89.832 58.9422C91.1778 60.1747 92.7255 61.3338 93.6019 61.1137C95.3794 60.6658 98.1251 56.5041 98.1596 55.7281C98.1823 55.2316 97.0016 53.7023 95.3892 52.3057C96.1587 50.7473 96.7113 49.069 97.0102 47.312C98.8374 47.2332 100.761 46.958 101.226 46.1809C102.167 44.6073 101.164 39.7225 100.641 39.1494C100.313 38.79 98.4705 38.5451 96.3961 38.6789C95.8403 36.9369 95.033 35.3159 94.0196 33.8545C95.2014 32.5443 96.2709 31.0754 96.0583 30.2304C95.6104 28.4528 91.4487 25.7071 90.6727 25.6726C90.2108 25.6521 88.8553 26.6709 87.545 28.1107C85.8981 27.2386 84.1086 26.6105 82.2264 26.2748C82.1174 24.6257 81.8249 23.0252 81.1255 22.6064C79.5519 21.6653 74.6672 22.6679 74.0941 23.1914C73.7714 23.4871 73.5404 25.0056 73.5944 26.8166C71.6905 27.407 69.9281 28.2952 68.3578 29.4263C67.1706 28.4107 65.9251 27.5861 65.175 27.775C63.3974 28.2229 60.6518 32.3846 60.6172 33.1606C60.5978 33.588 61.4677 34.7784 62.738 35.9915C61.853 37.7345 61.2432 39.633 60.9572 41.6264C59.4041 41.7483 57.9482 42.0462 57.5521 42.7078C56.611 44.2814 57.6136 49.1661 58.1371 49.7392C58.4328 50.063 59.9589 50.294 61.7753 50.2389C62.4185 52.091 63.351 53.7962 64.5112 55.3126C63.4331 56.5484 62.5221 57.8726 62.7196 58.6583C63.1675 60.4359 67.3292 63.1815 68.1052 63.2161C68.5693 63.2366 69.9356 62.208 71.2524 60.7564C72.9004 61.5324 74.6758 62.0688 76.5332 62.3214C76.6271 64.0687 76.911 65.8387 77.6524 66.2812C79.2249 67.2234 84.1097 66.2219 84.6828 65.6973ZM70.8822 44.9192C70.5077 40.4273 73.8458 36.4836 78.3378 36.1091C82.8297 35.7346 86.7733 39.0728 87.1478 43.5647C87.5223 48.0567 84.1842 52.0014 79.6922 52.3748C75.2003 52.7493 71.2556 49.4111 70.8822 44.9192Z" fill="#8DD0E2"/>
<path d="M67.626 45.256C67.095 38.8743 71.8546 33.2491 78.2364 32.7181C84.6181 32.1871 90.2432 36.9467 90.7742 43.3284C91.3052 49.7101 86.5457 55.3353 80.1639 55.8663C73.7822 56.3973 68.1571 51.6377 67.626 45.256ZM90.6102 43.3425C90.0867 37.0514 84.5414 32.3587 78.2504 32.8822C71.9593 33.4056 67.2667 38.9509 67.7901 45.242C68.3135 51.533 73.8588 56.2257 80.1499 55.7023C86.442 55.1777 91.1336 49.6335 90.6102 43.3425Z" fill="white"/>
<path d="M83.9155 60.4391C83.9176 60.3625 83.9209 60.2848 83.9274 60.2082C82.7909 60.5611 81.6004 60.8018 80.3658 60.9043C71.2157 61.6663 63.1514 54.8421 62.3894 45.692C61.8908 39.701 64.6451 34.1762 69.1737 30.8607C69.1737 30.8596 69.1737 30.8596 69.1727 30.8585C69.15 30.7851 69.1306 30.7117 69.1122 30.6373C64.4843 33.9895 61.6653 39.6114 62.1725 45.7093C62.9442 54.978 71.1132 61.8908 80.382 61.1191C81.6069 61.0176 82.7876 60.7845 83.9155 60.4391Z" fill="white"/>
<path d="M91.2577 33.0721C93.6677 35.698 95.2607 39.1095 95.5791 42.928C95.5856 43.0025 95.5866 43.0769 95.592 43.1514C95.6611 43.119 95.7323 43.0899 95.8036 43.0607C95.7993 43.01 95.7993 42.9604 95.7949 42.9097C95.4744 39.0567 93.8728 35.6138 91.4476 32.9577C91.385 32.9976 91.3214 33.0354 91.2577 33.0721Z" fill="white"/>
<path d="M68.6291 17.7691C68.6291 17.7691 80.8939 1.65886 94.9708 3.85949C100.927 19.9244 84.0205 29.2914 84.0205 29.2914L66.4241 31.2643L68.6291 17.7691Z" fill="#CDCBCB"/>
<path d="M79.6611 7.77835L81.3145 16.6035L94.637 3.81311C94.7482 3.82822 94.8593 3.84117 94.9705 3.85844C94.9943 3.92212 95.0137 3.98363 95.0363 4.04731L87.9013 10.8974L96.2127 11.5957C96.2084 11.6745 96.2009 11.7533 96.1955 11.8321L96.1782 12.0404L87.4728 11.3086L75.5814 22.7252L90.13 24.4164C89.9983 24.5534 89.8666 24.6884 89.736 24.8189L75.1648 23.1245L66.7206 31.2309L66.4227 31.2643L66.494 30.8305L80.9281 16.9727L79.2542 8.03737C79.3902 7.95103 79.5251 7.86469 79.6611 7.77835Z" fill="white"/>
<path d="M70.9048 27.1858C70.9048 27.1858 87.0378 22.1499 94.1113 31.0258C86.3114 52.8519 57.9989 44.4714 57.9989 44.4714L70.9048 27.1858Z" fill="#E9E9EA"/>
<path d="M94.1113 31.0269C94.0811 31.1111 94.0498 31.1931 94.0196 31.2762L71.7111 36.3941L81.4677 44.1422C81.3047 44.2048 81.1417 44.2642 80.9777 44.3224L71.1542 36.5215L62.4412 38.5203L62.8535 37.9677L79.8175 34.0758L84.89 26.0763C85.0487 26.1022 85.2073 26.1303 85.366 26.1594L80.4359 33.9345L93.9516 30.8337C94.0045 30.8985 94.0595 30.96 94.1113 31.0269Z" fill="white"/>
<path d="M30.4797 70.5562C30.3653 70.2325 29.2309 69.5644 27.8452 69.082C27.9186 67.8181 27.8031 66.5672 27.516 65.366C28.6838 64.8318 29.8602 64.1475 29.9573 63.5183C30.1548 62.2437 28.211 59.3221 27.7178 59.0868C27.4016 58.9357 26.087 59.2811 24.739 59.9427C23.9404 59.0167 23.0046 58.1975 21.948 57.5219C22.3981 56.3163 22.7478 54.9942 22.3722 54.4794C21.6102 53.4379 18.1706 52.7472 17.6547 52.9296C17.332 53.044 16.6672 54.1708 16.1847 55.5511C14.9036 55.4335 13.6312 55.5112 12.4062 55.7681C11.8817 54.6424 11.2223 53.5469 10.6168 53.452C9.34216 53.2545 6.42058 55.1982 6.1853 55.6914C6.04499 55.985 6.33316 57.1431 6.90625 58.3875C5.8885 59.2153 4.99054 60.2028 4.25772 61.3296C3.15902 60.9475 2.04198 60.6982 1.57897 61.0371C0.537479 61.799 -0.153256 65.2387 0.0291409 65.7546C0.131672 66.0449 1.05337 66.6115 2.24164 67.0734C2.10134 68.4689 2.19308 69.8547 2.49527 71.1822C1.51098 71.6733 0.635692 72.2528 0.551509 72.7914C0.354002 74.066 2.29777 76.9876 2.79099 77.2229C3.06297 77.3524 4.07317 77.115 5.20748 76.626C6.09464 77.6783 7.15772 78.5936 8.36974 79.3264C8.02329 80.3657 7.81607 81.391 8.13662 81.8292C8.89858 82.8707 12.3382 83.5614 12.8541 83.379C13.1455 83.2765 13.7132 82.3505 14.1762 81.1579C15.5534 81.2496 16.9143 81.1126 18.2148 80.7769C18.7199 81.8152 19.3286 82.7682 19.8909 82.8556C21.1656 83.0531 24.0871 81.1093 24.3224 80.6161C24.4638 80.3215 24.1713 79.1537 23.5928 77.9017C24.548 77.047 25.3823 76.0432 26.0568 74.9089C27.2149 75.3277 28.4398 75.6288 28.9298 75.2705C29.9713 74.5118 30.6621 71.0721 30.4797 70.5562ZM13.2286 73.7984C10.2153 72.8076 8.5748 69.5622 9.56557 66.5489C10.5553 63.5356 13.8017 61.8951 16.815 62.8859C19.8284 63.8766 21.4688 67.122 20.4781 70.1353C19.4873 73.1486 16.2419 74.788 13.2286 73.7984Z" fill="#8DD0E2"/>
<path d="M12.5529 76C8.27141 74.5927 5.93263 69.9648 7.33999 65.6833C8.74736 61.4018 13.3753 59.0631 17.6567 60.4704C21.9382 61.8778 24.277 66.5057 22.8696 70.7872C21.4622 75.0686 16.8343 77.4074 12.5529 76ZM17.619 60.5816C13.3979 59.1947 8.83586 61.5001 7.449 65.7211C6.06214 69.9421 8.36746 74.5042 12.5885 75.891C16.8095 77.2779 21.3716 74.9726 22.7584 70.7516C24.1453 66.5305 21.84 61.9685 17.619 60.5816Z" fill="white"/>
<path d="M26.8618 69.6108C26.8122 69.5881 26.7636 69.5644 26.7151 69.5396C26.632 70.3727 26.4604 71.2103 26.1884 72.0381C24.1712 78.1769 17.5359 81.5292 11.3981 79.512C7.37886 78.191 4.55442 74.8906 3.64891 71.0462H3.64783C3.59386 71.0408 3.54098 71.0333 3.4881 71.0246C4.39037 74.9435 7.26014 78.3129 11.3506 79.6577C17.5683 81.7008 24.2899 78.3043 26.333 72.0866C26.6028 71.2653 26.7755 70.4364 26.8618 69.6108Z" fill="white"/>
<path d="M11.1423 57.3438C13.5059 56.503 16.1534 56.4059 18.7155 57.2477C18.7652 57.2639 18.8138 57.2833 18.8634 57.3006C18.8613 57.2466 18.8623 57.1927 18.8634 57.1387C18.83 57.1268 18.7965 57.1139 18.763 57.1031C16.1782 56.2537 13.5081 56.3465 11.1207 57.1894C11.1294 57.2402 11.1358 57.292 11.1423 57.3438Z" fill="white"/>
<path fillRule="evenodd" clipRule="evenodd" d="M64.5188 0H30.6492C26.4724 0 23.0544 3.41697 23.0544 7.59482V86.4905C23.0544 90.6673 26.4713 94.0843 30.6492 94.0843H64.5188C68.6956 94.0843 72.1137 90.6673 72.1137 86.4905V7.59374C72.1137 3.41697 68.6956 0 64.5188 0Z" fill="#616160"/>
<path fillRule="evenodd" clipRule="evenodd" d="M52.2 3.21948C52.6803 3.21948 53.0699 3.6091 53.0699 4.08937C53.0699 4.56965 52.6803 4.95927 52.2 4.95927C51.7197 4.95927 51.3301 4.56965 51.3301 4.08937C51.3312 3.60802 51.7197 3.21948 52.2 3.21948Z" fill="#F2F2F2"/>
<path fillRule="evenodd" clipRule="evenodd" d="M42.5589 3.62854H49.845C50.0976 3.62854 50.3048 3.83576 50.3048 4.08831C50.3048 4.34086 50.0976 4.54808 49.845 4.54808H42.5589C42.3063 4.54808 42.0991 4.34086 42.0991 4.08831C42.0991 3.83576 42.3053 3.62854 42.5589 3.62854Z" fill="#F2F2F2"/>
<path fillRule="evenodd" clipRule="evenodd" d="M25.827 11.4186V20.9097V85.4965C25.827 88.1493 27.9974 90.3198 30.6503 90.3198H64.5199C67.1728 90.3198 69.3432 88.1493 69.3432 85.4965V29.6669V11.4186V8.16249C69.3432 5.50965 67.1728 3.33923 64.5199 3.33923H62.6603H61.3404H57.2672C56.5323 3.33923 55.9322 3.93931 55.9322 4.67429V5.61973C55.9322 6.53819 55.1821 7.28828 54.2636 7.28828H40.9066C39.9881 7.28828 39.238 6.53819 39.238 5.61973V4.67429C39.238 3.93931 38.6379 3.33923 37.903 3.33923H34.3759H32.7764H30.6481C27.9953 3.33923 25.8249 5.50965 25.8249 8.16249V11.4186H25.827Z" fill="#F2F2F2"/>
<path fillRule="evenodd" clipRule="evenodd" d="M16.6403 17.7972H59.919C61.5218 17.7972 62.8331 19.1085 62.8331 20.7112V47.4771C62.8331 49.0798 61.5218 50.3911 59.919 50.3911H33.369L24.8093 58.9508C24.3539 59.4063 23.7041 59.5358 23.1084 59.2886C22.5126 59.0415 22.1446 58.4911 22.1446 57.8467V50.3901H16.6403C15.0376 50.3901 13.7263 49.0787 13.7263 47.476V20.7101C13.7263 19.1085 15.0376 17.7972 16.6403 17.7972Z" fill="#1991AD"/>
<path fillRule="evenodd" clipRule="evenodd" d="M78.5278 41.988H35.249C33.6463 41.988 32.335 43.2993 32.335 44.902V71.6679C32.335 73.2706 33.6463 74.5819 35.249 74.5819H61.7991L70.3588 83.1416C70.8142 83.5971 71.4639 83.7266 72.0597 83.4794C72.6554 83.2323 73.0235 82.6819 73.0235 82.0375V74.5808H78.5278C80.1305 74.5808 81.4418 73.2695 81.4418 71.6668V44.9009C81.4418 43.2993 80.1305 41.988 78.5278 41.988Z" fill="#D7D7D7"/>
<path fillRule="evenodd" clipRule="evenodd" d="M81.7142 84.7584C81.8029 87.1282 82.4227 92.4695 82.743 94.6382L83.6 95.3676C83.6 95.3676 80.9889 95.3551 80.3802 95.2594C79.7715 95.1624 72.7066 94.3567 72.7066 94.3567C73.5677 91.7457 74.0682 87.1199 74.4953 84.7002C73.9504 85.6043 72.7814 88.1321 72.1699 90.4783L69.2469 90.4326C69.3079 86.9798 71.087 82.5051 72.2517 80.9285C73.4179 79.3519 76.1579 78.4506 77.2561 78.3965C78.3543 78.3425 81.6393 78.2066 83.661 81.2405C84.4555 82.4857 85.1516 84.0831 85.5052 85.6265C86.0169 87.8576 86.0002 89.9306 86.0765 90.3036L83.8246 90.1525C83.6152 88.6965 82.3756 86.2019 81.7142 84.7584Z" fill="#1991AD"/>
<path fillRule="evenodd" clipRule="evenodd" d="M75.0666 85.8553C75.1456 85.7069 75.6185 84.1692 76.3326 84.0305C76.6224 84.0014 76.7195 84.4617 76.5836 84.8403C76.5836 84.8403 76.3881 85.1273 76.3825 85.1731C76.377 85.2188 75.7349 86.1493 75.7349 86.1493L75.0666 85.8553Z" fill="#F7BCAA"/>
<path d="M78.8563 79.6743V78.9671C78.8563 78.4689 78.4525 78.0651 77.9543 78.0651C77.4562 78.0651 77.0523 78.4689 77.0523 78.9671V79.6743C77.0523 80.1724 77.4562 80.5763 77.9543 80.5763C78.4525 80.5763 78.8563 80.1724 78.8563 79.6743Z" fill="url(#paint0_linear_520_100)"/>
<path fillRule="evenodd" clipRule="evenodd" d="M80.6423 76.9391C80.7643 76.7422 81.3245 76.3776 81.4964 75.8215C81.6684 75.2655 81.0069 74.8495 81.0347 74.2505C81.0624 73.6514 81.7377 72.3133 81.2482 71.8197C80.7587 71.326 80.1653 72.1123 79.8131 71.9597C79.5316 71.8377 79.6259 71.4661 79.2542 71.333C78.9797 71.2345 78.8174 71.5049 78.5609 71.5354C78.0617 71.5895 77.4641 70.9655 76.5947 71.3829C75.7252 71.8017 75.9318 73.0538 75.5907 73.3977C75.2496 73.7416 74.6145 73.6597 74.4357 74.0369C74.2568 74.4141 74.8988 75.1642 74.9182 75.4846C74.9376 75.8035 74.6756 76.1238 74.8433 76.3651C75.0014 76.598 75.3855 76.4691 75.4604 76.8199C75.5339 77.1707 75.7336 77.3205 75.8861 77.3052C76.0386 77.2913 76.1426 77.3482 76.2841 77.3205C76.4255 77.2941 76.8872 77.1665 76.8872 77.1665L79.8033 77.265L80.3469 77.2969L80.6423 76.9391Z" fill="#616160"/>
<path fillRule="evenodd" clipRule="evenodd" d="M76.2009 78.0318C74.9904 77.778 75.2539 76.6368 75.5353 76.5453C75.8154 76.4538 75.9777 76.8088 76.0193 76.971C76.0373 77.3357 76.0678 77.6851 76.2009 78.0318Z" fill="#F7BCAA"/>
<path fillRule="evenodd" clipRule="evenodd" d="M79.8228 78.2398C81.0555 78.1275 80.9237 76.9627 80.6547 76.8393C80.3219 76.6868 80.2124 77.1277 80.125 77.2068C80.064 77.5687 79.9947 77.9112 79.8228 78.2398Z" fill="#F7BCAA"/>
<path fillRule="evenodd" clipRule="evenodd" d="M77.9341 79.4989C77.7983 79.4905 76.2341 79.0593 76.0553 77.4189C75.8764 75.7785 76.2522 74.3239 76.4186 74.1159C76.5849 73.9065 78.2489 74.03 78.2489 74.03C78.2489 74.03 79.9157 74.0993 80.0585 74.3253C80.1999 74.5527 80.4065 76.0392 80.0404 77.6491C79.673 79.2576 78.07 79.5072 77.9341 79.4989Z" fill="#F7BCAA"/>
<path fillRule="evenodd" clipRule="evenodd" d="M76.0984 77.6795C76.2717 77.4909 75.9527 76.0142 76.6572 75.4387C76.9997 75.1586 77.6347 75.5857 78.005 75.4637C78.1672 75.4096 78.4653 75.0435 78.8481 74.9215C79.1143 74.8355 79.4693 74.8508 79.6481 75.246C79.7688 75.5108 79.6717 75.8492 79.73 76.0072C79.7882 76.1667 80.1459 76.4357 80.0988 77.3592C80.1279 77.2053 80.3983 76.3234 80.3983 76.3234L80.5772 74.1422L79.7591 72.8221L78.1242 73.0495C78.1242 73.0495 77.5058 73.1119 77.2992 73.295C77.0926 73.4794 75.9278 73.8025 75.889 73.9828C75.8501 74.163 75.7822 74.3682 75.8293 74.5388C75.8765 74.7094 75.7156 75.8949 75.7156 75.8949C75.7156 75.8949 75.9902 76.4565 76.0984 77.6795Z" fill="#616160"/>
<path fillRule="evenodd" clipRule="evenodd" d="M82.0123 98.3211C79.142 97.7291 75.9472 98.1561 72.69 97.6708C66.6359 96.7085 66.0382 93.228 66.6484 92.2699C68.4912 89.3787 80.2638 94.8781 82.7861 96.5601L82.0123 98.3211Z" fill="#212B53"/>
<path fillRule="evenodd" clipRule="evenodd" d="M82.0123 98.3211C81.649 98.2462 81.2801 98.188 80.9071 98.1408L81.7072 95.968C82.1135 96.1773 82.4338 96.3507 82.6279 96.463C82.6584 96.4977 82.6917 96.5864 82.725 96.7015L82.0123 98.3211Z" fill="#F7BCAA"/>
<path fillRule="evenodd" clipRule="evenodd" d="M74.5896 98.224C74.3511 98.2836 73.8796 98.719 73.6744 99.0394C73.4692 99.3597 72.3807 97.9744 72.3807 97.9744L72.3737 97.5196C72.5665 97.2631 73.5649 96.7223 73.8574 96.5504L74.5896 98.224Z" fill="#F7BCAA"/>
<path fillRule="evenodd" clipRule="evenodd" d="M71.7387 97.4295C71.7345 97.5044 71.9883 98.2005 72.2573 98.5887C72.5263 98.977 73.0754 99.5233 73.2293 99.5691C73.3833 99.6148 73.9143 99.124 73.9379 99.0463C73.9615 98.9687 73.1572 97.3907 72.8785 97.2478C72.5998 97.1064 71.7345 97.2978 71.7387 97.4295Z" fill="#002C2D"/>
<path fillRule="evenodd" clipRule="evenodd" d="M83.6361 98.6164C84.0507 98.4292 84.8923 98.3031 84.9423 97.869C84.9866 97.4836 83.5598 96.836 81.9624 97.3782L81.9652 97.3796C81.4174 98.5734 82.0095 98.9631 83.6361 98.6164Z" fill="#002C2D"/>
<path fillRule="evenodd" clipRule="evenodd" d="M74.5896 98.224C77.3157 97.6666 80.5217 98.3391 83.6139 97.8843C89.3615 96.983 89.7581 93.4207 89.1812 92.5097C88.4768 91.399 86.5785 90.94 80.591 93.4831C78.1602 94.2846 74.3317 96.237 73.8589 96.5518L74.5896 98.224Z" fill="#043C5E"/>
<path fillRule="evenodd" clipRule="evenodd" d="M80.5147 85.822C80.4329 85.675 79.9129 84.2329 79.196 84.1108C78.9048 84.0873 78.7509 84.323 78.8965 84.6974C78.8965 84.6974 79.0712 84.9359 79.0768 84.9817C79.0837 85.0274 79.7022 85.9883 79.7022 85.9883L80.5147 85.822Z" fill="#F7BCAA"/>
<path d="M79.2016 82.8337H76.6502V87.3528H79.2016V82.8337Z" fill="#002C2D"/>
<path fillRule="evenodd" clipRule="evenodd" d="M69.3287 91.4212C69.5408 91.747 71.2215 92.163 72.0077 91.4323C72.7925 90.7015 75.6809 86.8328 75.6809 86.8328C77.1313 87.1531 78.7259 85.5363 77.8773 84.5407C77.6721 84.2592 76.6099 84.0346 75.9832 85.148C75.4257 85.8926 70.0567 88.2056 69.3731 89.4258C69.1609 89.7905 69.1332 91.1314 69.3287 91.4212Z" fill="#F7BCAA"/>
<path fillRule="evenodd" clipRule="evenodd" d="M86.5161 91.284C86.3108 91.6154 84.7758 92.1978 83.9744 91.485C83.1729 90.7723 80.3025 86.9078 80.3025 86.9078C78.859 87.2613 77.1244 85.743 77.9494 84.728C78.1477 84.4409 79.2043 84.1941 79.856 85.2923C80.4301 86.0231 85.7146 88.085 86.4259 89.29C86.6464 89.6505 86.7046 90.9914 86.5161 91.284Z" fill="#F7BCAA"/>
<path fillRule="evenodd" clipRule="evenodd" d="M15.6766 51.6733C17.0295 53.6501 18.6781 57.3879 17.2735 59.7285C15.959 59.2835 13.7486 56.7655 12.5214 54.4352C12.1369 53.7048 11.8486 52.9936 11.7155 52.3697C11.3962 50.8482 11.9107 49.8472 12.6618 49.6225C13.6362 49.3312 14.5367 50.0069 15.6766 51.6733Z" fill="#02788C"/>
<path fillRule="evenodd" clipRule="evenodd" d="M17.2736 59.7285C18.9178 59.5674 22.5418 58.6388 23.9568 58.1065C24.733 58.4111 25.768 58.5782 26.3018 58.5486C26.8341 58.5176 28.2506 57.1928 28.4176 56.9192C27.5645 56.8586 23.4393 57.4826 23.4393 57.4826L23.2412 57.6807C21.6887 57.4368 17.9878 57.4974 16.8463 57.5595L17.2736 59.7285Z" fill="#D49682"/>
<path fillRule="evenodd" clipRule="evenodd" d="M17.2736 59.7285C18.6384 59.5955 21.3663 58.9331 23.0637 58.4067V57.6541C21.4225 57.4397 17.9464 57.4988 16.8463 57.558L17.2736 59.7285Z" fill="#02788C"/>
<path fillRule="evenodd" clipRule="evenodd" d="M23.9922 57.2031L24.4122 57.9823L32.8297 56.5126L35.2294 47.4963L34.7489 47.3913L32.5665 56.2731L23.9922 57.2031Z" fill="#002C2D"/>
<path fillRule="evenodd" clipRule="evenodd" d="M7.90089 65.9637C7.39965 70.2915 8.86344 80.7332 5.61502 92.6504L7.44253 92.6076C9.89105 88.0062 14.1035 79.8076 16.8566 65.77L7.90089 65.9637Z" fill="#212B53"/>
<path fillRule="evenodd" clipRule="evenodd" d="M7.92609 65.4226C8.85019 69.4221 14.1346 77.053 16.1499 92.6564L17.7852 92.6076C18.5955 88.1822 18.4136 71.3251 17.3135 65.5542L7.92609 65.4226Z" fill="#043C5E"/>
<path fillRule="evenodd" clipRule="evenodd" d="M13.4116 46.9197C13.6481 46.9167 13.4618 45.9749 13.6688 45.7354C14.5087 44.758 15.5525 44.659 15.9355 44.0734C16.3746 43.4022 16.0745 42.555 15.3559 42.342C14.8739 42.1986 14.2721 42.6954 13.9439 42.6244C13.6156 42.5535 12.9074 42.0375 12.1341 42.3243C11.3608 42.6111 11.8162 43.8206 11.5974 44.1755C11.3785 44.5303 10.861 44.8438 10.7871 45.2947C10.7147 45.7457 11.4199 47.2139 12.3026 47.415L12.3573 47.1563C12.0942 46.9522 11.9478 46.6151 11.9803 46.105C12.0276 45.3524 12.7447 45.1114 13.0478 45.8034C13.2401 46.244 13.2578 46.8857 13.4116 46.9197Z" fill="#616160"/>
<path fillRule="evenodd" clipRule="evenodd" d="M11.5042 48.9409C11.7926 49.0341 14.0282 49.7379 14.3638 49.9848C14.9552 51.0124 17.4939 54.4604 17.4215 65.8883C15.7832 66.8715 8.57815 66.8346 7.96011 66.0524C7.66144 60.9957 7.96455 51.87 11.5042 48.9409Z" fill="#1991AD"/>
<path fillRule="evenodd" clipRule="evenodd" d="M14.5855 48.9808C15.4638 49.0311 15.7684 47.2154 15.7092 47.0379C15.86 47.001 16.2415 46.7644 16.3554 46.6239C16.1779 46.5234 15.7802 45.7028 15.6663 45.4795C15.6663 45.4795 15.9236 45.2903 15.9177 45.1542C15.9133 45.0345 15.8379 44.6663 15.7447 44.2863C15.273 44.7003 14.3933 44.8896 13.6688 45.7338C13.4618 45.9748 13.6481 46.9167 13.4115 46.9182C13.2578 46.8842 13.24 46.241 13.0463 45.7989C12.7432 45.1084 12.0261 45.3479 11.9788 46.1005C11.9463 46.6106 12.0926 46.9463 12.3558 47.1518L12.3011 47.4105C12.2449 47.3972 12.1887 47.3795 12.134 47.3573C12.0779 47.6205 11.7629 48.6052 11.6402 48.9823C12.1887 49.1582 13.3139 49.5264 13.9468 49.7822C13.997 49.4953 14.1538 49.1168 14.2706 48.9083C14.3756 48.9497 14.482 48.9749 14.5855 48.9808Z" fill="#F7BCAA"/>
<path fillRule="evenodd" clipRule="evenodd" d="M21.7847 54.6614C22.5728 54.5076 23.2943 54.3982 23.8325 54.3731C24.0957 54.0744 24.4787 53.9901 25.2564 54.0197C26.0341 54.0493 28.2549 54.6895 28.3496 54.7132C28.6009 54.8684 29.5531 56.4372 29.5161 56.5983C29.4807 56.7595 28.0435 55.4081 27.7626 55.3534C27.4328 55.5264 26.7512 56.0661 25.728 56.1548C24.7049 56.245 23.627 55.4184 23.627 55.4184C23.216 55.584 22.6881 55.8605 22.0967 56.2006L21.7847 54.6614Z" fill="#FAB699"/>
<path fillRule="evenodd" clipRule="evenodd" d="M16.2341 56.1651C15.8097 54.7043 13.8699 50.5037 11.8782 50.31C11.6964 50.2922 11.5145 50.3085 11.3326 50.3617C8.19805 51.2962 12.86 59.3722 15.3588 60.2179C15.6338 60.1528 16.1468 59.8823 16.793 59.4993C16.8994 59.4357 17.0103 59.3692 17.1242 59.2997C17.1434 59.2879 17.1641 59.276 17.1833 59.2642C17.3194 59.1814 17.4583 59.0942 17.6018 59.0055C18.3307 58.5515 19.1513 58.0207 19.9675 57.5047C21.0868 56.7965 22.1957 56.1149 23.0385 55.6905L22.6851 54.5017C21.1119 54.7472 18.9916 55.2839 17.5515 55.7201C17.1952 55.828 16.8787 55.93 16.6244 56.0188C16.4707 56.072 16.3391 56.1208 16.2341 56.1651Z" fill="#1991AD"/>
<path fillRule="evenodd" clipRule="evenodd" d="M19.9912 94.7397C19.9912 94.8594 20.108 95.3178 17.8828 95.2601C17.5826 95.1197 17.1686 94.9822 17.1124 94.994C17.0562 95.0058 16.9986 95.2424 16.9986 95.2424C16.7221 95.2794 15.9222 95.3414 15.863 95.096C15.7403 94.577 15.9739 93.8377 16.283 93.5805L16.3569 93.5746C16.3569 93.6736 16.5062 94.0004 16.7886 93.9753C17.0696 93.9516 17.3993 93.6781 17.4924 93.4844C17.6536 93.5376 18.4476 94.404 19.0494 94.4972C19.6526 94.5918 19.9099 94.4085 19.9912 94.7397Z" fill="#002C2D"/>
<path fillRule="evenodd" clipRule="evenodd" d="M17.4924 93.4873L17.5575 92.6385L16.3643 92.6533L16.3569 93.576L16.3657 93.6322C16.4027 93.7623 16.5476 93.9988 16.7871 93.9781C17.0208 93.9574 17.2884 93.7667 17.4259 93.5893L17.4924 93.4873Z" fill="#FAA098"/>
<path fillRule="evenodd" clipRule="evenodd" d="M9.62201 94.7397C9.62201 94.8594 9.73882 95.3178 7.51357 95.2601C7.21342 95.1197 6.79942 94.9822 6.74323 94.994C6.68705 95.0058 6.62939 95.2424 6.62939 95.2424C6.35289 95.2794 5.55299 95.3414 5.49384 95.096C5.37112 94.577 5.60474 93.8377 5.91376 93.5805L5.98769 93.5746C5.98769 93.6736 6.13702 94.0004 6.41943 93.9753C6.70036 93.9516 7.03008 93.6781 7.12323 93.4844C7.28439 93.5376 8.07838 94.404 8.68016 94.4972C9.28194 94.5918 9.53921 94.4085 9.62201 94.7397Z" fill="#002C2D"/>
<path fillRule="evenodd" clipRule="evenodd" d="M7.12321 93.4873L7.18827 92.6385L5.99506 92.6533L5.98767 93.576L5.99654 93.6322C6.03351 93.7623 6.17841 93.9988 6.41794 93.9781C6.65155 93.9574 6.91917 93.7667 7.05668 93.5893L7.12321 93.4873Z" fill="#FAA098"/>
<rect x="18.4605" y="23.2383" width="39" height="3" rx="1.5" fill="#21A0B9"/>
<rect x="18.4605" y="29.2383" width="39" height="3" rx="1.5" fill="#21A0B9"/>
<rect x="18.4605" y="35.2383" width="22" height="3" rx="1.5" fill="#21A0B9"/>
<rect x="37.4605" y="48.2383" width="39" height="3" rx="1.5" fill="#EBEBEB" fill-opacity="0.5"/>
<rect x="37.4605" y="54.2383" width="39" height="3" rx="1.5" fill="#EBEBEB" fill-opacity="0.5"/>
<rect x="37.4605" y="60.2383" width="39" height="3" rx="1.5" fill="#EBEBEB" fill-opacity="0.5"/>
<rect x="48.4605" y="66.2383" width="28" height="3" rx="1.5" fill="#EBEBEB" fill-opacity="0.5"/>
<defs>
<linearGradient id="paint0_linear_520_100" x1="77.9443" y1="79.4988" x2="77.893" y2="80.3918" gradientUnits="userSpaceOnUse">
<stop stop-color="#EDB19F"/>
<stop offset="1" stop-color="#F7BCAA"/>
</linearGradient>
</defs>
</svg>
