<svg width="123" height="101" viewBox="0 0 123 101" fill="none" xmlns="http://www.w3.org/2000/svg">
<path d="M100.405 82.9346C100.867 82.5116 101.182 80.1353 101.008 77.4644C103.182 76.6894 105.197 75.6078 107.01 74.2708C108.737 75.851 110.722 77.339 111.846 77.055C114.125 76.481 117.647 71.1422 117.692 70.1466C117.721 69.5091 116.207 67.5483 114.139 65.7566C115.125 63.7579 115.835 61.6052 116.218 59.3512C118.561 59.25 121.028 58.898 121.624 57.901C122.831 55.8827 121.546 49.6179 120.874 48.8822C120.452 48.4214 118.089 48.1072 115.429 48.2779C114.716 46.0436 113.681 43.9649 112.38 42.0901C113.896 40.4102 115.267 38.5249 114.995 37.4417C114.421 35.1621 109.083 31.6407 108.087 31.5953C107.495 31.5682 105.756 32.8749 104.075 34.7225C101.963 33.603 99.668 32.7979 97.2539 32.3688C97.1134 30.2539 96.7388 28.2008 95.8414 27.6645C93.8231 26.4575 87.5583 27.7431 86.8226 28.4153C86.4087 28.7945 86.1126 30.7418 86.1805 33.0652C83.7393 33.8221 81.4778 34.9612 79.4655 36.4114C77.9428 35.1092 76.346 34.0517 75.3836 34.2934C73.104 34.8675 69.5826 40.2063 69.5373 41.2018C69.5131 41.7502 70.628 43.2775 72.2565 44.8335C71.1205 47.0693 70.3395 49.5046 69.9724 52.0607C67.9813 52.2178 66.1141 52.5985 65.605 53.449C64.3979 55.4673 65.6835 61.7321 66.3558 62.4678C66.7349 62.8832 68.6928 63.1793 71.0223 63.1083C71.8471 65.4846 73.0436 67.6706 74.5316 69.6164C73.1493 71.2011 71.9816 72.9006 72.2339 73.9067C72.8079 76.1864 78.1467 79.7078 79.1422 79.7531C79.7375 79.7803 81.4899 78.46 83.1788 76.5988C85.2923 77.5943 87.5704 78.2817 89.9527 78.6065C90.0721 80.8484 90.4377 83.1174 91.3879 83.6854C93.4062 84.8925 99.671 83.6069 100.405 82.9346ZM82.7045 56.2861C82.2256 50.5258 86.5053 45.4665 92.2671 44.9861C98.0274 44.5057 103.087 48.7885 103.567 54.5488C104.047 60.309 99.7662 65.3683 94.0044 65.8487C88.2442 66.3276 83.1849 62.0463 82.7045 56.2861Z" fill="#EBEBEB"/>
<path d="M78.5289 56.7166C77.8476 48.5316 83.9523 41.3181 92.1372 40.6368C100.322 39.9555 107.536 46.0602 108.218 54.2451C108.9 62.43 102.795 69.6435 94.6102 70.3249C86.4238 71.0077 79.2102 64.903 78.5289 56.7166ZM108.007 54.2632C107.335 46.1946 100.224 40.176 92.1553 40.8483C84.0867 41.5205 78.0681 48.6313 78.7404 56.6999C79.4127 64.7685 86.5235 70.7871 94.5921 70.1149C102.661 69.4426 108.679 62.3318 108.007 54.2632Z" fill="white"/>
<path d="M99.4217 76.1909C99.4248 76.0927 99.4293 75.993 99.4368 75.8948C97.979 76.348 96.4517 76.6562 94.8685 76.7876C83.1335 77.765 72.7913 69.0121 71.8139 57.2771C71.1733 49.5937 74.7068 42.507 80.5155 38.256C80.5155 38.2545 80.5155 38.2545 80.5139 38.253C80.4852 38.1593 80.4596 38.0641 80.4369 37.9689C74.5014 42.2684 70.8863 49.4789 71.5374 57.2997C72.5269 69.1873 83.0036 78.0536 94.8912 77.0641C96.4608 76.9326 97.9745 76.6335 99.4217 76.1909Z" fill="white"/>
<path d="M108.838 41.0915C111.929 44.4603 113.973 48.8338 114.381 53.733C114.388 53.8281 114.391 53.9233 114.397 54.02C114.486 53.9777 114.577 53.9414 114.668 53.9037C114.663 53.8387 114.662 53.7753 114.657 53.7103C114.246 48.7688 112.192 44.3531 109.081 40.9465C109.001 40.9963 108.919 41.0447 108.838 41.0915Z" fill="white"/>
<path d="M86.0083 21.0145C86.0083 21.0145 101.739 0.35275 119.793 3.17472C127.433 23.779 105.749 35.792 105.749 35.792L83.1803 38.3239L86.0083 21.0145Z" fill="#EDEDED"/>
<path d="M100.159 8.20077L102.278 19.5189L119.364 3.11579C119.506 3.13542 119.65 3.15204 119.792 3.1747C119.822 3.25628 119.848 3.33483 119.876 3.41641L110.725 12.2026L121.386 13.0984C121.38 13.1996 121.371 13.2993 121.365 13.4006L121.342 13.668L110.176 12.7298L94.9259 27.3714L113.586 29.5408C113.417 29.716 113.249 29.8897 113.08 30.0574L94.3911 27.8835L83.561 38.2801L83.1803 38.3224L83.271 37.765L101.784 19.9917L99.6378 8.53161C99.81 8.42133 99.9837 8.31105 100.159 8.20077Z" fill="white"/>
<path d="M88.9285 33.0925C88.9285 33.0925 109.619 26.6343 118.692 38.0174C108.688 66.0104 72.3759 55.2619 72.3759 55.2619L88.9285 33.0925Z" fill="#DADADA"/>
<path d="M118.692 38.0173C118.653 38.1245 118.614 38.2303 118.574 38.3375L89.9633 44.9015L102.476 54.8388C102.268 54.9189 102.058 54.9959 101.848 55.0699L89.2488 45.0646L78.0742 47.6283L78.6029 46.9198L100.36 41.9284L106.865 31.6693C107.069 31.7026 107.271 31.7373 107.475 31.7751L101.153 41.7472L118.487 37.771C118.555 37.8526 118.624 37.9327 118.692 38.0173Z" fill="white"/>
<path d="M62.9401 41.9858C62.9401 41.9858 45.83 9.33074 19.8915 8.99385C4.30568 36.0171 31.8033 57.981 31.8033 57.981L62.7875 66.8835L62.9401 41.9858Z" fill="#CDCBCB"/>
<path d="M46.179 20.6927L40.5245 36.0307L20.5048 9.01351C20.3009 9.00747 20.0969 8.99689 19.8915 8.99387C19.8295 9.09962 19.7751 9.20537 19.7147 9.31262L30.4361 23.782L15.302 22.5055C15.2854 22.649 15.2748 22.791 15.2612 22.9345L15.2295 23.3137L31.0796 24.6522L48.9496 48.7643L22.3176 47.3699C22.5125 47.6554 22.7074 47.9379 22.9023 48.2129L49.575 49.6103L62.2633 66.7339L62.7875 66.885L62.792 66.0843L41.1016 36.8102L46.8271 21.2803C46.6141 21.0839 46.3965 20.8875 46.179 20.6927Z" fill="white"/>
<path d="M46.2878 65.5345C46.114 65.0435 44.3933 64.0299 42.2905 63.2972C42.4023 61.3801 42.227 59.4827 41.7904 57.6608C43.5625 56.8511 45.3466 55.8117 45.4946 54.8585C45.7953 52.9248 42.8464 48.4924 42.0971 48.1359C41.6182 47.9078 39.6241 48.4305 37.5786 49.4351C36.3671 48.0301 34.947 46.7883 33.3442 45.7626C34.027 43.9331 34.5572 41.9285 33.9877 41.1474C32.832 39.5673 27.6126 38.5188 26.8316 38.7953C26.3421 38.969 25.3345 40.6776 24.6018 42.7729C22.6575 42.5947 20.7284 42.7125 18.8702 43.1023C18.0741 41.3952 17.0755 39.7319 16.1555 39.5899C14.2219 39.2893 9.78949 42.2382 9.43296 42.9875C9.21996 43.4331 9.65806 45.1885 10.5267 47.0769C8.98278 48.3323 7.62165 49.8294 6.50827 51.541C4.84198 50.9624 3.14698 50.5832 2.44451 51.0968C0.864329 52.2525 -0.184088 57.4704 0.0923678 58.253C0.247969 58.6941 1.64536 59.5522 3.44761 60.2531C3.23611 62.3711 3.37359 64.4725 3.83283 66.4877C2.34027 67.2325 1.01087 68.1132 0.883968 68.929C0.583341 70.8627 3.53221 75.2951 4.28151 75.6516C4.69393 75.848 6.22577 75.4884 7.94796 74.7452C9.29247 76.342 10.9059 77.7303 12.7459 78.8422C12.2202 80.4193 11.906 81.9753 12.3924 82.64C13.5481 84.2202 18.766 85.2686 19.5485 84.9922C19.9897 84.8366 20.8523 83.4316 21.5547 81.6233C23.6425 81.7623 25.7076 81.5554 27.6821 81.0463C28.448 82.6204 29.371 84.0676 30.2246 84.2006C32.1583 84.5012 36.5906 81.5508 36.9472 80.803C37.1602 80.3559 36.7175 78.5838 35.8398 76.6849C37.2886 75.3887 38.5545 73.866 39.5773 72.1453C41.3342 72.7813 43.1923 73.2375 43.9356 72.6937C45.5158 71.535 46.5642 66.3155 46.2878 65.5345ZM20.1166 70.4518C15.5452 68.9502 13.0571 64.0253 14.5602 59.454C16.0619 54.8826 20.9867 52.3945 25.5581 53.8961C30.1294 55.3978 32.6175 60.3226 31.1159 64.894C29.6112 69.4653 24.6879 71.9534 20.1166 70.4518Z" fill="#EBEBEB"/>
<path d="M19.0908 73.7919C12.5948 71.6573 9.04772 64.6371 11.1823 58.1411C13.3169 51.6452 20.3371 48.0981 26.8331 50.2327C33.3275 52.3673 36.8761 59.3874 34.7415 65.8834C32.6069 72.3794 25.5868 75.9265 19.0908 73.7919ZM26.7787 50.4003C20.3764 48.296 13.4544 51.7932 11.35 58.197C9.24563 64.5993 12.7429 71.5213 19.1467 73.6257C25.549 75.7301 32.471 72.2328 34.5754 65.829C36.6782 59.4252 33.181 52.5047 26.7787 50.4003Z" fill="white"/>
<path d="M40.7994 64.0992C40.7254 64.0645 40.6498 64.0297 40.5773 63.992C40.4519 65.2564 40.1921 66.5269 39.7782 67.7823C36.7175 77.0942 26.6518 82.1807 17.3399 79.1215C11.2428 77.1184 6.95845 72.1104 5.58372 66.2776H5.58221C5.50063 66.2701 5.42057 66.258 5.33899 66.2444C6.70767 72.189 11.06 77.3012 17.2674 79.3406C26.7001 82.4405 36.8973 77.2876 39.9972 67.8548C40.4066 66.61 40.668 65.3516 40.7994 64.0992Z" fill="white"/>
<path d="M16.9517 45.4891C20.5365 44.2125 24.5535 44.066 28.4405 45.344C28.516 45.3697 28.59 45.3984 28.6656 45.4241C28.6625 45.3425 28.664 45.261 28.6656 45.1794C28.6142 45.1628 28.5643 45.1416 28.513 45.125C24.5912 43.8364 20.5411 43.9784 16.9199 45.2564C16.932 45.3335 16.9426 45.4105 16.9517 45.4891Z" fill="white"/>
<path d="M28.7939 72.4791V86.1569C28.7939 88.8323 43.3374 91.0001 61.2768 91.0001C79.2162 91.0001 93.7597 88.8308 93.7597 86.1569V72.4791H28.7939Z" fill="#E8E8E8"/>
<path d="M54.7234 72.4791H28.7939V86.1569C28.7939 88.4969 39.9247 90.4503 54.7234 90.9019V72.4791Z" fill="#F5F5F5"/>
<path d="M61.2768 77.3225C79.2166 77.3225 93.7597 75.154 93.7597 72.4792C93.7597 69.8043 79.2166 67.6359 61.2768 67.6359C43.337 67.6359 28.7939 69.8043 28.7939 72.4792C28.7939 75.154 43.337 77.3225 61.2768 77.3225Z" fill="#ADADAD"/>
<path d="M28.7939 52.1301V65.8079C28.7939 68.4833 43.3374 70.6512 61.2768 70.6512C79.2162 70.6512 93.7597 68.4818 93.7597 65.8079V52.1301H28.7939Z" fill="#E8E8E8"/>
<path d="M54.7234 52.1301H28.7939V65.8079C28.7939 68.148 39.9247 70.1013 54.7234 70.553V52.1301Z" fill="#F5F5F5"/>
<path d="M61.2768 56.9734C79.2166 56.9734 93.7597 54.805 93.7597 52.1301C93.7597 49.4553 79.2166 47.2869 61.2768 47.2869C43.337 47.2869 28.7939 49.4553 28.7939 52.1301C28.7939 54.805 43.337 56.9734 61.2768 56.9734Z" fill="#ADADAD"/>
<path d="M57.8445 64.7792C57.843 64.7792 57.84 64.7792 57.8385 64.7792C54.9349 64.7338 52.0873 64.6296 49.3771 64.471C49.1641 64.4589 49.0024 64.2761 49.0145 64.0631C49.0266 63.8501 49.2124 63.6884 49.4224 63.7005C52.1205 63.8591 54.9561 63.9619 57.8505 64.0072C58.0636 64.0102 58.2328 64.1854 58.2297 64.3985C58.2267 64.61 58.0545 64.7792 57.8445 64.7792Z" fill="#A8A8A8"/>
<path d="M60.3356 64.3924C60.3356 64.1311 60.5486 63.918 60.81 63.918C61.0713 63.918 61.2843 64.1311 61.2843 64.3924C61.2843 64.6538 61.0713 64.8668 60.81 64.8668C60.5486 64.8668 60.3356 64.6553 60.3356 64.3924Z" fill="#A8A8A8"/>
<path d="M64.3677 64.3637C64.3677 64.1024 64.5807 63.8893 64.842 63.8893C65.1034 63.8893 65.3164 64.1024 65.3164 64.3637C65.3164 64.6251 65.1034 64.8381 64.842 64.8381C64.5792 64.8381 64.3677 64.6266 64.3677 64.3637Z" fill="#A8A8A8"/>
<path d="M68.3982 64.2595C68.3982 63.9981 68.6112 63.7851 68.8725 63.7851C69.1339 63.7851 69.3469 63.9981 69.3469 64.2595C69.3469 64.5208 69.1339 64.7339 68.8725 64.7339C68.6112 64.7339 68.3982 64.5208 68.3982 64.2595Z" fill="#A8A8A8"/>
<path d="M61.2768 85.1554C60.1257 85.1554 58.9685 85.1463 57.8385 85.1282C57.6255 85.1251 57.4563 84.9499 57.4593 84.7369C57.4623 84.5239 57.6315 84.3547 57.8506 84.3577C58.9761 84.3758 60.1287 84.3849 61.2768 84.3849C64.0988 84.3849 66.8996 84.3305 69.5992 84.2248C69.8092 84.2127 69.9905 84.3819 69.9996 84.5949C70.0086 84.8079 69.8424 84.9862 69.6294 84.9952C66.9193 85.101 64.1094 85.1554 61.2768 85.1554Z" fill="#A8A8A8"/>
<path d="M55.6857 84.6855C55.6857 84.4242 55.4727 84.2111 55.2114 84.2111C54.95 84.2111 54.737 84.4242 54.737 84.6855C54.737 84.9469 54.95 85.1599 55.2114 85.1599C55.4742 85.1599 55.6857 84.9469 55.6857 84.6855Z" fill="#A8A8A8"/>
<path d="M28.7939 40.9919V45.4575C28.7939 48.1329 43.3374 50.3007 61.2768 50.3007C79.2162 50.3007 93.7597 48.1314 93.7597 45.4575V40.9919H28.7939Z" fill="#E8E8E8"/>
<path d="M54.7234 40.9919H28.7939V45.4575C28.7939 47.7975 39.9247 49.7508 54.7234 50.2025V40.9919Z" fill="#F5F5F5"/>
<path d="M61.2768 45.8351C79.2166 45.8351 93.7597 43.6667 93.7597 40.9918C93.7597 38.3169 79.2166 36.1485 61.2768 36.1485C43.337 36.1485 28.7939 38.3169 28.7939 40.9918C28.7939 43.6667 43.337 45.8351 61.2768 45.8351Z" fill="#ADADAD"/>
<path d="M60.1982 48.2522C60.1982 47.9138 60.4731 47.6389 60.8115 47.6389C61.1499 47.6389 61.4249 47.9138 61.4249 48.2522C61.4249 48.5906 61.1499 48.8655 60.8115 48.8655C60.4716 48.8655 60.1982 48.5906 60.1982 48.2522Z" fill="#A8A8A8"/>
<path d="M28.7939 22.9541V36.6319C28.7939 39.3073 43.3374 41.4752 61.2768 41.4752C79.2162 41.4752 93.7597 39.3058 93.7597 36.6319V22.9541H28.7939Z" fill="#E8E8E8"/>
<path d="M54.7234 22.9541H28.7939V36.6319C28.7939 38.9719 39.9247 40.9253 54.7234 41.377V22.9541Z" fill="#F5F5F5"/>
<path d="M61.2768 27.7975C79.2166 27.7975 93.7597 25.6291 93.7597 22.9542C93.7597 20.2793 79.2166 18.1109 61.2768 18.1109C43.337 18.1109 28.7939 20.2793 28.7939 22.9542C28.7939 25.6291 43.337 27.7975 61.2768 27.7975Z" fill="#ADADAD"/>
<path d="M61.2768 21.0265C70.4814 21.0265 78.0998 22.0387 79.4081 23.356C79.538 23.2246 79.609 23.0901 79.609 22.9527C79.609 21.4435 71.4014 20.2198 61.2783 20.2198C51.1537 20.2198 42.9476 21.4435 42.9476 22.9527C42.9476 23.0901 43.0171 23.2246 43.1485 23.356C44.4538 22.0387 52.0722 21.0265 61.2768 21.0265Z" fill="#515151"/>
<path d="M61.2768 25.6869C71.2904 25.6869 79.4081 24.644 79.4081 23.3575C79.4081 22.0709 71.2904 21.028 61.2768 21.028C51.2632 21.028 43.1455 22.0709 43.1455 23.3575C43.1455 24.644 51.2632 25.6869 61.2768 25.6869Z" fill="#7F7F7F"/>
<path d="M60.3356 35.6984C60.3356 35.437 60.5486 35.224 60.81 35.224C61.0713 35.224 61.2844 35.437 61.2844 35.6984C61.2844 35.9597 61.0713 36.1727 60.81 36.1727C60.5486 36.1727 60.3356 35.9597 60.3356 35.6984Z" fill="#A8A8A8"/>
<path d="M64.3677 35.6696C64.3677 35.4083 64.5807 35.1953 64.842 35.1953C65.1034 35.1953 65.3164 35.4083 65.3164 35.6696C65.3164 35.931 65.1034 36.144 64.842 36.144C64.5792 36.144 64.3677 35.931 64.3677 35.6696Z" fill="#A8A8A8"/>
<path d="M68.3982 35.5639C68.3982 35.3025 68.6112 35.0895 68.8726 35.0895C69.1339 35.0895 69.3469 35.3025 69.3469 35.5639C69.3469 35.8252 69.1339 36.0383 68.8726 36.0383C68.6112 36.0398 68.3982 35.8268 68.3982 35.5639Z" fill="#A8A8A8"/>
<path d="M57.2538 35.6696C57.2538 35.4083 57.0408 35.1953 56.7795 35.1953C56.5181 35.1953 56.3051 35.4083 56.3051 35.6696C56.3051 35.931 56.5181 36.144 56.7795 36.144C57.0408 36.144 57.2538 35.931 57.2538 35.6696Z" fill="#A8A8A8"/>
<path d="M53.2218 35.5639C53.2218 35.3025 53.0088 35.0895 52.7475 35.0895C52.4861 35.0895 52.2731 35.3025 52.2731 35.5639C52.2731 35.8252 52.4861 36.0383 52.7475 36.0383C53.0103 36.0398 53.2218 35.8268 53.2218 35.5639Z" fill="#A8A8A8"/>
<path d="M108.101 61.9556L107.212 64.3077C107.138 64.6371 107.126 65.0299 107.466 65.2247C107.466 65.2247 107.691 65.3562 107.931 65.4393C108.093 65.4045 109.119 62.229 109.119 62.229L109.108 62.2094C108.702 61.6791 108.101 61.9556 108.101 61.9556Z" fill="#636363"/>
<path d="M107.931 65.4392L109.119 62.2275L109.274 62.3181L108.078 65.4997L107.931 65.4392Z" fill="#636363"/>
<path d="M107.747 62.8862L107.67 63.0977L108.08 63.1762L108.157 62.9708L107.747 62.8862Z" fill="white"/>
<path d="M107.576 63.3394L107.498 63.5524L107.909 63.6309L107.986 63.4255L107.576 63.3394Z" fill="white"/>
<path d="M107.116 61.3997L108.101 61.9541C108.157 62.1913 108.072 62.439 107.883 62.5931L107.848 62.6203L106.761 62.3408L107.116 61.3997Z" fill="#F8E2D6"/>
<path d="M99.245 46.5601C99.245 46.5601 100.222 47.6131 100.475 49.4667C100.642 50.6994 100.18 52.6543 100.13 54.1876C100.083 55.5895 100.716 56.7044 101.828 57.5595L107.116 61.4012L106.762 62.3423C106.762 62.3423 99.526 61.2576 97.6255 58.0157C95.7251 54.7753 95.2749 47.4363 95.2749 47.4363L99.245 46.5601Z" fill="#5B5B5B"/>
<path d="M103.455 42.5659L106.175 48.6388C106.175 48.6388 107.292 48.7688 107.776 49.1978C108.03 49.4214 108.018 49.87 107.95 50.2462C107.898 50.5317 107.554 50.6526 107.336 50.4622C107.037 50.2024 106.652 49.9108 106.398 49.8685C105.727 49.7567 105.526 49.2824 105.526 49.2824L101.624 43.1641L103.455 42.5659Z" fill="#F8E2D6"/>
<path d="M89.7412 30.3535L88.3484 29.1616L89.4285 23.2759L91.1054 22.4194C91.1054 22.4194 90.9226 22.0946 90.5087 22.2336C90.0947 22.371 89.7442 22.2895 89.7442 22.2895C89.7442 22.2895 89.43 21.9012 90.0252 21.6383C90.3591 21.4133 90.5827 21.6368 91.551 21.5991C91.551 21.4495 90.2745 21.096 90.2745 21.096C89.8772 20.9676 88.8605 21.7547 88.8605 21.7547C88.7925 21.8483 88.7472 21.9571 88.7306 22.0704L88.5704 23.1626C88.5704 23.1626 86.4102 29.0861 86.4102 29.719C86.4102 30.352 87.6202 31.2176 87.6202 31.2176L89.7412 30.3535Z" fill="#F8E2D6"/>
<path d="M97.2328 47.1705C97.2328 47.1705 98.0712 48.1796 97.5681 50.5272C97.2463 52.0258 95.8369 53.9112 94.8897 55.2088C94.2114 56.1394 94.1963 57.3102 94.4002 58.4447C95.1752 62.7547 93.9349 68.018 93.9349 68.018H92.9288C92.9288 68.018 91.4196 60.3059 90.9725 54.8855C90.5691 49.9985 92.6614 46.3985 92.7052 46.335L97.2328 47.1705Z" fill="#636363"/>
<path d="M99.7027 35.2556C101.5 36.576 103.615 42.9224 103.615 42.9224L102.037 43.8076L99.4686 40.2832C99.4686 40.2832 99.2178 44.3621 99.8326 47.4922C99.5532 48.666 98.2207 48.5331 96.0589 48.1237C93.8987 47.7143 92.4831 46.7822 92.4831 46.7822C92.4831 46.7822 92.3895 41.1216 92.11 38.1199C91.8305 35.1182 92.3819 34.7979 91.6266 34.8976C89.9391 33.9383 87.1731 30.852 87.1731 30.852L89.7428 30.3519L95.2749 33.5939C95.2749 33.5954 97.979 34.3084 99.7027 35.2556Z" fill="#CDCDCD"/>
<path d="M96.568 27.7476L95.2326 29.0664C94.6661 29.6254 94.4274 30.4381 94.5996 31.2146L94.7567 31.9186L96.568 27.7476Z" fill="#F8E2D6"/>
<path d="M98.183 27.249C101.423 27.249 100.046 33.4715 100.046 33.4715C100.046 33.4715 99.4686 37.5081 98.183 39.1276C97.0711 40.531 94.87 40.108 93.8262 39.4357C93.3171 39.1064 92.746 38.8874 92.1432 38.8149C91.2595 38.7091 90.2096 38.3178 90.2096 36.7256C90.2096 35.2255 91.9997 34.0668 93.1781 33.2374C93.9455 32.6981 94.4818 31.8899 94.7054 30.9789C95.0831 29.4425 96.0031 27.249 98.183 27.249Z" fill="#222323"/>
<path d="M93.7642 69.1358L91.2504 69.1313C90.9165 69.1781 90.5434 69.305 90.4815 69.6902C90.4815 69.6902 90.4377 69.9471 90.4452 70.2024C90.5343 70.3413 93.8684 70.1842 93.8684 70.1842L93.8835 70.1676C94.234 69.6011 93.7642 69.1358 93.7642 69.1358Z" fill="#636363"/>
<path d="M90.4437 70.2039L93.8669 70.1843L93.8367 70.3626H90.4392L90.4437 70.2039Z" fill="#636363"/>
<path d="M92.7687 69.1328L92.5421 69.1344L92.6131 69.5453H92.8321L92.7687 69.1328Z" fill="white"/>
<path d="M92.2837 69.1328L92.0571 69.1344L92.1266 69.5453H92.3472L92.2837 69.1328Z" fill="white"/>
<path d="M93.9364 68.0179L93.7642 69.1358C93.5618 69.2718 93.3004 69.2808 93.0904 69.157L93.0527 69.1343L92.9318 68.0179H93.9364Z" fill="#F8E2D6"/>
<path d="M90.5087 22.232C90.9226 22.0946 91.1054 22.4178 91.1054 22.4178L89.9905 22.9874C89.9754 22.9813 89.9603 22.9738 89.9437 22.9662C89.7609 22.8922 89.3802 22.7275 89.205 22.6973C89.3107 22.5931 90.3032 22.3015 90.5087 22.232Z" fill="#F8E2D6"/>
<path d="M89.1203 70.2541L79.2434 100.918H78.044L87.9224 70.2541H89.1203Z" fill="#6D6D6D"/>
<path d="M100.002 70.3656L90.125 100.918H88.9255L98.8024 70.3656H100.002Z" fill="#6D6D6D"/>
<path d="M85.8814 76.5927V77.5686L97.1572 77.5626L97.3506 76.5867L85.8814 76.5927Z" fill="#6D6D6D"/>
<path d="M88.2139 70.2538V71.2297L99.4882 71.2237L99.6816 70.2478L88.2139 70.2538Z" fill="#6D6D6D"/>
<path d="M83.8284 83.0146V83.989L95.1042 83.983L95.2961 83.0086L83.8284 83.0146Z" fill="#6D6D6D"/>
<path d="M81.9008 89.4351V90.4095L93.1766 90.4035L93.3684 89.4291L81.9008 89.4351Z" fill="#6D6D6D"/>
<path d="M79.9067 96.1047L79.452 97.0807L90.7262 97.0746L90.9196 96.0987L79.9067 96.1047Z" fill="#6D6D6D"/>
<path d="M107.51 70.2523L117.387 100.918H116.189L106.312 70.2523H107.51Z" fill="#7F7F7F"/>
<path d="M96.6285 70.3656L106.505 100.918H105.306L95.4305 70.3656H96.6285Z" fill="#7F7F7F"/>
<path d="M109.549 76.5927V77.5686L98.2736 77.5625L98.0803 76.5866L109.549 76.5927Z" fill="#7F7F7F"/>
<path d="M107.218 70.2538V71.2298L95.9426 71.2237L95.7311 70.2493L107.218 70.2538Z" fill="#7F7F7F"/>
<path d="M111.602 83.0146V83.989L100.328 83.983L100.135 83.0086L111.602 83.0146Z" fill="#7F7F7F"/>
<path d="M113.53 89.4351V90.4095L102.254 90.4034L102.062 89.429L113.53 89.4351Z" fill="#7F7F7F"/>
<path d="M115.524 96.1047L115.98 97.0806L104.705 97.0746L104.511 96.0987L115.524 96.1047Z" fill="#7F7F7F"/>
<path d="M56.2644 29.6571L60.5154 28.6827C61.094 28.6132 61.7602 28.6298 61.9778 29.0951C61.9778 29.0951 62.1258 29.4033 62.1863 29.7296C62.076 29.9411 56.3928 31.0258 56.3928 31.0258L56.3641 31.0107C55.6027 30.4275 56.2644 29.6571 56.2644 29.6571Z" fill="#4D4D4D"/>
<path d="M62.1863 29.7295L56.3928 31.0257L56.494 31.2387L62.2407 29.9289L62.1863 29.7295Z" fill="white"/>
<path d="M57.9458 29.2688L58.3295 29.1842V29.7326L57.9579 29.8172L57.9458 29.2688Z" fill="white"/>
<path d="M58.7676 29.0815L59.1498 28.9969V29.5453L58.7782 29.6299L58.7676 29.0815Z" fill="white"/>
<path d="M55.6495 28.308L56.2644 29.6571C56.6451 29.7522 57.0907 29.6616 57.411 29.4244L57.4684 29.3806L57.3505 27.9198L55.6495 28.308Z" fill="#F8E2D6"/>
<path d="M69.7442 26.4047L70.2382 22.072C70.3651 21.504 70.6023 20.8801 71.1129 20.8302C71.1129 20.8302 71.4528 20.7924 71.7806 20.8438C71.9423 21.0175 71.0766 26.7385 71.0766 26.7385L71.0525 26.7612C70.2518 27.2854 69.7442 26.4047 69.7442 26.4047Z" fill="#4D4D4D"/>
<path d="M71.7821 20.8438L71.0782 26.7385L71.3123 26.7143L71.9876 20.8589L71.7821 20.8438Z" fill="white"/>
<path d="M69.9376 24.69L69.9844 24.3002L70.5026 24.483L70.4588 24.8607L69.9376 24.69Z" fill="white"/>
<path d="M70.0343 23.8531L70.0811 23.4633L70.5977 23.6461L70.5554 24.0253L70.0343 23.8531Z" fill="white"/>
<path d="M68.2668 26.5361L69.7442 26.4047C69.9602 26.0769 70.0237 25.6267 69.9059 25.246L69.8847 25.1765L68.4677 24.8018L68.2668 26.5361Z" fill="#F8E2D6"/>
<path d="M43.1757 26.2369C43.1757 26.2369 47.9692 27.4847 54.7945 26.5481C55.9199 26.394 57.0665 26.4695 58.1648 26.7656C62.4234 27.9122 68.5236 26.684 68.5236 26.684L68.8227 24.7232L47.9027 20.8709L43.1757 26.2369Z" fill="#4D4D4D"/>
<path d="M39.1558 5.27455L38.4624 7.3306L40.2042 7.7128L40.742 6.04954L39.1558 5.27455Z" fill="#F3D1C7"/>
<path d="M39.1241 1.74858L38.8129 4.48292C39.0848 4.51616 39.1951 4.83189 39.1014 5.07813C39.1195 5.1446 39.1241 5.21561 39.1135 5.2851C39.5259 5.69752 40.3039 6.27611 41.4354 6.24892C43.206 6.20511 42.721 2.71693 42.721 2.71693L39.1241 1.74858Z" fill="#F8E2D6"/>
<path d="M37.9246 3.64152C37.9442 3.4406 37.7433 2.97379 37.6149 2.81819C36.7825 1.81661 37.7538 1.34829 38.0953 1.20175C38.4729 1.0386 38.5077 0.410156 39.0062 0.138232C39.7676 -0.277208 40.3266 0.37692 40.7707 0.369367C41.2164 0.360303 41.5789 -0.168441 42.156 0.239445C42.7331 0.647331 42.582 1.12924 42.7482 1.37095C42.9144 1.61267 43.3797 1.09903 43.8827 1.8574C44.6486 3.01005 42.7512 3.13393 42.7512 3.13393C42.7512 3.13393 41.6832 3.38168 40.4459 2.64295C40.2767 2.54174 40.0546 2.54476 39.9126 2.68374C39.5259 3.06293 39.1452 5.32443 39.1452 5.32443L38.7645 4.88482C38.7675 4.88179 37.8309 4.56153 37.9246 3.64152Z" fill="#202020"/>
<path d="M38.9171 4.03436C38.9684 4.26096 39.1951 4.40448 39.4217 4.3516C39.6483 4.30024 39.7918 4.07364 39.7389 3.84703C39.6875 3.62043 39.4609 3.47691 39.2343 3.52979C39.0062 3.58115 38.8642 3.80624 38.9171 4.03436Z" fill="#F8E2D6"/>
<path d="M35.9048 20.8377C35.9048 20.8377 36.7961 26.3064 41.8131 26.3547C46.8286 26.403 52.5284 20.4811 52.5284 20.4811L55.577 28.6283L57.488 28.1932C57.488 28.1932 57.4759 15.8312 54.7642 15.2617C52.0525 14.6937 42.2134 19.401 42.2134 19.401L35.9048 20.8377Z" fill="#5E5D5D"/>
<path d="M35.9048 20.8377L44.0096 18.9901C44.0096 18.9901 43.3238 17.2392 43.0836 15.375C42.9023 13.9641 43.3404 12.6588 43.3404 12.6588C42.6621 9.5604 41.2979 6.59491 38.553 7.12667C33.9076 8.63283 35.9048 20.8377 35.9048 20.8377Z" fill="#CDCDCD"/>
<path d="M57.9684 7.52548L55.6495 14.9838L48.3559 14.6559L48.3302 15.2376L56.0725 15.5835L58.5228 7.6977L57.9684 7.52548Z" fill="#CECECE"/>
<path d="M40.1241 13.3221L43.3253 12.5924L43.9341 16.1893L49.507 13.9762L50.7111 13.0426C51.0223 12.8009 51.4105 12.683 51.8033 12.7102L53.391 12.822C53.5542 12.8341 53.6917 12.9504 53.7279 13.1106L54.4228 14.7421C54.4228 14.7421 54.0708 15.0458 53.3623 13.6816C53.2007 15.369 50.7549 14.4369 50.7549 14.4369L50.0025 15.0548C50.0025 15.0548 44.2257 20.0205 42.6289 19.3044C41.029 18.5898 40.1241 13.3221 40.1241 13.3221Z" fill="#F8E2D6"/>
<path d="M53.7279 13.112C53.6916 12.9518 53.5541 12.834 53.391 12.8234L51.8033 12.7116C51.4105 12.6844 51.0222 12.8023 50.711 13.0425L49.507 13.9776L49.3242 14.0501L49.6248 15.372C49.862 15.1756 49.9995 15.0577 49.9995 15.0577L50.7518 14.4399C50.7518 14.4399 53.1976 15.372 53.3593 13.6845C54.0678 15.0487 54.4198 14.745 54.4198 14.745L53.7279 13.112Z" fill="#F8E2D6"/>
<path d="M23.0775 95.3902L27.312 95.3841C27.8725 95.443 28.5024 95.6032 28.6097 96.0896C28.6097 96.0896 28.6837 96.4159 28.6686 96.7362C28.519 96.9129 22.9068 96.715 22.9068 96.715L22.8796 96.6939C22.2814 95.9778 23.0775 95.3902 23.0775 95.3902Z" fill="#3A3A3A"/>
<path d="M28.6625 96.7362L22.9008 96.7151L22.9491 96.9386H28.6731L28.6625 96.7362Z" fill="#3A3A3A"/>
<path d="M24.7483 95.3856H25.1336L25.0097 95.9083H24.6426L24.7483 95.3856Z" fill="white"/>
<path d="M25.5656 95.3856H25.9508L25.833 95.9083H25.4584L25.5656 95.3856Z" fill="white"/>
<path d="M22.7844 93.9807L23.073 95.3901C23.4144 95.5609 23.8525 95.5714 24.2105 95.4173L24.274 95.3901L24.4764 93.9807H22.7844Z" fill="#F4DED2"/>
<path d="M13.184 95.3902L17.4185 95.3841C17.9789 95.443 18.6089 95.6032 18.7162 96.0896C18.7162 96.0896 18.7902 96.4159 18.7751 96.7362C18.6255 96.9129 13.0133 96.715 13.0133 96.715L12.9861 96.6939C12.3879 95.9778 13.184 95.3902 13.184 95.3902Z" fill="#3A3A3A"/>
<path d="M18.769 96.7362L13.0073 96.7151L13.0556 96.9386H18.7796L18.769 96.7362Z" fill="#3A3A3A"/>
<path d="M14.8548 95.3856H15.2385L15.1222 95.9083H14.7476L14.8548 95.3856Z" fill="white"/>
<path d="M15.6721 95.3856H16.0558L15.938 95.9083H15.5648L15.6721 95.3856Z" fill="white"/>
<path d="M13.3653 93.9807L13.184 95.3901C13.5254 95.5609 13.9635 95.5714 14.3215 95.4173L14.385 95.3901L15.0633 93.9807H13.3653Z" fill="#F4DED2"/>
<path d="M19.6815 46.5617L16.1948 48.8368L17.2734 51.5923C17.29 51.63 17.3112 51.6663 17.3263 51.7041C17.4003 51.698 17.4804 51.6935 17.5559 51.6935C17.5665 51.6935 17.5831 51.6935 17.5937 51.6935C17.6043 51.6935 17.6209 51.6935 17.6315 51.6935C18.5666 51.6935 19.3672 52.2645 19.8522 53.0395C20.4187 52.9972 20.9791 52.8582 21.4973 52.612C21.8493 52.4413 22.159 52.2434 22.2708 52.0243C22.6454 50.0695 19.6815 46.5617 19.6815 46.5617Z" fill="#F4DED2"/>
<path d="M24.1184 47.2717C24.1184 47.2717 24.5459 51.3189 23.6863 53.8931C24.0867 54.2405 25.5505 55.8102 26.0083 53.7753C26.466 51.7404 25.4901 46.5557 25.4901 46.5557L24.1184 47.2717Z" fill="#F4DED2"/>
<path d="M22.0261 46.9892L21.2027 47.5179L21.4973 48.1267L22.3781 47.7415L22.0261 46.9892Z" fill="#3A3A3A"/>
<path d="M21.5396 47.7249C21.6197 47.9122 21.6257 48.0875 21.5502 48.1253C21.4762 48.157 21.3478 48.0346 21.2677 47.8473C21.1876 47.66 21.1816 47.4847 21.2571 47.447C21.3312 47.4107 21.4596 47.5391 21.5396 47.7249Z" fill="#3A3A3A"/>
<path d="M31.9196 44.0041C31.9196 43.998 31.9196 43.9875 31.9256 43.9829C31.7715 43.6309 31.4981 43.075 31.1295 42.5568C30.5373 41.729 30.3666 41.312 30.3666 41.312L21.8977 46.8548L22.4476 47.8911L31.9196 44.3878C31.9136 44.2609 31.909 44.1325 31.9196 44.0041Z" fill="#3A3A3A"/>
<path d="M18.9125 53.044L18.6089 54.9445H21.3055L21.4973 52.6104L18.9125 53.044Z" fill="#F3D1C7"/>
<path d="M25.8753 57.7635C25.8753 57.7635 29.0583 56.7483 30.0554 55.3872C31.054 54.0261 29.3665 46.5663 29.3665 46.5663L29.5856 45.2263C29.7079 44.4679 29.1263 43.7851 28.3634 43.7745L27.5144 43.7685C27.1624 43.7624 26.9222 44.131 27.0657 44.4513L28.1821 46.9666C28.1821 46.9666 29.0206 52.6151 27.8453 53.0486C26.4403 53.5502 24.8556 53.668 24.8556 53.668L25.8753 57.7635Z" fill="#F4DED2"/>
<path d="M19.89 53.0441L19.0727 51.2282L19.6059 50.8913C20.0017 50.6451 20.1725 50.1602 20.0229 49.7221L19.4413 48.0074C19.4413 48.0074 21.1015 47.805 21.0486 46.2611C21.0486 45.4649 19.9534 45.4604 19.9534 45.4604C19.9534 45.4604 19.6271 46.1704 18.6074 46.2565C18.1693 46.2037 16.9728 46.3638 16.1676 47.7733C15.6223 48.7235 15.864 50.2085 16.3338 51.3234C16.7553 52.322 17.8399 52.8824 18.9125 53.0426L19.89 53.0441Z" fill="#222323"/>
<path d="M16.654 68.299C16.654 68.299 16.8247 72.1694 17.6632 76.3661C17.9094 77.6048 17.8173 78.8814 17.4124 80.0763C15.512 85.7248 12.8471 94.2149 12.8471 94.2149H15.2174C15.2174 94.2149 20.5894 84.1763 21.9717 79.2001C23.354 74.2239 23.5942 72.6437 23.5942 72.6437L21.949 68.2975H16.654V68.299Z" fill="#5B5B5B"/>
<path d="M18.6346 50.3791C18.5379 50.6677 18.7358 51.0469 19.0772 51.2221C19.4186 51.3989 19.7706 51.3188 19.8733 51.0302C19.97 50.7417 19.7721 50.3625 19.4307 50.1873C19.0832 50.0105 18.7312 50.0906 18.6346 50.3791Z" fill="#222323"/>
<path d="M24.3858 68.299H16.6541V58.3843C16.6541 56.2105 18.3098 54.3961 20.4716 54.1922L25.8481 53.5411C25.8481 53.5411 26.4781 54.5079 28.2395 56.7558C26.1246 58.0641 23.6742 58.6668 23.6742 58.6668L24.3858 68.299Z" fill="#A8A8A8"/>
<path d="M16.6541 68.299C16.6541 68.299 17.7433 72.2494 21.7753 76.6758C22.4475 77.3435 23.4144 78.7363 23.2814 80.7017L22.4491 94.2164H24.8511C24.8511 94.2164 27.7818 82.9935 27.1473 77.4613C26.5173 71.9292 24.3812 68.2929 24.3812 68.2929H16.6556V68.299H16.6541Z" fill="#636363"/>
<path d="M30.6219 43.0856C31.0388 43.9512 31.6038 44.5373 31.8818 44.4044C32.1598 44.2715 32.0525 43.4587 31.6356 42.5991C31.2186 41.7335 30.6536 41.1474 30.3757 41.2803C30.0992 41.4147 30.211 42.2199 30.6219 43.0856Z" fill="#CECECE"/>
<path d="M23.783 45.622L23.8525 45.6538C24.1032 45.7761 24.3918 45.7927 24.6592 45.7021L24.7075 45.6855C25.1456 45.542 25.487 45.1945 25.626 44.7564C25.6895 44.5645 25.5188 44.3727 25.3163 44.415L24.7831 44.5268C24.5746 44.5691 24.3933 44.6975 24.2755 44.8742L23.783 45.622Z" fill="#F4DED2"/>
</svg>
