<svg width="70" height="56" viewBox="0 0 70 56" fill="none" xmlns="http://www.w3.org/2000/svg">
<path d="M24.9438 0.429321L3.85366 6.16212C1.76406 6.72919 0.521176 8.89647 1.09601 10.9861L12.3829 52.4751C12.95 54.5647 15.1173 55.8075 17.2069 55.2405L46.8419 47.1773C48.9315 46.6102 50.1744 44.4429 49.6073 42.3533L40.643 9.40915L24.9438 0.429321Z" fill="white"/>
<path d="M4.07898 6.9933C2.4477 7.43608 1.4767 9.12951 1.91947 10.7608L13.2064 52.2498C13.6492 53.8811 15.3426 54.8521 16.9739 54.4093L46.6089 46.3461C48.2402 45.9033 49.2112 44.2099 48.7684 42.5786L39.9051 9.97622L24.8274 1.34595L4.07898 6.9933Z" fill="#E2E5E7"/>
<path d="M31.0185 12.3998L39.9129 9.98399L24.8274 1.34595L27.2432 10.2403C27.686 11.8716 29.3872 12.8426 31.0185 12.3998Z" fill="#B0B7BD"/>
<path d="M42.3287 18.8706L31.0184 12.3998L39.9051 9.9762L42.3287 18.8706Z" fill="#CAD1D8"/>
<path d="M41.2335 38.2674C41.4587 39.083 40.9693 39.9297 40.1537 40.155L7.55131 49.0183C6.73567 49.2436 5.88895 48.7542 5.66368 47.9386L1.63985 33.1172C1.41457 32.3015 1.90396 31.4548 2.7196 31.2296L35.322 22.3585C36.1376 22.1332 36.9843 22.6226 37.2096 23.4382L41.2335 38.2674Z" fill="#F15642"/>
<path d="M9.28355 35.7272C9.1748 35.3388 9.369 34.8261 9.86615 34.6863L12.6005 33.9405C14.1386 33.5211 15.8087 34.1736 16.3447 36.1544C16.8574 38.0265 15.7543 39.4481 14.2085 39.8675L12.2276 40.4035L12.6549 41.9727C12.7947 42.4931 12.5461 42.8815 12.1189 42.998C11.7305 43.1068 11.2333 42.9204 11.0935 42.3999L9.28355 35.7272ZM11.0314 35.9835L11.8315 38.9354L13.8123 38.3994C14.6046 38.1819 15.0474 37.3118 14.8455 36.5739C14.6202 35.7427 13.8045 35.23 13.0122 35.4475L11.0314 35.9835Z" fill="white"/>
<path d="M20.1121 40.8308C19.7237 40.9396 19.2344 40.8386 19.0945 40.3181L17.2613 33.5833C17.1448 33.156 17.4866 32.7288 17.8827 32.6278L20.5938 31.8898C26.0081 30.4139 28.121 38.648 22.9319 40.0618L20.1121 40.8308ZM19.0246 33.8707L20.4695 39.1762L22.4348 38.6402C25.6352 37.7702 24.3302 32.4258 20.9899 33.3347L19.0246 33.8707Z" fill="white"/>
<path d="M28.2298 31.4703L28.7424 33.358L31.7642 32.5346C32.1914 32.418 32.7352 32.7288 32.844 33.1405C32.9527 33.5289 32.6109 33.9717 32.1837 34.0804L29.1619 34.9038L29.8377 37.3896C29.9543 37.8013 29.7445 38.2052 29.325 38.314C28.8046 38.4538 28.4006 38.2208 28.2841 37.8091L26.4509 31.0742C26.3344 30.6469 26.5752 30.2508 27.0879 30.1109L31.2437 28.9768C31.7642 28.837 32.1604 29.0623 32.2769 29.4895C32.3779 29.8701 32.1914 30.3828 31.6632 30.5227L28.2298 31.4703Z" fill="white"/>
<path d="M40.1536 40.1472L12.0023 47.8065L12.4063 49.2902L40.5653 41.6309C41.381 41.4056 41.8626 40.5589 41.6451 39.7433L41.2412 38.2596C41.4587 39.083 40.9693 39.9297 40.1536 40.1472Z" fill="#CAD1D8"/>
<path d="M58.0357 45.9266C57.8803 46.7578 57.0802 47.3171 56.2491 47.1617L23.0097 41.0949C22.1785 40.9395 21.6192 40.1394 21.7746 39.3082L24.5322 24.2072C24.6876 23.376 25.4877 22.8167 26.3189 22.9721L59.5582 29.0389C60.3894 29.1943 60.9487 29.9944 60.7934 30.8256L58.0357 45.9266Z" fill="#F15642"/>
<path d="M58.5272 46.0185L58.5276 46.0164L61.2848 30.9174C61.2849 30.9171 61.285 30.9168 61.285 30.9164C61.4915 29.8088 60.7469 28.7525 59.6501 28.5474L59.648 28.547L26.4107 22.4806C26.4104 22.4805 26.41 22.4805 26.4096 22.4804C25.302 22.274 24.2458 23.0185 24.0407 24.1153L24.0407 24.1153L24.0404 24.1174L21.2831 39.2164C21.283 39.2167 21.283 39.2171 21.2829 39.2174C21.0765 40.3251 21.821 41.3814 22.9178 41.5864L22.9199 41.5868L56.1572 47.6532C56.1576 47.6533 56.158 47.6534 56.1584 47.6534C57.266 47.8598 58.3222 47.1152 58.5272 46.0185Z" stroke="#B8230F" stroke-opacity="0.5"/>
<path d="M59.6591 3.98705L38.1572 0.0642014C36.021 -0.3242 33.9703 1.08958 33.5819 3.22579L25.8605 45.5304C25.4721 47.6666 26.8858 49.7174 29.0221 50.1058L59.2397 55.6211C61.3759 56.0095 63.4266 54.5957 63.815 52.4595L69.944 18.8706L59.6591 3.98705Z" fill="white"/>
<path d="M38.002 0.910889C36.3396 0.607936 34.7316 1.71876 34.4287 3.38112L26.7073 45.6858C26.4043 47.3481 27.5152 48.9561 29.1775 49.2591L59.3951 54.7744C61.0575 55.0773 62.6655 53.9665 62.9684 52.3041L69.0352 19.0648L59.1543 4.7716L38.002 0.910889Z" fill="#E2E5E7"/>
<path d="M59.9699 17.4102L69.0351 19.0648L59.1542 4.77167L57.4996 13.8369C57.1967 15.4993 58.3075 17.1073 59.9699 17.4102Z" fill="#B0B7BD"/>
<path d="M67.3805 28.1223L59.9698 17.4102L69.0351 19.057L67.3805 28.1223Z" fill="#CAD1D8"/>
<path d="M58.0357 45.1499C57.8803 45.9811 57.0802 46.5403 56.2491 46.385L23.0097 40.3182C22.1785 40.1628 21.6192 39.3627 21.7746 38.5315L24.5322 23.4305C24.6876 22.5993 25.4877 22.04 26.3189 22.1954L59.5582 28.2622C60.3894 28.4176 60.9487 29.2177 60.7934 30.0488L58.0357 45.1499Z" fill="#F15642"/>
<path d="M30.3038 29.0855C30.3737 28.6893 30.7699 28.3087 31.2748 28.4019L34.0635 28.9146C35.6327 29.202 36.86 30.5071 36.4871 32.5267C36.1376 34.4377 34.5296 35.2378 32.9605 34.9581L30.9408 34.593L30.6534 36.1855C30.5601 36.7137 30.164 36.9545 29.729 36.8768C29.3328 36.8069 28.9599 36.4263 29.0609 35.8981L30.3038 29.0855ZM31.772 30.0643L31.2204 33.0705L33.2401 33.4356C34.048 33.5832 34.817 32.9851 34.9568 32.2393C35.1122 31.3926 34.5995 30.577 33.7916 30.4294L31.772 30.0643Z" fill="white"/>
<path d="M37.8699 38.3528C37.4737 38.2829 37.0775 37.9799 37.1708 37.4517L38.4214 30.5925C38.4991 30.1575 38.9962 29.9245 39.3924 29.9944L42.1578 30.4993C47.6809 31.5091 46.0341 39.8442 40.744 38.881L37.8699 38.3528ZM39.8896 31.6101L38.903 37.0244L40.9072 37.3895C44.1697 37.9877 45.3039 32.5967 41.8937 31.9752L39.8896 31.6101Z" fill="white"/>
<path d="M49.2343 33.4123L48.8847 35.331L51.9686 35.8903C52.4036 35.968 52.7609 36.4807 52.6833 36.9079C52.6134 37.3041 52.1162 37.5527 51.6812 37.475L48.5973 36.9157L48.1312 39.4559C48.0535 39.8753 47.6962 40.1472 47.269 40.0695C46.7407 39.9763 46.4688 39.5879 46.5465 39.1684L47.7972 32.3093C47.8749 31.8743 48.2633 31.6179 48.7915 31.7189L53.0328 32.4957C53.5611 32.5889 53.8174 32.9695 53.7397 33.3968C53.6698 33.7852 53.2736 34.1581 52.7454 34.0648L49.2343 33.4123Z" fill="white"/>
<path d="M56.249 46.3849L27.5462 41.1493L27.2743 42.6641L55.9771 47.8997C56.8083 48.0551 57.6162 47.4958 57.7638 46.6646L58.0357 45.1498C57.8803 45.981 57.0802 46.5403 56.249 46.3849Z" fill="#CAD1D8"/>
</svg>
