<?xml version="1.0" encoding="utf-8"?>
<!-- Generator: Adobe Illustrator 25.3.1, SVG Export Plug-In . SVG Version: 6.00 Build 0)  -->
<svg version="1.1" id="Capa_1" xmlns="http://www.w3.org/2000/svg" xmlns:xlink="http://www.w3.org/1999/xlink" x="0px" y="0px"
	 viewBox="0 0 840 744" style="enable-background:new 0 0 840 744;" xml:space="preserve">
<style type="text/css">
	.st0{opacity:0.7;clip-path:url(#SVGID_2_);fill:#A6B4D0;fill-opacity:0.05;enable-background:new    ;}
	.st1{clip-path:url(#SVGID_2_);fill:#CDCBCB;}
	.st2{clip-path:url(#SVGID_2_);fill:#E9E9EA;}
	.st3{clip-path:url(#SVGID_2_);fillRule:evenodd;clipRule:evenodd;fill:#EAA18F;}
	.st4{clip-path:url(#SVGID_2_);fillRule:evenodd;clipRule:evenodd;fill:#002C2D;}
	.st5{clip-path:url(#SVGID_2_);fillRule:evenodd;clipRule:evenodd;fill:#F7BCAA;}
	.st6{clip-path:url(#SVGID_2_);fillRule:evenodd;clipRule:evenodd;fill:#2AB9D0;}
	.st7{clip-path:url(#SVGID_2_);fill:#FFFFFF;}
	.st8{clip-path:url(#SVGID_2_);fill:#F7BCAA;}
	.st9{clip-path:url(#SVGID_2_);fill:#EAA18F;}
</style>
<g>
	<defs>
		<rect id="SVGID_1_" x="1" y="1" width="858" height="743"/>
	</defs>
	<clipPath id="SVGID_2_">
		<use xlink:href="#SVGID_1_"  style="overflow:visible;"/>
	</clipPath>
	<path class="st0" d="M502.6,283.01c147.4-18.15,313.16,193,331.91,345.21c18.75,152.21-177.15,42.92-324.55,61.07
		c-147.4,18.15-358.11,192.81-376.85,40.6C114.37,577.68,355.2,301.17,502.6,283.01z"/>
	<path class="st0" d="M340.53,675.01C193.04,692.28,28.58,480.03,10.75,327.64c-17.82-152.39,177.39-41.86,324.88-59.12
		c147.49-17.27,359.23-190.72,377.05-38.33C730.5,382.57,488.02,657.74,340.53,675.01z"/>
	<path class="st1" d="M113.62,145.38l81.41,64.08l24.7,16.4l-3.31-30.18L113.62,145.38z"/>
	<path class="st2" d="M113.62,145.38l120.2,28.67l-17.39,21.64L113.62,145.38z"/>
	<path class="st2" d="M167.83,239.77l27.2-30.31l-81.41-64.08L167.83,239.77z"/>
	<path class="st1" d="M575.83,434.97l172.52,117.69l51.93,29.6l-10.8-60.23L575.83,434.97z"/>
	<path class="st2" d="M575.83,434.97l245.65,41.16l-32,45.9L575.83,434.97z"/>
	<path class="st2" d="M697.8,617.34l50.54-64.68L575.83,434.97L697.8,617.34z"/>
	<path class="st2" d="M242.15,231.88c-2.26,0.01-4.49,0.23-6.65,0.66c-0.75,0.14-1.48-0.36-1.64-1.11
		c-0.16-0.77,0.36-1.48,1.11-1.64c2.33-0.45,4.74-0.71,7.15-0.71c0.77-0.01,1.39,0.62,1.39,1.38c0.01,0.18-0.02,0.35-0.09,0.51
		C243.22,231.48,242.72,231.84,242.15,231.88z"/>
	<path class="st2" d="M327.54,359.03c-0.73-0.24-1.12-1.03-0.89-1.76c1.35-4.13,1.95-8.62,1.8-13.36c-0.04-0.76,0.57-1.41,1.35-1.43
		c0.76-0.04,1.39,0.58,1.43,1.35c0.15,5.04-0.5,9.87-1.94,14.3c0,0.03-0.01,0.05-0.02,0.08C329,358.86,328.24,359.23,327.54,359.03z
		 M329.1,336.89c-0.73,0.16-1.49-0.33-1.64-1.07c-0.94-4.46-2.47-8.77-4.58-12.81c-0.36-0.69-0.1-1.52,0.58-1.88
		c0.69-0.36,1.52-0.1,1.88,0.59c2.24,4.25,3.87,8.81,4.85,13.52c0.07,0.28,0.03,0.55-0.06,0.79
		C329.96,336.46,329.58,336.78,329.1,336.89z M320.47,316.4c-0.61,0.47-1.47,0.35-1.95-0.25l-0.39-0.51
		c-2.62-3.31-5.7-6.46-9.14-9.33c-0.59-0.5-0.67-1.37-0.19-1.96c0.5-0.59,1.37-0.67,1.96-0.19c3.59,3,6.79,6.29,9.53,9.74l0.42,0.54
		c0.31,0.39,0.38,0.91,0.19,1.34C320.82,316.01,320.66,316.2,320.47,316.4z M304.32,300.95c-0.42,0.64-1.28,0.82-1.92,0.39
		c-3.6-2.4-7.65-4.69-12.04-6.81c-0.69-0.33-0.96-1.2-0.64-1.85c0.33-0.69,1.17-0.97,1.85-0.64c4.49,2.18,8.65,4.53,12.36,7.02
		c0.56,0.35,0.75,1.05,0.52,1.65C304.41,300.8,304.36,300.88,304.32,300.95z M284.57,290.38c-0.3,0.73-1.11,1.04-1.79,0.81
		c-0.36-0.13-0.72-0.31-1.08-0.44c-0.73,1.4-1.52,2.76-2.38,4.09c-0.42,0.63-1.28,0.82-1.92,0.39c-0.63-0.42-0.8-1.26-0.39-1.92
		c0.75-1.17,1.45-2.37,2.09-3.6c-2.9-1.1-6-2.21-9.39-3.34c-0.74-0.26-1.13-1.03-0.89-1.76c0.24-0.73,1.03-1.13,1.76-0.89
		c3.51,1.17,6.7,2.32,9.71,3.47c0.89-2.04,1.64-4.14,2.21-6.25c0.19-0.74,0.96-1.18,1.7-0.99c0.74,0.19,1.18,0.96,0.99,1.7
		c-0.59,2.22-1.37,4.41-2.31,6.55c0.31,0.12,0.62,0.27,0.94,0.38C284.52,288.87,284.86,289.67,284.57,290.38z M285.05,274.34
		c-0.76-0.03-1.35-0.69-1.31-1.45c0.12-2.8-0.05-5.58-0.56-8.28c-0.33-1.68-0.79-3.37-1.34-4.99c-0.24-0.72,0.14-1.52,0.87-1.76
		c0.72-0.24,1.52,0.14,1.76,0.87c0.61,1.76,1.1,3.57,1.45,5.38c0.54,2.91,0.74,5.92,0.6,8.94c-0.01,0.16-0.04,0.3-0.09,0.44
		C286.19,274.03,285.67,274.4,285.05,274.34z M273.89,301.55c-3.41,3.58-7.29,6.49-11.51,8.67c-0.67,0.34-1.5,0.08-1.86-0.6
		c-0.36-0.68-0.08-1.5,0.6-1.86c3.95-2.03,7.57-4.76,10.79-8.11c0.54-0.56,1.4-0.57,1.97-0.03c0.43,0.41,0.54,1,0.34,1.52
		C274.14,301.3,274.06,301.44,273.89,301.55z M280.32,252.8c-0.67,0.41-1.52,0.19-1.92-0.46c-2.33-3.82-5.3-7.24-8.84-10.23
		c-0.59-0.5-0.67-1.37-0.18-1.96c0.5-0.59,1.37-0.67,1.96-0.19c3.77,3.18,6.95,6.85,9.43,10.89c0.23,0.4,0.27,0.86,0.1,1.25
		C280.76,252.39,280.56,252.62,280.32,252.8z M254.26,313.29c-1.23,0.33-2.47,0.57-3.7,0.75c-3.55,0.53-7.3,0.4-10.84-0.42
		c-0.75-0.16-1.2-0.91-1.04-1.66c0.16-0.75,0.91-1.2,1.66-1.04c3.19,0.73,6.6,0.86,9.82,0.39c1.15-0.17,2.29-0.39,3.42-0.68
		c0.75-0.21,1.49,0.25,1.69,0.98c0.08,0.3,0.05,0.6-0.06,0.86C255.06,312.89,254.7,313.21,254.26,313.29z M261.69,283.8
		c-5.31-1.48-9.57-2.21-13.43-2.25c-0.76,0.01-1.37-0.63-1.36-1.4c0.01-0.73,0.63-1.37,1.4-1.36c4.14,0.05,8.62,0.81,14.16,2.37
		c0.76,0.2,1.18,0.99,0.97,1.72c0.01,0.03-0.02,0.08-0.04,0.12C263.12,283.66,262.42,284.02,261.69,283.8z M264.77,236.94
		c-0.37,0.67-1.23,0.9-1.89,0.52c-1.78-1.02-3.66-1.91-5.58-2.68c-2.3-0.9-4.67-1.63-7.07-2.12c-0.75-0.16-1.25-0.89-1.09-1.64
		c0.15-0.78,0.89-1.25,1.64-1.09c2.54,0.52,5.06,1.28,7.52,2.25c2.04,0.8,4.03,1.74,5.93,2.85c0.6,0.34,0.85,1.07,0.6,1.71
		C264.81,236.82,264.79,236.87,264.77,236.94z M233.54,309.81c-0.44,0.63-1.3,0.79-1.93,0.34c-3.36-2.3-5.59-5.45-6.47-9.06
		c-0.33-1.31-0.46-2.65-0.39-4.01c0.03-0.76,0.69-1.36,1.45-1.31c0.76,0.03,1.36,0.69,1.31,1.45c-0.07,1.1,0.04,2.18,0.3,3.22
		c0.73,2.99,2.52,5.5,5.34,7.43c0.54,0.38,0.72,1.06,0.49,1.65C233.6,309.62,233.53,309.73,233.54,309.81z M240.38,282.55
		c-4.1,1.22-7.99,4.05-10.38,7.55c-0.4,0.63-1.29,0.8-1.91,0.36c-0.63-0.4-0.81-1.29-0.36-1.92c2.79-4.07,7.12-7.21,11.89-8.64
		c0.74-0.22,1.5,0.19,1.73,0.92c0.09,0.32,0.07,0.64-0.04,0.92C241.13,282.15,240.83,282.45,240.38,282.55z"/>
	<path class="st2" d="M325.5,366.2c-1.3,2.02-2.84,3.92-4.55,5.61c-0.53,0.53-1.41,0.52-1.96-0.02c-0.53-0.53-0.52-1.41,0.02-1.96
		c1.56-1.56,2.96-3.29,4.16-5.16c0.42-0.64,1.27-0.85,1.92-0.42c0.55,0.35,0.78,1.06,0.54,1.67
		C325.61,366,325.57,366.09,325.5,366.2z"/>
	<path class="st2" d="M747.3,12.45l-73.46,6.13l-31.08,12.79l-18.69,16.85L747.3,12.45z"/>
	<path class="st1" d="M747.3,12.45L629.52,53.6l-5.44-5.39"/>
	<path class="st1" d="M638.14,72.76l0.26,0.11l14.62,12.82l94.02-73.07L638.14,72.76z"/>
	<path class="st2" d="M612.84,76.38l6.58-21.19l127.1-42.49l-94.47,58.98L612.84,76.38z"/>
	<path class="st2" d="M747.3,12.45l-73.46,6.13l-31.08,12.79l-18.69,16.85L747.3,12.45z"/>
	<path class="st1" d="M747.3,12.45L629.52,53.6l-5.44-5.39"/>
	<path class="st1" d="M638.14,72.76l0.26,0.11l14.62,12.82l94.02-73.07L638.14,72.76z"/>
	<path class="st2" d="M612.84,76.38l6.58-21.19l127.1-42.49l-94.47,58.98L612.84,76.38z"/>
	<path class="st2" d="M303.41,620.22l-157.82,0.15L77.02,642.2l-42.85,32.67L303.41,620.22z"/>
	<path class="st1" d="M303.41,620.22l-258.58,67.1l-10.66-12.46"/>
	<path class="st1" d="M59.88,729.72l0.54,0.28l28.95,29.93l213.47-139.39L59.88,729.72z"/>
	<path class="st2" d="M5.24,733.01L23,688.95l278.69-68.31L89.73,729.89L5.24,733.01z"/>
	<path class="st2" d="M519.35,426.38c2.51-3.37,4.84-6.92,6.86-10.64c0.46-0.85,1.53-1.16,2.4-0.68c0.85,0.46,1.16,1.53,0.68,2.4
		c-2.12,3.86-4.55,7.57-7.14,11.06c-0.96,1.26-1.93,2.49-2.91,3.71c-0.35,0.45-0.9,0.68-1.46,0.63c-0.38-0.01-0.71-0.14-1.04-0.41
		c-0.74-0.61-0.85-1.74-0.23-2.49C517.5,428.77,518.43,427.57,519.35,426.38z"/>
	<path class="st2" d="M576.19,85.09c4.95-2.45,10.21-4.86,16.05-7.35c0.89-0.38,1.93,0.03,2.3,0.92c0.38,0.89-0.03,1.93-0.92,2.3
		c-5.79,2.47-10.98,4.86-15.88,7.28c-0.27,0.15-0.57,0.19-0.87,0.19c-0.61-0.03-1.21-0.37-1.5-0.98
		C574.97,86.56,575.34,85.51,576.19,85.09z"/>
	<path class="st2" d="M552.59,102.43c-0.52-0.02-1.04-0.3-1.36-0.78c-0.55-0.82-0.34-1.9,0.47-2.43c4.67-3.18,9.75-6.27,15.12-9.23
		c0.87-0.47,1.92-0.13,2.37,0.69c0.47,0.87,0.16,1.9-0.67,2.4c-5.27,2.92-10.27,5.96-14.84,9.07
		C553.32,102.38,552.93,102.45,552.59,102.43z"/>
	<path class="st2" d="M535.84,389.98c0.21-0.94,1.11-1.59,2.07-1.34c0.94,0.21,1.56,1.12,1.34,2.07c-1.26,5.82-3,11.55-5.31,17.05
		c-0.29,0.71-0.97,1.12-1.71,1.06c-0.2-0.02-0.41-0.06-0.59-0.12c-0.9-0.36-1.32-1.39-0.95-2.3
		C532.89,401.12,534.62,395.58,535.84,389.98z"/>
	<path class="st2" d="M538.99,381.67c-0.97-0.08-1.66-0.94-1.57-1.91c0.16-1.57,0.28-3.11,0.36-4.7c0.2-4.2,0.12-8.4-0.24-12.51
		c-0.1-0.97,0.63-1.81,1.59-1.9c0.94-0.08,1.81,0.63,1.9,1.59c0.39,4.27,0.47,8.66,0.24,12.99c-0.09,1.64-0.19,3.24-0.36,4.86
		c-0.1,0.95-0.9,1.63-1.83,1.59C539.03,381.68,539.01,381.66,538.99,381.67z"/>
	<path class="st2" d="M538.11,353.7c-0.16,0.03-0.3,0.05-0.42,0.02c-0.79-0.03-1.46-0.6-1.63-1.4c-1.08-5.36-2.6-10.83-4.67-16.63
		c-0.32-0.93,0.14-1.93,1.07-2.25c0.93-0.32,1.93,0.14,2.25,1.07c2.12,5.99,3.7,11.59,4.81,17.13
		C539.67,352.58,539.05,353.5,538.11,353.7z"/>
	<path class="st2" d="M493.8,203.23c-0.22,2.31-0.41,4.6-0.53,6.91c-0.17,3.48-0.22,6.99-0.13,10.41c0.03,0.97-0.73,1.76-1.69,1.78
		c-0.04-0.01-0.09-0.02-0.15-0.01c-0.91-0.05-1.66-0.77-1.65-1.72c-0.11-3.52-0.06-7.13,0.12-10.71c0.12-2.35,0.29-4.73,0.53-7.06
		c0.08-0.97,0.87-1.71,1.91-1.57C493.21,201.39,493.89,202.26,493.8,203.23z"/>
	<path class="st2" d="M493.85,230.88c0.62,5.77,1.61,11.49,3,17.04c0.23,0.95-0.35,1.89-1.29,2.13c-0.16,0.03-0.34,0.04-0.51,0.04
		c-0.76-0.04-1.43-0.55-1.62-1.33c-1.41-5.69-2.45-11.58-3.07-17.52c-0.1-0.97,0.61-1.84,1.57-1.92
		C492.86,229.24,493.75,229.92,493.85,230.88z"/>
	<path class="st2" d="M499.25,176.04c-1.69,5.53-3.06,11.2-4.04,16.87c-0.15,0.87-0.95,1.51-1.81,1.47
		c-0.07,0.01-0.15-0.01-0.24-0.02c-0.95-0.18-1.58-1.06-1.42-2.01c1-5.8,2.41-11.61,4.14-17.27c0.3-0.93,1.26-1.45,2.19-1.16
		C499.02,174.15,499.54,175.11,499.25,176.04z"/>
	<path class="st2" d="M515.12,141.49c-0.35,0.57-0.94,0.85-1.57,0.82c-0.31-0.01-0.59-0.12-0.84-0.28c-0.82-0.52-1.06-1.6-0.55-2.43
		c3.19-5.01,6.72-9.86,10.48-14.35c0.63-0.76,1.74-0.86,2.49-0.23c0.76,0.63,0.85,1.74,0.23,2.49
		C521.66,131.89,518.23,136.6,515.12,141.49z"/>
	<path class="st2" d="M517.81,301.55c-0.27,0.15-0.6,0.21-0.9,0.2c-0.61-0.03-1.18-0.39-1.48-0.96l-1.01-1.96
		c-2.34-4.56-4.69-9.11-6.94-13.73c-0.44-0.89-0.08-1.93,0.8-2.37c0.89-0.44,1.93-0.08,2.37,0.8c2.25,4.58,4.57,9.12,6.9,13.64
		l1.01,1.96C519,300.06,518.68,301.09,517.81,301.55z"/>
	<path class="st2" d="M502.67,166.23c-0.27,0.74-0.98,1.17-1.71,1.1c-0.2-0.02-0.37-0.05-0.54-0.11c-0.9-0.36-1.35-1.37-0.99-2.27
		c2.14-5.53,4.63-10.96,7.41-16.15c0.46-0.85,1.53-1.16,2.39-0.71c0.85,0.46,1.16,1.53,0.71,2.39
		C507.16,155.54,504.74,160.82,502.67,166.23z"/>
	<path class="st2" d="M520.99,307.82c0.89-0.44,1.93-0.08,2.35,0.78c3.07,6.16,5.44,11.24,7.48,16c0.38,0.89-0.03,1.93-0.92,2.3
		c-0.26,0.1-0.51,0.16-0.78,0.15c-0.65-0.04-1.26-0.4-1.52-1.07c-1.98-4.68-4.34-9.71-7.39-15.8
		C519.78,309.29,520.14,308.23,520.99,307.82z"/>
	<path class="st2" d="M509.53,437.57c0.68-0.68,1.78-0.67,2.48-0.01c0.68,0.68,0.68,1.79,0.01,2.48c-3.98,3.92-8.34,7.76-13.4,11.68
		c-0.34,0.26-0.76,0.39-1.14,0.37c-0.5-0.04-0.98-0.26-1.29-0.67c-0.59-0.78-0.44-1.87,0.3-2.47
		C501.41,445.13,505.68,441.4,509.53,437.57z"/>
	<path class="st2" d="M497.53,256.83c0.93-0.32,1.92,0.19,2.24,1.11c1.71,5.05,3.82,10.35,6.4,16.16c0.4,0.88,0.01,1.94-0.88,2.32
		c-0.26,0.1-0.54,0.17-0.81,0.15c-0.63-0.01-1.23-0.42-1.53-1.02c-2.66-5.91-4.77-11.29-6.53-16.45
		C496.13,258.12,496.64,257.12,497.53,256.83z"/>
	<path class="st2" d="M538.26,109.4c1.57-1.34,3.19-2.64,4.79-3.93c0.78-0.59,1.85-0.47,2.47,0.3c0.59,0.78,0.47,1.85-0.3,2.47
		c-1.59,1.24-3.14,2.49-4.68,3.81c-2.85,2.41-5.63,5.02-8.24,7.69c-0.36,0.39-0.85,0.52-1.33,0.52c-0.41-0.02-0.82-0.19-1.13-0.49
		c-0.71-0.67-0.72-1.78-0.03-2.47C532.49,114.56,535.33,111.9,538.26,109.4z"/>
	<path class="st3" d="M443.54,355.06l3-50.66l-57.13-3.34c0,0-2.27,53.66-2.27,54.4c-29.1,3.14-60.74,6.81-60.74,6.81
		s23.36,96.84,23.36,102.92c0,6.07,106.99,15.15,112.33,12.15c5.34-3,40.25-114.93,40.25-114.93S472.31,357.33,443.54,355.06z"/>
	<path class="st4" d="M507.15,264.95c4.14-5.61,23.16-15.95,28.97-31.77c5.81-15.82-16.55-27.63-15.62-44.65
		c0.93-17.02,23.83-55.06,7.28-69.08s-36.71,8.28-48.66,4c-9.61-3.47-6.34-14.02-18.95-17.82c-9.28-2.8-14.82,4.87-23.49,5.81
		c-16.95,1.6-37.17-16.22-66.68-4.34c-29.5,11.88-22.49,47.45-34.04,57.26c-11.55,9.81-33.1,7.41-39.24,18.15
		c-6.07,10.75,15.68,32.04,16.35,41.11c0.67,9.08-8.28,18.15-2.6,25.03c5.34,6.61,18.42,3,20.96,12.95
		c2.54,9.94,9.28,14.22,14.48,13.82c5.21-0.4,8.68,1.2,13.48,0.47c4.81-0.73,20.42-4.4,20.42-4.4l98.91,2.8l18.42,0.93
		L507.15,264.95z"/>
	<path class="st5" d="M356.45,299.86c-41.05-8.61-32.1-47.32-22.63-50.46c9.54-3.07,14.95,8.94,16.42,14.42
		C350.9,276.3,351.97,288.11,356.45,299.86z"/>
	<path class="st5" d="M479.32,306.94c41.78-3.87,37.38-43.32,28.23-47.45c-11.28-5.14-14.95,9.81-18.02,12.48
		C487.53,284.18,485.12,295.79,479.32,306.94z"/>
	<path class="st5" d="M415.25,349.65c-4.61-0.27-57.67-14.88-63.74-70.55c-6.07-55.66,6.67-104.99,12.35-112.06
		c5.67-7.08,62.14-2.87,62.14-2.87s56.53,2.34,61.34,10.01c4.81,7.68,11.81,58.13-0.6,112.73
		C474.31,341.44,419.85,349.92,415.25,349.65z"/>
	<path class="st4" d="M370.27,197.98c11.61-9.48,33.17,5,45.72,0.87c5.54-1.87,15.62-14.22,28.63-18.42
		c9.01-2.87,21.09-2.34,27.16,11.01c4.07,9.01,0.8,20.42,2.8,25.83c2,5.41,19.82,16.89,18.22,48.12c1-5.21,4.47-37.44,4.47-37.44
		l6.07-74.02l-37.17-3.47l-44.38-18.22c0,0-22.63-13.21-29.63-7.01c-7.01,6.21-46.52,17.22-47.86,23.36
		c-1.27,6.07-3.6,13.08-2.07,18.89c1.54,5.81-3.8,45.99-3.8,45.99s-6.01,18.15,11.81,61.47C350.18,275,346.45,217.47,370.27,197.98z
		"/>
	<path class="st6" d="M603.12,394.57c-33.24-23.36-97.24-35.84-137.96-37.38c0,0-7.48,32.5-47.85,32.7
		c-40.38-0.2-47.86-32.7-47.86-32.7c-40.71,1.54-104.65,14.02-137.89,37.38c-33.24,23.36,3.34,109.66,3.34,109.66l31.57,2.34
		l4.14,240.07h293.47l4.14-240.07l49.66,2.34C617.88,508.83,636.36,417.93,603.12,394.57z"/>
	<path class="st3" d="M230.64,493.21c0,0,9.34,75.95,34.97,130.42c25.63,54.46,51.59,99.05,73.82,42.78
		c13.15-33.24-29.57-148.5-29.57-148.5l-11.68-24.09L230.64,493.21z"/>
	<path class="st7" d="M287.9,673.89c0,0-33.97-29.5,15.15-120.94c49.12-91.44,58.93-165.52,66.48-185.14
		c7.54-19.62,4.67-19.89,14.48-27.96c9.74-8.08,55.8-43.98,66.88-42.31c11.08,1.67-4.34,15.15-4.34,15.15l-26.83,25.16
		c0,0,10.41-2.67,13.41-2.67c3,0,8.74,7.41,13.75,12.75c5.07,5.34,6.74,13.75,5.74,17.15c-1,3.34,3.34,12.75-1.34,13.75l-0.67,5.87
		c-0.27,2.34-2.8,3.6-4.87,2.54l-1.4,3.14c-1.67,3.67-6.14,5.14-9.68,3.07l-5.67-3.2l-35.24,33.9c0,0-5.07,103.12-30.57,193.82
		C337.62,708.66,308.72,703.99,287.9,673.89z"/>
	<path class="st8" d="M289.97,674.95c0,0-33.97-29.5,15.15-120.94c49.12-91.44,58.93-165.52,66.48-185.14
		c7.54-19.62,4.67-19.89,14.48-27.96c9.74-8.08,55.8-43.98,66.88-42.32c11.08,1.67-4.34,15.15-4.34,15.15l-26.83,25.16
		c0,0,10.41-2.67,13.41-2.67c3,0,8.74,7.41,13.75,12.75c5.07,5.34,6.74,13.75,5.74,17.15c-1,3.34,3.34,12.75-1.34,13.75l-0.67,5.87
		c-0.27,2.34-2.8,3.6-4.87,2.54l-1.4,3.14c-1.67,3.67-6.14,5.14-9.68,3.07l-5.54-3.27l-35.24,33.9c0,0-5.07,103.12-30.57,193.82
		C339.69,709.73,310.79,704.99,289.97,674.95z"/>
	<path class="st9" d="M539.59,504.29c0,0,28.43-8.74,45.39-9.81c16.95-1.07,35.24-0.13,35.24-0.13s6.47,132.55-10.55,168.06
		c-17.02,35.51-22.62,30.37-43.18,31.9c-20.56,1.53-160.98,18.55-227.86,1.53c0,0-32.9,4.14-45.32,1.54
		c-12.35-2.6-38.04-7.74-33.97-13.88l1.54-5.14c0,0-6.14-5.14-1.54-10.28c4.61-5.14-5.14-6.14-1.07-12.35
		c4.14-6.14-6.14-0.53-2.6-8.74l0.53-4.61c0,0-24.16-7.74-13.35-18.02c4.4-4.2,14.08-3.94,24.03-2.14
		c13.21,2.4,25.43,8.68,35.71,17.35c8.48,7.14,27.16,14.88,67.34,8.01c71.55-12.35,172.2-15.42,172.2-15.42L539.59,504.29z"/>
</g>
</svg>
