<svg width="87" height="68" viewBox="0 0 87 68" fill="none" xmlns="http://www.w3.org/2000/svg">
<path d="M45.0917 11.2381L33.1951 5.13667C33.0702 5.11398 32.966 5.05964 32.8907 4.97462L32.5853 4.82097L9.10712 11.2929C6.31893 12.0549 4.68215 14.9442 5.45344 17.7249L16.297 57.0769C17.0589 59.8651 19.9482 61.5019 22.729 60.7306L51.2052 52.8899C53.9934 52.128 55.6302 49.2387 54.8589 46.4579L45.0917 11.2381Z" fill="#F2FBFC"/>
<path d="M54.7433 44.5589C54.4597 43.5412 54.1752 42.5319 53.8916 41.5142C53.511 40.1541 53.1314 38.7857 52.7517 37.4172C52.3121 35.8295 51.8724 34.2419 51.4337 32.6458C50.9626 30.9611 50.4914 29.2764 50.0297 27.5843C49.5641 25.9257 49.1069 24.2681 48.6497 22.6105C48.234 21.1105 47.8174 19.6189 47.4017 18.1189C47.0646 16.8997 46.7284 15.6721 46.3838 14.4436C46.1538 13.6273 45.9238 12.8111 45.7031 11.9874C45.6255 11.6983 45.547 11.4175 45.4694 11.1283C45.4454 11.0406 45.361 10.8866 45.361 10.8866C45.361 10.8866 44.6002 10.9276 44.7148 11.3399C44.7998 11.6384 44.8764 11.9359 44.9614 12.2344C45.1905 13.0591 45.4121 13.8743 45.6421 14.6906C45.9793 15.9098 46.3248 17.1299 46.661 18.3575C47.0776 19.8491 47.4858 21.3398 47.9024 22.8314L49.2714 27.753C49.7351 29.4283 50.1997 31.0953 50.6643 32.7622C51.1059 34.3331 51.5372 35.9198 51.9788 37.4907C52.3594 38.8508 52.7316 40.2099 53.1122 41.57L53.9685 44.6493C54.1255 45.2108 54.2742 45.7714 54.4322 46.3246C54.7832 47.5709 54.738 48.8655 54.13 50.0283C53.4649 51.3204 52.2994 52.1564 50.9142 52.5342L23.8464 60.0168C23.4435 60.1239 23.0396 60.2394 22.6366 60.3465C20.4986 60.919 18.2013 59.9782 17.1212 58.0458C16.8317 57.5287 16.683 56.9681 16.527 56.3981L6.0076 18.2298C5.87096 17.7131 5.70724 17.2102 5.6741 16.6797C5.51772 14.3937 7.01455 12.287 9.21697 11.6709C9.66473 11.5434 10.1115 11.4243 10.5677 11.2977L32.6952 5.19893C32.8183 5.16195 32.893 5.10248 32.9287 5.01309C32.8515 4.94484 32.7846 4.86078 32.7364 4.76184C32.6982 4.72353 32.6695 4.67778 32.6416 4.62364C32.597 4.5676 32.5534 4.50317 32.5358 4.43321C32.5191 4.4313 32.5013 4.43778 32.4752 4.44331L10.1463 10.5957C9.5931 10.7537 9.0018 10.8733 8.46806 11.0845C6.21741 11.9755 4.71542 14.277 4.88914 16.7094C4.93238 17.3005 5.09037 17.8537 5.24646 18.4237L15.8028 56.7151C16.0124 57.4865 16.2678 58.2292 16.7285 58.8847C18.0957 60.8327 20.5599 61.7245 22.8556 61.1105C23.2501 61.0024 23.6531 60.8953 24.0403 60.7779L51.1761 53.2945C52.7376 52.8604 54.0722 51.8822 54.8151 50.429C55.5101 49.0978 55.6044 47.5963 55.2063 46.1663C55.0454 45.6382 54.9032 45.0954 54.7433 44.5589Z" fill="#F2FBFC"/>
<path d="M51.2313 52.8844L22.7551 60.7252C19.9669 61.4871 17.086 59.8513 16.3231 57.0715L13.736 47.6957L52.2998 37.0599L54.8869 46.4357C55.6563 49.2332 54.0205 52.1141 51.2313 52.8844Z" fill="#009EAF"/>
<path d="M19.8145 50.2729L21.4731 49.8073L23.1155 55.686L21.457 56.1516L19.8145 50.2729Z" fill="#E6F7F9"/>
<path d="M29.6081 53.8754L28.7221 50.7588L27.9185 53.7173L27.1816 53.9224L24.9915 51.8893L25.8367 54.9164L24.3013 55.345L22.6589 49.4663L24.0273 49.0866L27.0376 51.901L28.1075 47.9449L29.476 47.5652L31.1362 53.4374L29.6081 53.8754Z" fill="#E6F7F9"/>
<path d="M35.9303 50.873L33.4471 51.5677L33.3031 52.8341L31.6091 53.3127L32.5636 46.7097L34.2045 46.2506L38.4533 51.3977L36.7247 51.8808L35.9303 50.873ZM35.1025 49.7849L33.8222 48.1187L33.5932 50.208L35.1025 49.7849Z" fill="#E6F7F9"/>
<path d="M41.9121 47.127L43.3776 46.7159L44.0612 49.1469C43.7937 49.4818 43.4546 49.7745 43.0606 50.0271C42.6582 50.2787 42.2382 50.4603 41.8073 50.5897C41.1925 50.7662 40.6043 50.7843 40.0322 50.6598C39.4686 50.5362 38.9789 50.2851 38.5725 49.8991C38.1661 49.5131 37.8728 49.0295 37.7102 48.4418C37.5477 47.8541 37.5351 47.292 37.6903 46.749C37.8371 46.2049 38.1282 45.7368 38.5562 45.3352C38.9841 44.9336 39.5097 44.645 40.1328 44.4695C40.685 44.3199 41.2007 44.2681 41.6861 44.3318C42.1716 44.3954 42.6122 44.556 42.9983 44.8208L42.2103 46.0734C41.6863 45.7505 41.1524 45.6643 40.6001 45.8139C40.1001 45.9525 39.7294 46.2247 39.5065 46.6156C39.2837 47.0066 39.2406 47.4604 39.3866 47.9698C39.4771 48.2944 39.6246 48.566 39.8385 48.7772C40.0514 48.9968 40.299 49.1354 40.5961 49.2117C40.8849 49.287 41.1926 49.271 41.5172 49.1805C41.8334 49.089 42.1135 48.9424 42.3582 48.7324L41.9121 47.127Z" fill="#E6F7F9"/>
<path d="M49.6536 46.8858L50.0092 48.1665L45.2891 49.4819L43.6466 43.6032L48.253 42.3174L48.6086 43.5981L45.6431 44.4249L45.9212 45.4165L48.5359 44.6858L48.8869 45.9321L46.2722 46.6628L46.5753 47.7337L49.6536 46.8858Z" fill="#E6F7F9"/>
<path d="M38.336 13.1973C38.2205 12.7934 38.035 12.407 37.7749 12.0801C37.2387 11.4159 36.4661 10.9628 35.5687 10.8608C35.0068 10.7969 34.4771 10.8981 33.9416 11.0496L24.562 13.6703C21.6226 14.4915 18.6852 15.2959 15.7523 16.1349C14.2159 16.5719 13.2312 17.8362 13.1733 19.3163C13.1586 19.595 13.2036 19.872 13.284 20.136C13.9337 22.3422 17.7959 35.4481 18.8588 39.0266C19.1656 40.0639 20.0259 40.8668 21.0927 41.0476C21.5595 41.1262 22.062 41.1153 22.5872 40.9796C25.3267 40.2716 28.0452 39.4508 30.7653 38.6896L41.2158 35.7659C42.2112 35.4543 42.9979 34.7366 43.3899 33.8297C43.5643 33.4163 43.5916 32.9521 43.4799 32.5146C42.7127 29.6239 39.0204 15.6963 38.336 13.1973Z" fill="#009EAF"/>
<path d="M23.4275 38.6708C22.6728 38.8824 21.6509 39.3524 20.9203 38.904C20.9222 38.8872 20.9231 38.8788 20.925 38.8621C20.9269 38.8453 20.9372 38.8295 20.942 38.7875C20.974 38.6553 20.9986 38.5136 21.0316 38.373C21.1334 37.9258 21.253 37.4721 21.3799 37.0278C21.7216 35.7413 22.0884 34.4577 22.4543 33.1825C22.8653 31.7341 23.2941 30.2791 23.7135 28.8316C23.9063 28.1824 24.1696 26.1649 25.2117 26.9375C26.0881 27.5978 26.8717 28.477 27.6789 29.2229C29.2543 30.6848 30.8212 32.1458 32.3976 33.5993C33.1053 34.249 33.8037 34.9061 34.5114 35.5558L23.4275 38.6708Z" fill="#80D9E3"/>
<path d="M40.6773 33.8526L36.7463 34.9518C35.6703 33.9545 34.6027 32.9581 33.5267 31.9607C33.7999 31.2017 34.0647 30.4417 34.3389 29.6743C34.4901 29.2412 34.6264 28.7895 34.8111 28.3602C34.964 27.9868 35.217 27.8541 35.5841 27.9129C35.5757 27.9119 35.7387 27.9729 35.841 28.044C35.8336 28.0347 35.8475 28.0618 35.8559 28.0627C35.934 28.1226 35.9945 28.1889 36.0717 28.2572C36.3795 28.5385 36.6957 28.8208 37.0035 29.1022C37.928 29.9379 38.8524 30.7736 39.7769 31.6093C40.3544 32.1337 40.9404 32.6591 41.5179 33.1835C41.3391 33.486 41.057 33.7258 40.6773 33.8526Z" fill="#80D9E3"/>
<path d="M38.3198 27.6123C37.626 26.9897 36.8983 26.1424 35.9414 25.9656C34.8261 25.7624 33.6549 26.2749 33.1154 27.284C32.9206 27.6526 32.803 28.0895 32.6566 28.4806C32.419 29.1503 32.1815 29.8199 31.9439 30.4895C30.9675 29.5884 29.9919 28.6789 29.0154 27.7778C28.4082 27.2161 27.8018 26.6459 27.1946 26.0841C26.8412 25.7551 26.4786 25.3571 26.0458 25.1295C25.2694 24.7099 24.3177 24.7121 23.5401 25.1249C22.7542 25.5368 22.3916 26.2602 22.1546 27.0743C21.722 28.5628 21.282 30.042 20.8578 31.5314C20.4515 32.938 20.0536 34.3455 19.6641 35.7539L15.6772 21.504C15.4896 20.837 15.053 19.8953 15.1592 19.1853C15.3316 18.1175 16.5363 17.9826 17.387 17.748L32.5231 13.5134C33.2778 13.3019 34.0363 13.0568 34.8048 12.8723C35.5734 12.6878 36.2585 13.0885 36.5045 13.8386C36.5859 14.0942 36.6495 14.3563 36.7225 14.611L39.4338 24.3152C39.9714 26.2369 40.5342 28.1614 41.0634 30.0821C40.1455 29.2641 39.2285 28.4377 38.3198 27.6123Z" fill="#F2FBFC"/>
<path d="M30.9584 21.4487C30.9891 21.4777 31.0449 21.5095 30.9584 21.4487V21.4487Z" fill="#009EAF"/>
<path d="M34.2203 19.5087C34.2323 19.5525 34.2434 19.6047 34.2203 19.5087V19.5087Z" fill="#009EAF"/>
<path d="M30.8968 18.1793C30.796 18.2443 30.8688 18.2016 30.8968 18.1793V18.1793Z" fill="#009EAF"/>
<path d="M32.4506 16.0198C30.9288 15.8808 29.3622 16.8071 28.7527 18.2075C28.1105 19.6722 28.3969 21.4124 29.5705 22.5228C30.744 23.6332 32.4699 23.8464 33.8997 23.1509C35.5088 22.3738 36.2706 20.4555 35.8256 18.7652C35.3708 17.2353 34.0396 16.1665 32.4506 16.0198Z" fill="#009EAF"/>
<path d="M34.2157 19.4743C34.2148 19.4827 34.2148 19.4827 34.2222 19.492C34.2331 19.6207 34.2439 19.7494 34.238 19.8761C34.2388 19.9442 34.2302 20.0196 34.2226 20.0867C34.2216 20.0951 34.2207 20.1035 34.2187 20.1203C34.1848 20.2693 34.1425 20.4175 34.1002 20.5656C34.0992 20.574 34.0992 20.5739 34.0983 20.5823C34.0973 20.5907 34.0889 20.5898 34.087 20.6065C34.0552 20.6624 34.0317 20.7192 33.9999 20.775C33.9783 20.8151 33.8651 20.9891 33.8539 21.0133C33.7847 21.0989 33.7061 21.1919 33.6295 21.2682C33.5912 21.3063 33.5538 21.336 33.5155 21.3741C33.4875 21.3964 33.4781 21.4039 33.4688 21.4113C33.4501 21.4262 33.4408 21.4336 33.4221 21.4485C33.3119 21.5209 33.2017 21.5933 33.0851 21.648C33.0673 21.6545 33.0132 21.6823 32.9861 21.6962C32.9413 21.7166 32.8975 21.7286 32.8537 21.7407C32.7212 21.7851 32.5906 21.8127 32.46 21.8403C32.4516 21.8394 32.4516 21.8394 32.4516 21.8394C32.4433 21.8384 32.4349 21.8375 32.4171 21.8439C32.3323 21.8428 32.2549 21.851 32.1785 21.8508C32.1021 21.8506 32.0266 21.842 31.9417 21.8409C31.9334 21.8399 31.925 21.839 31.925 21.839C31.8001 21.8163 31.6837 21.7945 31.5607 21.7551C31.5029 21.74 31.4378 21.7156 31.381 21.6922C31.3726 21.6912 31.3726 21.6912 31.3726 21.6912C31.3651 21.6819 31.3568 21.6809 31.3409 21.6706C31.205 21.5957 31.0766 21.5301 30.95 21.4478L30.9426 21.4384C30.8802 21.3889 30.8263 21.3403 30.7723 21.2916C30.7417 21.2627 30.5985 21.102 30.5827 21.0917C30.5167 20.9992 30.4508 20.9068 30.3942 20.8069C30.3654 20.7611 30.345 20.7163 30.3162 20.6706C30.3097 20.6529 30.2949 20.6342 30.2958 20.6258C30.2903 20.5997 30.2754 20.581 30.2699 20.5549C30.232 20.4401 30.1941 20.3254 30.1655 20.2032C30.159 20.1855 30.1371 20.0046 30.1397 20.0558C30.1352 20.0213 30.1306 19.9868 30.1335 19.9617C30.1226 19.833 30.1295 19.6979 30.1354 19.5711C30.1373 19.5543 30.1382 19.5459 30.1402 19.5292C30.1411 19.5208 30.143 19.504 30.1533 19.4882C30.1703 19.4137 30.1872 19.3391 30.2042 19.2646C30.2193 19.2068 30.2437 19.1417 30.2587 19.0839C30.2606 19.0671 30.2719 19.0429 30.2831 19.0187C30.3375 18.9144 30.3834 18.8092 30.4461 18.7059C30.4461 18.7059 30.4873 18.6426 30.5079 18.611C30.5378 18.5719 30.578 18.517 30.578 18.517C30.6762 18.4007 30.7818 18.2938 30.9033 18.1972L30.9126 18.1897C30.977 18.1461 31.0415 18.1025 31.1059 18.0588C31.1516 18.03 31.1964 18.0096 31.2422 17.9808C31.2422 17.9808 31.3057 17.9456 31.3505 17.9252C31.3953 17.9048 31.4746 17.8798 31.4662 17.8789C31.5277 17.8604 31.5986 17.8345 31.6602 17.816C31.7218 17.7975 31.7908 17.7884 31.8607 17.7708C31.8785 17.7643 31.8953 17.7662 31.9046 17.7588C31.913 17.7598 31.9298 17.7617 31.9475 17.7552C32.1013 17.7472 32.2626 17.7485 32.4145 17.7573C32.4229 17.7583 32.4313 17.7592 32.4396 17.7602C32.448 17.7611 32.448 17.7611 32.4648 17.763C32.5561 17.7819 32.639 17.7998 32.7303 17.8187C32.7797 17.8328 32.8291 17.8469 32.8784 17.861C32.911 17.8732 32.9352 17.8845 32.9688 17.8883C32.9772 17.8893 32.993 17.8995 33.034 17.9127C33.1457 17.9764 33.2574 18.04 33.3616 18.0944C33.3775 18.1047 33.3933 18.115 33.4017 18.1159C33.4091 18.1253 33.4175 18.1262 33.4324 18.1449C33.4947 18.1945 33.5486 18.2431 33.6026 18.2917C33.6565 18.3403 33.7086 18.4057 33.7625 18.4543C33.7774 18.473 33.7858 18.4739 33.7932 18.4833C33.8006 18.4926 33.8081 18.5019 33.8145 18.5197C33.9018 18.6485 33.9798 18.7848 34.0577 18.9211C34.0652 18.9305 34.0642 18.9388 34.0707 18.9566C34.1031 19.0452 34.1345 19.1422 34.1669 19.2309C34.1826 19.3176 34.1992 19.3959 34.2157 19.4743Z" fill="#E6F7F9"/>
<path d="M45.3955 10.882L43.2237 12.6485C43.0183 12.8121 42.8072 12.9495 42.5655 13.0579C38.4453 14.9258 33.5847 12.0964 32.9629 7.32771L32.5881 4.42212L45.3955 10.882Z" fill="#80D9E3"/>
<path d="M81.9671 28.1594L77.1423 15.6852C77.0635 15.5861 77.0217 15.4792 77.0189 15.3563L76.8934 15.0356L55.0589 4.24531C52.4706 2.96614 49.3306 4.02932 48.0514 6.61761L29.9692 43.2183C28.69 45.8066 29.7532 48.9466 32.3415 50.2258L58.8272 63.3147C61.4155 64.5939 64.5555 63.5307 65.8346 60.9424L81.9671 28.1594Z" fill="#F2FBFC"/>
<path d="M67.0178 59.4546C67.4847 58.5036 67.9495 57.5607 68.4143 56.6178C69.0342 55.3491 69.6643 54.0743 70.2842 52.8055C71.0107 51.3291 71.7394 49.8445 72.4681 48.3599C73.2366 46.7897 74.0133 45.2217 74.7899 43.6536C75.552 42.108 76.3038 40.5683 77.0659 39.0227C77.7526 37.6318 78.4312 36.2388 79.12 34.8397C79.6791 33.7034 80.2484 32.561 80.8014 31.4143C81.1741 30.6568 81.5489 29.891 81.9298 29.1356C82.0617 28.8647 82.1915 28.602 82.3213 28.3393C82.359 28.2619 82.3957 28.0883 82.3957 28.0883C82.3957 28.0883 81.7948 27.617 81.6085 27.9958C81.4744 28.2748 81.3322 28.5517 81.1981 28.8308C80.8233 29.5965 80.4424 30.3519 80.0676 31.1177C79.5085 32.254 78.9495 33.3904 78.3883 34.5349C77.7119 35.9197 77.0252 37.3106 76.3385 38.7015L74.0835 43.2856C73.3193 44.8394 72.5529 46.4014 71.7908 47.9471C71.0746 49.4175 70.342 50.8836 69.6258 52.354C69.0059 53.6228 68.38 54.8813 67.758 56.1582L66.3529 59.0277C66.1015 59.5552 65.8359 60.0703 65.5866 60.5897C65.0108 61.7566 64.1224 62.6846 62.899 63.1585C61.5421 63.6761 60.1146 63.5295 58.8256 62.8869L33.6534 50.4469C33.2828 50.2627 32.904 50.0763 32.5252 49.89C30.55 48.9021 29.4606 46.6627 29.9387 44.5017C30.0638 43.9237 30.3294 43.4086 30.5911 42.875L48.1332 7.37199C48.3718 6.89345 48.5838 6.41667 48.9222 5.99041C50.3301 4.17743 52.8444 3.60495 54.9034 4.60605C55.3208 4.81124 55.7383 5.01644 56.1537 5.2298L76.7297 15.3942C76.8376 15.4486 76.9421 15.4497 77.0305 15.4118C77.0153 15.3031 77.0246 15.2008 77.0605 15.0968C77.057 15.0435 77.072 14.9864 77.0848 14.9374C77.0856 14.8678 77.1069 14.7861 77.1322 14.7229C77.118 14.7105 77.1038 14.698 77.0793 14.6916L56.3016 4.43088C55.7844 4.17341 55.2593 3.87901 54.719 3.67657C52.4411 2.84507 49.7943 3.55737 48.3032 5.48819C47.9438 5.96132 47.6864 6.47855 47.4268 7.00395L29.8303 42.6149C29.4786 43.3256 29.1677 44.047 29.0791 44.8527C28.8015 47.2144 30.0478 49.5211 32.1696 50.5822C32.5321 50.7643 32.9109 50.9506 33.2754 51.1245L58.5109 63.5898C59.9649 64.3017 61.6154 64.463 63.1389 63.8757C64.5452 63.3362 65.6131 62.2893 66.2685 60.9513C66.5174 60.4667 66.7728 59.9577 67.0178 59.4546Z" fill="#F2FBFC"/>
<path d="M58.8576 63.3315L32.3697 50.2507C29.7814 48.9716 28.7183 45.8316 29.9974 43.2433L34.304 34.5192L70.1716 52.2351L65.865 60.9592C64.5859 63.5475 61.4437 64.6189 58.8576 63.3315Z" fill="#009EAF"/>
<path d="M37.1298 40.4935L38.6776 41.2474L35.9951 46.7318L34.4473 45.9779L37.1298 40.4935Z" fill="#E6F7F9"/>
<path d="M42.0517 49.6949L43.4593 46.7825L40.892 48.4579L40.2037 48.1208L39.9167 45.1489L38.5326 47.9715L37.1009 47.2741L39.7834 41.7898L41.0603 42.4118L41.4353 46.5147L44.8666 44.2713L46.1436 44.8933L43.4774 50.382L42.0517 49.6949Z" fill="#E6F7F9"/>
<path d="M48.7623 51.6598L46.4406 50.5289L45.4936 51.3805L43.9152 50.6099L49.017 46.3168L50.5403 47.0644L50.2875 53.7341L48.6704 52.9446L48.7623 51.6598ZM48.8673 50.2913L49.0232 48.1944L47.46 49.6003L48.8673 50.2913Z" fill="#E6F7F9"/>
<path d="M55.7228 52.8351L57.0913 53.5073L55.9814 55.7821C55.5609 55.8553 55.1166 55.8525 54.6487 55.7737C54.1807 55.6949 53.7461 55.555 53.3368 55.352C52.7645 55.0714 52.3038 54.6978 51.965 54.2253C51.6241 53.7609 51.427 53.2469 51.3819 52.6854C51.3369 52.124 51.4473 51.5683 51.7133 51.0184C51.9794 50.4685 52.3525 50.0426 52.8247 49.7386C53.2969 49.4346 53.8268 49.2766 54.4085 49.2542C54.9881 49.2401 55.5722 49.3754 56.1607 49.6603C56.672 49.9075 57.0883 50.2171 57.4098 50.5891C57.7313 50.9611 57.954 51.3771 58.0616 51.8328L56.6362 52.2452C56.4665 51.6598 56.1231 51.2384 55.6058 50.981C55.1333 50.7526 54.6916 50.7069 54.26 50.8557C53.8306 50.9964 53.5037 51.3122 53.2753 51.7847C53.1267 52.0861 53.0558 52.3904 53.073 52.6916C53.0902 52.9927 53.1752 53.268 53.3466 53.5135C53.5179 53.759 53.7532 53.9602 54.0546 54.1088C54.3479 54.2554 54.6603 54.3284 54.9796 54.3421L55.7228 52.8351Z" fill="#E6F7F9"/>
<path d="M61.6655 57.8014L61.0812 59.0009L56.6802 56.8462L59.3627 51.3618L63.6639 53.4642L63.0796 54.6638L60.3181 53.3131L59.8678 54.2336L62.3035 55.4292L61.738 56.5901L59.3024 55.3945L58.8123 56.4005L61.6655 57.8014Z" fill="#E6F7F9"/>
<path d="M75.6144 25.1275C75.8007 24.7487 75.9157 24.3425 75.9387 23.921C75.9787 23.0677 75.7034 22.2191 75.1048 21.539C74.7265 21.1172 74.2586 20.8378 73.7638 20.5949L65.023 16.3188C62.2838 14.9827 59.551 13.6221 56.8076 12.3024C55.3677 11.6029 53.79 11.8969 52.769 12.9647C52.5764 13.1674 52.4285 13.3991 52.303 13.6455C51.3221 15.7273 45.4814 28.081 43.8906 31.4603C43.4336 32.4401 43.5397 33.6021 44.2142 34.4592C44.509 34.833 44.8966 35.1525 45.373 35.3993C47.8874 36.694 50.4622 37.8911 52.9998 39.1309L62.7467 43.8969C63.6981 44.3291 64.7649 44.3202 65.6601 43.9C66.0675 43.71 66.3987 43.3778 66.5996 42.9767C67.9616 40.3053 74.4753 27.4471 75.6144 25.1275Z" fill="#009EAF"/>
<path d="M47.5456 34.2314C46.8491 33.8921 45.7655 33.565 45.5104 32.7391C45.5207 32.7331 45.5331 32.7189 45.5434 32.7129C45.5537 32.7069 45.5743 32.6948 45.6074 32.6685C45.725 32.5859 45.8344 32.5011 45.9499 32.4266C46.3254 32.1584 46.7152 31.9026 47.1028 31.655C48.2183 30.926 49.34 30.2073 50.4594 29.4968C51.7356 28.6876 53.0096 27.8867 54.2918 27.0878C54.867 26.7235 56.4088 25.3993 56.6693 26.6715C56.8848 27.7487 56.8822 28.926 56.989 30.0184C57.1889 32.156 57.3991 34.2876 57.5989 36.4252C57.6888 37.3823 57.7787 38.3394 57.8707 39.2883L47.5456 34.2314Z" fill="#80D9E3"/>
<path d="M63.6342 42.1049L59.9685 40.3083C59.8267 38.849 59.6931 37.3918 59.5514 35.9325C60.264 35.5431 60.9664 35.1597 61.679 34.7703C62.0869 34.5454 62.4826 34.3 62.9025 34.0957C63.2709 33.9216 63.5425 33.9839 63.781 34.2732C63.7749 34.2629 63.8551 34.4234 63.8763 34.5424C63.8703 34.5321 63.872 34.5587 63.8699 34.5669C63.8894 34.6593 63.8904 34.7555 63.8995 34.8539C63.9483 35.268 63.9867 35.6881 64.0354 36.1022C64.1734 37.3424 64.3032 38.5804 64.4412 39.8206C64.5248 40.6016 64.6106 41.3744 64.6942 42.1553C64.3674 42.2705 63.9949 42.2603 63.6342 42.1049Z" fill="#80D9E3"/>
<path d="M66.0239 35.8722C65.9254 34.9477 65.9397 33.8259 65.3461 33.0599C64.6536 32.1719 63.4336 31.7655 62.3606 32.1654C61.9659 32.3064 61.5865 32.5562 61.228 32.759C60.606 33.1024 59.9757 33.4436 59.3537 33.7869C59.2289 32.4629 59.1041 31.1389 58.9793 29.8149C58.8982 28.991 58.8192 28.1589 58.7463 27.3371C58.6983 26.8534 58.6898 26.3189 58.5229 25.8565C58.2248 25.0281 57.509 24.3959 56.6575 24.1818C55.7979 23.9657 55.0474 24.2667 54.3198 24.7132C53.0067 25.5302 51.6914 26.3553 50.3844 27.1825C49.1494 27.9675 47.9166 28.7444 46.6856 29.5479L53.1896 16.2595C53.4912 15.6404 53.7866 14.6445 54.3424 14.1879C55.183 13.5091 56.1684 14.2118 56.9586 14.5931L71.0677 21.4951C71.7724 21.8365 72.4998 22.1577 73.1938 22.5399C73.8899 22.914 74.1355 23.6762 73.8164 24.3955C73.7094 24.638 73.5778 24.874 73.4626 25.1144L69.0358 34.1647C68.1563 35.9589 67.2992 37.7676 66.4116 39.5596C66.2899 38.3237 66.1558 37.102 66.0239 35.8722Z" fill="#F2FBFC"/>
<path d="M64.6245 26.3794C64.6323 26.4163 64.65 26.482 64.6245 26.3794V26.3794Z" fill="#009EAF"/>
<path d="M65.0727 27.2989C65.035 27.2462 65.0549 27.2686 65.0727 27.2989V27.2989Z" fill="#009EAF"/>
<path d="M68.3531 27.1019C68.3051 27.1853 68.3343 27.1406 68.3531 27.1019V27.1019Z" fill="#009EAF"/>
<path d="M66.7562 23.9009C66.6398 23.8791 66.7133 23.8984 66.7562 23.9009V23.9009Z" fill="#009EAF"/>
<path d="M69.3506 23.3231C68.298 22.2101 66.5248 21.8509 65.1359 22.491C63.6872 23.159 62.7394 24.6474 62.8754 26.2622C63.0113 27.877 64.1539 29.1793 65.6888 29.6158C67.4115 30.1013 69.2478 29.1857 70.0408 27.6219C70.7179 26.1675 70.4435 24.4815 69.3506 23.3231Z" fill="#009EAF"/>
<path d="M68.3699 27.0714C68.3677 27.0796 68.3677 27.0796 68.3656 27.0877C68.2867 27.1892 68.2078 27.2907 68.1229 27.382C68.0752 27.4306 68.0276 27.4792 67.9718 27.5257C67.9615 27.5317 67.9615 27.5317 67.9491 27.5459C67.8212 27.6346 67.7036 27.7173 67.5615 27.7935C67.5512 27.7995 67.5512 27.7995 67.5409 27.8056C67.5327 27.8034 67.5306 27.8116 67.5121 27.8155C67.4524 27.8435 67.3949 27.8633 67.3373 27.8832C67.2983 27.8991 67.1011 27.9523 67.0724 27.9622C66.9616 27.9856 66.8447 27.9986 66.7382 28.0056C66.6849 28.0092 66.6338 28.0045 66.5887 28.0102C66.5539 28.0098 66.5375 28.0055 66.5272 28.0115C66.5109 28.0073 66.4843 28.009 66.4679 28.0048C66.3412 27.989 66.2084 27.963 66.0859 27.931C66.0614 27.9246 66.0124 27.9117 65.9797 27.9032C65.9328 27.8822 65.892 27.8715 65.8451 27.8505C65.7209 27.7919 65.6048 27.7353 65.4848 27.6603C65.4767 27.6582 65.4767 27.6582 65.4767 27.6582C65.4706 27.6479 65.4625 27.6457 65.4483 27.6333C65.3833 27.5814 65.3244 27.5398 65.2698 27.4819C65.213 27.4321 65.1583 27.3742 65.1037 27.3163C65.1037 27.3163 65.0976 27.306 65.0895 27.3039C65.0107 27.2047 64.9401 27.1077 64.8716 27.0026C64.8415 26.951 64.8053 26.8892 64.7752 26.8377C64.7752 26.8377 64.7752 26.8377 64.7691 26.8274C64.7631 26.8171 64.7652 26.8089 64.7613 26.7905C64.7117 26.6466 64.66 26.5109 64.6207 26.361C64.6207 26.361 64.6228 26.3529 64.6146 26.3507C64.6072 26.279 64.5938 26.197 64.5864 26.1252C64.5807 26.0801 64.583 25.8713 64.5812 25.8447C64.5927 25.7342 64.6063 25.6156 64.628 25.4992C64.6408 25.4502 64.6536 25.4012 64.6686 25.344C64.675 25.3195 64.6793 25.3032 64.6814 25.295C64.6878 25.2705 64.7024 25.2481 64.7088 25.2236C64.7551 25.1136 64.8116 24.9975 64.866 24.8896C64.8785 24.8754 64.9805 24.7189 64.9432 24.7614C64.9599 24.7309 64.9826 24.7107 64.9993 24.6802C65.0782 24.5786 65.1713 24.4896 65.2666 24.3923C65.279 24.3781 65.2893 24.3721 65.2915 24.3639C65.3018 24.3579 65.3121 24.3519 65.3327 24.3398C65.3966 24.2955 65.4524 24.249 65.5164 24.2047C65.57 24.1663 65.6215 24.1362 65.6812 24.1082C65.6915 24.1021 65.7203 24.0922 65.7409 24.0802C65.8499 24.0302 65.9569 23.9883 66.0698 23.9568C66.0698 23.9568 66.1355 23.9391 66.1828 23.9253C66.2279 23.9196 66.3017 23.9041 66.3017 23.9041C66.4555 23.8832 66.605 23.8787 66.7545 23.8742C66.7627 23.8763 66.7627 23.8763 66.7627 23.8763C66.8383 23.8874 66.914 23.8985 66.9896 23.9095C67.0386 23.9223 67.0897 23.927 67.1469 23.9419C67.1469 23.9419 67.2204 23.9612 67.2612 23.9718C67.3081 23.9928 67.3794 24.0202 67.3816 24.0121C67.4448 24.0373 67.5058 24.0707 67.569 24.096C67.6301 24.1294 67.6911 24.1628 67.744 24.1941C67.7582 24.2066 67.7746 24.2108 67.7827 24.213C67.7888 24.2233 67.7969 24.2254 67.8193 24.24C67.941 24.3416 68.0546 24.4412 68.166 24.5488C68.172 24.5591 68.1721 24.5591 68.1802 24.5613C68.1884 24.5634 68.1862 24.5716 68.1923 24.5819C68.2427 24.6561 68.3033 24.7244 68.3455 24.7965C68.3697 24.8377 68.4019 24.881 68.4239 24.9304C68.442 24.9613 68.4541 24.9819 68.464 25.0107C68.47 25.021 68.4739 25.0395 68.492 25.0704C68.5317 25.1855 68.5774 25.3109 68.6171 25.4259C68.621 25.4444 68.6271 25.4547 68.6331 25.465C68.6309 25.4732 68.637 25.4835 68.6409 25.502C68.6483 25.5737 68.6617 25.6557 68.6691 25.7275C68.6744 25.8074 68.6736 25.877 68.6789 25.9569C68.6828 25.9754 68.6785 25.9917 68.6846 26.002C68.6824 26.0102 68.6781 26.0265 68.6739 26.0428C68.6496 26.2023 68.6193 26.3514 68.589 26.5005C68.5869 26.5087 68.5826 26.525 68.5805 26.5332C68.5467 26.629 68.5069 26.7146 68.467 26.8002C68.4492 26.9351 68.4054 27.0022 68.3699 27.0714Z" fill="#E6F7F9"/>
<path d="M82.4283 28.0967L79.635 27.968C79.3772 27.9529 79.1258 27.9133 78.8748 27.8389C74.5511 26.4897 72.8076 21.1475 75.5146 17.1702L77.1605 14.7477L82.4283 28.0967Z" fill="#80D9E3"/>
</svg>
