<svg width="115" height="102" viewBox="0 0 115 102" fill="none" xmlns="http://www.w3.org/2000/svg">
<path d="M29.6375 39.7115C29.6375 39.7115 19.1211 19.6406 3.17839 19.4336C-6.40116 36.0429 10.4998 49.5427 10.4998 49.5427L29.5437 55.0145L29.6375 39.7115Z" fill="#CDCBCB"/>
<path d="M19.3358 26.624L15.8604 36.0513L3.55562 19.4456C3.43027 19.4419 3.30492 19.4354 3.17865 19.4336C3.14058 19.4986 3.10715 19.5636 3.07001 19.6295L9.65972 28.5228L0.357801 27.7382C0.347587 27.8265 0.341088 27.9137 0.332731 28.0019L0.313232 28.235L10.0553 29.0577L21.0387 43.8778L4.66985 43.0208C4.78963 43.1963 4.90941 43.3699 5.02919 43.5389L21.4231 44.3978L29.2218 54.9225L29.544 55.0154L29.5468 54.5233L16.2151 36.5304L19.7342 26.9852C19.6032 26.8645 19.4695 26.7438 19.3358 26.624Z" fill="white"/>
<path d="M100.58 77.3023C100.887 77.0215 101.096 75.4436 100.981 73.6701C102.424 73.1556 103.762 72.4373 104.966 71.5496C106.112 72.5988 107.43 73.5869 108.177 73.3983C109.69 73.0171 112.029 69.4722 112.059 68.8112C112.078 68.3879 111.073 67.0859 109.699 65.8962C110.354 64.5691 110.826 63.1397 111.08 61.6431C112.636 61.5759 114.274 61.3422 114.67 60.6801C115.471 59.34 114.618 55.1802 114.171 54.6917C113.891 54.3857 112.323 54.1771 110.556 54.2904C110.083 52.8069 109.396 51.4266 108.532 50.1818C109.538 49.0664 110.449 47.8145 110.268 47.0953C109.887 45.5816 106.342 43.2434 105.681 43.2133C105.288 43.1953 104.133 44.0629 103.017 45.2897C101.615 44.5464 100.091 44.0118 98.488 43.7269C98.3947 42.3226 98.1459 40.9594 97.5501 40.6033C96.2099 39.8018 92.0501 40.6554 91.5616 41.1018C91.2868 41.3536 91.0902 42.6466 91.1353 44.1893C89.5143 44.6919 88.0127 45.4482 86.6766 46.4112C85.6655 45.5465 84.6052 44.8444 83.9662 45.0048C82.4526 45.386 80.1144 48.9309 80.0843 49.592C80.0682 49.9561 80.8085 50.9702 81.8898 52.0034C81.1355 53.488 80.6169 55.105 80.3732 56.8022C79.0511 56.9065 77.8113 57.1593 77.4732 57.724C76.6718 59.0641 77.5254 63.224 77.9718 63.7125C78.2235 63.9883 79.5235 64.1849 81.0703 64.1378C81.618 65.7156 82.4124 67.1671 83.4005 68.4591C82.4826 69.5113 81.7073 70.6398 81.8748 71.3079C82.256 72.8215 85.8009 75.1597 86.4619 75.1898C86.8571 75.2079 88.0207 74.3312 89.1422 73.0954C90.5455 73.7564 92.0581 74.2128 93.64 74.4285C93.7193 75.9171 93.962 77.4237 94.593 77.8009C95.9331 78.6023 100.093 77.7487 100.58 77.3023ZM88.8272 59.6078C88.5092 55.783 91.351 52.4237 95.1768 52.1047C99.0015 51.7857 102.361 54.6295 102.68 58.4543C102.999 62.2791 100.156 65.6384 96.3303 65.9574C92.5055 66.2754 89.1462 63.4326 88.8272 59.6078Z" fill="#EBEBEB"/>
<path d="M86.0544 59.8938C85.602 54.459 89.6555 49.6693 95.0903 49.2169C100.525 48.7645 105.315 52.818 105.768 58.2527C106.221 63.6874 102.167 68.4772 96.7323 68.9296C91.2966 69.383 86.5068 65.3295 86.0544 59.8938ZM105.628 58.2647C105.181 52.9072 100.46 48.9109 95.1023 49.3573C89.7448 49.8037 85.7485 54.5252 86.1949 59.8827C86.6412 65.2402 91.3628 69.2365 96.7203 68.7902C102.078 68.3438 106.074 63.6222 105.628 58.2647Z" fill="white"/>
<path d="M99.9272 72.8244C99.9292 72.7592 99.9322 72.693 99.9373 72.6278C98.9693 72.9287 97.9552 73.1334 96.9039 73.2206C89.1119 73.8696 82.2448 68.0577 81.5958 60.2657C81.1705 55.164 83.5167 50.4585 87.3736 47.6358C87.3736 47.6348 87.3736 47.6348 87.3726 47.6338C87.3535 47.5716 87.3364 47.5084 87.3214 47.4453C83.3803 50.3 80.9799 55.0878 81.4122 60.2808C82.0692 68.1741 89.0257 74.0612 96.919 73.4042C97.9612 73.3169 98.9663 73.1183 99.9272 72.8244Z" fill="white"/>
<path d="M106.179 49.5186C108.232 51.7555 109.589 54.6595 109.86 57.9125C109.865 57.9757 109.867 58.0389 109.871 58.1031C109.93 58.075 109.99 58.0509 110.05 58.0258C110.047 57.9827 110.046 57.9406 110.043 57.8974C109.77 54.6163 108.406 51.6843 106.341 49.4223C106.288 49.4554 106.233 49.4875 106.179 49.5186Z" fill="white"/>
<path d="M91.021 36.1876C91.021 36.1876 101.466 22.4684 113.454 24.3422C118.527 38.0233 104.128 45.9999 104.128 45.9999L89.1432 47.681L91.021 36.1876Z" fill="#BDBDBD"/>
<path d="M100.417 27.6794L101.824 35.1945L113.169 24.303C113.264 24.316 113.359 24.3271 113.453 24.3421C113.473 24.3963 113.49 24.4484 113.509 24.5026L107.433 30.3366L114.511 30.9314C114.507 30.9986 114.501 31.0648 114.497 31.132L114.482 31.3096L107.068 30.6866L96.9423 40.4086L109.332 41.849C109.22 41.9654 109.109 42.0807 108.996 42.1921L96.5872 40.7486L89.396 47.6519L89.1432 47.68L89.2034 47.3098L101.496 35.5085L100.071 27.8991C100.185 27.8258 100.301 27.7526 100.417 27.6794Z" fill="white"/>
<path d="M92.9601 44.2073C92.9601 44.2073 106.698 39.9191 112.723 47.4774C106.081 66.0647 81.9692 58.9277 81.9692 58.9277L92.9601 44.2073Z" fill="#D5D5D5"/>
<path d="M112.723 47.4775C112.697 47.5487 112.671 47.6189 112.645 47.6901L93.6474 52.0485L101.956 58.6469C101.818 58.7 101.678 58.7512 101.539 58.8003L93.173 52.1569L85.7531 53.8591L86.1042 53.3887L100.551 50.0745L104.87 43.2625C105.005 43.2845 105.14 43.3076 105.275 43.3327L101.077 49.9541L112.587 47.314C112.632 47.3681 112.678 47.4213 112.723 47.4775Z" fill="white"/>
<path d="M29.1941 63.4909C29.0873 63.1891 28.0297 62.5661 26.7372 62.1158C26.8059 60.9375 26.6982 59.7713 26.4299 58.6515C27.519 58.1538 28.6156 57.515 28.7066 56.9291C28.8914 55.7406 27.0789 53.0163 26.6184 52.7971C26.324 52.6569 25.0984 52.9782 23.8412 53.5957C23.0965 52.7321 22.2237 51.9689 21.2385 51.3384C21.6582 50.214 21.9841 48.9819 21.6341 48.5018C20.9237 47.5306 17.7157 46.8862 17.2357 47.0561C16.9348 47.1629 16.3155 48.213 15.8652 49.5009C14.6702 49.3913 13.4844 49.4638 12.3424 49.7033C11.853 48.6541 11.2393 47.6318 10.6738 47.5445C9.48531 47.3597 6.76103 49.1722 6.5419 49.6327C6.41097 49.9067 6.68024 50.9856 7.21414 52.1462C6.2652 52.9178 5.4286 53.838 4.74428 54.89C3.72012 54.5344 2.67832 54.3013 2.24656 54.617C1.27533 55.3274 0.630936 58.5345 0.800855 59.0154C0.896493 59.2866 1.75537 59.814 2.8631 60.2448C2.73311 61.5466 2.8176 62.8382 3.09987 64.0768C2.18249 64.5346 1.3654 65.0759 1.2874 65.5773C1.10262 66.7658 2.9151 69.4901 3.37564 69.7092C3.62913 69.8299 4.57065 69.6089 5.62916 69.1521C6.45554 70.1335 7.4472 70.9869 8.57814 71.6702C8.25502 72.6396 8.06188 73.596 8.36087 74.0045C9.07119 74.9758 12.2783 75.6202 12.7593 75.4503C13.0304 75.3546 13.5606 74.4911 13.9923 73.3797C15.2756 73.4651 16.5448 73.3379 17.7584 73.025C18.2292 73.9925 18.7965 74.882 19.3211 74.9637C20.5096 75.1485 23.2339 73.3351 23.453 72.8755C23.584 72.6006 23.3119 71.5115 22.7724 70.3443C23.6629 69.5477 24.441 68.6117 25.0696 67.5541C26.1495 67.945 27.2915 68.2254 27.7484 67.8912C28.7196 67.179 29.364 63.971 29.1941 63.4909ZM13.1084 66.5132C10.2987 65.5903 8.76942 62.5633 9.69329 59.7536C10.6162 56.9439 13.6432 55.4146 16.4529 56.3376C19.2626 57.2605 20.7919 60.2875 19.8689 63.0972C18.9441 65.9069 15.9181 67.4362 13.1084 66.5132Z" fill="#EBEBEB"/>
<path d="M12.4774 68.5662C8.4848 67.2542 6.30464 62.9393 7.61664 58.9467C8.92864 54.9541 13.2435 52.7739 17.2361 54.0859C21.2278 55.3979 23.4089 59.7127 22.0969 63.7054C20.7849 67.698 16.4701 69.8782 12.4774 68.5662ZM17.2027 54.189C13.2676 52.8955 9.01313 55.0451 7.7197 58.9811C6.42627 62.9161 8.5758 67.1706 12.5118 68.464C16.4469 69.7575 20.7013 67.6079 21.9948 63.6719C23.2873 59.7359 21.1377 55.4824 17.2027 54.189Z" fill="white"/>
<path d="M25.821 62.6088C25.7755 62.5874 25.7291 62.5661 25.6845 62.5428C25.6074 63.32 25.4477 64.1009 25.1933 64.8725C23.3121 70.5959 17.1254 73.7222 11.402 71.842C7.65448 70.6108 5.02119 67.5327 4.17624 63.9477H4.17531C4.12517 63.9431 4.07596 63.9356 4.02582 63.9273C4.86706 67.581 7.54213 70.7231 11.3574 71.9766C17.1551 73.8819 23.4226 70.7148 25.3279 64.9171C25.5796 64.152 25.7402 63.3785 25.821 62.6088Z" fill="white"/>
<path d="M11.1634 51.1704C13.3668 50.3858 15.8357 50.2957 18.2248 51.0812C18.2712 51.097 18.3167 51.1147 18.3632 51.1305C18.3613 51.0803 18.3622 51.0302 18.3632 50.98C18.3316 50.9698 18.301 50.9568 18.2694 50.9466C15.8589 50.1546 13.3696 50.2419 11.1439 51.0274C11.1513 51.0747 11.1578 51.1221 11.1634 51.1704Z" fill="white"/>
<path d="M54.5985 79.2796H14.1977L14.7459 12.5116L56.2432 11.6717L54.5985 79.2796Z" fill="#C6C6C6"/>
<path d="M56.243 11.6717L60.509 74.3941L54.5983 79.2796L56.243 11.6717Z" fill="#404040"/>
<path d="M45.2952 17.1191C45.2952 17.7035 44.8204 18.1783 44.236 18.1783C43.6504 18.1783 43.1768 17.7047 43.1768 17.1191C43.1768 16.5336 43.6504 16.06 44.236 16.06C44.8204 16.06 45.2952 16.5347 45.2952 17.1191Z" fill="white"/>
<path d="M25.9163 17.0139C25.9163 17.5983 25.4427 18.072 24.8571 18.072C24.2727 18.072 23.798 17.5983 23.798 17.0139C23.798 16.4295 24.2716 15.9548 24.8571 15.9548C25.4427 15.9548 25.9163 16.4284 25.9163 17.0139Z" fill="white"/>
<path d="M44.5493 16.8918C44.5233 14.5293 43.974 0.799777 34.7388 0.518313C32.5662 0.457273 30.6886 1.17167 29.1423 2.65699C24.5416 7.07111 24.3868 16.6714 24.3823 17.0772C24.4275 17.1936 24.5292 17.2818 24.6524 17.2818C24.7734 17.2818 24.874 17.197 24.9 17.084C24.9079 16.9868 25.0639 7.29606 29.5051 3.03453C30.9464 1.65095 32.7007 0.971596 34.723 1.04281C43.4009 1.30732 43.9909 14.362 44.0237 16.8274C44.0271 17.0704 44.0599 17.2264 44.0599 17.2264C44.0712 17.3564 44.1786 17.4582 44.312 17.4582C44.4521 17.4582 44.5652 17.3451 44.5652 17.2049C44.5652 17.1756 44.5493 16.9879 44.5493 16.8918Z" fill="#2C2C2C"/>
<path d="M94.3691 87.4H50.2731L50.8722 23.4218L96.1653 22.617L94.3691 87.4Z" fill="#949494"/>
<path d="M96.1651 22.617L100.821 82.7191L94.3689 87.4L96.1651 22.617Z" fill="#ADADAD"/>
<path d="M82.3601 31.3119C82.3601 31.8963 81.8853 32.3699 81.3009 32.3699C80.7165 32.3699 80.2418 31.8951 80.2418 31.3119C80.2418 30.7263 80.7165 30.2527 81.3009 30.2527C81.8853 30.2527 82.3601 30.7263 82.3601 31.3119Z" fill="#ECECEC"/>
<path d="M61.5689 31.2044C61.5689 31.7899 61.0953 32.2636 60.5097 32.2636C59.9242 32.2636 59.4506 31.7899 59.4506 31.2044C59.4506 30.62 59.9242 30.1464 60.5097 30.1464C61.0953 30.1464 61.5689 30.62 61.5689 31.2044Z" fill="#ECECEC"/>
<path d="M81.6694 31.5796L81.1449 31.5695C81.1449 31.5593 81.1517 31.1795 81.137 30.5284C81.1268 30.0954 81.1087 29.5438 81.0737 28.9018C80.7741 23.5732 79.2176 11.1481 71.2654 10.8564C69.3957 10.7852 67.7364 11.434 66.3313 12.7769C61.0242 17.8478 60.8433 31.2496 60.8411 31.3841L60.3177 31.3796C60.3222 30.82 60.5019 17.6217 65.9684 12.3983C67.4798 10.9536 69.268 10.2618 71.2835 10.333C79.6675 10.6405 81.2885 23.4002 81.5959 28.8712C81.6321 29.5201 81.6513 30.0774 81.6615 30.5148C81.6762 31.1817 81.6694 31.5706 81.6694 31.5796Z" fill="#2C2C2C"/>
<path d="M60.8275 31.3469C60.8275 31.4927 60.7088 31.6114 60.563 31.6114C60.4171 31.6114 60.2985 31.4927 60.2985 31.3469C60.2985 31.1999 60.4171 31.0823 60.563 31.0823C60.7088 31.0812 60.8275 31.1999 60.8275 31.3469Z" fill="#2C2C2C"/>
<path d="M81.6775 31.5231C81.6775 31.6689 81.5588 31.7876 81.4129 31.7876C81.2671 31.7876 81.1484 31.6689 81.1484 31.5231C81.1484 31.3762 81.2671 31.2586 81.4129 31.2586C81.5588 31.2575 81.6775 31.3762 81.6775 31.5231Z" fill="#2C2C2C"/>
<path d="M65.3121 43.5623L69.759 95.2386L63.5962 99.2628L65.3121 43.5623Z" fill="#ADADAD"/>
<path d="M63.5959 99.2628H21.4701L22.0432 44.2541L65.3118 43.5623L63.5959 99.2628Z" fill="#F5F5F5"/>
<path d="M53.6452 50.7426C53.6452 51.327 53.1716 51.8006 52.586 51.8006C52.0016 51.8006 51.5269 51.327 51.5269 50.7426C51.5269 50.1571 52.0005 49.6834 52.586 49.6834C53.1716 49.6834 53.6452 50.1571 53.6452 50.7426Z" fill="#ADADAD"/>
<path d="M33.1187 50.4452C33.1187 51.0296 32.6451 51.5044 32.0595 51.5044C31.4751 51.5044 31.0004 51.0296 31.0004 50.4452C31.0004 49.8608 31.474 49.386 32.0595 49.386C32.6451 49.386 33.1187 49.8608 33.1187 50.4452Z" fill="#ADADAD"/>
<path d="M63.596 99.2629L66.37 94.2508L69.7588 95.2388L63.596 99.2629Z" fill="#ADADAD"/>
<path d="M52.8107 50.6894C52.8118 50.6375 52.8118 50.5662 52.8118 50.4781C52.8186 47.9098 52.4897 30.7405 42.5887 30.3867C40.5687 30.3121 38.7805 31.0084 37.2748 32.4474C32.3961 37.1125 31.8614 48.1043 31.8026 50.2373C31.8004 50.3096 31.7687 50.5007 31.7687 50.5448C31.7687 50.6906 31.8874 50.8093 32.0332 50.8093C32.1655 50.8093 32.2729 50.7132 32.2944 50.5866H32.3204C32.3204 50.5775 32.3215 50.5018 32.3249 50.3684C32.3724 48.6536 32.8697 37.386 37.6377 32.8261C39.0371 31.4877 40.7044 30.8491 42.5706 30.9101C51.9573 31.2458 52.284 48.3993 52.2874 50.5436C52.2874 50.5945 52.2851 50.7267 52.2862 50.7381C52.2862 50.7516 52.2862 50.7618 52.2862 50.764C52.3167 50.8827 52.4219 50.9709 52.5485 50.9709C52.6717 50.9709 52.7734 50.8873 52.8028 50.7742C52.8028 50.7731 52.8118 50.6951 52.8107 50.6894Z" fill="#2C2C2C"/>
<path d="M28.057 67.1476L28.048 67.1657C28.048 67.1657 28.9704 70.021 29.1162 70.0527C29.3321 69.9781 29.5344 69.8594 29.5344 69.8594C29.8396 69.6842 29.8295 69.3315 29.7628 69.0353L28.9636 66.9204C28.9636 66.9193 28.4221 66.6717 28.057 67.1476Z" fill="#8F8F8F"/>
<path d="M28.984 70.1069L27.9079 67.2459L28.0481 67.1645L29.1151 70.0526L28.984 70.1069Z" fill="#8F8F8F"/>
<path d="M28.9128 67.8325L28.9818 68.0168L29.3503 67.9467L29.2813 67.7568L28.9128 67.8325Z" fill="white"/>
<path d="M29.0664 68.2418L29.1354 68.426L29.505 68.356L29.4349 68.1638L29.0664 68.2418Z" fill="white"/>
<path d="M30.1686 67.2664L29.1909 67.5173L29.1592 67.4924C28.9897 67.3534 28.9128 67.1307 28.9637 66.9182L29.8499 66.4197L30.1686 67.2664Z" fill="#F8D8C6"/>
<path d="M40.4956 53.8647C40.4956 53.8647 40.0909 60.4639 38.3818 63.378C36.6727 66.2932 30.1662 67.2687 30.1662 67.2687L29.8486 66.4221L34.6029 62.9677C35.6022 62.199 36.1719 61.1963 36.1301 59.936C36.0849 58.5569 35.67 56.7992 35.8204 55.6914C36.0476 54.0241 36.9259 53.078 36.9259 53.078L40.4956 53.8647Z" fill="#545454"/>
<path d="M34.7859 50.0226L31.2772 55.5241C31.2772 55.5241 31.0964 55.9503 30.4939 56.0509C30.2656 56.0893 29.9197 56.3516 29.6506 56.5844C29.4551 56.7551 29.1454 56.6466 29.099 56.39C29.038 56.052 29.0267 55.6485 29.255 55.4473C29.6902 55.0618 30.6951 54.9443 30.6951 54.9443L33.1401 49.4834L34.7859 50.0226Z" fill="#F8D8C6"/>
<path d="M47.3786 39.2805C47.3786 39.2805 48.4671 38.5016 48.4671 37.9331C48.4671 37.3633 46.5251 32.037 46.5251 32.037L46.3816 31.0547C46.3669 30.953 46.3262 30.8546 46.2651 30.771C46.2651 30.771 45.3507 30.0634 44.9935 30.1787C44.9935 30.1787 43.8461 30.4963 43.8461 30.6308C44.7165 30.6647 44.9177 30.4635 45.2184 30.6659C45.7531 30.9021 45.4716 31.2514 45.4716 31.2514C45.4716 31.2514 45.1562 31.3249 44.7843 31.2017C44.4124 31.0762 44.2474 31.369 44.2474 31.369L45.7553 32.1387L46.7263 37.4312L45.4739 38.5028L47.3786 39.2805Z" fill="#F8D8C6"/>
<path d="M42.8062 52.8734C42.8458 52.9299 44.7267 56.1673 44.3639 60.5622C43.9615 65.4364 42.605 72.3713 42.605 72.3713H41.7007C41.7007 72.3713 40.585 67.6384 41.2825 63.7635C41.4656 62.7427 41.452 61.6904 40.8427 60.8539C39.9916 59.6873 38.7233 57.9918 38.4339 56.6444C37.9818 54.5339 38.7357 53.6262 38.7357 53.6262L42.8062 52.8734Z" fill="#626260"/>
<path d="M40.4961 41.417L45.4708 38.5018L47.7813 38.9517C47.7813 38.9517 45.2945 41.7267 43.7764 42.5892C43.0971 42.4999 43.5933 42.787 43.3412 45.4864C43.0903 48.1857 43.0055 53.2758 43.0055 53.2758C43.0055 53.2758 41.7327 54.1134 39.7896 54.4819C37.8453 54.8504 36.6471 54.9691 36.3962 53.9145C36.9489 51.0998 36.724 47.4318 36.724 47.4318L34.4146 50.6013L32.9949 49.8055C32.9949 49.8055 34.8962 44.0994 36.5126 42.9114C38.0646 42.0591 40.4961 41.4181 40.4961 41.417Z" fill="#D1D1D1"/>
<path d="M40.9613 39.9102L41.1026 39.2771C41.2575 38.5786 41.0427 37.8483 40.5329 37.3453L39.3325 36.1596L40.9613 39.9102Z" fill="#F8D8C6"/>
<path d="M41.0079 39.0658C41.2091 39.8853 41.6906 40.6122 42.3813 41.0971C43.4405 41.8431 45.0501 42.8842 45.0501 44.2339C45.0501 45.6661 44.1063 46.0176 43.3116 46.1126C42.7702 46.1781 42.2558 46.3748 41.798 46.671C40.8598 47.2757 38.8805 47.6555 37.8801 46.394C36.7238 44.9381 36.2049 41.3085 36.2049 41.3085C36.2049 41.3085 34.966 35.7131 37.8801 35.7131C39.8413 35.712 40.6688 37.6845 41.0079 39.0658Z" fill="#2C2C2C"/>
<path d="M41.7467 74.3041L41.7602 74.3188C41.7602 74.3188 44.758 74.4601 44.8382 74.3346C44.845 74.1051 44.8055 73.8745 44.8055 73.8745C44.7501 73.5286 44.4144 73.4145 44.1137 73.3715L41.8529 73.376C41.854 73.376 41.4313 73.7943 41.7467 74.3041Z" fill="#8F8F8F"/>
<path d="M44.8439 74.4793H41.7885L41.7614 74.3188L44.8394 74.3369L44.8439 74.4793Z" fill="#8F8F8F"/>
<path d="M42.6917 73.7445H42.8895L42.9528 73.3749L42.7493 73.3738L42.6917 73.7445Z" fill="white"/>
<path d="M43.1281 73.7445H43.3271L43.3892 73.3749L43.1858 73.3738L43.1281 73.7445Z" fill="white"/>
<path d="M42.6021 72.3712L42.4936 73.3749L42.4597 73.3953C42.2709 73.5072 42.0358 73.4981 41.8538 73.3761L41.699 72.3712H42.6021Z" fill="#F8D8C6"/>
<path d="M45.9542 31.6188C45.7971 31.6459 45.4546 31.794 45.2895 31.8607C45.2748 31.8674 45.2613 31.8742 45.2477 31.8799L44.2451 31.3678C44.2451 31.3678 44.409 31.0773 44.782 31.2005C44.9662 31.2627 45.8592 31.5249 45.9542 31.6188Z" fill="#F8D8C6"/>
<path d="M47.1083 74.346L55.9897 101.954H54.9113L46.0311 74.346H47.1083Z" fill="#7F7F7F"/>
<path d="M37.3239 74.346L46.2052 101.954H45.1269L36.2455 74.346H37.3239Z" fill="#7F7F7F"/>
<path d="M38.6295 80.0759L38.8036 80.9542L48.9431 80.9588V80.0816L38.6295 80.0759Z" fill="#7F7F7F"/>
<path d="M36.5336 74.3766L36.7077 75.2538L46.8449 75.2594V74.3822L36.5336 74.3766Z" fill="#7F7F7F"/>
<path d="M40.4764 85.8509L40.6494 86.727L50.7889 86.7326V85.8566L40.4764 85.8509Z" fill="#7F7F7F"/>
<path d="M42.2103 91.6238L42.3833 92.4999L52.5216 92.5055V91.6295L42.2103 91.6238Z" fill="#7F7F7F"/>
<path d="M44.4126 97.6216L44.5867 98.4988L54.7239 98.5044L54.3158 97.6273L44.4126 97.6216Z" fill="#7F7F7F"/>
<path d="M30.5712 74.346L21.6898 101.954H20.6137L29.494 74.346H30.5712Z" fill="#7F7F7F"/>
<path d="M40.3566 74.346L31.4763 101.954H30.3979L39.2793 74.346H40.3566Z" fill="#7F7F7F"/>
<path d="M37.9741 80.0758L37.8 80.9541L27.6605 80.9586V80.0814L37.9741 80.0758Z" fill="#7F7F7F"/>
<path d="M40.0694 74.3765L39.8953 75.2537L29.7559 75.2594V74.3822L40.0694 74.3765Z" fill="#7F7F7F"/>
<path d="M36.1259 85.8509L35.9518 86.727L25.8146 86.7326V85.8566L36.1259 85.8509Z" fill="#7F7F7F"/>
<path d="M34.393 91.6238L34.2201 92.4999L24.0817 92.5055V91.6295L34.393 91.6238Z" fill="#7F7F7F"/>
<path d="M32.191 97.6216L32.0169 98.4987L21.8774 98.5044L22.2878 97.6272L32.191 97.6216Z" fill="#7F7F7F"/>
<path d="M76.8912 26.6681L76.8686 26.6806C76.8686 26.6806 72.3064 25.8102 72.2182 25.6406C72.2668 25.3784 72.3855 25.1308 72.3855 25.1308C72.5596 24.7578 73.0954 24.7442 73.5588 24.7996L76.9714 25.5818C76.9714 25.5807 77.5027 26.2002 76.8912 26.6681Z" fill="#535353"/>
<path d="M72.1738 25.7999L76.7869 26.8512L76.8683 26.6794L72.2179 25.6394L72.1738 25.7999Z" fill="white"/>
<path d="M75.6113 25.7096L75.3129 25.6418V25.2021L75.6215 25.2699L75.6113 25.7096Z" fill="white"/>
<path d="M74.9533 25.5592L74.6549 25.4914V25.0517L74.9612 25.1195L74.9533 25.5592Z" fill="white"/>
<path d="M76.0984 24.1869L76.0034 25.3591L76.0498 25.3942C76.3064 25.5841 76.6647 25.6575 76.9699 25.5807L77.4639 24.4978L76.0984 24.1869Z" fill="#F8D8C6"/>
<path d="M65.1008 23.2568L65.0816 23.2387C65.0816 23.2387 64.3864 18.6471 64.5164 18.5069C64.7798 18.4662 65.0522 18.4956 65.0522 18.4956C65.4625 18.5352 65.6524 19.0359 65.7541 19.4926L66.1509 22.9708C66.1509 22.9708 65.7428 23.6773 65.1008 23.2568Z" fill="#535353"/>
<path d="M64.3501 18.5193L64.8915 23.2194L65.0792 23.2386L64.5151 18.5068L64.3501 18.5193Z" fill="white"/>
<path d="M65.5765 21.7318L65.5415 21.4277L65.9575 21.2819L65.9948 21.5939L65.5765 21.7318Z" fill="white"/>
<path d="M65.4999 21.0604L65.466 20.7563L65.8797 20.6093L65.9182 20.9225L65.4999 21.0604Z" fill="white"/>
<path d="M67.1749 21.6842L66.0377 21.9849L66.0208 22.0403C65.9258 22.3455 65.9767 22.7072 66.1507 22.9706L67.3365 23.0757L67.1749 21.6842Z" fill="#F8D8C6"/>
<path d="M83.6823 18.5283L66.8906 21.6199L67.1302 23.1934C67.1302 23.1934 72.027 24.1791 75.4453 23.2589C76.327 23.0216 77.2471 22.9605 78.1503 23.0849C83.6292 23.8366 87.4759 22.835 87.4759 22.835L83.6823 18.5283Z" fill="#6A6A6A"/>
<path d="M89.43 6.63218L89.8618 7.96715L91.2601 7.66082L90.7028 6.01047L89.43 6.63218Z" fill="#EEC2B4"/>
<path d="M87.8416 3.95664C87.8416 3.95664 87.4528 6.75659 88.8737 6.79163C89.7814 6.8131 90.4064 6.34852 90.7376 6.01845C90.7286 5.96306 90.7331 5.90541 90.7478 5.85228C90.6721 5.65447 90.7614 5.40126 90.9796 5.37413L90.7297 3.17894L87.8416 3.95664Z" fill="#F8D8C6"/>
<path d="M91.0171 5.69739L90.7119 6.05007C90.7119 6.05007 90.4067 4.23468 90.0959 3.93061C89.9817 3.81871 89.8031 3.81644 89.6675 3.89783C88.6739 4.49128 87.817 4.29233 87.817 4.29233C87.817 4.29233 86.2944 4.19286 86.9093 3.26821C87.3129 2.65894 87.687 3.07153 87.8204 2.87823C87.9538 2.68381 87.8329 2.29722 88.2963 1.97054C88.7598 1.64273 89.0503 2.06775 89.4086 2.07453C89.7647 2.08019 90.2134 1.55569 90.825 1.88915C91.2251 2.10731 91.2534 2.61146 91.5563 2.74259C91.8299 2.86014 92.6098 3.23656 91.9418 4.04026C91.8389 4.1646 91.6773 4.53989 91.6931 4.70153C91.7666 5.43741 91.0149 5.69513 91.0171 5.69739Z" fill="#2C2C2C"/>
<path d="M90.6407 4.61002C90.4587 4.56706 90.2767 4.68236 90.236 4.86435C90.1931 5.04634 90.3084 5.22833 90.4904 5.26902C90.6724 5.31198 90.8544 5.19668 90.8951 5.01469C90.9369 4.83157 90.8238 4.65071 90.6407 4.61002Z" fill="#F8D8C6"/>
<path d="M88.2488 17.3493C88.2488 17.3493 80.3509 13.5704 78.1749 14.0271C75.9978 14.4838 75.9888 24.4073 75.9888 24.4073L77.5227 24.7566L79.97 18.2174C79.97 18.2174 84.5446 22.9706 88.571 22.9322C92.5985 22.8938 93.3129 18.5034 93.3129 18.5034L88.2488 17.3493Z" fill="#AFAFAF"/>
<path d="M91.1867 7.49696C88.9836 7.06967 87.8882 9.45025 87.3445 11.9371C87.3445 11.9371 87.6961 12.9849 87.5502 14.1176C87.357 15.6142 86.8065 17.0193 86.8065 17.0193L93.3118 18.5023C93.3129 18.5023 94.9158 8.70533 91.1867 7.49696Z" fill="#D1D1D1"/>
<path d="M75.1581 7.95477L77.1249 14.2849L83.3398 14.0068L83.3183 13.54L77.4641 13.8033L75.6035 7.81686L75.1581 7.95477Z" fill="#CACACA"/>
<path d="M87.9155 17.2714C86.6336 17.8456 81.9968 13.8599 81.9968 13.8599L81.3932 13.3637C81.3932 13.3637 79.4297 14.112 79.2997 12.7578C78.7311 13.8531 78.4485 13.6089 78.4485 13.6089L79.0058 12.2988C79.0352 12.17 79.1449 12.0773 79.276 12.0671L80.5499 11.9778C80.8653 11.9563 81.1773 12.0502 81.4271 12.2446L82.3936 12.994L86.8665 14.771L87.3548 11.884L89.9241 12.4695C89.9264 12.4695 89.1996 16.6983 87.9155 17.2714Z" fill="#F8D8C6"/>
<path d="M78.4507 13.6123C78.4507 13.6123 78.7333 13.8565 79.3019 12.7611C79.4319 14.1153 81.3954 13.367 81.3954 13.367L81.999 13.8632C81.999 13.8632 82.1098 13.9582 82.2997 14.1153L82.5404 13.0539L82.3935 12.9962L81.427 12.2457C81.1772 12.0524 80.8652 11.9586 80.5499 11.98L79.2759 12.0693C79.1448 12.0784 79.0352 12.1722 79.0058 12.3011L78.4507 13.6123Z" fill="#F8D8C6"/>
</svg>
