<svg width="161" height="105" viewBox="0 0 161 105" fill="none" xmlns="http://www.w3.org/2000/svg">
<path d="M146.256 85.6514C146.258 85.56 146.264 85.4645 146.27 85.373C144.898 85.8006 143.46 86.089 141.969 86.2142C130.919 87.135 121.181 78.8937 120.262 67.8443C119.659 60.6093 122.986 53.9371 128.455 49.9338C128.455 49.9318 128.455 49.9318 128.453 49.9318C128.426 49.8443 128.402 49.7548 128.382 49.6654C122.793 53.7144 119.389 60.502 120.001 67.8662C120.932 79.0588 130.798 87.4075 141.991 86.4767C143.468 86.3495 144.894 86.0671 146.256 85.6514Z" fill="white"/>
<path d="M141.646 91.0526C142.059 90.6761 142.339 88.5586 142.183 86.1776C144.12 85.4868 145.915 84.5231 147.532 83.3316C149.072 84.7396 150.839 86.0665 151.842 85.8124C153.873 85.3005 157.013 80.544 157.052 79.6556C157.079 79.0872 155.729 77.3405 153.887 75.7424C154.766 73.9618 155.398 72.0438 155.739 70.0336C157.826 69.9433 160.025 69.6289 160.557 68.7405C161.632 66.9411 160.488 61.3584 159.889 60.7033C159.513 60.293 157.408 60.0126 155.037 60.165C154.4 58.1736 153.478 56.3215 152.321 54.65C153.67 53.1537 154.894 51.4728 154.651 50.5072C154.139 48.4763 149.382 45.3367 148.494 45.2972C147.967 45.2727 146.416 46.4378 144.918 48.0848C143.035 47.0872 140.991 46.3701 138.84 45.988C138.714 44.1038 138.381 42.2743 137.581 41.7962C135.781 40.7215 130.199 41.8659 129.543 42.4644C129.175 42.8032 128.911 44.5368 128.971 46.6091C126.795 47.2829 124.78 48.2994 122.988 49.5906C121.631 48.4292 120.208 47.4881 119.349 47.7027C117.318 48.2147 114.179 52.9711 114.139 53.8595C114.119 54.3489 115.11 55.7097 116.562 57.0951C115.549 59.0884 114.853 61.2586 114.527 63.5361C112.752 63.6754 111.088 64.0161 110.635 64.7727C109.56 66.5722 110.704 72.1549 111.303 72.8099C111.642 73.1807 113.384 73.4442 115.461 73.3802C116.197 75.4978 117.262 77.4459 118.589 79.1794C117.358 80.5911 116.317 82.1063 116.541 83.0023C117.053 85.0332 121.809 88.1728 122.698 88.2123C123.229 88.2368 124.789 87.0604 126.295 85.4021C128.179 86.2886 130.208 86.9022 132.331 87.1921C132.438 89.1892 132.764 91.2126 133.609 91.7189C135.409 92.7974 140.991 91.653 141.646 91.0526ZM125.871 67.3044C125.444 62.1715 129.259 57.6616 134.394 57.2344C139.527 56.8071 144.037 60.6224 144.464 65.7572C144.891 70.8919 141.076 75.3999 135.941 75.8271C130.808 76.2544 126.3 72.4391 125.871 67.3044Z" fill="#D7D7D7"/>
<path d="M122.15 67.6883C121.542 60.3946 126.984 53.9649 134.277 53.3588C141.571 52.7509 148.001 58.1924 148.609 65.4861C149.217 72.7798 143.775 79.2095 136.481 79.8156C129.186 80.4255 122.758 74.9839 122.15 67.6883ZM148.42 65.503C147.822 58.3129 141.484 52.9485 134.294 53.5489C127.104 54.1475 121.74 60.485 122.34 67.6752C122.941 74.8653 129.276 80.2297 136.466 79.6293C143.657 79.0307 149.019 72.6932 148.42 65.503Z" fill="white"/>
<path d="M149.16 53.7634C151.914 56.7656 153.736 60.6637 154.099 65.0286C154.107 65.1133 154.109 65.198 154.114 65.2846C154.193 65.247 154.274 65.215 154.355 65.1811C154.351 65.1227 154.35 65.0663 154.346 65.0079C153.979 60.6035 152.149 56.6696 149.377 53.6335C149.305 53.6787 149.234 53.722 149.16 53.7634Z" fill="white"/>
<path d="M128.815 35.8729C128.815 35.8729 142.834 17.4608 158.923 19.9755C165.731 38.3367 146.407 49.0429 146.407 49.0429L126.295 51.2997L128.815 35.8729Z" fill="#E0E0E0"/>
<path d="M141.426 24.4532L143.314 34.5401L158.539 19.9226C158.666 19.9396 158.794 19.9546 158.92 19.9753C158.946 20.0487 158.969 20.1184 158.995 20.1899L150.839 28.02L160.339 28.8181C160.333 28.9084 160.326 28.9969 160.32 29.0873L160.299 29.3263L150.35 28.4906L136.76 41.5383L153.392 43.4713C153.241 43.6276 153.092 43.7819 152.94 43.9325L136.286 41.9957L126.634 51.2601L126.295 51.2977L126.376 50.8008L142.874 34.9617L140.961 24.7487C141.116 24.6508 141.27 24.5511 141.426 24.4532Z" fill="white"/>
<path d="M131.418 46.6354C131.418 46.6354 149.857 40.8795 157.943 51.0248C149.028 75.972 116.667 66.3933 116.667 66.3933L131.418 46.6354Z" fill="#E8E8E9"/>
<path d="M157.943 51.0248C157.907 51.1208 157.873 51.2149 157.837 51.3109L132.341 57.1609L143.491 66.0169C143.305 66.0884 143.118 66.1562 142.93 66.222L131.702 57.3059L121.744 59.5909L122.214 58.9603L141.603 54.5126L147.4 45.3706C147.583 45.4007 147.762 45.4308 147.944 45.4647L142.311 54.3507L157.758 50.8065C157.82 50.878 157.883 50.9495 157.943 51.0248Z" fill="white"/>
<path d="M32.528 46.376C32.528 46.376 33.9635 28.2245 22.0296 22.2611C5.06291 37.7225 20.3131 54.3671 20.3131 54.3671L32.528 46.376Z" fill="#B3B4B5"/>
<path d="M22.0296 22.261C21.9707 22.3142 21.9137 22.3689 21.8548 22.4221L25.5594 43.5537L14.1056 36.6375C14.0913 36.7864 14.0786 36.9334 14.0678 37.082L25.6506 44.0776L26.7201 50.1761L27.0842 49.9387L24.9533 37.7821L30.5628 32.4254C30.5122 32.2907 30.4613 32.1543 30.4089 32.0198L24.8712 37.3094L22.2529 22.3805C22.1784 22.34 22.1057 22.2994 22.0296 22.261Z" fill="white"/>
<path d="M27.0052 43.5938C27.0052 43.5938 16.8094 28.5674 4.0983 29.8493C-2.02145 43.9427 12.6594 53.1581 12.6594 53.1581L28.3187 55.7874L27.0052 43.5938Z" fill="#F3F3F3"/>
<path d="M17.615 34.1087L15.7037 41.9306L4.39944 29.8253C4.29959 29.8326 4.19973 29.8399 4.09829 29.8492C4.07371 29.904 4.05288 29.9602 4.03008 30.0148L10.0841 36.4972L2.60762 36.7158C2.60826 36.7876 2.61049 36.8574 2.61094 36.9275L2.61707 37.1155L10.4481 36.8852L20.5374 47.6887L7.42708 48.4912C7.53811 48.6192 7.64913 48.7473 7.75977 48.8719L20.8914 48.0671L28.0564 55.7386L28.3219 55.7834L28.2791 55.3908L16.0307 42.276L17.9655 34.3562C17.8489 34.2755 17.7319 34.1912 17.615 34.1087Z" fill="white"/>
<path d="M24.5049 51.9149C24.5049 51.9149 10.3052 46.6173 3.53684 54.2195C9.45354 74.1447 35.2161 68.0264 35.2161 68.0264L24.5049 51.9149Z" fill="#DDDDDD"/>
<path d="M3.53685 54.2195C3.55958 54.2961 3.5839 54.3707 3.60663 54.4473L23.3329 60.1218L14.2167 66.5816C14.3602 66.645 14.5035 66.7067 14.6467 66.7665L23.8245 60.2623L31.5288 62.4794L31.1869 61.9649L16.1867 57.6497L12.0355 50.239C11.8917 50.2547 11.7498 50.272 11.6061 50.2895L15.6395 57.4937L3.68793 54.0556C3.63809 54.1096 3.58649 54.1637 3.53685 54.2195Z" fill="white"/>
<path d="M77.2794 25.3969L80.4912 25.1264C80.9207 25.1363 81.408 25.2179 81.5193 25.5798C81.5193 25.5798 81.5949 25.8205 81.6068 26.0651C81.5034 26.2083 77.2316 26.4091 77.2316 26.4091L77.2117 26.3952C76.7166 25.8921 77.2794 25.3969 77.2794 25.3969Z" fill="#E4BB8C"/>
<path d="M81.6068 26.0671L77.2316 26.4111L77.2833 26.5782L81.6247 26.2202L81.6068 26.0671Z" fill="white"/>
<path d="M78.5521 25.2876L78.8405 25.2657L78.7828 25.6674L78.5024 25.6913L78.5521 25.2876Z" fill="white"/>
<path d="M79.1706 25.2377L79.461 25.2159L79.4033 25.6156L79.1229 25.6395L79.1706 25.2377Z" fill="white"/>
<path d="M76.9711 24.3449L77.2793 25.3969C77.5478 25.5063 77.8839 25.4864 78.1425 25.3452L78.1902 25.3193L78.2558 24.2375L76.9711 24.3449Z" fill="#FAD9C6"/>
<path d="M115.521 17.9552C115.521 17.9552 115.01 22.0181 111.305 22.1892C107.602 22.3582 103.233 18.1381 103.233 18.1381L101.801 24.5379L100.377 24.5677C100.377 24.5677 99.4545 14.8348 101.441 14.3416C103.428 13.8484 110.824 17.0622 110.824 17.0622L115.521 17.9552Z" fill="#484848"/>
<path d="M134.511 101.249H32.1391C29.2157 101.249 26.8451 98.8785 26.8451 95.9551V27.1927C26.8451 24.2693 29.2157 21.8987 32.1391 21.8987H134.509C137.432 21.8987 138.809 24.2693 138.809 27.1927V95.9531C138.811 98.8785 137.434 101.249 134.511 101.249Z" fill="#EEEEEE"/>
<path fillRule="evenodd" clipRule="evenodd" d="M32.1391 22.4954C29.5452 22.4954 27.4418 24.5989 27.4418 27.1928V95.9551C27.4418 98.5491 29.5452 100.653 32.1391 100.653H134.511C135.789 100.653 136.684 100.145 137.277 99.3432C137.888 98.5186 138.213 97.333 138.212 95.9535V27.1928C138.212 25.8143 137.886 24.629 137.276 23.8046C136.682 23.0029 135.787 22.4954 134.509 22.4954H32.1391ZM26.2485 27.1928C26.2485 23.9399 28.8862 21.3022 32.1391 21.3022H134.509C136.154 21.3022 137.409 21.98 138.235 23.0944C139.043 24.1861 139.405 25.6479 139.405 27.1928V95.9527" fill="#EEEEEE"/>
<path d="M34.5017 101.249H32.1391C29.2157 101.249 26.8451 98.8785 26.8451 95.9551V27.1927C26.8451 24.2693 29.2157 21.8987 32.1391 21.8987H34.5017V101.249Z" fill="white"/>
<path d="M30.574 31.1305C31.7185 31.1305 32.6463 30.2027 32.6463 29.0582C32.6463 27.9137 31.7185 26.9859 30.574 26.9859C29.4295 26.9859 28.5017 27.9137 28.5017 29.0582C28.5017 30.2027 29.4295 31.1305 30.574 31.1305Z" fill="#C7C7C7"/>
<path d="M30.574 98.1506C31.7185 98.1506 32.6463 97.2228 32.6463 96.0783C32.6463 94.9338 31.7185 94.0061 30.574 94.0061C29.4295 94.0061 28.5017 94.9338 28.5017 96.0783C28.5017 97.2228 29.4295 98.1506 30.574 98.1506Z" fill="#C7C7C7"/>
<path d="M29.5041 29.444H29.9853C29.9973 29.5414 30.039 29.6289 30.1086 29.6985C30.1922 29.7821 30.3055 29.8298 30.4189 29.8298C30.5322 29.8298 30.6416 29.7841 30.7251 29.6985C30.8087 29.615 30.8524 29.5096 30.8524 29.3923V28.5371H31.3317V29.3923C31.3317 29.8974 30.922 30.3091 30.4189 30.3091C29.9376 30.3091 29.5299 29.9233 29.5041 29.444ZM30.4169 27.8769C30.2379 27.8769 30.0927 28.022 30.0927 28.201C30.0927 28.38 30.2379 28.5252 30.4169 28.5252C30.5959 28.5252 30.7411 28.38 30.7411 28.201C30.743 28.022 30.5959 27.8769 30.4169 27.8769Z" fill="white"/>
<path d="M31.3317 30.154C31.3317 30.0685 31.4013 29.9989 31.4868 29.9969C31.5723 29.9969 31.6439 30.0665 31.6439 30.154C31.6439 30.2395 31.5743 30.3111 31.4868 30.3111C31.4033 30.3091 31.3337 30.2395 31.3317 30.154ZM31.6081 30.154C31.6081 30.0883 31.5545 30.0347 31.4888 30.0347C31.4232 30.0347 31.3695 30.0883 31.3695 30.154C31.3695 30.2196 31.4232 30.2733 31.4888 30.2733C31.5545 30.2733 31.6081 30.2196 31.6081 30.154Z" fill="white"/>
<path d="M31.5624 30.2296H31.5604C31.5485 30.2296 31.5365 30.2296 31.5246 30.2296C31.5226 30.2296 31.5226 30.2296 31.5206 30.2276C31.5107 30.2157 31.5027 30.2018 31.4928 30.1898C31.4908 30.1878 31.4908 30.1878 31.4888 30.1878C31.4809 30.1878 31.4729 30.1878 31.465 30.1878C31.463 30.1878 31.463 30.1878 31.463 30.1898C31.463 30.2018 31.463 30.2157 31.463 30.2276C31.463 30.2296 31.463 30.2296 31.461 30.2296C31.451 30.2296 31.4431 30.2296 31.4331 30.2296C31.4311 30.2296 31.4311 30.2296 31.4311 30.2276C31.4311 30.1779 31.4311 30.1302 31.4311 30.0804C31.4311 30.0784 31.4311 30.0784 31.4331 30.0784C31.453 30.0784 31.4729 30.0784 31.4928 30.0784C31.5047 30.0784 31.5167 30.0824 31.5266 30.0884C31.5365 30.0944 31.5425 30.1043 31.5465 30.1162C31.5485 30.1262 31.5485 30.1361 31.5465 30.1441C31.5445 30.156 31.5365 30.1679 31.5266 30.1739C31.5246 30.1739 31.5246 30.1759 31.5266 30.1779C31.5385 30.1958 31.5485 30.2117 31.5624 30.2296C31.5604 30.2276 31.5624 30.2276 31.5624 30.2296ZM31.465 30.1321C31.465 30.1381 31.465 30.1461 31.465 30.152C31.465 30.154 31.465 30.154 31.4669 30.154C31.4749 30.154 31.4809 30.154 31.4888 30.154C31.4948 30.154 31.5007 30.154 31.5047 30.152C31.5107 30.15 31.5147 30.1461 31.5167 30.1401C31.5186 30.1361 31.5186 30.1321 31.5167 30.1282C31.5167 30.1242 31.5147 30.1202 31.5107 30.1162C31.5067 30.1123 31.5008 30.1103 31.4948 30.1103C31.4848 30.1103 31.4749 30.1103 31.4669 30.1103C31.465 30.1103 31.465 30.1103 31.465 30.1123C31.465 30.1182 31.465 30.1262 31.465 30.1321Z" fill="white"/>
<path opacity="0.25" d="M31.4988 38.0989H29.5896C29.2793 38.0989 29.0248 37.8463 29.0248 37.5341V36.9534C29.0248 36.6432 29.2773 36.3886 29.5896 36.3886H31.4988C31.809 36.3886 32.0636 36.6412 32.0636 36.9534V37.5341C32.0616 37.8463 31.809 38.0989 31.4988 38.0989ZM29.5896 36.5557C29.3708 36.5557 29.1918 36.7346 29.1918 36.9534V37.5341C29.1918 37.7529 29.3708 37.9319 29.5896 37.9319H31.4988C31.7175 37.9319 31.8965 37.7529 31.8965 37.5341V36.9534C31.8965 36.7346 31.7175 36.5557 31.4988 36.5557H29.5896Z" fill="#859098"/>
<path opacity="0.25" d="M31.3516 36.4742H31.1865V36.3032C31.1865 36.2455 31.1388 36.1978 31.0811 36.1978H30.037C29.9794 36.1978 29.9316 36.2455 29.9316 36.3032V36.4742H29.7666V36.3032C29.7666 36.154 29.8879 36.0327 30.037 36.0327H31.0811C31.2303 36.0327 31.3516 36.154 31.3516 36.3032V36.4742Z" fill="#859098"/>
<path opacity="0.25" d="M29.1083 37.6773H28.987C28.7822 37.6773 28.6131 37.5102 28.6131 37.3034C28.6131 37.0986 28.7802 36.9295 28.987 36.9295H29.1083V37.0946H28.987C28.8716 37.0946 28.7802 37.1881 28.7802 37.3014C28.7802 37.4168 28.8736 37.5082 28.987 37.5082H29.1083V37.6773Z" fill="#859098"/>
<path opacity="0.25" d="M32.161 37.6773H32.0397V37.5123H32.161C32.2764 37.5123 32.3678 37.4188 32.3678 37.3054C32.3678 37.1901 32.2744 37.0986 32.161 37.0986H32.0397V36.9335H32.161C32.3659 36.9335 32.5349 37.1006 32.5349 37.3074C32.5329 37.5103 32.3659 37.6773 32.161 37.6773Z" fill="#859098"/>
<path opacity="0.25" d="M29.8919 37.6058C29.693 37.6058 29.5319 37.4447 29.5319 37.2458C29.5319 37.0469 29.693 36.8858 29.8919 36.8858C30.0907 36.8858 30.2518 37.0469 30.2518 37.2458C30.2518 37.4447 30.0888 37.6058 29.8919 37.6058ZM29.8919 37.0509C29.7845 37.0509 29.697 37.1384 29.697 37.2458C29.697 37.3532 29.7845 37.4407 29.8919 37.4407C29.9993 37.4407 30.0868 37.3532 30.0868 37.2458C30.0868 37.1384 29.9993 37.0509 29.8919 37.0509Z" fill="#859098"/>
<path opacity="0.25" d="M31.1865 37.6058C30.9877 37.6058 30.8266 37.4447 30.8266 37.2458C30.8266 37.0469 30.9877 36.8858 31.1865 36.8858C31.3854 36.8858 31.5465 37.0469 31.5465 37.2458C31.5485 37.4447 31.3854 37.6058 31.1865 37.6058ZM31.1865 37.0509C31.0791 37.0509 30.9916 37.1384 30.9916 37.2458C30.9916 37.3532 31.0791 37.4407 31.1865 37.4407C31.2939 37.4407 31.3814 37.3532 31.3814 37.2458C31.3814 37.1384 31.2939 37.0509 31.1865 37.0509Z" fill="#859098"/>
<path opacity="0.25" d="M31.7991 55.039H29.349C29.164 55.039 29.0129 54.8878 29.0129 54.7029V52.5908C29.0129 52.4059 29.164 52.2547 29.349 52.2547H31.7991C31.984 52.2547 32.1352 52.4059 32.1352 52.5908V54.7029C32.1352 54.8878 31.984 55.039 31.7991 55.039ZM29.349 52.4059C29.2475 52.4059 29.166 52.4874 29.166 52.5888V54.7009C29.166 54.8023 29.2475 54.8838 29.349 54.8838H31.7991C31.9005 54.8838 31.982 54.8023 31.982 54.7009V52.5888C31.982 52.4874 31.9005 52.4059 31.7991 52.4059H29.349Z" fill="#859098"/>
<path opacity="0.25" d="M32.0596 52.6843H29.1401V52.8374H32.0596V52.6843Z" fill="#859098"/>
<path opacity="0.25" d="M31.4689 54.6591H29.6453V53.1397H31.4689V54.6591ZM29.7984 54.506H31.3158V53.2908H29.7984V54.506Z" fill="#859098"/>
<path opacity="0.25" d="M30.3135 53.2153H30.1604V54.5816H30.3135V53.2153Z" fill="#859098"/>
<path opacity="0.25" d="M31.3934 53.8237H29.7228V53.9769H31.3934V53.8237Z" fill="#859098"/>
<path opacity="0.25" d="M31.2939 46.6982H29.8521C29.4901 46.6982 29.1938 46.4039 29.1938 46.0399V44.6697C29.1938 44.3077 29.4882 44.0114 29.8521 44.0114H31.2939C31.6559 44.0114 31.9522 44.3057 31.9522 44.6697V46.0399C31.9522 46.4039 31.6579 46.6982 31.2939 46.6982ZM29.8541 44.1586C29.5717 44.1586 29.341 44.3893 29.341 44.6717V46.0419C29.341 46.3243 29.5717 46.555 29.8541 46.555H31.2959C31.5783 46.555 31.809 46.3243 31.809 46.0419V44.6717C31.809 44.3893 31.5783 44.1586 31.2959 44.1586H29.8541Z" fill="#859098"/>
<path opacity="0.25" d="M31.1547 46.6266H31.0095V46.2507C31.0095 46.02 31.1965 45.8311 31.4292 45.8311H31.8806V45.9763H31.4292C31.278 45.9763 31.1567 46.0996 31.1567 46.2487V46.6266H31.1547Z" fill="#859098"/>
<path opacity="0.25" d="M30.6635 45.7854L30.2081 45.33L29.7626 45.7775L29.6592 45.674L30.2081 45.1251L30.6496 45.5647L31.1587 44.9104L31.274 44.9999L30.6635 45.7854Z" fill="#859098"/>
<path opacity="0.25" d="M31.1925 45.4334L31.1547 45.0575L30.7828 45.2047L30.7291 45.0695L31.28 44.8507L31.3377 45.4195L31.1925 45.4334Z" fill="#859098"/>
<path opacity="0.25" d="M31.6738 63.4373H29.4742C29.2197 63.4373 29.0129 63.2305 29.0129 62.9759V60.8977C29.0129 60.6432 29.2197 60.4363 29.4742 60.4363H31.6738C31.9283 60.4363 32.1352 60.6432 32.1352 60.8977V62.9759C32.1352 63.2305 31.9283 63.4373 31.6738 63.4373ZM29.4742 60.5994C29.3092 60.5994 29.1759 60.7326 29.1759 60.8977V62.9759C29.1759 63.141 29.3092 63.2742 29.4742 63.2742H31.6738C31.8388 63.2742 31.9721 63.141 31.9721 62.9759V60.8977C31.9721 60.7326 31.8388 60.5994 31.6738 60.5994H29.4742Z" fill="#859098"/>
<path opacity="0.25" d="M30.1027 60.518H29.9396V63.3559H30.1027V60.518Z" fill="#859098"/>
<path opacity="0.25" d="M31.6817 61.4944H30.2379V61.6574H31.6817V61.4944Z" fill="#859098"/>
<path opacity="0.25" d="M31.6817 61.9398H30.2379V62.1029H31.6817V61.9398Z" fill="#859098"/>
<path opacity="0.25" d="M31.6817 62.3853H31.0433V62.5484H31.6817V62.3853Z" fill="#859098"/>
<path opacity="0.25" d="M29.8163 61.2895H29.3828V61.4526H29.8163V61.2895Z" fill="#859098"/>
<path opacity="0.25" d="M29.8163 61.6017H29.3828V61.7648H29.8163V61.6017Z" fill="#859098"/>
<path opacity="0.25" d="M29.689 70.3481H29.5657C29.4305 70.3481 29.3211 70.2189 29.3211 70.0578C29.3211 69.8987 29.4305 69.7674 29.5657 69.7674H29.6373V69.9086H29.5657C29.51 69.9086 29.4623 69.9762 29.4623 70.0578C29.4623 70.1393 29.51 70.2069 29.5657 70.2069H29.689V70.3481Z" fill="#859098"/>
<path opacity="0.25" d="M31.459 70.3481H31.5823C31.7175 70.3481 31.8269 70.2189 31.8269 70.0578C31.8269 69.8987 31.7175 69.7674 31.5823 69.7674H31.5107V69.9086H31.5823C31.638 69.9086 31.6857 69.9762 31.6857 70.0578C31.6857 70.1393 31.638 70.2069 31.5823 70.2069H31.459V70.3481Z" fill="#859098"/>
<path opacity="0.25" d="M30.9618 70.4954V70.3542C31.107 70.3542 31.2223 70.3124 31.3019 70.2309C31.4411 70.0917 31.4451 69.8689 31.4451 69.8669L31.5823 69.8749C31.5823 69.8868 31.5823 70.1493 31.4033 70.3303C31.2939 70.4397 31.1467 70.4954 30.9618 70.4954Z" fill="#859098"/>
<path opacity="0.25" d="M30.7351 70.6803C30.572 70.6803 30.4388 70.5669 30.4388 70.4257C30.4388 70.2845 30.572 70.1712 30.7351 70.1712C30.8982 70.1712 31.0314 70.2845 31.0314 70.4257C31.0314 70.565 30.8982 70.6803 30.7351 70.6803ZM30.7351 70.3104C30.6516 70.3104 30.58 70.3621 30.58 70.4238C30.58 70.4854 30.6516 70.5371 30.7351 70.5371C30.8186 70.5371 30.8902 70.4854 30.8902 70.4238C30.8902 70.3641 30.8206 70.3104 30.7351 70.3104Z" fill="#859098"/>
<path opacity="0.25" d="M29.6433 69.851L29.6234 69.7118C30.0788 69.6462 30.393 69.497 30.5601 69.2703C30.7092 69.0654 30.6794 68.8725 30.6774 68.8646L30.8166 68.8407C30.8186 68.8507 30.8604 69.0973 30.6774 69.3498C30.4865 69.6104 30.1404 69.7794 29.6433 69.851Z" fill="#859098"/>
<path opacity="0.25" d="M31.3297 69.8769C30.7987 69.8769 30.5501 69.3538 30.5481 69.3479L30.6754 69.2882C30.6854 69.3121 30.9439 69.849 31.5047 69.7138L31.5365 69.851C31.4629 69.8689 31.3933 69.8769 31.3297 69.8769Z" fill="#859098"/>
<path opacity="0.25" d="M30.574 70.9149C30.0152 70.9149 29.5617 70.4356 29.5617 69.849C29.5617 69.2603 30.0152 68.783 30.574 68.783C31.1328 68.783 31.5862 69.2623 31.5862 69.849C31.5862 70.4376 31.1328 70.9149 30.574 70.9149ZM30.574 68.9242C30.0927 68.9242 29.7029 69.3399 29.7029 69.849C29.7029 70.3601 30.0927 70.7737 30.574 70.7737C31.0553 70.7737 31.445 70.3581 31.445 69.849C31.445 69.3379 31.0553 68.9242 30.574 68.9242Z" fill="#859098"/>
<path opacity="0.25" d="M29.0825 71.6728C29.0805 71.6628 29.0506 71.4361 29.1978 71.2651C29.2972 71.1517 29.4484 71.094 29.6492 71.094C29.8123 71.094 29.9257 71.0543 29.9893 70.9747C30.0748 70.8693 30.043 70.7202 30.041 70.7182L30.1782 70.6864C30.1802 70.6943 30.226 70.9011 30.0987 71.0602C30.0072 71.1756 29.8561 71.2333 29.6472 71.2333C29.4901 71.2333 29.3728 71.275 29.3012 71.3566C29.1958 71.4759 29.2197 71.6688 29.2197 71.6708L29.0825 71.6728Z" fill="#859098"/>
<path opacity="0.25" d="M30.58 71.5175L30.0092 71.066L30.0947 70.9567L30.578 71.3365L31.0294 70.9567L31.1209 71.0641L30.58 71.5175Z" fill="#859098"/>
<path opacity="0.25" d="M32.0655 71.6727H31.9343C31.9343 71.6707 31.9482 71.4778 31.8428 71.3584C31.7712 71.2769 31.6559 71.2351 31.4968 71.2351C31.288 71.2351 31.1368 71.1775 31.0453 71.0621C30.9181 70.903 30.9638 70.6962 30.9658 70.6882L31.103 70.7201L31.0354 70.7041L31.105 70.7201C31.105 70.722 31.0732 70.8712 31.1567 70.9766C31.2203 71.0542 31.3337 71.0959 31.4968 71.0959C31.6976 71.0959 31.8488 71.1536 31.9482 71.267C32.0954 71.434 32.0655 71.6627 32.0655 71.6727Z" fill="#859098"/>
<path opacity="0.25" d="M30.5402 78.3091C30.2379 78.3091 29.9933 78.0645 29.9933 77.7622C29.9933 77.4599 30.2379 77.2153 30.5402 77.2153C30.8425 77.2153 31.0871 77.4599 31.0871 77.7622C31.0871 78.0625 30.8425 78.3091 30.5402 78.3091ZM30.5402 77.3764C30.3274 77.3764 30.1544 77.5494 30.1544 77.7622C30.1544 77.975 30.3274 78.148 30.5402 78.148C30.753 78.148 30.926 77.975 30.926 77.7622C30.928 77.5494 30.753 77.3764 30.5402 77.3764Z" fill="#859098"/>
<path opacity="0.25" d="M31.2999 79.8206H29.8481V78.864C29.8481 78.5896 30.0709 78.3668 30.3453 78.3668H30.8047C31.0791 78.3668 31.3019 78.5896 31.3019 78.864V79.8206H31.2999ZM30.0092 79.6595H31.1408V78.864C31.1408 78.6791 30.9897 78.5279 30.8047 78.5279H30.3453C30.1604 78.5279 30.0092 78.6791 30.0092 78.864V79.6595Z" fill="#859098"/>
<path opacity="0.25" d="M31.5246 78.5377C31.3098 78.5377 31.1348 78.3627 31.1348 78.148C31.1348 77.9332 31.3098 77.7582 31.5246 77.7582C31.7394 77.7582 31.9144 77.9332 31.9144 78.148C31.9124 78.3627 31.7374 78.5377 31.5246 78.5377ZM31.5246 77.8974C31.3874 77.8974 31.274 78.0087 31.274 78.148C31.274 78.2852 31.3854 78.3985 31.5246 78.3985C31.6619 78.3985 31.7752 78.2872 31.7752 78.148C31.7732 78.0107 31.6619 77.8974 31.5246 77.8974Z" fill="#859098"/>
<path opacity="0.25" d="M32.1352 79.8206H31.2263V79.6595H31.9761V79.1265C31.9761 78.9415 31.8249 78.7904 31.64 78.7904H31.4888C31.4113 78.7904 31.3357 78.8182 31.276 78.868L31.1746 78.7447C31.2621 78.6711 31.3755 78.6313 31.4908 78.6313H31.642C31.7454 78.6313 31.8408 78.6631 31.9184 78.7168C32.0497 78.8063 32.1372 78.9574 32.1372 79.1285V79.8206H32.1352Z" fill="#859098"/>
<path opacity="0.25" d="M29.5578 78.5735C29.333 78.5735 29.1501 78.3906 29.1501 78.1659C29.1501 77.9411 29.333 77.7582 29.5578 77.7582C29.7825 77.7582 29.9655 77.9411 29.9655 78.1659C29.9655 78.3906 29.7825 78.5735 29.5578 78.5735ZM29.5578 77.8974C29.4106 77.8974 29.2893 78.0187 29.2893 78.1659C29.2893 78.313 29.4106 78.4343 29.5578 78.4343C29.7049 78.4343 29.8262 78.313 29.8262 78.1659C29.8262 78.0187 29.7069 77.8974 29.5578 77.8974Z" fill="#859098"/>
<path opacity="0.25" d="M29.9237 79.8206H29.0148V79.1285C29.0148 78.854 29.2376 78.6313 29.512 78.6313H29.6632C29.7785 78.6313 29.8899 78.6711 29.9794 78.7447L29.876 78.868C29.8163 78.8182 29.7407 78.7904 29.6632 78.7904H29.512C29.3271 78.7904 29.1759 78.9415 29.1759 79.1265V79.6595H29.9257V79.8206H29.9237Z" fill="#859098"/>
<path opacity="0.25" d="M29.4683 86.2819C30.1822 86.0572 30.8962 85.8325 31.6081 85.6097C31.6956 85.5819 31.8309 85.5123 31.9184 85.5183C31.8965 85.5103 31.8766 85.5004 31.8547 85.4924C31.8607 85.4984 31.8667 85.5043 31.8726 85.5103C31.8647 85.4884 31.8547 85.4685 31.8468 85.4467C31.8508 85.5183 31.7951 85.6316 31.7712 85.7052C31.7076 85.9081 31.6439 86.1109 31.5803 86.3138C31.4391 86.7632 31.2979 87.2107 31.1567 87.6601C31.1348 87.7257 31.1149 87.7934 31.0931 87.859C31.0871 87.8769 31.0612 87.9246 31.0652 87.9445C31.0712 87.9763 31.1607 87.9763 31.1646 87.9425C31.1646 87.9385 31.1607 87.9326 31.1587 87.9266C31.1567 87.9008 31.1388 87.867 31.1289 87.8431C31.097 87.7516 31.0652 87.6621 31.0334 87.5706C30.9538 87.3399 30.8723 87.1112 30.7928 86.8805C30.7589 86.7831 30.7391 86.626 30.6317 86.5882C30.4229 86.5106 30.2101 86.441 29.9993 86.3654C29.8759 86.3217 29.7526 86.278 29.6274 86.2362C29.5896 86.2223 29.5498 86.2103 29.512 86.1964C29.5021 86.1924 29.4881 86.1845 29.4782 86.1845C29.4762 86.1845 29.4722 86.1805 29.4683 86.1805C29.4663 86.1805 29.4663 86.1805 29.4643 86.1785C29.4345 86.1666 29.4404 86.1984 29.4842 86.27C29.5796 86.2103 29.4921 86.0572 29.3947 86.1169C29.3092 86.1706 29.3012 86.2859 29.3927 86.3396C29.4166 86.3535 29.4464 86.3595 29.4722 86.3694C29.6055 86.4152 29.7387 86.4629 29.872 86.5086C30.1166 86.5942 30.3592 86.6797 30.6038 86.7652C30.5839 86.7453 30.5621 86.7234 30.5422 86.7035C30.6177 86.9183 30.6913 87.1331 30.7669 87.3479C30.8405 87.5607 30.9021 87.7854 30.9916 87.9922C31.0473 88.1175 31.1905 88.0996 31.2362 87.9783C31.2581 87.9187 31.274 87.857 31.2939 87.7973C31.3755 87.5348 31.459 87.2743 31.5405 87.0118C31.6956 86.5166 31.8746 86.0214 32.0099 85.5202C32.0377 85.4168 31.98 85.3194 31.8627 85.3413C31.817 85.3512 31.7712 85.3711 31.7255 85.385C31.4729 85.4646 31.2203 85.5441 30.9678 85.6237C30.4507 85.7867 29.9336 85.9478 29.4166 86.1109C29.3131 86.1447 29.3589 86.3157 29.4683 86.2819Z" fill="#859098"/>
<path opacity="0.25" d="M31.276 85.9657C31.0692 86.1566 30.8644 86.3495 30.6575 86.5404C30.6277 86.5682 30.5999 86.5941 30.57 86.6219C30.4865 86.6995 30.6118 86.8248 30.6953 86.7472C30.9021 86.5563 31.107 86.3654 31.3138 86.1725C31.3436 86.1446 31.3715 86.1188 31.4013 86.0909C31.4848 86.0134 31.3596 85.8881 31.276 85.9657Z" fill="#859098"/>
<path opacity="0.25" d="M29.7009 86.6221C29.5418 86.7812 29.3808 86.9422 29.2217 87.1013C29.1998 87.1232 29.1759 87.1471 29.154 87.169C29.1202 87.2028 29.1182 87.2624 29.154 87.2942C29.1898 87.3261 29.2435 87.33 29.2793 87.2942C29.4384 87.1352 29.5995 86.9741 29.7586 86.815C29.7805 86.7931 29.8044 86.7692 29.8262 86.7473C29.86 86.7135 29.862 86.6539 29.8262 86.6221C29.7904 86.5902 29.7367 86.5863 29.7009 86.6221Z" fill="#859098"/>
<path opacity="0.25" d="M30.6257 87.5786C30.4666 87.7377 30.3055 87.8988 30.1464 88.0579C30.1245 88.0797 30.1007 88.1036 30.0788 88.1255C30.045 88.1593 30.043 88.219 30.0788 88.2508C30.1146 88.2826 30.1683 88.2866 30.2041 88.2508C30.3632 88.0917 30.5243 87.9306 30.6834 87.7715C30.7053 87.7496 30.7291 87.7257 30.751 87.7039C30.7848 87.6701 30.7868 87.6104 30.751 87.5786C30.7152 87.5468 30.6595 87.5428 30.6257 87.5786Z" fill="#859098"/>
<path opacity="0.25" d="M30.1723 87.0913C29.8839 87.3777 29.5975 87.664 29.3092 87.9504C29.2674 87.9922 29.2257 88.032 29.1859 88.0737C29.1043 88.1533 29.2296 88.2786 29.3112 88.199C29.5995 87.9126 29.8859 87.6263 30.1743 87.3399C30.216 87.2981 30.2578 87.2583 30.2976 87.2166C30.3771 87.137 30.2518 87.0117 30.1723 87.0913Z" fill="#859098"/>
<path d="M136.997 30.6492H36.3314V24.8421C36.3314 24.0964 36.936 23.4898 37.6837 23.4898H135.647C136.392 23.4898 136.999 24.0944 136.999 24.8421V30.6492H136.997Z" fill="white"/>
<path d="M63.3005 30.3528H54.5481V30.7127H63.3005V30.3528Z" fill="#C0C0C0"/>
<path d="M39.2568 28.1373V26.4111H39.5173L40.1139 27.6342L40.7106 26.4111H40.9711V28.1373H40.7006V27.0316L40.1696 28.1373H40.0543L39.5253 27.0316V28.1373H39.2568Z" fill="#C0C0C0"/>
<path d="M41.8302 28.1733C41.7009 28.1733 41.5876 28.1434 41.4901 28.0857C41.3927 28.0281 41.3191 27.9465 41.2654 27.8451C41.2117 27.7417 41.1859 27.6244 41.1859 27.4911C41.1859 27.3559 41.2137 27.2366 41.2674 27.1331C41.3211 27.0297 41.3967 26.9502 41.4941 26.8925C41.5916 26.8348 41.7029 26.807 41.8302 26.807C41.9615 26.807 42.0748 26.8368 42.1703 26.8945C42.2677 26.9522 42.3413 27.0337 42.395 27.1351C42.4487 27.2385 42.4746 27.3559 42.4746 27.4891C42.4746 27.6224 42.4467 27.7417 42.393 27.8451C42.3393 27.9485 42.2638 28.0281 42.1663 28.0857C42.0728 28.1434 41.9595 28.1733 41.8302 28.1733ZM41.8302 27.9028C41.9456 27.9028 42.0311 27.865 42.0868 27.7874C42.1424 27.7099 42.1703 27.6124 42.1703 27.4911C42.1703 27.3658 42.1424 27.2664 42.0848 27.1908C42.0271 27.1152 41.9436 27.0794 41.8302 27.0794C41.7527 27.0794 41.689 27.0973 41.6393 27.1312C41.5896 27.165 41.5518 27.2147 41.5279 27.2763C41.5041 27.338 41.4921 27.4096 41.4921 27.4911C41.4921 27.6164 41.52 27.7158 41.5776 27.7914C41.6353 27.865 41.7188 27.9028 41.8302 27.9028Z" fill="#C0C0C0"/>
<path d="M42.6894 28.1374V26.8428H42.9479V27.2445H42.9817V28.1374H42.6894ZM43.5883 28.1374V27.515C43.5883 27.4732 43.5863 27.4294 43.5803 27.3797C43.5743 27.33 43.5624 27.2823 43.5405 27.2365C43.5187 27.1908 43.4908 27.153 43.449 27.1232C43.4093 27.0934 43.3536 27.0794 43.286 27.0794C43.2482 27.0794 43.2124 27.0854 43.1766 27.0973C43.1408 27.1093 43.109 27.1291 43.0791 27.159C43.0493 27.1888 43.0274 27.2286 43.0095 27.2783C42.9916 27.328 42.9837 27.3936 42.9837 27.4732L42.8127 27.3996C42.8127 27.2902 42.8345 27.1888 42.8763 27.0993C42.9181 27.0098 42.9817 26.9382 43.0652 26.8845C43.1488 26.8308 43.2502 26.805 43.3715 26.805C43.4669 26.805 43.5465 26.8209 43.6082 26.8527C43.6698 26.8845 43.7195 26.9263 43.7573 26.974C43.7931 27.0237 43.8209 27.0755 43.8388 27.1331C43.8567 27.1888 43.8687 27.2425 43.8726 27.2922C43.8766 27.3419 43.8806 27.3837 43.8806 27.4135V28.1354H43.5883V28.1374Z" fill="#C0C0C0"/>
<path d="M44.169 26.6458V26.3813H44.4573V26.6458H44.169ZM44.169 28.1373V26.8427H44.4573V28.1373H44.169Z" fill="#C0C0C0"/>
<path d="M44.6244 27.0694V26.8427H45.5273V27.0694H44.6244ZM45.5273 28.1374C45.4418 28.1533 45.3582 28.1612 45.2767 28.1593C45.1952 28.1573 45.1216 28.1414 45.0559 28.1135C44.9903 28.0857 44.9426 28.0399 44.9088 27.9783C44.8789 27.9226 44.863 27.8649 44.861 27.8072C44.8591 27.7496 44.8591 27.6839 44.8591 27.6104V26.4847H45.1474V27.5945C45.1474 27.6462 45.1474 27.6919 45.1494 27.7317C45.1514 27.7715 45.1594 27.8033 45.1733 27.8271C45.2011 27.8749 45.2489 27.9027 45.3105 27.9067C45.3741 27.9127 45.4457 27.9087 45.5253 27.8967V28.1374H45.5273Z" fill="#C0C0C0"/>
<path d="M46.2651 28.1733C46.1358 28.1733 46.0225 28.1434 45.925 28.0857C45.8276 28.0281 45.754 27.9465 45.7003 27.8451C45.6466 27.7417 45.6207 27.6244 45.6207 27.4911C45.6207 27.3559 45.6486 27.2366 45.7023 27.1331C45.756 27.0297 45.8315 26.9502 45.929 26.8925C46.0264 26.8348 46.1378 26.807 46.2651 26.807C46.3963 26.807 46.5097 26.8368 46.6052 26.8945C46.7026 26.9522 46.7762 27.0337 46.8299 27.1351C46.8836 27.2385 46.9094 27.3559 46.9094 27.4891C46.9094 27.6224 46.8816 27.7417 46.8279 27.8451C46.7742 27.9485 46.6986 28.0281 46.6012 28.0857C46.5077 28.1434 46.3944 28.1733 46.2651 28.1733ZM46.2651 27.9028C46.3804 27.9028 46.466 27.865 46.5216 27.7874C46.5773 27.7099 46.6052 27.6124 46.6052 27.4911C46.6052 27.3658 46.5773 27.2664 46.5196 27.1908C46.462 27.1152 46.3784 27.0794 46.2651 27.0794C46.1875 27.0794 46.1239 27.0973 46.0742 27.1312C46.0245 27.165 45.9867 27.2147 45.9628 27.2763C45.9389 27.338 45.927 27.4096 45.927 27.4911C45.927 27.6164 45.9548 27.7158 46.0125 27.7914C46.0702 27.865 46.1537 27.9028 46.2651 27.9028Z" fill="#C0C0C0"/>
<path d="M47.1262 28.1373V26.8427H47.3808V27.1589L47.349 27.1171C47.3649 27.0734 47.3867 27.0336 47.4126 26.9998C47.4384 26.966 47.4723 26.9342 47.51 26.9123C47.5419 26.8904 47.5777 26.8745 47.6154 26.8606C47.6552 26.8487 47.695 26.8407 47.7348 26.8367C47.7765 26.8347 47.8143 26.8367 47.8541 26.8427V27.1132C47.8163 27.1012 47.7706 27.0992 47.7208 27.1032C47.6711 27.1072 47.6254 27.1211 47.5856 27.145C47.5458 27.1669 47.514 27.1947 47.4882 27.2285C47.4623 27.2623 47.4444 27.3001 47.4325 27.3438C47.4205 27.3876 47.4146 27.4333 47.4146 27.4831V28.1413H47.1262V28.1373Z" fill="#C0C0C0"/>
<path d="M48.0589 26.6458V26.3813H48.3473V26.6458H48.0589ZM48.0589 28.1373V26.8427H48.3473V28.1373H48.0589Z" fill="#C0C0C0"/>
<path d="M48.6575 28.1374V26.8428H48.9161V27.2445H48.9499V28.1374H48.6575ZM49.5564 28.1374V27.515C49.5564 27.4732 49.5545 27.4294 49.5485 27.3797C49.5425 27.33 49.5306 27.2823 49.5087 27.2365C49.4868 27.1908 49.457 27.153 49.4172 27.1232C49.3775 27.0934 49.3218 27.0794 49.2542 27.0794C49.2184 27.0794 49.1806 27.0854 49.1448 27.0973C49.109 27.1093 49.0772 27.1291 49.0473 27.159C49.0175 27.1888 48.9956 27.2286 48.9777 27.2783C48.9598 27.328 48.9519 27.3936 48.9519 27.4732L48.7808 27.3996C48.7808 27.2902 48.8027 27.1888 48.8445 27.0993C48.8862 27.0098 48.9499 26.9382 49.0334 26.8845C49.1169 26.8308 49.2184 26.805 49.3397 26.805C49.4351 26.805 49.5147 26.8209 49.5763 26.8527C49.638 26.8845 49.6877 26.9263 49.7255 26.974C49.7613 27.0237 49.7891 27.0755 49.807 27.1331C49.8249 27.1888 49.8369 27.2425 49.8408 27.2922C49.8468 27.3419 49.8488 27.3837 49.8488 27.4135V28.1354H49.5564V28.1374Z" fill="#C0C0C0"/>
<path d="M50.6303 28.1732C50.511 28.1732 50.4076 28.1434 50.3181 28.0837C50.2286 28.024 50.161 27.9425 50.1113 27.8391C50.0616 27.7357 50.0377 27.6203 50.0377 27.4911C50.0377 27.3598 50.0616 27.2425 50.1113 27.141C50.161 27.0396 50.2306 26.9581 50.3201 26.8984C50.4096 26.8388 50.517 26.8089 50.6383 26.8089C50.7616 26.8089 50.865 26.8388 50.9485 26.8984C51.0321 26.9581 51.0957 27.0396 51.1395 27.143C51.1832 27.2464 51.2051 27.3638 51.2051 27.4931C51.2051 27.6223 51.1832 27.7377 51.1395 27.8411C51.0957 27.9445 51.0321 28.026 50.9466 28.0857C50.863 28.1434 50.7576 28.1732 50.6303 28.1732ZM50.6562 28.7479C50.5846 28.7479 50.515 28.736 50.4494 28.7141C50.3837 28.6923 50.3241 28.6604 50.2704 28.6167C50.2187 28.5749 50.1749 28.5252 50.1411 28.4655L50.4076 28.3343C50.4315 28.382 50.4673 28.4158 50.513 28.4397C50.5588 28.4616 50.6065 28.4735 50.6582 28.4735C50.7178 28.4735 50.7715 28.4636 50.8193 28.4417C50.867 28.4198 50.9028 28.39 50.9287 28.3482C50.9545 28.3064 50.9664 28.2547 50.9645 28.1931V27.8252H51.0002V26.8407H51.2528V28.1971C51.2528 28.2309 51.2508 28.2607 51.2488 28.2905C51.2469 28.3204 51.2409 28.3502 51.2349 28.378C51.215 28.4616 51.1792 28.5312 51.1255 28.5849C51.0718 28.6386 51.0042 28.6783 50.9227 28.7062C50.8431 28.736 50.7537 28.7479 50.6562 28.7479ZM50.6761 27.9147C50.7536 27.9147 50.8153 27.8968 50.863 27.861C50.9108 27.8252 50.9446 27.7755 50.9664 27.7118C50.9883 27.6482 51.0002 27.5746 51.0002 27.4891C51.0002 27.4036 50.9883 27.33 50.9664 27.2663C50.9446 27.2027 50.9108 27.153 50.863 27.1172C50.8153 27.0814 50.7576 27.0635 50.684 27.0635C50.6065 27.0635 50.5428 27.0834 50.4931 27.1212C50.4434 27.1589 50.4056 27.2107 50.3818 27.2743C50.3579 27.3379 50.346 27.4095 50.346 27.4891C50.346 27.5686 50.3579 27.6402 50.3818 27.7039C50.4056 27.7675 50.4414 27.8192 50.4911 27.857C50.5389 27.8948 50.6005 27.9147 50.6761 27.9147Z" fill="#C0C0C0"/>
<path opacity="0.8" d="M61.5485 28.3621H57.7878C57.404 28.3621 57.0917 28.0498 57.0917 27.666C57.0917 27.2822 57.404 26.97 57.7878 26.97H61.5485C61.9323 26.97 62.2445 27.2822 62.2445 27.666C62.2445 28.0498 61.9323 28.3621 61.5485 28.3621Z" fill="#CDCDCC"/>
<path opacity="0.8" d="M77.4026 28.3621H68.0218C67.638 28.3621 67.3257 28.0498 67.3257 27.666C67.3257 27.2822 67.638 26.97 68.0218 26.97H77.4026C77.7864 26.97 78.0987 27.2822 78.0987 27.666C78.0987 28.0498 77.7884 28.3621 77.4026 28.3621Z" fill="#DFDFDF"/>
<path opacity="0.8" d="M91.2521 28.3621H81.8713C81.4875 28.3621 81.1753 28.0498 81.1753 27.666C81.1753 27.2822 81.4875 26.97 81.8713 26.97H91.2521C91.636 26.97 91.9482 27.2822 91.9482 27.666C91.9482 28.0498 91.638 28.3621 91.2521 28.3621Z" fill="#DFDFDF"/>
<path d="M55.8985 27.9882C56.1182 27.9882 56.2962 27.8101 56.2962 27.5904C56.2962 27.3708 56.1182 27.1927 55.8985 27.1927C55.6788 27.1927 55.5007 27.3708 55.5007 27.5904C55.5007 27.8101 55.6788 27.9882 55.8985 27.9882Z" fill="#D3D3D3"/>
<path d="M135.647 35.7443H37.6817C36.936 35.7443 36.3294 35.1398 36.3294 34.392V30.7725H136.997V34.392C136.997 35.1398 136.392 35.7443 135.647 35.7443Z" fill="#FBFBFD"/>
<path d="M58.6728 34.8116H53.2157C52.8001 34.8116 52.464 34.4755 52.464 34.0598V32.26C52.464 31.8444 52.8001 31.5083 53.2157 31.5083H58.6728C59.0884 31.5083 59.4245 31.8444 59.4245 32.26V34.0598C59.4245 34.4735 59.0884 34.8116 58.6728 34.8116Z" fill="white"/>
<path opacity="0.5" d="M57.8236 33.8648H54.0629C53.6791 33.8648 53.3668 33.5526 53.3668 33.1688C53.3668 32.7849 53.6791 32.4727 54.0629 32.4727H57.8236C58.2074 32.4727 58.5196 32.7849 58.5196 33.1688C58.5196 33.5526 58.2094 33.8648 57.8236 33.8648Z" fill="#C0C0C0"/>
<path opacity="0.25" d="M68.8431 33.8648H63.3562C62.9724 33.8648 62.6602 33.5526 62.6602 33.1688C62.6602 32.7849 62.9724 32.4727 63.3562 32.4727H68.8431C69.227 32.4727 69.5392 32.7849 69.5392 33.1688C69.5392 33.5526 69.2289 33.8648 68.8431 33.8648Z" fill="#CDCDCC"/>
<path opacity="0.4" fillRule="evenodd" clipRule="evenodd" d="M40.2034 32.1506C39.6419 32.1506 39.1872 32.6053 39.1872 33.1669C39.1872 33.7285 39.6419 34.1831 40.2034 34.1831H48.9936C49.553 34.1831 50.0079 33.7287 50.0099 33.1668C50.0098 32.6053 49.5552 32.1506 48.9936 32.1506H40.2034ZM38.9883 33.1669C38.9883 32.4955 39.532 31.9518 40.2034 31.9518H48.9936C49.665 31.9518 50.2087 32.4955 50.2087 33.1669L50.2087 33.1672C50.2066 33.8382 49.6632 34.382 48.9936 34.382H40.2034C39.532 34.382 38.9883 33.8383 38.9883 33.1669Z" fill="#CDCDCC"/>
<path opacity="0.25" d="M79.2661 33.8648H73.7792C73.3954 33.8648 73.0831 33.5526 73.0831 33.1688C73.0831 32.7849 73.3954 32.4727 73.7792 32.4727H79.2661C79.6499 32.4727 79.9621 32.7849 79.9621 33.1688C79.9621 33.5526 79.6499 33.8648 79.2661 33.8648Z" fill="#CDCDCC"/>
<path d="M84.6158 55.8305H37.6817C36.936 55.8305 36.3294 55.2259 36.3294 54.4781V38.6856C36.3294 37.9398 36.934 37.3333 37.6817 37.3333H84.6158C85.3615 37.3333 85.9681 37.9379 85.9681 38.6856V54.4781C85.9681 55.2259 85.3615 55.8305 84.6158 55.8305Z" fill="white"/>
<path d="M134.567 99.5825H38.1849C37.1607 99.5825 36.3314 98.7532 36.3314 97.729V58.7738C36.3314 58.028 36.936 57.4214 37.6837 57.4214H135.728C136.474 57.4214 137.08 58.026 137.08 58.7738L136.424 97.7589C136.404 98.7711 135.579 99.5825 134.567 99.5825Z" fill="white"/>
<path d="M135.647 55.8305H88.7126C87.9668 55.8305 87.3602 55.2259 87.3602 54.4781V38.6856C87.3602 37.9398 87.9648 37.3333 88.7126 37.3333H135.647C136.392 37.3333 136.999 37.9379 136.999 38.6856V54.4781C136.997 55.2259 136.392 55.8305 135.647 55.8305Z" fill="white"/>
<path d="M44.2744 47.8039C43.978 47.8039 43.7155 47.7442 43.4848 47.6229C43.2541 47.5036 43.0752 47.3366 42.9439 47.1218C42.8126 46.907 42.749 46.6644 42.749 46.3879C42.749 46.1413 42.8067 45.9126 42.92 45.6998C43.0334 45.489 43.2005 45.32 43.4212 45.1927L43.4053 45.4314C43.2323 45.3001 43.099 45.149 43.0056 44.9799C42.9121 44.8089 42.8644 44.616 42.8644 44.4032C42.8644 44.1466 42.926 43.9239 43.0473 43.735C43.1686 43.546 43.3357 43.3989 43.5465 43.2955C43.7573 43.192 44.0019 43.1383 44.2764 43.1383C44.5508 43.1383 44.7954 43.1901 45.0082 43.2955C45.221 43.4009 45.3881 43.546 45.5094 43.735C45.6307 43.9239 45.6923 44.1466 45.6923 44.4032C45.6923 44.616 45.6466 44.8089 45.5571 44.9779C45.4676 45.147 45.3304 45.3021 45.1474 45.4373L45.1434 45.1947C45.3582 45.318 45.5253 45.4851 45.6386 45.6978C45.754 45.9106 45.8117 46.1393 45.8117 46.3859C45.8117 46.6624 45.746 46.907 45.6148 47.1198C45.4835 47.3326 45.3025 47.4996 45.0699 47.6209C44.8372 47.7442 44.5727 47.8039 44.2744 47.8039ZM44.2744 47.0999C44.4931 47.0999 44.6721 47.0402 44.8113 46.9189C44.9485 46.7996 45.0182 46.6226 45.0182 46.3899C45.0182 46.1572 44.9505 45.9802 44.8133 45.8589C44.6761 45.7376 44.4971 45.676 44.2744 45.676C44.0556 45.676 43.8766 45.7356 43.7434 45.8589C43.6081 45.9802 43.5405 46.1572 43.5405 46.3899C43.5405 46.6226 43.6081 46.7976 43.7434 46.9189C43.8786 47.0402 44.0536 47.0999 44.2744 47.0999ZM44.2744 44.966C44.4593 44.966 44.6085 44.9203 44.7238 44.8268C44.8392 44.7333 44.8968 44.5941 44.8968 44.4052C44.8968 44.2162 44.8392 44.075 44.7238 43.9836C44.6085 43.8921 44.4593 43.8444 44.2744 43.8444C44.0914 43.8444 43.9422 43.8901 43.8289 43.9836C43.7155 44.077 43.6559 44.2162 43.6559 44.4052C43.6559 44.5941 43.7135 44.7333 43.8289 44.8268C43.9442 44.9203 44.0914 44.966 44.2744 44.966Z" fill="#C7C7C7"/>
<path d="M47.8998 47.796C47.6751 47.796 47.4643 47.7523 47.2654 47.6648C47.0665 47.5773 46.8935 47.454 46.7483 47.2949C46.6032 47.1358 46.4978 46.9469 46.4321 46.7281L47.156 46.5312C47.2077 46.7102 47.3032 46.8474 47.4404 46.9429C47.5776 47.0403 47.7308 47.0861 47.8958 47.0841C48.043 47.0841 48.1743 47.0503 48.2916 46.9807C48.4069 46.913 48.4984 46.8196 48.566 46.7022C48.6337 46.5849 48.6655 46.4536 48.6655 46.3085C48.6655 46.0857 48.5939 45.9008 48.4507 45.7516C48.3075 45.6025 48.1226 45.5289 47.8978 45.5289C47.8302 45.5289 47.7626 45.5388 47.697 45.5567C47.6313 45.5746 47.5697 45.6005 47.508 45.6343L47.166 45.0436L48.6714 43.7569L48.7371 43.9379H46.6071V43.2319H49.3536V43.9399L48.1444 45.1033L48.1385 44.8825C48.4109 44.9004 48.6416 44.976 48.8325 45.1093C49.0235 45.2425 49.1706 45.4135 49.274 45.6224C49.3774 45.8312 49.4272 46.0599 49.4272 46.3105C49.4272 46.5929 49.3576 46.8454 49.2203 47.0702C49.0831 47.2949 48.8982 47.4699 48.6675 47.6011C48.4348 47.7304 48.1782 47.796 47.8998 47.796Z" fill="#C7C7C7"/>
<path d="M51.7838 47.804C51.4915 47.804 51.229 47.7344 50.9963 47.5972C50.7636 47.46 50.5786 47.2671 50.4414 47.0245C50.3042 46.7798 50.2366 46.4994 50.2366 46.1812V44.819C50.2366 44.4789 50.3042 44.1846 50.4394 43.932C50.5747 43.6814 50.7656 43.4865 51.0122 43.3513C51.2588 43.2141 51.5432 43.1464 51.8693 43.1464C52.096 43.1464 52.3088 43.1842 52.5137 43.2598C52.7165 43.3354 52.8975 43.4567 53.0546 43.6217L52.5137 44.1468C52.4341 44.0533 52.3387 43.9797 52.2253 43.926C52.112 43.8723 51.9926 43.8445 51.8693 43.8445C51.6943 43.8445 51.5432 43.8862 51.4119 43.9678C51.2807 44.0493 51.1792 44.1567 51.1096 44.29C51.038 44.4232 51.0022 44.5644 51.0022 44.7155V45.4593L50.865 45.3102C50.9943 45.161 51.1474 45.0437 51.3284 44.9602C51.5094 44.8766 51.6983 44.8349 51.8952 44.8349C52.1776 44.8349 52.4262 44.8985 52.641 45.0258C52.8557 45.1531 53.0268 45.3281 53.1501 45.5488C53.2754 45.7696 53.337 46.0201 53.337 46.3025C53.337 46.583 53.2654 46.8355 53.1242 47.0622C52.983 47.289 52.7941 47.4699 52.5594 47.6032C52.3228 47.7384 52.0642 47.804 51.7838 47.804ZM51.7838 47.0861C51.929 47.0861 52.0622 47.0523 52.1816 46.9827C52.3009 46.9131 52.3983 46.8196 52.4699 46.7003C52.5415 46.581 52.5773 46.4497 52.5773 46.3045C52.5773 46.1594 52.5415 46.0261 52.4719 45.9068C52.4023 45.7875 52.3068 45.69 52.1875 45.6184C52.0682 45.5468 51.9369 45.511 51.7918 45.511C51.6466 45.511 51.5133 45.5468 51.394 45.6184C51.2747 45.69 51.1792 45.7855 51.1076 45.9068C51.038 46.0261 51.0022 46.1594 51.0022 46.3045C51.0022 46.4457 51.036 46.575 51.1057 46.6943C51.1753 46.8137 51.2687 46.9091 51.3881 46.9807C51.5054 47.0503 51.6386 47.0861 51.7838 47.0861Z" fill="#C7C7C7"/>
<path opacity="0.8" d="M52.7106 50.8348H43.3297C42.9459 50.8348 42.6337 50.5226 42.6337 50.1387C42.6337 49.7549 42.9459 49.4427 43.3297 49.4427H52.7106C53.0944 49.4427 53.4066 49.7549 53.4066 50.1387C53.4066 50.5226 53.0944 50.8348 52.7106 50.8348Z" fill="#DFDFDF"/>
<path opacity="0.8" d="M67.5326 43.6754H60.8286C60.4447 43.6754 60.1325 43.3631 60.1325 42.9793C60.1325 42.5955 60.4447 42.2833 60.8286 42.2833H67.5326C67.9164 42.2833 68.2286 42.5955 68.2286 42.9793C68.2286 43.3631 67.9164 43.6754 67.5326 43.6754Z" fill="#DFDFDF"/>
<path opacity="0.8" d="M63.9528 45.6641H60.8286C60.4447 45.6641 60.1325 45.3518 60.1325 44.968C60.1325 44.5842 60.4447 44.2719 60.8286 44.2719H63.9528C64.3367 44.2719 64.6489 44.5842 64.6489 44.968C64.6489 45.3518 64.3367 45.6641 63.9528 45.6641Z" fill="#DFDFDF"/>
<path opacity="0.8" d="M76.0841 45.6641H72.9598C72.576 45.6641 72.2638 45.3518 72.2638 44.968C72.2638 44.5842 72.576 44.2719 72.9598 44.2719H76.0841C76.468 44.2719 76.7802 44.5842 76.7802 44.968C76.7802 45.3518 76.468 45.6641 76.0841 45.6641Z" fill="#DFDFDF"/>
<path opacity="0.8" d="M79.6638 43.6754H72.9598C72.576 43.6754 72.2638 43.3631 72.2638 42.9793C72.2638 42.5955 72.576 42.2833 72.9598 42.2833H79.6638C80.0477 42.2833 80.3599 42.5955 80.3599 42.9793C80.3599 43.3631 80.0477 43.6754 79.6638 43.6754Z" fill="#DFDFDF"/>
<path opacity="0.8" d="M63.9528 51.0337H60.8286C60.4447 51.0337 60.1325 50.7214 60.1325 50.3376C60.1325 49.9538 60.4447 49.6415 60.8286 49.6415H63.9528C64.3367 49.6415 64.6489 49.9538 64.6489 50.3376C64.6489 50.7214 64.3367 51.0337 63.9528 51.0337Z" fill="#DFDFDF"/>
<path opacity="0.8" d="M76.0841 51.0337H72.9598C72.576 51.0337 72.2638 50.7214 72.2638 50.3376C72.2638 49.9538 72.576 49.6415 72.9598 49.6415H76.0841C76.468 49.6415 76.7802 49.9538 76.7802 50.3376C76.7802 50.7214 76.468 51.0337 76.0841 51.0337Z" fill="#DFDFDF"/>
<path opacity="0.8" d="M67.5306 49.0389L60.8266 49.023C60.4427 49.023 60.1305 48.7088 60.1325 48.3249C60.1325 47.9411 60.4467 47.6289 60.8305 47.6309L67.5345 47.6468C67.9184 47.6468 68.2306 47.961 68.2286 48.3448C68.2286 48.7287 67.9164 49.0389 67.5306 49.0389Z" fill="#DFDFDF"/>
<path opacity="0.8" d="M79.6618 49.0688L72.9578 49.0529C72.574 49.0529 72.2618 48.7387 72.2638 48.3548C72.2638 47.971 72.578 47.6588 72.9618 47.6608L79.6658 47.6767C80.0496 47.6767 80.3619 47.9909 80.3599 48.3747C80.3599 48.7586 80.0476 49.0688 79.6618 49.0688Z" fill="#DFDFDF"/>
<path d="M95.4921 47.5076V47.0482L96.8405 45.847C96.9459 45.7536 97.0175 45.6661 97.0592 45.5825C97.101 45.499 97.1209 45.4195 97.1209 45.3419C97.1209 45.2365 97.099 45.143 97.0533 45.0615C97.0075 44.98 96.9459 44.9143 96.8663 44.8666C96.7868 44.8189 96.6953 44.795 96.5919 44.795C96.4825 44.795 96.3851 44.8209 96.3015 44.8706C96.218 44.9203 96.1524 44.9879 96.1066 45.0714C96.0609 45.155 96.039 45.2445 96.041 45.3399H95.4981C95.4981 45.1291 95.5458 44.9461 95.6393 44.791C95.7327 44.6359 95.864 44.5146 96.0291 44.4271C96.1941 44.3416 96.3851 44.2978 96.6038 44.2978C96.8047 44.2978 96.9856 44.3436 97.1467 44.4331C97.3078 44.5225 97.4331 44.6458 97.5246 44.8049C97.6161 44.9621 97.6618 45.145 97.6618 45.3499C97.6618 45.499 97.6419 45.6263 97.6002 45.7277C97.5584 45.8291 97.4987 45.9246 97.4172 46.0101C97.3357 46.0956 97.2362 46.1911 97.1169 46.2965L96.1603 47.1437L96.1126 47.0124H97.6618V47.5096H95.4921V47.5076Z" fill="#C6ACA7"/>
<path d="M99.3185 47.5792C99.0957 47.5792 98.8988 47.5315 98.7278 47.436C98.5568 47.3406 98.4235 47.2073 98.3281 47.0363C98.2326 46.8653 98.1849 46.6684 98.1849 46.4456V45.4314C98.1849 45.2087 98.2326 45.0118 98.3281 44.8407C98.4235 44.6697 98.5568 44.5365 98.7278 44.441C98.8988 44.3456 99.0957 44.2978 99.3185 44.2978C99.5412 44.2978 99.7381 44.3456 99.9071 44.441C100.076 44.5365 100.209 44.6697 100.307 44.8407C100.402 45.0118 100.452 45.2087 100.452 45.4314V46.4456C100.452 46.6684 100.404 46.8653 100.307 47.0363C100.211 47.2073 100.078 47.3406 99.9071 47.436C99.7381 47.5315 99.5412 47.5792 99.3185 47.5792ZM99.3185 47.0781C99.4298 47.0781 99.5293 47.0522 99.6208 46.9985C99.7122 46.9448 99.7818 46.8732 99.8355 46.7837C99.8872 46.6942 99.9151 46.5928 99.9151 46.4834V45.3916C99.9151 45.2803 99.8892 45.1788 99.8355 45.0893C99.7838 44.9998 99.7122 44.9282 99.6208 44.8746C99.5313 44.8209 99.4298 44.795 99.3185 44.795C99.2071 44.795 99.1077 44.8209 99.0162 44.8746C98.9247 44.9282 98.8551 44.9998 98.8014 45.0893C98.7497 45.1788 98.7218 45.2803 98.7218 45.3916V46.4834C98.7218 46.5948 98.7477 46.6942 98.8014 46.7837C98.8531 46.8732 98.9247 46.9448 99.0162 46.9985C99.1077 47.0502 99.2091 47.0781 99.3185 47.0781Z" fill="#C6ACA7"/>
<path d="M101.061 47.5136V45.151H101.526V45.8828H101.592V47.5136H101.061ZM102.484 47.5136V46.0857C102.484 45.9206 102.445 45.7933 102.365 45.6999C102.286 45.6084 102.176 45.5626 102.037 45.5626C101.904 45.5626 101.794 45.6084 101.715 45.6999C101.633 45.7913 101.594 45.9107 101.594 46.0578L101.357 45.9007C101.357 45.7476 101.395 45.6104 101.47 45.4871C101.546 45.3638 101.649 45.2683 101.777 45.1967C101.906 45.1251 102.051 45.0913 102.21 45.0913C102.387 45.0913 102.534 45.1291 102.654 45.2047C102.773 45.2802 102.86 45.3817 102.92 45.5109C102.98 45.6402 103.01 45.7854 103.01 45.9465V47.5136H102.484ZM103.902 47.5136V46.0777C103.902 45.9166 103.863 45.7894 103.783 45.6979C103.704 45.6064 103.594 45.5607 103.457 45.5607C103.373 45.5607 103.296 45.5805 103.23 45.6183C103.163 45.6561 103.109 45.7138 103.071 45.7894C103.031 45.8649 103.011 45.9544 103.011 46.0578L102.777 45.9206C102.775 45.7575 102.813 45.6124 102.888 45.4891C102.964 45.3658 103.065 45.2663 103.192 45.1967C103.322 45.1271 103.463 45.0913 103.622 45.0913C103.883 45.0913 104.083 45.1689 104.223 45.326C104.362 45.4831 104.431 45.6879 104.431 45.9445V47.5136H103.902Z" fill="#C6ACA7"/>
<path d="M106.132 47.5792C105.909 47.5792 105.712 47.5315 105.541 47.436C105.37 47.3406 105.237 47.2073 105.141 47.0363C105.046 46.8653 104.998 46.6684 104.998 46.4456V45.4314C104.998 45.2087 105.046 45.0118 105.141 44.8407C105.237 44.6697 105.37 44.5365 105.541 44.441C105.712 44.3456 105.909 44.2978 106.132 44.2978C106.355 44.2978 106.551 44.3456 106.721 44.441C106.89 44.5365 107.023 44.6697 107.12 44.8407C107.216 45.0118 107.265 45.2087 107.265 45.4314V46.4456C107.265 46.6684 107.218 46.8653 107.12 47.0363C107.025 47.2073 106.892 47.3406 106.721 47.436C106.551 47.5315 106.355 47.5792 106.132 47.5792ZM106.132 47.0781C106.243 47.0781 106.343 47.0522 106.434 46.9985C106.526 46.9448 106.595 46.8732 106.649 46.7837C106.701 46.6942 106.728 46.5928 106.728 46.4834V45.3916C106.728 45.2803 106.703 45.1788 106.649 45.0893C106.597 44.9998 106.526 44.9282 106.434 44.8746C106.345 44.8209 106.243 44.795 106.132 44.795C106.02 44.795 105.921 44.8209 105.83 44.8746C105.738 44.9282 105.668 44.9998 105.615 45.0893C105.563 45.1788 105.535 45.2803 105.535 45.3916V46.4834C105.535 46.5948 105.561 46.6942 105.615 46.7837C105.666 46.8732 105.738 46.9448 105.83 46.9985C105.919 47.0502 106.02 47.0781 106.132 47.0781Z" fill="#C6ACA7"/>
<path d="M109.01 47.5792C108.787 47.5792 108.59 47.5315 108.419 47.436C108.248 47.3406 108.115 47.2073 108.019 47.0363C107.924 46.8653 107.876 46.6684 107.876 46.4456V45.4314C107.876 45.2087 107.924 45.0118 108.019 44.8407C108.115 44.6697 108.248 44.5365 108.419 44.441C108.59 44.3456 108.787 44.2978 109.01 44.2978C109.232 44.2978 109.429 44.3456 109.598 44.441C109.767 44.5365 109.9 44.6697 109.998 44.8407C110.093 45.0118 110.143 45.2087 110.143 45.4314V46.4456C110.143 46.6684 110.095 46.8653 109.998 47.0363C109.902 47.2073 109.769 47.3406 109.598 47.436C109.429 47.5315 109.232 47.5792 109.01 47.5792ZM109.01 47.0781C109.121 47.0781 109.22 47.0522 109.312 46.9985C109.403 46.9448 109.473 46.8732 109.527 46.7837C109.578 46.6942 109.606 46.5928 109.606 46.4834V45.3916C109.606 45.2803 109.58 45.1788 109.527 45.0893C109.475 44.9998 109.403 44.9282 109.312 44.8746C109.222 44.8209 109.121 44.795 109.01 44.795C108.898 44.795 108.799 44.8209 108.707 44.8746C108.616 44.9282 108.546 44.9998 108.492 45.0893C108.441 45.1788 108.413 45.2803 108.413 45.3916V46.4834C108.413 46.5948 108.439 46.6942 108.492 46.7837C108.544 46.8732 108.616 46.9448 108.707 46.9985C108.799 47.0502 108.898 47.0781 109.01 47.0781Z" fill="#C6ACA7"/>
<path d="M111.668 47.5792C111.376 47.5792 111.139 47.5136 110.957 47.3823C110.774 47.2511 110.664 47.0661 110.624 46.8295L111.163 46.746C111.191 46.8633 111.253 46.9548 111.346 47.0224C111.442 47.09 111.561 47.1238 111.704 47.1238C111.832 47.1238 111.929 47.098 111.999 47.0482C112.068 46.9985 112.102 46.9289 112.102 46.8414C112.102 46.7877 112.09 46.744 112.064 46.7102C112.038 46.6783 111.983 46.6465 111.897 46.6147C111.812 46.5849 111.678 46.5451 111.501 46.4994C111.303 46.4476 111.145 46.39 111.028 46.3303C110.911 46.2706 110.827 46.1971 110.778 46.1155C110.728 46.034 110.702 45.9326 110.702 45.8132C110.702 45.6661 110.74 45.5368 110.817 45.4274C110.895 45.318 111.002 45.2345 111.141 45.1749C111.281 45.1152 111.444 45.0854 111.631 45.0854C111.814 45.0854 111.977 45.1132 112.12 45.1709C112.263 45.2285 112.376 45.3081 112.464 45.4135C112.551 45.5189 112.605 45.6422 112.625 45.7834L112.086 45.8789C112.072 45.7774 112.028 45.6979 111.949 45.6402C111.869 45.5825 111.766 45.5487 111.637 45.5408C111.513 45.5328 111.412 45.5527 111.336 45.5965C111.261 45.6402 111.223 45.7039 111.223 45.7834C111.223 45.8291 111.239 45.8669 111.269 45.8988C111.299 45.9306 111.36 45.9624 111.454 45.9942C111.547 46.026 111.684 46.0658 111.867 46.1115C112.056 46.1593 112.205 46.215 112.319 46.2766C112.432 46.3383 112.514 46.4118 112.563 46.4994C112.613 46.5849 112.639 46.6903 112.639 46.8116C112.639 47.0502 112.553 47.2352 112.38 47.3724C112.211 47.5096 111.973 47.5792 111.668 47.5792Z" fill="#C6ACA7"/>
<path opacity="0.8" d="M112.279 50.6359H96.2279C95.8441 50.6359 95.5319 50.3237 95.5319 49.9399C95.5319 49.556 95.8441 49.2438 96.2279 49.2438H112.279C112.663 49.2438 112.975 49.556 112.975 49.9399C112.975 50.3237 112.663 50.6359 112.279 50.6359Z" fill="#DFDFDF"/>
<path opacity="0.8" d="M129.979 43.6754H120.49C120.107 43.6754 119.794 43.3631 119.794 42.9793C119.794 42.5955 120.107 42.2833 120.49 42.2833H129.979C130.363 42.2833 130.675 42.5955 130.675 42.9793C130.675 43.3631 130.363 43.6754 129.979 43.6754Z" fill="#DFDFDF"/>
<path opacity="0.8" d="M125.168 45.6641H120.49C120.107 45.6641 119.794 45.3518 119.794 44.968C119.794 44.5842 120.107 44.2719 120.49 44.2719H125.168C125.552 44.2719 125.864 44.5842 125.864 44.968C125.864 45.3518 125.552 45.6641 125.168 45.6641Z" fill="#DFDFDF"/>
<path opacity="0.8" d="M125.168 51.0337H120.49C120.107 51.0337 119.794 50.7214 119.794 50.3376C119.794 49.9538 120.107 49.6415 120.49 49.6415H125.168C125.552 49.6415 125.864 49.9538 125.864 50.3376C125.864 50.7214 125.552 51.0337 125.168 51.0337Z" fill="#DFDFDF"/>
<path opacity="0.8" d="M129.738 49.0389L120.729 49.023C120.212 49.023 119.794 48.7088 119.796 48.3249C119.798 47.9411 120.218 47.6289 120.735 47.6309L129.744 47.6468C130.261 47.6468 130.679 47.961 130.677 48.3448C130.673 48.7287 130.253 49.0389 129.738 49.0389Z" fill="#DFDFDF"/>
<path fillRule="evenodd" clipRule="evenodd" d="M137.078 64.1851H36.4089V63.9862H137.078V64.1851Z" fill="#EEEEEE"/>
<path fillRule="evenodd" clipRule="evenodd" d="M137.078 69.5547H36.4089V69.3558H137.078V69.5547Z" fill="#EEEEEE"/>
<path fillRule="evenodd" clipRule="evenodd" d="M60.4726 101.173V64.1831H60.6714V101.173H60.4726Z" fill="#EEEEEE"/>
<path d="M49.7235 62.6538H40.0901C39.6744 62.6538 39.3383 62.3177 39.3383 61.9021V60.1023C39.3383 59.6866 39.6744 59.3505 40.0901 59.3505H49.7235C50.1391 59.3505 50.4752 59.6866 50.4752 60.1023V61.9021C50.4752 62.3157 50.1391 62.6538 49.7235 62.6538Z" fill="white"/>
<path opacity="0.5" d="M48.8206 61.7071H40.9373C40.5534 61.7071 40.2412 61.3949 40.2412 61.0111C40.2412 60.6272 40.5534 60.315 40.9373 60.315H48.8206C49.2044 60.315 49.5167 60.6272 49.5167 61.0111C49.5167 61.3949 49.2064 61.7071 48.8206 61.7071Z" fill="#C0C0C0"/>
<path opacity="0.25" d="M65.4762 61.7071H54.4845C54.1007 61.7071 53.7884 61.3949 53.7884 61.0111C53.7884 60.6272 54.1007 60.315 54.4845 60.315H65.4762C65.86 60.315 66.1723 60.6272 66.1723 61.0111C66.1723 61.3949 65.86 61.7071 65.4762 61.7071Z" fill="#CDCDCC"/>
<path opacity="0.25" d="M51.9528 67.4745H40.9611C40.5773 67.4745 40.2651 67.1622 40.2651 66.7784C40.2651 66.3946 40.5773 66.0824 40.9611 66.0824H51.9528C52.3367 66.0824 52.6489 66.3946 52.6489 66.7784C52.6489 67.1622 52.3367 67.4745 51.9528 67.4745Z" fill="#CDCDCC"/>
<path opacity="0.25" d="M75.5034 67.4745H64.8259C64.4421 67.4745 64.1298 67.1622 64.1298 66.7784C64.1298 66.3946 64.4421 66.0824 64.8259 66.0824H75.5034C75.8872 66.0824 76.1994 66.3946 76.1994 66.7784C76.1994 67.1622 75.8872 67.4745 75.5034 67.4745Z" fill="#CDCDCC"/>
<path opacity="0.25" d="M89.5697 67.4745H78.8922C78.5084 67.4745 78.1961 67.1622 78.1961 66.7784C78.1961 66.3946 78.5084 66.0824 78.8922 66.0824H89.5697C89.9535 66.0824 90.2657 66.3946 90.2657 66.7784C90.2657 67.1622 89.9535 67.4745 89.5697 67.4745Z" fill="#CDCDCC"/>
<path opacity="0.25" d="M103.636 67.4745H92.9585C92.5747 67.4745 92.2624 67.1622 92.2624 66.7784C92.2624 66.3946 92.5747 66.0824 92.9585 66.0824H103.636C104.02 66.0824 104.332 66.3946 104.332 66.7784C104.332 67.1622 104.02 67.4745 103.636 67.4745Z" fill="#CDCDCC"/>
<path opacity="0.25" d="M117.702 67.4745H107.025C106.641 67.4745 106.329 67.1622 106.329 66.7784C106.329 66.3946 106.641 66.0824 107.025 66.0824H117.702C118.086 66.0824 118.398 66.3946 118.398 66.7784C118.398 67.1622 118.086 67.4745 117.702 67.4745Z" fill="#CDCDCC"/>
<path opacity="0.25" d="M131.769 67.4745H121.091C120.707 67.4745 120.395 67.1622 120.395 66.7784C120.395 66.3946 120.707 66.0824 121.091 66.0824H131.769C132.152 66.0824 132.465 66.3946 132.465 66.7784C132.465 67.1622 132.152 67.4745 131.769 67.4745Z" fill="#CDCDCC"/>
<path opacity="0.25" d="M51.1574 72.8441H40.1656C39.7818 72.8441 39.4696 72.5318 39.4696 72.148C39.4696 71.7642 39.7818 71.452 40.1656 71.452H51.1574C51.5412 71.452 51.8534 71.7642 51.8534 72.148C51.8534 72.5318 51.5412 72.8441 51.1574 72.8441Z" fill="#CDCDCC"/>
<path opacity="0.25" d="M74.7079 72.8441H64.0304C63.6466 72.8441 63.3343 72.5318 63.3343 72.148C63.3343 71.7642 63.6466 71.452 64.0304 71.452H74.7079C75.0917 71.452 75.4039 71.7642 75.4039 72.148C75.4039 72.5318 75.0917 72.8441 74.7079 72.8441Z" fill="#CDCDCC"/>
<path opacity="0.25" d="M88.7742 72.8441H78.0967C77.7129 72.8441 77.4007 72.5318 77.4007 72.148C77.4007 71.7642 77.7129 71.452 78.0967 71.452H88.7742C89.158 71.452 89.4703 71.7642 89.4703 72.148C89.4703 72.5318 89.158 72.8441 88.7742 72.8441Z" fill="#CDCDCC"/>
<path opacity="0.25" d="M102.84 72.8441H92.163C91.7792 72.8441 91.4669 72.5318 91.4669 72.148C91.4669 71.7642 91.7792 71.452 92.163 71.452H102.84C103.224 71.452 103.537 71.7642 103.537 72.148C103.537 72.5318 103.224 72.8441 102.84 72.8441Z" fill="#CDCDCC"/>
<path opacity="0.25" d="M116.907 72.8441H106.229C105.845 72.8441 105.533 72.5318 105.533 72.148C105.533 71.7642 105.845 71.452 106.229 71.452H116.907C117.291 71.452 117.603 71.7642 117.603 72.148C117.603 72.5318 117.291 72.8441 116.907 72.8441Z" fill="#CDCDCC"/>
<path opacity="0.25" d="M130.973 72.8441H120.296C119.912 72.8441 119.6 72.5318 119.6 72.148C119.6 71.7642 119.912 71.452 120.296 71.452H130.973C131.357 71.452 131.669 71.7642 131.669 72.148C131.669 72.5318 131.357 72.8441 130.973 72.8441Z" fill="#CDCDCC"/>
<path opacity="0.25" d="M51.1574 76.3382H40.1656C39.7818 76.3382 39.4696 76.026 39.4696 75.6422C39.4696 75.2583 39.7818 74.9461 40.1656 74.9461H51.1574C51.5412 74.9461 51.8534 75.2583 51.8534 75.6422C51.8534 76.026 51.5412 76.3382 51.1574 76.3382Z" fill="#CDCDCC"/>
<path opacity="0.25" d="M74.7079 76.3382H64.0304C63.6466 76.3382 63.3343 76.026 63.3343 75.6422C63.3343 75.2583 63.6466 74.9461 64.0304 74.9461H74.7079C75.0917 74.9461 75.4039 75.2583 75.4039 75.6422C75.4039 76.026 75.0917 76.3382 74.7079 76.3382Z" fill="#CDCDCC"/>
<path opacity="0.25" d="M88.7742 76.3382H78.0967C77.7129 76.3382 77.4007 76.026 77.4007 75.6422C77.4007 75.2583 77.7129 74.9461 78.0967 74.9461H88.7742C89.158 74.9461 89.4703 75.2583 89.4703 75.6422C89.4703 76.026 89.158 76.3382 88.7742 76.3382Z" fill="#CDCDCC"/>
<path opacity="0.25" d="M102.84 76.3382H92.163C91.7792 76.3382 91.4669 76.026 91.4669 75.6422C91.4669 75.2583 91.7792 74.9461 92.163 74.9461H102.84C103.224 74.9461 103.537 75.2583 103.537 75.6422C103.537 76.026 103.224 76.3382 102.84 76.3382Z" fill="#CDCDCC"/>
<path opacity="0.25" d="M116.907 76.3382H106.229C105.845 76.3382 105.533 76.026 105.533 75.6422C105.533 75.2583 105.845 74.9461 106.229 74.9461H116.907C117.291 74.9461 117.603 75.2583 117.603 75.6422C117.603 76.026 117.291 76.3382 116.907 76.3382Z" fill="#CDCDCC"/>
<path opacity="0.25" d="M130.973 76.3382H120.296C119.912 76.3382 119.6 76.026 119.6 75.6422C119.6 75.2583 119.912 74.9461 120.296 74.9461H130.973C131.357 74.9461 131.669 75.2583 131.669 75.6422C131.669 76.026 131.357 76.3382 130.973 76.3382Z" fill="#CDCDCC"/>
<path opacity="0.25" d="M51.1574 79.8325H40.1656C39.7818 79.8325 39.4696 79.5203 39.4696 79.1364C39.4696 78.7526 39.7818 78.4404 40.1656 78.4404H51.1574C51.5412 78.4404 51.8534 78.7526 51.8534 79.1364C51.8534 79.5203 51.5412 79.8325 51.1574 79.8325Z" fill="#CDCDCC"/>
<path opacity="0.25" d="M74.7079 79.8325H64.0304C63.6466 79.8325 63.3343 79.5203 63.3343 79.1364C63.3343 78.7526 63.6466 78.4404 64.0304 78.4404H74.7079C75.0917 78.4404 75.4039 78.7526 75.4039 79.1364C75.4039 79.5203 75.0917 79.8325 74.7079 79.8325Z" fill="#CDCDCC"/>
<path opacity="0.25" d="M88.7742 79.8325H78.0967C77.7129 79.8325 77.4007 79.5203 77.4007 79.1364C77.4007 78.7526 77.7129 78.4404 78.0967 78.4404H88.7742C89.158 78.4404 89.4703 78.7526 89.4703 79.1364C89.4703 79.5203 89.158 79.8325 88.7742 79.8325Z" fill="#CDCDCC"/>
<path opacity="0.25" d="M102.84 79.8325H92.163C91.7792 79.8325 91.4669 79.5203 91.4669 79.1364C91.4669 78.7526 91.7792 78.4404 92.163 78.4404H102.84C103.224 78.4404 103.537 78.7526 103.537 79.1364C103.537 79.5203 103.224 79.8325 102.84 79.8325Z" fill="#CDCDCC"/>
<path opacity="0.25" d="M116.907 79.8325H106.229C105.845 79.8325 105.533 79.5203 105.533 79.1364C105.533 78.7526 105.845 78.4404 106.229 78.4404H116.907C117.291 78.4404 117.603 78.7526 117.603 79.1364C117.603 79.5203 117.291 79.8325 116.907 79.8325Z" fill="#CDCDCC"/>
<path opacity="0.25" d="M130.973 79.8325H120.296C119.912 79.8325 119.6 79.5203 119.6 79.1364C119.6 78.7526 119.912 78.4404 120.296 78.4404H130.973C131.357 78.4404 131.669 78.7526 131.669 79.1364C131.669 79.5203 131.357 79.8325 130.973 79.8325Z" fill="#CDCDCC"/>
<path opacity="0.25" d="M51.1574 83.3266H40.1656C39.7818 83.3266 39.4696 83.0144 39.4696 82.6306C39.4696 82.2468 39.7818 81.9345 40.1656 81.9345H51.1574C51.5412 81.9345 51.8534 82.2468 51.8534 82.6306C51.8534 83.0144 51.5412 83.3266 51.1574 83.3266Z" fill="#CDCDCC"/>
<path opacity="0.25" d="M74.7079 83.3266H64.0304C63.6466 83.3266 63.3343 83.0144 63.3343 82.6306C63.3343 82.2468 63.6466 81.9345 64.0304 81.9345H74.7079C75.0917 81.9345 75.4039 82.2468 75.4039 82.6306C75.4039 83.0144 75.0917 83.3266 74.7079 83.3266Z" fill="#CDCDCC"/>
<path opacity="0.25" d="M88.7742 83.3266H78.0967C77.7129 83.3266 77.4007 83.0144 77.4007 82.6306C77.4007 82.2468 77.7129 81.9345 78.0967 81.9345H88.7742C89.158 81.9345 89.4703 82.2468 89.4703 82.6306C89.4703 83.0144 89.158 83.3266 88.7742 83.3266Z" fill="#CDCDCC"/>
<path opacity="0.25" d="M102.84 83.3266H92.163C91.7792 83.3266 91.4669 83.0144 91.4669 82.6306C91.4669 82.2468 91.7792 81.9345 92.163 81.9345H102.84C103.224 81.9345 103.537 82.2468 103.537 82.6306C103.537 83.0144 103.224 83.3266 102.84 83.3266Z" fill="#CDCDCC"/>
<path opacity="0.25" d="M116.907 83.3266H106.229C105.845 83.3266 105.533 83.0144 105.533 82.6306C105.533 82.2468 105.845 81.9345 106.229 81.9345H116.907C117.291 81.9345 117.603 82.2468 117.603 82.6306C117.603 83.0144 117.291 83.3266 116.907 83.3266Z" fill="#CDCDCC"/>
<path opacity="0.25" d="M130.973 83.3266H120.296C119.912 83.3266 119.6 83.0144 119.6 82.6306C119.6 82.2468 119.912 81.9345 120.296 81.9345H130.973C131.357 81.9345 131.669 82.2468 131.669 82.6306C131.669 83.0144 131.357 83.3266 130.973 83.3266Z" fill="#CDCDCC"/>
<path opacity="0.25" d="M51.1574 86.8209H40.1656C39.7818 86.8209 39.4696 86.5087 39.4696 86.1249C39.4696 85.741 39.7818 85.4288 40.1656 85.4288H51.1574C51.5412 85.4288 51.8534 85.741 51.8534 86.1249C51.8534 86.5107 51.5412 86.8209 51.1574 86.8209Z" fill="#CDCDCC"/>
<path opacity="0.25" d="M74.7079 86.8209H64.0304C63.6466 86.8209 63.3343 86.5087 63.3343 86.1249C63.3343 85.741 63.6466 85.4288 64.0304 85.4288H74.7079C75.0917 85.4288 75.4039 85.741 75.4039 86.1249C75.4039 86.5107 75.0917 86.8209 74.7079 86.8209Z" fill="#CDCDCC"/>
<path opacity="0.25" d="M88.7742 86.8209H78.0967C77.7129 86.8209 77.4007 86.5087 77.4007 86.1249C77.4007 85.741 77.7129 85.4288 78.0967 85.4288H88.7742C89.158 85.4288 89.4703 85.741 89.4703 86.1249C89.4703 86.5107 89.158 86.8209 88.7742 86.8209Z" fill="#CDCDCC"/>
<path opacity="0.25" d="M102.84 86.8209H92.163C91.7792 86.8209 91.4669 86.5087 91.4669 86.1249C91.4669 85.741 91.7792 85.4288 92.163 85.4288H102.84C103.224 85.4288 103.537 85.741 103.537 86.1249C103.537 86.5107 103.224 86.8209 102.84 86.8209Z" fill="#CDCDCC"/>
<path opacity="0.25" d="M116.907 86.8209H106.229C105.845 86.8209 105.533 86.5087 105.533 86.1249C105.533 85.741 105.845 85.4288 106.229 85.4288H116.907C117.291 85.4288 117.603 85.741 117.603 86.1249C117.603 86.5107 117.291 86.8209 116.907 86.8209Z" fill="#CDCDCC"/>
<path opacity="0.25" d="M130.973 86.8209H120.296C119.912 86.8209 119.6 86.5087 119.6 86.1249C119.6 85.741 119.912 85.4288 120.296 85.4288H130.973C131.357 85.4288 131.669 85.741 131.669 86.1249C131.669 86.5107 131.357 86.8209 130.973 86.8209Z" fill="#CDCDCC"/>
<path opacity="0.25" d="M51.1574 90.3151H40.1656C39.7818 90.3151 39.4696 90.0029 39.4696 89.6191C39.4696 89.2352 39.7818 88.923 40.1656 88.923H51.1574C51.5412 88.923 51.8534 89.2352 51.8534 89.6191C51.8534 90.0049 51.5412 90.3151 51.1574 90.3151Z" fill="#CDCDCC"/>
<path opacity="0.25" d="M74.7079 90.3151H64.0304C63.6466 90.3151 63.3343 90.0029 63.3343 89.6191C63.3343 89.2352 63.6466 88.923 64.0304 88.923H74.7079C75.0917 88.923 75.4039 89.2352 75.4039 89.6191C75.4039 90.0049 75.0917 90.3151 74.7079 90.3151Z" fill="#CDCDCC"/>
<path opacity="0.25" d="M88.7742 90.3151H78.0967C77.7129 90.3151 77.4007 90.0029 77.4007 89.6191C77.4007 89.2352 77.7129 88.923 78.0967 88.923H88.7742C89.158 88.923 89.4703 89.2352 89.4703 89.6191C89.4703 90.0049 89.158 90.3151 88.7742 90.3151Z" fill="#CDCDCC"/>
<path opacity="0.25" d="M102.84 90.3151H92.163C91.7792 90.3151 91.4669 90.0029 91.4669 89.6191C91.4669 89.2352 91.7792 88.923 92.163 88.923H102.84C103.224 88.923 103.537 89.2352 103.537 89.6191C103.537 90.0049 103.224 90.3151 102.84 90.3151Z" fill="#CDCDCC"/>
<path opacity="0.25" d="M116.907 90.3151H106.229C105.845 90.3151 105.533 90.0029 105.533 89.6191C105.533 89.2352 105.845 88.923 106.229 88.923H116.907C117.291 88.923 117.603 89.2352 117.603 89.6191C117.603 90.0049 117.291 90.3151 116.907 90.3151Z" fill="#CDCDCC"/>
<path opacity="0.25" d="M130.973 90.3151H120.296C119.912 90.3151 119.6 90.0029 119.6 89.6191C119.6 89.2352 119.912 88.923 120.296 88.923H130.973C131.357 88.923 131.669 89.2352 131.669 89.6191C131.669 90.0049 131.357 90.3151 130.973 90.3151Z" fill="#CDCDCC"/>
<path opacity="0.25" d="M51.1574 93.8113H40.1656C39.7818 93.8113 39.4696 93.499 39.4696 93.1152C39.4696 92.7314 39.7818 92.4192 40.1656 92.4192H51.1574C51.5412 92.4192 51.8534 92.7314 51.8534 93.1152C51.8534 93.499 51.5412 93.8113 51.1574 93.8113Z" fill="#CDCDCC"/>
<path opacity="0.25" d="M74.7079 93.8113H64.0304C63.6466 93.8113 63.3343 93.499 63.3343 93.1152C63.3343 92.7314 63.6466 92.4192 64.0304 92.4192H74.7079C75.0917 92.4192 75.4039 92.7314 75.4039 93.1152C75.4039 93.499 75.0917 93.8113 74.7079 93.8113Z" fill="#CDCDCC"/>
<path opacity="0.25" d="M88.7742 93.8113H78.0967C77.7129 93.8113 77.4007 93.499 77.4007 93.1152C77.4007 92.7314 77.7129 92.4192 78.0967 92.4192H88.7742C89.158 92.4192 89.4703 92.7314 89.4703 93.1152C89.4703 93.499 89.158 93.8113 88.7742 93.8113Z" fill="#CDCDCC"/>
<path opacity="0.25" d="M102.84 93.8113H92.163C91.7792 93.8113 91.4669 93.499 91.4669 93.1152C91.4669 92.7314 91.7792 92.4192 92.163 92.4192H102.84C103.224 92.4192 103.537 92.7314 103.537 93.1152C103.537 93.499 103.224 93.8113 102.84 93.8113Z" fill="#CDCDCC"/>
<path opacity="0.25" d="M116.907 93.8113H106.229C105.845 93.8113 105.533 93.499 105.533 93.1152C105.533 92.7314 105.845 92.4192 106.229 92.4192H116.907C117.291 92.4192 117.603 92.7314 117.603 93.1152C117.603 93.499 117.291 93.8113 116.907 93.8113Z" fill="#CDCDCC"/>
<path opacity="0.25" d="M130.973 93.8113H120.296C119.912 93.8113 119.6 93.499 119.6 93.1152C119.6 92.7314 119.912 92.4192 120.296 92.4192H130.973C131.357 92.4192 131.669 92.7314 131.669 93.1152C131.669 93.499 131.357 93.8113 130.973 93.8113Z" fill="#CDCDCC"/>
<path opacity="0.25" d="M51.1574 97.3055H40.1656C39.7818 97.3055 39.4696 96.9932 39.4696 96.6094C39.4696 96.2256 39.7818 95.9134 40.1656 95.9134H51.1574C51.5412 95.9134 51.8534 96.2256 51.8534 96.6094C51.8534 96.9932 51.5412 97.3055 51.1574 97.3055Z" fill="#CDCDCC"/>
<path opacity="0.25" d="M74.7079 97.3055H64.0304C63.6466 97.3055 63.3343 96.9932 63.3343 96.6094C63.3343 96.2256 63.6466 95.9134 64.0304 95.9134H74.7079C75.0917 95.9134 75.4039 96.2256 75.4039 96.6094C75.4039 96.9932 75.0917 97.3055 74.7079 97.3055Z" fill="#CDCDCC"/>
<path opacity="0.25" d="M88.7742 97.3055H78.0967C77.7129 97.3055 77.4007 96.9932 77.4007 96.6094C77.4007 96.2256 77.7129 95.9134 78.0967 95.9134H88.7742C89.158 95.9134 89.4703 96.2256 89.4703 96.6094C89.4703 96.9932 89.158 97.3055 88.7742 97.3055Z" fill="#CDCDCC"/>
<path opacity="0.25" d="M102.84 97.3055H92.163C91.7792 97.3055 91.4669 96.9932 91.4669 96.6094C91.4669 96.2256 91.7792 95.9134 92.163 95.9134H102.84C103.224 95.9134 103.537 96.2256 103.537 96.6094C103.537 96.9932 103.224 97.3055 102.84 97.3055Z" fill="#CDCDCC"/>
<path opacity="0.25" d="M116.907 97.3055H106.229C105.845 97.3055 105.533 96.9932 105.533 96.6094C105.533 96.2256 105.845 95.9134 106.229 95.9134H116.907C117.291 95.9134 117.603 96.2256 117.603 96.6094C117.603 96.9932 117.291 97.3055 116.907 97.3055Z" fill="#CDCDCC"/>
<path opacity="0.25" d="M130.973 97.3055H120.296C119.912 97.3055 119.6 96.9932 119.6 96.6094C119.6 96.2256 119.912 95.9134 120.296 95.9134H130.973C131.357 95.9134 131.669 96.2256 131.669 96.6094C131.669 96.9932 131.357 97.3055 130.973 97.3055Z" fill="#CDCDCC"/>
<path opacity="0.25" d="M80.4593 61.7071H69.4676C69.0838 61.7071 68.7716 61.3949 68.7716 61.0111C68.7716 60.6272 69.0838 60.315 69.4676 60.315H80.4593C80.8432 60.315 81.1554 60.6272 81.1554 61.0111C81.1554 61.3949 80.8432 61.7071 80.4593 61.7071Z" fill="#CDCDCC"/>
<path d="M135.07 63.9763L135.857 65.7383L137.14 64.5809L136.235 62.0174L135.07 63.9763Z" fill="#F3DED7"/>
<path d="M134.612 64.0877C134.398 64.1156 134.193 64.1136 134.074 64.038C133.294 63.155 133.56 60.5517 133.56 60.5517L134.473 59.7642L135.869 60.4165L136.233 61.8464C136.331 62.3177 136.197 63.1451 135.875 63.503C135.519 63.8153 135.082 64.0261 134.612 64.0877Z" fill="#FAD9C6"/>
<path d="M134.404 73.4227C134.404 73.4227 134.087 73.8802 133.457 74.0969C132.827 74.3137 128.129 73.3273 128.129 73.3273L127.187 73.4267C126.693 73.562 126.17 73.5341 125.693 73.3492L124.311 72.8142L132.415 72.6452L135.517 68.793L134.404 73.4227Z" fill="#FAD9C6"/>
<path d="M137.14 64.5808C137.14 64.5808 139.014 66.9793 139.451 68.5563C139.889 70.1334 140.046 74.4807 140.046 74.4807H136.104C136.104 74.4807 134.972 72.4304 134.093 70.5689C133.829 70.0101 133.819 69.3657 134.07 68.8009C134.712 67.3432 135.678 65.3405 135.678 65.3405L137.14 64.5808Z" fill="#B3B4B5"/>
<path d="M135.139 100.722L134.827 101.535C134.75 101.758 134.6 101.949 134.402 102.076C134.181 102.218 133.837 102.412 133.326 102.566C133.952 103.101 134.949 102.542 135.519 102.146C135.798 101.953 135.995 101.667 136.076 101.339L136.207 100.722H135.139Z" fill="#FAD9C6"/>
<path d="M136.138 101.144C136.138 101.144 136.561 101.476 136.484 101.901C136.406 102.325 136.297 103.319 136.297 103.319H135.861L135.875 102.393C135.873 102.333 134.941 103.319 134.783 103.319H132.479C132.479 103.319 132.325 102.695 133.68 102.492C135.032 102.293 136.138 101.144 136.138 101.144Z" fill="#5E5E5E"/>
<path d="M139.62 100.722L139.308 101.535C139.23 101.758 139.081 101.949 138.882 102.076C138.661 102.218 138.317 102.412 137.806 102.566C138.433 103.101 139.429 102.542 140 102.146C140.278 101.953 140.475 101.667 140.557 101.339L140.688 100.722H139.62Z" fill="#FAD9C6"/>
<path d="M140.618 101.144C140.618 101.144 141.042 101.476 140.964 101.901C140.887 102.325 140.777 103.319 140.777 103.319H140.342L140.356 102.393C140.354 102.333 139.421 103.319 139.264 103.319H136.959C136.959 103.319 136.806 102.695 138.16 102.492C139.513 102.293 140.618 101.144 140.618 101.144Z" fill="#5E5E5E"/>
<path d="M136.104 74.5504C136.104 74.5504 134.149 77.4818 135.822 89.1656C135.559 93.5826 135.068 100.849 135.068 100.849H136.178C136.178 100.849 139.254 93.1072 138.222 89.2511C137.977 85.4307 138.922 74.4788 138.922 74.4788L136.104 74.5504Z" fill="#484848"/>
<path d="M140.046 74.4808C140.046 74.4808 142.092 76.1274 142.092 78.5716C142.092 80.4887 141.167 84.4622 140.638 87.0615C140.445 88.0061 140.64 88.9806 140.907 89.9073C141.989 93.678 140.674 100.849 140.674 100.849H139.57C139.57 100.849 139.511 97.1602 137.999 88.8931C136.265 79.3969 136.106 74.4808 136.106 74.4808H140.046Z" fill="#5E5E5E"/>
<path d="M124.088 72.8162H130.526V72.3429H124.372L121.64 67.1463L121.22 67.3651L124.088 72.8162Z" fill="#E4E4E4"/>
<path d="M138.924 68.978C138.924 68.978 136.868 73.7648 135.879 73.7648C134.891 73.7648 129.42 71.4241 129.42 71.4241L129.565 70.6067L135.151 71.5534C135.151 71.5534 135.647 70.2329 135.991 68.7214C136.126 68.1208 136.591 67.6316 137.196 67.5183C138.516 67.2677 138.924 68.978 138.924 68.978Z" fill="#FAD9C6"/>
<path d="M136.195 61.381C136.195 61.381 135.585 61.7489 133.72 60.5537C133.433 60.6292 133.891 57.9385 136.305 58.728C137.995 59.2809 137.914 60.9176 137.836 61.8225C137.753 62.8009 138.262 63.4453 138.934 64.1612C139.499 64.7618 139.489 65.8636 139.865 66.4582C140.328 67.1881 140.817 67.1463 141.183 67.8861C141.567 68.6617 141.619 69.6103 141.106 70.3064C140.813 70.7022 140.133 71.6567 139.055 71.3167C138.451 71.1258 138.288 70.0697 138.262 69.1808C138.238 68.3893 137.854 67.6534 137.236 67.1602C136.655 66.6969 136.02 66.0644 135.849 65.4022C135.515 64.1055 136.195 61.381 136.195 61.381Z" fill="#4B4B4B"/>
<path d="M136.414 61.4327C136.271 61.3333 136.042 61.3949 135.903 61.5679C135.766 61.7429 135.77 61.9657 135.913 62.0651C136.056 62.1646 136.285 62.1029 136.424 61.9299C136.563 61.7549 136.559 61.5321 136.414 61.4327Z" fill="#FAD9C6"/>
<path d="M126.506 71.0264C126.492 70.909 126.558 70.7957 126.665 70.7499L127.716 70.2925C127.976 70.1792 128.268 70.1672 128.537 70.2567L129.579 70.6028L129.72 70.6087L129.832 71.5773C129.623 71.5017 129.501 71.454 129.501 71.454L128.843 71.2153C128.843 71.2153 127.405 72.4344 126.892 71.3267C126.739 72.4225 126.427 72.3012 126.427 72.3012L126.506 71.0264Z" fill="#FAD9C6"/>
<path d="M137.122 60.4383C136.915 61.1881 135.851 61.546 134.746 61.2418C133.64 60.9355 133.039 60.1062 133.117 59.3326C133.22 58.3183 134.388 58.2249 135.493 58.5291C136.601 58.8354 137.329 59.6906 137.122 60.4383Z" fill="#4B4B4B"/>
<path d="M26.2107 67.0012C26.2107 66.9992 24.0788 63.2186 26.4275 63.2186C26.8571 63.2186 27.3045 62.9621 28.6529 63.8809C30.1922 64.9309 30.053 66.0506 30.751 67.4487C32.0218 69.9922 33.6963 71.452 33.8156 71.9671C34.1338 73.3492 32.0357 73.4646 31.1428 73.4168C30.1703 73.3631 26.7278 67.916 26.2107 67.0012Z" fill="#E4E4E4"/>
<path d="M37.2263 69.2266L38.0059 70.3184C38.0059 70.3184 31.0772 75.4413 30.582 72.7705C30.0848 70.0996 37.2263 69.2266 37.2263 69.2266Z" fill="#E4E4E4"/>
<path d="M38.0039 70.3184L38.3639 70.1971C38.7596 70.0639 39.0758 69.7596 39.225 69.3698C39.2787 69.2286 39.2449 69.0715 39.1395 68.9641L39.1136 68.9263C38.8968 68.6081 38.4673 68.5167 38.1391 68.7175L37.9999 68.803L37.2223 69.2266L38.0039 70.3184Z" fill="#FAD9C6"/>
<path d="M25.7255 61.3154L26.1391 63.1212L24.1882 63.4434L24.228 60.5597L25.7255 61.3154Z" fill="#F3DED7"/>
<path d="M25.9184 62.0512C26.1451 62.081 26.3619 62.081 26.4852 62.0094C27.2906 61.1642 26.9585 58.4834 26.9585 58.4834L25.986 57.8748L24.5263 58.4893L24.1743 60.1937C24.0808 60.6491 24.23 61.1244 24.576 61.4724C24.9598 61.7767 25.4232 61.9855 25.9184 62.0512Z" fill="#FAD9C6"/>
<path d="M24.58 59.4976C24.6993 59.2212 24.7689 58.549 25.0533 58.6445C25.2621 58.7141 25.99 58.8632 26.2386 58.901C26.8272 58.9965 27.9131 58.9348 28.0563 58.0379C28.1279 57.5904 27.756 57.135 27.4994 56.9759C27.2469 56.8188 26.9426 56.777 26.6502 56.8288C25.9661 56.9501 25.0254 57.312 24.6933 57.1887C24.1345 56.9799 23.5061 57.2265 23.4345 57.7177C23.3589 58.2427 23.5061 59.074 23.683 59.615C23.7845 59.9292 24.1464 60.4781 24.1464 60.4781L24.58 59.4976Z" fill="#4B4B4B"/>
<path d="M23.9734 59.4659C24.1226 59.3704 24.3652 59.4321 24.5143 59.6031C24.6635 59.7741 24.6615 59.9889 24.5124 60.0824C24.3632 60.1778 24.1206 60.1162 23.9714 59.9452C23.8223 59.7761 23.8223 59.5593 23.9734 59.4659Z" fill="#FAD9C6"/>
<path d="M25.1965 63.0078C28.979 63.0078 28.9452 68.6538 28.9452 68.6538L28.8458 76.4775H21.1514L21.0142 68.1646C21.0142 68.1626 21.4139 63.0078 25.1965 63.0078Z" fill="#E4E4E4"/>
<path d="M29.9635 103.027C29.9635 103.027 30.6555 103.669 32.2326 104.071C32.5806 104.159 32.9545 104.041 32.9545 104.614C32.2187 104.614 31.0394 104.614 31.0394 104.614L29.4464 104.34V104.614H28.5873C28.5873 104.614 28.3486 103.208 28.8498 103.027C29.3151 103.027 29.9635 103.027 29.9635 103.027Z" fill="#4B4B4B"/>
<path d="M29.7944 102.017L29.9635 103.027C29.6492 103.244 29.2376 103.258 28.9094 103.063L28.8498 103.027L28.9353 102.017H29.7944Z" fill="#FAD9C6"/>
<path d="M28.8458 76.4775L30.0649 102.353H28.6211C28.6211 102.353 26.348 94.3323 26.3619 90.6571C26.3639 90.2912 26.3221 89.9272 26.2227 89.5752C24.934 84.9932 23.7149 76.4775 23.7149 76.4775H28.8458Z" fill="#4B4B4B"/>
<path d="M23.4106 103.027C23.4106 103.027 24.1027 103.669 25.6797 104.071C26.0278 104.159 26.4016 104.041 26.4016 104.614C25.6658 104.614 24.4865 104.614 24.4865 104.614L22.8935 104.34V104.614H22.0344C22.0344 104.614 21.7957 103.208 22.2969 103.027C22.7623 103.027 23.4106 103.027 23.4106 103.027Z" fill="#4B4B4B"/>
<path d="M23.2396 102.017L23.4086 103.027C23.0944 103.244 22.6827 103.258 22.3546 103.063L22.2949 103.027L22.3804 102.017H23.2396Z" fill="#FAD9C6"/>
<path d="M21.1514 76.4775C21.1514 76.4775 20.4553 83.5772 21.5432 88.3184C21.6665 88.8553 21.7142 89.4062 21.6645 89.9551C20.9923 97.1742 22.0841 102.355 22.0841 102.355H23.3688L27.1792 76.4794H21.1514V76.4775Z" fill="#5E5E5E"/>
<path d="M23.7149 63.316L24.1206 62.5046H25.9979L26.4275 63.2166L23.7149 63.316Z" fill="white"/>
<path d="M21.7599 75.9007L21.929 76.2408C22.1139 76.6146 22.1239 77.0541 21.9529 77.434C21.8912 77.5712 21.756 77.6587 21.6068 77.6607C21.6068 77.6607 19.815 78.1678 19.9462 77.6786C20.0775 77.1894 20.688 76.9686 20.688 76.9686L20.4394 76.1194L21.7599 75.9007Z" fill="#FAD9C6"/>
<path d="M17.8362 67.1702C18.3433 67.8941 18.9061 68.5802 19.5047 69.2305C19.7274 69.4711 19.9741 69.7476 20.2445 70.0041L19.8189 70.4058L21.7579 75.9007L20.4354 76.1214C20.4354 76.1214 17.329 71.8715 16.4639 70.0896C16.1278 69.3955 16.8418 68.2779 17.8362 67.1702Z" fill="#7C7C7C"/>
<path d="M23.1978 63.2166C20.8471 63.2166 15.6008 68.3058 16.4659 70.0877C17.331 71.8696 20.4374 76.1195 20.4374 76.1195L21.7599 75.8987L19.8209 70.4039L23.4146 66.9992C23.4146 67.0012 25.5465 63.2166 23.1978 63.2166Z" fill="#E4E4E4"/>
<path d="M28.7682 75.9603C28.7901 75.8072 28.8418 75.656 28.9234 75.5228C28.9313 75.5089 28.9353 75.495 28.9432 75.483L29.0307 68.6557C29.0307 68.5742 29.0307 67.365 28.6549 66.0743C28.6131 66.14 28.5713 66.2056 28.5276 66.2692C28.8597 67.5042 28.8617 68.6358 28.8617 68.6537L28.7682 75.9603Z" fill="white"/>
<path d="M39.3582 63.32C39.3582 63.32 40.5475 64.37 40.5475 65.0681C40.5475 65.7661 40.6867 66.327 40.8279 66.5378C40.9691 66.7486 41.4583 67.377 40.7583 67.1682C40.0582 66.9574 40.1994 66.9574 40.1994 67.2378C40.1994 67.5182 40.1994 67.9378 39.7798 67.6574C39.3602 67.377 39.1494 67.1682 39.1494 67.1682C39.1494 67.1682 39.4994 68.0074 39.919 68.0074C39.919 68.0074 39.7082 68.7771 39.0102 68.9163C38.3121 69.0555 37.8905 68.427 37.8905 68.427L39.3582 63.32Z" fill="#E4E4E4"/>
<path d="M37.8985 68.3138C38.0974 68.3555 38.6582 67.7967 39.0778 65.7682C39.4974 63.7397 39.567 63.3897 39.3582 63.3201C39.1474 63.2505 38.7914 63.9704 38.2386 65.4898C37.6777 67.0271 37.6996 68.272 37.8985 68.3138Z" fill="#767777"/>
<path d="M39.8116 65.8019C39.8116 65.8019 40.3705 65.5215 40.3705 65.8715C40.3705 66.2215 39.8116 65.8019 39.8116 65.8019Z" fill="white"/>
<path opacity="0.25" d="M37.5843 67.5481C37.9641 67.5481 38.3539 67.3273 38.7278 66.8958C39.0639 66.508 39.2687 66.0943 39.2767 66.0764L39.1414 66.0188C39.1335 66.0347 38.338 67.6396 37.3715 67.3791C37.2144 67.3373 37.1288 67.2697 37.109 67.1742C37.0314 66.8103 37.7732 66.148 38.0954 65.9074L38.169 65.6966L38.0795 65.7543C37.9542 65.8477 36.8544 66.687 36.9638 67.2001C36.9956 67.3492 37.1189 67.4546 37.3317 67.5123C37.4152 67.5362 37.4988 67.5481 37.5843 67.5481Z" fill="#CDCDCC"/>
<path d="M39.2091 66.1879C39.2914 66.1879 39.3582 66.1255 39.3582 66.0486C39.3582 65.9718 39.2914 65.9094 39.2091 65.9094C39.1267 65.9094 39.0599 65.9718 39.0599 66.0486C39.0599 66.1255 39.1267 66.1879 39.2091 66.1879Z" fill="#CDCDCC"/>
<path d="M39.4278 67.8662L38.3778 69.5447L38.6582 70.0339C38.6582 70.0339 39.6386 69.4035 39.7082 68.6339C39.7778 67.8662 39.4278 67.8662 39.4278 67.8662Z" fill="#FAD9C6"/>
<path d="M102.495 26.3296L98.8856 26.0154C98.4024 26.0253 97.8555 26.1148 97.7302 26.5225C97.7302 26.5225 97.6447 26.793 97.6307 27.0674C97.7461 27.2285 102.547 27.4691 102.547 27.4691L102.569 27.4532C103.128 26.8864 102.495 26.3296 102.495 26.3296Z" fill="#5E5E5E"/>
<path d="M97.6308 27.0674L102.547 27.4692L102.487 27.6561L97.6089 27.2385L97.6308 27.0674Z" fill="#5E5E5E"/>
<path d="M101.067 26.2023L100.741 26.1765L100.805 26.6279L101.121 26.6537L101.067 26.2023Z" fill="white"/>
<path d="M100.369 26.1427L100.045 26.1168L100.109 26.5683L100.423 26.5941L100.369 26.1427Z" fill="white"/>
<path d="M102.847 25.1484L102.497 26.3297C102.195 26.451 101.817 26.4271 101.527 26.27L101.473 26.2422L101.401 25.027L102.847 25.1484Z" fill="#FAD9C6"/>
<path d="M113.777 4.30646L114.583 5.91932L113.195 6.4344L112.56 5.12581L113.777 4.30646Z" fill="#F3DED7"/>
<path d="M113.399 1.40094L113.97 3.6144C113.751 3.67406 113.696 3.94651 113.801 4.13743C113.793 4.19312 113.799 4.25278 113.815 4.30846C113.523 4.69627 112.948 5.26107 112.015 5.36647C110.554 5.53352 110.554 2.6081 110.554 2.6081L113.399 1.40094Z" fill="#FAD9C6"/>
<path d="M114.603 2.82086C114.563 2.65778 114.674 2.25009 114.764 2.10889C115.332 1.1901 114.481 0.915653 114.183 0.834115C113.855 0.744622 113.753 0.22954 113.31 0.0624867C112.636 -0.192071 112.252 0.410515 111.884 0.454267C111.516 0.498019 111.158 0.104251 110.729 0.505974C110.301 0.907698 110.48 1.28754 110.371 1.50432C110.261 1.72109 109.82 1.35317 109.494 2.03332C108.996 3.06945 110.571 2.9541 110.571 2.9541C110.571 2.9541 111.478 3.03564 112.411 2.28589C112.538 2.18247 112.721 2.1606 112.855 2.25805C113.216 2.52652 113.787 4.34224 113.787 4.34224L114.05 3.93653C114.052 3.93852 114.786 3.56862 114.603 2.82086Z" fill="#4B4B4B"/>
<path d="M113.831 3.25837C113.815 3.45128 113.644 3.59447 113.451 3.57856C113.258 3.56265 113.115 3.39162 113.131 3.19871C113.147 3.00581 113.318 2.86262 113.511 2.87853C113.706 2.89643 113.849 3.06547 113.831 3.25837Z" fill="#FAD9C6"/>
<path d="M118.236 16.738C118.236 16.738 118.129 21.3399 114.008 21.9545C109.887 22.569 104.518 18.3509 104.518 18.3509L102.943 25.4049L101.32 25.2657C101.32 25.2657 99.9138 15.0933 102.08 14.3138C104.245 13.5342 112.88 16.2806 112.88 16.2806L118.236 16.738Z" fill="#5E5E5E"/>
<path d="M118.236 16.738L111.355 16.1474C111.355 16.1474 111.719 14.628 111.703 13.0668C111.691 11.8855 111.18 10.8613 111.18 10.8613C111.383 8.23421 112.164 5.63892 114.485 5.76222C118.481 6.46822 118.236 16.738 118.236 16.738Z" fill="#E4E4E4"/>
<path d="M98.5575 8.31573L101.32 14.1845L107.282 13.0807L107.37 13.556L101.041 14.7274L98.12 8.52057L98.5575 8.31573Z" fill="#5E5E5E"/>
<path d="M113.903 11.0404L111.186 10.8077L111.098 13.8365L106.26 12.6552L105.162 12.0248C104.878 11.8617 104.546 11.81 104.225 11.8776L102.933 12.1521C102.799 12.1799 102.7 12.2933 102.688 12.4285L102.304 13.8504C102.304 13.8504 102.628 14.0593 103.056 12.8561C103.382 14.2263 105.287 13.1782 105.287 13.1782L105.977 13.5999C105.977 13.5999 111.299 17.0225 112.532 16.2508C113.761 15.4772 113.903 11.0404 113.903 11.0404Z" fill="#FAD9C6"/>
<path d="M102.686 12.4245C102.698 12.2892 102.797 12.1759 102.931 12.148L104.223 11.8736C104.544 11.806 104.878 11.8577 105.16 12.0208L106.258 12.6512L106.415 12.689L106.32 13.8106C106.101 13.6754 105.975 13.5938 105.975 13.5938L105.285 13.1722C105.285 13.1722 103.38 14.2183 103.054 12.8501C102.628 14.0532 102.302 13.8444 102.302 13.8444L102.686 12.4245Z" fill="#FAD9C6"/>
</svg>
