<svg width="137" height="138" viewBox="0 0 137 138" fill="none" xmlns="http://www.w3.org/2000/svg">
<path d="M118.456 64.381C118.456 66.0051 117.118 67.3236 115.469 67.3236C113.821 67.3236 112.483 66.0051 112.483 64.381C112.483 62.7569 113.821 61.4384 115.469 61.4384C117.118 61.4384 118.456 62.7569 118.456 64.381Z" fill="#CDD7E7"/>
<path d="M108.851 66.5993C110.094 65.3747 110.094 63.3892 108.851 62.1645C107.608 60.9399 105.593 60.9399 104.35 62.1645C103.108 63.3892 103.108 65.3747 104.35 66.5993C105.593 67.824 107.608 67.824 108.851 66.5993Z" fill="#CDD7E7"/>
<path d="M99.7881 62.1615C101.652 62.1615 103.164 60.6724 103.164 58.8355C103.164 56.9986 101.652 55.5094 99.7881 55.5094C97.9239 55.5094 96.4127 56.9986 96.4127 58.8355C96.4127 60.6724 97.9239 62.1615 99.7881 62.1615Z" fill="#CDD7E7"/>
<path d="M101.882 50.922C102.226 49.0326 100.951 47.2259 99.0332 46.8868C97.1157 46.5476 95.2822 47.8043 94.938 49.6937C94.5938 51.5831 95.8692 53.3898 97.7866 53.729C99.7041 54.0682 101.538 52.8114 101.882 50.922Z" fill="#CDD7E7"/>
<path d="M102.724 46.4384C104.736 46.4384 106.368 44.8306 106.368 42.8474C106.368 40.8641 104.736 39.2564 102.724 39.2564C100.711 39.2564 99.0795 40.8641 99.0795 42.8474C99.0795 44.8306 100.711 46.4384 102.724 46.4384Z" fill="#CDD7E7"/>
<path d="M112.558 43.5176C114.583 42.6838 115.539 40.3905 114.692 38.3953C113.846 36.4001 111.519 35.4587 109.494 36.2925C107.469 37.1262 106.514 39.4196 107.36 41.4147C108.206 43.4099 110.534 44.3514 112.558 43.5176Z" fill="#CDD7E7"/>
<path d="M124.875 59.4141C125.239 57.8856 124.278 56.3552 122.726 55.9958C121.175 55.6364 119.622 56.5841 119.257 58.1126C118.893 59.6411 119.855 61.1715 121.406 61.5309C122.957 61.8903 124.51 60.9425 124.875 59.4141Z" fill="#CDD7E7"/>
<path d="M124.56 52.6868C125.941 52.166 126.631 50.6411 126.102 49.2809C125.574 47.9208 124.026 47.2403 122.646 47.7611C121.266 48.282 120.575 49.8068 121.104 51.167C121.632 52.5272 123.18 53.2076 124.56 52.6868Z" fill="#CDD7E7"/>
<path d="M121.56 43.1401C121.776 41.8264 120.87 40.5891 119.537 40.3765C118.204 40.1638 116.948 41.0563 116.732 42.37C116.517 43.6836 117.422 44.9209 118.755 45.1335C120.089 45.3462 121.344 44.4537 121.56 43.1401Z" fill="#CDD7E7"/>
<path fillRule="evenodd" clipRule="evenodd" d="M32.7386 28.5893C33.4757 29.3655 34.0926 30.2258 34.5829 31.1423L37.5313 31.1298L38.629 35.815L35.9717 37.0774C35.9369 38.1155 35.7661 39.1535 35.4466 40.1697L37.5408 42.2177L34.9531 46.295L32.1692 45.338C31.3815 46.0643 30.5084 46.6722 29.5784 47.1553L29.591 50.0637L24.8363 51.1454L23.5551 48.5269C22.5017 48.4926 21.4483 48.3212 20.417 48.0095L18.3386 50.073L14.2008 47.5232L15.172 44.78C14.4349 44.0039 13.818 43.1435 13.3277 42.2271L10.3762 42.2395L9.27844 37.5544L11.9357 36.2919C11.9705 35.2539 12.1445 34.2159 12.4609 33.1996L10.3667 31.1516L12.9544 27.0743L15.7382 28.0313C16.5259 27.305 17.399 26.6972 18.3291 26.2109L18.3164 23.3025L23.0711 22.2209L24.3523 24.8393C25.4057 24.8736 26.4592 25.045 27.4905 25.3568L29.5657 23.2932L33.7035 25.8431L32.7386 28.5893ZM26.9179 32.4266C24.4662 30.9147 21.2363 31.6504 19.702 34.0662C18.1678 36.4821 18.9143 39.6647 21.366 41.1766C23.8177 42.6884 27.0476 41.9527 28.5819 39.5369C30.1161 37.1211 29.3727 33.9384 26.9179 32.4266Z" fill="#CDD7E7"/>
<path fillRule="evenodd" clipRule="evenodd" d="M35.6142 8.87924C36.0223 9.30942 36.364 9.78635 36.636 10.2945L38.2684 10.2882L38.8758 12.8817L37.4047 13.58C37.3858 14.1535 37.2909 14.7302 37.1137 15.2913L38.2715 16.426L36.8385 18.6828L35.2979 18.1529C34.8613 18.555 34.3773 18.8917 33.8617 19.1598L33.868 20.7682L31.236 21.3667L30.5274 19.9172C29.9453 19.8985 29.3601 19.805 28.7906 19.6305L27.6423 20.7714L25.352 19.3593L25.8898 17.8412C25.4817 17.411 25.14 16.9341 24.868 16.426L23.2356 16.4322L22.6282 13.8387L24.0992 13.1405C24.1182 12.5669 24.2131 11.9902 24.3903 11.4291L23.2325 10.2945L24.6655 8.0376L26.2061 8.56752C26.6427 8.16541 27.1267 7.82875 27.6423 7.56067L27.636 5.95219L30.268 5.35369L30.9766 6.80319C31.5587 6.82189 32.1439 6.91541 32.7133 7.08997L33.8617 5.94908L36.152 7.36117L35.6142 8.87924ZM32.3907 11.0052C31.0335 10.1698 29.2462 10.575 28.3952 11.9123C27.5474 13.2496 27.9587 15.0108 29.3158 15.8493C30.6729 16.6847 32.4603 16.2795 33.3112 14.9422C34.159 13.6018 33.7478 11.8406 32.3907 11.0052Z" fill="#CDD7E7"/>
<path d="M12.7044 13.6766C12.7076 13.6735 12.7519 13.6984 12.8373 13.7483C12.9227 13.7982 13.0398 13.8855 13.1726 14.0164C13.4384 14.272 13.7768 14.7458 13.8464 15.4222C13.8812 15.7558 13.8496 16.133 13.7009 16.5039C13.5522 16.8717 13.3087 17.2396 12.9449 17.5139C12.7677 17.6542 12.5652 17.7695 12.3438 17.8568C12.1224 17.9441 11.8851 18.0002 11.6384 18.0189C11.1449 18.0625 10.6229 17.9378 10.1737 17.6666C9.73079 17.3892 9.38597 16.9808 9.21198 16.5226C9.11708 16.2982 9.06646 16.0613 9.05064 15.8275C9.03166 15.5937 9.04748 15.363 9.09809 15.1448C9.18983 14.7053 9.4176 14.325 9.6865 14.0351C9.95855 13.7421 10.2907 13.5488 10.6102 13.4335C11.2587 13.2028 11.8376 13.2932 12.1856 13.4179C12.3628 13.4802 12.4956 13.5457 12.5779 13.5987C12.6633 13.6423 12.7076 13.6704 12.7044 13.6766C12.6949 13.6922 12.5241 13.5737 12.1698 13.4646C11.8218 13.3587 11.2619 13.2901 10.6482 13.5239C10.3445 13.6423 10.0345 13.8294 9.77824 14.113C9.52516 14.3936 9.31321 14.7552 9.23096 15.1698C9.18351 15.3755 9.17085 15.5937 9.18983 15.815C9.20565 16.0363 9.25627 16.2577 9.34484 16.4696C9.51251 16.8967 9.83518 17.2801 10.2528 17.5419C10.6735 17.7944 11.1638 17.9129 11.6257 17.8755C11.8566 17.8599 12.0844 17.81 12.29 17.7259C12.4988 17.6479 12.6918 17.5388 12.8594 17.4079C13.2043 17.1523 13.4384 16.8063 13.5839 16.4603C13.7294 16.1112 13.7642 15.7527 13.7389 15.4316C13.6819 14.7832 13.3751 14.3188 13.1252 14.0569C12.8784 13.792 12.6949 13.6891 12.7044 13.6766Z" fill="#CDD7E7"/>
<path d="M15.3143 11.9559C15.3112 11.9559 15.3206 11.931 15.3365 11.878C15.3554 11.8188 15.3807 11.7408 15.4124 11.6442C15.4851 11.4291 15.5895 11.1205 15.7256 10.7184L15.7351 10.7464C15.2574 10.4565 14.631 10.0763 13.8718 9.6149L13.9192 9.60867C13.6377 9.88922 13.3245 10.2041 12.9923 10.5376L12.9734 10.5563L12.9481 10.5501C12.5241 10.4223 12.0528 10.3381 11.553 10.3256H11.5245L11.5118 10.3007C11.3315 9.93598 11.1354 9.54009 10.9329 9.12862L10.993 9.15668C10.3224 9.31254 9.6106 9.47463 8.86086 9.64608L8.90515 9.58997C8.90832 9.9952 8.91148 10.4378 8.91148 10.893V10.9304L8.87984 10.9491C8.49074 11.1517 8.09214 11.4229 7.73151 11.7564L7.70304 11.7814L7.66508 11.7689C7.27914 11.6348 6.85207 11.4915 6.41551 11.3418L6.4946 11.3138C6.1308 11.8873 5.73853 12.5077 5.33677 13.1436L5.32728 13.0594C5.62148 13.3462 5.94099 13.6579 6.26683 13.9759L6.29846 14.007L6.28581 14.0476C6.15611 14.4621 6.07069 14.936 6.05488 15.416V15.4597L6.01692 15.4784C5.64363 15.656 5.23554 15.8493 4.82429 16.0457L4.86225 15.9646C5.01726 16.6317 5.18493 17.3424 5.35575 18.0656L5.28299 18.0095C5.70057 18.0064 6.15294 18.0064 6.60532 18.0033H6.64961L6.67175 18.0438C6.88054 18.4335 7.15576 18.8262 7.48792 19.1722C7.49425 19.2065 7.47211 19.0974 7.50374 19.2471V19.2502L7.50058 19.2564L7.49741 19.2658L7.49109 19.2845L7.47843 19.3219L7.44996 19.3998L7.39618 19.5557L7.28546 19.8643C7.2127 20.07 7.13994 20.2726 7.06718 20.4783L7.03555 20.3911C7.66191 20.7776 8.28195 21.1579 8.8925 21.5351L8.80076 21.5444C9.11394 21.2327 9.42396 20.9241 9.73398 20.6186L9.76561 20.5874L9.80674 20.5999C10.2623 20.7402 10.7305 20.815 11.1955 20.8306H11.2398L11.2588 20.868C11.4517 21.2639 11.6447 21.6566 11.8314 22.0432L11.7523 22.0058C12.4799 21.8406 13.1916 21.6816 13.8844 21.5226L13.8307 21.5881C13.8307 21.1454 13.8275 20.7121 13.8275 20.2851V20.2446L13.8623 20.2259C14.2894 20.0045 14.6753 19.7333 15.0106 19.4216L15.0391 19.3967L15.0771 19.4091C15.5041 19.5588 15.9185 19.7022 16.3235 19.8424L16.2507 19.8674C16.662 19.2252 17.0479 18.6174 17.4149 18.0407L17.4243 18.1093C17.0953 17.7851 16.7853 17.4827 16.488 17.1897L16.4658 17.1679L16.4753 17.1367C16.624 16.6629 16.6967 16.2015 16.7126 15.762V15.734L16.7379 15.7215C17.1713 15.5158 17.5635 15.3318 17.9305 15.1604L17.9147 15.2072C17.728 14.3936 17.5699 13.6984 17.4338 13.1031L17.4655 13.128C16.9372 13.1249 16.5038 13.1249 16.1431 13.1249H16.1273L16.121 13.1124C15.8996 12.6916 15.6844 12.4079 15.5389 12.2271C15.4662 12.1398 15.4124 12.0744 15.3713 12.0245C15.3301 11.9777 15.3143 11.9559 15.3143 11.9559C15.3175 11.9559 15.3396 11.9746 15.3776 12.0151C15.4187 12.0557 15.4788 12.1211 15.5547 12.2115C15.7066 12.3892 15.9312 12.6698 16.1621 13.0906L16.14 13.0781C16.5006 13.075 16.934 13.0688 17.4623 13.0625H17.4876L17.4939 13.0875C17.6363 13.6797 17.8008 14.3749 17.9969 15.1885L18.0064 15.2227L17.9748 15.2383C17.6078 15.416 17.2187 15.603 16.7853 15.8088L16.8138 15.7683C16.8011 16.214 16.7315 16.6847 16.5797 17.171L16.567 17.118C16.8676 17.411 17.1776 17.7103 17.5098 18.0345L17.5414 18.0656L17.5161 18.103C17.1491 18.6828 16.7663 19.2907 16.3583 19.936L16.333 19.9765L16.2855 19.9609C15.8806 19.8206 15.463 19.6803 15.0359 19.5338L15.1024 19.5214C14.7575 19.8393 14.3621 20.1199 13.9256 20.3474L13.9604 20.2882C13.9635 20.7153 13.9635 21.1485 13.9667 21.5912V21.6442L13.9129 21.6566C13.2201 21.8156 12.5083 21.9777 11.7807 22.1429L11.727 22.1554L11.7016 22.1055C11.5118 21.719 11.3189 21.3293 11.1259 20.9303L11.1892 20.9709C10.7115 20.9553 10.2306 20.8773 9.76245 20.7371L9.83521 20.7184C9.52835 21.0239 9.21833 21.3325 8.90515 21.6442L8.86403 21.6847L8.81341 21.6535C8.20286 21.2763 7.58283 20.8961 6.95646 20.5095L6.90585 20.4783L6.92483 20.4222C6.99759 20.2196 7.07035 20.0139 7.14311 19.8081L7.25383 19.4995L7.30761 19.3437L7.33608 19.2658L7.34873 19.2283L7.35506 19.2096L7.35822 19.2003L7.36139 19.1941V19.1909C7.39302 19.3406 7.37088 19.2315 7.3772 19.2658C7.03555 18.9073 6.754 18.5052 6.53889 18.1062L6.60532 18.1467C6.14978 18.1498 5.70057 18.1498 5.28299 18.1498H5.22289L5.21023 18.0937C5.04257 17.3705 4.87491 16.6567 4.7199 15.9927L4.70724 15.9366L4.76102 15.9116C5.17227 15.7153 5.58036 15.522 5.95365 15.3474L5.91252 15.4098C5.92834 14.9141 6.01692 14.431 6.15294 14.0039L6.17192 14.0725C5.84609 13.7545 5.52658 13.4397 5.23554 13.1529L5.19758 13.1155L5.22605 13.0688C5.63097 12.4329 6.02324 11.8156 6.3902 11.2421L6.41868 11.1984L6.46929 11.2171C6.90268 11.3668 7.32975 11.5164 7.71569 11.6504L7.64926 11.6629C8.01938 11.3231 8.43063 11.0457 8.82607 10.84L8.79443 10.893C8.79443 10.4378 8.79443 9.99209 8.79127 9.58997V9.54321L8.83556 9.53386C9.58529 9.36553 10.2971 9.20655 10.9709 9.05381L11.012 9.04446L11.031 9.08186C11.2303 9.49333 11.4233 9.89233 11.6036 10.257L11.5625 10.229C12.0718 10.2477 12.5495 10.335 12.9828 10.469L12.9386 10.4784C13.2771 10.1479 13.5902 9.83623 13.8749 9.55879L13.8971 9.53697L13.9224 9.55256C14.6753 10.0233 15.2985 10.4129 15.7699 10.709L15.7857 10.7184L15.7793 10.7371C15.6338 11.1299 15.5231 11.4322 15.444 11.6442C15.4061 11.744 15.3776 11.8219 15.3554 11.878C15.327 11.9279 15.3175 11.9528 15.3143 11.9559Z" fill="#CDD7E7"/>
<path d="M91.0411 0.269536L81.7406 0.225895C80.4942 0.219661 79.4787 1.25769 79.4724 2.54197L79.4661 4.20344C79.4597 5.48773 78.4443 6.52576 77.1979 6.51952L59.0681 6.43847C57.8217 6.43224 56.8157 5.38798 56.8189 4.10057L56.8252 2.43911C56.8315 1.15482 55.8224 0.107441 54.576 0.101207L51.305 0.0856211L43.1654 0.048215C39.1225 0.0295118 35.8293 3.24646 35.8135 7.23024L35.3168 122.903C35.301 126.884 38.5594 130.126 42.6023 130.145L90.4781 130.363C94.521 130.381 97.8141 127.165 97.8299 123.181L98.3266 7.50767C98.3424 3.52701 95.0809 0.285122 91.0411 0.269536Z" fill="white"/>
<path d="M91.0411 0.26954C91.0411 0.26954 91.1266 0.272656 91.2911 0.278891C91.4556 0.294477 91.7086 0.278892 92.0313 0.338118C92.6798 0.416048 93.6637 0.628017 94.7709 1.28575C95.3308 1.60058 95.897 2.04946 96.4348 2.62614C96.9695 3.20283 97.4661 3.9229 97.8173 4.78325C98.1747 5.64048 98.3677 6.64421 98.3519 7.7103C98.3487 8.77638 98.3456 9.90792 98.3424 11.1112C98.3076 20.7215 98.257 34.6211 98.1937 51.8C98.1241 68.9789 98.0419 89.4339 97.9533 112.146C97.9406 114.986 97.9312 117.86 97.9185 120.768C97.9153 121.494 97.9122 122.224 97.909 122.956C97.8964 123.689 97.8457 124.44 97.6211 125.151C97.4092 125.862 97.1055 126.554 96.6816 127.174C96.2577 127.794 95.742 128.352 95.1536 128.829C93.9642 129.764 92.4742 130.357 90.9304 130.425C90.5445 130.45 90.1649 130.444 89.7821 130.444L88.6338 130.438C87.8682 130.434 87.0995 130.431 86.3308 130.428C83.2527 130.416 80.1462 130.4 77.0112 130.388C70.7412 130.36 64.3574 130.332 57.8818 130.3C54.6424 130.285 51.3809 130.272 48.0972 130.257C46.4554 130.251 44.8072 130.241 43.1559 130.235C41.4982 130.313 39.7868 129.873 38.4075 128.923C37.0219 127.978 36.0033 126.554 35.5319 124.973C35.2789 124.184 35.2346 123.349 35.2377 122.539C35.2409 121.728 35.2441 120.918 35.2472 120.107C35.2599 116.872 35.2757 113.655 35.2884 110.463C35.3168 104.079 35.3421 97.788 35.3706 91.6097C35.4244 79.25 35.4782 67.3267 35.5288 55.9677C35.5794 44.6086 35.63 33.8168 35.6743 23.7171C35.6964 18.6673 35.7186 13.7888 35.7407 9.10057C35.7439 8.51453 35.7471 7.93162 35.7502 7.35182C35.7566 7.06192 35.7787 6.7689 35.7945 6.479C35.8483 6.19222 35.8704 5.90232 35.9464 5.62177C36.2184 4.49646 36.753 3.44285 37.4933 2.57938C38.243 1.71904 39.1794 1.03949 40.2107 0.593729C41.242 0.141735 42.3713 -0.017243 43.4596 0.00146017C45.6392 0.0108118 47.765 0.0232801 49.8403 0.0326317C50.8779 0.0388661 51.8997 0.0419842 52.9088 0.0482186C53.415 0.0513358 53.9148 0.0544532 54.4115 0.0544532C54.9145 0.0326328 55.4333 0.169789 55.8413 0.453454C56.2526 0.73712 56.5658 1.14859 56.7271 1.60994C56.9106 2.07128 56.8663 2.56692 56.8695 3.03138C56.8695 3.26517 56.8663 3.49896 56.8663 3.73275C56.8663 3.96654 56.8568 4.19721 56.8853 4.42165C56.9422 4.87053 57.132 5.3007 57.4294 5.63736C57.7204 5.97713 58.1222 6.22339 58.5524 6.32938C58.7707 6.38237 58.989 6.40107 59.2136 6.39484C59.4382 6.39484 59.6628 6.39795 59.8874 6.39795C60.7827 6.40107 61.6621 6.40731 62.5289 6.41042C65.9897 6.42913 69.2133 6.44471 72.1806 6.4603C73.6643 6.46965 75.0815 6.47589 76.4355 6.48212C76.7708 6.479 77.1124 6.50082 77.4319 6.47277C77.7546 6.43848 78.0646 6.32938 78.3335 6.16417C78.8745 5.83686 79.2414 5.28823 79.368 4.70843C79.4376 4.41853 79.4249 4.1224 79.4281 3.8325C79.4313 3.53948 79.4313 3.2527 79.4344 2.96903C79.4407 2.68849 79.4218 2.40482 79.4755 2.13051C79.523 1.85619 79.6211 1.59435 79.7539 1.36056C80.0197 0.886745 80.4467 0.531384 80.9212 0.350586C81.4021 0.147968 81.9114 0.210313 82.3733 0.204079C84.2492 0.216547 85.8373 0.225899 87.1216 0.232133C88.4028 0.241485 89.3835 0.247719 90.0415 0.253954C90.7058 0.260188 91.0411 0.26954 91.0411 0.26954C91.0411 0.26954 90.7027 0.272656 90.0478 0.272656C89.3898 0.272656 88.4091 0.269539 87.1279 0.266422C85.8436 0.263305 84.2555 0.257071 82.3796 0.253954C81.9146 0.263305 81.4116 0.200961 80.9465 0.400461C80.4815 0.578142 80.0639 0.927269 79.8077 1.38861C79.678 1.61929 79.5863 1.87178 79.5388 2.13986C79.4882 2.40794 79.504 2.68537 79.5008 2.96903C79.5008 3.2527 79.4977 3.53948 79.4977 3.8325C79.4945 4.1224 79.5072 4.42477 79.4376 4.72402C79.3079 5.3194 78.9314 5.8805 78.3747 6.22027C78.0994 6.39172 77.7799 6.50394 77.4446 6.54135C77.1093 6.5694 76.7771 6.54758 76.4386 6.5507C75.0847 6.54446 73.6674 6.54135 72.1838 6.53511C69.2164 6.52264 65.996 6.51017 62.5321 6.49771C61.6653 6.49459 60.7858 6.49147 59.8906 6.48835C59.666 6.48835 59.4414 6.48524 59.2168 6.48524C58.9922 6.48835 58.7549 6.47277 58.5303 6.41666C58.0811 6.30444 57.6603 6.04883 57.3566 5.69347C57.0466 5.34434 56.8473 4.89546 56.7872 4.42788C56.7556 4.19098 56.7651 3.95719 56.7651 3.72651C56.7651 3.49272 56.7682 3.25893 56.7682 3.02514C56.7651 2.55445 56.8094 2.07752 56.629 1.63799C56.474 1.19535 56.1735 0.805698 55.7812 0.534501C55.3858 0.263305 54.9018 0.132383 54.4083 0.154203C53.9116 0.151086 53.4086 0.151086 52.9057 0.147969C51.8965 0.144852 50.8716 0.138617 49.8371 0.1355C47.765 0.126148 45.636 0.116796 43.4564 0.110562C42.3745 0.0949757 41.2705 0.250836 40.255 0.696596C39.2427 1.133 38.319 1.8032 37.585 2.65108C36.8543 3.50208 36.3323 4.53699 36.0634 5.64359C35.9875 5.91791 35.9653 6.20469 35.9147 6.48524C35.8989 6.77202 35.8768 7.05568 35.8704 7.34558C35.8673 7.92538 35.8673 8.5083 35.8641 9.09433C35.8451 13.7826 35.8262 18.661 35.8072 23.7109C35.766 33.8106 35.7218 44.6055 35.6775 55.9646C35.63 67.3236 35.5794 79.2469 35.5288 91.6066C35.5035 97.788 35.475 104.079 35.4497 110.459C35.437 113.651 35.4212 116.865 35.4086 120.104C35.4054 120.915 35.4022 121.725 35.3991 122.535C35.3959 123.343 35.4402 124.15 35.687 124.923C36.1488 126.466 37.1453 127.86 38.4993 128.785C39.8532 129.714 41.5077 130.145 43.1559 130.07C44.8072 130.076 46.4554 130.085 48.0972 130.092C51.3809 130.107 54.6424 130.123 57.8818 130.135C64.3574 130.166 70.7412 130.194 77.0112 130.223C80.1462 130.238 83.2527 130.251 86.3308 130.266C87.0995 130.269 87.8682 130.272 88.6338 130.275L89.7821 130.282C90.1649 130.285 90.5476 130.288 90.9209 130.266C92.4299 130.201 93.8851 129.621 95.0524 128.708C95.6282 128.24 96.1343 127.691 96.5487 127.087C96.9663 126.479 97.2605 125.802 97.4693 125.107C97.6907 124.409 97.7413 123.683 97.754 122.956C97.7572 122.224 97.7603 121.497 97.7635 120.768C97.7761 117.86 97.7888 114.986 97.8014 112.146C97.9058 89.4339 98.0007 68.9789 98.0767 51.8C98.1621 34.6211 98.2285 20.7215 98.276 11.1112C98.2823 9.91104 98.2886 8.77638 98.2949 7.7103C98.3108 6.64733 98.1241 5.65606 97.773 4.80195C97.425 3.94472 96.9347 3.22776 96.4064 2.6542C95.8749 2.08063 95.3118 1.62864 94.7582 1.3138C93.6605 0.656072 92.6798 0.437868 92.0345 0.356821C91.7118 0.29136 91.4587 0.306946 91.2942 0.288243C91.1266 0.275774 91.0411 0.26954 91.0411 0.26954Z" fill="#374361"/>
<path d="M82.4461 36.6878L81.7279 35.8462L83.8696 34.7177L73.9332 31.4041L77.2928 40.8929L78.517 39.3125C78.517 39.3125 84.9452 50.4596 78.517 57.2364C72.1332 63.9664 64.6073 62.5076 64.6073 62.5076L66.0593 67.1771C66.0593 67.1771 77.9065 68.0063 84.2492 57.4608C90.592 46.9184 82.4461 36.6878 82.4461 36.6878Z" fill="#00B3C7"/>
<path d="M52.6526 60.0793L53.3707 60.9209L51.2322 62.0493L61.1686 65.3629L57.8059 55.8742L56.5816 57.4546C56.5816 57.4546 50.1535 46.3075 56.5816 39.5307C62.9655 32.8007 70.4913 34.2595 70.4913 34.2595L69.0393 29.5899C69.0393 29.5899 57.1922 28.7608 50.8494 39.3063C44.5035 49.8486 52.6526 60.0793 52.6526 60.0793Z" fill="#00B3C7"/>
<path d="M82.4461 36.6878L81.7279 35.8462L83.8696 34.7177L73.9332 31.4041L77.2928 40.8929L78.517 39.3125C78.517 39.3125 84.9452 50.4596 78.517 57.2364C72.1332 63.9664 64.6073 62.5076 64.6073 62.5076L66.0593 67.1771C66.0593 67.1771 77.9065 68.0063 84.2492 57.4608C90.592 46.9184 82.4461 36.6878 82.4461 36.6878Z" fill="#00B3C7"/>
<path d="M52.6526 60.0793L53.3707 60.9209L51.2322 62.0493L61.1686 65.3629L57.8059 55.8742L56.5816 57.4546C56.5816 57.4546 50.1535 46.3075 56.5816 39.5307C62.9655 32.8007 70.4913 34.2595 70.4913 34.2595L69.0393 29.5899C69.0393 29.5899 57.1922 28.7608 50.8494 39.3063C44.5035 49.8486 52.6526 60.0793 52.6526 60.0793Z" fill="#00B3C7"/>
<g opacity="0.8">
<path d="M82.4461 36.6878L81.7279 35.8462L83.8696 34.7177L73.9332 31.4041L77.2928 40.8929L78.517 39.3125C78.517 39.3125 84.9452 50.4596 78.517 57.2364C72.1332 63.9664 64.6073 62.5076 64.6073 62.5076L66.0593 67.1771C66.0593 67.1771 77.9065 68.0063 84.2492 57.4608C90.592 46.9184 82.4461 36.6878 82.4461 36.6878Z" fill="white"/>
</g>
<g opacity="0.8">
<path d="M52.6526 60.0793L53.3707 60.9209L51.2322 62.0493L61.1686 65.3629L57.8059 55.8742L56.5816 57.4546C56.5816 57.4546 50.1535 46.3075 56.5816 39.5307C62.9655 32.8007 70.4913 34.2595 70.4913 34.2595L69.0393 29.5899C69.0393 29.5899 57.1922 28.7608 50.8494 39.3063C44.5035 49.8486 52.6526 60.0793 52.6526 60.0793Z" fill="white"/>
</g>
<path fillRule="evenodd" clipRule="evenodd" d="M73.2151 42.8474C73.6927 43.3493 74.0913 43.9072 74.4108 44.4995L76.3216 44.4933L77.0302 47.5263L75.3093 48.343C75.2871 49.0132 75.1764 49.6865 74.9708 50.3443L76.3247 51.6691L74.6481 54.3093L72.8449 53.689C72.3356 54.1597 71.7694 54.5525 71.1683 54.8673L71.1746 56.7501L68.0966 57.4484L67.2678 55.7526C66.5876 55.7308 65.9043 55.6217 65.2368 55.4159L63.8924 56.7501L61.2129 55.1011L61.8424 53.3243C61.3647 52.8224 60.9661 52.2645 60.6466 51.6722L58.7359 51.6784L58.0273 48.6454L59.7482 47.8287C59.7704 47.1585 59.8811 46.4852 60.0867 45.8274L58.7327 44.5026L60.4062 41.8624L62.2094 42.4827C62.7187 42.012 63.285 41.6192 63.886 41.3044L63.8797 39.4216L66.9577 38.7233L67.7866 40.4191C68.4667 40.4409 69.15 40.55 69.8175 40.7526L71.162 39.4185L73.8414 41.0675L73.2151 42.8474ZM69.4474 45.3318C67.8593 44.353 65.7683 44.8299 64.7781 46.3916C63.7848 47.9565 64.2688 50.017 65.8537 50.9926C67.4417 51.9714 69.5328 51.4945 70.523 49.9328C71.5163 48.3711 71.0354 46.3106 69.4474 45.3318Z" fill="#00B3C7"/>
<g opacity="0.6">
<path fillRule="evenodd" clipRule="evenodd" d="M69.4474 45.3318C67.8593 44.353 65.7683 44.8299 64.7781 46.3916C63.7848 47.9565 64.2688 50.0169 65.8537 50.9926C67.4418 51.9714 69.5328 51.4945 70.523 49.9328C71.5163 48.3711 71.0354 46.3106 69.4474 45.3318Z" fill="white"/>
</g>
<path d="M57.2333 79.169V77.1709H57.6066V79.1534C57.6066 79.9795 58.002 80.3598 58.6885 80.3598C59.3813 80.3598 59.7767 79.9826 59.7767 79.1534V77.1709H60.1405V79.169C60.1405 80.1696 59.5932 80.6902 58.6885 80.6902C57.7837 80.6902 57.2333 80.1727 57.2333 79.169Z" fill="#374361"/>
<path d="M64.0379 78.3679C64.0379 79.1098 63.4906 79.5587 62.5922 79.5587H61.64V80.659H61.2667V77.1709H62.5922C63.4938 77.1709 64.0379 77.6198 64.0379 78.3679ZM63.6646 78.3679C63.6646 77.8099 63.2913 77.4919 62.5827 77.4919H61.6431V79.2376H62.5827C63.2913 79.2345 63.6646 78.9165 63.6646 78.3679Z" fill="#374361"/>
<path d="M64.8477 77.1709H66.2903C67.4228 77.1709 68.1883 77.8878 68.1883 78.9165C68.1883 79.9421 67.4259 80.6621 66.2903 80.6621H64.8477V77.1709ZM66.2681 80.3411C67.2077 80.3411 67.815 79.7519 67.815 78.9165C67.815 78.078 67.2077 77.4919 66.2681 77.4919H65.221V80.3442H66.2681V80.3411Z" fill="#374361"/>
<path d="M71.1904 79.727H69.2164L68.7925 80.659H68.4034L70.0231 77.1709H70.3932L72.0129 80.659H71.6175L71.1904 79.727ZM71.0544 79.4277L70.2034 77.5543L69.3525 79.4277H71.0544Z" fill="#374361"/>
<path d="M73.1075 77.4888H71.8643V77.1709H74.7272V77.4888H73.484V80.659H73.1107V77.4888H73.1075Z" fill="#374361"/>
<path d="M77.8242 80.3411V80.659H75.3219V77.1709H77.7483V77.4888H75.6952V78.7295H77.5269V79.0443H75.6952V80.3411H77.8242Z" fill="#374361"/>
<path d="M93.8155 11.4915C93.8155 11.5258 92.5343 11.56 90.9526 11.5756C89.3708 11.5881 88.0897 11.5725 88.0865 11.5382C88.0865 11.5039 89.3677 11.4696 90.9494 11.4541C92.5343 11.4416 93.8155 11.4572 93.8155 11.4915Z" fill="#374361"/>
<path d="M93.8282 12.9347C93.8282 12.969 92.547 13.0033 90.9652 13.0189C89.3835 13.0314 88.1023 13.0158 88.0991 12.9815C88.0991 12.9472 89.3803 12.9129 90.9621 12.8973C92.547 12.8849 93.8282 12.9036 93.8282 12.9347Z" fill="#374361"/>
<path d="M93.8408 14.378C93.8408 14.4123 92.5596 14.4466 90.9779 14.4622C89.3961 14.4746 88.1149 14.459 88.1118 14.4248C88.1118 14.3905 89.393 14.3562 90.9747 14.3406C92.5564 14.3312 93.8408 14.3468 93.8408 14.378Z" fill="#374361"/>
<path d="M41.7197 16.027C41.7228 16.0239 41.764 16.0208 41.8399 16.0208C41.9348 16.0176 42.0424 16.0145 42.1721 16.0114C42.4852 16.0052 42.8933 15.9958 43.3963 15.9834L43.3615 16.0176C43.3583 15.7496 43.352 15.4597 43.3457 15.1448C43.3489 14.9827 43.333 14.83 43.3489 14.643C43.3805 14.4559 43.5513 14.2907 43.7601 14.272C43.9562 14.2689 44.1302 14.2595 44.3453 14.2689C44.5668 14.2938 44.7534 14.5058 44.7471 14.7334C44.7503 15.1417 44.7566 15.5657 44.7629 16.0083L44.706 15.9522C45.2026 15.9459 45.7183 15.9428 46.2497 15.9366L46.1896 15.9958C46.1833 15.3849 46.177 14.7489 46.1738 14.1006C46.1738 13.9385 46.1707 13.7764 46.1707 13.6174C46.1707 13.4678 46.0789 13.368 45.9524 13.2589C45.7246 13.0376 45.5 12.8194 45.2786 12.6043C45.0571 12.3892 44.842 12.1773 44.6269 11.9715C44.5193 11.8687 44.4149 11.7658 44.3105 11.666C44.203 11.5632 44.1176 11.4572 43.991 11.4322C43.8708 11.4011 43.7348 11.426 43.6367 11.4977C43.5418 11.5756 43.4438 11.6847 43.3489 11.7751C43.1591 11.9653 42.9756 12.1461 42.7953 12.3269C42.4473 12.6822 42.0835 13.0095 41.8209 13.3182C41.7102 13.4896 41.7513 13.6953 41.7418 13.8855C41.7418 14.0725 41.7418 14.2533 41.7418 14.4216C41.7387 14.7489 41.7387 15.0388 41.7355 15.2851C41.7323 15.5064 41.7323 15.6872 41.7292 15.8368C41.7228 15.9553 41.7228 16.0239 41.7197 16.027C41.7165 16.0301 41.7133 15.9678 41.7102 15.8431C41.707 15.6966 41.7007 15.5158 41.6944 15.3007C41.688 15.0513 41.6817 14.7614 41.6754 14.431C41.6722 14.2595 41.6691 14.0756 41.6659 13.8855C41.6659 13.7888 41.6627 13.6891 41.6627 13.5862C41.6627 13.4771 41.6912 13.368 41.7481 13.2683C42.0329 12.9223 42.3745 12.6199 42.7257 12.2521C42.9028 12.0713 43.0863 11.8874 43.2761 11.6972C43.3742 11.6006 43.4564 11.5071 43.5735 11.4073C43.6968 11.3138 43.8677 11.2795 44.0195 11.32C44.184 11.3543 44.2916 11.4884 44.3896 11.5819C44.494 11.6816 44.5984 11.7845 44.706 11.8874C44.9179 12.0931 45.1362 12.3051 45.3577 12.517C45.5791 12.7321 45.8037 12.9503 46.0346 13.1716C46.0884 13.2278 46.1548 13.2776 46.2055 13.3556C46.2561 13.4304 46.2845 13.5208 46.2877 13.6112C46.2877 13.7733 46.2909 13.9322 46.2909 14.0975C46.2972 14.7458 46.3004 15.3786 46.3067 15.9927V16.0519H46.2466C45.7151 16.0551 45.1995 16.0582 44.7028 16.0613H44.6459V16.0052C44.6427 15.5625 44.6427 15.1386 44.6395 14.7302C44.6459 14.5463 44.5004 14.3842 44.3264 14.3624C44.1492 14.3531 43.9404 14.3593 43.7664 14.3593C43.6019 14.3718 43.4627 14.5027 43.4343 14.6554C43.4185 14.8082 43.4311 14.9859 43.4279 15.1417C43.4279 15.4565 43.4279 15.7496 43.4279 16.0145V16.0488H43.3931C42.8838 16.0457 42.4663 16.0426 42.1499 16.0395C42.0234 16.0363 41.919 16.0363 41.8272 16.0332C41.7545 16.0301 41.7165 16.0301 41.7197 16.027Z" fill="#374361"/>
<path d="M79.6337 14.7957C79.6337 14.8393 74.8126 14.8768 68.8685 14.8768C62.9212 14.8768 58.1032 14.8393 58.1032 14.7957C58.1032 14.7521 62.9212 14.7147 68.8685 14.7147C74.8126 14.7147 79.6337 14.7521 79.6337 14.7957Z" fill="#374361"/>
<path d="M79.0738 113.315H56.4677C53.5795 113.315 51.2417 111.008 51.2417 108.165C51.2417 105.319 53.5826 103.016 56.4677 103.016H79.0738C81.962 103.016 84.2998 105.322 84.2998 108.165C84.303 111.008 81.962 113.315 79.0738 113.315Z" fill="#BFECF1"/>
<path d="M89.2538 88.876C89.2538 88.9196 79.5356 88.957 67.5493 88.957C55.5598 88.957 45.8416 88.9196 45.8416 88.876C45.8416 88.8323 55.5598 88.7949 67.5493 88.7949C79.5356 88.7949 89.2538 88.8292 89.2538 88.876Z" fill="#374361"/>
<path d="M80.6049 91.4975C80.6049 91.5412 74.7588 91.5786 67.5493 91.5786C60.3366 91.5786 54.4906 91.5412 54.4906 91.4975C54.4906 91.4539 60.3366 91.4165 67.5493 91.4165C74.7588 91.4165 80.6049 91.4508 80.6049 91.4975Z" fill="#374361"/>
<path d="M20.5403 130.12L18.617 137.124L24.8648 137.685L26.1776 131.017L20.5403 130.12Z" fill="#00B3C7"/>
<path d="M25.0451 137.115C25.042 137.136 24.694 137.13 24.1309 137.083C23.5678 137.04 22.7927 136.956 21.9386 136.847C21.1161 136.737 20.3727 136.641 19.7558 136.557C19.1991 136.479 18.8511 136.426 18.8542 136.404C18.8574 136.382 19.2054 136.391 19.7685 136.438C20.3316 136.485 21.1066 136.569 21.9608 136.678C22.7833 136.787 23.5267 136.884 24.1435 136.965C24.7003 137.04 25.0483 137.09 25.0451 137.115Z" fill="#374361"/>
<g opacity="0.6">
<path d="M18.617 137.124L24.8648 137.685L24.966 137.171L18.7973 136.398L18.6233 137.052" fill="white"/>
</g>
<path d="M21.7203 136.812C21.6824 136.803 21.9481 135.603 22.3151 134.128C22.682 132.657 23.011 131.469 23.0521 131.479C23.0901 131.488 22.8244 132.688 22.4574 134.163C22.0905 135.634 21.7583 136.822 21.7203 136.812Z" fill="#374361"/>
<path d="M24.7003 137.068C24.6623 137.065 24.8996 136.566 24.7161 135.765C24.6212 135.375 24.4124 134.923 24.0328 134.546C23.6564 134.169 23.0964 133.904 22.4796 133.842C21.8595 133.782 21.2585 133.929 20.8061 134.216C20.3474 134.499 20.0342 134.883 19.8349 135.235C19.4363 135.952 19.4774 136.491 19.4395 136.485C19.4332 136.485 19.43 136.454 19.43 136.391C19.4268 136.329 19.4332 136.242 19.4458 136.123C19.4711 135.893 19.5502 135.559 19.7432 135.185C19.9393 134.817 20.2588 134.406 20.7333 134.103C21.2047 133.795 21.8437 133.636 22.4922 133.698C23.1407 133.764 23.7355 134.047 24.1277 134.453C24.5263 134.855 24.7319 135.335 24.8174 135.743C24.8996 136.155 24.8711 136.501 24.8205 136.725C24.7952 136.837 24.7699 136.924 24.7446 136.981C24.7193 137.04 24.7035 137.071 24.7003 137.068Z" fill="#374361"/>
<path d="M46.3289 128.24L45.9113 134.462C45.9113 134.462 52.1939 136.516 52.2319 137.673L39.9545 137.76L40.2012 128.04L46.3289 128.24Z" fill="#00B3C7"/>
<g opacity="0.6">
<path d="M42.1341 133.826C41.8937 133.882 41.7228 134.141 41.7703 134.378C41.8177 134.615 42.0835 134.789 42.3239 134.739C42.5643 134.686 42.7794 134.384 42.7067 134.15C42.6307 133.92 42.3081 133.729 42.0898 133.838" fill="white"/>
</g>
<g opacity="0.6">
<path d="M39.9545 137.763L39.9798 136.784L51.8364 137.105C51.8364 137.105 52.2319 137.274 52.292 137.763H39.9545Z" fill="white"/>
</g>
<path d="M46.1137 134.406C46.1106 134.465 45.81 134.484 45.5095 134.665C45.2027 134.839 45.0445 135.088 44.9907 135.064C44.9369 135.051 45.035 134.699 45.4051 134.487C45.7657 134.272 46.1264 134.353 46.1137 134.406Z" fill="#374361"/>
<path d="M47.3823 134.97C47.395 135.026 47.1324 135.12 46.9204 135.363C46.7022 135.6 46.6421 135.868 46.5819 135.865C46.525 135.871 46.4934 135.525 46.7623 135.229C47.0312 134.926 47.3823 134.914 47.3823 134.97Z" fill="#374361"/>
<path d="M48.0688 136.51C48.015 136.522 47.9391 136.223 48.1036 135.905C48.2649 135.584 48.5528 135.466 48.5749 135.516C48.6065 135.565 48.4199 135.734 48.2902 135.996C48.151 136.257 48.1289 136.507 48.0688 136.51Z" fill="#374361"/>
<path d="M46.0473 132.978C46.022 133.031 45.7468 132.941 45.4083 132.953C45.0698 132.959 44.8009 133.062 44.7724 133.012C44.7377 132.969 45.0034 132.757 45.402 132.747C45.8037 132.738 46.079 132.934 46.0473 132.978Z" fill="#374361"/>
<path d="M46.1074 131.722C46.1074 131.747 45.8701 131.775 45.4937 131.7C45.3071 131.663 45.0856 131.594 44.8578 131.485C44.744 131.432 44.6269 131.367 44.5099 131.289C44.4529 131.251 44.3896 131.214 44.3295 131.142C44.2663 131.08 44.2315 130.921 44.3106 130.827C44.377 130.737 44.4877 130.699 44.5763 130.699C44.668 130.699 44.7408 130.718 44.8072 130.737C44.9433 130.774 45.0698 130.821 45.1868 130.877C45.4178 130.989 45.6044 131.126 45.7436 131.261C46.0188 131.529 46.1106 131.753 46.0884 131.762C46.06 131.781 45.9271 131.591 45.6455 131.37C45.5032 131.257 45.3229 131.142 45.1078 131.049C45.0002 131.002 44.8831 130.961 44.7598 130.93C44.6301 130.893 44.5194 130.89 44.4846 130.946C44.4719 130.968 44.4687 130.977 44.4972 131.014C44.5257 131.049 44.5763 131.086 44.6301 131.123C44.7376 131.195 44.8452 131.261 44.9496 131.317C45.1615 131.429 45.364 131.504 45.538 131.56C45.8796 131.666 46.1106 131.691 46.1074 131.722Z" fill="#374361"/>
<path d="M46.0283 131.806C46.0062 131.815 45.8955 131.6 45.8828 131.217C45.8796 131.027 45.905 130.799 45.9872 130.556C46.0283 130.434 46.0853 130.313 46.1549 130.194C46.2308 130.076 46.3225 129.92 46.5566 129.901C46.6768 129.901 46.7749 129.998 46.8065 130.079C46.8445 130.163 46.8508 130.232 46.8635 130.304C46.8825 130.447 46.8761 130.584 46.8508 130.712C46.8034 130.968 46.6895 131.179 46.5693 131.329C46.3194 131.635 46.0663 131.697 46.0631 131.678C46.0442 131.647 46.2561 131.541 46.4491 131.245C46.544 131.098 46.6294 130.905 46.661 130.681C46.6768 130.569 46.6768 130.45 46.661 130.332C46.6452 130.204 46.6009 130.098 46.5503 130.11C46.4902 130.107 46.3826 130.201 46.3289 130.304C46.2624 130.41 46.2087 130.519 46.1675 130.628C46.0853 130.843 46.0441 131.052 46.0315 131.229C46.003 131.572 46.06 131.797 46.0283 131.806Z" fill="#374361"/>
<path d="M46.3289 74.1939L27.6233 74.0568L18.5853 132.56L26.3485 133.53L36.2975 85.4252L39.2743 133.701L39.2838 133.845L47.6797 133.701L46.3289 74.1939Z" fill="#374361"/>
<path d="M37.8223 78.9352C37.816 78.929 37.952 78.9227 38.2083 78.9103C38.4898 78.9009 38.8663 78.8853 39.3345 78.8697C40.3373 78.8417 41.726 78.8043 43.3774 78.7575L43.4533 78.7544V78.8323C43.4565 79.9888 43.4596 81.2825 43.4628 82.654V82.6914L43.4343 82.7164C43.2097 82.919 42.9725 83.1372 42.7289 83.3554C42.0076 84.0069 41.3116 84.6366 40.6536 85.2288L40.5999 85.2787L40.5429 85.2288C39.5148 84.3248 38.5752 83.5019 37.7749 82.7974L37.7527 82.7787V82.7507C37.7686 81.5879 37.7781 80.6341 37.7875 79.9483C37.7939 79.6366 37.8002 79.3841 37.8034 79.1939C37.8129 79.0194 37.816 78.9321 37.8223 78.9352C37.8287 78.9383 37.8318 79.035 37.8382 79.2158C37.8413 79.4121 37.8476 79.6677 37.854 79.9857C37.8635 80.6621 37.873 81.6035 37.8888 82.7507L37.8666 82.7008C38.6733 83.3959 39.6192 84.2126 40.6536 85.1073H40.5429C41.2009 84.5119 41.8969 83.8791 42.615 83.2276C42.8554 83.0094 43.0958 82.7943 43.3204 82.5917L43.292 82.654C43.2951 81.2825 43.2983 79.9888 43.3014 78.8323L43.3774 78.9072C41.7482 78.9227 40.3721 78.9352 39.3819 78.9446C38.9074 78.9446 38.5246 78.9446 38.2399 78.9477C38.1165 78.9477 38.0153 78.9446 37.9331 78.9446C37.8635 78.9414 37.8255 78.9383 37.8223 78.9352Z" fill="#727C94"/>
<path d="M29.0184 78.6827C29.0121 78.6765 29.1323 78.6827 29.3633 78.7014C29.6163 78.7232 29.9517 78.7482 30.3692 78.7825C31.2708 78.8635 32.5204 78.9757 34.0072 79.1067L34.0831 79.1129L34.0736 79.1877C33.9376 80.3192 33.7794 81.6066 33.6149 82.9813L33.6118 83.0156L33.5833 83.0374C33.3271 83.2401 33.0518 83.4551 32.7766 83.6733C32.087 84.2126 31.4227 84.7363 30.7868 85.2319L30.7204 85.2818L30.6698 85.2164C29.8662 84.2157 29.1292 83.2962 28.4933 82.5075L28.4743 82.4857L28.4775 82.4576C28.6357 81.3105 28.7654 80.366 28.8571 79.6802C28.9014 79.3716 28.9393 79.1222 28.9678 78.9321C28.9963 78.7638 29.0121 78.6765 29.0184 78.6827C29.0216 78.689 29.0153 78.7856 28.9995 78.9633C28.9805 79.1596 28.9552 79.4153 28.9204 79.7301C28.8444 80.4065 28.74 81.3386 28.6167 82.4732L28.6009 82.4234C29.243 83.2089 29.9865 84.1191 30.7995 85.1135L30.6824 85.101C31.3151 84.6023 31.9826 84.0786 32.6691 83.5362C32.9443 83.318 33.2195 83.106 33.4757 82.9034L33.4441 82.9595C33.6181 81.5848 33.7826 80.2974 33.925 79.169L33.9914 79.25C32.5267 79.0879 31.2961 78.9539 30.4072 78.8573C29.9833 78.8074 29.6448 78.7669 29.3886 78.7357C29.1513 78.7076 29.0216 78.689 29.0184 78.6827Z" fill="#727C94"/>
<path d="M40.4638 87.5605C40.4512 87.5823 40.1317 87.4202 39.616 87.1553C39.1004 86.8903 38.3886 86.5225 37.5977 86.1328C36.8037 85.7432 36.0793 85.4034 35.5541 85.1571C35.029 84.9109 34.7063 84.755 34.7158 84.7332C34.7253 84.7114 35.067 84.8298 35.6047 85.048C36.1425 85.2662 36.8796 85.5904 37.6736 85.9801C38.4677 86.3728 39.1731 86.7563 39.6761 87.0493C40.1759 87.3454 40.4733 87.5418 40.4638 87.5605Z" fill="#727C94"/>
<path d="M40.2234 88.9819C40.2171 89.0006 39.964 88.9321 39.5844 88.745C39.2079 88.5611 38.7113 88.24 38.2494 87.7943C37.7875 87.3454 37.4585 86.8622 37.2624 86.4944C37.0663 86.1235 36.9935 85.8772 37.0125 85.871C37.0631 85.8429 37.4585 86.8061 38.3665 87.6758C39.268 88.5549 40.2487 88.9321 40.2234 88.9819Z" fill="#727C94"/>
<path d="M45.5032 105.887C45.5127 105.89 45.4874 105.999 45.4178 106.192C45.3482 106.385 45.2248 106.656 45.0287 106.965C44.6428 107.585 43.9057 108.358 42.8459 108.801C41.7862 109.241 40.7074 109.222 39.9861 109.063C39.6223 108.985 39.3408 108.882 39.151 108.798C38.9612 108.714 38.8663 108.655 38.8694 108.645C38.8821 108.614 39.2934 108.823 40.0083 108.948C40.7169 109.075 41.7577 109.072 42.7763 108.648C43.795 108.224 44.5225 107.492 44.9243 106.903C45.3356 106.31 45.4716 105.874 45.5032 105.887Z" fill="#727C94"/>
<path d="M44.2726 105.388C44.2821 105.406 44.0195 105.553 43.5577 105.699C43.099 105.849 42.4346 105.977 41.6976 106.002C40.9605 106.033 40.293 105.964 39.8185 105.893C39.3439 105.818 39.0561 105.74 39.0592 105.718C39.0687 105.662 40.2392 105.883 41.6912 105.83C42.4157 105.805 43.0642 105.699 43.526 105.581C43.9847 105.472 44.2631 105.363 44.2726 105.388Z" fill="#727C94"/>
<path d="M30.3661 105.737C30.3787 105.749 30.1509 105.996 29.7144 106.317C29.281 106.641 28.6293 107.027 27.8511 107.314C27.0697 107.601 26.32 107.726 25.779 107.763C25.2349 107.797 24.8996 107.763 24.9028 107.744C24.9028 107.716 25.2381 107.71 25.7696 107.645C26.301 107.579 27.0286 107.436 27.7942 107.158C28.5566 106.878 29.2051 106.516 29.648 106.223C30.0908 105.927 30.3471 105.715 30.3661 105.737Z" fill="#727C94"/>
<path d="M28.7242 105.665C28.7337 105.706 27.9682 105.883 27.0096 105.805C26.0511 105.734 25.3204 105.441 25.3393 105.4C25.3552 105.35 26.0891 105.565 27.0255 105.637C27.9555 105.712 28.7179 105.615 28.7242 105.665Z" fill="#727C94"/>
<path d="M36.1868 85.8305C36.1963 85.8492 35.88 86.0112 35.3453 86.2045C34.8107 86.4009 34.0483 86.6191 33.1879 86.7563C32.3242 86.8903 31.5334 86.9183 30.9608 86.8965C30.3914 86.8747 30.0402 86.8186 30.0434 86.7999C30.0466 86.775 30.3977 86.7874 30.9639 86.7781C31.5302 86.7687 32.3116 86.7251 33.1626 86.591C34.0135 86.457 34.7696 86.2575 35.3105 86.0923C35.8452 85.9271 36.1773 85.8055 36.1868 85.8305Z" fill="#727C94"/>
<path d="M35.6744 83.9414C35.7218 83.9414 35.7629 84.0848 35.7629 84.2656C35.7661 84.4433 35.7281 84.5898 35.6807 84.5898C35.6332 84.5898 35.5921 84.4464 35.5921 84.2656C35.5921 84.0879 35.6269 83.9414 35.6744 83.9414Z" fill="#727C94"/>
<path d="M35.6775 82.6447C35.7249 82.6447 35.7629 82.7912 35.7597 82.9689C35.7597 83.1465 35.7186 83.293 35.6712 83.293C35.6237 83.293 35.5858 83.1465 35.5889 82.9689C35.5921 82.7881 35.63 82.6447 35.6775 82.6447Z" fill="#727C94"/>
<path d="M35.7028 81.351C35.7503 81.351 35.7851 81.4975 35.7787 81.6783C35.7756 81.856 35.7313 82.0025 35.6838 81.9994C35.6364 81.9994 35.6016 81.8529 35.6079 81.6721C35.6142 81.4913 35.6585 81.3479 35.7028 81.351Z" fill="#727C94"/>
<path d="M35.7566 80.0543C35.8041 80.0574 35.8357 80.2039 35.8262 80.3816C35.8167 80.5593 35.7724 80.7027 35.725 80.7027C35.6775 80.6995 35.6459 80.553 35.6554 80.3754C35.6649 80.1946 35.7092 80.0512 35.7566 80.0543Z" fill="#727C94"/>
<path d="M35.8357 78.7607C35.8831 78.7638 35.9116 78.9103 35.899 79.088C35.8863 79.2656 35.8389 79.409 35.7914 79.4059C35.744 79.4028 35.7155 79.2563 35.7281 79.0786C35.7408 78.9009 35.7882 78.7575 35.8357 78.7607Z" fill="#727C94"/>
<path d="M35.9369 77.4701C35.9844 77.4732 36.0097 77.6229 35.9939 77.8005C35.978 77.9782 35.9274 78.1185 35.88 78.1154C35.8325 78.1123 35.8072 77.9626 35.823 77.785C35.842 77.6073 35.8926 77.4639 35.9369 77.4701Z" fill="#727C94"/>
<path d="M36.0413 76.4103C36.0888 76.4165 36.1172 76.51 36.1046 76.6254C36.0919 76.7407 36.0445 76.828 35.997 76.8249C35.9496 76.8217 35.9211 76.7251 35.9338 76.6098C35.9464 76.4944 35.9939 76.4072 36.0413 76.4103Z" fill="#727C94"/>
<path d="M25.4659 132.246C25.5133 132.255 25.5196 132.405 25.4849 132.579C25.4501 132.754 25.3836 132.891 25.3362 132.881C25.2887 132.872 25.2824 132.722 25.3172 132.548C25.3552 132.373 25.4216 132.236 25.4659 132.246Z" fill="#727C94"/>
<path d="M25.7253 130.977C25.7727 130.986 25.779 131.136 25.7442 131.31C25.7094 131.485 25.643 131.622 25.5956 131.613C25.5481 131.603 25.5418 131.454 25.5766 131.279C25.6114 131.102 25.6778 130.968 25.7253 130.977Z" fill="#727C94"/>
<path d="M25.9815 129.705C26.029 129.714 26.0353 129.864 26.0005 130.039C25.9657 130.213 25.8993 130.35 25.8518 130.341C25.8044 130.332 25.798 130.182 25.8328 130.007C25.8708 129.83 25.9372 129.696 25.9815 129.705Z" fill="#727C94"/>
<path d="M26.2409 128.433C26.2884 128.443 26.2947 128.592 26.2599 128.767C26.2251 128.941 26.1587 129.078 26.1112 129.069C26.0638 129.06 26.0574 128.91 26.0922 128.736C26.127 128.561 26.1935 128.427 26.2409 128.433Z" fill="#727C94"/>
<path d="M26.4971 127.165C26.5446 127.174 26.5509 127.324 26.5161 127.498C26.4813 127.673 26.4149 127.81 26.3674 127.8C26.32 127.791 26.3137 127.641 26.3485 127.467C26.3864 127.289 26.4528 127.155 26.4971 127.165Z" fill="#727C94"/>
<path d="M26.7566 125.893C26.804 125.902 26.8103 126.052 26.7755 126.226C26.7408 126.401 26.6743 126.538 26.6269 126.529C26.5794 126.519 26.5731 126.37 26.6079 126.195C26.6427 126.017 26.7091 125.883 26.7566 125.893Z" fill="#727C94"/>
<path d="M27.0159 124.624C27.0634 124.633 27.0697 124.783 27.0349 124.958C27.0001 125.132 26.9337 125.269 26.8862 125.26C26.8388 125.251 26.8325 125.101 26.8673 124.926C26.9021 124.749 26.9685 124.615 27.0159 124.624Z" fill="#727C94"/>
<path d="M27.2722 123.352C27.3196 123.362 27.326 123.511 27.2912 123.686C27.2564 123.86 27.1899 123.997 27.1425 123.988C27.095 123.979 27.0887 123.829 27.1235 123.655C27.1583 123.477 27.2247 123.343 27.2722 123.352Z" fill="#727C94"/>
<path d="M27.5316 122.08C27.5791 122.09 27.5854 122.239 27.5506 122.414C27.5158 122.588 27.4494 122.726 27.4019 122.716C27.3545 122.707 27.3481 122.557 27.3829 122.383C27.4177 122.208 27.4842 122.071 27.5316 122.08Z" fill="#727C94"/>
<path d="M27.7878 120.812C27.8353 120.821 27.8416 120.971 27.8068 121.145C27.772 121.32 27.7056 121.457 27.6581 121.448C27.6107 121.438 27.6044 121.289 27.6391 121.114C27.6771 120.936 27.7435 120.802 27.7878 120.812Z" fill="#727C94"/>
<path d="M28.0472 119.54C28.0947 119.549 28.101 119.699 28.0662 119.873C28.0314 120.048 27.965 120.185 27.9175 120.176C27.8701 120.166 27.8638 120.017 27.8986 119.842C27.9334 119.665 27.9998 119.531 28.0472 119.54Z" fill="#727C94"/>
<path d="M28.3035 118.268C28.351 118.277 28.3573 118.427 28.3225 118.602C28.2877 118.776 28.2213 118.913 28.1738 118.904C28.1263 118.895 28.12 118.745 28.1548 118.57C28.1928 118.396 28.2592 118.259 28.3035 118.268Z" fill="#727C94"/>
<path d="M28.5629 116.999C28.6103 117.009 28.6166 117.158 28.5819 117.333C28.5471 117.507 28.4806 117.645 28.4332 117.635C28.3857 117.626 28.3794 117.476 28.4142 117.302C28.449 117.124 28.5154 116.99 28.5629 116.999Z" fill="#727C94"/>
<path d="M28.8191 115.728C28.8666 115.737 28.8729 115.887 28.8381 116.061C28.8033 116.236 28.7369 116.373 28.6894 116.363C28.642 116.354 28.6356 116.204 28.6704 116.03C28.7084 115.852 28.7748 115.718 28.8191 115.728Z" fill="#727C94"/>
<path d="M29.0785 114.456C29.126 114.465 29.1323 114.615 29.0975 114.789C29.0627 114.964 28.9963 115.101 28.9488 115.092C28.9014 115.082 28.895 114.933 28.9298 114.758C28.9646 114.584 29.0311 114.446 29.0785 114.456Z" fill="#727C94"/>
<path d="M29.3348 113.187C29.3822 113.196 29.3886 113.346 29.3538 113.521C29.319 113.695 29.2525 113.832 29.2051 113.823C29.1576 113.814 29.1513 113.664 29.1861 113.489C29.2241 113.312 29.2905 113.178 29.3348 113.187Z" fill="#727C94"/>
<path d="M29.5942 111.915C29.6416 111.925 29.648 112.074 29.6132 112.249C29.5784 112.423 29.5119 112.56 29.4645 112.551C29.417 112.542 29.4107 112.392 29.4455 112.218C29.4803 112.04 29.5467 111.906 29.5942 111.915Z" fill="#727C94"/>
<path d="M29.8536 110.643C29.901 110.653 29.9073 110.802 29.8725 110.977C29.8377 111.151 29.7713 111.289 29.7239 111.279C29.6764 111.27 29.6701 111.12 29.7049 110.946C29.7397 110.771 29.8061 110.634 29.8536 110.643Z" fill="#727C94"/>
<path d="M30.1098 109.375C30.1573 109.384 30.1636 109.534 30.1288 109.708C30.094 109.883 30.0276 110.02 29.9801 110.011C29.9327 110.001 29.9263 109.852 29.9611 109.677C29.9959 109.499 30.0624 109.365 30.1098 109.375Z" fill="#727C94"/>
<path d="M30.3692 108.103C30.4167 108.112 30.423 108.262 30.3882 108.436C30.3534 108.611 30.287 108.748 30.2395 108.739C30.1921 108.729 30.1857 108.58 30.2205 108.405C30.2553 108.228 30.3218 108.093 30.3692 108.103Z" fill="#727C94"/>
<path d="M30.6254 106.831C30.6729 106.84 30.6792 106.99 30.6444 107.165C30.6096 107.339 30.5432 107.476 30.4957 107.467C30.4483 107.458 30.442 107.308 30.4768 107.133C30.5147 106.959 30.5812 106.822 30.6254 106.831Z" fill="#727C94"/>
<path d="M30.8849 105.562C30.9323 105.572 30.9386 105.721 30.9038 105.896C30.869 106.07 30.8026 106.208 30.7552 106.198C30.7077 106.189 30.7014 106.039 30.7362 105.865C30.771 105.687 30.8374 105.553 30.8849 105.562Z" fill="#727C94"/>
<path d="M31.1411 104.291C31.1886 104.3 31.1949 104.449 31.1601 104.624C31.1253 104.799 31.0589 104.936 31.0114 104.926C30.9639 104.917 30.9576 104.767 30.9924 104.593C31.0304 104.415 31.0968 104.281 31.1411 104.291Z" fill="#727C94"/>
<path d="M31.4005 103.019C31.448 103.028 31.4543 103.178 31.4195 103.352C31.3847 103.527 31.3183 103.664 31.2708 103.655C31.2233 103.645 31.217 103.496 31.2518 103.321C31.2866 103.147 31.3531 103.009 31.4005 103.019Z" fill="#727C94"/>
<path d="M31.6567 101.75C31.7042 101.759 31.7105 101.909 31.6757 102.084C31.6409 102.258 31.5745 102.395 31.527 102.386C31.4796 102.377 31.4733 102.227 31.5081 102.052C31.546 101.875 31.6125 101.741 31.6567 101.75Z" fill="#727C94"/>
<path d="M31.9161 100.478C31.9636 100.488 31.9699 100.637 31.9351 100.812C31.9003 100.986 31.8339 101.123 31.7864 101.114C31.739 101.105 31.7327 100.955 31.7675 100.781C31.8023 100.603 31.8687 100.469 31.9161 100.478Z" fill="#727C94"/>
<path d="M32.1756 99.2064C32.223 99.2157 32.2293 99.3653 32.1945 99.5399C32.1597 99.7145 32.0933 99.8516 32.0459 99.8423C31.9984 99.8329 31.9921 99.6833 32.0269 99.5087C32.0617 99.3342 32.1281 99.2001 32.1756 99.2064Z" fill="#727C94"/>
<path d="M32.4318 97.9377C32.4792 97.947 32.4856 98.0966 32.4508 98.2712C32.416 98.4458 32.3495 98.5829 32.3021 98.5736C32.2546 98.5642 32.2483 98.4146 32.2831 98.24C32.3179 98.0624 32.3843 97.9283 32.4318 97.9377Z" fill="#727C94"/>
<path d="M32.6912 96.6659C32.7386 96.6752 32.745 96.8248 32.7102 96.9994C32.6754 97.1739 32.6089 97.3111 32.5615 97.3018C32.514 97.2924 32.5077 97.1428 32.5425 96.9682C32.5773 96.7937 32.6437 96.6565 32.6912 96.6659Z" fill="#727C94"/>
<path d="M32.9474 95.3971C32.9949 95.4065 33.0012 95.5561 32.9664 95.7307C32.9316 95.9053 32.8652 96.0424 32.8177 96.0331C32.7703 96.0237 32.764 95.8741 32.7988 95.6995C32.8367 95.5218 32.9032 95.3878 32.9474 95.3971Z" fill="#727C94"/>
<path d="M33.2068 94.1253C33.2543 94.1347 33.2606 94.2843 33.2258 94.4589C33.191 94.6334 33.1246 94.7706 33.0771 94.7612C33.0297 94.7519 33.0234 94.6023 33.0582 94.4277C33.093 94.25 33.1594 94.116 33.2068 94.1253Z" fill="#727C94"/>
<path d="M33.4631 92.8535C33.5105 92.8629 33.5169 93.0125 33.4821 93.1871C33.4473 93.3616 33.3808 93.4988 33.3334 93.4894C33.2859 93.4801 33.2796 93.3304 33.3144 93.1559C33.3524 92.9813 33.4188 92.8442 33.4631 92.8535Z" fill="#727C94"/>
<path d="M33.7225 91.5848C33.7699 91.5942 33.7763 91.7438 33.7415 91.9184C33.7067 92.0929 33.6402 92.2301 33.5928 92.2207C33.5453 92.2114 33.539 92.0617 33.5738 91.8872C33.6086 91.7095 33.675 91.5755 33.7225 91.5848Z" fill="#727C94"/>
<path d="M33.9787 90.313C34.0262 90.3223 34.0325 90.472 33.9977 90.6465C33.9629 90.8211 33.8965 90.9582 33.849 90.9489C33.8016 90.9395 33.7952 90.7899 33.83 90.6154C33.868 90.4377 33.9344 90.3036 33.9787 90.313Z" fill="#727C94"/>
<path d="M34.2381 89.0412C34.2856 89.0505 34.2919 89.2002 34.2571 89.3747C34.2223 89.5493 34.1559 89.6864 34.1084 89.6771C34.061 89.6677 34.0546 89.5181 34.0894 89.3435C34.1242 89.169 34.1907 89.0318 34.2381 89.0412Z" fill="#727C94"/>
<path d="M34.4944 87.7725C34.5418 87.7818 34.5481 87.9314 34.5133 88.106C34.4785 88.2806 34.4121 88.4177 34.3647 88.4084C34.3172 88.399 34.3109 88.2494 34.3457 88.0748C34.3836 87.8972 34.4501 87.7631 34.4944 87.7725Z" fill="#727C94"/>
<path d="M34.7538 86.5007C34.8012 86.51 34.8076 86.6596 34.7728 86.8342C34.738 87.0088 34.6715 87.1459 34.6241 87.1366C34.5766 87.1272 34.5703 86.9776 34.6051 86.803C34.6399 86.6253 34.7063 86.4913 34.7538 86.5007Z" fill="#727C94"/>
<path d="M60.5391 47.3112C60.5391 47.3112 62.7282 44.0787 62.7852 44.0506C62.7852 44.0506 64.7623 40.7713 65.4172 40.7713C66.0783 40.7713 65.8379 41.4353 65.1578 42.6105C64.563 43.6392 64.5029 44.2844 64.5029 44.2844L66.1258 45.2507C66.1258 45.2507 67.2108 44.8362 67.2551 45.8337C67.2709 46.1672 67.1824 46.5787 67.0685 47.1865C67.0021 47.5419 66.8407 47.9191 66.4991 47.785C66.3441 47.7227 66.2175 47.6074 66.208 47.386C66.1859 46.7969 66.2998 46.5818 66.2238 46.5818C66.1258 46.5818 65.0565 49.6709 65.0565 49.6709L60.5391 47.3112Z" fill="#FFBE9D"/>
<path d="M64.9616 44.7738C65.1293 44.6616 65.297 44.5463 65.4836 44.4683C65.6702 44.3904 65.8759 44.3436 66.0752 44.3779C66.2017 44.3997 66.3251 44.4527 66.4042 44.5494C66.5149 44.6834 66.5212 44.8767 66.4674 45.0419C66.4137 45.204 66.3061 45.3443 66.2017 45.4814" fill="#FFBE9D"/>
<path d="M64.2182 44.1223C64.3764 44.0163 64.5346 43.9103 64.7117 43.8355C64.8889 43.7607 65.0818 43.7202 65.2716 43.7514C65.3887 43.7701 65.5089 43.8231 65.5848 43.9135C65.6892 44.0382 65.6955 44.2221 65.6449 44.3748C65.5943 44.5276 65.24 44.886 65.1419 45.0138" fill="#FFBE9D"/>
<path d="M61.3047 45.4877L58.1412 52.1522L61.6273 55.6622L63.4432 50.6934C63.4432 50.6934 64.4175 50.8835 64.8129 50.2476C65.2558 49.5369 65.8379 47.4827 65.8379 47.4827L61.3047 45.4877Z" fill="#FFBE9D"/>
<path d="M63.5634 45.3037C63.5286 45.2944 63.6077 44.8455 63.9367 44.381C64.1043 44.1504 64.3163 43.9945 64.4776 43.9072C64.6389 43.82 64.7497 43.7919 64.7623 43.8106C64.7939 43.8605 64.3827 44.06 64.0758 44.4808C63.7722 44.9047 63.6171 45.3256 63.5634 45.3037Z" fill="#EB996E"/>
<path d="M67.0716 45.3318C67.0558 45.3536 66.9483 45.2944 66.7648 45.2632C66.5845 45.232 66.3156 45.2352 66.0752 45.3661C65.8347 45.497 65.6766 45.7152 65.5627 45.8679C65.4488 46.0238 65.376 46.1236 65.3539 46.1111C65.3349 46.1017 65.3697 45.9833 65.4614 45.8056C65.5532 45.6342 65.705 45.3785 65.9961 45.2164C66.2871 45.0575 66.6066 45.0762 66.7996 45.1448C66.9957 45.2165 67.0843 45.3162 67.0716 45.3318Z" fill="#EB996E"/>
<path d="M65.8948 44.3904C65.9043 44.4403 65.5026 44.5089 65.1514 44.8206C64.7971 45.1292 64.6231 45.4908 64.5757 45.4658C64.5377 45.4565 64.6453 45.0388 65.0375 44.6928C65.2337 44.5244 65.4551 44.4278 65.6196 44.3935C65.7873 44.3592 65.8917 44.3717 65.8948 44.3904Z" fill="#EB996E"/>
<path d="M66.6731 45.8305C66.7173 45.8149 66.7996 46.0706 66.6351 46.3293C66.4706 46.588 66.1985 46.6285 66.1954 46.5818C66.1796 46.535 66.3662 46.4446 66.4896 46.2389C66.6193 46.0425 66.6224 45.8368 66.6731 45.8305Z" fill="#EB996E"/>
<path d="M60.5486 47.1834C60.5486 47.1834 60.4379 45.1946 60.925 44.7426C61.4122 44.2938 62.8105 44.7613 62.8105 44.7613" fill="#FFBE9D"/>
<path d="M63.0098 43.8137C63.0477 43.8418 62.7219 44.3499 62.2853 44.9484C61.8488 45.5469 61.4628 46.0082 61.4217 45.9833C61.3838 45.9583 61.7064 45.4502 62.1462 44.8486C62.5859 44.247 62.9718 43.7825 63.0098 43.8137Z" fill="#EB996E"/>
<path d="M35.0068 28.7327L34.9594 44.2564L41.7165 44.5743L41.9127 40.7994C41.9127 40.7994 44.3137 41.2701 44.9338 39.0725C45.3292 37.6697 45.2311 26.825 45.2311 26.825L35.0068 28.7327Z" fill="#FFBE9D"/>
<path d="M46.1169 27.9129C45.054 28.2121 44.8199 29.9266 44.8199 29.9266L43.1496 33.5612C42.2986 32.9035 41.1566 32.944 40.9415 34.4154C40.7865 35.4783 42.1278 35.6934 42.1278 35.6934C41.3464 37.0057 40.8149 38.0656 39.6761 39.3125C38.4455 40.6622 37.7527 40.7994 36.4177 40.8212H34.9436C34.9436 40.8212 34.2223 38.5145 32.8873 32.7445C31.4068 26.3449 39.0845 27.1679 40.5113 25.5345C42.8332 22.8786 49.4733 26.9684 46.1169 27.9129Z" fill="#374361"/>
<path d="M33.0328 33.3493C31.7864 32.5263 31.6757 30.2196 32.4033 28.8356C33.1309 27.4515 34.6589 26.5164 36.2374 26.4852C36.4494 26.4821 36.6677 26.4914 36.8638 26.4166C37.1548 26.3044 37.3446 26.0332 37.5376 25.7869C38.6511 24.3624 39.7425 22.9596 41.8178 22.9628C42.1531 22.9628 42.5264 22.9628 43.1211 23.2807C43.4185 23.4397 43.8329 23.9759 43.9056 24.3032C44.2948 24.1224 44.6933 23.9353 45.1173 23.873C45.5443 23.8106 46.0125 23.8823 46.3352 24.166C46.6579 24.4497 46.7781 24.9671 46.525 25.3163C47.2241 25.2726 47.8853 25.8431 47.996 26.5257C48.1067 27.2084 47.1166 27.6853 47.0122 27.7383C47.0122 27.7383 47.5563 28.8605 46.2593 29.5338C45.7373 29.805 45.0571 29.4777 44.9812 29.4403" fill="#374361"/>
<path d="M37.9678 34.8424C38.0121 34.8393 38.0786 35.3755 37.9299 36.0207C37.7843 36.666 37.4901 37.1242 37.4522 37.1024C37.4079 37.0806 37.623 36.6036 37.7622 35.9833C37.9046 35.3661 37.9172 34.8424 37.9678 34.8424Z" fill="#727C94"/>
<path d="M38.784 34.0818C38.8283 34.0849 38.8409 34.5962 38.7207 35.2165C38.6037 35.8368 38.4075 36.3106 38.3632 36.2981C38.3158 36.2826 38.4392 35.7932 38.5531 35.1853C38.6701 34.5775 38.7365 34.0787 38.784 34.0818Z" fill="#727C94"/>
<path d="M41.125 31.5195C41.1408 31.5413 40.951 31.6785 40.7074 31.959C40.4638 32.2364 40.1823 32.6697 39.9798 33.1965C39.7742 33.7233 39.6635 34.2283 39.5749 34.593C39.4895 34.9577 39.4325 35.1853 39.4072 35.1791C39.3851 35.176 39.4009 34.9422 39.4547 34.5712C39.5116 34.2003 39.6065 33.6828 39.8185 33.1373C40.0304 32.5918 40.3404 32.146 40.6188 31.878C40.8941 31.6068 41.1155 31.5039 41.125 31.5195Z" fill="#727C94"/>
<path d="M42.0708 29.7738C42.0898 29.7676 42.1594 29.9235 42.2005 30.1947C42.2448 30.4627 42.2448 30.8493 42.1404 31.2545C42.036 31.6598 41.8526 31.9995 41.6849 32.2177C41.5172 32.4359 41.3844 32.5419 41.3685 32.5263C41.3274 32.4952 41.783 31.9933 41.9759 31.214C42.1816 30.4378 42.0202 29.7832 42.0708 29.7738Z" fill="#727C94"/>
<path d="M34.0072 33.6516C33.985 33.6922 33.7763 33.6205 33.5453 33.4927C33.3144 33.3649 33.1436 33.2277 33.1657 33.1872C33.1878 33.1467 33.3966 33.2184 33.6276 33.3462C33.8585 33.474 34.0293 33.6111 34.0072 33.6516Z" fill="#727C94"/>
<path d="M37.2719 31.9933C37.3162 31.9995 37.2877 32.3299 37.0789 32.6697C36.8701 33.0126 36.5886 33.1872 36.5633 33.1529C36.5316 33.1155 36.7436 32.8973 36.9334 32.5824C37.1232 32.2707 37.2213 31.9839 37.2719 31.9933Z" fill="#727C94"/>
<path d="M38.2747 31.4634C38.319 31.4727 38.2462 31.8655 37.9742 32.2707C37.7021 32.676 37.3636 32.8942 37.3351 32.8568C37.3035 32.8193 37.5756 32.5575 37.8286 32.1772C38.0881 31.8 38.2272 31.4478 38.2747 31.4634Z" fill="#727C94"/>
<path d="M43.2666 24.964C43.254 24.9765 43.1401 24.8705 42.8965 24.7333C42.6529 24.6024 42.2638 24.4559 41.764 24.4434C41.2705 24.4279 40.6631 24.5432 40.1032 24.883C39.5432 25.2227 39.0466 25.7745 38.6891 26.4353C38.4265 26.9185 38.2462 27.4204 38.1134 27.8911L38.0849 27.9877L37.9931 27.9409C37.4902 27.6822 36.9587 27.5669 36.4842 27.5606C36.0065 27.5482 35.5889 27.6355 35.2568 27.7446C34.5893 27.969 34.2729 28.2651 34.2539 28.2371C34.2476 28.2308 34.3235 28.156 34.4785 28.0407C34.6367 27.9253 34.8835 27.7757 35.2188 27.6479C35.5541 27.5232 35.9875 27.4204 36.481 27.4235C36.9745 27.4204 37.5313 27.5295 38.0627 27.8007L37.9457 27.8505C38.0754 27.3674 38.2589 26.853 38.5278 26.3574C38.8979 25.6747 39.4167 25.1012 40.0114 24.752C40.6062 24.4029 41.2452 24.2938 41.7608 24.325C42.2828 24.353 42.6814 24.5214 42.9218 24.6772C43.042 24.7583 43.1306 24.8237 43.1812 24.8798C43.2445 24.9297 43.2698 24.9578 43.2666 24.964Z" fill="#727C94"/>
<path d="M46.8192 25.8088C46.8065 25.8057 47.0058 25.7589 47.2083 25.9833C47.3 26.0893 47.3823 26.2608 47.3633 26.4696C47.3443 26.6785 47.1956 26.8936 46.971 27.0214C46.7496 27.1554 46.4427 27.199 46.1485 27.1336C45.8512 27.0712 45.5665 26.9154 45.3007 26.7283C45.0318 26.5444 44.7756 26.3293 44.4719 26.1704C44.1714 26.0083 43.8329 25.8929 43.4722 25.8244C42.7541 25.6934 42.0392 25.7714 41.435 25.9615C40.8276 26.1548 40.3246 26.4416 39.9292 26.7159C39.1415 27.2739 38.7524 27.7414 38.7271 27.7196C38.7207 27.7134 38.8093 27.5918 38.9928 27.3923C39.1794 27.1928 39.461 26.9154 39.8564 26.6224C40.2487 26.3293 40.7612 26.0239 41.3844 25.8181C42.0076 25.6124 42.751 25.5251 43.5039 25.6623C43.8772 25.734 44.2346 25.8586 44.551 26.0301C44.8705 26.2015 45.1331 26.426 45.3893 26.6068C45.6455 26.7907 45.9081 26.9372 46.177 27.0027C46.4427 27.0681 46.7053 27.037 46.9046 26.9247C47.1071 26.8187 47.2368 26.6348 47.2621 26.4634C47.2874 26.2888 47.2241 26.1298 47.1482 26.0301C46.9932 25.8088 46.8097 25.8275 46.8192 25.8088Z" fill="#727C94"/>
<path d="M27.8131 45.8804L21.7773 55.8679C21.1034 57.0338 20.4771 58.2744 19.8792 59.5618C19.3983 60.7962 19.6767 62.4047 20.515 63.4303L20.3442 63.1871C21.0149 64.0038 22.0208 64.4776 23.0869 64.4776H23.2419C24.6465 64.4776 25.9151 63.6578 26.475 62.3891L28.4142 59.4901L27.8131 45.8804Z" fill="#00B3C7"/>
<path d="M46.0252 43.9727C44.4055 43.156 42.8048 42.9721 41.0585 42.9222C39.0244 42.863 36.1615 42.5824 33.9692 42.8131C33.9692 42.8131 27.7277 43.2682 27.2943 47.4827L28.1453 67.2769L26.7154 75.6621L46.7148 76.2575L46.5756 66.3635C46.8224 61.2139 46.2941 53.9259 46.2941 53.9259C46.6009 51.1578 48.1384 49.911 48.3566 48.1123C48.5528 46.5226 47.4709 44.699 46.0252 43.9727Z" fill="#00B3C7"/>
<path d="M40.3879 67.5605C40.3942 67.5668 40.293 67.6696 40.0937 67.8349C39.8944 68.0001 39.5875 68.2214 39.1826 68.4521C38.3791 68.9134 37.1264 69.3779 35.687 69.4028C34.2476 69.4277 32.9791 69.0069 32.1597 68.5736C31.7453 68.3585 31.4321 68.1466 31.2265 67.9907C31.0209 67.8317 30.9165 67.7351 30.9228 67.7258C30.9418 67.6977 31.3847 68.0686 32.2135 68.4676C33.036 68.8666 34.2792 69.2594 35.6838 69.2345C37.0884 69.2095 38.319 68.7762 39.1257 68.3492C39.9387 67.919 40.3657 67.5356 40.3879 67.5605Z" fill="#374361"/>
<path d="M27.2658 47.7071C27.2722 47.7071 27.2785 47.7726 27.288 47.9004C27.2975 48.0437 27.307 48.2277 27.3228 48.4521C27.3481 48.954 27.3797 49.646 27.4177 50.4876C27.4904 52.227 27.5917 54.5899 27.7024 57.2021C27.8226 59.8143 27.9302 62.1771 28.0124 63.9165C28.0567 64.7582 28.0915 65.4471 28.1168 65.9521C28.1263 66.1765 28.1358 66.3604 28.1421 66.5069C28.1453 66.6347 28.1453 66.7002 28.139 66.7002C28.1326 66.7002 28.1231 66.6347 28.1073 66.51C28.0915 66.3666 28.0757 66.1827 28.0504 65.9583C28.0029 65.4783 27.9523 64.7862 27.8922 63.9259C27.7752 62.2083 27.6455 59.8361 27.5347 57.2114C27.4208 54.5899 27.3449 52.2146 27.3006 50.4939C27.2848 49.6491 27.269 48.9602 27.2595 48.4552C27.2595 48.2308 27.2595 48.0469 27.2563 47.9004C27.2563 47.7757 27.2595 47.7071 27.2658 47.7071Z" fill="#374361"/>
<path d="M26.0131 48.7576C26.0195 48.7607 25.9941 48.8137 25.9435 48.9103C25.8834 49.0257 25.8075 49.1659 25.7158 49.3374C25.5133 49.7052 25.2128 50.232 24.83 50.8742C24.0708 52.1678 22.9288 53.8979 21.7741 55.8679C21.1983 56.8498 20.708 57.8255 20.2841 58.7139C19.8634 59.6023 19.6483 60.4751 19.702 61.2108C19.7432 61.9496 19.9678 62.52 20.1639 62.8816C20.3632 63.2463 20.5245 63.4178 20.5119 63.4271C20.5087 63.4303 20.4676 63.3897 20.3917 63.3087C20.3189 63.2245 20.2177 63.0967 20.107 62.9128C19.8855 62.5543 19.6419 61.9745 19.5818 61.217C19.5091 60.4596 19.721 59.5493 20.1386 58.6485C20.5593 57.7476 21.0433 56.7719 21.6222 55.7806C22.7801 53.8043 23.9379 52.0868 24.7224 50.8087C25.1052 50.1884 25.4216 49.6772 25.6557 49.3C25.7569 49.1348 25.8423 49.0007 25.9087 48.8885C25.9752 48.8012 26.0068 48.7545 26.0131 48.7576Z" fill="#374361"/>
<path d="M62.801 54.1909L58.1728 51.2077L55.253 56.1921C55.253 56.1921 51.2037 50.6466 49.3626 47.3954C47.6702 44.406 45.4779 43.5986 44.4213 43.3835C44.1081 43.3181 43.8266 43.5768 43.8613 43.8885L45.4589 54.674C45.6614 55.2351 49.002 60.0076 50.8684 62.4078C53.9844 66.4165 58.5746 63.8511 59.8336 61.0456C60.8365 58.8199 62.3929 55.4378 62.801 54.1909Z" fill="#00B3C7"/>
<path d="M56.5848 60.6934C56.5595 60.6934 56.531 60.4222 56.4962 59.9826C56.4582 59.5431 56.4108 58.9352 56.2716 58.2838C56.1324 57.6323 55.9015 57.068 55.68 56.6909C55.4617 56.3106 55.2783 56.1048 55.2973 56.0861C55.3099 56.0737 55.5313 56.2513 55.7813 56.6285C56.0343 56.9995 56.2937 57.5793 56.4361 58.2463C56.5784 58.9165 56.6038 59.5306 56.6132 59.9733C56.6227 60.419 56.6069 60.6934 56.5848 60.6934Z" fill="#374361"/>
<path d="M57.9387 58.4646C57.9103 58.4677 57.8881 58.2339 57.7742 57.8816C57.6604 57.5325 57.4294 57.0618 57.034 56.6597C56.6449 56.2513 56.1704 56.002 55.8034 55.9957C55.4333 55.977 55.2277 56.1235 55.2182 56.0986C55.2024 56.0892 55.3953 55.8897 55.8066 55.8773C56.2178 55.8523 56.7524 56.1142 57.1605 56.5444C57.5813 56.9714 57.8059 57.4795 57.8945 57.8505C57.9799 58.2245 57.9577 58.4646 57.9387 58.4646Z" fill="#374361"/>
<path d="M44.1239 44.7177C44.1271 44.7208 44.0891 44.7645 44.0132 44.8455C43.9721 44.8891 43.9246 44.9359 43.8708 44.9889C43.8171 45.0512 43.757 45.1229 43.6937 45.2009C43.4375 45.5219 43.099 46.0269 42.8933 46.7345C42.6719 47.4328 42.5865 48.3212 42.7162 49.2813C42.7826 49.7613 42.9028 50.257 43.1148 50.7401C43.3204 51.2264 43.5893 51.7096 43.8614 52.2052C44.9939 54.1659 46.1612 55.8617 47.0058 57.0868C47.4234 57.679 47.7682 58.1653 48.0213 58.5269C48.2617 58.8667 48.4009 59.0506 48.3883 59.0599C48.3851 59.0631 48.344 59.0225 48.2712 58.9384C48.1985 58.8542 48.0941 58.7295 47.9675 58.5674C47.7081 58.2401 47.3443 57.7601 46.9046 57.1584C46.0346 55.949 44.8515 54.2626 43.7127 52.2925C43.4375 51.7937 43.1654 51.3075 42.9598 50.8087C42.7447 50.31 42.6244 49.7987 42.5612 49.3062C42.4346 48.3243 42.5359 47.4141 42.7763 46.7034C43.0041 45.9864 43.3647 45.4752 43.6431 45.1635C43.7127 45.0886 43.7759 45.0232 43.836 44.9608C43.893 44.911 43.9436 44.8673 43.9911 44.8268C44.0733 44.7458 44.1176 44.7115 44.1239 44.7177Z" fill="#374361"/>
<path d="M44.1334 73.371C44.1366 73.3772 44.086 73.3959 43.9911 73.4302C43.8772 73.4676 43.7411 73.5144 43.5766 73.5705C43.3963 73.6328 43.1749 73.7014 42.9123 73.77C42.6498 73.8417 42.3556 73.929 42.0202 74.0007C41.3559 74.1628 40.5555 74.3093 39.6571 74.4277C38.7587 74.5368 37.7654 74.6116 36.7214 74.6179C35.6775 74.6179 34.681 74.5462 33.7826 74.4433C32.8842 74.328 32.0838 74.1877 31.4163 74.0287C31.081 73.9601 30.7836 73.8729 30.5242 73.8043C30.2616 73.7357 30.037 73.6671 29.8567 73.6079C29.6922 73.5518 29.553 73.5082 29.4392 73.4676C29.3442 73.4333 29.2968 73.4146 29.2968 73.4084C29.3 73.4022 29.3506 73.4115 29.4486 73.4365C29.5657 73.4676 29.7049 73.5019 29.8725 73.5456C30.056 73.5954 30.2806 73.6578 30.5432 73.7139C30.8058 73.7731 31.1031 73.8542 31.4385 73.9134C32.1028 74.0568 32.9031 74.1846 33.7952 74.2906C34.6905 74.3841 35.6775 74.4496 36.7151 74.4496C37.7527 74.4433 38.7397 74.3716 39.6318 74.2719C40.5239 74.1628 41.3243 74.0287 41.9854 73.8822C42.3208 73.8199 42.6181 73.7388 42.8807 73.6765C43.1433 73.6173 43.3679 73.5549 43.5513 73.505C43.719 73.4614 43.8582 73.424 43.9752 73.3928C44.0796 73.3741 44.1334 73.3648 44.1334 73.371Z" fill="#374361"/>
<g opacity="0.3">
<path d="M26.9052 61.7501L27.8068 60.3692L27.3355 49.4932L26.9052 61.7501Z" fill="black"/>
</g>
<g opacity="0.3">
<path d="M42.5042 48.7576C42.5042 48.7576 42.5327 52.7227 43.4628 54.2906C44.3928 55.8617 46.5693 59.2532 46.5598 59.0506C46.5534 58.848 46.4364 56.2545 46.4364 56.2545C46.4364 56.2545 42.5232 50.9739 42.5042 48.7576Z" fill="black"/>
</g>
<path d="M26.1049 62.0805C26.108 62.0867 26.01 62.1366 25.817 62.1616C25.624 62.1896 25.333 62.1771 25.004 62.0587C24.675 61.9402 24.3143 61.7189 23.9917 61.3916C23.669 61.0643 23.4033 60.6372 23.147 60.1884C22.894 59.7395 22.663 59.3093 22.4005 58.954C22.1411 58.6017 21.85 58.3243 21.5748 58.1372C21.018 57.757 20.5657 57.7819 20.572 57.7476C20.572 57.7414 20.6795 57.7227 20.8725 57.7507C21.0655 57.7757 21.3407 57.8598 21.6381 58.0406C21.9354 58.2214 22.2454 58.502 22.5207 58.8636C22.7991 59.2251 23.0363 59.6616 23.2894 60.1073C23.5425 60.5531 23.7987 60.9677 24.0992 61.2856C24.3998 61.6036 24.7351 61.8249 25.0419 61.9496C25.6715 62.2114 26.1049 62.0462 26.1049 62.0805Z" fill="white"/>
<path d="M27.3291 55.2507C27.3007 55.257 27.2311 55.0138 27.0381 54.6647C26.8483 54.3156 26.5066 53.8667 26.0163 53.4989C25.5228 53.1341 24.9945 52.9315 24.5991 52.8474C24.2036 52.7601 23.9474 52.7601 23.9474 52.732C23.9442 52.7164 24.2036 52.6728 24.6212 52.7351C25.0356 52.7944 25.5987 52.9876 26.1144 53.3679C26.6268 53.7513 26.9717 54.2345 27.1425 54.6117C27.3165 54.992 27.3449 55.2476 27.3291 55.2507Z" fill="white"/>
<path d="M42.577 49.4122C42.5738 49.4278 42.3587 49.3717 41.9664 49.3405C41.5742 49.3093 40.9984 49.3218 40.312 49.4901C39.6255 49.6522 38.8409 49.9577 38.0184 50.3941C37.1896 50.8212 36.3133 51.3636 35.32 51.8124C34.3299 52.2707 33.2922 52.5013 32.3495 52.5575C31.4005 52.6104 30.5464 52.5013 29.8536 52.3299C29.1576 52.1616 28.623 51.934 28.2687 51.7563C28.0884 51.6722 27.9587 51.5911 27.8669 51.5381C27.7783 51.4851 27.7309 51.454 27.7341 51.4508C27.7404 51.4384 27.9333 51.5412 28.2971 51.7002C28.6578 51.8592 29.1924 52.0681 29.882 52.2208C30.5685 52.3767 31.41 52.4702 32.34 52.4109C33.2669 52.3455 34.2761 52.1179 35.2536 51.6659C36.2343 51.2264 37.1105 50.6871 37.952 50.2632C38.7872 49.8299 39.5907 49.5275 40.2898 49.381C40.9889 49.2252 41.5805 49.2314 41.9759 49.2813C42.1752 49.3062 42.3271 49.3374 42.4283 49.3654C42.5264 49.3904 42.5802 49.406 42.577 49.4122Z" fill="white"/>
<path d="M46.4649 60.1977C46.4649 60.2039 46.4048 60.2226 46.2814 60.2569C46.158 60.285 45.984 60.3505 45.7468 60.3879C45.2786 60.4907 44.5826 60.5655 43.7253 60.5468C42.8649 60.5313 41.8494 60.3816 40.7453 60.1354C39.6413 59.886 38.4487 59.5306 37.1991 59.1659C35.9495 58.8074 34.7411 58.5269 33.6276 58.3835C32.514 58.2463 31.4922 58.237 30.6539 58.3617C29.8156 58.4833 29.1544 58.6921 28.721 58.8854C28.2877 59.0755 28.0567 59.2064 28.0472 59.1909C28.0441 59.1846 28.101 59.1503 28.2086 59.088C28.3193 59.0288 28.4711 58.9197 28.6926 58.8293C29.1196 58.6173 29.784 58.3866 30.6349 58.2495C31.4859 58.1092 32.5172 58.1061 33.6466 58.237C34.7759 58.3742 35.9938 58.6516 37.2466 59.0132C38.4993 59.3748 39.6856 59.7364 40.7801 59.992C41.8747 60.2476 42.8807 60.4034 43.7317 60.4346C44.5795 60.4689 45.2691 60.4097 45.7404 60.3286C46.2055 60.2476 46.4617 60.1821 46.4649 60.1977Z" fill="white"/>
<path d="M46.5756 66.3635C46.5598 66.4165 45.6392 65.8274 43.9436 65.6653C43.1021 65.5749 42.093 65.6248 40.9826 65.765C39.8722 65.9147 38.6638 66.164 37.3889 66.4009C36.114 66.6347 34.8898 66.8436 33.7667 66.9402C32.6437 67.04 31.6219 67.0337 30.7741 66.9215C29.9263 66.8124 29.2557 66.6285 28.8096 66.4571C28.5818 66.3822 28.4205 66.2918 28.3035 66.2451C28.1896 66.1921 28.1326 66.164 28.1326 66.1578C28.139 66.1422 28.3794 66.2482 28.8286 66.3978C29.2746 66.5506 29.9453 66.7158 30.7836 66.8062C31.6251 66.9028 32.6342 66.8966 33.7509 66.7906C34.8676 66.6877 36.0824 66.4758 37.3573 66.242C38.629 66.0051 39.8438 65.7588 40.9605 65.6185C42.0803 65.4845 43.1053 65.4471 43.9531 65.5531C44.8041 65.6528 45.4747 65.8492 45.9113 66.0393C46.1359 66.1204 46.294 66.2201 46.4079 66.27C46.5218 66.3261 46.5788 66.3604 46.5756 66.3635Z" fill="white"/>
<path d="M36.2944 74.3124C36.288 74.3217 36.1742 74.25 35.978 74.116C35.7819 73.9789 35.4972 73.7887 35.1397 73.5549C34.4279 73.0905 33.4156 72.4857 32.2451 71.9246C31.0715 71.3635 29.9675 70.9521 29.1576 70.6871C28.7527 70.553 28.4205 70.4502 28.1928 70.3847C27.965 70.3161 27.8384 70.2725 27.8416 70.26C27.8448 70.2507 27.9745 70.2725 28.2086 70.3224C28.4427 70.3723 28.7812 70.4564 29.1924 70.578C30.0149 70.8149 31.1379 71.2139 32.3179 71.7781C33.4979 72.3454 34.507 72.9689 35.2061 73.4614C35.5573 73.7077 35.8325 73.9134 36.016 74.0661C36.2026 74.2158 36.3007 74.303 36.2944 74.3124Z" fill="white"/>
<path d="M46.0315 74.2064C46.041 74.222 45.8006 74.3779 45.3672 74.5337C44.9338 74.6927 44.3011 74.8267 43.5925 74.8049C42.8839 74.7831 42.2575 74.6085 41.8368 74.4246C41.4129 74.2407 41.1851 74.0693 41.1946 74.0568C41.2072 74.0319 41.4571 74.1659 41.881 74.3186C42.3049 74.4714 42.9123 74.621 43.5988 74.6428C44.2853 74.6615 44.9021 74.5493 45.3324 74.4246C45.7626 74.2999 46.0188 74.1815 46.0315 74.2064Z" fill="white"/>
<path d="M52.9563 53.6267C52.9626 53.6267 52.9689 53.7295 52.9183 53.9041C52.8709 54.0787 52.757 54.3218 52.5482 54.5743C52.3394 54.8237 52.0357 55.0762 51.6593 55.2881C51.2828 55.5001 50.8431 55.6653 50.3907 55.8492C49.9415 56.03 49.5176 56.2233 49.1886 56.4695C48.8596 56.7158 48.616 57.0057 48.4737 57.28C48.1763 57.838 48.306 58.2526 48.2712 58.2495C48.2649 58.2526 48.2238 58.1591 48.2111 57.9752C48.1985 57.7944 48.2301 57.5232 48.3693 57.227C48.5085 56.9309 48.7521 56.6161 49.0969 56.3511C49.4417 56.083 49.8751 55.8835 50.3306 55.6996C50.7862 55.5157 51.2227 55.3567 51.5865 55.1603C51.9535 54.9639 52.2508 54.7333 52.4628 54.5026C52.8899 54.035 52.9247 53.6142 52.9563 53.6267Z" fill="white"/>
<path d="M49.0684 47.012C49.0779 47.0151 49.0589 47.1148 49.0146 47.2956C48.9925 47.386 48.964 47.4951 48.9166 47.6198C48.8723 47.7445 48.828 47.8879 48.7552 48.0375C48.6255 48.343 48.4326 48.6921 48.1858 49.06C47.9327 49.4216 47.6195 49.7956 47.2431 50.1447C46.8666 50.4908 46.4649 50.7744 46.0853 51.0051C45.6993 51.2264 45.3355 51.3947 45.016 51.5038C44.861 51.5662 44.7123 51.6005 44.5826 51.6379C44.4561 51.6753 44.3422 51.7002 44.2505 51.7158C44.067 51.7501 43.9626 51.7626 43.9594 51.7501C43.9531 51.7189 44.3612 51.641 44.9749 51.3979C45.2818 51.2763 45.6329 51.1017 46.0062 50.8804C46.3731 50.6497 46.7622 50.3692 47.1292 50.0294C47.493 49.6865 47.803 49.3249 48.0593 48.9758C48.3092 48.6236 48.5085 48.2869 48.6477 47.9908C48.9355 47.3985 49.0368 47.0026 49.0684 47.012Z" fill="white"/>
<path d="M42.9787 42.9222C42.9819 42.9315 42.8206 43.0032 42.52 43.1248C42.2227 43.2495 41.7798 43.4054 41.2262 43.5768C40.6726 43.7482 40.0051 43.9197 39.2522 44.0693C38.4993 44.2127 37.6641 44.3343 36.7815 44.3997C35.8989 44.4621 35.0511 44.4621 34.2856 44.4278C33.52 44.3873 32.8304 44.3156 32.2578 44.2252C31.6852 44.1348 31.2233 44.0444 30.9102 43.9665C30.597 43.8885 30.423 43.8418 30.4261 43.8324C30.4293 43.8231 30.6065 43.848 30.9228 43.9072C31.2392 43.9665 31.701 44.0413 32.2736 44.1161C32.8462 44.194 33.5295 44.2501 34.2887 44.2844C35.0511 44.3093 35.8894 44.3031 36.7657 44.2439C37.642 44.1784 38.4708 44.0631 39.2206 43.929C39.9671 43.7857 40.6378 43.6298 41.1914 43.4739C41.745 43.3181 42.191 43.1809 42.4947 43.0749C42.8048 42.9627 42.9756 42.9128 42.9787 42.9222Z" fill="white"/>
<path d="M55.408 56.4914C55.4175 56.4882 55.4649 56.5973 55.5187 56.8062C55.5756 57.0151 55.6357 57.3237 55.6547 57.7071C55.7085 58.4801 55.5598 59.5431 55.3447 60.6871C55.2403 61.2638 55.1106 61.8124 54.9145 62.2894C54.7215 62.7663 54.4558 63.1622 54.1806 63.4396C53.9085 63.7233 53.6269 63.8885 53.4277 63.9789C53.2252 64.0662 53.105 64.088 53.1018 64.0786C53.0828 64.0475 53.5795 63.929 54.092 63.3617C54.3451 63.0811 54.5918 62.6977 54.7721 62.2332C54.9556 61.7688 55.0758 61.2295 55.1802 60.6559C55.3953 59.5088 55.5598 58.4677 55.5377 57.7102C55.5282 56.9527 55.3763 56.4976 55.408 56.4914Z" fill="white"/>
<path d="M61.7507 57.2894C61.7222 57.3018 61.5736 56.9714 61.2414 56.4976C60.9124 56.0238 60.3714 55.419 59.6407 54.9141C58.9099 54.4122 58.1475 54.1192 57.5813 53.9789C57.015 53.8355 56.6481 53.8106 56.6512 53.7825C56.6512 53.77 56.743 53.77 56.9106 53.7763C57.0783 53.7794 57.3155 53.8106 57.6097 53.8667C57.9039 53.9228 58.2424 54.0257 58.6094 54.1722C58.9732 54.3249 59.3591 54.5244 59.7356 54.78C60.1089 55.0387 60.4316 55.3286 60.7036 55.6123C60.9693 55.9022 61.1845 56.1828 61.3395 56.4321C61.4945 56.6815 61.6084 56.8935 61.6685 57.0462C61.7317 57.199 61.7602 57.2831 61.7507 57.2894Z" fill="white"/>
<g opacity="0.3">
<path d="M43.1622 73.6173C43.4912 73.4708 43.5893 73.025 43.3837 72.7694C43.1749 72.5138 42.8048 72.4545 42.4726 72.4608C40.8371 72.4919 39.4135 73.5705 37.8033 73.8604C36.5791 74.0817 35.32 73.8323 34.1306 73.477C32.9411 73.1216 31.7801 72.6572 30.559 72.4296C30.3028 72.3829 30.037 72.3454 29.7871 72.4109C29.5372 72.4764 29.3031 72.6727 29.2715 72.9284C29.2398 73.184 29.3 73.371 29.6859 73.4988C29.6859 73.4988 33.732 74.6054 36.6613 74.5649C39.7678 74.5181 43.1622 73.6173 43.1622 73.6173Z" fill="black"/>
</g>
<path d="M127.462 119.375H105.394V122.364H127.462V119.375Z" fill="#374361"/>
<path d="M127.5 122.401H105.356V119.34H127.5V122.401ZM105.432 122.327H127.424V119.412H105.432V122.327Z" fill="#374361"/>
<path d="M107.441 121.37L110.617 136.809H122.372L125.441 122.364L107.441 121.37Z" fill="#374361"/>
<path d="M107.441 135.35L109.136 137.645H123.422L125.441 135.35H107.441Z" fill="#727C94"/>
<path d="M115.599 121.819C115.555 121.819 115.501 114.665 115.476 105.843C115.45 97.0181 115.466 89.8641 115.507 89.8641C115.552 89.8641 115.605 97.015 115.631 105.843C115.659 114.665 115.643 121.819 115.599 121.819Z" fill="#374361"/>
<path d="M120.515 103.916C120.521 103.92 120.499 103.976 120.455 104.082C120.404 104.203 120.338 104.356 120.259 104.546C120.215 104.649 120.167 104.758 120.116 104.88C120.072 105.004 120.022 105.142 119.971 105.285C119.917 105.431 119.86 105.587 119.8 105.749C119.74 105.915 119.696 106.095 119.636 106.279C119.395 107.021 119.202 107.931 119.019 108.941C118.857 109.958 118.737 111.083 118.677 112.271C118.57 114.646 118.706 116.8 118.851 118.352C118.921 119.128 118.993 119.755 119.047 120.188C119.069 120.391 119.088 120.556 119.104 120.687C119.114 120.802 119.117 120.862 119.114 120.862C119.107 120.862 119.095 120.802 119.073 120.69C119.05 120.559 119.022 120.397 118.987 120.194C118.918 119.764 118.829 119.138 118.744 118.362C118.57 116.809 118.415 114.649 118.522 112.261C118.582 111.07 118.709 109.936 118.88 108.916C119.073 107.9 119.278 106.987 119.534 106.245C119.595 106.058 119.645 105.88 119.708 105.715C119.772 105.55 119.835 105.397 119.892 105.251C119.949 105.107 120.003 104.973 120.053 104.849C120.107 104.727 120.164 104.618 120.211 104.518C120.303 104.334 120.376 104.185 120.436 104.066C120.48 103.966 120.512 103.913 120.515 103.916Z" fill="#374361"/>
<path d="M119.952 98.1309C119.958 98.1341 119.933 98.2151 119.882 98.3678C119.825 98.5331 119.75 98.7544 119.651 99.0318C119.601 99.1783 119.544 99.3373 119.484 99.5119C119.43 99.6895 119.37 99.8828 119.307 100.089C119.177 100.503 119.028 100.974 118.895 101.501C118.826 101.766 118.75 102.04 118.674 102.327C118.608 102.617 118.538 102.919 118.468 103.231C118.313 103.854 118.203 104.531 118.06 105.235C117.817 106.656 117.602 108.228 117.456 109.883C117.317 111.541 117.257 113.125 117.235 114.568C117.231 116.008 117.247 117.308 117.307 118.396C117.326 118.941 117.361 119.434 117.39 119.864C117.415 120.297 117.443 120.668 117.472 120.974C117.494 121.267 117.513 121.501 117.526 121.675C117.535 121.834 117.538 121.921 117.535 121.921C117.529 121.921 117.516 121.837 117.494 121.678C117.472 121.504 117.447 121.273 117.412 120.98C117.374 120.678 117.339 120.304 117.304 119.873C117.266 119.44 117.225 118.948 117.197 118.402C117.121 117.311 117.092 116.011 117.089 114.565C117.102 113.122 117.159 111.532 117.298 109.867C117.447 108.206 117.665 106.632 117.918 105.207C118.063 104.499 118.18 103.823 118.342 103.2C118.418 102.888 118.487 102.585 118.557 102.296C118.636 102.009 118.715 101.731 118.788 101.469C118.927 100.94 119.085 100.472 119.224 100.057C119.291 99.8516 119.357 99.6615 119.414 99.4838C119.481 99.3124 119.541 99.1534 119.598 99.0069C119.705 98.7326 119.791 98.5143 119.854 98.3523C119.914 98.2057 119.946 98.1278 119.952 98.1309Z" fill="#374361"/>
<path d="M114.204 123.084C114.201 123.084 114.198 123.056 114.191 123C114.185 122.934 114.179 122.853 114.169 122.754C114.153 122.526 114.131 122.208 114.103 121.806C114.049 120.971 113.973 119.783 113.881 118.321C113.688 115.378 113.413 111.317 112.91 106.847C112.654 104.612 112.357 102.489 112.047 100.565C111.882 99.6054 111.733 98.692 111.563 97.841C111.407 96.9869 111.24 96.1983 111.085 95.4782C110.939 94.755 110.778 94.1066 110.648 93.5362C110.522 92.9657 110.395 92.4763 110.294 92.0773C110.196 91.6846 110.12 91.376 110.066 91.1546C110.044 91.0549 110.025 90.977 110.009 90.9146C109.997 90.8616 109.993 90.8305 109.997 90.8305C110 90.8305 110.009 90.8554 110.025 90.9084C110.044 90.9707 110.066 91.0487 110.095 91.1453C110.158 91.3666 110.243 91.6721 110.354 92.0617C110.468 92.4576 110.598 92.947 110.734 93.5175C110.873 94.0879 111.041 94.7332 111.192 95.4564C111.354 96.1765 111.528 96.9651 111.689 97.8192C111.863 98.6702 112.018 99.5835 112.186 100.544C112.502 102.47 112.806 104.593 113.062 106.831C113.565 111.304 113.824 115.372 113.989 118.318C114.071 119.789 114.125 120.983 114.16 121.806C114.176 122.208 114.188 122.526 114.194 122.754C114.198 122.853 114.198 122.938 114.201 123C114.207 123.056 114.207 123.084 114.204 123.084Z" fill="#374361"/>
<path d="M115.419 93.3024C115.324 92.2893 114.283 91.5256 113.252 91.5131C112.217 91.5038 111.256 92.1116 110.623 92.919C109.99 93.7232 109.642 94.7082 109.358 95.687C108.662 98.0748 108.282 100.584 108.579 103.05C108.877 105.516 109.892 107.944 111.689 109.69C111.98 109.973 112.36 110.257 112.761 110.173C112.98 110.126 113.16 109.976 113.328 109.83C116.858 106.688 118.895 101.984 118.756 97.2986C118.728 96.3604 118.604 95.3847 118.076 94.6023C117.548 93.8198 116.317 92.9907 115.419 93.3024Z" fill="#00B3C7"/>
<path d="M107.706 85.1852C107.222 86.0518 106.735 86.9153 106.251 87.7818C106.216 87.8411 106.172 87.9096 106.102 87.9159C106.026 87.9221 105.969 87.8504 105.928 87.7881C104.647 85.8492 103.363 83.9103 102.082 81.9714L102.967 81.4757L107.706 85.1852Z" fill="#00B3C7"/>
<g opacity="0.2">
<path d="M107.706 85.1852C107.222 86.0518 106.735 86.9153 106.251 87.7818C106.216 87.8411 106.172 87.9096 106.102 87.9159C106.026 87.9221 105.969 87.8504 105.928 87.7881C104.647 85.8492 103.363 83.9103 102.082 81.9714L102.967 81.4757L107.706 85.1852Z" fill="black"/>
</g>
<path d="M115.51 89.8641C111.135 87.3205 106.764 84.7769 102.388 82.2363C102.256 82.1584 102.11 82.068 102.069 81.9184C102.015 81.7282 102.164 81.5412 102.303 81.4009C104.106 79.568 106.729 78.5019 109.313 78.6858C111.898 78.8698 114.387 80.3411 115.653 82.5699C116.918 84.7987 116.963 87.7475 115.51 89.8641Z" fill="#00B3C7"/>
<path d="M104.28 79.7987C104.28 79.7924 104.34 79.7862 104.451 79.7769C104.565 79.7706 104.733 79.7519 104.948 79.7519C105.378 79.7426 106.004 79.7706 106.767 79.8953C107.529 80.02 108.424 80.26 109.361 80.6715C110.294 81.0798 111.262 81.6721 112.145 82.4514C113.018 83.237 113.714 84.1285 114.22 85.0044C114.729 85.8803 115.061 86.7345 115.261 87.4701C115.463 88.2058 115.555 88.8167 115.586 89.2407C115.612 89.4526 115.605 89.6179 115.612 89.7301C115.615 89.8423 115.612 89.9015 115.609 89.9015C115.596 89.9015 115.577 89.6677 115.526 89.25C115.476 88.8323 115.368 88.2276 115.156 87.5044C114.742 86.0642 113.777 84.1222 112.04 82.573C110.3 81.0237 108.247 80.2725 106.751 80.0106C105.998 79.8735 105.378 79.8298 104.951 79.8205C104.517 79.8049 104.28 79.8143 104.28 79.7987Z" fill="#374361"/>
<path d="M113.733 84.5992C113.739 84.6179 113.489 84.7332 113.068 84.8953C112.651 85.0574 112.065 85.2662 111.414 85.4689C110.759 85.6746 110.161 85.8367 109.725 85.9396C109.288 86.0455 109.013 86.0954 109.01 86.0736C109.003 86.0518 109.269 85.9645 109.696 85.8336C110.18 85.684 110.743 85.5125 111.366 85.3192C111.986 85.1228 112.549 84.9421 113.034 84.7893C113.461 84.6553 113.726 84.5773 113.733 84.5992Z" fill="#374361"/>
<path d="M111.667 79.1285C111.708 79.1254 111.803 79.7706 111.822 80.5717C111.844 81.3729 111.784 82.0212 111.74 82.0212C111.695 82.0212 111.686 81.3729 111.664 80.578C111.645 79.78 111.623 79.1347 111.667 79.1285Z" fill="#374361"/>
<path d="M102.275 82.0898C102.268 82.0711 102.632 81.9402 103.227 81.7594C103.822 81.5786 104.654 81.3479 105.577 81.1297C106.504 80.9115 107.349 80.7432 107.962 80.6341C108.576 80.5281 108.959 80.4813 108.965 80.5001C108.968 80.5219 108.592 80.606 107.985 80.7401C107.377 80.8741 106.539 81.058 105.615 81.2762C104.691 81.4944 103.859 81.7064 103.258 81.8623C102.654 82.0181 102.281 82.1116 102.275 82.0898Z" fill="#374361"/>
<path d="M109.459 90.9053C108.329 90.0605 107.137 89.8953 105.723 89.9514C104.309 90.0075 102.929 90.4314 101.632 90.9925C99.4211 91.9464 97.3396 93.3554 96.0173 95.3473C94.6949 97.3392 94.2362 99.9763 95.2264 102.146C95.3245 102.361 95.4542 102.589 95.6756 102.682C95.9097 102.782 96.1754 102.704 96.4159 102.626C98.9308 101.819 101.465 101.002 103.78 99.7332C106.093 98.4676 108.2 96.7064 109.443 94.4028C109.74 93.851 109.99 93.2588 110.038 92.6322C110.085 92.0088 109.911 91.3448 109.459 90.9053Z" fill="#00B3C7"/>
<path d="M109.481 90.6434C109.481 90.6497 109.421 90.6746 109.301 90.7151C109.165 90.7619 108.991 90.8211 108.772 90.8928C108.655 90.9302 108.529 90.9738 108.39 91.0175C108.25 91.0674 108.105 91.1266 107.944 91.1889C107.624 91.3167 107.257 91.4414 106.868 91.6285C106.672 91.7157 106.466 91.8093 106.251 91.9059C106.036 92.0025 105.824 92.1241 105.596 92.2363C105.141 92.4576 104.679 92.7382 104.188 93.025C103.224 93.6266 102.202 94.3498 101.209 95.2008C100.225 96.0642 99.3642 96.9682 98.6366 97.8348C98.2855 98.2774 97.9438 98.6951 97.6623 99.1129C97.5199 99.3186 97.3712 99.5119 97.2447 99.7082C97.1213 99.9046 97.0011 100.095 96.8872 100.276C96.65 100.631 96.476 100.977 96.3083 101.273C96.2261 101.423 96.147 101.557 96.0805 101.688C96.0173 101.815 95.9603 101.937 95.9066 102.046C95.8053 102.249 95.7231 102.411 95.6598 102.539C95.6029 102.651 95.5681 102.707 95.5649 102.707C95.5586 102.704 95.5839 102.642 95.6313 102.526C95.6883 102.395 95.761 102.227 95.8528 102.021C95.9034 101.909 95.9572 101.787 96.0173 101.656C96.0805 101.526 96.1565 101.385 96.2356 101.236C96.3969 100.936 96.5646 100.584 96.7986 100.223C96.9094 100.039 97.0264 99.8454 97.1498 99.6459C97.2732 99.4464 97.4187 99.25 97.561 99.0412C97.8394 98.6172 98.1779 98.1964 98.5291 97.7475C99.2567 96.8716 100.117 95.9551 101.11 95.0854C102.11 94.2251 103.141 93.5019 104.119 92.9034C104.616 92.6197 105.084 92.3392 105.542 92.121C105.77 92.0088 105.988 91.8903 106.204 91.7968C106.422 91.7033 106.628 91.6129 106.827 91.5287C107.222 91.3479 107.596 91.2263 107.918 91.1079C108.08 91.0518 108.231 90.9925 108.371 90.9489C108.51 90.9084 108.639 90.871 108.757 90.8367C108.978 90.7743 109.155 90.7245 109.294 90.6839C109.415 90.6528 109.481 90.6372 109.481 90.6434Z" fill="#374361"/>
<path d="M100.664 95.3473C100.677 95.3878 99.4465 95.7774 97.9185 96.2201C96.3906 96.6596 95.141 96.9838 95.1283 96.9433C95.1157 96.9028 96.3463 96.5131 97.8742 96.0705C99.4053 95.6278 100.655 95.3067 100.664 95.3473Z" fill="#374361"/>
<path d="M100.554 101.317C100.532 101.317 100.506 100.996 100.494 100.475C100.478 99.9545 100.478 99.2344 100.5 98.4395C100.522 97.6446 100.566 96.9246 100.611 96.4071C100.655 95.8865 100.696 95.5686 100.718 95.5686C100.74 95.5686 100.737 95.8928 100.721 96.4134C100.702 96.9838 100.68 97.6789 100.658 98.4458C100.639 99.2126 100.62 99.9077 100.607 100.478C100.588 100.993 100.576 101.314 100.554 101.317Z" fill="#374361"/>
<path d="M105.742 98.7107C105.697 98.7138 105.561 97.2488 105.435 95.4408C105.308 93.6328 105.239 92.1646 105.283 92.1615C105.327 92.1584 105.463 93.6203 105.59 95.4314C105.716 97.2394 105.786 98.7076 105.742 98.7107Z" fill="#374361"/>
<path d="M99.282 92.0212C99.282 91.9994 99.6205 91.9901 100.161 91.9963C100.706 91.9994 101.452 92.015 102.281 92.043C103.107 92.0711 103.856 92.1023 104.397 92.1334C104.938 92.1646 105.274 92.1958 105.274 92.2176C105.274 92.2394 104.938 92.2488 104.394 92.2425C103.85 92.2394 103.103 92.2238 102.275 92.1958C101.446 92.1677 100.699 92.1366 100.158 92.1054C99.6173 92.0711 99.282 92.043 99.282 92.0212Z" fill="#374361"/>
<path d="M112.252 110.385C112.246 110.385 112.239 110.325 112.233 110.207C112.227 110.073 112.221 109.905 112.211 109.699C112.192 109.256 112.186 108.617 112.205 107.829C112.22 107.04 112.271 106.098 112.366 105.057C112.467 104.016 112.616 102.878 112.828 101.691C113.046 100.503 113.306 99.384 113.574 98.3741C113.85 97.3641 114.131 96.4663 114.394 95.7182C114.653 94.9701 114.884 94.3716 115.055 93.9664C115.137 93.7762 115.204 93.6203 115.254 93.4988C115.302 93.3928 115.33 93.3367 115.333 93.3398C115.34 93.3429 115.321 93.399 115.283 93.5112C115.238 93.6359 115.181 93.7949 115.112 93.9913C114.957 94.4059 114.745 95.0075 114.498 95.7556C114.248 96.5038 113.983 97.4046 113.714 98.4115C113.454 99.4214 113.198 100.537 112.983 101.722C112.771 102.906 112.619 104.041 112.512 105.076C112.41 106.111 112.344 107.049 112.315 107.835C112.284 108.62 112.271 109.259 112.274 109.702C112.271 109.908 112.271 110.076 112.268 110.21C112.262 110.322 112.258 110.385 112.252 110.385Z" fill="#374361"/>
<path d="M112.945 101.563C112.961 101.579 112.761 101.797 112.423 102.13C112.084 102.464 111.6 102.913 111.053 103.387C110.503 103.86 109.99 104.275 109.611 104.562C109.231 104.848 108.984 105.014 108.972 104.998C108.959 104.979 109.177 104.786 109.538 104.478C109.94 104.132 110.42 103.723 110.949 103.271C111.474 102.813 111.948 102.401 112.347 102.052C112.705 101.738 112.929 101.547 112.945 101.563Z" fill="#374361"/>
<path d="M117.099 104.861C117.08 104.873 116.871 104.577 116.542 104.1C116.184 103.586 115.738 102.944 115.245 102.236C114.742 101.535 114.286 100.902 113.922 100.391C113.581 99.9202 113.375 99.6241 113.391 99.6116C113.407 99.5991 113.647 99.8703 114.011 100.325C114.375 100.781 114.862 101.423 115.374 102.149C115.887 102.875 116.33 103.549 116.637 104.041C116.94 104.534 117.118 104.848 117.099 104.861Z" fill="#374361"/>
<path d="M114.922 94.4932C114.944 94.5306 113.565 95.4439 111.841 96.538C110.117 97.6322 108.7 98.4863 108.674 98.452C108.652 98.4146 110.031 97.5013 111.755 96.4071C113.483 95.313 114.9 94.4558 114.922 94.4932Z" fill="#374361"/>
<path d="M118.813 98.6297C118.782 98.6609 117.848 97.8099 116.725 96.7313C115.602 95.6496 114.716 94.7519 114.748 94.7207C114.78 94.6895 115.713 95.5405 116.836 96.6222C117.959 97.6976 118.842 98.5985 118.813 98.6297Z" fill="#374361"/>
<path d="M119.791 98.5455L120.974 98.4489C121.815 98.3803 122.631 98.134 123.365 97.7288C123.729 97.5262 124.093 97.3298 124.479 97.1771C125.944 96.5973 127.576 96.7001 129.151 96.6222C131.723 96.4944 134.267 95.8554 136.585 94.7488C136.718 94.6864 136.839 94.5867 136.908 94.4589C137.152 94.0225 136.699 93.6328 136.31 93.3959C134.314 92.1833 132.283 90.9583 130.021 90.3566C127.759 89.755 125.191 89.8579 123.261 91.1671C120.999 92.707 120.173 95.8616 119.791 98.5455Z" fill="#00B3C7"/>
<path d="M136.94 94.3186C136.937 94.3248 136.867 94.2905 136.74 94.2251C136.598 94.1503 136.411 94.0568 136.181 93.9352C135.693 93.6827 134.994 93.3117 134.108 92.8909C133.223 92.4763 132.147 92.0087 130.901 91.6721C129.657 91.3323 128.221 91.1546 126.741 91.3385C125.267 91.5287 123.909 92.096 122.948 92.9439C121.98 93.7887 121.391 94.808 120.974 95.6777C120.556 96.5536 120.3 97.2955 120.113 97.8067C120.025 98.0499 119.955 98.2463 119.901 98.3959C119.851 98.5299 119.822 98.5985 119.819 98.5985C119.813 98.5954 119.832 98.5237 119.873 98.3865C119.92 98.2338 119.98 98.0374 120.056 97.788C120.224 97.2737 120.468 96.5225 120.873 95.634C121.281 94.755 121.869 93.7107 122.853 92.841C123.83 91.9651 125.219 91.3853 126.722 91.1889C128.228 90.9988 129.686 91.1858 130.942 91.5381C132.201 91.8872 133.276 92.3672 134.162 92.7974C135.045 93.2307 135.738 93.6172 136.215 93.8853C136.443 94.0162 136.623 94.1222 136.763 94.2001C136.88 94.2718 136.943 94.3124 136.94 94.3186Z" fill="#374361"/>
<path d="M134.096 95.8242C134.07 95.8585 132.524 94.8735 130.638 93.6203C128.753 92.3672 127.244 91.323 127.266 91.2856C127.291 91.2513 128.838 92.2363 130.727 93.4894C132.612 94.7425 134.121 95.7868 134.096 95.8242Z" fill="#374361"/>
<path d="M132.609 91.1391C132.618 91.1796 132.081 91.3167 131.401 91.3791C130.72 91.4414 130.167 91.404 130.167 91.3604C130.167 91.3167 130.714 91.2856 131.385 91.2232C132.055 91.164 132.599 91.0954 132.609 91.1391Z" fill="#374361"/>
<path d="M125.665 89.9109C125.703 89.9327 125.475 90.3816 125.156 90.9115C124.836 91.4414 124.548 91.856 124.514 91.8342C124.479 91.8124 124.703 91.3635 125.023 90.8336C125.339 90.3036 125.627 89.8922 125.665 89.9109Z" fill="#374361"/>
<path d="M127.051 96.722C127.041 96.7407 126.753 96.591 126.304 96.323C125.858 96.0549 125.251 95.6621 124.605 95.2008C123.96 94.7394 123.391 94.2999 122.979 93.9819C122.571 93.6609 122.325 93.4551 122.337 93.4396C122.35 93.424 122.622 93.5985 123.046 93.8947C123.511 94.2282 124.074 94.6303 124.697 95.0761C125.343 95.5374 125.934 95.9395 126.364 96.2326C126.798 96.5225 127.063 96.7033 127.051 96.722Z" fill="#374361"/>
<path d="M121.534 103.505C120.404 103.212 119.057 104.294 118.826 105.422C118.592 106.55 119.022 107.704 119.525 108.742C120.638 111.042 122.173 113.175 124.197 114.764C126.219 116.354 128.753 117.367 131.34 117.355C130.863 115.17 131.467 112.885 131.201 110.665C130.97 108.726 130.053 106.875 128.645 105.503C127.237 104.132 125.349 103.246 123.381 103.034C122.657 102.959 121.822 102.847 121.534 103.505Z" fill="#00B3C7"/>
<path d="M131.337 117.355C131.334 117.361 131.28 117.333 131.176 117.28C131.075 117.224 130.926 117.137 130.752 116.999C130.398 116.734 129.99 116.223 129.635 115.528C129.455 115.182 129.253 114.808 129.056 114.396C128.867 113.982 128.661 113.539 128.449 113.072C128.234 112.607 127.997 112.127 127.702 111.656C127.408 111.186 127.06 110.728 126.674 110.279C125.902 109.384 125.07 108.608 124.352 107.869C123.628 107.133 123.021 106.423 122.581 105.774C122.138 105.129 121.869 104.552 121.717 104.147C121.644 103.941 121.591 103.782 121.565 103.67C121.537 103.558 121.524 103.502 121.531 103.499C121.546 103.496 121.61 103.726 121.774 104.125C121.942 104.521 122.223 105.085 122.673 105.715C123.119 106.348 123.729 107.043 124.457 107.772C125.178 108.505 126.013 109.278 126.795 110.182C127.184 110.634 127.538 111.102 127.832 111.582C128.129 112.062 128.367 112.548 128.579 113.016C128.787 113.483 128.987 113.926 129.173 114.343C129.363 114.755 129.559 115.135 129.733 115.481C130.075 116.176 130.455 116.681 130.79 116.956C131.125 117.236 131.347 117.342 131.337 117.355Z" fill="#374361"/>
<path d="M125.498 115.541C125.479 115.537 125.513 115.251 125.602 114.792C125.69 114.334 125.836 113.704 126.032 113.019C126.228 112.333 126.437 111.722 126.605 111.286C126.772 110.849 126.893 110.587 126.915 110.594C126.937 110.6 126.851 110.877 126.712 111.323C126.573 111.766 126.38 112.38 126.184 113.062C125.988 113.745 125.827 114.365 125.713 114.817C125.592 115.266 125.52 115.544 125.498 115.541Z" fill="#374361"/>
<path d="M131.125 110.176C131.119 110.198 130.815 110.12 130.328 109.995C129.841 109.87 129.17 109.699 128.421 109.534C127.674 109.368 126.991 109.238 126.497 109.147C126.004 109.054 125.697 108.997 125.7 108.973C125.703 108.951 126.013 108.973 126.516 109.038C127.016 109.103 127.706 109.216 128.458 109.381C129.211 109.549 129.882 109.736 130.363 109.889C130.841 110.042 131.132 110.154 131.125 110.176Z" fill="#374361"/>
<path d="M121.306 111.734C121.284 111.731 121.328 111.398 121.429 110.868C121.527 110.338 121.686 109.605 121.898 108.807C122.109 108.009 122.334 107.295 122.511 106.784C122.688 106.273 122.815 105.961 122.834 105.968C122.856 105.974 122.767 106.298 122.616 106.815C122.467 107.333 122.258 108.05 122.049 108.845C121.837 109.64 121.663 110.363 121.537 110.89C121.41 111.413 121.328 111.738 121.306 111.734Z" fill="#374361"/>
<path d="M128.534 105.5C128.531 105.544 127.12 105.431 125.384 105.248C123.65 105.067 122.245 104.886 122.252 104.842C122.255 104.799 123.666 104.911 125.403 105.095C127.136 105.276 128.538 105.456 128.534 105.5Z" fill="#374361"/>
<path d="M127.5 122.352C127.5 122.395 122.543 122.43 116.431 122.43C110.316 122.43 105.359 122.395 105.359 122.352C105.359 122.308 110.316 122.274 116.431 122.274C122.543 122.274 127.5 122.308 127.5 122.352Z" fill="#727C94"/>
<path d="M124.052 128.636C124.052 128.68 120.711 128.714 116.592 128.714C112.474 128.714 109.133 128.68 109.133 128.636C109.133 128.592 112.474 128.558 116.592 128.558C120.711 128.558 124.052 128.592 124.052 128.636Z" fill="#727C94"/>
<path d="M124.182 129.534C124.182 129.577 120.841 129.612 116.722 129.612C112.603 129.612 109.263 129.577 109.263 129.534C109.263 129.49 112.603 129.456 116.722 129.456C120.841 129.456 124.182 129.493 124.182 129.534Z" fill="#727C94"/>
<path d="M124.182 127.894C124.182 127.938 120.727 127.972 116.466 127.972C112.205 127.972 108.75 127.938 108.75 127.894C108.75 127.85 112.205 127.816 116.466 127.816C120.727 127.819 124.182 127.853 124.182 127.894Z" fill="#727C94"/>
<path d="M133.643 137.645C133.643 137.688 103.723 137.726 66.8249 137.726C29.9137 137.726 0 137.688 0 137.645C0 137.601 29.9137 137.564 66.8249 137.564C103.723 137.564 133.643 137.601 133.643 137.645Z" fill="#374361"/>
</svg>
