<svg width="215" height="136" viewBox="0 0 215 136" fill="none" xmlns="http://www.w3.org/2000/svg">
<path d="M165.012 9.27986H22.6769V109.006H165.012V9.27986Z" fill="white"/>
<path d="M165.012 109.333H22.6769C22.4808 109.333 22.3501 109.202 22.3501 109.006V9.27985C22.3501 9.0838 22.4808 8.95309 22.6769 8.95309H165.012C165.208 8.95309 165.339 9.0838 165.339 9.27985V109.006C165.339 109.137 165.208 109.333 165.012 109.333ZM23.069 108.679H164.751V9.60661H23.069V108.679Z" fill="#011B34"/>
<path d="M165.012 0.326752H22.6769V9.27988H165.012V0.326752Z" fill="white"/>
<path d="M165.012 9.60664H22.6769C22.4808 9.60664 22.3501 9.47594 22.3501 9.27989V0.326757C22.3501 0.130703 22.4808 0 22.6769 0H165.012C165.208 0 165.339 0.130703 165.339 0.326757V9.27989C165.339 9.47594 165.208 9.60664 165.012 9.60664ZM23.069 8.95313H164.751V0.653513H23.069V8.95313Z" fill="#011B34"/>
<path d="M41.6286 36.9889H40.7137C39.7334 36.9889 38.9492 36.074 38.9492 34.963C38.9492 33.852 39.7334 32.9371 40.7137 32.9371H41.2365V33.9827H40.7137C40.3216 33.9827 39.9948 34.4402 39.9948 35.0283C39.9948 35.6165 40.3216 36.074 40.7137 36.074H41.6286V36.9889Z" fill="#727C94"/>
<path d="M54.3068 36.9889H55.2217C56.202 36.9889 56.9862 36.074 56.9862 34.963C56.9862 33.852 56.202 32.9371 55.2217 32.9371H54.6989V33.9827H55.2217C55.6138 33.9827 55.9405 34.4402 55.9405 35.0283C55.9405 35.6165 55.6138 36.074 55.2217 36.074H54.3068V36.9889Z" fill="#727C94"/>
<path d="M50.7125 38.0999V37.0542C51.7581 37.0542 52.5424 36.7928 53.1959 36.1393C54.1761 35.1591 54.2415 33.5906 54.2415 33.5253L55.2218 33.5906C55.2218 33.656 55.2218 35.5512 53.9147 36.8582C53.1305 37.6424 52.0849 38.0999 50.7125 38.0999Z" fill="#727C94"/>
<path d="M49.0787 39.4068C47.9024 39.4068 46.9221 38.6226 46.9221 37.577C46.9221 36.5967 47.837 35.7472 49.0787 35.7472C50.255 35.7472 51.2353 36.5314 51.2353 37.577C51.2353 38.5573 50.255 39.4068 49.0787 39.4068ZM49.0787 36.7274C48.4905 36.7274 47.9677 37.1195 47.9677 37.5116C47.9677 37.9037 48.4905 38.2959 49.0787 38.2959C49.6669 38.2959 50.1897 37.9037 50.1897 37.5116C50.255 37.1195 49.7322 36.7274 49.0787 36.7274Z" fill="#727C94"/>
<path d="M41.3018 33.4599L41.1711 32.4796C44.4387 32.0221 46.726 30.9765 47.9023 29.3427C48.948 27.905 48.7519 26.5326 48.7519 26.4673L49.7322 26.2712C49.7322 26.3366 50.0589 28.101 48.6865 29.9309C47.3142 31.7607 44.8308 32.937 41.3018 33.4599Z" fill="#727C94"/>
<path d="M53.3918 33.6559C49.6014 33.6559 47.837 29.9309 47.7716 29.8655L48.6865 29.4734C48.7519 29.6041 50.5817 33.4599 54.6335 32.4796L54.8949 33.4599C54.3721 33.5906 53.8493 33.6559 53.3918 33.6559Z" fill="#727C94"/>
<path d="M47.9677 41.0406C43.9813 41.0406 40.7137 37.6424 40.7137 33.4599C40.7137 29.2774 43.9813 25.8791 47.9677 25.8791C51.9542 25.8791 55.2217 29.2774 55.2217 33.4599C55.2217 37.6424 51.9542 41.0406 47.9677 41.0406ZM47.9677 26.8594C44.5041 26.8594 41.7594 29.8655 41.7594 33.4599C41.7594 37.0542 44.5695 40.0604 47.9677 40.0604C51.4314 40.0604 54.1761 37.0542 54.1761 33.4599C54.2415 29.8655 51.366 26.8594 47.9677 26.8594Z" fill="#727C94"/>
<path d="M37.25 46.4648C37.25 46.3995 36.9886 44.7657 38.0996 43.5894C38.8185 42.8052 39.9294 42.3477 41.3672 42.3477C42.5435 42.3477 43.3931 42.0863 43.7852 41.4981C44.3733 40.7793 44.1773 39.6683 44.1773 39.6683L45.1575 39.4069C45.1575 39.4722 45.4843 40.91 44.5694 42.0863C43.9159 42.9359 42.8703 43.328 41.3018 43.328C40.1908 43.328 39.3413 43.5894 38.8185 44.2429C38.0996 45.0925 38.2303 46.4648 38.2303 46.4648H37.25Z" fill="#727C94"/>
<path d="M47.9677 45.3539L43.8506 42.1516L44.4387 41.3674L47.9024 44.0468L51.1699 41.3674L51.8234 42.1516L47.9677 45.3539Z" fill="#727C94"/>
<path d="M58.62 46.4648H57.7051C57.7051 46.4648 57.7704 45.0925 57.0516 44.2429C56.5288 43.6547 55.6792 43.328 54.5682 43.328C53.0651 43.328 51.9542 42.9359 51.3007 42.0863C50.3857 40.9753 50.7125 39.4722 50.7125 39.4069L51.6928 39.6683C51.6928 39.6683 51.4314 40.7139 52.0849 41.4981C52.5423 42.0863 53.3265 42.3477 54.5029 42.3477C55.9406 42.3477 56.9862 42.7398 57.7704 43.5894C58.8814 44.7657 58.6854 46.3341 58.62 46.4648Z" fill="#727C94"/>
<path d="M48.0331 51.4968C39.7335 51.4968 33.0676 44.7656 33.0676 36.5314C33.0676 28.2971 39.7988 21.5659 48.0331 21.5659C56.2673 21.5659 62.9985 28.2971 62.9985 36.5314C62.9985 44.7656 56.3327 51.4968 48.0331 51.4968ZM48.0331 22.4809C40.2563 22.4809 33.9825 28.8199 33.9825 36.5314C33.9825 44.3082 40.3216 50.5819 48.0331 50.5819C55.8099 50.5819 62.0836 44.2428 62.0836 36.5314C62.149 28.7546 55.8099 22.4809 48.0331 22.4809Z" fill="#952F23"/>
<path d="M58.7506 49.9938C60.5914 49.9938 62.0836 48.5016 62.0836 46.6609C62.0836 44.8202 60.5914 43.328 58.7506 43.328C56.9099 43.328 55.4177 44.8202 55.4177 46.6609C55.4177 48.5016 56.9099 49.9938 58.7506 49.9938Z" fill="#952F23"/>
<path d="M0 127.762C0 127.566 0.130703 127.435 0.326757 127.435H213.633C213.829 127.435 213.96 127.566 213.96 127.762C213.96 127.958 213.829 128.089 213.633 128.089H0.326757C0.130703 128.089 0 127.893 0 127.762Z" fill="#B0B6C2"/>
<path d="M191.871 31.8261C190.564 30.9765 189.061 30.4537 187.558 30.2577C191.087 34.1788 188.996 44.3736 183.441 46.0073C179.128 47.249 174.488 44.831 171.22 42.413L168.018 39.995C166.45 38.9494 165.012 37.7077 163.705 36.3354C161.418 33.9827 160.176 30.7805 160.307 27.4476C160.307 20.455 163.77 18.3637 163.705 18.1023C164.162 20.1936 165.404 22.0888 167.103 23.3958C166.907 20.9778 167.757 18.6251 169.521 16.926C168.345 19.0826 170.175 21.8274 172.462 22.7423C174.749 23.6572 177.298 23.3304 179.781 23.5918C182.265 23.8533 184.944 24.8989 185.728 27.1862C185.728 25.8791 186.186 24.7028 186.97 23.6572C188.277 24.8989 188.473 26.8594 187.493 28.3625C189.453 28.2318 191.414 29.7349 191.871 31.8261Z" fill="white"/>
<path d="M171.024 42.6745L167.822 40.3218C166.254 39.2108 164.816 37.9692 163.444 36.6621C161.091 34.1788 159.784 30.8459 159.98 27.4476C159.98 21.6313 162.398 19.0826 163.182 18.2331C163.248 18.1677 163.313 18.1024 163.378 18.037C163.444 17.9063 163.509 17.841 163.64 17.7756C163.836 17.7103 163.966 17.841 164.032 18.037C164.424 19.8015 165.404 21.4353 166.711 22.677C166.711 20.455 167.626 18.2984 169.26 16.73C169.391 16.5993 169.587 16.5993 169.717 16.73C169.848 16.8607 169.913 16.9914 169.783 17.1221C169.391 17.841 169.325 18.7559 169.652 19.5401C170.175 20.8471 171.22 21.9581 172.527 22.4809C174.096 23.0037 175.795 23.2651 177.429 23.1998C178.148 23.1998 178.932 23.2651 179.716 23.3305C182.33 23.5919 184.421 24.5721 185.402 26.1406C185.598 25.2257 185.99 24.3107 186.578 23.5919C186.643 23.5265 186.709 23.4612 186.839 23.4612C186.905 23.4612 187.035 23.4612 187.101 23.5265C188.342 24.7028 188.735 26.598 188.016 28.1665C190.107 28.3625 191.871 29.8002 192.329 31.8915C192.329 32.0222 192.329 32.1529 192.198 32.2182C192.068 32.2836 191.937 32.2836 191.806 32.2182C190.76 31.4994 189.584 31.0419 188.408 30.8459C189.846 33.0025 190.172 36.4007 189.192 39.8643C188.212 43.2626 186.121 45.746 183.703 46.4648C182.853 46.7262 182.003 46.8569 181.154 46.7916C177.298 46.6609 173.638 44.5696 171.024 42.6745ZM187.493 29.8656C188.8 29.9963 190.042 30.3884 191.218 31.0419C190.499 29.5388 188.931 28.6239 187.297 28.6893C187.166 28.6893 187.035 28.6239 186.97 28.4932C186.905 28.3625 186.905 28.2318 186.97 28.1665C187.82 26.9248 187.689 25.291 186.774 24.18C186.186 25.0949 185.859 26.1406 185.859 27.1862C185.859 27.3169 185.728 27.513 185.598 27.513C185.467 27.513 185.271 27.4476 185.206 27.3169C184.291 24.5721 180.631 24.0493 179.52 23.9186C178.801 23.8533 178.017 23.7879 177.298 23.7879C175.534 23.8533 173.834 23.5919 172.135 23.0037C170.632 22.4155 169.456 21.1739 168.868 19.6708C168.672 19.2133 168.606 18.7559 168.606 18.2331C167.561 19.7361 167.103 21.5006 167.299 23.3305C167.299 23.4612 167.234 23.5919 167.103 23.6572C166.973 23.7226 166.842 23.7226 166.777 23.6572C165.208 22.4155 164.032 20.7164 163.444 18.8212C162.529 19.7361 160.568 22.1541 160.568 27.4476C160.568 31.1073 161.548 33.5906 163.901 36.1393C165.208 37.4463 166.646 38.688 168.214 39.7336L171.416 42.1516C174.553 44.4389 179.128 46.9223 183.376 45.6806C185.663 45.0271 187.493 42.7398 188.473 39.4722C189.519 35.9433 189.061 32.2836 187.362 30.4538C187.297 30.3231 187.232 30.1924 187.297 30.0616C187.297 29.9963 187.428 29.8656 187.493 29.8656Z" fill="#011B34"/>
<path d="M197.426 132.663C162.463 134.624 140.048 129.592 140.048 129.592C142.008 104.105 143.708 88.2897 143.708 88.2897L125.801 75.9383C125.801 75.9383 140.244 60.254 154.49 56.3329C158.281 55.3526 162.202 54.9605 166.123 55.2219C178.344 55.6794 189.127 56.1368 194.551 60.5807C200.825 64.5671 207.621 85.0221 208.079 85.8717L196.838 88.7471C196.446 92.2761 197.426 132.663 197.426 132.663Z" fill="#CDD7E7"/>
<path d="M179.193 61.4957L168.933 89.3353L163.313 104.628L163.182 89.5967L162.921 62.0185L179.193 61.4957Z" fill="#011B34"/>
<path d="M179.193 61.4956L168.933 89.3353L163.313 104.562L163.182 89.5967L162.921 61.9531L179.193 61.4956ZM179.193 60.8421L162.921 61.3649C162.529 61.3649 162.267 61.6917 162.267 62.0185L162.529 89.6621L162.659 104.628C162.659 104.954 162.855 105.216 163.182 105.281H163.313C163.574 105.281 163.836 105.085 163.901 104.824L169.521 89.5967L179.781 61.757C179.847 61.561 179.847 61.2996 179.716 61.1689C179.585 60.9075 179.389 60.8421 179.193 60.8421Z" fill="#011B34"/>
<path d="M167.495 71.7558L165.535 69.5339L168.541 66.4623L170.632 69.7299L168.933 71.8865V89.3353L163.313 104.628L163.182 89.5967L167.495 71.7558Z" fill="white"/>
<path d="M160.437 46.5302C160.503 41.8249 164.881 31.8261 164.881 31.8261C170.044 33.3946 175.468 33.5253 180.696 32.2182C177.821 41.5635 181.873 44.635 181.873 44.635L179.193 61.4303C177.102 64.5018 173.769 66.4623 170.044 66.7891C163.836 67.2465 162.921 61.9531 162.921 61.9531L164.162 52.0197C164.162 52.0197 160.372 51.2355 160.437 46.5302Z" fill="white"/>
<path d="M162.529 62.0838C162.529 62.0184 162.529 62.0184 162.529 61.9531L163.77 52.2811C162.855 51.9543 160.111 50.7126 160.111 46.5955C160.176 41.8249 164.359 32.2182 164.555 31.7608C164.62 31.6301 164.816 31.4994 164.947 31.5647C170.044 33.0678 175.403 33.1985 180.566 31.9568C180.696 31.8915 180.827 31.9568 180.892 32.0222C180.958 32.0875 181.023 32.2182 180.958 32.3489C178.213 41.3674 182.003 44.4389 182.003 44.4389C182.069 44.5043 182.134 44.635 182.134 44.7657L179.455 61.561C179.455 61.6263 179.455 61.6263 179.389 61.6917C177.233 64.8939 173.769 66.9198 169.979 67.1812C169.717 67.2465 169.456 67.2465 169.195 67.2465C166.058 67.3772 163.248 65.2206 162.529 62.0838ZM181.546 44.7657C180.762 44.1122 177.886 40.7792 180.239 32.6757C175.207 33.7866 170.044 33.6559 165.077 32.2182C164.359 33.852 160.83 42.3477 160.83 46.4648C160.83 50.8433 164.162 51.6276 164.293 51.6276C164.489 51.6929 164.555 51.8236 164.555 52.0197L163.313 61.9531C163.444 62.4759 164.489 66.8544 170.109 66.4623C173.704 66.1355 176.906 64.2404 178.997 61.2996L181.546 44.7657Z" fill="#011B34"/>
<path d="M178.017 48.36C178.082 48.36 178.082 48.36 178.017 48.36C180.304 49.7977 183.245 49.1442 184.617 46.9223C184.944 46.3995 185.206 45.8113 185.402 45.2231C185.598 44.7003 185.663 44.1122 185.598 43.524C185.402 42.8051 185.01 42.217 184.421 41.7595C184.16 41.5635 183.899 41.4328 183.637 41.3021C183.18 41.1714 182.722 41.1714 182.33 41.3021C181.546 41.4328 180.762 41.6288 180.043 42.0209C179.324 42.4784 178.736 43.1319 178.409 43.9161" fill="white"/>
<path d="M177.821 48.6214C177.69 48.4907 177.625 48.2946 177.756 48.1639C177.886 48.0332 178.082 47.9679 178.213 48.0986C179.193 48.7521 180.435 48.9482 181.611 48.6868C182.788 48.4253 183.768 47.7065 184.421 46.7262C184.748 46.2034 185.01 45.6806 185.14 45.0924C185.336 44.5696 185.402 44.0468 185.336 43.524C185.14 42.8705 184.814 42.3477 184.291 41.9556C184.095 41.7595 183.899 41.6288 183.637 41.5635C183.245 41.4981 182.853 41.4981 182.526 41.5635C181.807 41.6288 181.023 41.8902 180.37 42.217C179.716 42.6091 179.128 43.1972 178.867 43.9161C178.801 44.1122 178.605 44.1775 178.409 44.1122C178.213 44.0468 178.148 43.8508 178.213 43.6547C178.605 42.8051 179.193 42.0863 180.043 41.6942C180.762 41.3021 181.611 41.0407 182.396 40.9753C182.853 40.8446 183.376 40.8446 183.833 40.9753C184.16 41.106 184.487 41.2367 184.748 41.4981C185.402 41.9556 185.859 42.6744 186.055 43.4586C186.121 44.1122 186.055 44.7003 185.859 45.3538C185.663 46.0074 185.402 46.5955 185.075 47.1837C184.356 48.36 183.18 49.1442 181.873 49.471C181.546 49.5363 181.154 49.6017 180.827 49.6017C179.651 49.4056 178.67 49.1442 177.821 48.6214Z" fill="#011B34"/>
<path d="M164.359 52.2158C168.149 53.6535 172.723 52.0197 172.723 52.0197C172.723 52.0197 172.724 53.5228 169.652 55.614C167.757 56.9211 165.535 57.6399 163.248 57.7053L164.359 52.2158Z" fill="#011B34"/>
<path d="M163.051 57.9013C162.986 57.836 162.986 57.7053 162.986 57.6399L164.032 52.1504C164.032 52.0851 164.097 51.9544 164.228 51.9544C164.293 51.889 164.424 51.889 164.489 51.9544C168.083 53.3267 172.593 51.7583 172.658 51.7583C172.789 51.693 172.854 51.7583 172.985 51.8237C173.05 51.889 173.116 52.0197 173.116 52.0851C173.116 52.2811 172.985 53.8496 169.913 55.9408C167.953 57.2478 165.665 58.032 163.313 58.0974C163.182 58.032 163.117 57.9667 163.051 57.9013ZM164.62 52.6732L163.705 57.3785C165.796 57.1825 167.757 56.529 169.521 55.3526C171.351 54.111 172.005 53.0653 172.266 52.5425C170.894 52.8693 167.626 53.6535 164.62 52.6732Z" fill="#011B34"/>
<path d="M168.737 98.9419C168.606 98.8112 168.606 98.6152 168.737 98.4845L182.657 85.4795L177.756 77.8334C177.69 77.7027 177.69 77.5067 177.821 77.376L185.206 72.0825L181.546 63.4562C181.481 63.2601 181.546 63.1294 181.742 62.9987C181.938 62.9333 182.134 62.9987 182.199 63.1947L185.99 72.0825C186.055 72.2132 185.99 72.4093 185.859 72.4746L178.474 77.7681L183.376 85.3488C183.441 85.4795 183.441 85.6756 183.31 85.7409L169.195 98.9419C169.129 99.0073 169.064 99.0073 168.998 99.0726C168.868 99.0726 168.802 99.0073 168.737 98.9419Z" fill="#011B34"/>
<path d="M158.869 96.8507L152.399 78.3563C152.334 78.2256 152.399 78.0295 152.53 77.9642L156.32 75.9383L152.464 73.2589C152.334 73.1282 152.268 72.9321 152.399 72.8014L160.176 61.2996C160.307 61.1689 160.503 61.1035 160.633 61.2342C160.764 61.3649 160.829 61.561 160.699 61.6917L153.118 72.9321L157.104 75.7422C157.17 75.8076 157.235 75.9383 157.235 76.0036C157.235 76.1343 157.17 76.1997 157.039 76.265L153.053 78.4216L159.457 96.72C159.522 96.9161 159.457 97.1121 159.261 97.1121C159.196 97.1121 159.196 97.1121 159.13 97.1121C159 97.1121 158.869 96.9814 158.869 96.8507Z" fill="#011B34"/>
<path d="M127.435 76.3304C127.435 76.3304 122.664 81.6238 117.371 86.6559C109.986 82.212 100.576 74.4352 100.576 74.4352C98.2883 74.2391 89.0085 68.6843 86.7212 68.6189C84.6953 68.5535 80.5781 70.3834 80.3821 72.736C80.3821 73.651 80.7088 74.5659 81.2316 75.3501C82.604 77.2453 84.3685 78.8137 86.4597 79.8593C88.3549 80.9703 90.5115 81.8199 92.2107 83.1269C93.3216 84.1072 94.4326 85.1528 95.4129 86.3291C97.8962 88.8125 113.254 104.824 118.417 104.824C126.324 104.824 141.812 86.2638 141.812 86.2638" fill="white"/>
<path d="M96.0664 87.244L95.2821 86.4598C94.9554 86.133 94.6286 85.7409 94.2365 85.4142C93.583 84.6953 92.8642 83.9765 92.0799 83.3229C90.9036 82.4734 89.7273 81.7545 88.4203 81.1663C87.7014 80.8396 86.9825 80.4475 86.329 80.0554C84.6952 79.1405 82.4079 77.6374 80.9702 75.4154C80.3821 74.6312 80.0553 73.6509 80.0553 72.6053C80.186 70.0566 84.4338 68.2268 86.5904 68.2268H86.7211C87.9628 68.2921 90.9036 69.7299 94.0405 71.2329C96.7199 72.54 99.53 73.9124 100.576 74.0431C100.641 74.0431 100.706 74.0431 100.772 74.1084C100.837 74.1738 110.052 81.7545 117.306 86.1984C122.468 81.2317 127.108 76.0689 127.174 76.0689C127.304 75.9382 127.5 75.9382 127.631 76.0689C127.762 76.1997 127.762 76.3957 127.631 76.5264C127.566 76.5918 122.795 81.8852 117.567 86.9173C117.436 87.048 117.306 87.048 117.175 86.9826C110.182 82.8001 101.36 75.5461 100.445 74.7619C99.2032 74.5659 96.5892 73.2588 93.7791 71.8865C90.969 70.5141 87.8321 68.9456 86.7211 68.9456H86.6558C84.7606 68.9456 80.9049 70.6448 80.7742 72.736C80.7742 73.5856 81.0356 74.4352 81.5584 75.154C82.9307 77.2453 85.1527 78.683 86.7211 79.5979C87.3746 79.99 88.0935 80.3168 88.747 80.7089C90.054 81.297 91.3611 82.0813 92.5374 82.9308C93.3216 83.5843 94.0405 84.3032 94.7593 85.0874C95.0861 85.4795 95.4129 85.8063 95.7396 86.133L96.5238 86.9173C108.026 98.6151 115.41 104.497 118.547 104.497C126.193 104.497 141.551 86.1984 141.747 86.0023C141.878 85.8716 142.074 85.8716 142.204 85.937C142.335 86.0677 142.335 86.2637 142.27 86.3944C141.616 87.1787 126.52 105.085 118.613 105.085C115.149 105.085 107.83 99.2033 96.0664 87.244Z" fill="#011B34"/>
<path d="M119.005 100.576L132.206 135.473L163.182 133.644L151.484 96.7854L119.005 100.576Z" fill="#011B34"/>
<path d="M131.944 135.539L118.743 100.641C118.678 100.576 118.678 100.445 118.743 100.38C118.809 100.314 118.874 100.249 119.005 100.249L151.419 96.4586C151.55 96.4586 151.746 96.524 151.746 96.72L163.444 133.578C163.444 133.709 163.444 133.774 163.378 133.84C163.313 133.905 163.248 133.97 163.117 133.97L132.14 135.8C132.075 135.735 132.01 135.669 131.944 135.539ZM151.223 97.1121L119.462 100.837L132.402 135.081L162.659 133.317L151.223 97.1121Z" fill="#011B34"/>
<path d="M191.871 88.4857L196.903 109.071L160.437 110.182C160.437 110.182 155.209 105.804 155.209 105.673C155.209 105.542 155.209 110.77 155.209 110.77C155.209 110.77 147.563 107.96 145.145 107.96C142.727 107.96 146.191 119.201 148.086 121.488C149.981 123.775 160.503 122.599 160.503 122.599C160.503 122.599 207.817 128.938 213.176 122.468C218.535 115.999 208.079 85.8716 208.079 85.8716" fill="white"/>
<path d="M160.437 122.861C159.196 122.991 149.72 123.906 147.759 121.619C146.125 119.724 142.989 110.64 144.1 108.222C144.23 107.83 144.622 107.568 145.014 107.568C147.171 107.568 153.053 109.594 154.752 110.248C154.686 107.503 154.686 106.261 154.752 105.738C154.817 105.346 154.883 105.346 155.013 105.346C155.144 105.346 155.275 105.412 155.34 105.477C155.601 105.739 158.542 108.287 160.437 109.856L196.381 108.81L191.414 88.6165C191.349 88.4204 191.479 88.2897 191.675 88.2243C191.871 88.159 192.002 88.2897 192.067 88.4858L197.099 109.071C197.099 109.202 197.099 109.267 197.034 109.333C196.969 109.398 196.903 109.464 196.773 109.464L160.307 110.574C160.241 110.574 160.111 110.574 160.111 110.509C157.366 108.157 156.059 107.046 155.405 106.457C155.405 107.503 155.405 109.464 155.405 110.836C155.405 110.967 155.34 111.032 155.275 111.097C155.209 111.163 155.079 111.163 154.948 111.163C154.883 111.163 147.367 108.353 145.014 108.353C144.884 108.353 144.753 108.418 144.688 108.614C143.773 110.64 146.648 119.397 148.217 121.292C149.654 123.057 157.431 122.599 160.372 122.272H160.437C160.568 122.272 172.462 123.841 184.748 124.625C205.268 125.867 211.346 124.037 212.784 122.272C217.947 115.999 207.752 86.3292 207.621 86.0024C207.556 85.8064 207.686 85.6756 207.817 85.6103C208.013 85.5449 208.144 85.6756 208.209 85.8063C208.667 87.048 218.665 116.129 213.241 122.664C211.346 124.952 204.55 125.671 196.446 125.671C181.546 125.605 162.006 123.057 160.437 122.861Z" fill="#011B34"/>
<path d="M143.054 94.4327C142.858 94.3674 142.727 94.2367 142.793 94.0406L148.151 66.397C148.217 66.2009 148.347 66.0702 148.544 66.1356C148.74 66.2009 148.805 66.3316 148.805 66.5277L143.511 94.1713C143.511 94.302 143.315 94.4327 143.185 94.4327H143.054Z" fill="#011B34"/>
<path d="M190.303 85.6103L187.362 76.3957C187.297 76.1997 187.427 76.0036 187.624 75.9383C187.82 75.8729 188.016 76.0036 188.081 76.1997L191.022 85.4142C191.087 85.6103 190.956 85.741 190.826 85.8063H190.695C190.499 85.8717 190.368 85.8063 190.303 85.6103Z" fill="#011B34"/>
<path d="M96.5239 83.1269L57.1171 38.1652L57.7706 37.7078L98.223 82.0159L96.5239 83.1269Z" fill="#011B34"/>
<path d="M96.2625 83.3883L56.8556 38.4266C56.7903 38.3612 56.7903 38.2305 56.7903 38.1652C56.7903 38.0998 56.8556 37.9691 56.921 37.9038L57.5745 37.5117C57.7052 37.4463 57.9013 37.4463 58.032 37.577L98.4844 81.8852C98.5498 81.9506 98.5498 82.0813 98.5498 82.1466C98.5498 82.212 98.4844 82.3427 98.4191 82.408L96.7199 83.519C96.6546 83.5844 96.5892 83.5844 96.5239 83.5844C96.4585 83.4537 96.3278 83.4537 96.2625 83.3883ZM57.7052 38.1652L57.6399 38.2305L96.5892 82.7348L97.7002 81.9506L57.7052 38.1652Z" fill="#011B34"/>
<path d="M94.5633 78.0948C93.3869 77.1799 92.4067 76.069 91.6878 74.7619C91.0343 73.3896 91.3611 71.1023 91.6225 71.1023C89.5312 71.2983 88.8123 71.8211 86.6558 71.8211C85.1527 71.8865 83.6496 71.6904 82.2772 71.1676C81.8198 70.9716 81.3623 70.7102 81.3623 70.1873C81.3623 69.9259 81.4277 69.6645 81.6237 69.4685C82.2119 68.815 82.9961 68.2921 83.8456 68.0961C86.5904 67.1812 89.4005 66.6584 92.3413 66.593C92.7988 66.5277 93.3216 66.593 93.7137 66.7891C94.0405 66.9851 94.3672 67.2465 94.6286 67.5079C95.9356 68.9457 98.8111 72.6707 101.425 74.958" fill="white"/>
<path d="M94.4326 78.2909L94.3672 78.2256C93.1909 77.3106 92.2106 76.1997 91.4918 74.8927C91.0343 73.7817 90.969 72.6054 91.165 71.4944C90.5769 71.5597 90.1194 71.6904 89.6619 71.8211C88.747 72.0826 87.7667 72.2132 86.7865 72.2132C85.218 72.2786 83.715 72.0825 82.2772 71.5597C81.4277 71.1676 81.1663 70.7102 81.1663 70.3181C81.1663 69.9913 81.2316 69.6646 81.493 69.3378C82.1465 68.6189 82.9307 68.0961 83.911 67.8347C86.6558 66.9198 89.5312 66.397 92.472 66.2663C93.4523 66.1356 94.4326 66.5277 95.0207 67.3119C95.4128 67.7694 96.001 68.4229 96.6545 69.2071C98.2229 71.1676 99.9874 72.9975 101.817 74.762C101.948 74.8927 101.948 75.0887 101.817 75.2194C101.687 75.3501 101.491 75.3501 101.36 75.2194C99.53 73.4549 97.7655 71.5597 96.1317 69.5992C95.4782 68.815 94.89 68.1615 94.4979 67.704C94.3019 67.4426 93.9751 67.1812 93.7137 67.0505C93.3216 66.9198 92.9295 66.8544 92.472 66.9198C89.5966 66.9851 86.7865 67.508 84.1071 68.4229C83.3229 68.6189 82.604 69.0764 82.0158 69.6646C81.8851 69.7953 81.8198 69.9913 81.8198 70.1874C81.8851 70.5141 82.2772 70.7755 82.5386 70.8409C83.911 71.3637 85.3487 71.5597 86.7865 71.4944C87.7014 71.4944 88.6163 71.3637 89.5312 71.1676C90.2501 70.9716 90.969 70.8409 91.6878 70.7755C91.8185 70.7755 91.9492 70.8409 92.0146 70.9062C92.1453 71.0369 92.0799 71.233 91.9492 71.3637C91.6878 72.4093 91.7532 73.5856 92.1453 74.6312C92.7988 75.8729 93.7791 76.9185 94.89 77.7681L94.9554 77.8335C95.0861 77.9642 95.0861 78.1602 94.9554 78.2909C94.89 78.3563 94.8247 78.4216 94.694 78.4216C94.4979 78.3563 94.4979 78.3563 94.4326 78.2909Z" fill="#011B34"/>
</svg>
