<!-- Generator: Adobe Illustrator 25.3.1, SVG Export Plug-In . SVG Version: 6.00 Build 0)  -->
<svg version="1.1" id="Capa_1" xmlns="http://www.w3.org/2000/svg" xmlns:xlink="http://www.w3.org/1999/xlink" x="0px" y="0px"
	 viewBox="0 0 1200 1200" style="enable-background:new 0 0 1200 1200;" xml:space="preserve">
<style type="text/css">
	.st0{clip-path:url(#SVGID_2_);fill:#63C0C4;}
	.st1{clip-path:url(#SVGID_2_);}
	.st2{fill:#EEBBA5;}
	.st3{fill:#8ED1E3;}
	.st4{fill:#FDCCB6;}
	.st5{fill:#606060;}
	.st6{fill:#4D8481;}
	.st7{fill:#343833;}
	.st8{fill:#C5E6F5;}
</style>
<g>
	<defs>
		
			<ellipse id="SVGID_1_" transform="matrix(0.7071 -0.7071 0.7071 0.7071 -248.5296 599.9993)" cx="600" cy="600" rx="593" ry="593"/>
	</defs>
	<clipPath id="SVGID_2_">
		<use xlink:href="#SVGID_1_"  style="overflow:visible;"/>
	</clipPath>
	<ellipse transform="matrix(0.7071 -0.7071 0.7071 0.7071 -248.5296 599.9993)" class="st0" cx="600" cy="600" rx="593" ry="593"/>
	<g class="st1">
		<g>
			<g>
				<g>
					<g>
						<g>
							<path class="st2" d="M354.27,444.27c0,23.1-1.65,41.82,8.26,41.82s27.64-18.73,27.64-41.82c0-23.1-13.85-38.81-23.76-38.81
								C356.49,405.47,354.27,421.18,354.27,444.27z"/>
							<path class="st2" d="M192.38,444.27c0,23.1,1.65,41.82-8.26,41.82c-9.91,0-27.64-18.73-27.64-41.82
								c0-23.1,13.85-38.81,23.76-38.81C190.16,405.47,192.38,421.18,192.38,444.27z"/>
						</g>
						<path class="st3" d="M-6,721.59c23.82-44.75,129.23-68.22,195.56-79.96c55.4-9.81,112.13-9.81,167.54,0
							c66.33,11.75,171.74,35.22,195.56,79.96c49.74,93.44,46.72,257.72,46.72,257.72l-307.86,237.29L-52.73,979.31
							C-52.73,979.31-55.74,815.03-6,721.59z"/>
						<path class="st4" d="M205.5,578.41c0-10.05,0-78.37,0-78.37h135.64c0,0,0,68.32,0,78.37c0,36.84,25.55,59.43,68.38,73.74
							c0,0-31.71,38.8-136.21,38.8s-136.28-38.78-136.28-38.78C179.87,637.85,205.5,615.25,205.5,578.41z"/>
						<g>
							<path class="st2" d="M273.16,616.07c-23.21,0-47.45-9.23-67.83-32.86c0.1-1.58,0.17-3.17,0.17-4.8c0-10.05,0-78.37,0-78.37
								h135.64c0,0,0,68.32,0,78.37c0,1.51,0.06,2.99,0.14,4.46C320.85,606.7,296.48,616.07,273.16,616.07z"/>
						</g>
						<path class="st4" d="M173.08,444.42c0,82.5,41.88,152.33,100.09,152.33c60.89,0,100.09-69.82,100.09-152.33
							c0-93.22-44.81-133.41-100.09-133.41S173.08,351.2,173.08,444.42z"/>
					</g>
				</g>
			</g>
			<path class="st5" d="M174.55,522.73c8.75,124.45,188.47,124.45,197.22,0c2.55-36.24,2.18-59.68,1.48-81.42l1.05-35.05l-8.78-4.81
				c0,0,1.88,141.58-34.61,107.45c-31.08-29.08-84.43-29.08-115.51,0c-36.48,34.13-34.4-112.86-34.4-112.86l-7.69,34.43
				C172.61,452.21,172.01,486.48,174.55,522.73z M236.02,535.26c0.67-26.41,73.63-26.41,74.3,0
				C310.72,551.45,235.6,551.45,236.02,535.26z"/>
			<path class="st5" d="M373.25,444.42c0,0-7.55-82.16-39.17-94.5c-31.62-12.34-121.84-14.65-130.32-5.4
				c-8.48,9.25-28.9,82.91-30.44,88.31c0,0-18.91-69.8-11.97-102.19c6.94-32.39,29.3-35.47,29.3-35.47s8.45-38.55,57.06-52.44
				c30.76-8.78,75.67-9.29,101.77,14.65c27.08,24.85,22.19,53.63,22.19,53.63s21.47,8.07,19.2,33.39
				C387.87,377.94,373.25,444.42,373.25,444.42z"/>
		</g>
		<g>
			<circle class="st5" cx="927.77" cy="260.36" r="45.36"/>
			<g>
				<g>
					<path class="st2" d="M1008.87,444.27c0,23.1-1.65,41.82,8.26,41.82s27.64-18.73,27.64-41.82c0-23.1-13.85-38.81-23.76-38.81
						C1011.09,405.47,1008.87,421.18,1008.87,444.27z"/>
					<path class="st2" d="M846.98,444.27c0,23.1,1.65,41.82-8.26,41.82c-9.91,0-27.64-18.73-27.64-41.82
						c0-23.1,13.85-38.81,23.76-38.81C844.76,405.47,846.98,421.18,846.98,444.27z"/>
				</g>
				<path class="st6" d="M668.69,721.59c23.82-44.75,109.13-68.22,175.46-79.96c55.4-9.81,112.13-9.81,167.54,0
					c66.33,11.75,151.65,35.22,175.46,79.96c49.74,93.44,46.72,257.72,46.72,257.72l-299.16,112.08L621.97,979.31
					C621.97,979.31,618.96,815.03,668.69,721.59z"/>
				<path class="st4" d="M860.1,578.41c0-10.05,0-78.37,0-78.37h135.64c0,0,0,68.32,0,78.37c0,36.84,25.23,60.08,68.06,74.39
					c0,0-31.39,38.14-135.89,38.14c-104.5,0-136.2-38.06-136.2-38.06C834.55,638.57,860.1,615.25,860.1,578.41z"/>
				<g>
					<path class="st2" d="M927.77,621.09c-23.21,0-47.46-14.26-67.83-37.88c0.1-1.58,0.17-3.17,0.17-4.8c0-10.05,0-78.37,0-78.37
						h135.64c0,0,0,68.32,0,78.37c0,1.51,0.06,2.99,0.14,4.46C975.45,606.7,951.09,621.09,927.77,621.09z"/>
				</g>
				<path class="st4" d="M827.68,444.42c0,82.5,52.6,152.33,100.09,152.33c47.49,0,100.09-69.82,100.09-152.33
					c0-93.22-44.81-133.41-100.09-133.41C872.49,311.01,827.68,351.2,827.68,444.42z"/>
			</g>
			<path class="st5" d="M912.59,254.02c132.71-13.53,145.61,149.9,115.26,192.98c0,0,1.05-63.5-60.46-53.37
				c-25.68,4.23-69.34,19.81-115.19-30.41c0,0-24.09,66.13-24.52,81.52C825.16,439.02,775.5,267.99,912.59,254.02z"/>
		</g>
		<g>
			<rect x="502.37" y="474.5" class="st5" width="281.34" height="410.4"/>
			<path class="st7" d="M632.54,310.17c-93.52-0.83-139.24,62.87-159.48,131.59c-20.24,68.72-68.51,110.31-66.95,168.17
				c1.56,57.87,42.04,84.99,37.37,144.67c-4.67,59.67-31.14,74.14-3.11,132.01s21.8,94.03-1.56,122.97c0,0,82.52-28.93,90.31-95.84
				c7.79-66.91-15.57-56.06-9.34-84.99c6.23-28.93,38.93-56.06,35.81-112.12s-34.26-66.91-24.91-122.97s37.84-165.57,103.94-175.51
				l3.7-55.92L632.54,310.17z"/>
			<g>
				<g>
					<path class="st2" d="M725.56,559.58c0,26.37-1.89,47.75,9.43,47.75c11.32,0,31.56-21.38,31.56-47.75s-15.81-44.31-27.13-44.31
						C728.1,515.27,725.56,533.21,725.56,559.58z"/>
					<path class="st2" d="M540.74,559.58c0,26.37,1.89,47.75-9.43,47.75c-11.32,0-31.56-21.38-31.56-47.75s15.81-44.31,27.13-44.31
						C538.2,515.27,540.74,533.21,540.74,559.58z"/>
				</g>
				<path class="st8" d="M337.18,876.2c27.19-51.09,124.6-77.88,200.33-91.3c63.25-11.2,128.03-11.2,191.28,0
					c75.73,13.41,173.13,40.21,200.33,91.3c56.78,106.69,53.34,294.25,53.34,294.25l-341.67,145.02l-356.95-145.02
					C283.84,1170.44,280.4,982.88,337.18,876.2z"/>
				<path class="st4" d="M555.72,712.73c0-11.47,0-89.48,0-89.48h154.87c0,0,0,78.01,0,89.48c0,42.06,28.81,68.59,77.71,84.93
					c0,0-35.84,43.55-155.14,43.55s-155.5-43.45-155.5-43.45C526.55,781.41,555.72,754.79,555.72,712.73z"/>
				<g>
					<path class="st2" d="M632.97,761.46c-26.5,0-54.18-16.28-77.44-43.25c0.11-1.8,0.19-3.62,0.19-5.48c0-11.47,0-89.48,0-89.48
						h154.87c0,0,0,78.01,0,89.48c0,1.73,0.07,3.42,0.16,5.09C687.42,745.03,659.59,761.46,632.97,761.46z"/>
				</g>
				<path class="st4" d="M518.7,559.75c0,94.19,60.05,173.91,114.27,173.91c54.22,0,114.27-79.72,114.27-173.91
					c0-106.43-51.16-152.32-114.27-152.32S518.7,453.32,518.7,559.75z"/>
			</g>
			<path class="st7" d="M631.61,310.17c97.83,1.66,150.02,62.87,171.47,131.59c21.45,68.72,72.59,110.31,70.94,168.17
				c-1.65,57.87-44.54,84.99-39.59,144.67c4.95,59.67,33,74.14,3.3,132.01c-29.7,57.87-23.1,94.03,1.65,122.97
				c0,0-87.44-28.93-95.69-95.84c-8.25-66.91,16.5-56.06,9.9-84.99c-6.6-28.93-41.24-56.06-37.95-112.12
				c3.3-56.06,32.61-66.28,26.4-122.97c-10.42-95.06-38.01-180.07-109.18-188.42L631.61,310.17z"/>
			<path class="st7" d="M743.85,521.82c0,0-96.07-8.6-151.57-76.57c0,0-27.1,42.16-67.11,47.32c0,0,27.29-97.8,109.12-97.8
				S743.85,521.82,743.85,521.82z"/>
		</g>
	</g>
</g>
</svg>
