<svg width="96" height="75" viewBox="0 0 96 75" fill="none" xmlns="http://www.w3.org/2000/svg">
<path d="M47.8565 11.067L33.5087 5.39892C33.3604 5.3942 33.2342 5.339 33.1337 5.24241L32.7623 5.09497L6.5336 15.1603C3.42524 16.3558 1.8656 19.8522 3.06108 22.9606L19.9319 66.9271C21.1274 70.0355 24.6237 71.5951 27.7321 70.3997L59.5554 58.1972C62.6637 57.0018 64.2234 53.5054 63.0279 50.397L47.8565 11.067Z" fill="#E9F5F3"/>
<path d="M62.6826 48.2317C62.2446 47.0856 61.8045 45.9611 61.37 44.8241C60.7774 43.3097 60.1958 41.7701 59.6032 40.2558C58.9203 38.4839 58.2339 36.7031 57.5474 34.9222C56.8219 33.0416 56.0964 31.1609 55.3765 29.2677C54.6616 27.4142 53.9503 25.5699 53.2355 23.7165C52.5916 22.0444 51.9422 20.3849 51.2948 18.7038C50.7716 17.3401 50.2448 15.9672 49.709 14.598C49.3541 13.6912 49.0048 12.7717 48.659 11.8614C48.5312 11.5349 48.4106 11.2266 48.2864 10.9092C48.2509 10.8186 48.131 10.6459 48.131 10.6459C48.131 10.6459 47.2656 10.7859 47.434 11.2428C47.5653 11.5783 47.6875 11.9174 47.8153 12.2438C48.1737 13.1597 48.5104 14.0736 48.8688 14.9895C49.392 16.3532 49.9243 17.7134 50.4511 19.0863C51.1005 20.7457 51.7317 22.4123 52.3756 24.0843L54.4953 29.5811C55.2137 31.4436 55.9356 33.3152 56.6505 35.1686C57.3389 36.9278 58.0092 38.6941 58.6885 40.4569C59.2812 41.9712 59.8556 43.4927 60.4518 45.0161L61.7876 48.4564C62.0416 49.0786 62.2683 49.7114 62.5096 50.328C63.047 51.728 63.1353 53.2097 62.5877 54.616C61.9613 56.1683 60.7288 57.2675 59.1711 57.8562L28.9328 69.4593C28.4884 69.6332 28.0315 69.8015 27.5781 69.979C25.1916 70.8815 22.442 70.0544 20.9839 67.9585C20.5885 67.4022 20.3618 66.7694 20.1134 66.1346L3.74804 23.4865C3.53355 22.9117 3.2954 22.3565 3.19879 21.7356C2.76268 19.1248 4.24309 16.5482 6.70959 15.583C7.20834 15.3878 7.71063 15.2017 8.22198 15.012L32.9418 5.52667C33.0688 5.47698 33.1599 5.38906 33.1914 5.28261C33.0889 5.2077 33.0045 5.1257 32.9493 5.01136C32.9044 4.97667 32.8705 4.91674 32.831 4.86943C32.7699 4.82014 32.7254 4.73301 32.6879 4.66402C32.6662 4.66205 32.6481 4.66914 32.6209 4.67979L7.66172 14.2484C7.04154 14.4806 6.37445 14.6998 5.78266 15.0046C3.29211 16.2825 1.8263 19.0834 2.29553 21.859C2.41343 22.5344 2.65474 23.151 2.89407 23.7893L19.3126 66.5735C19.6371 67.4294 20.0125 68.255 20.622 68.9576C22.4093 71.0396 25.3367 71.7867 27.899 70.8258C28.3378 70.6646 28.7912 70.4871 29.2265 70.3168L59.5374 58.6853C61.282 58.0131 62.7057 56.7344 63.4023 54.9874C64.0473 53.3756 63.9988 51.6484 63.3707 50.0433C63.1491 49.4504 62.9168 48.8302 62.6826 48.2317Z" fill="#E9F5F3"/>
<path d="M59.5791 58.1775L27.7594 70.389C24.651 71.5845 21.1547 70.0248 19.9592 66.9165L15.9311 56.4362L59.0145 39.9005L63.0426 50.3808C64.2507 53.4947 62.6946 57.0001 59.5791 58.1775Z" fill="#006757"/>
<path d="M40.3151 14.0809C40.1377 13.6275 39.8822 13.2151 39.5467 12.8654C38.8539 12.164 37.9223 11.7339 36.8755 11.7043C36.2246 11.6977 35.6229 11.8704 35.0244 12.1046L24.5584 16.1689C21.2812 17.4409 17.988 18.6982 14.727 19.9848C13.0041 20.659 12.0177 22.2267 12.1297 23.9291C12.1526 24.2548 12.2299 24.5591 12.347 24.8584C13.3429 27.3233 19.2387 41.935 20.8651 45.9309C21.3375 47.0845 22.4 47.9026 23.6633 48.0043C24.2145 48.05 24.7901 47.9711 25.3649 47.7566C28.4311 46.6404 31.4567 45.3937 34.498 44.214L46.1611 39.6812C47.2749 39.214 48.1008 38.3052 48.4489 37.2174C48.6118 36.725 48.5869 36.1805 48.3988 35.6999C47.1899 32.4504 41.3919 16.8593 40.3151 14.0809Z" fill="#006757"/>
<path d="M26.0618 44.9952C25.2276 45.3216 24.1051 45.9805 23.2042 45.5488C23.2097 45.5362 23.2026 45.518 23.2046 45.4963C23.2101 45.4837 23.2086 45.453 23.2216 45.4061C23.2409 45.2416 23.2602 45.0772 23.2831 44.9219C23.3485 44.3944 23.4356 43.8688 23.5318 43.3397C23.7873 41.8281 24.0518 40.3129 24.3289 38.8033C24.6419 37.0914 24.9549 35.3794 25.2896 33.6695C25.4256 32.8948 25.5119 30.5501 26.8008 31.3319C27.8862 31.9946 28.8739 32.9152 29.8844 33.6804C31.8514 35.1798 33.8275 36.6756 35.7945 38.1749C36.6738 38.8452 37.5565 39.5245 38.4322 40.1856L26.0618 44.9952Z" fill="#209F8B"/>
<path d="M45.3255 37.5195L40.9295 39.2188C39.5791 38.1997 38.2433 37.1644 36.8929 36.1452C37.1239 35.2392 37.3459 34.3367 37.5769 33.4307C37.7074 32.9091 37.8036 32.38 37.9593 31.8694C38.0965 31.4184 38.3618 31.2413 38.7975 31.2591C38.7849 31.2535 38.9852 31.3111 39.1003 31.3915C39.0877 31.386 39.1074 31.4097 39.12 31.4152C39.2154 31.472 39.2962 31.5449 39.3861 31.6143C39.78 31.8993 40.1558 32.1915 40.5496 32.4765C41.7096 33.3297 42.8605 34.1864 44.0204 35.0396C44.7451 35.582 45.4662 36.1155 46.1999 36.6544C46.0434 37.0294 45.7446 37.3345 45.3255 37.5195Z" fill="#209F8B"/>
<path d="M41.9126 30.6152C41.0567 29.9777 40.1104 29.0827 38.9954 28.9857C37.6979 28.8765 36.3996 29.5937 35.904 30.8124C35.7109 31.254 35.6328 31.776 35.5208 32.2381C35.3214 33.0377 35.1219 33.8373 34.9224 34.6368C33.6998 33.7036 32.4807 32.7795 31.258 31.8463C30.4975 31.2656 29.7279 30.6884 28.9764 30.1041C28.5305 29.7662 28.0652 29.3522 27.5515 29.135C26.6123 28.7392 25.5175 28.8539 24.6761 29.4028C23.8166 29.9587 23.4882 30.8297 23.2947 31.8047C22.956 33.558 22.63 35.3168 22.304 37.0756C22.004 38.7406 21.6969 40.3875 21.413 42.0671L15.2377 26.1531C14.9467 25.4095 14.336 24.3832 14.3892 23.5572C14.4672 22.3137 15.8401 22.0274 16.7831 21.6584L33.6765 15.0998C34.5198 14.7698 35.358 14.4 36.2282 14.1117C37.0947 13.8144 37.9255 14.2004 38.2827 15.0331C38.4018 15.3106 38.4972 15.6079 38.6198 15.8945L42.8296 26.7324C43.6616 28.8851 44.5207 31.0271 45.3527 33.1798C44.2073 32.3105 43.0635 31.4719 41.9126 30.6152Z" fill="#E9F5F3"/>
<path d="M32.777 24.3714C32.8095 24.4007 32.8856 24.434 32.777 24.3714V24.3714Z" fill="#006757"/>
<path d="M33.9046 24.7144C33.8269 24.7029 33.8703 24.7069 33.9046 24.7144V24.7144Z" fill="#006757"/>
<path d="M32.3479 20.6285C32.2346 20.7149 32.3095 20.6646 32.3479 20.6285V20.6285Z" fill="#006757"/>
<path d="M33.8828 17.9783C32.1141 18.0012 30.4251 19.2164 29.8826 20.9031C29.3126 22.6529 29.833 24.6242 31.3072 25.7726C32.7814 26.9211 34.7791 26.9759 36.3487 26.0166C38.1126 24.9394 38.7698 22.6641 38.068 20.7637C37.363 19.0424 35.7256 17.9578 33.8828 17.9783Z" fill="#006757"/>
<path d="M36.2958 21.7396C36.2993 21.7486 36.2993 21.7486 36.3029 21.7577C36.3289 21.9044 36.3549 22.051 36.3593 22.1957C36.3604 22.2789 36.3672 22.3495 36.3593 22.4362C36.3537 22.4489 36.3537 22.4489 36.3608 22.467C36.336 22.644 36.3167 22.8084 36.2702 22.9835C36.2647 22.9961 36.2647 22.9961 36.2591 23.0087C36.2501 23.0123 36.2536 23.0213 36.2426 23.0466C36.2185 23.1187 36.1909 23.1818 36.1633 23.2449C36.1503 23.2918 36.0348 23.5043 36.0238 23.5295C35.9524 23.6411 35.881 23.7527 35.8026 23.8461C35.7679 23.8911 35.7206 23.9305 35.6859 23.9755C35.6567 24.0078 35.6386 24.0149 35.6421 24.024C35.624 24.0311 35.6039 24.0598 35.5858 24.0669C35.4765 24.162 35.3456 24.255 35.2203 24.3354C35.1966 24.3552 35.1458 24.3855 35.113 24.4088C35.0586 24.4301 35.0168 24.4569 34.9624 24.4782C34.8173 24.5349 34.6723 24.5917 34.5201 24.6304C34.511 24.6339 34.511 24.6339 34.511 24.6339C34.4984 24.6284 34.4893 24.6319 34.4712 24.639C34.3734 24.6564 34.2938 24.6666 34.2015 24.6714C34.1128 24.6852 34.026 24.6773 33.9338 24.682C33.9338 24.682 33.9212 24.6765 33.9121 24.6801C33.7639 24.6753 33.6302 24.6544 33.4839 24.628C33.4153 24.613 33.3341 24.5925 33.2655 24.5776C33.2655 24.5776 33.2655 24.5776 33.2529 24.572C33.2403 24.5665 33.2367 24.5575 33.2115 24.5464C33.0475 24.4747 32.8961 24.4084 32.7411 24.3331C32.7411 24.3331 32.7376 24.3241 32.7285 24.3276C32.6583 24.2819 32.5846 24.2271 32.5109 24.1723C32.4659 24.1376 32.2881 23.9771 32.2684 23.9535C32.1895 23.8588 32.0945 23.7496 32.0121 23.6459C31.9818 23.5951 31.9514 23.5442 31.9084 23.4878C31.8887 23.4642 31.8816 23.446 31.8781 23.437C31.8583 23.4133 31.8568 23.3826 31.8371 23.3589C31.7783 23.2355 31.7251 23.0995 31.6719 22.9635C31.6738 22.9418 31.6139 22.7352 31.6261 22.7931C31.6119 22.7569 31.6194 22.7226 31.6017 22.6772C31.5756 22.5306 31.5713 22.3859 31.5689 22.2195C31.5709 22.1978 31.5674 22.1887 31.5638 22.1797C31.5693 22.1671 31.5748 22.1544 31.5733 22.1237C31.5902 22.0334 31.589 21.9502 31.606 21.8599C31.6174 21.7823 31.6324 21.7136 31.6564 21.6415C31.662 21.6289 31.6695 21.5946 31.6805 21.5693C31.7231 21.4377 31.7692 21.315 31.837 21.1944C31.837 21.1944 31.8737 21.1278 31.8958 21.0773C31.9304 21.0324 31.9762 20.9622 31.9762 20.9622C32.0767 20.8183 32.1934 20.6889 32.3066 20.5506C32.3156 20.547 32.3156 20.547 32.3156 20.547C32.3866 20.4879 32.452 20.4413 32.523 20.3822C32.5739 20.3518 32.6212 20.3124 32.6685 20.273C32.6685 20.273 32.743 20.2229 32.7848 20.1961C32.8392 20.1748 32.9173 20.1338 32.9137 20.1247C32.9827 20.0873 33.0588 20.068 33.1278 20.0305C33.2004 20.0021 33.2764 19.9828 33.349 19.9544C33.3707 19.9564 33.3853 19.9402 33.3943 19.9367C33.407 19.9422 33.416 19.9386 33.4432 19.928C33.6242 19.9094 33.7925 19.8854 33.9771 19.8759C33.9897 19.8814 33.9897 19.8814 33.9987 19.8779C34.0078 19.8743 34.0114 19.8834 34.024 19.8889C34.1233 19.9023 34.2282 19.9031 34.322 19.9291C34.378 19.9386 34.434 19.9481 34.4935 19.9666C34.5369 19.9705 34.5622 19.9816 34.5874 19.9926C34.6 19.9981 34.6252 20.0092 34.6595 20.0167C34.7857 20.0719 34.9336 20.129 35.0597 20.1842C35.0759 20.1988 35.0976 20.2008 35.1066 20.1972C35.1102 20.2063 35.1228 20.2118 35.148 20.2229C35.2182 20.2686 35.2919 20.3234 35.3657 20.3782C35.4394 20.433 35.495 20.4949 35.5687 20.5497C35.5849 20.5643 35.601 20.5789 35.6137 20.5844C35.6172 20.5935 35.6334 20.608 35.6405 20.6262C35.7588 20.7681 35.8589 20.9171 35.9646 21.0536C35.9681 21.0626 35.9843 21.0772 35.9878 21.0863C36.0395 21.1915 36.0876 21.2877 36.1266 21.3875C36.241 21.5728 36.2638 21.658 36.2958 21.7396Z" fill="#E9F5F3"/>
<path d="M48.1673 10.6317L45.8755 12.8983C45.6642 13.1065 45.4331 13.291 45.1698 13.4464C40.6385 16.0561 34.7493 13.352 33.5006 7.9431L32.7368 4.65533L48.1673 10.6317Z" fill="#209F8B"/>
<path d="M29.5259 55.9576L29.2422 64.8523L27.1203 65.6826L20.884 59.3394L23.2145 58.4274L27.2231 62.5786L27.3949 56.7915L29.5259 55.9576Z" fill="#E9F5F3"/>
<path d="M29.9702 55.7838L32.1284 54.9392L35.1092 62.5563L32.951 63.4009L29.9702 55.7838Z" fill="#E9F5F3"/>
<path d="M33.4432 54.4246L37.0432 53.0158C37.8775 52.6894 38.6814 52.5525 39.4494 52.618C40.2139 52.6743 40.8865 52.9235 41.4728 53.3528C42.0591 53.7822 42.494 54.3858 42.7956 55.1566C43.0973 55.9274 43.1785 56.6694 43.0484 57.379C42.9183 58.0887 42.5934 58.7282 42.0612 59.292C41.538 59.8523 40.8583 60.3065 40.0241 60.633L36.4241 62.0418L33.4432 54.4246ZM39.2591 58.9455C39.912 58.69 40.367 58.3029 40.6115 57.7785C40.865 57.2506 40.8567 56.6682 40.6012 56.0153C40.3457 55.3624 39.9474 54.9327 39.412 54.7135C38.8675 54.4978 38.2797 54.5187 37.6268 54.7742L36.2666 55.3065L37.9025 59.4869L39.2627 58.9546L39.2591 58.9455Z" fill="#E9F5F3"/>
<path d="M50.6518 54.55L51.3047 56.2186L45.1929 58.6103L42.212 50.9932L48.1879 48.6546L48.8408 50.3232L44.996 51.8278L45.4999 53.1154L48.8822 51.7918L49.5139 53.4059L46.1315 54.7295L46.678 56.126L50.6589 54.5682L50.6518 54.55Z" fill="#E9F5F3"/>
<path d="M53.8015 54.8232C53.0229 54.7306 52.3396 54.4542 51.7336 54.0012C51.1367 53.5447 50.6801 52.9391 50.3856 52.1864C50.091 51.4338 50.0062 50.6827 50.1438 49.9387C50.2723 49.1983 50.5956 48.528 51.1046 47.9315C51.6136 47.335 52.2752 46.8878 53.0731 46.5756C53.8802 46.2597 54.6731 46.1482 55.4391 46.2353C56.2052 46.3224 56.9011 46.6043 57.5071 47.0573C58.104 47.5138 58.5606 48.1194 58.8551 48.872C59.1496 49.6247 59.2344 50.3758 59.0968 51.1197C58.9683 51.8602 58.645 52.5304 58.1361 53.127C57.6271 53.7235 56.9655 54.1706 56.1675 54.4829C55.3731 54.8042 54.5802 54.9158 53.8015 54.8232ZM56.4174 52.0219C56.6548 51.7199 56.8093 51.3666 56.8594 50.9601C56.913 50.5627 56.8546 50.1464 56.6878 49.7202C56.5211 49.294 56.2813 48.9486 55.9722 48.6931C55.6631 48.4376 55.3154 48.2705 54.927 48.2133C54.5477 48.1526 54.1586 48.2003 53.7777 48.3494C53.3969 48.4984 53.0787 48.7275 52.8414 49.0295C52.604 49.3315 52.4495 49.6848 52.3994 50.0912C52.3458 50.4887 52.4042 50.905 52.571 51.3312C52.7377 51.7574 52.9775 52.1028 53.2866 52.3583C53.5957 52.6137 53.9434 52.7809 54.3318 52.8381C54.7111 52.8988 55.1002 52.8511 55.4811 52.702C55.8619 52.553 56.1801 52.3239 56.4174 52.0219Z" fill="#E9F5F3"/>
<path d="M92.1079 27.032L83.766 14.055C83.6484 13.9647 83.5782 13.8462 83.5529 13.7091L83.3374 13.3726L56.1652 6.23633C52.9435 5.39275 49.6363 7.32142 48.7927 10.5431L36.8291 56.0904C35.9855 59.3121 37.9142 62.6193 41.1359 63.4629L74.0982 72.1294C77.3199 72.9729 80.6271 71.0443 81.4707 67.8226L92.1079 27.032Z" fill="#E9F5F3"/>
<path d="M82.454 65.8627C82.7673 64.6764 83.0663 63.5066 83.3772 62.3297C83.7799 60.7542 84.2063 59.1646 84.609 57.589C85.0887 55.7518 85.5708 53.905 86.0528 52.0583C86.5614 50.1078 87.07 48.1573 87.5905 46.1998C88.0919 44.2776 88.5908 42.3649 89.0922 40.4427C89.5453 38.7092 89.9866 36.9827 90.4422 35.2398C90.8133 33.827 91.1869 32.4048 91.551 30.9803C91.7922 30.0368 92.0452 29.0864 92.2957 28.1453C92.3825 27.8057 92.4645 27.4849 92.5489 27.1547C92.573 27.0604 92.5765 26.8502 92.5765 26.8502C92.5765 26.8502 91.7921 26.4588 91.6621 26.9281C91.5729 27.2771 91.4742 27.6238 91.3874 27.9634C91.1438 28.9163 90.8838 29.8549 90.6403 30.8078C90.2691 32.2205 89.9074 33.6357 89.5338 35.0578C89.0926 36.7843 88.6324 38.506 88.1793 40.2395L86.692 45.94C86.1882 47.8716 85.6821 49.8127 85.1807 51.7349C84.7129 53.5652 84.2262 55.3906 83.7489 57.2184C83.3462 58.794 82.9246 60.3647 82.5195 61.9497L81.5961 65.5229C81.4392 66.1762 81.2539 66.8224 81.09 67.4639C80.7092 68.9144 79.9161 70.169 78.6506 70.9914C77.2359 71.8861 75.5936 72.0593 73.9851 71.6281L42.6596 63.4001C42.1973 63.2819 41.728 63.1519 41.2563 63.0313C38.7917 62.3712 37.0418 60.0947 37.0812 57.5419C37.0848 56.8593 37.2701 56.2132 37.4389 55.5528L49.0434 11.3711C49.2048 10.7791 49.3354 10.1894 49.6194 9.62877C50.7892 7.25428 53.4952 6.02625 56.0613 6.68216C56.5802 6.81479 57.0967 6.95685 57.6226 7.10133L83.2311 13.8279C83.3632 13.8616 83.4885 13.8434 83.5762 13.7754C83.5367 13.6547 83.5161 13.5389 83.538 13.4138C83.5217 13.3594 83.5292 13.2909 83.5248 13.2295C83.5039 13.1538 83.5186 13.0571 83.5285 12.9792C83.512 12.9649 83.4931 12.9601 83.4648 12.9529L57.6134 6.15421C56.9743 5.9808 56.3046 5.76944 55.6462 5.6715C52.8781 5.25543 50.053 6.67414 48.814 9.20178C48.5155 9.81899 48.3515 10.4605 48.1733 11.1185L36.5326 55.4417C36.2965 56.3261 36.1194 57.2156 36.2042 58.1419C36.4402 60.8756 38.3812 63.191 41.0226 63.9063C41.473 64.0315 41.9447 64.1521 42.3976 64.2678L73.7986 72.5151C75.6076 72.9875 77.5099 72.7803 79.0952 71.7683C80.5597 70.8361 81.5285 69.4052 81.9553 67.7354C82.1215 67.1245 82.2949 66.4854 82.454 65.8627Z" fill="#E9F5F3"/>
<path d="M74.1289 72.1272L41.1642 63.4701C37.9425 62.6266 36.0138 59.3194 36.8574 56.0977L39.7038 45.2368L84.3384 56.9571L81.4919 67.818C80.6554 71.0515 77.3458 72.9896 74.1289 72.1272Z" fill="#006757"/>
<path d="M84.2252 25.0774C84.3458 24.6057 84.379 24.1217 84.3107 23.6419C84.1576 22.6681 83.6522 21.775 82.8194 21.14C82.2948 20.7547 81.7055 20.5437 81.0828 20.3846L70.2123 17.5759C66.8089 16.6959 63.4009 15.7947 60.0021 14.936C58.2096 14.4778 56.4936 15.1749 55.5909 16.6227C55.4194 16.9005 55.3045 17.1927 55.2249 17.504C54.5949 20.0869 50.8536 35.3926 49.8419 39.5865C49.5521 40.7989 49.9374 42.0834 50.9038 42.9033C51.3246 43.2621 51.8381 43.534 52.43 43.6954C55.5712 44.5787 58.7556 45.3323 61.9137 46.1496L74.0296 49.2766C75.2067 49.5473 76.4078 49.2915 77.3254 48.6114C77.745 48.3066 78.0427 47.85 78.1705 47.35C79.0855 44.0058 83.4779 27.9619 84.2252 25.0774Z" fill="#006757"/>
<path d="M54.6079 41.86C53.7399 41.6381 52.4439 41.5179 51.9644 40.6415C51.9762 40.6345 51.9811 40.6156 51.9953 40.5992C52.0072 40.5922 52.0238 40.5663 52.0618 40.5358C52.1734 40.4135 52.2851 40.2913 52.3943 40.1785C52.7553 39.7884 53.1328 39.4125 53.5198 39.039C54.6095 37.9607 55.7087 36.8848 56.8148 35.8208C58.0682 34.6134 59.3216 33.4061 60.5914 32.213C61.154 31.6633 62.5927 29.8098 63.1829 31.1969C63.6774 32.3686 63.942 33.6926 64.3159 34.9037C65.0379 37.2693 65.7694 39.6373 66.4915 42.0028C66.8142 43.0602 67.1345 44.1271 67.4596 45.1751L54.6079 41.86Z" fill="#209F8B"/>
<path d="M74.613 47.0337L70.0517 45.8477C69.55 44.232 69.0697 42.6116 68.568 40.9959C69.2845 40.3951 69.9914 39.7918 70.7079 39.191C71.1183 38.8436 71.5052 38.4701 71.9297 38.1464C72.3043 37.8603 72.6231 37.8714 72.9665 38.1401C72.9595 38.1282 73.0885 38.2919 73.1351 38.4244C73.128 38.4125 73.1302 38.4432 73.1373 38.4551C73.1816 38.5569 73.2046 38.6633 73.2371 38.7721C73.3906 39.2334 73.5252 39.69 73.6786 40.1513C74.1225 41.5211 74.5569 42.8885 75.0008 44.2583C75.2726 45.1218 75.5468 45.9758 75.828 46.8417C75.4821 47.0548 75.0613 47.1282 74.613 47.0337Z" fill="#209F8B"/>
<path d="M75.8717 39.4354C75.5487 38.4182 75.3028 37.1392 74.454 36.4096C73.4642 35.5636 71.9913 35.3882 70.8776 36.0885C70.463 36.3343 70.095 36.7126 69.7343 37.0224C69.1057 37.5553 68.477 38.0881 67.8483 38.6209C67.4003 37.1495 66.9498 35.6876 66.5017 34.2162C66.2231 33.3007 65.9351 32.3828 65.6659 31.4698C65.5011 30.9352 65.3649 30.3275 65.0746 29.8512C64.543 28.9817 63.587 28.4358 62.5835 28.3903C61.5612 28.3401 60.7861 28.8556 60.0599 29.5343C58.7615 30.7603 57.4702 31.9982 56.1789 33.236C54.9635 34.4129 53.7529 35.5708 52.5421 36.7689L56.8165 20.2426C57.0142 19.469 57.1174 18.2792 57.6427 17.6396C58.4318 16.6754 59.7137 17.2443 60.6948 17.4951L78.2401 22.0299C79.1175 22.2542 80.0139 22.4431 80.8887 22.717C81.7659 22.9814 82.2151 23.7797 82.0192 24.6643C81.9538 24.9592 81.8578 25.2562 81.7901 25.5606L78.8825 36.8179C78.3016 39.0514 77.7489 41.2922 77.168 43.5257C76.7454 42.1513 76.3061 40.8028 75.8717 39.4354Z" fill="#E9F5F3"/>
<path d="M72.0981 29.0333C72.1074 29.0761 72.1498 29.1475 72.0981 29.0333V29.0333Z" fill="#006757"/>
<path d="M72.8135 29.9699C72.7571 29.9153 72.79 29.9438 72.8135 29.9699V29.9699Z" fill="#006757"/>
<path d="M73.9343 25.7437C73.7918 25.7477 73.882 25.7505 73.9343 25.7437V25.7437Z" fill="#006757"/>
<path d="M76.7273 24.4876C75.2778 23.4739 73.1971 23.4747 71.7721 24.5277C70.288 25.6157 69.56 27.5202 70.0866 29.3132C70.6133 31.1062 72.2035 32.3167 74.0378 32.4539C76.0988 32.6088 77.9605 31.1448 78.4998 29.1921C78.9321 27.383 78.2356 25.5466 76.7273 24.4876Z" fill="#006757"/>
<path d="M76.4913 28.9501C76.4889 28.9596 76.4889 28.9596 76.4865 28.969C76.422 29.1033 76.3575 29.2376 76.2766 29.3576C76.229 29.4258 76.1933 29.487 76.1362 29.5529C76.1244 29.5599 76.1244 29.5599 76.1196 29.5788C75.9961 29.708 75.8844 29.8302 75.7445 29.9452C75.7326 29.9522 75.7326 29.9522 75.7208 29.9593C75.7113 29.9568 75.7089 29.9663 75.6852 29.9803C75.6236 30.0249 75.5644 30.06 75.5051 30.0951C75.4672 30.1256 75.2494 30.2307 75.2257 30.2448C75.1026 30.2937 74.9795 30.3427 74.8613 30.3728C74.8069 30.389 74.7455 30.3934 74.691 30.4097C74.6485 30.4189 74.6296 30.4141 74.6272 30.4235C74.6083 30.4187 74.5752 30.4303 74.5563 30.4255C74.4122 30.4389 74.2516 30.438 74.1029 30.4302C74.0721 30.4324 74.0131 30.4273 73.973 30.4271C73.9164 30.4127 73.8668 30.41 73.8102 30.3956C73.6592 30.357 73.5083 30.3184 73.3622 30.261C73.3527 30.2585 73.3527 30.2585 73.3527 30.2585C73.3457 30.2467 73.3363 30.2443 73.3174 30.2395C73.2279 30.1965 73.1572 30.1583 73.0796 30.1083C72.9995 30.0677 72.9336 30.0107 72.856 29.9607C72.856 29.9607 72.8489 29.9489 72.8395 29.9464C72.7219 29.8561 72.6256 29.7611 72.5222 29.6543C72.4752 29.6021 72.4213 29.538 72.3743 29.4858C72.3743 29.4858 72.3743 29.4858 72.3673 29.474C72.3603 29.4621 72.3627 29.4527 72.3486 29.429C72.2573 29.275 72.1731 29.1329 72.0912 28.9813C72.0912 28.9813 72.0936 28.9718 72.0842 28.9694C72.0539 28.8913 72.026 28.8038 71.9981 28.7163C71.9819 28.6619 71.9311 28.4278 71.9289 28.3971C71.9201 28.2742 71.9067 28.1301 71.9003 27.9978C71.9054 27.9388 71.9104 27.8797 71.9084 27.8089C71.9062 27.7782 71.911 27.7593 71.9135 27.7499C71.9113 27.7191 71.9279 27.6933 71.9257 27.6625C71.9501 27.528 71.9862 27.3865 72.0224 27.245C72.0367 27.2286 72.1086 27.0258 72.0847 27.08C72.0943 27.0423 72.1204 27.0188 72.1325 26.9716C72.1969 26.8373 72.2779 26.7173 72.3731 26.5808C72.3873 26.5644 72.3897 26.555 72.3922 26.5455C72.404 26.5385 72.4158 26.5315 72.4325 26.5056C72.499 26.4422 72.5466 26.3739 72.613 26.3105C72.6677 26.2541 72.7199 26.2072 72.7815 26.1626C72.7933 26.1556 72.8194 26.1321 72.8431 26.1181C72.9546 26.036 73.0636 25.9633 73.1891 25.905C73.1891 25.905 73.2577 25.8723 73.3051 25.8442C73.3595 25.8279 73.4376 25.7976 73.4376 25.7976C73.6033 25.7395 73.7735 25.7026 73.9461 25.6562C73.9556 25.6586 73.9556 25.6586 73.9556 25.6586C74.0477 25.652 74.128 25.6525 74.2202 25.6459C74.2792 25.6509 74.3406 25.6465 74.402 25.6421C74.402 25.6421 74.4918 25.6449 74.5414 25.6476C74.598 25.662 74.6853 25.6743 74.6877 25.6649C74.7656 25.6747 74.8386 25.7034 74.9165 25.7133C74.992 25.7326 75.0651 25.7613 75.1405 25.7806C75.157 25.7949 75.1783 25.7903 75.1877 25.7927C75.1947 25.8045 75.2042 25.8069 75.2325 25.8142C75.3902 25.9047 75.541 25.9835 75.6963 26.0835C75.7033 26.0953 75.7033 26.0953 75.7128 26.0977C75.7222 26.1002 75.7198 26.1096 75.7268 26.1214C75.7997 26.1903 75.8844 26.2522 75.9454 26.3281C75.9853 26.3684 76.0253 26.4088 76.0628 26.4586C76.0957 26.4871 76.1097 26.5108 76.1238 26.5345C76.1308 26.5463 76.1449 26.57 76.1683 26.5961C76.2386 26.7146 76.3253 26.8473 76.3955 26.9657C76.4001 26.987 76.4166 27.0013 76.426 27.0037C76.4236 27.0131 76.4306 27.025 76.4446 27.0487C76.4749 27.1268 76.5028 27.2143 76.5307 27.3018C76.5586 27.3894 76.5676 27.4721 76.5955 27.5596C76.6001 27.5809 76.6047 27.6022 76.6117 27.614C76.6093 27.6234 76.6139 27.6447 76.6091 27.6636C76.6223 27.8479 76.6166 28.0273 76.6228 28.1998C76.6204 28.2092 76.625 28.2305 76.6226 28.2399C76.6031 28.3555 76.586 28.4617 76.5595 28.5655C76.5441 28.7827 76.513 28.8652 76.4913 28.9501Z" fill="#E9F5F3"/>
<path d="M92.6143 26.8598L89.4304 27.3627C89.1373 27.4083 88.842 27.4233 88.5374 27.3957C83.3349 26.87 80.1313 21.2369 82.2744 16.1161L83.5733 13.0007L92.6143 26.8598Z" fill="#209F8B"/>
<path d="M51.0218 52.7831L45.5998 59.8398L43.3922 59.2756L42.0309 50.485L44.4555 51.1048L45.2875 56.8151L48.8047 52.2164L51.0218 52.7831Z" fill="#E9F5F3"/>
<path d="M51.484 52.9013L53.7294 53.4752L51.7038 61.4L49.4584 60.8261L51.484 52.9013Z" fill="#E9F5F3"/>
<path d="M55.0975 53.8249L58.843 54.7822C59.7109 55.0041 60.4435 55.3622 61.029 55.8636C61.6168 56.3556 62.0176 56.9505 62.243 57.6413C62.4685 58.3321 62.4693 59.0761 62.2643 59.878C62.0593 60.6799 61.6922 61.3298 61.1723 61.8301C60.6525 62.3305 60.0154 62.6601 59.2542 62.8073C58.5023 62.9568 57.6853 62.9289 56.8174 62.707L53.0719 61.7497L55.0975 53.8249ZM57.1812 60.8904C57.8605 61.064 58.4559 61.0152 58.9604 60.7321C59.4744 60.4514 59.8076 59.9737 59.9812 59.2944C60.1548 58.6152 60.0823 58.0338 59.7755 57.5433C59.4592 57.0504 58.9697 56.7242 58.2904 56.5506L56.8753 56.1889L55.7636 60.5381L57.1788 60.8998L57.1812 60.8904Z" fill="#E9F5F3"/>
<path d="M68.9973 63.971L68.5536 65.7069L62.1948 64.0816L64.2205 56.1567L70.4377 57.7459L69.994 59.4818L65.9938 58.4593L65.6514 59.799L69.1704 60.6985L68.7412 62.3778L65.2222 61.4783L64.8508 62.9312L68.9925 63.9898L68.9973 63.971Z" fill="#E9F5F3"/>
<path d="M71.3954 66.0312C70.8172 65.5015 70.4238 64.8783 70.1961 64.1568C69.9779 63.4376 69.9606 62.6794 70.1608 61.8964C70.3609 61.1133 70.7305 60.454 71.2764 59.9302C71.813 59.404 72.4667 59.0484 73.2281 58.8611C73.9896 58.6738 74.7878 58.6969 75.618 58.9091C76.4576 59.1238 77.1666 59.4959 77.7378 60.0138C78.3089 60.5317 78.7094 61.1667 78.9371 61.8883C79.1553 62.6074 79.1726 63.3656 78.9724 64.1486C78.7723 64.9317 78.4027 65.591 77.8568 66.1148C77.3202 66.6411 76.6665 66.9966 75.9051 67.1839C75.1436 67.3712 74.3454 67.3481 73.5152 67.1359C72.6826 66.9331 71.9736 66.5609 71.3954 66.0312ZM75.1546 65.2834C75.5236 65.1767 75.8553 64.9801 76.1332 64.6793C76.4087 64.3879 76.6043 64.0157 76.7176 63.5723C76.831 63.1289 76.8379 62.7085 76.736 62.3207C76.6342 61.9328 76.4494 61.5941 76.1674 61.321C75.8949 61.0503 75.551 60.862 75.1548 60.7607C74.7585 60.6594 74.3665 60.6597 73.9975 60.7664C73.6285 60.8731 73.2968 61.0697 73.0189 61.3706C72.7434 61.662 72.5478 62.0341 72.4344 62.4775C72.3211 62.9209 72.3142 63.3413 72.416 63.7292C72.5179 64.117 72.7027 64.4557 72.9847 64.7288C73.2572 64.9995 73.601 65.1879 73.9973 65.2892C74.3935 65.3904 74.7856 65.3901 75.1546 65.2834Z" fill="#E9F5F3"/>
</svg>
