<svg width="100%" height="18" className="" viewBox="0 0 67 18" fill="none" xmlns="http://www.w3.org/2000/svg">
                        <rect y="4" width="3" height="10" rx="1" fill="#D9D9D9" />
                        <rect x="4" y="4" width="3" height="10" rx="1" fill="#D9D9D9" />
                        <rect x="8" y="1" width="3" height="16" rx="1" fill="#D9D9D9" />
                        <rect x="32" y="1" width="3" height="16" rx="1" fill="#D9D9D9" />
                        <rect x="16" y="1" width="3" height="16" rx="1" fill="#D9D9D9" />
                        <rect x="40" y="1" width="3" height="16" rx="1" fill="#D9D9D9" />
                        <rect x="24" width="3" height="18" rx="1" fill="#D9D9D9" />
                        <rect x="48" width="3" height="18" rx="1" fill="#D9D9D9" />
                        <rect x="12" y="4" width="3" height="10" rx="1" fill="#D9D9D9" />
                        <rect x="36" y="4" width="3" height="10" rx="1" fill="#D9D9D9" />
                        <rect x="20" y="4" width="3" height="10" rx="1" fill="#D9D9D9" />
                        <rect x="44" y="4" width="3" height="10" rx="1" fill="#D9D9D9" />
                        <rect x="52" y="4" width="3" height="10" rx="1" fill="#D9D9D9" />
                        <rect x="28" y="4" width="3" height="10" rx="1" fill="#D9D9D9" />
                        <rect x="56" y="4" width="3" height="10" rx="1" fill="#D9D9D9" />
                        <rect x="60" y="4" width="3" height="10" rx="1" fill="#D9D9D9" />
                        <rect x="64" y="2" width="3" height="14" rx="1" fill="#D9D9D9" />
                    </svg>
                    