<svg width="20" height="23" viewBox="0 0 20 23" fill="none" xmlns="http://www.w3.org/2000/svg">
<path d="M7.75 15.1346C7.84946 15.1346 7.94484 15.1772 8.01517 15.2529C8.08549 15.3286 8.125 15.4314 8.125 15.5385C8.125 15.6456 8.08549 15.7483 8.01517 15.824C7.94484 15.8998 7.84946 15.9423 7.75 15.9423C7.65055 15.9423 7.55516 15.8998 7.48484 15.824C7.41451 15.7483 7.375 15.6456 7.375 15.5385C7.375 15.4314 7.41451 15.3286 7.48484 15.2529C7.55516 15.1772 7.65055 15.1346 7.75 15.1346ZM7.75 15.1346L7.75 15.5385M7.75 11.0962C7.84946 11.0962 7.94484 11.1387 8.01517 11.2144C8.08549 11.2902 8.125 11.3929 8.125 11.5C8.125 11.6071 8.08549 11.7098 8.01517 11.7856C7.94484 11.8613 7.84946 11.9038 7.75 11.9038C7.65054 11.9038 7.55516 11.8613 7.48484 11.7856C7.41451 11.7098 7.375 11.6071 7.375 11.5C7.375 11.3929 7.41451 11.2902 7.48484 11.2144C7.55516 11.1387 7.65054 11.0962 7.75 11.0962ZM7.75 11.0962L7.75 11.5M7.75 7.05769C7.84946 7.05769 7.94484 7.10024 8.01517 7.17597C8.08549 7.25171 8.125 7.35443 8.125 7.46154C8.125 7.56864 8.08549 7.67136 8.01517 7.7471C7.94484 7.82284 7.84946 7.86538 7.75 7.86538C7.65054 7.86538 7.55516 7.82284 7.48484 7.7471C7.41451 7.67136 7.375 7.56864 7.375 7.46154C7.375 7.35443 7.41451 7.25171 7.48484 7.17597C7.55516 7.10024 7.65054 7.05769 7.75 7.05769ZM7.75 7.05769L7.75 7.46154M10.76 22C12.36 22 13.754 20.7906 13.987 19.0848C14.147 17.9142 14.27 16.7317 14.356 15.5385L19 15.5385L14.817 11.0326C14.6107 10.8095 14.4918 10.5096 14.485 10.1948C14.437 8.09303 14.2707 5.99636 13.987 3.91631C13.754 2.20938 12.361 0.999998 10.759 0.999999L4.741 0.999999C3.139 0.999999 1.746 2.20938 1.513 3.91523C1.17072 6.42666 0.999259 8.96166 1 11.5C1 14.076 1.175 16.6089 1.513 19.0848C1.746 20.7906 3.14 22 4.741 22L10.759 22L10.76 22Z" stroke="#00B3C7" strokeWidth="1.5" strokeLinecap="round" strokeLinejoin="round"/>
</svg>
