<svg width="930" height="917" viewBox="0 0 930 917" fill="none" xmlns="http://www.w3.org/2000/svg">
<rect opacity="0.05" x="1232.6" y="398.96" width="923.433" height="923.433" rx="68.4025" transform="rotate(115.597 1232.6 398.96)" fill="#00A2CF"/>
<rect opacity="0.05" x="1296.13" y="326.48" width="749.034" height="749.034" rx="55.484" transform="rotate(115.597 1296.13 326.48)" fill="#00A2CF"/>
<path d="M417.178 442.372C416.523 439.778 415.892 437.159 415.213 434.564C414.874 433.206 414.462 431.872 414.025 430.563C413.814 429.73 413.323 428.996 412.634 428.484C411.945 427.972 411.1 427.712 410.242 427.75C408.157 427.75 406.096 428.065 404.034 428.211C402.933 428.355 401.822 428.404 400.712 428.356C399.894 428.306 399.116 427.982 398.505 427.435C396.347 425.01 394.286 422.585 392.273 419.917C391.94 419.443 391.728 418.894 391.656 418.319C391.584 417.744 391.654 417.161 391.861 416.619C392.588 414.194 393.413 411.769 394.116 409.344C394.447 408.409 394.628 407.426 394.65 406.434C394.647 405.701 394.36 404.997 393.849 404.47C390.281 401.689 386.317 399.457 382.088 397.85C381.47 397.587 380.782 397.538 380.132 397.709C379.482 397.88 378.908 398.262 378.499 398.795C376.753 400.808 374.934 402.772 373.237 404.834C372.682 405.616 371.913 406.221 371.023 406.578C370.133 406.935 369.159 407.028 368.217 406.846C365.525 406.41 362.81 406.143 360.118 405.779C359.602 405.727 359.109 405.544 358.684 405.247C358.259 404.95 357.918 404.549 357.693 404.082C356.844 402.578 356.068 401.026 355.268 399.499C354.468 397.971 353.861 396.88 353.11 395.594C352.783 394.948 352.241 394.434 351.578 394.142C350.914 393.85 350.17 393.798 349.472 393.994C345.616 394.964 341.736 395.958 337.905 397.074C337.163 397.275 336.514 397.729 336.071 398.358C335.628 398.987 335.419 399.75 335.48 400.517C335.48 402.627 335.795 404.712 335.941 406.822C335.941 407.792 336.086 408.786 336.086 409.781C336.107 410.417 335.977 411.05 335.708 411.627C335.438 412.205 335.036 412.71 334.534 413.103C332.4 414.8 330.242 416.474 328.156 418.244C327.557 418.789 326.819 419.159 326.024 419.313C325.228 419.467 324.405 419.399 323.646 419.117C321.027 418.292 318.408 417.419 315.789 416.692C314.936 416.312 313.967 416.281 313.092 416.608C312.217 416.934 311.505 417.592 311.109 418.438C309.29 421.493 307.544 424.597 305.847 427.726C305.537 428.142 305.316 428.617 305.194 429.122C305.073 429.626 305.055 430.15 305.141 430.662C305.227 431.174 305.416 431.663 305.695 432.1C305.975 432.537 306.34 432.913 306.768 433.206C308.053 434.419 309.46 435.486 310.794 436.649C311.731 437.506 312.653 438.379 313.558 439.268C313.93 439.644 314.212 440.098 314.385 440.598C314.557 441.097 314.614 441.629 314.552 442.154C314.261 444.967 313.97 447.78 313.607 450.569C313.514 451.329 313.229 452.052 312.779 452.672C312.33 453.291 311.73 453.786 311.036 454.109C309.411 454.885 307.787 455.637 306.186 456.534C305.177 457.018 304.197 457.56 303.252 458.159C302.577 458.527 302.05 459.116 301.759 459.827C301.467 460.538 301.429 461.328 301.651 462.063C302.597 465.555 303.591 469.047 304.586 472.515C304.765 473.048 305 473.56 305.289 474.043C305.55 474.607 305.979 475.077 306.517 475.39C307.055 475.702 307.676 475.841 308.296 475.789L315.716 475.183H316.274C317.315 474.993 318.389 475.124 319.354 475.557C320.319 475.99 321.131 476.705 321.682 477.608C322.918 479.354 324.349 480.954 325.683 482.627C326.312 483.361 326.729 484.252 326.887 485.206C327.045 486.159 326.939 487.138 326.58 488.035C325.78 490.46 325.004 492.667 324.301 494.995C324.086 495.434 323.965 495.913 323.945 496.402C323.925 496.891 324.006 497.378 324.184 497.834C324.362 498.29 324.632 498.704 324.977 499.05C325.323 499.396 325.737 499.666 326.192 499.845C329.345 501.712 332.57 503.506 335.892 505.228C336.609 505.699 337.478 505.88 338.324 505.736C339.17 505.592 339.93 505.134 340.451 504.452C341.882 502.924 343.24 501.3 344.598 499.602C347.532 496.159 348.211 495.892 352.697 496.498L357.935 497.25C358.774 497.33 359.577 497.627 360.266 498.112C360.955 498.596 361.505 499.252 361.864 500.014C362.785 501.882 363.658 503.773 364.628 505.616C365.147 506.562 365.756 507.455 366.447 508.284C366.736 508.715 367.156 509.042 367.645 509.216C368.134 509.391 368.666 509.404 369.163 509.254L380.148 506.198C380.647 506.021 381.126 505.794 381.579 505.519C382.152 505.267 382.632 504.841 382.95 504.302C383.267 503.762 383.407 503.136 383.349 502.512C383.155 500.087 382.961 497.662 382.791 495.237C382.791 494.51 382.791 493.758 382.791 493.006C382.772 492.399 382.899 491.796 383.16 491.247C383.422 490.699 383.811 490.221 384.295 489.854C386.38 488.253 388.442 486.629 390.503 485.004C391.091 484.514 391.8 484.193 392.555 484.073C393.311 483.954 394.085 484.041 394.795 484.325C397.099 485.125 399.427 485.828 401.755 486.58H402.022C405.077 487.404 406.12 487.089 407.72 484.349C409.321 481.609 411.14 478.19 412.716 475.037C412.968 474.683 413.145 474.281 413.236 473.856C413.327 473.431 413.331 472.991 413.247 472.565C413.163 472.138 412.993 471.733 412.748 471.374C412.502 471.016 412.186 470.711 411.819 470.478C410.073 468.878 408.254 467.326 406.362 465.871C405.426 465.245 404.696 464.356 404.264 463.316C403.833 462.276 403.719 461.131 403.937 460.026C404.325 457.601 404.592 454.982 404.956 452.46C405.019 451.948 405.206 451.459 405.502 451.036C405.798 450.613 406.193 450.27 406.653 450.035C408.884 448.871 411.115 447.732 413.322 446.543C414.868 445.951 416.15 444.824 416.935 443.367L417.178 442.372ZM335.528 449.647C335.793 446.476 336.684 443.389 338.15 440.564C339.615 437.739 341.626 435.233 344.066 433.19C346.505 431.147 349.326 429.608 352.364 428.662C355.403 427.715 358.598 427.381 361.767 427.677C368.033 428.404 373.775 431.526 377.792 436.389C381.81 441.252 383.793 447.479 383.325 453.77C382.757 460.078 379.724 465.908 374.884 469.994C370.045 474.08 363.789 476.093 357.475 475.595C354.318 475.355 351.241 474.487 348.424 473.042C345.607 471.598 343.106 469.605 341.069 467.182C339.032 464.759 337.499 461.953 336.56 458.93C335.621 455.906 335.295 452.726 335.601 449.575L335.528 449.647Z" fill="white"/>
<path d="M368.678 510.515C369.031 510.515 369.381 510.466 369.721 510.37L372.291 509.666L380.73 507.241C381.232 507.062 381.718 506.843 382.185 506.587C383.015 506.235 383.714 505.631 384.184 504.861C384.654 504.091 384.871 503.194 384.804 502.294L384.537 499.069L384.246 494.995C384.21 494.293 384.21 493.588 384.246 492.886C384.221 492.459 384.301 492.032 384.478 491.643C384.656 491.255 384.926 490.915 385.265 490.655C387.278 489.127 389.242 487.551 391.23 485.999L391.497 485.78C391.927 485.417 392.449 485.179 393.005 485.094C393.561 485.008 394.13 485.078 394.65 485.295C396.25 485.853 397.875 486.362 399.5 486.896L401.658 487.575H401.973C405.611 488.569 407.187 487.939 409.03 484.786C410.873 481.634 412.764 478.02 414.074 475.426C414.708 474.471 414.942 473.305 414.724 472.18C414.506 471.055 413.854 470.061 412.91 469.412C410.848 467.544 409.078 466.065 407.381 464.731C406.628 464.228 406.044 463.511 405.702 462.673C405.361 461.834 405.278 460.913 405.465 460.027C405.708 458.475 405.926 456.874 406.12 455.177L406.484 452.34C406.511 452.004 406.624 451.682 406.811 451.402C406.997 451.122 407.252 450.894 407.551 450.739L410.218 449.357C411.552 448.654 412.91 447.975 414.244 447.247C416.035 446.538 417.509 445.202 418.39 443.489C418.415 443.36 418.415 443.229 418.39 443.101V442.179C418.415 442.051 418.415 441.919 418.39 441.791L417.905 439.778L416.45 433.958C416.087 432.6 415.674 431.242 415.238 429.884C414.963 428.817 414.333 427.876 413.451 427.214C412.57 426.553 411.489 426.212 410.388 426.247C408.981 426.247 407.599 426.392 406.217 426.538L404.131 426.708H403.258C402.508 426.779 401.753 426.779 401.003 426.708C400.488 426.672 399.994 426.496 399.572 426.198C397.293 423.604 395.159 420.96 393.413 418.729C393.192 418.411 393.056 418.041 393.017 417.654C392.979 417.268 393.04 416.879 393.195 416.523C393.51 415.456 393.849 414.389 394.213 413.297C394.577 412.206 395.062 410.606 395.45 409.248C395.816 408.202 396.012 407.105 396.032 405.998C396.037 405.45 395.925 404.906 395.703 404.404C395.482 403.903 395.156 403.454 394.747 403.088C391.087 400.196 386.995 397.896 382.622 396.274C381.78 395.944 380.854 395.893 379.981 396.128C379.107 396.364 378.333 396.874 377.772 397.583L375.929 399.669C374.765 400.978 373.504 402.264 372.485 403.622C372.069 404.242 371.478 404.725 370.788 405.009C370.097 405.294 369.338 405.368 368.605 405.222C366.835 404.931 365.089 404.713 363.319 404.495L360.457 404.131C360.148 404.089 359.854 403.969 359.604 403.782C359.354 403.596 359.155 403.348 359.026 403.064L357.572 400.299L356.213 397.874C355.631 396.783 355.049 395.668 354.395 394.625C353.946 393.772 353.225 393.094 352.346 392.698C351.467 392.303 350.481 392.213 349.545 392.443C344.865 393.631 341.3 394.576 337.953 395.546C336.969 395.837 336.113 396.454 335.527 397.296C334.94 398.138 334.659 399.154 334.728 400.178C334.728 401.609 334.874 403.04 335.019 404.422C335.019 405.125 335.14 405.828 335.213 406.532C335.286 407.235 335.334 408.447 335.334 409.417C335.364 409.88 335.281 410.343 335.09 410.766C334.9 411.188 334.609 411.558 334.243 411.842L332.74 413.031C331.091 414.34 329.442 415.65 327.89 417.008C327.442 417.417 326.89 417.692 326.294 417.804C325.699 417.915 325.084 417.858 324.519 417.638L320.687 416.426L316.662 415.14C315.528 414.71 314.274 414.721 313.147 415.17C312.021 415.619 311.103 416.473 310.575 417.565C308.732 420.669 306.962 423.798 305.289 426.877C304.536 427.955 304.236 429.286 304.453 430.583C304.671 431.88 305.389 433.04 306.453 433.813C307.229 434.54 308.029 435.219 308.878 435.898L310.527 437.305C311.448 438.105 312.345 438.978 313.218 439.73C313.472 439.975 313.665 440.275 313.783 440.608C313.901 440.94 313.94 441.295 313.897 441.646L313.728 443.198C313.485 445.477 313.219 447.756 312.928 450.012C312.868 450.575 312.662 451.114 312.33 451.573C311.998 452.032 311.552 452.397 311.036 452.631L308.95 453.625L306.162 454.959C305.216 455.444 304.149 456.001 303.131 456.656C302.232 457.155 301.532 457.948 301.148 458.902C300.764 459.855 300.719 460.912 301.021 461.894C301.958 465.386 302.928 468.878 303.931 472.37C304.123 472.937 304.375 473.482 304.682 473.995C305.062 474.781 305.671 475.433 306.428 475.866C307.186 476.299 308.057 476.492 308.926 476.42L316.347 475.814C316.556 475.833 316.767 475.833 316.977 475.814C317.798 475.667 318.644 475.774 319.402 476.121C320.16 476.467 320.795 477.037 321.221 477.754C322.118 479.015 323.088 480.179 324.058 481.343L325.271 482.822C325.77 483.395 326.1 484.095 326.224 484.844C326.348 485.593 326.262 486.363 325.974 487.066C325.077 489.66 324.325 491.916 323.67 494.098C323.405 494.67 323.258 495.289 323.237 495.919C323.216 496.548 323.322 497.176 323.548 497.764C323.774 498.352 324.116 498.888 324.554 499.342C324.991 499.795 325.516 500.156 326.095 500.403C329.029 502.125 332.182 503.895 335.795 505.811C336.741 506.418 337.879 506.65 338.987 506.461C340.095 506.273 341.093 505.678 341.785 504.792C342.973 503.531 344.089 502.222 345.204 500.888L345.98 499.991C348.648 496.838 348.939 496.741 352.988 497.299L358.251 498.051C358.893 498.106 359.51 498.331 360.038 498.701C360.566 499.072 360.987 499.575 361.258 500.161L362.13 501.979C362.729 503.256 363.359 504.517 364.022 505.762C364.564 506.791 365.214 507.758 365.962 508.648C366.24 509.147 366.63 509.576 367.101 509.9C367.572 510.224 368.112 510.434 368.678 510.515ZM393.34 482.725C392.112 482.736 390.924 483.164 389.969 483.937L389.703 484.156C387.738 485.708 385.75 487.284 383.761 488.812C383.137 489.288 382.633 489.906 382.292 490.614C381.951 491.321 381.781 492.1 381.797 492.886C381.797 493.662 381.797 494.462 381.797 495.311C381.797 496.669 381.991 498.051 382.112 499.409L382.355 502.634C382.388 503.023 382.295 503.412 382.089 503.744C381.884 504.076 381.578 504.333 381.215 504.477H380.997C380.689 504.661 380.364 504.815 380.027 504.938L371.612 507.363L369.066 508.066C368.796 508.145 368.507 508.133 368.244 508.033C367.981 507.932 367.759 507.748 367.611 507.508C366.97 506.755 366.402 505.943 365.913 505.083C365.283 503.871 364.677 502.658 364.071 501.397L363.173 499.53C362.726 498.592 362.045 497.785 361.195 497.186C360.346 496.588 359.357 496.217 358.323 496.111L353.085 495.359C348.235 494.68 347.096 495.117 343.895 498.875L343.119 499.797C342.027 501.082 340.936 502.367 339.772 503.58C339.612 503.825 339.403 504.034 339.159 504.196C338.915 504.357 338.64 504.468 338.352 504.52C338.064 504.572 337.768 504.565 337.483 504.499C337.198 504.434 336.929 504.31 336.692 504.137C333.128 502.246 329.975 500.476 326.992 498.778C325.295 497.784 325.077 497.202 325.659 495.238C326.241 493.274 327.041 490.897 327.914 488.327C328.345 487.235 328.471 486.047 328.278 484.89C328.086 483.732 327.583 482.649 326.823 481.755L325.586 480.251C324.64 479.136 323.694 477.996 322.87 476.808C322.188 475.723 321.199 474.866 320.029 474.344C318.859 473.821 317.561 473.658 316.298 473.874H315.789L308.514 474.456C308.119 474.507 307.719 474.422 307.38 474.214C307.04 474.007 306.782 473.69 306.647 473.316C306.395 472.93 306.191 472.515 306.041 472.079C305.046 468.587 304.076 465.119 303.131 461.627C302.961 461.143 302.976 460.612 303.172 460.138C303.369 459.664 303.734 459.279 304.198 459.057C305.104 458.485 306.043 457.967 307.011 457.505L309.751 456.171L311.836 455.177C312.72 454.775 313.485 454.15 314.054 453.364C314.624 452.577 314.979 451.656 315.086 450.691C315.401 448.411 315.644 446.108 315.886 443.804L316.056 442.276C316.143 441.568 316.066 440.85 315.831 440.177C315.595 439.504 315.207 438.895 314.698 438.396C313.8 437.475 312.855 436.577 311.885 435.729L310.187 434.274C309.411 433.643 308.635 432.988 307.908 432.285C306.38 430.854 306.235 430.078 307.204 428.284C308.878 425.228 310.624 422.124 312.442 419.02C312.573 418.722 312.763 418.453 313 418.229C313.237 418.005 313.516 417.832 313.822 417.719C314.127 417.605 314.453 417.555 314.778 417.57C315.104 417.586 315.423 417.666 315.716 417.808L319.717 419.093L323.597 420.33C324.553 420.665 325.581 420.738 326.575 420.542C327.568 420.346 328.491 419.888 329.248 419.214C330.824 417.881 332.449 416.595 334.098 415.31L335.601 414.098C336.249 413.595 336.768 412.946 337.118 412.204C337.468 411.463 337.638 410.649 337.614 409.83C337.614 408.811 337.614 407.793 337.468 406.774C337.323 405.756 337.347 405.319 337.274 404.616C337.274 403.209 337.032 401.9 337.008 400.542C336.955 400.056 337.071 399.567 337.336 399.157C337.601 398.747 337.999 398.439 338.463 398.287C341.785 397.317 345.35 396.371 349.981 395.207C350.429 395.078 350.909 395.115 351.332 395.311C351.755 395.507 352.093 395.849 352.285 396.274C352.891 397.292 353.473 398.359 354.031 399.426L355.365 401.851C355.85 402.797 356.359 403.719 356.868 404.664C357.179 405.279 357.636 405.808 358.198 406.205C358.76 406.602 359.411 406.856 360.093 406.944L362.979 407.308C364.701 407.526 366.447 407.744 368.169 408.011C369.32 408.232 370.51 408.121 371.6 407.692C372.691 407.263 373.637 406.532 374.328 405.586C375.395 404.276 376.535 402.991 377.675 401.73C378.305 401.027 378.936 400.324 379.542 399.596C379.794 399.248 380.159 398.998 380.574 398.888C380.989 398.777 381.43 398.813 381.821 398.99C385.92 400.59 389.753 402.797 393.195 405.537C393.396 405.839 393.506 406.193 393.51 406.556C393.473 407.424 393.31 408.282 393.025 409.102C392.637 410.428 392.225 411.762 391.788 413.103L390.77 416.353C390.514 417.085 390.438 417.868 390.548 418.636C390.657 419.404 390.95 420.135 391.4 420.766C393.195 423.022 395.329 425.616 397.657 428.332C398.473 429.114 399.536 429.585 400.664 429.666C401.575 429.751 402.492 429.751 403.404 429.666H404.204L406.338 429.472C407.672 429.472 409.006 429.23 410.339 429.205C410.934 429.187 411.517 429.371 411.993 429.728C412.47 430.085 412.81 430.593 412.958 431.17C413.371 432.479 413.783 433.789 414.122 435.098C414.631 437.038 415.092 438.954 415.577 440.87L416.014 442.713V443.222C415.307 444.321 414.272 445.17 413.055 445.647L409.03 447.757L406.362 449.139C405.705 449.461 405.139 449.943 404.715 450.54C404.292 451.137 404.024 451.831 403.937 452.558L403.574 455.444C403.355 456.996 403.161 458.548 402.919 460.1C402.671 461.413 402.807 462.771 403.31 464.009C403.813 465.248 404.662 466.315 405.756 467.084C407.405 468.369 409.127 469.824 411.14 471.667C412.376 472.782 412.497 473.34 411.77 474.771C410.46 477.196 408.715 480.688 406.775 484.01C405.514 486.217 405.053 486.435 402.458 485.683L400.033 484.907L395.183 483.355C394.583 483.043 393.936 482.83 393.267 482.725H393.34ZM359.657 476.856C365.951 476.832 372.008 474.454 376.638 470.192C381.269 465.929 384.138 460.089 384.683 453.819C384.972 450.517 384.6 447.191 383.588 444.035C382.576 440.879 380.945 437.956 378.79 435.438C375.616 431.576 371.359 428.752 366.566 427.329C361.774 425.907 356.665 425.951 351.898 427.456C347.131 428.96 342.923 431.857 339.815 435.773C336.708 439.689 334.843 444.445 334.461 449.43C334.101 452.609 334.38 455.829 335.284 458.898C336.188 461.968 337.697 464.825 339.724 467.302C341.878 470.021 344.571 472.264 347.634 473.892C350.698 475.52 354.064 476.496 357.523 476.759C358.208 476.825 358.896 476.857 359.584 476.856H359.657ZM359.827 428.745H361.815C367.732 429.41 373.158 432.349 376.947 436.941C379.856 440.369 381.682 444.584 382.195 449.05C382.708 453.517 381.884 458.035 379.828 462.034C377.771 466.032 374.575 469.33 370.644 471.511C366.712 473.692 362.222 474.658 357.741 474.286C354.609 474.043 351.561 473.158 348.787 471.685C346.012 470.212 343.571 468.184 341.615 465.726C339.778 463.508 338.402 460.946 337.569 458.189C336.736 455.432 336.463 452.536 336.765 449.672C337.221 443.916 339.85 438.549 344.12 434.662C348.39 430.774 353.98 428.659 359.754 428.745H359.827Z" fill="#DCDEE4"/>
<path d="M705.606 307.033C705.606 307.033 765.6 304.051 777.725 343.626V422.851C777.725 422.851 731.093 386.137 705.606 398.383V307.033Z" fill="#DCDEE4"/>
<path d="M777.725 424.064C777.901 424.098 778.082 424.098 778.259 424.064C778.463 423.964 778.635 423.809 778.755 423.616C778.875 423.423 778.938 423.2 778.938 422.973V343.628C778.949 343.515 778.949 343.401 778.938 343.288C766.667 303.276 706.188 305.773 705.582 305.822C705.269 305.835 704.973 305.968 704.756 306.194C704.539 306.42 704.417 306.721 704.418 307.034V398.384C704.416 398.593 704.469 398.799 704.571 398.982C704.673 399.165 704.821 399.318 705 399.427C705.177 399.529 705.377 399.582 705.582 399.582C705.786 399.582 705.987 399.529 706.164 399.427C730.68 387.593 776.488 423.385 777.022 423.676C777.198 423.89 777.45 424.029 777.725 424.064ZM776.513 343.822V420.403C767.443 413.637 730.147 387.447 706.794 396.541V308.198C715.088 308.029 765.6 308.756 776.513 343.822Z" fill="#374361"/>
<path d="M643.647 727.139C651.868 729.855 660.21 732.255 668.237 735.408C681.623 740.67 692.487 737.033 699.762 725.393C711.159 707.375 726.994 694.814 744.624 683.295C770.499 666.32 788.274 642.361 795.306 612.097C809.614 551.157 774.112 499.481 711.377 485.028C618.816 463.761 562.338 548.077 587.703 628.102C594.566 649.757 600.992 670.758 599.294 693.771C598.349 706.575 605.333 714.795 617.821 718.481C626.503 721.125 635.039 724.253 643.647 727.139Z" fill="white"/>
<path d="M679.586 738.996C688.146 738.996 695.348 734.631 700.756 726.047C712.881 707.011 730.001 694.28 745.279 684.313C771.098 667.961 789.477 642.138 796.47 612.388C803.236 583.506 799.235 556.08 784.903 533.066C769.747 508.817 743.678 491.235 711.62 483.863C671.026 474.527 634.699 484.518 609.334 512.018C581.907 541.724 573.177 586.392 586.515 628.562C593.038 649.175 599.779 670.491 598.058 693.77C597.112 706.744 603.805 715.595 617.458 719.742C623.399 721.488 629.389 723.549 635.184 725.538L643.284 728.278L650.801 730.703C656.427 732.497 662.247 734.365 667.776 736.547C671.526 738.092 675.531 738.922 679.586 738.996ZM682.763 482.869C692.3 482.916 701.801 484.038 711.086 486.216C742.611 493.491 768.025 510.465 782.842 534.352C796.834 556.807 800.738 583.603 794.118 611.83C787.183 641.366 770.305 665.18 743.945 682.276C728.449 692.388 710.965 705.338 698.719 724.762C691.565 736.086 681.477 739.312 668.698 734.292C663.047 732.085 657.203 730.218 651.529 728.399L644.035 725.974L635.96 723.234C630.165 721.246 624.151 719.16 618.137 717.414C605.721 713.752 599.634 705.653 600.483 693.964C602.253 670.2 595.414 648.666 588.843 627.835C575.748 586.61 584.284 542.742 611.104 513.666C620.185 503.75 631.27 495.876 643.624 490.567C655.977 485.258 669.318 482.634 682.763 482.869Z" fill="#374361"/>
<path d="M610.677 716.27L676.992 738.407C682.925 740.388 686.129 746.803 684.148 752.735L682.996 756.185C681.016 762.118 674.601 765.322 668.669 763.342L602.354 741.204C596.421 739.224 593.217 732.809 595.197 726.876L596.349 723.426C598.33 717.493 604.744 714.29 610.677 716.27Z" fill="white"/>
<path d="M672.214 765.114C674.844 765.124 677.41 764.301 679.545 762.763C681.679 761.225 683.272 759.052 684.096 756.554L685.26 753.086C686.305 749.931 686.058 746.491 684.571 743.518C683.085 740.546 680.481 738.284 677.331 737.227L611.031 715.087C607.873 714.041 604.43 714.288 601.453 715.774C598.477 717.26 596.21 719.864 595.148 723.016L594.008 726.46C592.955 729.618 593.199 733.064 594.686 736.042C596.173 739.021 598.781 741.287 601.938 742.343L668.237 764.435C669.517 764.875 670.86 765.104 672.214 765.114ZM607.054 716.881C608.141 716.882 609.222 717.054 610.255 717.39L676.652 739.53C679.173 740.402 681.248 742.233 682.429 744.625C683.609 747.018 683.799 749.779 682.957 752.31L681.793 755.754C681.38 757.016 680.719 758.184 679.849 759.188C678.978 760.191 677.916 761.011 676.724 761.598C675.535 762.197 674.24 762.554 672.912 762.65C671.585 762.746 670.251 762.578 668.989 762.156L602.689 740.015C601.43 739.594 600.265 738.928 599.263 738.056C598.261 737.185 597.44 736.124 596.848 734.935C596.256 733.746 595.903 732.452 595.811 731.127C595.719 729.801 595.889 728.471 596.312 727.212L597.451 723.768C598.131 721.76 599.423 720.016 601.145 718.78C602.868 717.545 604.935 716.881 607.054 716.881Z" fill="#374361"/>
<path d="M602.332 741.227L668.647 763.364C674.58 765.345 677.784 771.76 675.803 777.692L674.651 781.142C672.671 787.075 666.256 790.279 660.324 788.299L594.009 766.161C588.076 764.181 584.872 757.766 586.852 751.833L588.004 748.383C589.985 742.451 596.399 739.247 602.332 741.227Z" fill="white"/>
<path d="M663.896 790.067C666.524 790.053 669.082 789.218 671.213 787.679C673.343 786.14 674.94 783.974 675.779 781.483L676.918 778.039C677.464 776.46 677.685 774.787 677.568 773.12C677.451 771.453 676.999 769.827 676.239 768.339C675.519 766.852 674.502 765.528 673.251 764.447C672 763.367 670.541 762.555 668.964 762.059L602.665 739.919C599.514 738.902 596.088 739.175 593.138 740.68C590.188 742.185 587.954 744.797 586.927 747.945L585.787 751.413C585.259 752.973 585.045 754.622 585.157 756.266C585.269 757.909 585.705 759.514 586.44 760.988C587.175 762.462 588.194 763.776 589.438 764.855C590.683 765.933 592.129 766.755 593.693 767.272L659.992 789.413C661.251 789.834 662.568 790.055 663.896 790.067ZM598.712 741.81C599.81 741.808 600.9 741.988 601.938 742.344L668.237 764.435C670.781 765.294 672.882 767.125 674.081 769.528C674.682 770.712 675.038 772.005 675.13 773.329C675.222 774.654 675.046 775.984 674.615 777.239L673.475 780.683C673.058 781.946 672.396 783.115 671.526 784.122C670.656 785.129 669.595 785.953 668.405 786.548C667.215 787.143 665.919 787.497 664.592 787.589C663.264 787.681 661.932 787.51 660.671 787.085L594.372 764.944C593.11 764.526 591.944 763.861 590.94 762.99C589.936 762.119 589.114 761.058 588.521 759.868C587.928 758.678 587.577 757.383 587.486 756.057C587.396 754.731 587.568 753.4 587.994 752.141L589.134 748.697C589.551 747.437 590.214 746.272 591.084 745.268C591.954 744.265 593.013 743.444 594.202 742.853C595.605 742.164 597.149 741.807 598.712 741.81Z" fill="#374361"/>
<path d="M593.086 765.817C589.958 775.226 602.786 787.933 621.459 794.214C640.131 800.495 658.052 797.948 661.18 788.564L593.086 765.817Z" fill="#374361"/>
<path d="M641.271 798.87C643.307 798.883 645.342 798.746 647.358 798.458C655.336 797.318 660.671 793.948 662.344 788.952C662.438 788.643 662.41 788.31 662.265 788.021C662.121 787.733 661.871 787.51 661.568 787.4L593.474 764.678C593.172 764.577 592.842 764.6 592.556 764.741C592.27 764.881 592.051 765.129 591.947 765.43C590.273 770.449 592.48 776.342 598.179 782.041C604.706 788.15 612.533 792.702 621.071 795.354C627.573 797.596 634.393 798.784 641.271 798.87ZM659.555 789.292C657.785 792.784 653.396 795.16 647.018 796.057C638.509 796.775 629.943 795.751 621.842 793.05C613.741 790.348 606.276 786.025 599.901 780.343C595.366 775.784 593.28 771.25 593.959 767.394L659.555 789.292Z" fill="#374361"/>
<path d="M663.217 720.931C663.488 720.925 663.75 720.832 663.964 720.666C664.178 720.5 664.332 720.27 664.405 720.009L665.012 717.584C669.862 697.141 675.051 676.141 684.072 656.959C697.131 659.449 710.607 658.615 723.26 654.534C730.659 652.464 737.362 648.434 742.66 642.87C745.338 640.02 747.242 636.53 748.188 632.735C749.135 628.94 749.093 624.965 748.067 621.191C746.96 618.447 745.302 615.959 743.195 613.882C741.088 611.804 738.577 610.181 735.817 609.113C733.058 608.044 730.109 607.554 727.152 607.671C724.196 607.788 721.294 608.51 718.628 609.793C709.898 614.837 700.562 625.022 690.838 640.057C687.872 644.649 685.191 649.419 682.811 654.34C672.09 652.161 661.925 647.821 652.935 641.585C653.129 640.712 653.323 639.863 653.493 638.99L653.929 636.856C657.421 620.318 661.738 599.73 654.584 583.506C653.444 580.887 649.152 572.279 642.289 570.848C640.651 570.541 638.962 570.651 637.377 571.168C635.792 571.685 634.362 572.593 633.22 573.806C629.45 577.513 626.615 582.062 624.95 587.08C623.284 592.097 622.836 597.439 623.641 602.664C625.327 612.987 629.958 622.604 636.979 630.357C640.904 634.902 645.348 638.971 650.219 642.482C644.934 664.704 636.911 686.184 626.333 706.429C626.258 706.572 626.212 706.729 626.199 706.889C626.185 707.05 626.203 707.212 626.253 707.366C626.303 707.519 626.383 707.661 626.488 707.784C626.593 707.906 626.722 708.006 626.867 708.078C627.154 708.216 627.483 708.237 627.786 708.137C628.089 708.038 628.341 707.826 628.491 707.545C639.008 687.411 647.022 666.066 652.353 643.986C661.181 649.969 671.077 654.201 681.502 656.45C672.553 675.632 667.461 696.535 662.538 716.905L661.908 719.33C661.835 719.642 661.888 719.97 662.056 720.243C662.224 720.515 662.493 720.71 662.805 720.785L663.217 720.931ZM727.576 609.818C730.067 609.834 732.534 610.311 734.851 611.224C737.327 612.081 739.584 613.472 741.462 615.3C743.339 617.127 744.791 619.345 745.715 621.797C746.606 625.177 746.628 628.728 745.78 632.119C744.932 635.511 743.242 638.633 740.865 641.197C735.886 646.415 729.596 650.201 722.654 652.158C710.607 656.08 697.779 656.963 685.309 654.728C687.577 650.107 690.112 645.622 692.899 641.294C702.405 626.598 711.474 616.68 719.865 611.806C722.22 610.488 724.877 609.803 727.576 609.818ZM640.277 573.03C640.724 573.036 641.17 573.076 641.61 573.152C646.145 574.122 650.049 579.602 652.183 584.428C658.998 599.875 654.778 620.027 651.383 636.25L650.922 638.36C650.922 638.893 650.704 639.402 650.607 639.936C646.21 636.658 642.192 632.9 638.628 628.732C631.91 621.337 627.472 612.158 625.848 602.3C625.107 597.475 625.518 592.542 627.048 587.906C628.578 583.27 631.183 579.062 634.651 575.625C636.129 574.078 638.14 573.151 640.277 573.03Z" fill="#DCDEE4"/>
<path d="M430.903 367.925C431.631 367.925 464.853 462.015 464.853 462.015H374.74L355.874 363.657L430.903 367.925Z" fill="white"/>
<path d="M374.74 463.227H464.756C464.947 463.226 465.134 463.179 465.303 463.091C465.472 463.002 465.617 462.874 465.726 462.718C465.843 462.559 465.919 462.375 465.948 462.181C465.978 461.987 465.96 461.788 465.896 461.602C432.892 367.828 432.116 366.737 430.952 366.737L355.922 362.469C355.74 362.46 355.558 362.493 355.39 362.564C355.222 362.635 355.073 362.744 354.952 362.881C354.836 363.021 354.749 363.184 354.699 363.359C354.649 363.535 354.636 363.719 354.661 363.899L373.528 462.233C373.575 462.517 373.724 462.775 373.947 462.958C374.17 463.141 374.452 463.237 374.74 463.227ZM463.034 460.802H375.735L357.353 364.966L430.103 369.089C432.649 374.957 450.691 425.761 463.034 460.802Z" fill="#374361"/>
<path d="M446.811 432.019C446.997 432.021 447.182 431.981 447.35 431.901C447.518 431.821 447.666 431.704 447.781 431.558C447.902 431.397 447.983 431.21 448.016 431.011C448.05 430.813 448.036 430.61 447.975 430.418L437.014 397.535C436.948 397.315 436.819 397.119 436.642 396.972C436.465 396.826 436.249 396.735 436.02 396.711L422.052 395.013C421.854 394.984 421.651 395.007 421.464 395.079C421.277 395.151 421.112 395.271 420.985 395.425C420.852 395.58 420.76 395.765 420.718 395.964C420.675 396.163 420.684 396.37 420.742 396.565L430.903 430.2C430.974 430.437 431.117 430.647 431.313 430.799C431.508 430.951 431.747 431.039 431.994 431.049L446.738 432.019H446.811ZM434.953 399.014L445.114 429.472L432.989 428.696L423.604 397.656L434.953 399.014Z" fill="#DCDEE4"/>
<path d="M383.931 452.8H430.903C431.092 452.804 431.279 452.762 431.448 452.678C431.617 452.593 431.763 452.469 431.873 452.315C431.992 452.168 432.071 451.993 432.105 451.806C432.139 451.62 432.126 451.428 432.067 451.248L409.103 374.328C409.026 374.094 408.881 373.888 408.687 373.737C408.492 373.585 408.257 373.496 408.011 373.479L364.361 370.326C364.173 370.315 363.984 370.349 363.812 370.424C363.639 370.5 363.486 370.616 363.367 370.763C363.238 370.905 363.146 371.077 363.1 371.263C363.053 371.449 363.054 371.644 363.101 371.83L382.694 451.855C382.761 452.13 382.92 452.374 383.145 452.546C383.37 452.719 383.648 452.808 383.931 452.8ZM429.278 450.375H384.877L365.913 372.776L407.017 375.734L429.278 450.375Z" fill="#DCDEE4"/>
<path d="M497.59 422.511C497.59 422.511 487.163 413.757 482.337 409.78C477.511 405.803 472.856 394.891 468.491 394.939C464.126 394.988 471.934 407.961 471.934 407.961C471.934 407.961 455.711 395.521 450.667 395.157C445.623 394.794 442.786 403.305 444.047 405.949C445.308 408.592 459.057 415.042 464.15 420.135C469.242 425.227 485.975 436.625 485.975 436.625" fill="white"/>
<path d="M485.878 437.717C486.141 437.722 486.399 437.64 486.612 437.485C486.825 437.33 486.982 437.11 487.059 436.858C487.136 436.605 487.128 436.335 487.038 436.088C486.947 435.84 486.778 435.629 486.557 435.486C486.387 435.486 469.945 424.113 464.998 419.141C461.328 415.982 457.347 413.204 453.116 410.848C450.235 409.349 447.562 407.483 445.162 405.295C444.977 404.118 445.027 402.916 445.31 401.759C445.593 400.601 446.104 399.512 446.811 398.553C447.154 397.843 447.686 397.24 448.35 396.813C449.013 396.385 449.781 396.148 450.57 396.128C454.013 396.371 464.78 403.767 471.182 408.666C471.4 408.847 471.675 408.946 471.958 408.946C472.242 408.946 472.516 408.847 472.734 408.666C472.946 408.479 473.085 408.222 473.125 407.942C473.165 407.662 473.104 407.377 472.952 407.138C470.018 402.288 467.86 396.929 468.442 395.959C470.479 395.959 473.292 399.863 475.717 403.234C477.394 405.891 479.389 408.334 481.658 410.509C486.508 414.486 496.887 423.24 496.887 423.24L498.463 421.397C498.463 421.397 488.012 412.618 483.21 408.641C481.113 406.612 479.265 404.341 477.705 401.876C474.698 397.583 471.837 393.534 468.612 393.534C468.172 393.519 467.737 393.624 467.352 393.837C466.968 394.051 466.649 394.365 466.429 394.746C465.459 396.541 466.769 400.202 468.345 403.476C463.034 399.669 454.571 393.994 450.861 393.776C449.659 393.753 448.473 394.053 447.428 394.646C446.382 395.24 445.516 396.103 444.92 397.147C443.962 398.443 443.301 399.933 442.982 401.513C442.664 403.093 442.696 404.723 443.077 406.289C443.828 407.841 446.787 409.708 451.952 412.861C455.973 415.15 459.758 417.83 463.252 420.863C468.369 425.98 484.471 437.038 485.077 437.499C485.307 437.669 485.593 437.747 485.878 437.717Z" fill="#374361"/>
<path d="M490.922 352.794C485.825 349.216 480.343 346.222 474.577 343.87C467.957 341.687 459.566 340.208 461.458 337.395C463.349 334.582 479.063 338.656 479.063 338.656C479.063 338.656 469.897 324.615 464.756 321.827C459.615 319.038 452.243 319.256 455.881 316.589C459.518 313.921 470.43 313.509 474.335 315.473C478.239 317.437 500.209 341.59 501.325 342.876C502.44 344.161 490.922 352.794 490.922 352.794Z" fill="white"/>
<path d="M490.922 354.005C491.184 354.007 491.44 353.922 491.649 353.763C496.499 350.125 502.392 345.324 502.61 343.287C502.638 343.071 502.62 342.851 502.557 342.642C502.495 342.433 502.389 342.24 502.246 342.075C502.028 341.832 479.136 316.564 474.892 314.405C470.649 312.247 459.3 312.587 455.153 315.618C454.692 315.957 453.48 316.855 453.722 318.043C453.965 319.231 455.711 319.983 458.33 320.686C460.362 321.157 462.331 321.866 464.198 322.796C467.472 324.566 473.025 331.938 476.323 336.618C470.673 335.357 462.258 333.975 460.488 336.618C460.251 336.938 460.096 337.31 460.037 337.704C459.977 338.097 460.016 338.499 460.149 338.874C460.876 340.911 464.15 341.953 469.848 343.724C471.303 344.136 472.807 344.572 474.238 345.033C479.876 347.368 485.243 350.312 490.243 353.811C490.446 353.939 490.681 354.007 490.922 354.005ZM500.04 343.263C497.266 346.251 494.194 348.949 490.873 351.314C485.916 347.847 480.579 344.958 474.965 342.705C473.51 342.244 471.982 341.784 470.479 341.371C467.593 340.523 462.743 339.116 462.404 338.146C463.349 336.982 470.964 337.807 478.748 339.819C478.984 339.88 479.233 339.869 479.462 339.787C479.691 339.705 479.89 339.556 480.033 339.359C480.171 339.154 480.245 338.914 480.245 338.667C480.245 338.421 480.171 338.18 480.033 337.976C479.645 337.394 470.649 323.645 465.289 320.759C463.262 319.711 461.123 318.898 458.912 318.334C458.087 318.116 457.02 317.825 456.487 317.582L456.608 317.461C459.954 315.036 470.43 314.721 473.801 316.442C477.172 318.164 496.717 339.528 500.04 343.263Z" fill="#374361"/>
<path d="M603.393 372.873C603.393 372.873 545.993 381.045 537.312 378.863L503.362 340.79L483.453 353.764C483.453 353.764 493.929 385.046 508.285 403.113C522.641 421.179 616.56 425.083 616.56 425.083L603.393 372.873Z" fill="#00B3C7"/>
<path d="M478.991 704.465C478.991 704.465 485.611 718.773 484.107 724.471C482.604 730.17 456.972 768 453.262 763.732C449.551 759.464 455.153 722.507 455.153 722.507L478.991 704.465Z" fill="#374361"/>
<path d="M454.038 765.284H454.717C461.822 763.611 484.059 729.467 485.271 724.859C486.823 718.894 480.785 705.459 480.082 704.029C480.005 703.867 479.893 703.725 479.755 703.612C479.617 703.499 479.455 703.417 479.282 703.374C479.108 703.327 478.927 703.32 478.75 703.354C478.574 703.388 478.407 703.461 478.263 703.568L454.426 721.513C454.3 721.604 454.194 721.72 454.115 721.853C454.036 721.987 453.985 722.135 453.965 722.289C453.019 728.57 448.484 760.143 452.364 764.605C452.577 764.834 452.836 765.013 453.126 765.13C453.415 765.247 453.726 765.3 454.038 765.284ZM478.506 706.235C480.518 710.891 483.962 720.179 482.943 724.083C481.246 730.51 458.136 762.762 454.086 762.762C451.952 760.337 454.086 738.124 456.317 722.968L478.506 706.235Z" fill="#374361"/>
<path d="M465.483 674.759L478.991 704.465L455.153 722.41L437.281 687.66L465.483 674.759Z" fill="white"/>
<path d="M455.153 723.623C455.414 723.616 455.668 723.532 455.881 723.38L479.718 705.435C479.939 705.268 480.098 705.031 480.168 704.763C480.239 704.494 480.217 704.21 480.106 703.956L466.599 674.25C466.453 673.958 466.202 673.733 465.896 673.619C465.601 673.498 465.27 673.498 464.974 673.619L436.772 686.52C436.621 686.588 436.486 686.685 436.373 686.806C436.261 686.926 436.174 687.068 436.117 687.223C435.997 687.527 435.997 687.865 436.117 688.169L453.989 722.919C454.067 723.082 454.182 723.224 454.325 723.334C454.469 723.443 454.636 723.517 454.814 723.55L455.153 723.623ZM477.487 704.077L455.662 720.567L439.003 688.218L464.95 676.359L477.487 704.077Z" fill="#374361"/>
<path d="M536.245 506.974C536.245 506.974 436.553 532.267 416.984 548.199C397.414 564.131 412.449 678.712 436.165 699.809L473.462 680.191C473.462 680.191 453.577 592.406 460.876 585.18C468.175 577.953 550.431 567.356 550.431 567.356L604.217 507.192L536.245 506.974Z" fill="#374361"/>
<path d="M436.165 701.022C436.361 701.023 436.553 700.973 436.723 700.876L474.019 681.258C474.257 681.136 474.447 680.939 474.561 680.698C474.675 680.457 474.706 680.185 474.65 679.924C467.011 646.241 456.753 590.951 461.725 586.029C467.496 580.33 527.83 571.479 550.576 568.544C550.867 568.516 551.137 568.377 551.328 568.156L605.114 507.992C605.272 507.823 605.377 507.611 605.415 507.382C605.454 507.154 605.425 506.919 605.333 506.707C605.235 506.492 605.079 506.309 604.881 506.181C604.683 506.052 604.453 505.982 604.217 505.98L536.317 505.761H536.002C531.928 506.804 435.826 531.321 416.256 547.229C408.981 553.121 407.138 570.193 406.847 583.482C405.95 624.271 418.487 685.623 435.414 700.682C435.612 700.887 435.881 701.009 436.165 701.022ZM472.079 679.56L436.359 698.378C420.209 682.786 408.351 623.349 409.224 583.604C409.612 565.537 412.643 553.291 417.735 549.145C436.529 533.843 532.025 509.326 536.39 508.186L601.525 508.429L549.825 566.241C539.494 567.574 467.375 577.153 460.1 584.355C457.966 586.465 455.953 594.055 463.325 635.62C466.793 655.626 471.109 675.171 472.079 679.56Z" fill="#374361"/>
<path d="M545.872 753.304L549 780.683L522.568 793.341L516.554 755.56L545.872 753.304Z" fill="white"/>
<path d="M522.568 794.553C522.744 794.587 522.925 794.587 523.101 794.553L549.534 781.895C549.759 781.783 549.945 781.604 550.067 781.383C550.188 781.162 550.239 780.909 550.213 780.658L547.084 753.28C547.072 753.123 547.029 752.969 546.955 752.829C546.882 752.689 546.781 752.565 546.659 752.465C546.536 752.365 546.395 752.292 546.243 752.248C546.091 752.205 545.932 752.193 545.775 752.213L516.457 754.468C516.291 754.48 516.129 754.527 515.982 754.607C515.836 754.686 515.708 754.796 515.608 754.929C515.498 755.058 515.42 755.21 515.378 755.374C515.336 755.538 515.332 755.709 515.365 755.875L521.452 793.535C521.479 793.72 521.551 793.897 521.66 794.049C521.77 794.201 521.915 794.324 522.083 794.408C522.231 794.493 522.397 794.543 522.568 794.553ZM547.715 780.004L523.465 791.595L517.912 756.699L544.756 754.638L547.715 780.004Z" fill="#374361"/>
<path d="M633.778 532.606C633.778 532.606 543.253 598.857 542.04 629.824C540.828 660.791 552.783 758.639 552.783 758.639L507.29 769.528C507.29 769.528 474.432 639.5 485.465 606.35C496.499 573.2 560.252 504.04 560.252 504.04L633.778 532.606Z" fill="#374361"/>
<path d="M507.29 770.74H507.581L552.977 759.804C553.266 759.74 553.521 759.57 553.692 759.328C553.862 759.085 553.936 758.788 553.899 758.494C553.899 757.524 541.968 660.355 543.18 629.849C544.344 599.827 633.535 534.231 634.433 533.577C634.603 533.443 634.737 533.268 634.821 533.069C634.906 532.87 634.939 532.652 634.918 532.437C634.883 532.222 634.793 532.02 634.657 531.85C634.521 531.68 634.344 531.548 634.142 531.467L560.64 502.925C560.415 502.83 560.166 502.808 559.927 502.86C559.689 502.912 559.472 503.036 559.306 503.216C556.712 506.053 495.408 572.958 484.35 605.962C473.292 638.967 504.696 764.508 506.175 769.819C506.237 770.072 506.379 770.298 506.58 770.464C506.781 770.63 507.03 770.727 507.29 770.74ZM551.449 757.718L508.188 768.073C504.962 755.099 476.372 637.536 486.702 606.739C497.033 575.941 554.311 512.358 560.616 505.471L631.304 532.922C618.258 542.622 541.968 600.628 540.828 629.776C539.688 658.924 550.164 746.951 551.449 757.718Z" fill="#374361"/>
<path d="M634.554 341.76C638.108 341.312 641.498 339.996 644.423 337.928C649.928 333.903 652.765 327.234 655.215 320.953C657.142 316.69 658.229 312.096 658.416 307.422C658.246 299.177 652.765 292.072 647.139 286.058C642.92 281.547 638.118 275.8 640.131 269.956C640.736 268.744 641.168 267.455 641.416 266.124C641.562 262.802 637.1 260.862 633.996 262.123C631.036 263.745 628.699 266.304 627.351 269.398C626.278 268.273 625.495 266.903 625.073 265.407C624.65 263.911 624.6 262.334 624.926 260.813C625.193 259.577 625.702 258.243 625.072 257.176C624.522 256.447 623.716 255.953 622.817 255.794C618.575 254.854 614.134 255.591 610.423 257.851C606.712 260.111 604.019 263.718 602.908 267.919C602.102 266.548 601.599 265.021 601.432 263.44C601.264 261.859 601.437 260.261 601.938 258.752C594.608 261.288 588.404 266.322 584.414 272.973C580.423 279.623 578.901 287.466 580.113 295.127C580.876 300.771 582.35 306.295 584.502 311.568C585.555 313.346 586.977 314.876 588.673 316.055C599.973 325.488 605.066 337.395 620.343 340.862C624.99 342 629.801 342.304 634.554 341.76Z" fill="white"/>
<path d="M630.165 343.263C631.689 343.267 633.212 343.17 634.723 342.972C638.477 342.502 642.053 341.102 645.127 338.898C650.825 334.727 653.784 327.913 656.33 321.293C658.356 316.894 659.493 312.139 659.677 307.301C659.483 298.522 653.711 291.174 648.061 285.136C643.575 280.286 639.622 275.169 641.319 270.271C641.465 269.883 641.61 269.519 641.78 269.155C642.269 268.194 642.573 267.149 642.677 266.076C642.698 265.221 642.5 264.376 642.101 263.62C641.702 262.864 641.115 262.224 640.398 261.759C639.419 261.079 638.292 260.645 637.11 260.493C635.928 260.341 634.727 260.476 633.608 260.886C630.882 262.216 628.661 264.395 627.279 267.094C626.158 265.249 625.785 263.046 626.236 260.935L626.382 260.401C626.631 259.76 626.749 259.076 626.728 258.388C626.708 257.701 626.548 257.025 626.26 256.4C625.55 255.39 624.469 254.701 623.253 254.484C621.005 253.941 618.67 253.854 616.388 254.229C614.105 254.603 611.921 255.433 609.964 256.667C606.935 258.47 604.505 261.127 602.98 264.306C602.56 262.54 602.644 260.691 603.223 258.971C603.295 258.755 603.305 258.524 603.252 258.304C603.199 258.083 603.085 257.882 602.923 257.723C602.762 257.564 602.559 257.453 602.337 257.403C602.116 257.354 601.885 257.368 601.671 257.443C597.051 259.09 592.833 261.699 589.296 265.098C585.76 268.496 582.985 272.607 581.155 277.158C578.895 282.853 578.208 289.051 579.167 295.103C579.844 300.921 581.27 306.626 583.411 312.078C584.463 313.91 585.893 315.497 587.606 316.734L587.897 316.976C591.242 319.889 594.385 323.024 597.306 326.361C603.49 333.151 609.431 339.577 620.077 342.026C623.384 342.803 626.767 343.218 630.165 343.263ZM636.057 262.851C637.084 262.85 638.089 263.153 638.943 263.724C639.329 263.96 639.647 264.292 639.868 264.687C640.089 265.081 640.204 265.526 640.204 265.979C640.105 266.751 639.866 267.498 639.501 268.186C639.331 268.622 639.137 269.034 638.991 269.471C636.566 276.43 642.871 283.172 646.266 286.785C651.601 292.484 657.058 299.395 657.227 307.349C657.046 311.868 655.983 316.308 654.099 320.42C651.674 326.967 648.885 333.175 643.72 336.958C640.963 338.915 637.763 340.156 634.408 340.571C629.792 341.101 625.119 340.797 620.61 339.674C610.595 337.395 604.993 331.259 599.076 324.736C596.068 321.285 592.827 318.044 589.376 315.036L589.085 314.794C587.651 313.769 586.439 312.466 585.52 310.962C583.537 305.711 582.194 300.239 581.519 294.666C580.635 289.04 581.271 283.28 583.362 277.982C586.52 270.155 592.612 263.872 600.337 260.474C599.984 263.196 600.566 265.958 601.986 268.307C602.113 268.509 602.297 268.67 602.515 268.768C602.733 268.866 602.975 268.898 603.21 268.859C603.446 268.82 603.665 268.712 603.84 268.549C604.015 268.386 604.138 268.175 604.193 267.943C605.234 264.07 607.728 260.748 611.156 258.666C614.584 256.584 618.682 255.903 622.599 256.764C623.189 256.834 623.732 257.119 624.126 257.564C624.417 258.049 624.126 258.849 623.981 259.722L623.835 260.304C623.447 262.014 623.485 263.793 623.946 265.484C624.407 267.176 625.277 268.728 626.479 270.004C626.602 270.148 626.761 270.257 626.94 270.321C627.118 270.385 627.31 270.401 627.497 270.368C627.686 270.352 627.868 270.29 628.028 270.189C628.189 270.088 628.322 269.949 628.419 269.786C629.629 266.938 631.753 264.574 634.457 263.069C634.972 262.897 635.515 262.823 636.057 262.851Z" fill="#374361"/>
<path d="M582.489 317.534C582.489 317.534 574.026 333.127 576.305 336.012C578.585 338.898 585.108 336.279 585.108 336.279" fill="white"/>
<path d="M579.894 338.583C581.838 338.514 583.756 338.121 585.569 337.419C585.864 337.295 586.098 337.061 586.221 336.765C586.343 336.47 586.344 336.138 586.224 335.842C586.167 335.695 586.082 335.561 585.974 335.446C585.865 335.332 585.734 335.241 585.59 335.178C585.445 335.115 585.29 335.081 585.132 335.078C584.975 335.076 584.818 335.105 584.672 335.163C583.192 335.745 578.658 337.031 577.251 335.163C576.305 333.951 579.24 325.949 583.556 318.019C583.636 317.88 583.687 317.726 583.706 317.566C583.725 317.406 583.712 317.245 583.666 317.091C583.621 316.936 583.545 316.793 583.443 316.669C583.34 316.545 583.214 316.443 583.071 316.37C582.787 316.221 582.456 316.189 582.149 316.279C581.841 316.37 581.581 316.576 581.422 316.855C578.779 321.705 572.838 333.49 575.36 336.667C575.916 337.315 576.615 337.825 577.402 338.157C578.189 338.49 579.042 338.635 579.894 338.583Z" fill="#374361"/>
<path d="M582.901 297.868C577.13 303.47 579.846 314.018 580.477 320.978C581.398 330.775 582.546 340.54 583.92 350.272C584.793 356.456 600.895 355.122 603.562 353.109L603.902 373.77C603.902 373.77 608.752 384.779 621.119 377.674C633.487 370.569 635.839 361.888 635.839 361.888L632.323 333.661C632.323 333.661 621.726 334.655 614.354 322.53C606.982 310.405 605.551 291.005 605.551 291.005C605.551 291.005 588.527 292.387 582.901 297.868Z" fill="white"/>
<path d="M613.287 381.287C616.259 381.17 619.15 380.285 621.677 378.716C634.408 371.441 636.906 362.663 637.003 362.299C637.039 362.148 637.039 361.99 637.003 361.839L633.487 333.587C633.439 333.281 633.278 333.004 633.035 332.811C632.793 332.618 632.486 332.523 632.177 332.545C631.765 332.545 622.186 333.272 615.202 321.996C608.073 310.283 606.618 291.15 606.594 290.956C606.581 290.797 606.538 290.641 606.465 290.499C606.393 290.356 606.293 290.23 606.171 290.126C606.049 290.022 605.908 289.944 605.756 289.895C605.604 289.846 605.443 289.827 605.284 289.841C604.581 289.841 587.776 291.271 581.883 297.116C576.645 302.184 577.785 310.647 578.682 317.461C578.852 318.771 579.021 320.056 579.143 321.22C580.04 330.92 581.204 340.862 582.562 350.562C582.763 351.594 583.245 352.55 583.956 353.325C584.666 354.099 585.577 354.662 586.587 354.952C591.677 356.513 597.111 356.564 602.229 355.097L602.471 373.915C602.449 374.068 602.449 374.223 602.471 374.376C603.885 377.365 606.407 379.688 609.504 380.85C610.731 381.206 612.01 381.353 613.287 381.287ZM634.602 361.887C634.141 363.197 631.231 370.496 620.465 376.631C619.037 377.616 617.418 378.287 615.712 378.601C614.007 378.914 612.255 378.863 610.571 378.45C608.203 377.563 606.244 375.837 605.066 373.6L604.799 353.206C604.79 352.981 604.72 352.762 604.596 352.574C604.472 352.386 604.299 352.236 604.096 352.139C603.907 352.02 603.688 351.958 603.465 351.958C603.242 351.958 603.024 352.02 602.835 352.139C601.38 353.303 592.504 354.564 587.654 352.575C586.127 351.969 585.229 351.12 585.229 350.15C583.871 340.45 582.804 330.75 581.81 320.905C581.81 319.716 581.519 318.48 581.349 317.073C580.525 310.793 579.482 303.008 583.774 298.765C588.067 294.521 600.58 292.848 604.484 292.411C604.92 296.946 606.909 312.708 613.335 323.305C619.761 333.903 628.176 334.921 631.28 335.018L634.602 361.887Z" fill="#374361"/>
<path d="M583.556 342.947C583.556 342.947 591.534 346.973 594.905 338.776L583.556 342.947Z" fill="white"/>
<path d="M587.897 345.154C588.931 345.16 589.958 344.979 590.928 344.621C592.11 344.131 593.176 343.399 594.058 342.472C594.939 341.545 595.616 340.442 596.045 339.237C596.165 338.935 596.161 338.597 596.034 338.297C595.907 337.998 595.667 337.76 595.366 337.637C595.218 337.578 595.06 337.548 594.9 337.55C594.741 337.553 594.583 337.586 594.437 337.649C594.291 337.712 594.158 337.804 594.047 337.918C593.936 338.032 593.848 338.167 593.79 338.316C593.487 339.209 593.001 340.029 592.361 340.722C591.722 341.415 590.945 341.967 590.079 342.341C588.091 342.92 585.959 342.747 584.09 341.856C583.946 341.786 583.791 341.744 583.631 341.734C583.472 341.724 583.312 341.746 583.161 341.798C583.011 341.849 582.871 341.931 582.752 342.036C582.632 342.142 582.535 342.27 582.465 342.414C582.327 342.701 582.306 343.031 582.406 343.333C582.505 343.636 582.717 343.889 582.998 344.039C584.535 344.748 586.204 345.128 587.897 345.154Z" fill="#374361"/>
<path d="M601.816 322.19C601.884 319.713 602.64 317.303 603.999 315.23C604.803 313.466 605.866 311.832 607.151 310.38C607.806 309.682 608.605 309.135 609.493 308.779C610.381 308.423 611.337 308.266 612.292 308.319C613.134 308.451 613.937 308.762 614.648 309.231C615.359 309.699 615.961 310.314 616.415 311.035C617.33 312.502 617.886 314.163 618.04 315.885C618.514 319.543 618.017 323.261 616.6 326.666C615.182 330.071 612.894 333.044 609.964 335.285L610.449 334.655" fill="white"/>
<path d="M609.964 336.57C610.22 336.574 610.469 336.488 610.667 336.328C613.774 333.941 616.201 330.782 617.707 327.166C619.213 323.549 619.746 319.601 619.252 315.715C619.038 313.846 618.408 312.048 617.409 310.453C616.869 309.606 616.159 308.88 615.324 308.32C614.49 307.761 613.548 307.381 612.559 307.204C611.419 307.113 610.274 307.284 609.21 307.705C608.147 308.125 607.194 308.783 606.424 309.629C605.043 311.123 603.905 312.825 603.053 314.673C601.581 316.942 600.782 319.582 600.749 322.287C600.786 322.6 600.938 322.888 601.175 323.094C601.413 323.301 601.72 323.411 602.035 323.402C602.193 323.393 602.348 323.353 602.49 323.283C602.632 323.213 602.759 323.115 602.863 322.995C602.967 322.875 603.046 322.736 603.095 322.585C603.145 322.434 603.163 322.275 603.15 322.117C603.231 319.867 603.936 317.684 605.187 315.812C605.944 314.185 606.941 312.681 608.146 311.35C608.658 310.77 609.295 310.314 610.009 310.016C610.723 309.718 611.495 309.585 612.268 309.629C612.932 309.747 613.563 310.002 614.123 310.377C614.682 310.753 615.157 311.241 615.517 311.811C616.316 313.098 616.814 314.549 616.972 316.055C617.393 319.432 616.945 322.861 615.672 326.018C614.399 329.175 612.343 331.955 609.698 334.097H609.576L609.067 334.727C608.925 334.907 608.836 335.124 608.812 335.352C608.788 335.58 608.83 335.81 608.931 336.016C609.033 336.222 609.19 336.394 609.386 336.514C609.582 336.633 609.808 336.695 610.037 336.691L609.964 336.57Z" fill="#374361"/>
<path d="M603.587 353.109C603.587 353.109 611.686 349.787 615.081 343.748C615.081 343.748 615.809 358.71 603.393 364.118L603.587 353.109Z" fill="#374361"/>
<path d="M603.393 365.33C603.561 365.365 603.734 365.365 603.902 365.33C616.924 359.656 616.293 343.942 616.293 343.772C616.279 343.508 616.178 343.257 616.008 343.055C615.837 342.854 615.605 342.714 615.348 342.656C615.092 342.6 614.826 342.626 614.586 342.73C614.347 342.835 614.146 343.013 614.014 343.238C610.886 348.84 603.199 352.041 603.126 352.065C602.904 352.156 602.715 352.311 602.581 352.509C602.447 352.708 602.375 352.941 602.374 353.181L602.18 364.215C602.18 364.417 602.232 364.617 602.329 364.795C602.427 364.973 602.567 365.123 602.738 365.233C602.941 365.332 603.17 365.366 603.393 365.33ZM613.602 347.7C613.317 350.65 612.36 353.495 610.804 356.017C609.249 358.539 607.137 360.671 604.629 362.25L604.751 354.005C608.054 352.45 611.052 350.314 613.602 347.7Z" fill="#374361"/>
<path d="M586.287 309.612C585.801 307.728 586.008 306.046 586.748 305.856C587.489 305.665 588.483 307.037 588.968 308.921C589.454 310.805 589.247 312.486 588.506 312.677C587.766 312.868 586.772 311.496 586.287 309.612Z" fill="#374361"/>
<path d="M646.436 354.612C646.436 354.612 610.571 356.285 596.166 375.564C581.762 394.842 570.17 468.586 563.114 473.436C556.057 478.286 536.002 505.592 536.245 506.974C536.487 508.356 638.943 540.924 638.943 540.924C638.943 540.924 644.957 517.28 656.257 486.652C667.558 456.025 676.312 356.697 646.436 354.612Z" fill="#00B3C7"/>
<path d="M553.462 484.398C553.644 484.393 553.822 484.35 553.985 484.27C554.149 484.191 554.293 484.077 554.408 483.937C566.069 468.417 574.047 450.447 577.736 431.387C583.023 401.608 592.917 383.518 593.014 383.348C593.171 383.068 593.21 382.738 593.124 382.429C593.038 382.119 592.832 381.857 592.553 381.699C592.413 381.622 592.259 381.574 592.1 381.557C591.941 381.54 591.781 381.554 591.628 381.599C591.474 381.644 591.332 381.719 591.207 381.819C591.083 381.92 590.98 382.044 590.904 382.184C590.904 382.354 580.719 400.76 575.36 430.951C571.739 449.612 563.928 467.207 552.516 482.409C552.315 482.657 552.22 482.975 552.252 483.293C552.284 483.611 552.44 483.903 552.686 484.107C552.904 484.29 553.178 484.393 553.462 484.398Z" fill="#374361"/>
<path d="M617.191 384.609C616.366 385.628 575.821 450.302 575.821 450.302L495.19 411.502L475.499 434.2C475.499 434.2 543.447 485.561 569.952 494.267C596.457 502.973 657.252 408.301 656.573 397.898C655.894 387.495 628.831 370.18 617.191 384.609Z" fill="#00B3C7"/>
<path d="M575.82 451.612C576.027 451.613 576.231 451.563 576.413 451.466C576.595 451.368 576.75 451.227 576.863 451.054C576.863 451.054 613.044 393.412 613.602 392.588C613.756 392.318 613.8 392 613.726 391.698C613.652 391.397 613.465 391.135 613.204 390.967C612.943 390.799 612.627 390.738 612.322 390.796C612.017 390.854 611.746 391.026 611.565 391.278C611.104 391.981 580.161 441.233 575.481 448.702L532.753 426.368C532.469 426.222 532.14 426.194 531.836 426.289C531.532 426.385 531.278 426.596 531.128 426.877C531.052 427.019 531.005 427.174 530.99 427.333C530.974 427.493 530.991 427.655 531.038 427.808C531.085 427.961 531.163 428.104 531.266 428.227C531.368 428.35 531.495 428.452 531.637 428.526L575.287 451.369C575.442 451.494 575.625 451.577 575.82 451.612Z" fill="#374361"/>
<path d="M571.747 494.316C588.722 494.316 606.957 479.985 626.212 451.588C626.303 451.458 626.367 451.312 626.401 451.156C626.435 451.001 626.437 450.841 626.407 450.685C626.378 450.529 626.318 450.381 626.23 450.248C626.142 450.116 626.029 450.003 625.897 449.915C625.628 449.736 625.301 449.668 624.984 449.727C624.667 449.786 624.385 449.967 624.199 450.23C603.199 481.222 583.629 495.044 565.999 491.31C548.37 487.575 513.135 459.785 512.795 459.591C512.672 459.489 512.53 459.414 512.377 459.369C512.224 459.324 512.064 459.31 511.905 459.328C511.747 459.346 511.594 459.396 511.455 459.474C511.316 459.553 511.195 459.658 511.098 459.785C510.996 459.908 510.921 460.05 510.876 460.203C510.831 460.356 510.817 460.516 510.835 460.675C510.853 460.833 510.903 460.986 510.981 461.125C511.06 461.264 511.165 461.385 511.292 461.482C512.747 462.646 547.181 489.782 565.514 493.662C567.562 494.104 569.652 494.323 571.747 494.316Z" fill="#374361"/>
<path d="M602.665 370.666L604.581 376.437L599.852 382.597C599.852 382.597 609.261 430.612 680.774 392.297L703.763 400.687L690.11 419.287C690.11 419.287 604.072 452.388 597.379 383.252L596.166 375.54L602.665 370.666Z" fill="#374361"/>
<path d="M647.843 428.332C653.307 428.304 658.762 427.874 664.163 427.047C673.151 425.665 681.987 423.424 690.547 420.354C690.767 420.283 690.956 420.137 691.08 419.941L704.733 401.342C704.847 401.192 704.923 401.018 704.957 400.833C704.99 400.648 704.979 400.458 704.925 400.278C704.87 400.098 704.774 399.934 704.644 399.798C704.513 399.663 704.353 399.56 704.175 399.499L681.162 391.23C681.01 391.158 680.845 391.121 680.677 391.121C680.509 391.121 680.344 391.158 680.192 391.23C653.202 405.78 632.08 409.465 617.458 402.554C613.499 400.599 609.999 397.827 607.19 394.42C604.381 391.013 602.327 387.05 601.162 382.791L605.527 377.068C605.647 376.912 605.728 376.728 605.762 376.534C605.796 376.34 605.781 376.14 605.721 375.952L603.805 370.205C603.744 370.025 603.642 369.861 603.508 369.726C603.373 369.592 603.209 369.49 603.029 369.429C602.845 369.37 602.649 369.357 602.459 369.391C602.269 369.425 602.09 369.504 601.938 369.623L595.463 374.473C595.285 374.6 595.146 374.774 595.06 374.975C594.975 375.176 594.946 375.396 594.978 375.613L596.19 383.324C597.864 400.76 604.775 413.37 616.657 420.742C625.969 426.537 637.294 428.332 647.843 428.332ZM689.358 418.22C685.236 419.723 643.284 434.419 617.943 418.729C606.715 411.793 600.192 399.79 598.543 383.082L597.427 376.025L601.986 372.63L603.174 376.195L598.858 381.845C598.752 381.98 598.678 382.138 598.64 382.305C598.602 382.473 598.602 382.647 598.64 382.815C599.777 387.56 601.955 391.994 605.017 395.794C608.078 399.593 611.947 402.665 616.342 404.785C631.619 412.06 653.299 408.277 680.822 393.679L701.799 401.221L689.358 418.22Z" fill="#374361"/>
<path d="M549 780.683C549 780.683 555.451 804.933 554.578 807.042C553.705 809.152 513.935 859.47 510.2 843.902C506.466 828.334 522.568 793.341 522.568 793.341L549 780.683Z" fill="#374361"/>
<path d="M513.425 848.097C524.896 848.097 554.796 809.637 555.693 807.503C556.59 805.369 552.613 789.558 550.164 780.367C550.124 780.195 550.044 780.035 549.93 779.9C549.816 779.765 549.672 779.659 549.509 779.591C549.349 779.519 549.176 779.481 549 779.481C548.824 779.481 548.651 779.519 548.491 779.591L522.058 792.25C521.799 792.364 521.591 792.572 521.476 792.832C520.797 794.262 505.253 828.382 509.036 844.169C509.141 845.185 509.599 846.132 510.33 846.845C511.061 847.559 512.019 847.993 513.037 848.073L513.425 848.097ZM548.127 782.404C550.989 793.341 553.656 805.078 553.341 806.654C551.571 810.025 521.816 846.739 513.037 845.672C512.431 845.672 511.679 845.284 511.291 843.611C507.896 829.497 521.646 798.118 523.416 794.238L548.127 782.404Z" fill="#374361"/>
<path d="M506.223 571.382C506.408 571.384 506.591 571.341 506.756 571.257C506.921 571.172 507.063 571.049 507.169 570.897L541.604 527.126C541.713 527.001 541.795 526.856 541.846 526.698C541.897 526.541 541.915 526.375 541.898 526.21C541.882 526.045 541.833 525.885 541.753 525.74C541.673 525.596 541.564 525.469 541.433 525.368C541.302 525.266 541.151 525.193 540.991 525.152C540.831 525.111 540.663 525.104 540.5 525.13C540.337 525.156 540.18 525.215 540.041 525.304C539.901 525.393 539.781 525.51 539.688 525.647L505.278 569.418C505.079 569.669 504.988 569.989 505.025 570.307C505.061 570.625 505.222 570.915 505.472 571.115C505.686 571.285 505.95 571.379 506.223 571.382Z" fill="white"/>
<path d="M374.741 462.014L373.771 403.96L353.934 311.083L355.874 363.657L374.741 462.014Z" fill="white"/>
<path d="M374.74 463.227H374.862C375.164 463.191 375.442 463.045 375.644 462.817C375.845 462.589 375.955 462.294 375.953 461.99L374.983 403.936L355.122 310.816C355.053 310.523 354.879 310.266 354.634 310.092C354.388 309.918 354.088 309.839 353.788 309.871C353.484 309.907 353.205 310.057 353.007 310.291C352.809 310.525 352.707 310.826 352.721 311.132L354.661 363.705L373.528 462.233C373.575 462.517 373.724 462.775 373.947 462.958C374.17 463.141 374.452 463.237 374.74 463.227ZM355.656 325.003L372.631 404.3L373.334 448.143L357.111 363.511L355.656 325.003Z" fill="#374361"/>
<path d="M827.292 480.227C826.904 479.087 826.516 477.802 826.104 476.759C825.885 476.177 825.667 475.571 825.4 474.989C825.274 474.62 825.024 474.307 824.692 474.103C824.36 473.9 823.967 473.818 823.582 473.873C822.636 473.873 821.714 474.164 820.793 474.334C820.297 474.433 819.794 474.497 819.289 474.528C818.915 474.523 818.552 474.405 818.247 474.188C817.155 473.17 816.137 472.103 815.118 471.012C814.953 470.807 814.839 470.567 814.784 470.31C814.729 470.053 814.736 469.786 814.803 469.532C815.046 468.417 815.312 467.277 815.555 466.162C815.628 465.712 815.628 465.253 815.555 464.804C815.543 464.64 815.499 464.48 815.424 464.335C815.349 464.189 815.245 464.059 815.118 463.955C813.382 462.872 811.494 462.055 809.517 461.53C809.223 461.439 808.907 461.446 808.618 461.551C808.329 461.656 808.083 461.853 807.916 462.112C807.213 463.082 806.461 464.028 805.782 465.046C805.548 465.413 805.22 465.71 804.832 465.906C804.443 466.103 804.01 466.191 803.575 466.162C802.339 466.162 801.15 466.162 799.865 465.992C799.638 465.979 799.417 465.911 799.222 465.792C799.028 465.674 798.865 465.509 798.75 465.313C798.289 464.658 797.877 463.979 797.44 463.324C797.004 462.67 796.713 462.185 796.325 461.651C796.157 461.362 795.891 461.142 795.576 461.031C795.26 460.92 794.915 460.925 794.603 461.045L789.486 462.888C789.163 463.017 788.894 463.254 788.726 463.559C788.558 463.865 788.501 464.219 788.565 464.561C788.565 465.507 788.856 466.453 789.026 467.398C789.026 467.835 789.026 468.271 789.195 468.732C789.23 469.022 789.196 469.316 789.094 469.59C788.993 469.864 788.828 470.111 788.613 470.308C787.716 471.157 786.795 472.006 785.922 472.879C785.672 473.145 785.357 473.339 785.007 473.442C784.657 473.544 784.286 473.551 783.933 473.461L780.247 472.612C779.845 472.48 779.407 472.51 779.027 472.695C778.646 472.881 778.353 473.208 778.21 473.606C777.507 475.061 776.828 476.541 776.173 478.02C776.055 478.22 775.978 478.442 775.946 478.673C775.913 478.903 775.927 479.138 775.986 479.363C776.044 479.588 776.146 479.8 776.287 479.985C776.427 480.171 776.603 480.327 776.804 480.445C777.434 480.93 778.113 481.366 778.768 481.851C779.423 482.336 779.689 482.555 780.126 482.943C780.314 483.092 780.463 483.284 780.561 483.504C780.658 483.724 780.7 483.964 780.684 484.204C780.684 485.489 780.684 486.774 780.684 488.059C780.67 488.408 780.566 488.747 780.384 489.044C780.201 489.341 779.945 489.587 779.641 489.757C778.962 490.169 778.234 490.581 777.555 491.018C777.113 491.27 776.684 491.545 776.27 491.842C775.98 492.039 775.766 492.329 775.664 492.665C775.563 493 775.58 493.361 775.712 493.685C776.27 495.237 776.852 496.789 777.434 498.317C777.534 498.551 777.665 498.771 777.822 498.972C777.96 499.22 778.172 499.42 778.428 499.541C778.685 499.663 778.973 499.701 779.253 499.651L782.599 499.093H782.842C783.287 498.996 783.751 499.026 784.18 499.181C784.609 499.335 784.986 499.607 785.267 499.966C785.897 500.718 786.625 501.397 787.28 502.1C787.595 502.408 787.821 502.797 787.932 503.225C788.043 503.652 788.036 504.102 787.91 504.525C787.643 505.616 787.377 506.683 787.158 507.774C786.94 508.866 787.158 509.423 788.201 509.933C789.705 510.66 791.232 511.339 792.784 512.018C793.126 512.195 793.521 512.238 793.893 512.139C794.265 512.04 794.587 511.807 794.797 511.485C795.403 510.733 795.937 509.933 796.494 509.06C797.707 507.386 797.998 507.217 800.059 507.338H802.484C802.869 507.345 803.245 507.451 803.577 507.647C803.908 507.842 804.183 508.12 804.376 508.453C804.861 509.254 805.346 510.078 805.855 510.878C806.128 511.285 806.436 511.666 806.776 512.018C806.927 512.197 807.128 512.326 807.354 512.386C807.579 512.447 807.818 512.437 808.037 512.358L812.887 510.539C813.106 510.539 813.3 510.296 813.518 510.175C813.767 510.038 813.966 509.826 814.088 509.569C814.209 509.312 814.248 509.024 814.197 508.744C814.027 507.629 813.833 506.538 813.663 505.446C813.64 505.107 813.64 504.767 813.663 504.428C813.623 504.154 813.653 503.875 813.75 503.616C813.848 503.357 814.01 503.127 814.221 502.949L816.84 500.524C817.087 500.279 817.395 500.104 817.732 500.019C818.069 499.934 818.422 499.94 818.756 500.039L822.151 500.839H822.272C823.703 501.081 824.164 500.839 824.697 499.602C825.231 498.365 826.007 496.668 826.613 495.189C826.714 495.018 826.78 494.829 826.806 494.632C826.831 494.435 826.816 494.235 826.762 494.045C826.707 493.854 826.614 493.676 826.489 493.523C826.363 493.369 826.207 493.243 826.031 493.152C825.158 492.497 824.285 491.842 823.363 491.26C822.919 491.013 822.56 490.638 822.331 490.184C822.102 489.73 822.014 489.218 822.078 488.714C822.078 487.55 822.078 486.289 822.224 485.246C822.231 485.004 822.296 484.768 822.415 484.557C822.533 484.346 822.7 484.166 822.903 484.034C823.873 483.403 824.843 482.821 825.788 482.191C826.466 481.86 827.007 481.302 827.316 480.615L827.292 480.227ZM790.626 486.677C790.626 485.228 790.913 483.794 791.469 482.456C792.026 481.119 792.841 479.905 793.869 478.883C794.897 477.862 796.117 477.055 797.458 476.507C798.799 475.959 800.235 475.682 801.684 475.692C804.552 475.785 807.272 476.983 809.279 479.034C811.285 481.085 812.421 483.832 812.451 486.701C812.551 488.196 812.342 489.694 811.839 491.105C811.336 492.515 810.548 493.807 809.525 494.901C808.502 495.994 807.265 496.866 805.891 497.462C804.518 498.058 803.036 498.366 801.538 498.366C800.041 498.366 798.559 498.058 797.186 497.462C795.812 496.866 794.575 495.994 793.552 494.901C792.529 493.807 791.741 492.515 791.238 491.105C790.735 489.694 790.526 488.196 790.626 486.701V486.677Z" fill="white"/>
<path d="M807.746 513.716C808.038 513.718 808.327 513.661 808.595 513.546L813.445 511.727C813.719 511.62 813.979 511.482 814.221 511.315C814.682 511.048 815.05 510.648 815.28 510.168C815.509 509.688 815.588 509.149 815.506 508.623L814.973 505.325C814.948 505.027 814.948 504.727 814.973 504.428C814.973 504.113 814.973 503.992 815.118 503.919L817.374 501.833L817.762 501.445C817.863 501.34 817.993 501.268 818.136 501.237C818.278 501.207 818.427 501.22 818.562 501.276L820.987 501.833L821.884 502.027C824.042 502.415 825.037 502.027 825.861 500.16C826.686 498.293 827.195 497.177 827.801 495.674C828.106 495.084 828.176 494.4 827.996 493.761C827.816 493.121 827.399 492.574 826.831 492.23C825.934 491.551 825.037 490.897 824.091 490.29C823.832 490.154 823.621 489.941 823.486 489.681C823.352 489.421 823.3 489.126 823.339 488.835C823.339 488.108 823.339 487.356 823.339 486.629V485.343C823.323 485.305 823.315 485.264 823.315 485.222C823.315 485.181 823.323 485.139 823.339 485.101L826.249 483.258C827.161 482.78 827.867 481.987 828.238 481.027C828.261 480.907 828.261 480.783 828.238 480.663V480.227C828.261 480.098 828.261 479.967 828.238 479.839L827.947 478.966C827.656 478.093 827.365 477.22 827.049 476.371C826.734 475.522 826.589 475.134 826.322 474.528C826.096 473.914 825.669 473.394 825.109 473.055C824.549 472.716 823.891 472.577 823.242 472.661C822.612 472.661 821.981 472.855 821.326 472.976L820.017 473.194H819.12C819.016 473.217 818.908 473.217 818.804 473.194C817.834 472.249 816.816 471.206 815.822 470.139C815.822 470.139 815.822 469.896 815.822 469.727L816.161 468.272C816.307 467.617 816.428 466.986 816.573 466.356C816.696 465.799 816.745 465.228 816.719 464.658C816.688 464.307 816.581 463.966 816.405 463.661C816.229 463.355 815.989 463.091 815.7 462.888C813.948 461.734 812.036 460.844 810.026 460.245C809.499 460.087 808.936 460.1 808.417 460.283C807.898 460.466 807.451 460.81 807.14 461.263L806.388 462.258C805.903 462.912 805.418 463.567 804.982 464.246C804.876 464.444 804.713 464.605 804.514 464.709C804.315 464.813 804.089 464.855 803.866 464.828C803.042 464.828 802.217 464.828 801.441 464.828H800.132C799.802 464.408 799.495 463.971 799.211 463.519L798.459 462.355C798.144 461.894 797.853 461.433 797.513 460.972C797.192 460.478 796.712 460.108 796.152 459.922C795.592 459.737 794.986 459.748 794.433 459.954C792.712 460.56 790.966 461.166 789.268 461.821C788.701 462.04 788.224 462.444 787.916 462.968C787.608 463.492 787.486 464.105 787.571 464.707C787.571 465.386 787.765 466.041 787.886 466.695L788.031 467.641C788.112 468.05 788.168 468.463 788.201 468.878C788.226 468.983 788.221 469.094 788.187 469.196C788.153 469.299 788.09 469.39 788.007 469.46L787.328 470.115C786.649 470.745 785.946 471.4 785.291 472.079C785.181 472.202 785.038 472.291 784.879 472.334C784.719 472.377 784.551 472.372 784.394 472.321L782.624 471.909L780.732 471.473C780.059 471.287 779.342 471.352 778.713 471.656C778.084 471.959 777.587 472.48 777.313 473.122C776.61 474.601 775.931 476.08 775.3 477.583C774.935 478.232 774.833 478.995 775.013 479.717C775.193 480.438 775.643 481.063 776.27 481.463C776.658 481.779 777.07 482.045 777.483 482.336L778.259 482.894L779.544 483.913C779.601 483.947 779.645 483.998 779.672 484.059C779.698 484.12 779.704 484.187 779.689 484.252V485.077C779.689 486.071 779.689 487.065 779.689 488.059C779.689 488.209 779.649 488.355 779.572 488.484C779.495 488.612 779.385 488.717 779.253 488.787L778.331 489.32L777.119 490.048C776.658 490.339 776.197 490.63 775.761 490.969C775.26 491.319 774.892 491.828 774.716 492.414C774.54 492.999 774.566 493.626 774.791 494.195C775.349 495.722 775.931 497.274 776.537 498.826C776.654 499.12 776.809 499.397 776.998 499.651C777.258 500.116 777.657 500.489 778.14 500.715C778.623 500.941 779.165 501.01 779.689 500.912L783.012 500.378H783.351C783.599 500.311 783.861 500.324 784.101 500.416C784.341 500.507 784.545 500.673 784.685 500.888C785.146 501.421 785.655 501.93 786.164 502.44L786.746 503.046C786.917 503.207 787.039 503.413 787.099 503.64C787.159 503.867 787.154 504.107 787.086 504.331C786.795 505.422 786.528 506.538 786.31 507.629C786.069 508.321 786.113 509.079 786.431 509.738C786.75 510.397 787.316 510.903 788.007 511.145C789.535 511.873 791.087 512.552 792.639 513.207C793.226 513.5 793.898 513.574 794.535 513.414C795.171 513.253 795.729 512.87 796.107 512.334C796.592 511.679 797.077 511.024 797.537 510.345L797.828 509.957C798.75 508.648 798.75 508.648 800.253 508.745H802.678C802.864 508.736 803.048 508.781 803.207 508.876C803.367 508.971 803.495 509.111 803.575 509.278L804.085 510.078C804.4 510.636 804.739 511.194 805.079 511.727C805.389 512.206 805.747 512.653 806.146 513.061C806.581 513.469 807.151 513.702 807.746 513.716ZM818.222 498.802C817.416 498.797 816.64 499.111 816.064 499.675L815.652 500.063L813.445 502.124C813.105 502.424 812.842 502.8 812.678 503.222C812.513 503.644 812.452 504.099 812.499 504.549C812.499 504.913 812.499 505.301 812.499 505.665L813.033 508.987C813.033 508.987 813.033 508.987 812.887 509.205L812.499 509.448L807.649 511.267C807.383 510.927 807.116 510.612 806.898 510.272C806.679 509.933 806.243 509.23 805.952 508.696L805.443 507.872C805.148 507.37 804.731 506.951 804.231 506.654C803.73 506.357 803.163 506.192 802.581 506.174H800.156C799.249 505.963 798.297 506.07 797.458 506.476C796.62 506.881 795.946 507.562 795.549 508.405L795.258 508.817C794.797 509.448 794.361 510.078 793.876 510.66C793.391 511.242 793.585 510.976 793.269 510.83C791.742 510.2 790.238 509.521 788.735 508.793C788.578 508.724 788.431 508.635 788.298 508.526C788.268 508.342 788.268 508.153 788.298 507.969C788.516 506.902 788.759 505.835 789.026 504.792C789.208 504.17 789.219 503.51 789.057 502.882C788.895 502.255 788.565 501.683 788.104 501.227L787.498 500.597C787.028 500.143 786.583 499.666 786.164 499.166C785.734 498.605 785.147 498.184 784.479 497.956C783.81 497.727 783.089 497.701 782.405 497.881L778.889 498.463C778.889 498.463 778.889 498.463 778.647 498.293C778.551 498.165 778.469 498.027 778.404 497.881C777.822 496.353 777.24 494.825 776.682 493.273C776.682 493.128 776.682 493.031 776.852 492.812C777.221 492.526 777.61 492.267 778.016 492.036L779.18 491.357L780.102 490.8C780.578 490.525 780.977 490.134 781.261 489.663C781.545 489.193 781.705 488.657 781.726 488.108C781.726 487.089 781.726 486.071 781.726 485.077V484.228C781.743 483.808 781.661 483.391 781.489 483.008C781.316 482.625 781.057 482.287 780.732 482.021C780.285 481.615 779.816 481.235 779.326 480.881L778.477 480.275L777.386 479.499C776.876 479.063 776.876 479.014 777.119 478.481C777.774 477.001 778.428 475.546 779.132 474.091C779.301 473.752 779.374 473.679 779.835 473.776L781.702 474.213L783.497 474.601C784.051 474.742 784.632 474.733 785.182 474.576C785.732 474.418 786.23 474.117 786.625 473.703C787.28 473.049 787.934 472.418 788.613 471.812L789.292 471.157C789.619 470.848 789.873 470.47 790.036 470.051C790.2 469.631 790.269 469.181 790.238 468.732C790.238 468.247 790.238 467.762 790.044 467.302L789.874 466.307C789.752 465.723 789.663 465.132 789.608 464.537C789.608 464.198 789.608 464.149 789.753 464.125C791.426 463.47 793.124 462.888 794.821 462.282C794.943 462.282 795.015 462.282 795.161 462.452C795.306 462.621 795.743 463.3 796.034 463.737L796.786 464.877L797.562 466.089C797.788 466.436 798.093 466.726 798.45 466.937C798.808 467.147 799.209 467.272 799.623 467.302H800.957C801.757 467.302 802.533 467.302 803.381 467.302C804.031 467.365 804.684 467.243 805.268 466.952C805.851 466.66 806.34 466.21 806.679 465.653C807.116 465.022 807.577 464.392 808.062 463.761L808.813 462.743C808.813 462.597 808.959 462.573 809.129 462.743C810.986 463.285 812.751 464.103 814.367 465.168C814.269 465.477 814.196 465.793 814.148 466.113C814.027 466.72 813.882 467.35 813.736 467.981L813.397 469.484C813.307 469.909 813.318 470.35 813.427 470.771C813.536 471.191 813.742 471.581 814.027 471.909C815.046 473.025 816.088 474.091 817.18 475.134C817.708 475.564 818.366 475.803 819.047 475.813C819.511 475.788 819.973 475.731 820.429 475.643L821.739 475.425C822.321 475.425 822.903 475.207 823.485 475.158C824.067 475.11 823.897 475.158 824.067 475.546C824.236 475.934 824.552 476.662 824.746 477.244L825.619 479.814L825.861 480.493C825.609 480.821 825.286 481.086 824.915 481.269L822.151 483.137C821.788 483.37 821.488 483.689 821.276 484.065C821.065 484.441 820.949 484.864 820.938 485.295V486.604C820.938 487.308 820.938 488.035 820.938 488.738C820.858 489.462 820.99 490.193 821.317 490.843C821.644 491.493 822.153 492.034 822.781 492.4C823.679 492.982 824.527 493.588 825.376 494.243C825.483 494.321 825.581 494.41 825.667 494.51V494.849C825.061 496.304 824.455 497.759 823.776 499.19C823.533 499.724 823.412 499.821 823.388 499.821C823.123 499.869 822.852 499.869 822.587 499.821L821.617 499.602L819.192 499.069C818.883 498.935 818.557 498.845 818.222 498.802ZM801.49 498.802C803.882 498.792 806.218 498.075 808.203 496.74C810.188 495.406 811.735 493.514 812.647 491.302C813.56 489.091 813.798 486.659 813.331 484.313C812.865 481.967 811.715 479.811 810.026 478.117C807.801 475.871 804.796 474.568 801.635 474.479C800.031 474.46 798.439 474.76 796.951 475.36C795.463 475.961 794.109 476.851 792.968 477.979C791.826 479.107 790.92 480.45 790.302 481.931C789.683 483.411 789.365 485 789.365 486.604C789.328 488.146 789.598 489.68 790.16 491.117C790.722 492.553 791.565 493.863 792.639 494.971C793.771 496.185 795.142 497.154 796.664 497.817C798.187 498.481 799.829 498.824 801.49 498.826V498.802ZM801.635 476.977C804.152 477.067 806.538 478.117 808.304 479.911C809.209 480.811 809.928 481.88 810.419 483.058C810.91 484.235 811.164 485.498 811.166 486.774C811.166 489.347 810.144 491.814 808.325 493.633C806.506 495.452 804.038 496.474 801.466 496.474C800.133 496.486 798.812 496.223 797.585 495.701C796.359 495.18 795.253 494.411 794.336 493.443C792.628 491.666 791.687 489.288 791.717 486.823C791.717 485.537 791.973 484.263 792.469 483.077C792.966 481.89 793.693 480.814 794.61 479.912C795.526 479.009 796.612 478.298 797.806 477.819C799 477.34 800.277 477.103 801.563 477.123L801.635 476.977Z" fill="#DCDEE4"/>
<path d="M421.834 740.864C421.3 738.754 420.791 736.62 420.233 734.511C419.967 733.395 419.627 732.328 419.288 731.237C419.11 730.558 418.705 729.962 418.14 729.547C417.575 729.132 416.884 728.924 416.184 728.957C414.486 728.957 412.813 729.2 411.115 729.321C410.212 729.406 409.303 729.406 408.399 729.321C407.734 729.276 407.103 729.012 406.605 728.569C404.835 726.581 403.186 724.52 401.537 722.434C401.258 722.051 401.08 721.603 401.021 721.132C400.962 720.661 401.022 720.183 401.197 719.743C401.803 717.754 402.458 715.79 403.04 713.826C403.3 713.043 403.439 712.225 403.452 711.401C403.458 711.105 403.406 710.812 403.298 710.537C403.189 710.262 403.028 710.012 402.822 709.8C399.881 707.517 396.61 705.694 393.122 704.392C392.618 704.169 392.052 704.123 391.518 704.265C390.985 704.406 390.516 704.724 390.188 705.168C388.757 706.817 387.278 708.394 385.896 710.018C385.444 710.658 384.816 711.153 384.089 711.442C383.361 711.73 382.564 711.8 381.797 711.643C379.615 711.304 377.384 711.085 375.201 710.77C374.793 710.724 374.403 710.576 374.068 710.338C373.733 710.101 373.464 709.782 373.286 709.412C372.607 708.175 371.976 706.987 371.297 705.653C370.618 704.32 370.157 703.519 369.527 702.477C369.281 701.932 368.844 701.498 368.298 701.256C367.752 701.015 367.136 700.983 366.568 701.167C363.416 701.967 360.263 702.792 357.159 703.592C356.562 703.764 356.044 704.14 355.695 704.653C355.345 705.167 355.185 705.786 355.244 706.405C355.244 708.103 355.51 709.824 355.632 711.522C355.632 712.322 355.632 713.147 355.632 713.947C355.651 714.467 355.546 714.984 355.327 715.456C355.108 715.928 354.78 716.342 354.371 716.663C352.625 718.045 350.854 719.403 349.181 720.858C348.689 721.299 348.085 721.598 347.436 721.722C346.786 721.846 346.116 721.79 345.495 721.561C343.361 720.907 341.227 720.179 339.069 719.524C338.373 719.218 337.585 719.197 336.874 719.464C336.162 719.731 335.584 720.267 335.262 720.955C333.774 723.445 332.344 725.967 330.97 728.521C330.716 728.86 330.535 729.246 330.435 729.658C330.336 730.069 330.321 730.496 330.391 730.913C330.461 731.33 330.615 731.728 330.844 732.084C331.073 732.44 331.371 732.746 331.721 732.983C332.788 733.977 333.928 734.85 334.995 735.82C336.062 736.79 336.523 737.202 337.25 737.954C337.571 738.263 337.814 738.644 337.957 739.066C338.101 739.488 338.141 739.938 338.075 740.379C337.832 742.659 337.59 744.962 337.299 747.242C337.226 747.861 336.993 748.45 336.623 748.952C336.253 749.454 335.759 749.851 335.189 750.103L331.236 752.019C330.402 752.414 329.592 752.86 328.811 753.353C328.257 753.647 327.823 754.125 327.584 754.705C327.345 755.285 327.316 755.93 327.502 756.53C328.278 759.391 329.078 762.228 329.927 765.066C330.076 765.497 330.271 765.912 330.509 766.302C330.714 766.763 331.058 767.149 331.492 767.406C331.927 767.662 332.431 767.777 332.934 767.733L338.972 767.248H339.433C340.283 767.1 341.158 767.211 341.944 767.565C342.731 767.92 343.394 768.502 343.846 769.237C344.84 770.667 346.004 771.977 347.096 773.335C347.615 773.93 347.96 774.657 348.093 775.436C348.225 776.214 348.14 777.015 347.847 777.748C347.193 779.615 346.538 781.507 345.98 783.423C345.793 783.783 345.684 784.18 345.66 784.585C345.636 784.991 345.698 785.397 345.843 785.777C345.987 786.158 346.21 786.503 346.497 786.791C346.784 787.079 347.128 787.303 347.508 787.448C350.103 788.976 352.722 790.431 355.389 791.837C355.97 792.222 356.677 792.368 357.363 792.247C358.049 792.125 358.662 791.744 359.075 791.183C360.263 789.946 361.355 788.612 362.47 787.303C364.895 784.49 365.429 784.271 369.09 784.878L373.358 785.484C374.042 785.547 374.698 785.789 375.26 786.184C375.822 786.58 376.27 787.116 376.559 787.739C377.311 789.267 378.014 790.795 378.815 792.298C379.234 793.073 379.73 793.804 380.294 794.481C380.532 794.827 380.874 795.088 381.271 795.227C381.667 795.367 382.098 795.377 382.501 795.257L391.473 792.832C391.88 792.699 392.271 792.52 392.637 792.298C393.098 792.093 393.484 791.749 393.74 791.315C393.997 790.88 394.111 790.376 394.068 789.873L393.631 783.908C393.595 783.302 393.595 782.695 393.631 782.089C393.616 781.595 393.718 781.105 393.929 780.658C394.139 780.211 394.453 779.821 394.844 779.518C396.565 778.209 398.239 776.875 399.936 775.541C400.411 775.146 400.983 774.885 401.594 774.787C402.204 774.689 402.829 774.757 403.404 774.984C405.295 775.638 407.211 776.22 409.103 776.827C409.175 776.837 409.249 776.837 409.321 776.827C411.746 777.506 412.667 777.263 413.953 775.032C415.238 772.801 416.741 769.988 418.051 767.418C418.254 767.129 418.397 766.802 418.47 766.456C418.544 766.111 418.546 765.754 418.478 765.407C418.411 765.061 418.273 764.732 418.075 764.439C417.876 764.147 417.621 763.898 417.323 763.708C415.868 762.398 414.389 761.137 412.861 759.949C412.097 759.422 411.507 758.679 411.165 757.815C410.824 756.952 410.748 756.006 410.946 755.099C411.261 753.062 411.479 751.001 411.77 748.939C411.81 748.508 411.957 748.093 412.199 747.733C412.44 747.373 412.768 747.079 413.152 746.878L418.609 744.041C419.862 743.561 420.903 742.65 421.543 741.47L421.834 740.864ZM355.244 746.733C355.46 744.146 356.187 741.628 357.383 739.324C358.58 737.021 360.221 734.977 362.213 733.313C364.204 731.648 366.507 730.395 368.986 729.627C371.465 728.859 374.072 728.59 376.656 728.836C381.766 729.435 386.447 731.984 389.723 735.951C392.999 739.918 394.616 744.997 394.237 750.128C393.768 755.275 391.292 760.03 387.344 763.366C383.396 766.701 378.293 768.349 373.14 767.951C370.561 767.763 368.045 767.061 365.741 765.886C363.437 764.711 361.391 763.088 359.724 761.111C358.056 759.134 356.801 756.843 356.032 754.374C355.262 751.905 354.994 749.307 355.244 746.733Z" fill="white"/>
<path d="M382.185 796.687C382.488 796.681 382.789 796.64 383.082 796.566L385.507 795.887L392.031 794.068C392.474 793.928 392.898 793.733 393.292 793.486C393.999 793.18 394.592 792.659 394.987 791.998C395.383 791.337 395.562 790.568 395.498 789.8L395.304 787.206C395.304 786.09 395.135 784.95 395.062 783.835C395.025 783.27 395.025 782.703 395.062 782.137C395.041 781.822 395.099 781.506 395.23 781.218C395.362 780.931 395.562 780.68 395.814 780.488C397.43 779.292 398.982 778.079 400.47 776.851L400.906 776.511C401.233 776.224 401.637 776.039 402.068 775.979C402.499 775.919 402.938 775.986 403.331 776.172L407.381 777.481L409.054 778.015H409.297C409.848 778.283 410.449 778.433 411.062 778.455C411.674 778.477 412.285 778.37 412.853 778.141C413.422 777.913 413.937 777.568 414.364 777.128C414.792 776.689 415.122 776.165 415.335 775.59C416.935 772.825 418.366 770.061 419.457 767.927C419.985 767.1 420.174 766.102 419.985 765.14C419.795 764.178 419.241 763.326 418.439 762.762C416.741 761.234 415.311 759.997 413.928 758.93C413.347 758.546 412.896 757.996 412.632 757.352C412.368 756.707 412.304 755.998 412.449 755.317C412.643 754.032 412.813 752.771 412.982 751.485L413.274 749.06C413.292 748.819 413.373 748.587 413.509 748.387C413.645 748.187 413.832 748.026 414.049 747.921L416.232 746.757L419.482 745.083C420.994 744.474 422.235 743.337 422.973 741.882C422.995 741.762 422.995 741.639 422.973 741.519V740.767C422.985 740.63 422.985 740.492 422.973 740.355L422.488 738.415C422.125 736.936 421.761 735.456 421.373 733.977C420.985 732.498 420.742 731.746 420.379 730.655C420.115 729.734 419.553 728.926 418.78 728.36C418.008 727.794 417.068 727.5 416.111 727.527C414.971 727.527 413.831 727.527 412.716 727.745L410.994 727.89H410.291C409.686 727.95 409.077 727.95 408.472 727.89C408.11 727.864 407.759 727.747 407.454 727.551C405.611 725.441 403.889 723.283 402.434 721.464C402.283 721.228 402.193 720.958 402.172 720.679C402.151 720.4 402.199 720.12 402.313 719.864C402.555 719.015 402.846 718.142 403.113 717.293C403.38 716.444 403.816 715.062 404.156 713.947C404.444 713.061 404.599 712.138 404.616 711.206C404.621 710.727 404.523 710.253 404.331 709.814C404.139 709.375 403.856 708.982 403.501 708.66C400.494 706.313 397.15 704.433 393.583 703.083C392.846 702.783 392.033 702.73 391.263 702.931C390.494 703.133 389.811 703.577 389.315 704.198C388.83 704.78 388.296 705.362 387.787 705.92C386.841 706.987 385.92 708.054 385.022 709.145C384.707 709.626 384.252 709.999 383.72 710.215C383.187 710.432 382.601 710.482 382.04 710.358C380.617 710.131 379.186 709.937 377.747 709.776L375.322 709.485C375.109 709.448 374.907 709.36 374.734 709.23C374.561 709.099 374.422 708.928 374.328 708.733L373.164 706.55L372 704.368C371.539 703.495 371.054 702.622 370.545 701.773C370.153 701.016 369.512 700.417 368.731 700.077C367.949 699.737 367.074 699.677 366.253 699.906C362.519 700.827 359.512 701.628 356.796 702.331C355.945 702.573 355.204 703.101 354.696 703.825C354.188 704.549 353.945 705.426 354.007 706.308C354.027 707.475 354.108 708.641 354.249 709.8L354.395 711.522C354.395 712.298 354.395 713.074 354.395 713.947C354.411 714.284 354.347 714.62 354.208 714.928C354.069 715.236 353.859 715.506 353.595 715.717L352.455 716.614C351.073 717.705 349.69 718.797 348.357 719.936C348.031 720.223 347.634 720.417 347.207 720.498C346.781 720.579 346.34 720.544 345.932 720.397L342.803 719.403L339.505 718.36C338.547 717.987 337.485 717.981 336.522 718.344C335.56 718.707 334.766 719.412 334.292 720.324C332.804 722.846 331.374 725.393 329.999 727.963C329.363 728.883 329.108 730.014 329.289 731.117C329.47 732.221 330.073 733.212 330.969 733.88C331.6 734.462 332.255 735.02 332.934 735.578L334.267 736.717C335.019 737.396 335.747 738.075 336.45 738.803C336.635 738.973 336.775 739.185 336.86 739.422C336.944 739.659 336.97 739.912 336.935 740.161L336.789 741.64C336.595 743.41 336.401 745.205 336.159 746.999C336.114 747.424 335.959 747.829 335.707 748.173C335.456 748.518 335.118 748.791 334.728 748.963L333.103 749.739L330.678 750.855C329.845 751.279 329.035 751.748 328.253 752.261C327.485 752.697 326.886 753.38 326.556 754.199C326.226 755.018 326.183 755.925 326.435 756.772C327.211 759.633 328.011 762.471 328.86 765.332C329.016 765.808 329.228 766.264 329.49 766.69C329.804 767.388 330.328 767.971 330.989 768.358C331.649 768.744 332.414 768.916 333.176 768.848L339.214 768.388H339.748C340.376 768.262 341.028 768.338 341.611 768.603C342.194 768.869 342.679 769.311 342.997 769.867C343.725 770.91 344.525 771.855 345.422 772.825L346.392 774.014C346.782 774.448 347.04 774.984 347.134 775.56C347.229 776.136 347.157 776.727 346.926 777.263C346.271 779.179 345.641 781.07 345.059 783.01C344.83 783.501 344.703 784.032 344.685 784.573C344.667 785.114 344.758 785.652 344.952 786.157C345.147 786.662 345.441 787.122 345.818 787.511C346.195 787.899 346.646 788.208 347.144 788.418C349.569 789.849 352.14 791.28 355.05 792.832C355.87 793.336 356.846 793.526 357.796 793.366C358.746 793.205 359.606 792.705 360.215 791.959C361.185 790.916 362.106 789.849 363.004 788.758L363.634 788.03C365.768 785.605 365.914 785.46 369.163 785.896L373.431 786.527C373.916 786.565 374.382 786.732 374.782 787.008C375.183 787.285 375.503 787.663 375.71 788.103L376.462 789.606C376.947 790.649 377.456 791.692 377.99 792.686C378.436 793.548 378.973 794.361 379.59 795.111C379.867 795.561 380.246 795.939 380.697 796.213C381.148 796.487 381.659 796.65 382.185 796.687ZM402.288 773.553C401.231 773.561 400.211 773.939 399.403 774.62L398.966 774.959L394.334 778.573C393.8 778.983 393.368 779.512 393.073 780.118C392.779 780.724 392.629 781.391 392.637 782.065C392.6 782.711 392.6 783.358 392.637 784.005C392.637 785.144 392.807 786.26 392.879 787.4L393.098 789.97C393.125 790.249 393.059 790.529 392.91 790.766C392.761 791.003 392.537 791.184 392.273 791.28C391.985 791.463 391.676 791.61 391.352 791.716C389.193 792.346 387.035 792.928 384.853 793.535L382.428 794.214C382.161 794.214 381.87 794.335 381.482 793.85C380.961 793.228 380.506 792.553 380.124 791.837C379.615 790.867 379.13 789.849 378.645 788.855L377.893 787.327C377.514 786.528 376.935 785.841 376.213 785.331C375.491 784.821 374.65 784.507 373.77 784.417L369.502 783.786C365.404 783.229 364.459 783.592 361.791 786.745L361.161 787.472C360.263 788.539 359.39 789.582 358.445 790.576C358.328 790.757 358.175 790.912 357.996 791.031C357.817 791.15 357.614 791.23 357.402 791.266C357.19 791.303 356.973 791.295 356.764 791.243C356.555 791.191 356.359 791.096 356.189 790.964C353.328 789.461 350.757 788.03 348.381 786.624C347.071 785.848 346.95 785.508 347.387 783.98C347.944 782.089 348.575 780.222 349.23 778.354C349.589 777.426 349.691 776.417 349.524 775.435C349.358 774.454 348.929 773.535 348.284 772.777L347.29 771.564C346.514 770.643 345.762 769.746 345.059 768.751C344.472 767.842 343.63 767.126 342.637 766.694C341.645 766.263 340.546 766.135 339.481 766.326H339.117L333.079 766.811C332.803 766.841 332.525 766.778 332.289 766.633C332.052 766.489 331.869 766.27 331.77 766.011C331.582 765.693 331.42 765.36 331.285 765.017C330.484 762.18 329.684 759.342 328.86 756.505C328.735 756.157 328.745 755.774 328.889 755.433C329.033 755.091 329.299 754.817 329.636 754.662C330.369 754.195 331.13 753.774 331.915 753.401L334.17 752.286L335.844 751.485C336.59 751.138 337.235 750.606 337.718 749.939C338.202 749.273 338.508 748.495 338.608 747.678C338.851 745.884 339.045 744.065 339.239 742.246L339.408 740.791C339.482 740.185 339.416 739.57 339.214 738.994C339.012 738.418 338.68 737.896 338.244 737.469C337.493 736.693 336.717 735.966 335.819 735.262L334.437 734.074C333.807 733.565 333.176 733.031 332.594 732.474C331.43 731.382 331.333 730.849 332.061 729.467C333.443 727.042 334.874 724.423 336.329 721.925C336.425 721.703 336.565 721.504 336.741 721.339C336.917 721.174 337.126 721.046 337.353 720.965C337.58 720.883 337.821 720.848 338.062 720.863C338.303 720.878 338.538 720.943 338.754 721.052C339.845 721.367 340.912 721.731 342.003 722.07L345.156 723.089C345.975 723.38 346.857 723.446 347.71 723.28C348.563 723.114 349.356 722.721 350.006 722.143C351.315 721.028 352.673 719.961 354.031 718.894L355.171 717.972C355.723 717.538 356.166 716.981 356.465 716.345C356.764 715.709 356.911 715.013 356.893 714.31C356.893 713.486 356.893 712.637 356.893 711.885C356.893 711.134 356.893 710.697 356.723 710.091C356.723 709 356.505 707.908 356.505 706.817C356.459 706.47 356.535 706.118 356.721 705.821C356.907 705.525 357.191 705.302 357.523 705.192C360.215 704.416 363.197 703.616 366.908 702.767C367.223 702.663 367.567 702.683 367.869 702.822C368.17 702.962 368.408 703.211 368.532 703.519C369.042 704.344 369.478 705.168 369.939 705.944L371.103 708.127C371.491 708.854 371.879 709.606 372.291 710.333C372.562 710.865 372.957 711.323 373.442 711.669C373.928 712.015 374.49 712.239 375.08 712.322L377.505 712.613C378.911 712.807 380.318 712.977 381.7 713.195C382.681 713.383 383.696 713.286 384.624 712.917C385.552 712.547 386.355 711.92 386.938 711.109C387.811 710.042 388.733 709.024 389.654 707.981L391.206 706.235C391.375 705.981 391.63 705.797 391.925 705.717C392.219 705.636 392.532 705.666 392.807 705.799C396.152 707.06 399.284 708.826 402.094 711.037C402.177 711.237 402.226 711.45 402.24 711.667C402.227 712.353 402.104 713.033 401.876 713.68L400.858 717.002C400.567 717.851 400.3 718.724 400.033 719.597C399.803 720.228 399.734 720.906 399.831 721.571C399.928 722.236 400.189 722.866 400.591 723.404C402.046 725.247 403.792 727.43 405.683 729.588C406.393 730.256 407.307 730.666 408.278 730.752C409.036 730.825 409.799 730.825 410.557 730.752H411.212L412.982 730.606C414.049 730.606 415.141 730.412 416.208 730.388C416.643 730.369 417.071 730.502 417.42 730.762C417.769 731.023 418.018 731.396 418.124 731.819C418.463 732.886 418.802 733.953 419.069 735.02C419.457 736.499 419.821 737.954 420.185 739.433L420.621 741.179V741.519C420.066 742.344 419.27 742.979 418.342 743.337L415.068 745.059L412.861 746.199C412.306 746.488 411.83 746.909 411.475 747.425C411.12 747.94 410.896 748.535 410.824 749.157C410.824 749.958 410.63 750.734 410.509 751.582C410.364 752.843 410.194 754.007 410 755.341C409.795 756.456 409.914 757.607 410.344 758.655C410.774 759.704 411.496 760.608 412.425 761.258C413.759 762.301 415.165 763.489 416.814 764.968C417.76 765.817 417.833 766.181 417.275 767.248C416.232 769.333 414.85 772.098 413.225 774.79C412.231 776.487 411.988 776.584 409.951 776.026L408.133 775.444C406.799 775.008 405.441 774.596 404.131 774.135C403.554 773.839 402.931 773.642 402.288 773.553ZM374.789 769.285C378.839 769.289 382.803 768.114 386.196 765.903C389.59 763.692 392.266 760.54 393.898 756.833C395.53 753.126 396.047 749.025 395.386 745.029C394.726 741.033 392.916 737.315 390.178 734.331C387.44 731.347 383.892 729.224 379.967 728.223C376.043 727.221 371.912 727.384 368.078 728.692C364.245 729.999 360.875 732.394 358.381 735.585C355.886 738.776 354.375 742.624 354.031 746.66C353.73 749.283 353.96 751.939 354.706 754.472C355.451 757.005 356.698 759.362 358.372 761.404C360.142 763.658 362.359 765.522 364.883 766.878C367.408 768.234 370.186 769.054 373.043 769.285C373.625 769.285 374.207 769.285 374.789 769.285ZM374.934 730.024H376.559C379.584 730.333 382.485 731.384 385.005 733.086C387.524 734.787 389.584 737.086 391 739.776C392.416 742.467 393.144 745.466 393.12 748.506C393.096 751.546 392.32 754.533 390.861 757.201C389.402 759.869 387.306 762.134 384.76 763.795C382.214 765.456 379.296 766.462 376.267 766.722C373.237 766.982 370.191 766.488 367.399 765.285C364.606 764.082 362.155 762.207 360.263 759.827C358.796 758.037 357.702 755.971 357.044 753.751C356.386 751.532 356.178 749.203 356.432 746.902C356.789 742.258 358.9 737.924 362.336 734.781C365.773 731.637 370.277 729.919 374.934 729.976V730.024Z" fill="#DCDEE4"/>
<path d="M293.212 495.915C307.277 511.411 343.24 541.093 417.057 542.16L419.094 673.667C419.094 673.667 348.526 684.507 293.212 635.425V495.915Z" fill="white"/>
<path d="M402.167 675.826C407.889 675.879 413.608 675.555 419.288 674.856C419.577 674.815 419.84 674.668 420.028 674.444C420.216 674.221 420.315 673.936 420.306 673.644L418.269 542.137C418.263 541.823 418.136 541.525 417.914 541.303C417.693 541.082 417.394 540.954 417.081 540.948C345.422 539.906 309.266 511.848 294.11 495.116C293.948 494.931 293.734 494.799 293.496 494.739C293.257 494.678 293.006 494.691 292.776 494.776C292.548 494.868 292.353 495.025 292.214 495.228C292.076 495.431 292.002 495.671 292 495.916V635.426C291.999 635.596 292.035 635.765 292.106 635.92C292.177 636.075 292.282 636.213 292.412 636.323C331.066 670.637 377.602 675.826 402.167 675.826ZM417.881 672.601C408.957 673.644 344.962 679.391 294.425 634.868V499.069C310.866 516.044 347.168 542.137 415.868 543.422L417.881 672.601Z" fill="#374361"/>
<path d="M400.882 658.196C401.195 658.196 401.496 658.075 401.723 657.858C401.949 657.641 402.082 657.345 402.094 657.032C402.101 656.712 401.984 656.402 401.767 656.167C401.55 655.931 401.25 655.79 400.93 655.771C376.934 655.319 353.347 649.476 331.915 638.675C323.88 634.633 316.432 629.518 309.775 623.47V533.479C309.775 533.157 309.647 532.849 309.42 532.621C309.193 532.394 308.884 532.266 308.562 532.266C308.241 532.266 307.933 532.394 307.705 532.621C307.478 532.849 307.35 533.157 307.35 533.479V623.979C307.35 624.132 307.379 624.284 307.438 624.425C307.496 624.567 307.582 624.695 307.69 624.804C308.005 625.119 338.414 656.086 400.833 658.196H400.882Z" fill="#DCDEE4"/>
<path d="M393.146 573.831C393.468 573.831 393.776 573.703 394.003 573.476C394.231 573.248 394.359 572.94 394.359 572.618C394.359 572.297 394.231 571.989 394.003 571.761C393.776 571.534 393.468 571.406 393.146 571.406C392.976 571.406 374.74 570.145 364.943 563.404C364.814 563.312 364.667 563.248 364.512 563.214C364.357 563.181 364.196 563.179 364.04 563.208C363.884 563.237 363.736 563.298 363.604 563.385C363.471 563.473 363.358 563.587 363.27 563.719C363.09 563.98 363.019 564.302 363.074 564.615C363.128 564.928 363.303 565.207 363.561 565.392C373.916 572.521 392.225 573.782 393.001 573.831H393.146Z" fill="#DCDEE4"/>
<path d="M393.146 562.507C393.462 562.501 393.763 562.374 393.988 562.154C394.214 561.933 394.346 561.634 394.358 561.319C394.365 561.158 394.339 560.999 394.282 560.849C394.226 560.699 394.139 560.562 394.028 560.447C393.917 560.331 393.784 560.239 393.636 560.177C393.489 560.114 393.33 560.082 393.17 560.082C393 560.082 375.929 559.5 365.016 552.055C364.884 551.966 364.736 551.904 364.579 551.872C364.423 551.84 364.262 551.839 364.106 551.87C363.949 551.9 363.8 551.961 363.667 552.049C363.534 552.137 363.42 552.25 363.331 552.382C363.242 552.515 363.179 552.663 363.148 552.819C363.116 552.975 363.115 553.136 363.145 553.293C363.176 553.449 363.237 553.598 363.325 553.731C363.413 553.864 363.526 553.979 363.658 554.068C375.153 561.925 392.394 562.482 393.122 562.507H393.146Z" fill="#DCDEE4"/>
<path d="M397.632 642.41C397.933 642.407 398.221 642.285 398.433 642.07C398.549 641.961 398.641 641.83 398.704 641.684C398.767 641.538 398.8 641.381 398.8 641.221C398.8 641.062 398.767 640.905 398.704 640.759C398.641 640.613 398.549 640.482 398.433 640.373C398.214 640.106 375.007 614.886 365.283 599.148C365.188 598.989 365.058 598.854 364.902 598.753C364.746 598.652 364.57 598.588 364.386 598.566C364.204 598.552 364.021 598.578 363.849 598.641C363.678 598.703 363.522 598.802 363.392 598.93L344.574 618.33C341.033 611.346 326.265 581.712 323.258 564.228L331.964 569.466C332.101 569.549 332.252 569.604 332.411 569.628C332.569 569.652 332.73 569.645 332.886 569.606C333.041 569.568 333.187 569.5 333.316 569.405C333.445 569.31 333.554 569.191 333.637 569.054C333.72 568.917 333.775 568.765 333.799 568.607C333.823 568.449 333.816 568.287 333.777 568.132C333.739 567.976 333.67 567.83 333.576 567.701C333.481 567.572 333.362 567.463 333.225 567.381L322.336 560.833C322.141 560.72 321.919 560.661 321.694 560.661C321.468 560.661 321.247 560.72 321.051 560.833C320.862 560.959 320.71 561.133 320.612 561.338C320.514 561.543 320.473 561.771 320.493 561.997C322.676 581.591 342.318 619.324 343.216 620.924C343.302 621.095 343.429 621.242 343.585 621.352C343.742 621.462 343.923 621.532 344.113 621.555C344.301 621.58 344.492 621.563 344.673 621.504C344.854 621.446 345.019 621.347 345.156 621.215L364.046 601.621C374.328 617.602 396.42 641.634 396.662 641.9C396.775 642.053 396.921 642.178 397.089 642.266C397.257 642.354 397.443 642.403 397.632 642.41Z" fill="#DCDEE4"/>
<path d="M318.141 573.831C318.398 573.834 318.648 573.756 318.857 573.608C319.067 573.46 319.223 573.249 319.305 573.007L322.919 562.361C322.993 562.206 323.033 562.038 323.037 561.867C323.041 561.695 323.009 561.525 322.943 561.367C322.876 561.209 322.777 561.067 322.652 560.95C322.527 560.833 322.378 560.744 322.216 560.689C322.054 560.634 321.882 560.614 321.711 560.63C321.54 560.646 321.375 560.698 321.226 560.783C321.077 560.867 320.948 560.983 320.847 561.121C320.745 561.259 320.675 561.417 320.639 561.585L317.002 572.231C316.9 572.536 316.922 572.869 317.062 573.159C317.203 573.449 317.451 573.673 317.753 573.783L318.141 573.831Z" fill="#DCDEE4"/>
<path d="M777.725 343.627C777.725 343.627 773.603 375.952 753.475 382.887V453.212C753.475 453.212 768.631 446.398 777.725 422.924V343.627Z" fill="white"/>
<path d="M753.475 454.351C753.643 454.386 753.816 454.386 753.984 454.351C754.615 454.06 769.698 447.076 778.841 423.384C778.875 423.241 778.875 423.091 778.841 422.948V343.626C778.841 343.319 778.722 343.024 778.51 342.803C778.297 342.581 778.007 342.451 777.701 342.438C777.548 342.421 777.393 342.435 777.245 342.479C777.098 342.522 776.96 342.594 776.841 342.691C776.721 342.788 776.622 342.908 776.549 343.043C776.476 343.179 776.431 343.328 776.416 343.481C776.416 343.796 772.172 375.151 752.99 381.747C752.753 381.831 752.547 381.985 752.4 382.188C752.253 382.392 752.171 382.636 752.166 382.887V453.212C752.166 453.414 752.217 453.614 752.315 453.792C752.412 453.97 752.553 454.121 752.723 454.23C752.951 454.359 753.218 454.402 753.475 454.351ZM776.513 422.632C769.504 440.553 758.834 448.556 754.688 451.078V383.711C767.249 378.861 773.53 364.796 776.513 354.612V422.632Z" fill="#374361"/>
</svg>
