<svg width="828" height="801" viewBox="0 0 828 801" fill="none" xmlns="http://www.w3.org/2000/svg">
<rect opacity="0.05" x="1083.82" y="283.612" width="656.45" height="656.45" rx="43.0804" transform="rotate(115.597 1083.82 283.612)" fill="#00A2CF"/>
<rect opacity="0.05" x="1254.18" y="286.125" width="656.45" height="656.45" rx="43.0804" transform="rotate(115.597 1254.18 286.125)" fill="#00A2CF"/>
<path d="M582.299 586.632V605.539H523.247C523.247 605.539 546.256 595.2 550.576 593.841L547.688 577.894L582.299 586.632Z" fill="white"/>
<path d="M582.299 606.656H523.247C522.991 606.661 522.742 606.576 522.542 606.417C522.343 606.257 522.206 606.032 522.155 605.782C522.095 605.534 522.126 605.273 522.241 605.046C522.357 604.819 522.55 604.641 522.786 604.544C523.659 604.131 543.392 595.272 549.314 593.088L546.596 578.088C546.56 577.903 546.572 577.712 546.632 577.534C546.691 577.355 546.796 577.195 546.936 577.069C547.074 576.949 547.238 576.862 547.414 576.816C547.591 576.77 547.776 576.765 547.955 576.802L582.566 585.539C582.81 585.6 583.027 585.74 583.181 585.938C583.335 586.136 583.418 586.381 583.416 586.632V605.539C583.416 605.686 583.387 605.831 583.331 605.966C583.275 606.102 583.192 606.225 583.089 606.329C582.985 606.432 582.862 606.515 582.727 606.571C582.591 606.627 582.446 606.656 582.299 606.656ZM528.441 604.447H581.207V587.457L549.072 579.35L551.669 593.622C551.716 593.884 551.666 594.155 551.527 594.383C551.389 594.612 551.171 594.781 550.916 594.86C547.882 595.855 535.407 601.34 528.441 604.447Z" fill="#374361"/>
<path d="M547.688 606.146H284.804L416.234 505.711L547.688 606.146Z" fill="white"/>
<path d="M547.688 607.36H284.804C284.549 607.36 284.301 607.28 284.094 607.131C283.887 606.982 283.733 606.772 283.652 606.53C283.572 606.289 283.569 606.028 283.645 605.785C283.721 605.541 283.872 605.328 284.076 605.176L415.506 504.74C415.722 504.588 415.981 504.506 416.246 504.506C416.511 504.506 416.77 504.588 416.986 504.74L548.416 605.176C548.619 605.33 548.768 605.545 548.842 605.788C548.916 606.032 548.912 606.294 548.829 606.535C548.745 606.772 548.591 606.978 548.387 607.125C548.184 607.273 547.94 607.355 547.688 607.36ZM288.396 604.933H543.999L416.234 507.361L288.396 604.933Z" fill="#DCDEE4"/>
<path d="M799.553 606.875H2.04075C1.71889 606.875 1.41022 606.747 1.18263 606.519C0.955036 606.292 0.827179 605.983 0.827179 605.661C0.827179 605.339 0.955036 605.031 1.18263 604.803C1.41022 604.576 1.71889 604.448 2.04075 604.448H799.553C799.875 604.448 800.184 604.576 800.412 604.803C800.639 605.031 800.767 605.339 800.767 605.661C800.767 605.983 800.639 606.292 800.412 606.519C800.184 606.747 799.875 606.875 799.553 606.875Z" fill="#DCDEE4"/>
<path d="M736.933 569.69L755.404 593.476L746.302 605.733H796.398L775.646 572.19L736.933 569.69Z" fill="white"/>
<path d="M796.422 606.874H746.302C746.096 606.873 745.895 606.816 745.721 606.708C745.546 606.6 745.405 606.446 745.312 606.263C745.219 606.08 745.178 605.874 745.195 605.67C745.211 605.465 745.283 605.269 745.404 605.103L753.996 593.549L736.059 570.467C735.929 570.296 735.848 570.092 735.827 569.878C735.806 569.663 735.844 569.447 735.938 569.254C736.051 569.073 736.208 568.924 736.395 568.822C736.582 568.72 736.793 568.668 737.006 568.671L775.695 571.098C775.87 571.107 776.042 571.157 776.194 571.246C776.346 571.335 776.475 571.459 776.568 571.608L797.345 605.151C797.445 605.32 797.498 605.513 797.498 605.709C797.498 605.906 797.445 606.099 797.345 606.268C797.257 606.44 797.125 606.587 796.964 606.693C796.802 606.799 796.616 606.862 796.422 606.874ZM748.535 604.666H794.432L775.015 573.307L739.336 570.88L756.326 592.724C756.474 592.915 756.554 593.15 756.554 593.392C756.554 593.633 756.474 593.868 756.326 594.059L748.535 604.666Z" fill="#374361"/>
<path d="M594.484 397.388C594.484 397.388 534.29 476.076 528.465 493.964C524.994 504.837 546.669 582.895 546.669 582.895L582.299 586.632C582.299 586.632 576.741 517.119 580.964 505.711C585.188 494.304 631.109 450.324 631.109 450.324L736.933 576.074L780.622 572.919L660.793 376.757L594.484 397.388Z" fill="#374361"/>
<path d="M582.299 587.845L546.669 584.132C546.427 584.107 546.199 584.01 546.013 583.855C545.827 583.699 545.692 583.491 545.625 583.258C544.727 580.054 523.781 504.691 527.422 493.623C533.125 475.735 591.158 399.887 593.634 396.537C593.788 396.339 594 396.195 594.241 396.124L660.599 375.494C660.854 375.415 661.127 375.422 661.377 375.514C661.627 375.607 661.84 375.778 661.983 376.003L781.811 572.19C781.913 572.372 781.967 572.576 781.967 572.785C781.967 572.993 781.913 573.198 781.811 573.379C781.709 573.559 781.565 573.713 781.392 573.826C781.219 573.94 781.022 574.012 780.816 574.035L737.127 577.19C736.936 577.196 736.745 577.16 736.569 577.085C736.393 577.009 736.235 576.896 736.108 576.753L631.134 451.997C624.605 458.308 585.989 495.88 582.227 506.026C578.149 517.069 583.586 585.733 583.634 586.437C583.649 586.612 583.624 586.788 583.561 586.952C583.498 587.116 583.398 587.264 583.27 587.384C583.159 587.535 583.012 587.656 582.843 587.736C582.673 587.816 582.487 587.854 582.299 587.845ZM547.615 581.777L580.989 585.272C580.188 574.933 575.867 516.026 579.824 505.298C584.12 493.744 628.367 451.245 630.26 449.473C630.377 449.35 630.522 449.255 630.682 449.196C630.841 449.137 631.013 449.116 631.182 449.133C631.346 449.145 631.506 449.19 631.652 449.265C631.798 449.34 631.927 449.444 632.032 449.57L737.467 574.836L778.583 571.874L660.284 378.212L595.212 398.455C591.086 403.819 535.019 477.41 529.679 494.351C527.009 502.871 541.572 559.569 547.615 581.777Z" fill="#374361"/>
<path d="M560.989 307.219C565.042 302.971 550.431 306.272 549.072 334.136C548.028 355.422 546.645 383.286 546.645 383.286L488.636 396.344L482.204 420.615C482.204 420.615 565.892 408.48 567.154 406.052C584.969 372.388 560.989 307.219 560.989 307.219Z" fill="white"/>
<path d="M482.228 421.78C481.916 421.771 481.619 421.641 481.403 421.416C481.284 421.277 481.2 421.113 481.157 420.935C481.115 420.758 481.116 420.573 481.16 420.396L487.592 396.125C487.651 395.932 487.757 395.758 487.901 395.618C488.046 395.478 488.223 395.377 488.417 395.324L545.601 382.46L548.028 334.16C549.023 314.014 557.008 305.641 560.722 304.743C561.073 304.613 561.457 304.605 561.814 304.719C562.17 304.833 562.478 305.064 562.688 305.374C562.859 305.727 562.915 306.125 562.85 306.512C562.785 306.899 562.601 307.256 562.324 307.534C566.444 319.416 569.689 331.585 572.032 343.941C577.081 371.392 575.843 392.484 568.343 406.683C567.324 408.625 538.465 413.746 482.568 421.877L482.228 421.78ZM489.509 397.265L483.66 419.328C515.601 414.668 562.397 407.314 566.183 405.324C583.294 372.436 560.067 308.238 559.824 307.607C556.984 309.718 550.941 316.951 550.115 334.305L547.688 383.431C547.677 383.674 547.585 383.906 547.426 384.091C547.268 384.275 547.053 384.402 546.814 384.45L489.509 397.265Z" fill="#374361"/>
<path d="M301.527 299.937C301.527 299.937 314.488 304.646 318.517 303.869C322.546 303.092 330.24 297.995 330.653 300.131C331.065 302.267 325.361 305.495 325.361 305.495C325.361 305.495 347.885 304.913 347.667 308.772C347.448 312.631 342.109 321.223 338.225 321.636C334.342 322.048 296.964 318.286 296.964 318.286" fill="white"/>
<path d="M337.4 322.898C330.41 322.898 298.226 319.645 296.794 319.5C296.634 319.484 296.48 319.437 296.339 319.361C296.198 319.285 296.073 319.182 295.971 319.058C295.87 318.934 295.794 318.792 295.748 318.638C295.701 318.485 295.686 318.324 295.702 318.165C295.718 318.005 295.765 317.851 295.84 317.71C295.916 317.568 296.019 317.444 296.143 317.342C296.267 317.241 296.41 317.165 296.563 317.118C296.716 317.072 296.877 317.057 297.037 317.072C307.401 318.116 335.021 320.786 338.104 320.422C341.186 320.058 346.283 312.315 346.478 308.675C345.652 307.388 335.992 306.393 325.41 306.684C325.139 306.692 324.873 306.608 324.657 306.445C324.441 306.281 324.287 306.049 324.221 305.786C324.146 305.526 324.161 305.249 324.262 304.999C324.363 304.748 324.545 304.538 324.779 304.403C326.43 303.544 327.924 302.412 329.196 301.053C327.793 301.529 326.423 302.096 325.094 302.752C323.087 303.792 320.971 304.606 318.784 305.179C314.512 305.98 302.473 301.684 301.114 301.175C300.944 301.138 300.784 301.066 300.645 300.963C300.505 300.859 300.39 300.727 300.306 300.575C300.222 300.423 300.171 300.255 300.158 300.081C300.144 299.908 300.168 299.734 300.228 299.571C300.287 299.408 300.381 299.26 300.503 299.136C300.625 299.012 300.772 298.916 300.935 298.854C301.097 298.792 301.271 298.766 301.444 298.777C301.617 298.788 301.786 298.836 301.939 298.917C305.459 300.18 315.289 303.383 318.323 302.801C320.308 302.245 322.235 301.497 324.075 300.568C327.691 298.893 329.657 298.141 330.944 298.747C331.187 298.876 331.397 299.059 331.557 299.282C331.717 299.505 331.823 299.763 331.866 300.034C332.133 301.539 330.871 303.092 329.439 304.354C335.58 304.354 345.968 304.767 348.322 307.218C348.553 307.445 348.733 307.718 348.85 308.019C348.967 308.32 349.019 308.643 349.002 308.966C348.783 312.922 343.25 322.436 338.468 322.97L337.4 322.898Z" fill="#374361"/>
<path d="M516.936 163.749H315.556V315.106H516.936V163.749Z" fill="white"/>
<path d="M516.936 316.296H315.483C315.161 316.296 314.852 316.168 314.625 315.941C314.397 315.713 314.269 315.405 314.269 315.083V163.75C314.269 163.428 314.397 163.119 314.625 162.892C314.852 162.664 315.161 162.536 315.483 162.536H516.936C517.258 162.536 517.567 162.664 517.794 162.892C518.022 163.119 518.15 163.428 518.15 163.75V315.083C518.15 315.405 518.022 315.713 517.794 315.941C517.567 316.168 517.258 316.296 516.936 316.296ZM316.769 313.869H515.795V164.963H316.769V313.869Z" fill="#DCDEE4"/>
<path d="M189.295 373.625L236.382 494.74L237.693 582.603H215.144L201.771 500.493L155.097 437.387C155.097 437.387 127.646 487.896 120.413 499.061C99.7606 530.503 73.6255 557.979 43.2537 580.176H20.2686C20.2686 580.176 93.0831 454.935 96.7967 422.411C100.51 389.887 117.209 353.237 117.209 353.237L189.295 373.625Z" fill="#374361"/>
<path d="M237.693 583.816H215.144C214.858 583.814 214.581 583.711 214.363 583.524C214.146 583.338 214.001 583.08 213.955 582.797L200.63 500.978L155.267 439.522C150.412 448.381 127.888 489.667 121.457 499.594C100.686 531.134 74.4591 558.717 44.0062 581.049C43.8088 581.193 43.5706 581.27 43.3266 581.268H20.2687C20.0509 581.266 19.8374 581.207 19.6499 581.096C19.4624 580.985 19.3075 580.827 19.2007 580.637C19.0987 580.451 19.0453 580.242 19.0453 580.03C19.0453 579.818 19.0987 579.609 19.2007 579.423C19.9289 578.185 92.0152 454.061 95.5831 422.144C99.2724 389.79 115.898 352.97 116.068 352.606C116.186 352.34 116.395 352.125 116.658 352C116.921 351.876 117.22 351.849 117.5 351.927L189.635 372.46C189.813 372.509 189.978 372.597 190.117 372.719C190.256 372.841 190.365 372.994 190.436 373.164L237.499 494.303C237.51 494.449 237.51 494.595 237.499 494.74L238.906 582.603C238.906 582.927 238.779 583.238 238.552 583.47C238.325 583.701 238.017 583.834 237.693 583.841V583.816ZM216.188 581.389H236.455L235.168 494.983L188.397 374.62L118.01 354.548C115.389 360.519 101.457 393.382 98.1316 422.508C94.6365 453.163 31.8219 562.773 22.5016 578.938H42.9868C73.0579 556.813 98.9752 529.54 119.539 498.381C126.651 487.361 153.907 437.289 154.174 436.78C154.272 436.601 154.412 436.449 154.584 436.339C154.755 436.229 154.951 436.164 155.154 436.149C155.357 436.135 155.561 436.171 155.746 436.256C155.931 436.341 156.092 436.471 156.213 436.634L202.887 499.861C203.005 500.018 203.08 500.202 203.106 500.395L216.188 581.389Z" fill="#374361"/>
<path d="M41.579 578.501C41.528 582.689 41.7876 586.875 42.3557 591.025C43.1324 593.816 49.7828 601.243 49.7828 603.549C49.7828 605.855 23.788 606.947 21.7735 603.549C19.7589 600.151 20.7055 596.438 21.7735 591.802C22.6184 587.674 23.1378 583.487 23.3269 579.278" fill="#374361"/>
<path d="M34.2976 606.874C28.0113 606.874 21.8706 606.195 20.6327 604.132C18.424 600.37 19.3463 596.389 20.4386 591.777V591.486C21.2427 587.443 21.7457 583.346 21.9434 579.229C21.9434 578.907 22.0712 578.598 22.2988 578.371C22.5264 578.143 22.8351 578.015 23.157 578.015C23.4788 578.015 23.7875 578.143 24.0151 578.371C24.2427 578.598 24.3705 578.907 24.3705 579.229C24.1733 583.527 23.6458 587.803 22.7929 592.02V592.336C21.7978 596.607 20.9968 599.981 22.7929 602.894C22.7929 602.894 23.3754 603.573 26.9919 604.035C34.4189 605.005 46.0207 604.156 48.4479 603.112C47.4436 601.15 46.2658 599.282 44.9285 597.53C43.4025 595.627 42.1373 593.529 41.1664 591.292C40.5475 587.041 40.2715 582.747 40.3412 578.452C40.3412 578.13 40.469 577.822 40.6966 577.594C40.9242 577.367 41.2329 577.239 41.5548 577.239C41.8766 577.239 42.1853 577.367 42.4129 577.594C42.6405 577.822 42.7683 578.13 42.7683 578.452C42.6967 582.51 42.9402 586.568 43.4965 590.588C44.423 592.529 45.5627 594.361 46.8945 596.049C49.3216 599.617 50.9721 601.874 50.9721 603.331C50.9721 604.787 49.176 605.272 48.3993 605.467C43.761 606.428 39.0345 606.9 34.2976 606.874Z" fill="#374361"/>
<path d="M235.751 575.953C235.751 575.953 234.295 587.918 235.945 591.632C237.596 595.346 260.508 605.443 259.877 607.287C259.246 609.132 219.052 608.112 217.596 606.049C216.14 603.986 216.771 603.161 216.576 598.234C216.382 593.307 215.339 581.244 215.339 581.244" fill="#374361"/>
<path d="M247.328 609.472C243.469 609.472 239.295 609.472 235.63 609.254C217.96 608.574 217.086 607.336 216.674 606.826C215.651 605.337 215.218 603.52 215.46 601.729C215.46 600.856 215.46 599.788 215.46 598.356C215.242 593.501 214.222 581.608 214.222 581.366C214.208 581.206 214.225 581.046 214.273 580.893C214.32 580.74 214.398 580.598 214.5 580.476C214.707 580.227 215.005 580.072 215.327 580.043C215.648 580.014 215.969 580.114 216.217 580.321C216.465 580.528 216.62 580.825 216.649 581.147C216.649 581.269 217.669 593.283 217.887 598.137C217.887 599.618 217.887 600.734 217.887 601.632C217.887 603.55 217.887 604.059 218.567 605.176C221.601 606.608 250.557 607.603 257.789 606.657C255.993 605.419 252.377 603.428 249.319 601.802C241.018 597.239 235.897 594.302 234.926 592.094C233.178 588.186 234.465 577.045 234.61 575.783C234.629 575.624 234.68 575.47 234.758 575.33C234.837 575.19 234.942 575.067 235.069 574.968C235.195 574.869 235.339 574.795 235.494 574.752C235.648 574.709 235.81 574.696 235.969 574.715C236.129 574.734 236.283 574.785 236.423 574.863C236.563 574.942 236.686 575.047 236.785 575.174C236.884 575.3 236.957 575.444 237.001 575.599C237.044 575.754 237.056 575.915 237.037 576.074C236.649 579.303 235.897 588.21 237.037 591.099C237.741 592.7 245.362 596.899 250.387 599.666C259.78 604.812 261.576 605.977 260.993 607.652C260.702 608.598 259.61 608.817 258.445 608.987C254.752 609.37 251.04 609.532 247.328 609.472Z" fill="#374361"/>
<path d="M41.4091 581.875H23.9094C23.7215 581.929 23.5238 581.938 23.3318 581.902C23.1397 581.867 22.9586 581.787 22.8026 581.669C22.6467 581.551 22.5202 581.399 22.433 581.224C22.3459 581.05 22.3006 580.857 22.3006 580.662C22.3006 580.466 22.3459 580.274 22.433 580.099C22.5202 579.924 22.6467 579.772 22.8026 579.654C22.9586 579.536 23.1397 579.456 23.3318 579.421C23.5238 579.385 23.7215 579.394 23.9094 579.448H41.4091C41.5969 579.394 41.7947 579.385 41.9867 579.421C42.1788 579.456 42.3599 579.536 42.5159 579.654C42.6718 579.772 42.7983 579.924 42.8854 580.099C42.9726 580.274 43.0179 580.466 43.0179 580.662C43.0179 580.857 42.9726 581.05 42.8854 581.224C42.7983 581.399 42.6718 581.551 42.5159 581.669C42.3599 581.787 42.1788 581.867 41.9867 581.902C41.7947 581.938 41.5969 581.929 41.4091 581.875Z" fill="white"/>
<path d="M164.102 248.749C158.713 246.565 152.961 243.895 147.864 243.895C133.18 243.895 126.918 261.103 123.859 272.681C115.826 303.117 112.816 335.398 107.743 366.563C107.743 366.563 171.043 393.941 192.426 379.645L210.654 309.573L309.561 324.136C309.561 324.136 311.721 304.112 312.886 296.685C312.886 296.685 184.417 255.06 170.048 250.933C168.131 250.327 166.14 249.574 164.102 248.749Z" fill="#00B3C7"/>
<path d="M185.655 268.943L178.859 275.302L182.402 278.603L166.043 341.199L179.878 357.922L189.635 344.257L186.019 278.797L190.145 276.054L185.655 268.943Z" fill="white"/>
<path d="M176.286 248.093C160.17 250.52 155.388 222.753 155.121 210.836C154.962 208.215 155.299 205.588 156.116 203.093C157.148 200.783 158.664 198.721 160.56 197.046C162.457 195.371 164.691 194.123 167.111 193.385C171.886 191.957 176.751 190.855 181.674 190.084C192.74 187.699 203.01 182.518 211.504 175.035C214.368 172.608 217.669 169.526 221.431 170.181C222.65 170.487 223.783 171.065 224.746 171.872C225.709 172.679 226.476 173.695 226.989 174.841C228.252 177.461 228.821 180.361 228.643 183.263C228.465 186.166 227.544 188.974 225.97 191.419C222.79 196.613 217.863 199.258 212.839 202.171C215.266 206.079 216.407 207.025 215.266 211.516C214.042 215.615 212.093 219.462 209.514 222.875C206.737 226.403 203.694 229.714 200.412 232.777C193.689 239.622 187.014 245.981 177.063 247.923C176.809 248.002 176.549 248.058 176.286 248.093Z" fill="white"/>
<path d="M174.296 249.477C171.188 249.472 168.188 248.343 165.849 246.297C156.844 238.749 154.102 219.817 153.907 210.861C153.75 208.084 154.113 205.302 154.975 202.657C156.094 200.213 157.717 198.032 159.737 196.259C161.757 194.485 164.13 193.159 166.699 192.366C170.036 191.264 173.463 190.452 176.941 189.939C178.47 189.648 179.999 189.381 181.528 189.065C192.381 186.698 202.453 181.612 210.8 174.284C213.858 171.59 217.499 168.41 221.746 169.187C223.115 169.514 224.392 170.143 225.484 171.03C226.576 171.916 227.456 173.037 228.057 174.308C229.416 177.116 230.033 180.225 229.851 183.34C229.668 186.454 228.691 189.469 227.013 192.099C223.827 196.638 219.521 200.275 214.513 202.657C214.592 202.753 214.657 202.859 214.708 202.973C215.736 204.184 216.438 205.638 216.748 207.197C217.058 208.756 216.966 210.368 216.479 211.881C215.183 216.115 213.172 220.096 210.533 223.652C208.326 226.492 205.891 229.146 203.251 231.589L201.188 233.676C193.907 240.958 187.257 247.196 177.208 249.186L176.359 249.331C175.674 249.421 174.986 249.47 174.296 249.477ZM220.436 171.468C217.644 171.468 214.95 173.896 212.572 175.934C203.879 183.608 193.368 188.931 182.038 191.395C180.485 191.735 178.931 192.026 177.354 192.293C174.055 192.827 170.807 193.639 167.645 194.721C165.4 195.386 163.323 196.522 161.553 198.054C159.782 199.586 158.359 201.478 157.378 203.604C156.611 205.95 156.298 208.422 156.456 210.885C156.674 220.861 159.805 238.021 167.524 244.501C168.697 245.532 170.088 246.285 171.592 246.705C173.096 247.125 174.675 247.201 176.213 246.929L176.965 246.783C186.334 244.963 192.79 238.992 199.684 231.977L201.795 229.866C204.295 227.507 206.601 224.95 208.688 222.22C211.107 218.896 212.945 215.187 214.125 211.249C214.95 207.9 214.368 206.978 212.669 204.211L211.795 202.827C211.73 202.678 211.697 202.517 211.697 202.354C211.697 202.191 211.73 202.03 211.795 201.881C211.828 201.725 211.895 201.58 211.992 201.454C212.089 201.328 212.212 201.225 212.353 201.152L213.154 200.691C217.814 197.997 222.207 195.473 225.047 190.813C226.507 188.548 227.365 185.949 227.539 183.26C227.713 180.571 227.198 177.883 226.042 175.449C225.611 174.497 224.973 173.653 224.176 172.977C223.378 172.301 222.441 171.811 221.431 171.541C221.102 171.486 220.769 171.461 220.436 171.468Z" fill="#374361"/>
<path d="M213.009 224.938C213.009 224.938 218.955 236.807 217.183 238.919C215.411 241.03 210.581 238.919 210.581 238.919" fill="white"/>
<path d="M214.659 241.055C213.088 240.985 211.542 240.631 210.096 240.011C209.8 239.882 209.567 239.641 209.449 239.341C209.33 239.04 209.336 238.705 209.465 238.409C209.594 238.113 209.835 237.88 210.135 237.762C210.436 237.643 210.771 237.649 211.067 237.778C212.669 238.482 215.436 239.064 216.261 238.118C217.086 237.171 214.78 231.176 211.916 225.472C211.779 225.185 211.758 224.855 211.857 224.552C211.956 224.249 212.169 223.996 212.45 223.846C212.594 223.776 212.75 223.734 212.909 223.724C213.068 223.714 213.228 223.736 213.379 223.788C213.53 223.839 213.67 223.921 213.789 224.026C213.909 224.132 214.007 224.261 214.077 224.404C216.504 229.089 220.096 237.341 218.106 239.695C217.666 240.161 217.129 240.524 216.534 240.758C215.938 240.993 215.298 241.094 214.659 241.055Z" fill="#374361"/>
<path d="M213.64 200.448C217.814 204.793 215.072 222.292 214.416 227.559C213.478 234.873 212.378 242.155 211.115 249.404C210.29 254.015 198.3 252.68 196.334 251.03L196.019 269.549C196.019 269.549 190.072 270.447 180.946 264.695C171.82 258.942 171.99 256.758 171.99 256.758L175.315 235.739C175.315 235.739 183.252 236.758 189.053 227.875C194.854 218.991 196.334 204.477 196.334 204.477C196.334 204.477 209.586 196.225 213.64 200.448Z" fill="white"/>
<path d="M195.023 270.788C189.769 270.545 184.682 268.866 180.315 265.933C171.48 260.497 170.606 257.778 170.776 256.856L174.126 235.74C174.174 235.426 174.343 235.143 174.597 234.952C174.851 234.762 175.17 234.678 175.485 234.72C175.752 234.72 182.766 235.473 188.033 227.439C193.64 218.92 195.315 204.696 195.315 204.551C195.339 204.37 195.401 204.197 195.497 204.042C195.593 203.887 195.722 203.754 195.873 203.653C197.305 202.755 209.999 194.939 214.611 199.745C218.373 203.653 217.377 215.449 215.897 226.444L215.703 227.827C214.78 235.109 213.664 242.39 212.402 249.671C212.204 250.483 211.786 251.224 211.196 251.815C210.605 252.406 209.864 252.823 209.052 253.021C205.283 254.023 201.31 253.964 197.572 252.851L197.281 269.55C197.279 269.837 197.175 270.113 196.989 270.331C196.802 270.549 196.544 270.693 196.261 270.739C196.261 270.739 195.752 270.788 195.023 270.788ZM173.179 256.807C173.349 257.244 174.563 259.429 181.528 263.749C185.466 266.419 190.036 268.01 194.781 268.361L195.072 250.982C195.08 250.754 195.153 250.532 195.282 250.343C195.411 250.154 195.59 250.006 195.8 249.914C196.008 249.815 196.24 249.778 196.469 249.808C196.697 249.838 196.912 249.934 197.086 250.084C200.594 251.481 204.458 251.71 208.106 250.739C209.149 250.351 209.756 249.817 209.853 249.186C211.115 241.905 212.28 234.623 213.154 227.342L213.348 225.934C214.052 220.691 216.164 204.794 212.717 201.226C210.29 198.798 202.353 202.245 197.523 205.206C197.159 208.07 195.339 220.449 190.024 228.531C188.615 230.963 186.625 233.008 184.231 234.482C181.838 235.957 179.116 236.814 176.31 236.977L173.179 256.807Z" fill="#374361"/>
<path d="M211.479 243.919C209.421 244.085 207.371 243.507 205.701 242.292C204.032 241.076 202.852 239.303 202.378 237.293" fill="white"/>
<path d="M210.824 245.229C208.633 245.191 206.515 244.434 204.796 243.074C203.077 241.715 201.852 239.829 201.31 237.705C201.213 237.383 201.248 237.036 201.408 236.74C201.567 236.444 201.837 236.224 202.159 236.127C202.481 236.031 202.828 236.066 203.124 236.225C203.42 236.385 203.64 236.655 203.737 236.977C204.121 238.711 205.112 240.252 206.532 241.32C207.952 242.388 209.706 242.914 211.479 242.802C211.639 242.782 211.801 242.793 211.956 242.836C212.111 242.879 212.256 242.952 212.383 243.052C212.509 243.151 212.614 243.275 212.693 243.415C212.771 243.556 212.821 243.71 212.839 243.87C212.874 244.187 212.785 244.506 212.59 244.759C212.396 245.013 212.111 245.181 211.795 245.229H210.824Z" fill="#374361"/>
<path d="M198.421 227.948C198.442 226.093 197.946 224.27 196.989 222.681C196.427 221.359 195.666 220.132 194.732 219.04C194.263 218.499 193.681 218.069 193.026 217.779C192.372 217.489 191.661 217.348 190.946 217.366C190.318 217.447 189.715 217.659 189.175 217.99C188.636 218.32 188.172 218.761 187.815 219.283C187.102 220.339 186.637 221.542 186.456 222.802C186.012 225.541 186.297 228.349 187.281 230.943C188.265 233.538 189.914 235.828 192.062 237.584L191.722 237.098" fill="white"/>
<path d="M192.062 238.797C191.789 238.794 191.524 238.7 191.31 238.53C189.005 236.627 187.239 234.154 186.187 231.356C185.135 228.559 184.834 225.534 185.315 222.584C185.521 221.148 186.053 219.779 186.868 218.579C187.327 217.91 187.925 217.348 188.62 216.929C189.315 216.51 190.091 216.245 190.897 216.152C191.81 216.101 192.723 216.261 193.565 216.619C194.406 216.976 195.154 217.522 195.752 218.215C196.752 219.397 197.57 220.723 198.179 222.147C199.247 223.934 199.785 225.988 199.732 228.069C199.697 228.391 199.535 228.686 199.282 228.888C199.03 229.091 198.707 229.185 198.385 229.149C198.063 229.114 197.769 228.952 197.566 228.7C197.363 228.447 197.27 228.124 197.305 227.802C197.291 226.18 196.829 224.592 195.97 223.215C195.451 222.009 194.764 220.881 193.931 219.866C193.581 219.463 193.149 219.139 192.663 218.917C192.177 218.695 191.65 218.58 191.116 218.579C190.66 218.647 190.224 218.81 189.836 219.056C189.447 219.303 189.114 219.628 188.858 220.011C188.258 220.917 187.869 221.945 187.718 223.021C187.338 225.361 187.536 227.757 188.293 230.003C189.05 232.249 190.344 234.277 192.062 235.909C192.338 235.987 192.578 236.159 192.742 236.394L193.106 236.856C193.281 237.094 193.364 237.389 193.337 237.684C193.31 237.979 193.176 238.254 192.96 238.458C192.717 238.685 192.395 238.807 192.062 238.797Z" fill="#374361"/>
<path d="M196.334 251.006C192.907 249.434 190.008 246.905 187.985 243.724C187.985 243.724 187.062 254.889 196.188 259.258L196.334 251.006Z" fill="#374361"/>
<path d="M196.188 260.472C196.02 260.505 195.847 260.505 195.679 260.472C185.97 255.812 186.723 244.234 186.771 243.749C186.792 243.486 186.899 243.237 187.074 243.04C187.249 242.843 187.483 242.708 187.742 242.656C188 242.597 188.27 242.628 188.508 242.742C188.746 242.857 188.938 243.049 189.053 243.288C190.996 246.188 193.723 248.477 196.917 249.889C197.133 249.989 197.315 250.151 197.44 250.354C197.565 250.557 197.628 250.792 197.62 251.03L197.475 259.282C197.474 259.485 197.423 259.685 197.326 259.863C197.228 260.041 197.087 260.192 196.917 260.302C196.693 260.421 196.442 260.479 196.188 260.472ZM189.392 247.656C189.63 249.55 190.252 251.375 191.22 253.019C192.189 254.664 193.483 256.093 195.023 257.219V251.783C192.961 250.681 191.065 249.291 189.392 247.656Z" fill="#374361"/>
<path d="M209.692 218.785C210.097 217.396 209.977 216.138 209.424 215.977C208.871 215.815 208.094 216.811 207.688 218.201C207.283 219.591 207.403 220.848 207.956 221.01C208.51 221.171 209.287 220.175 209.692 218.785Z" fill="#374361"/>
<path d="M208.882 318.991C208.762 319.014 208.639 319.014 208.518 318.991C208.212 318.89 207.957 318.675 207.807 318.389C207.658 318.103 207.625 317.771 207.717 317.462C207.717 317.292 213.397 299.355 214.999 292.559C215.076 292.237 215.278 291.959 215.56 291.786C215.842 291.613 216.182 291.56 216.504 291.637C216.826 291.714 217.104 291.916 217.276 292.198C217.449 292.48 217.503 292.82 217.426 293.142C215.751 300.011 210.29 317.413 210.145 318.19C210.054 318.445 209.88 318.663 209.651 318.808C209.423 318.953 209.152 319.017 208.882 318.991Z" fill="#374361"/>
<path d="M107.889 397.775C107.584 397.777 107.29 397.667 107.061 397.466C106.833 397.264 106.687 396.985 106.651 396.683C106.609 396.355 106.698 396.024 106.897 395.761C107.097 395.498 107.392 395.323 107.719 395.275C111.717 394.666 115.457 392.925 118.498 390.259C121.539 387.592 123.753 384.111 124.879 380.227C124.909 380.054 124.975 379.89 125.072 379.744C125.17 379.598 125.297 379.474 125.444 379.38C125.592 379.286 125.758 379.224 125.931 379.198C126.105 379.171 126.282 379.181 126.451 379.227C126.62 379.272 126.778 379.353 126.914 379.463C127.051 379.573 127.163 379.71 127.243 379.866C127.324 380.022 127.371 380.193 127.382 380.367C127.392 380.542 127.367 380.718 127.306 380.882C126.062 385.26 123.586 389.188 120.174 392.2C116.762 395.212 112.557 397.181 108.059 397.872L107.889 397.775Z" fill="white"/>
<path d="M290.265 243.773C290.265 243.773 298.104 240.132 303.347 236.928C307.965 233.616 312.22 229.825 316.041 225.618V229.113C316.041 230.278 315.507 233.725 316.162 234.695C316.818 235.666 322.716 233.7 324.342 233.336C327.521 232.608 330.701 231.977 333.905 231.419C335.109 231.165 336.344 231.091 337.57 231.2C338.182 231.259 338.773 231.456 339.298 231.775C339.824 232.095 340.27 232.529 340.604 233.045C340.906 233.828 341.037 234.666 340.987 235.504C340.936 236.341 340.706 237.158 340.313 237.899C339.535 240.128 338.313 242.176 336.72 243.919C334.674 245.744 332.314 247.183 329.754 248.166L320.895 252.171C312.687 255.608 304.311 258.63 295.799 261.224" fill="white"/>
<path d="M295.847 262.462C295.525 262.501 295.201 262.41 294.946 262.21C294.691 262.01 294.527 261.716 294.488 261.395C294.449 261.073 294.54 260.749 294.74 260.494C294.941 260.239 295.234 260.074 295.556 260.035C301.721 258.53 318.298 252.026 320.458 251.055L329.293 247.026C331.721 246.106 333.958 244.749 335.895 243.021C337.374 241.394 338.513 239.488 339.245 237.414C339.574 236.842 339.774 236.204 339.833 235.546C339.892 234.888 339.807 234.226 339.584 233.604C339.342 233.25 339.025 232.954 338.656 232.736C338.287 232.518 337.875 232.383 337.449 232.342C336.35 232.249 335.244 232.331 334.172 232.584C330.992 233.118 327.788 233.749 324.657 234.477C324.318 234.477 323.759 234.72 323.104 234.939C319.026 236.201 316.284 236.905 315.192 235.327C314.591 233.781 314.456 232.094 314.803 230.473C314.833 230.036 314.833 229.598 314.803 229.162V228.628C311.537 232.111 307.908 235.235 303.978 237.948C298.735 241.152 291.09 244.696 290.774 244.841C290.631 244.91 290.476 244.95 290.317 244.958C290.159 244.966 290 244.943 289.851 244.888C289.701 244.834 289.564 244.75 289.448 244.642C289.331 244.534 289.238 244.404 289.173 244.259C289.103 244.114 289.063 243.957 289.054 243.796C289.046 243.636 289.07 243.475 289.124 243.324C289.178 243.173 289.262 243.034 289.37 242.915C289.478 242.796 289.609 242.7 289.755 242.633C289.755 242.633 297.595 238.992 302.716 235.885C307.242 232.633 311.408 228.906 315.143 224.769C315.309 224.589 315.526 224.464 315.764 224.412C316.003 224.36 316.252 224.383 316.478 224.478C316.706 224.562 316.903 224.714 317.042 224.914C317.181 225.113 317.255 225.351 317.255 225.594V229.065C317.285 229.582 317.285 230.101 317.255 230.618C317.146 231.692 317.146 232.773 317.255 233.846C319.039 233.667 320.793 233.259 322.473 232.633L324.221 232.123C327.4 231.419 330.628 230.764 333.929 230.206C335.251 229.91 336.611 229.828 337.958 229.963C338.751 230.044 339.515 230.304 340.192 230.725C340.87 231.146 341.442 231.715 341.866 232.39C342.281 233.324 342.479 234.34 342.445 235.361C342.411 236.383 342.147 237.383 341.672 238.288C340.793 240.7 339.439 242.912 337.691 244.793C335.561 246.725 333.093 248.247 330.41 249.283L321.575 253.312C313.295 256.777 304.846 259.823 296.26 262.438L295.847 262.462Z" fill="#374361"/>
<path d="M141.262 250.69C143.835 251.394 274.755 243.943 296.939 237.584L305.896 261.248C305.896 261.248 242.79 285.52 141.262 296.636C108.835 289.816 141.262 250.69 141.262 250.69Z" fill="#00B3C7"/>
<path d="M141.262 297.85C140.974 297.853 140.695 297.752 140.476 297.564C140.257 297.377 140.114 297.116 140.073 296.831C140.031 296.513 140.113 296.191 140.303 295.933C140.493 295.675 140.776 295.501 141.092 295.447C142.184 295.278 250.702 278.312 300.095 261.467C300.404 261.367 300.74 261.392 301.03 261.538C301.321 261.683 301.543 261.937 301.648 262.244C301.701 262.395 301.722 262.556 301.712 262.715C301.701 262.875 301.658 263.031 301.585 263.174C301.513 263.317 301.412 263.443 301.29 263.546C301.167 263.649 301.025 263.726 300.871 263.773C251.285 280.569 142.548 297.559 141.456 297.753L141.262 297.85Z" fill="#374361"/>
<path d="M416.234 505.712C468.874 505.712 511.548 463.038 511.548 410.398C511.548 357.757 468.874 315.083 416.234 315.083C363.593 315.083 320.92 357.757 320.92 410.398C320.92 463.038 363.593 505.712 416.234 505.712Z" fill="white"/>
<path d="M416.234 506.924C397.142 506.924 378.48 501.263 362.606 490.656C346.732 480.05 334.36 464.974 327.054 447.336C319.748 429.698 317.836 410.289 321.561 391.565C325.285 372.84 334.479 355.641 347.978 342.141C361.478 328.641 378.678 319.448 397.402 315.724C416.127 311.999 435.535 313.911 453.173 321.217C470.811 328.523 485.887 340.895 496.494 356.769C507.1 372.643 512.762 391.305 512.762 410.397C512.736 435.989 502.558 460.527 484.461 478.624C466.364 496.721 441.827 506.899 416.234 506.924ZM416.234 316.296C397.622 316.296 379.429 321.815 363.954 332.155C348.479 342.495 336.418 357.191 329.296 374.386C322.174 391.58 320.31 410.501 323.941 428.755C327.572 447.008 336.534 463.776 349.695 476.936C362.855 490.096 379.622 499.058 397.876 502.689C416.129 506.32 435.05 504.456 452.244 497.334C469.439 490.212 484.136 478.151 494.476 462.676C504.815 447.201 510.334 429.008 510.334 410.397C510.302 385.449 500.378 361.533 482.737 343.893C465.097 326.253 441.181 316.328 416.234 316.296Z" fill="#DCDEE4"/>
<path d="M339.584 309.865C341.139 310.043 342.629 310.587 343.932 311.451C345.236 312.316 346.316 313.478 347.084 314.841C347.795 316.233 347.982 317.834 347.613 319.353C347.243 320.871 346.341 322.207 345.07 323.117C343.32 323.987 341.349 324.308 339.415 324.039C335.288 323.748 323.808 322.001 324.342 316.03C324.876 310.447 335.58 309.282 339.584 309.865Z" fill="white"/>
<path d="M340.847 325.325H339.317C338.201 325.325 328.177 324.451 324.512 320.131C324.009 319.571 323.629 318.913 323.395 318.199C323.161 317.484 323.078 316.729 323.153 315.98C323.239 315.149 323.5 314.346 323.919 313.622C324.337 312.899 324.903 312.272 325.58 311.782C329.439 308.748 336.696 308.311 339.73 308.748C341.481 308.946 343.16 309.561 344.625 310.54C346.09 311.52 347.3 312.836 348.152 314.379C348.997 316.039 349.216 317.948 348.771 319.757C348.325 321.566 347.244 323.154 345.725 324.233C344.233 325.046 342.543 325.425 340.847 325.325ZM337.4 310.981C333.786 310.848 330.211 311.767 327.109 313.626C326.7 313.906 326.352 314.265 326.085 314.682C325.819 315.099 325.638 315.565 325.555 316.053C325.508 316.492 325.554 316.935 325.693 317.354C325.831 317.773 326.057 318.157 326.356 318.48C328.784 321.393 336.065 322.582 339.487 322.825C341.142 323.062 342.83 322.809 344.342 322.097C345.35 321.338 346.059 320.248 346.343 319.018C346.627 317.789 346.468 316.498 345.895 315.374C345.215 314.19 344.264 313.184 343.121 312.437C341.978 311.691 340.675 311.225 339.317 311.078C338.682 310.987 338.041 310.947 337.4 310.956V310.981Z" fill="#374361"/>
<path d="M551.863 251.273C553.366 247.012 556.072 243.277 559.654 240.521C562.809 238.385 565.382 238.919 568.877 238.822C570.236 238.822 571.304 240.473 572.615 240.303C573.926 240.133 575.94 237.876 577.275 237.075C580.85 235.093 584.835 233.963 588.919 233.773C593.003 233.584 597.075 234.34 600.818 235.982C605.769 238.68 610.279 242.117 614.192 246.176C632.371 262.827 654.895 277.487 679.555 276.492C667.565 298.579 649.119 317.753 625.939 327.462C614.641 332.145 602.456 334.307 590.236 333.797C580.527 333.36 562.639 331.539 556.669 322.753C551.062 314.452 548.659 298.821 547.397 289.064C545.498 276.294 547.039 263.249 551.863 251.273Z" fill="white"/>
<path d="M593.828 335.034C592.615 335.034 591.401 335.034 590.187 335.034C577.639 334.476 561.474 332.025 555.673 323.432C550.091 315.204 547.591 299.986 546.183 289.234C544.3 276.296 545.874 263.09 550.746 250.958C552.367 246.494 555.22 242.58 558.974 239.672C561.347 238.158 564.158 237.483 566.96 237.754C567.566 237.754 568.173 237.754 568.829 237.754C569.716 237.809 570.565 238.14 571.256 238.701C571.693 239.016 572.13 239.283 572.372 239.235C573.204 238.879 573.955 238.359 574.581 237.706C575.2 237.102 575.893 236.58 576.644 236.152C580.372 234.064 584.536 232.875 588.805 232.681C593.074 232.487 597.329 233.294 601.231 235.036C605.907 237.523 610.172 240.716 613.876 244.502L614.896 245.424C637.832 266.443 658.876 276.273 679.41 275.448C679.622 275.429 679.836 275.471 680.025 275.57C680.215 275.669 680.372 275.82 680.477 276.006C680.584 276.19 680.64 276.4 680.64 276.613C680.64 276.826 680.584 277.035 680.477 277.22C667.589 301.054 648.366 319.331 626.522 328.457C616.16 332.77 605.052 335.005 593.828 335.034ZM552.979 251.759C548.272 263.492 546.756 276.263 548.586 288.773C549.945 299.282 552.373 314.136 557.664 321.952C561.766 327.971 573.343 331.66 590.285 332.461C602.33 332.968 614.341 330.839 625.478 326.224C646.327 317.559 664.725 300.375 677.468 277.681H677.152C656.764 277.681 635.891 267.632 613.367 247.002L612.347 246.055C608.781 242.443 604.69 239.391 600.212 237.002C596.64 235.418 592.747 234.692 588.844 234.882C584.942 235.072 581.138 236.171 577.736 238.094C577.167 238.438 576.637 238.845 576.159 239.307C575.225 240.326 574.022 241.059 572.688 241.419C571.674 241.477 570.676 241.147 569.897 240.497C569.484 240.205 569.071 239.817 568.804 239.938H566.863C564.542 239.655 562.194 240.177 560.212 241.419C556.821 244.034 554.287 247.6 552.931 251.662L552.979 251.759Z" fill="#374361"/>
<path d="M643.828 298.626C624.629 281.49 565.503 287.461 552.712 312.267C539.921 337.072 586.013 411.78 586.013 411.78L674.919 394.45C674.919 394.45 663.051 315.738 643.828 298.626Z" fill="#00B3C7"/>
<path d="M577.566 320.932C581.377 342.606 607.25 407.678 607.25 407.678L631.109 403.042L604.411 309.548C604.411 309.548 598.1 307.558 577.566 320.932Z" fill="#374361"/>
<path d="M576.037 304.549L578.464 321.539C578.464 321.539 581.814 329.015 592.833 324.719C603.852 320.423 604.459 312.365 604.459 312.365L598.755 280.812C598.755 280.812 579.605 273.749 579.629 255.06C577.963 259.609 574.939 263.536 570.967 266.311C566.995 269.085 562.266 270.571 557.421 270.569C558.422 278.997 559.946 287.354 561.984 295.593C564.581 304.209 576.037 304.549 576.037 304.549Z" fill="white"/>
<path d="M586.595 327.316C584.728 327.39 582.877 326.94 581.252 326.018C579.626 325.096 578.291 323.738 577.396 322.097C577.386 321.984 577.386 321.87 577.396 321.757L574.969 305.69C571.935 305.374 563.149 303.797 560.819 295.981C558.75 287.674 557.218 279.243 556.232 270.739C556.204 270.569 556.216 270.396 556.267 270.231C556.317 270.067 556.405 269.917 556.523 269.792C556.633 269.662 556.771 269.557 556.926 269.486C557.081 269.415 557.25 269.378 557.421 269.38C562.003 269.423 566.486 268.046 570.254 265.438C574.022 262.831 576.89 259.12 578.464 254.817C578.544 254.537 578.725 254.298 578.972 254.145C579.219 253.993 579.514 253.938 579.799 253.991C580.087 254.032 580.35 254.174 580.542 254.393C580.733 254.611 580.84 254.89 580.843 255.181C580.843 272.778 598.998 279.743 599.168 279.792C599.365 279.867 599.54 279.991 599.676 280.152C599.812 280.314 599.905 280.507 599.945 280.714L605.673 312.267C605.685 312.364 605.685 312.462 605.673 312.558C605.673 312.923 604.872 321.442 593.27 325.981C591.145 326.828 588.883 327.28 586.595 327.316ZM579.678 321.223C580.163 322.146 583.343 327.17 592.421 323.651C601.498 320.131 603.124 313.529 603.27 312.461L597.712 281.637C594.581 280.277 581.207 273.676 578.804 259.501C576.765 263.042 573.865 266.01 570.373 268.132C566.882 270.253 562.911 271.459 558.829 271.637C559.786 279.559 561.237 287.414 563.173 295.156C565.455 302.874 575.989 303.263 576.086 303.263C576.372 303.271 576.646 303.381 576.859 303.572C577.072 303.763 577.211 304.023 577.251 304.306L579.678 321.223Z" fill="#374361"/>
<path d="M593.27 280.617C594.314 270.908 609.629 270.908 606.547 282.146C606.233 283.352 605.685 284.484 604.933 285.478C604.181 286.472 603.24 287.307 602.164 287.936C601.088 288.565 599.899 288.976 598.664 289.144C597.43 289.313 596.174 289.236 594.969 288.918" fill="white"/>
<path d="M597.396 290.569C596.46 290.57 595.529 290.44 594.629 290.18C594.324 290.085 594.067 289.875 593.913 289.594C593.76 289.313 593.72 288.984 593.804 288.675C593.846 288.521 593.918 288.376 594.017 288.25C594.116 288.124 594.24 288.019 594.381 287.942C594.521 287.865 594.676 287.817 594.835 287.801C594.995 287.785 595.156 287.802 595.309 287.85C596.286 288.127 597.308 288.208 598.316 288.087C599.325 287.966 600.299 287.647 601.183 287.146C603.213 285.991 604.704 284.08 605.333 281.831C605.911 280.899 606.156 279.799 606.03 278.71C605.903 277.621 605.411 276.607 604.634 275.833C603.858 275.059 602.842 274.571 601.752 274.448C600.663 274.325 599.564 274.575 598.634 275.156C597.47 275.585 596.453 276.338 595.704 277.328C594.955 278.318 594.506 279.501 594.411 280.739C594.396 280.898 594.349 281.053 594.274 281.195C594.198 281.336 594.095 281.462 593.971 281.563C593.847 281.665 593.704 281.741 593.55 281.787C593.397 281.833 593.235 281.848 593.076 281.831C592.758 281.794 592.467 281.633 592.267 281.383C592.067 281.133 591.974 280.814 592.008 280.496C592.152 278.816 592.768 277.211 593.786 275.866C594.804 274.522 596.182 273.493 597.76 272.899C599.108 272.333 600.585 272.147 602.031 272.361C603.478 272.575 604.838 273.181 605.964 274.112C607.036 275.184 607.768 276.547 608.07 278.031C608.372 279.516 608.231 281.057 607.663 282.462C607.273 283.887 606.604 285.222 605.696 286.388C604.788 287.554 603.658 288.53 602.372 289.258C600.854 290.117 599.14 290.569 597.396 290.569Z" fill="#374361"/>
<path d="M572.518 277.947C572.518 277.947 567.397 287.486 568.974 288.893C570.552 290.301 574.46 288.893 574.46 288.893" fill="white"/>
<path d="M571.134 290.738C570.064 290.803 569.008 290.466 568.173 289.791C566.644 288.432 567.761 284.258 571.45 277.364C571.613 277.104 571.869 276.915 572.166 276.836C572.463 276.756 572.779 276.793 573.05 276.938C573.322 277.083 573.528 277.325 573.627 277.616C573.726 277.907 573.712 278.225 573.586 278.505C571.329 282.728 569.63 287.219 569.921 288.214C570.455 288.651 572.688 288.214 574.023 287.801C574.325 287.689 574.66 287.701 574.954 287.835C575.247 287.969 575.476 288.215 575.588 288.517C575.701 288.82 575.689 289.155 575.554 289.448C575.42 289.742 575.175 289.97 574.872 290.083C573.669 290.499 572.407 290.721 571.134 290.738Z" fill="#374361"/>
<path d="M579.907 273.466C580.722 273.402 581.31 272.418 581.219 271.269C581.129 270.12 580.395 269.24 579.58 269.304C578.765 269.368 578.177 270.352 578.267 271.501C578.357 272.65 579.092 273.53 579.907 273.466Z" fill="#374361"/>
<path d="M567.369 277.758C568.184 277.694 568.772 276.71 568.682 275.561C568.591 274.412 567.857 273.532 567.042 273.596C566.227 273.66 565.639 274.644 565.73 275.793C565.82 276.942 566.554 277.822 567.369 277.758Z" fill="#374361"/>
<path d="M573.707 297.656C572.619 297.662 571.535 297.531 570.479 297.267C570.169 297.177 569.907 296.969 569.748 296.688C569.59 296.406 569.547 296.074 569.63 295.762C569.725 295.456 569.934 295.198 570.214 295.04C570.494 294.882 570.823 294.837 571.135 294.913C573.543 295.531 576.098 295.201 578.27 293.991C579.326 293.199 580.198 292.188 580.827 291.027C581.455 289.867 581.825 288.584 581.911 287.267C581.965 286.951 582.139 286.669 582.397 286.478C582.655 286.288 582.977 286.206 583.295 286.248C583.452 286.272 583.604 286.326 583.741 286.409C583.877 286.491 583.997 286.6 584.091 286.728C584.186 286.857 584.254 287.003 584.293 287.158C584.331 287.313 584.338 287.474 584.314 287.631C584.187 289.292 583.698 290.905 582.88 292.356C582.063 293.807 580.936 295.061 579.581 296.029C577.822 297.129 575.781 297.694 573.707 297.656Z" fill="#374361"/>
<path d="M576.037 304.549C576.037 304.549 584.872 303.093 588.561 300.01C588.561 300.01 586.838 310.641 577.688 314.768L576.037 304.549Z" fill="#374361"/>
<path d="M577.688 315.98C577.402 315.973 577.128 315.868 576.911 315.682C576.695 315.497 576.549 315.242 576.498 314.961L574.848 304.742C574.799 304.427 574.876 304.106 575.062 303.847C575.248 303.588 575.529 303.413 575.843 303.359C575.843 303.359 584.387 301.903 587.785 299.063C587.976 298.906 588.21 298.812 588.457 298.792C588.703 298.772 588.949 298.828 589.163 298.952C589.377 299.076 589.548 299.262 589.653 299.486C589.758 299.71 589.792 299.96 589.751 300.204C589.751 300.665 587.809 311.514 578.197 315.883C578.036 315.95 577.863 315.983 577.688 315.98ZM577.421 305.519L578.61 312.946C582.388 310.544 585.205 306.894 586.571 302.631C583.645 303.951 580.574 304.92 577.421 305.519Z" fill="#374361"/>
<path d="M622.105 315.471C605.115 335.276 592.251 359.887 580.528 362.63C568.804 365.373 509.121 362.63 509.121 362.63C509.121 362.63 499.194 351.781 495.092 351.465C490.99 351.15 496.524 358.286 499.412 363.844C499.412 363.844 477.786 361.417 477.689 369.45C477.471 384.936 486.281 381.586 497.276 383.576C508.271 385.567 594.823 394.062 605.042 385.858C615.26 377.654 646.425 336.538 647.298 335.398C657.323 322.412 639.143 295.641 622.105 315.471Z" fill="white"/>
<path d="M577.421 390.47C550.555 390.011 523.735 388.075 497.082 384.669C494.898 384.305 492.81 384.135 490.796 383.965C483.078 383.359 476.379 382.825 476.573 369.403C476.58 368.672 476.744 367.951 477.054 367.29C477.364 366.628 477.812 366.041 478.369 365.568C482.446 361.975 492.932 362.218 497.446 362.509L496.014 360.082C493.296 355.568 491.815 352.801 492.835 351.272C493.094 350.885 493.466 350.587 493.9 350.418C494.334 350.249 494.809 350.216 495.262 350.325C499.388 350.616 507.762 359.403 509.825 361.49C515.383 361.733 569.581 364.039 580.479 361.49C587.76 359.791 595.891 348.65 605.26 335.738C610.357 328.748 615.6 321.515 621.474 314.695C628.609 306.418 637.032 304.986 644.046 310.593C651.061 316.199 654.337 328.335 648.391 336.029L648.027 336.515C640.454 346.442 615.042 379.378 605.964 386.684C602.251 389.475 591.256 390.47 577.421 390.47ZM492.859 364.621C488.005 364.621 482.228 365.179 479.849 367.291C479.523 367.556 479.259 367.888 479.074 368.265C478.89 368.643 478.79 369.056 478.781 369.475C478.636 380.762 483.272 381.15 490.917 381.757C492.883 381.902 495.116 382.097 497.422 382.485C508.684 384.427 594.508 392.8 604.217 384.912C613.1 377.776 638.367 345.01 645.891 335.155L646.279 334.646C651.449 327.923 648.439 317.292 642.274 312.292C639.41 309.865 631.789 305.666 622.857 316.102C617.032 322.874 611.814 330.058 606.741 337.024C597.032 350.277 588.78 361.733 580.673 363.723C568.926 366.466 511.402 363.869 508.975 363.723C508.828 363.719 508.682 363.685 508.549 363.622C508.415 363.56 508.296 363.47 508.199 363.359C504.485 359.306 497.568 352.777 494.898 352.582C494.77 352.552 494.637 352.552 494.509 352.582C495.349 354.843 496.457 356.994 497.81 358.99C498.684 360.422 499.558 361.903 500.237 363.31C500.343 363.477 500.399 363.671 500.399 363.869C500.399 364.066 500.343 364.26 500.237 364.427C500.13 364.595 499.977 364.73 499.797 364.815C499.617 364.901 499.416 364.935 499.218 364.912C497.883 364.791 495.456 364.621 492.859 364.621Z" fill="#374361"/>
<path d="M568.27 332.607C567.973 332.606 567.681 332.533 567.418 332.393C567.156 332.254 566.932 332.052 566.766 331.806C564.824 329.039 569.193 316.175 571.11 310.787C571.16 310.651 571.235 310.527 571.333 310.421C571.43 310.314 571.548 310.228 571.678 310.168C571.809 310.107 571.951 310.072 572.095 310.066C572.239 310.06 572.382 310.082 572.518 310.131C572.653 310.181 572.778 310.256 572.884 310.354C572.99 310.451 573.076 310.569 573.137 310.7C573.198 310.83 573.233 310.972 573.239 311.116C573.245 311.26 573.223 311.404 573.173 311.539C570.358 319.33 567.882 328.529 568.513 330.374C571.413 329.663 574.106 328.283 576.377 326.345C576.492 326.252 576.624 326.183 576.765 326.142C576.906 326.1 577.055 326.087 577.201 326.103C577.348 326.119 577.49 326.163 577.619 326.234C577.748 326.304 577.862 326.4 577.955 326.515C578.047 326.629 578.116 326.761 578.158 326.903C578.199 327.044 578.212 327.192 578.197 327.339C578.181 327.485 578.136 327.627 578.066 327.756C577.995 327.886 577.9 328 577.785 328.092C577.081 328.481 571.935 332.607 568.27 332.607Z" fill="#374361"/>
<path d="M610.43 316.199C610.158 316.186 609.901 316.074 609.707 315.884C609.512 315.695 609.393 315.44 609.372 315.169C609.351 314.899 609.43 314.629 609.593 314.412C609.757 314.195 609.994 314.045 610.26 313.99C611.838 313.748 616.182 312.655 617.541 310.495C617.857 309.985 617.153 308.262 608.78 302.655C607.854 302.1 606.977 301.466 606.158 300.762C605.949 300.553 605.832 300.269 605.832 299.973C605.832 299.678 605.949 299.394 606.158 299.185C606.26 299.082 606.381 299 606.514 298.945C606.647 298.889 606.79 298.86 606.935 298.86C607.079 298.86 607.222 298.889 607.356 298.945C607.489 299 607.61 299.082 607.712 299.185C607.93 299.379 608.998 300.107 609.945 300.738C615.94 304.743 621.182 308.602 619.362 311.587C617.226 315.058 610.818 316.078 610.551 316.126L610.43 316.199Z" fill="#374361"/>
<path d="M230.751 585.297H217.086C216.898 585.351 216.701 585.36 216.509 585.324C216.317 585.289 216.135 585.209 215.979 585.091C215.824 584.973 215.697 584.821 215.61 584.646C215.523 584.472 215.477 584.279 215.477 584.084C215.477 583.888 215.523 583.696 215.61 583.521C215.697 583.346 215.824 583.194 215.979 583.076C216.135 582.958 216.317 582.878 216.509 582.843C216.701 582.807 216.898 582.816 217.086 582.87H230.751C231.015 582.945 231.247 583.104 231.412 583.323C231.577 583.542 231.667 583.809 231.667 584.084C231.667 584.358 231.577 584.625 231.412 584.844C231.247 585.063 231.015 585.222 230.751 585.297Z" fill="white"/>
<path d="M765.622 562.967C765.409 562.97 765.198 562.918 765.011 562.816C764.824 562.714 764.667 562.566 764.554 562.385C760.549 556.05 666.546 407.169 665.162 404.402C665.04 404.106 665.035 403.775 665.148 403.476C665.261 403.177 665.483 402.932 665.77 402.79C666.056 402.648 666.386 402.62 666.692 402.712C666.998 402.804 667.258 403.009 667.419 403.285C668.706 405.712 732.952 507.653 766.69 561.05C766.778 561.19 766.837 561.345 766.864 561.508C766.891 561.671 766.885 561.838 766.847 561.999C766.808 562.159 766.738 562.31 766.64 562.443C766.542 562.576 766.419 562.689 766.277 562.773C766.08 562.896 765.854 562.963 765.622 562.967Z" fill="white"/>
</svg>
