<?xml version="1.0" encoding="utf-8"?>
<!-- Generator: Adobe Illustrator 25.3.1, SVG Export Plug-In . SVG Version: 6.00 Build 0)  -->
<svg version="1.1" xmlns="http://www.w3.org/2000/svg" xmlns:xlink="http://www.w3.org/1999/xlink" x="0px" y="0px"
	 viewBox="0 0 1707.5 991.73" style="enable-background:new 0 0 1707.5 991.73;" xml:space="preserve">
<style type="text/css">
	.st0{opacity:0.8;}
	.st1{opacity:0.8;fill:#FFFFFF;enable-background:new    ;}
	.st2{fill:#FFFFFF;}
	.st3{fill:none;}
	.st4{opacity:0.5;fill:#FFFFFF;enable-background:new    ;}
	.st5{opacity:0.14;}
	.st6{opacity:0.47;fill:#FFFFFF;enable-background:new    ;}
	.st7{opacity:0.56;}
	.st8{opacity:0.57;fill:#FFFFFF;enable-background:new    ;}
	.st9{opacity:0.5;fill:#A3A3A3;enable-background:new    ;}
	.st10{fill:#398785;}
	.st11{fill:#63C0C4;}
	.st12{fill:#53ADAD;}
	.st13{fill:#9CE5E5;}
	.st14{opacity:0.64;}
	.st15{fill:#004944;}
	.st16{fill:#AFD8D6;}
	.st17{fill:#C1EAE9;}
	.st18{fill:#1A706C;}
	.st19{opacity:0.85;fill:#F4F4F4;enable-background:new    ;}
	.st20{fill:#3DBFC9;}
	.st21{opacity:0.5;}
	.st22{fill:#A3A3A3;}
	.st23{fill:#C6C6C6;}
	.st24{opacity:0.61;fill:#D7FCFF;enable-background:new    ;}
	.st25{opacity:0.7;fill:#FFFFFF;enable-background:new    ;}
	.st26{fill:#053C5E;}
	.st27{fill:#212B53;}
	.st28{fill:#0F5D84;}
	.st29{opacity:0.35;}
	.st30{fill:#D4FFFF;}
	.st31{opacity:0.28;fill:#33B3C4;enable-background:new    ;}
	.st32{fill:#1F6864;}
	.st33{fill:#E9FFFF;}
	.st34{fill:#99E0DE;}
	.st35{opacity:0.5;fill:#6B9B9B;enable-background:new    ;}
	.st36{opacity:0.26;fill:#218C9D;enable-background:new    ;}
	.st37{opacity:0.31;fill:#0F6B93;enable-background:new    ;}
	.st38{opacity:0.55;fill:#0F6B93;enable-background:new    ;}
	.st39{opacity:0.94;fill:#0F6B93;enable-background:new    ;}
	.st40{fill:#45D4CE;}
	.st41{fill:#34BBB4;}
	.st42{fill:#6AEEE0;}
	.st43{fill:#92FFF2;}
	.st44{fill:#ACFFFE;}
	.st45{fill:#C8FFFF;}
	.st46{fill:#E6FFFF;}
	.st47{fill:#DCFFFF;}
	.st48{fill:#FBFFFF;}
	.st49{fill:#EBFFFF;}
	.st50{fill:#A3FFF7;}
	.st51{fill:#B0FFF7;}
	.st52{fill:#BBFFFF;}
	.st53{fill:#F5FFFF;}
	.st54{fill:#0F6B93;}
	.st55{fill:#70E2E5;}
	.st56{fill:#9FEDEB;}
</style>
<g id="Capa_1">
	<g>
		<g>
			<g class="st0">
				<path class="st1" d="M812.77,430.62l150.29-78.93c2.4-1.26,3.75-1.51,5.17-1.51c1.77,0,3.66,0.39,5.1,1.15l148.84,78.17
					c1.17,0.62,1.87,1.38,1.87,2.06c0,0.63-0.62,1.09-1.15,1.37L972.6,511.86c-2.2,1.16-6.26,0.99-8.86-0.38L814.9,433.31
					c-1.17-0.61-1.87-1.38-1.87-2.06C813.04,430.61,813.67,430.15,812.77,430.62z"/>
				<g class="st0">
					<path class="st2" d="M1487.96,419.13l-144.35-75.81c-1.86-0.98-2.92-2.34-2.92-3.75c0-1.23,0.79-2.32,2.23-3.08l145.75-76.55
						c2.83-1.49,7.58-1.32,10.81,0.37l144.35,75.81c1.86,0.98,2.93,2.34,2.93,3.75c0,1.23-0.79,2.32-2.23,3.08l-145.75,76.55
						c-1.3,0.68-3,1.02-4.78,1.02C1491.91,420.51,1489.71,420.05,1487.96,419.13z M1643.44,341.24c0.52-0.27,1.14-0.73,1.14-1.36
						c0-0.67-0.69-1.43-1.84-2.03l-144.35-75.81c-2.53-1.33-6.49-1.5-8.64-0.37L1344,338.22c-0.52,0.27-1.14,0.73-1.14,1.36
						c0,0.67,0.69,1.43,1.84,2.03l144.35,75.81c2.53,1.33,6.49,1.5,8.64,0.37L1643.44,341.24z"/>
				</g>
				<g class="st0">
					<path class="st2" d="M886.34,361.36l-176.29-92.58c-2.27-1.19-3.57-2.86-3.57-4.57c0-1.5,0.97-2.83,2.72-3.76l178-93.48
						c3.46-1.82,9.26-1.62,13.2,0.45L1076.69,260c2.27,1.19,3.57,2.86,3.57,4.57c0,1.5-0.97,2.84-2.72,3.76l-178,93.48
						c-1.59,0.83-3.67,1.24-5.83,1.24C891.16,363.06,888.48,362.48,886.34,361.36z M1076.22,266.24c0.64-0.33,1.39-0.89,1.39-1.66
						c0-0.82-0.84-1.74-2.24-2.48l-176.29-92.58c-3.09-1.62-7.92-1.83-10.55-0.45l-178,93.48c-0.64,0.33-1.39,0.89-1.39,1.66
						c0,0.82,0.84,1.74,2.24,2.48l176.29,92.58c3.09,1.62,7.92,1.83,10.55,0.45L1076.22,266.24z"/>
				</g>
				<g class="st0">
					<path class="st2" d="M320.31,544.84L70.18,413.48c-3.22-1.69-5.07-4.06-5.07-6.49c0-2.13,1.37-4.02,3.86-5.33l252.56-132.64
						c4.91-2.58,13.14-2.29,18.74,0.64L590.4,401.02c3.22,1.69,5.07,4.06,5.07,6.49c0,2.13-1.37,4.02-3.86,5.33L339.05,545.47
						c-2.25,1.18-5.2,1.76-8.27,1.76C327.15,547.24,323.34,546.43,320.31,544.84z M589.73,409.87c0.9-0.47,1.97-1.26,1.97-2.36
						c0-1.16-1.19-2.47-3.19-3.52L338.39,272.62c-4.39-2.3-11.24-2.6-14.97-0.64L70.85,404.63c-0.9,0.47-1.97,1.27-1.97,2.36
						c0,1.16,1.19,2.47,3.18,3.52L322.2,541.87c4.38,2.3,11.24,2.6,14.97,0.64L589.73,409.87z"/>
				</g>
				<g>
					<path class="st3" d="M441.39,439.69l139.65-73.34c0.91-0.48,2.17-0.72,3.49-0.72c1.65,0,3.4,0.36,4.74,1.07l138.31,72.64
						c1.09,0.57,1.74,1.29,1.74,1.91c0,0.58-0.58,1.01-1.07,1.27L588.6,515.86c-2.05,1.08-5.82,0.92-8.23-0.35l-138.31-72.64
						c-1.09-0.57-1.74-1.28-1.74-1.91C440.32,440.37,440.9,439.94,441.39,439.69z"/>
					<path class="st1" d="M438.14,440.96c0,1.36,1.03,2.68,2.82,3.62l138.31,72.64c1.68,0.88,3.79,1.33,5.81,1.33
						c1.71,0,3.35-0.32,4.6-0.98l139.65-73.34c1.39-0.73,2.16-1.79,2.16-2.98c0-1.36-1.03-2.68-2.82-3.63l-138.31-72.63
						c-3.11-1.63-7.68-1.78-10.4-0.35L440.3,437.97C438.91,438.71,438.14,439.76,438.14,440.96z M440.32,440.96
						c0-0.58,0.58-1.01,1.07-1.27l139.65-73.34c0.91-0.48,2.17-0.72,3.49-0.72c1.65,0,3.4,0.36,4.74,1.07l138.31,72.64
						c1.09,0.57,1.74,1.29,1.74,1.91c0,0.58-0.58,1.01-1.07,1.27L588.6,515.86c-2.05,1.08-5.82,0.92-8.23-0.35l-138.31-72.64
						C440.96,442.3,440.32,441.58,440.32,440.96z"/>
				</g>
				<g>
					<path class="st3" d="M1048.56,762.68l118.87-62.43c0.78-0.41,1.85-0.61,2.97-0.61c1.4,0,2.9,0.31,4.03,0.91l117.73,61.82
						c0.92,0.49,1.48,1.1,1.48,1.63c0,0.5-0.5,0.86-0.91,1.08l-118.87,62.43c-1.74,0.92-4.95,0.78-7.01-0.3l-117.73-61.83
						c-0.93-0.49-1.48-1.09-1.48-1.63C1047.65,763.26,1048.14,762.9,1048.56,762.68z"/>
					<path class="st1" d="M1045.79,763.76c0,1.16,0.88,2.28,2.4,3.08l117.73,61.83c1.43,0.75,3.23,1.13,4.94,1.13
						c1.45,0,2.85-0.27,3.91-0.83l118.87-62.43c1.18-0.62,1.84-1.52,1.84-2.54c0-1.16-0.88-2.28-2.4-3.09l-117.73-61.82
						c-2.64-1.39-6.53-1.52-8.86-0.3l-118.87,62.43C1046.45,761.84,1045.79,762.74,1045.79,763.76z M1047.65,763.76
						c0-0.5,0.49-0.86,0.91-1.08l118.87-62.43c0.78-0.41,1.85-0.61,2.97-0.61c1.4,0,2.9,0.31,4.03,0.91l117.73,61.82
						c0.92,0.49,1.48,1.1,1.48,1.63c0,0.5-0.5,0.86-0.91,1.08l-118.87,62.43c-1.74,0.92-4.95,0.78-7.01-0.3l-117.73-61.83
						C1048.2,764.9,1047.65,764.29,1047.65,763.76z"/>
				</g>
				<path class="st1" d="M482.64,729.13l139.65-73.34c2.23-1.17,3.48-1.41,4.81-1.41c1.65,0,3.4,0.36,4.74,1.07l138.31,72.63
					c1.09,0.57,1.74,1.29,1.74,1.91c0,0.58-0.58,1.01-1.07,1.27L631.17,804.6c-2.04,1.08-5.82,0.92-8.23-0.35l-138.31-72.64
					c-1.09-0.57-1.74-1.28-1.74-1.91C482.88,729.12,483.47,728.7,482.64,729.13z"/>
				<path class="st1" d="M488.42,646.03l139.65-73.34c2.23-1.17,3.48-1.41,4.81-1.41c1.65,0,3.4,0.36,4.74,1.07l138.31,72.63
					c1.09,0.57,1.74,1.29,1.74,1.91c0,0.58-0.58,1.01-1.07,1.27L636.95,721.5c-2.04,1.08-5.82,0.92-8.23-0.35L490.4,648.52
					c-1.09-0.57-1.74-1.28-1.74-1.91C488.66,646.03,489.25,645.6,488.42,646.03z"/>
				<path class="st1" d="M1106.82,909.71l108.3-56.88c1.73-0.91,2.7-1.09,3.73-1.09c1.28,0,2.64,0.28,3.68,0.83l107.26,56.33
					c0.84,0.44,1.35,1,1.35,1.48c0,0.45-0.45,0.78-0.83,0.98l-108.3,56.88c-1.59,0.83-4.51,0.71-6.38-0.27l-107.26-56.33
					c-0.84-0.44-1.35-1-1.35-1.48C1107.01,909.7,1107.47,909.37,1106.82,909.71z"/>
				<path class="st1" d="M692.58,860.18l54.79-28.77c0.87-0.46,1.37-0.55,1.89-0.55c0.65,0,1.33,0.14,1.86,0.42l54.26,28.5
					c0.43,0.22,0.68,0.5,0.68,0.75c0,0.23-0.23,0.4-0.42,0.5l-54.79,28.77c-0.8,0.42-2.28,0.36-3.23-0.14l-54.26-28.5
					c-0.43-0.22-0.68-0.5-0.68-0.75C692.67,860.17,692.9,860.01,692.58,860.18z"/>
				<path class="st1" d="M266.52,627.51l74.69-39.22c1.19-0.63,1.86-0.75,2.57-0.75c0.88,0,1.82,0.19,2.54,0.57l73.97,38.85
					c0.58,0.31,0.93,0.69,0.93,1.02c0,0.31-0.31,0.54-0.57,0.68l-74.69,39.22c-1.09,0.58-3.11,0.49-4.4-0.19l-73.97-38.85
					c-0.58-0.3-0.93-0.69-0.93-1.02C266.66,627.5,266.97,627.27,266.52,627.51z"/>
				<path class="st1" d="M30,469.85l188-98.73c3-1.58,4.69-1.89,6.47-1.89c2.22,0,4.58,0.49,6.38,1.44l186.19,97.78
					c1.46,0.77,2.34,1.73,2.34,2.58c0,0.79-0.78,1.36-1.44,1.71l-188,98.73c-2.75,1.45-7.83,1.24-11.08-0.47l-186.2-97.78
					c-1.46-0.77-2.34-1.73-2.34-2.57C30.33,469.84,31.12,469.27,30,469.85z"/>
				<path class="st4" d="M590.76,286.21l153.1-80.41c2.44-1.28,3.82-1.54,5.27-1.54c1.81,0,3.73,0.4,5.2,1.17l151.63,79.63
					c1.19,0.63,1.9,1.41,1.9,2.1c0,0.64-0.64,1.11-1.17,1.39l-153.1,80.41c-2.24,1.18-6.38,1.01-9.03-0.39l-151.63-79.63
					c-1.19-0.62-1.9-1.41-1.9-2.1C591.03,286.21,591.67,285.74,590.76,286.21z"/>
				<path class="st1" d="M719.18,439.66l-133.2-69.95c-1.29-0.68-2.98-1.03-4.57-1.03c-1.28,0-2.48,0.23-4.63,1.35L442.3,440.67
					c0.8-0.42,0.24-0.01,0.24,0.56c0,0.6,0.63,1.29,1.67,1.84l133.2,69.95c2.33,1.22,5.96,1.38,7.93,0.34l134.49-70.63
					c0.47-0.25,1.03-0.66,1.03-1.22C720.85,440.9,720.23,440.21,719.18,439.66z M657.16,413.74l-70.44,36.99
					c-1.03,0.54-2.93,0.46-4.15-0.18l-69.76-36.63c-0.55-0.29-0.88-0.65-0.88-0.96c0-0.29,0.29-0.51,0.54-0.64l70.43-36.99
					c0.46-0.24,1.09-0.36,1.76-0.36c0.83,0,1.72,0.18,2.39,0.54l69.76,36.63c0.55,0.29,0.88,0.65,0.88,0.97
					C657.7,413.39,657.4,413.61,657.16,413.74z"/>
				<path class="st1" d="M385.76,753.81l61.49-32.29c0.4-0.21,0.95-0.32,1.54-0.32c0.72,0,1.5,0.16,2.09,0.47l60.9,31.98
					c0.48,0.25,0.76,0.57,0.76,0.84c0,0.26-0.26,0.45-0.47,0.56l-61.49,32.29c-0.9,0.47-2.56,0.4-3.62-0.16l-60.9-31.98
					c-0.48-0.25-0.76-0.57-0.76-0.84C385.29,754.11,385.54,753.92,385.76,753.81z"/>
				<path class="st1" d="M1369.43,828.58l121.02-63.56c0.79-0.42,1.88-0.62,3.03-0.62c1.43,0,2.95,0.31,4.11,0.93l119.86,62.94
					c0.94,0.5,1.5,1.12,1.5,1.66c0,0.51-0.5,0.88-0.93,1.1L1497,894.59c-1.77,0.93-5.04,0.8-7.13-0.31l-119.86-62.95
					c-0.94-0.49-1.5-1.11-1.5-1.66C1368.5,829.17,1369.01,828.8,1369.43,828.58z"/>
				<path class="st1" d="M419.48,290.15l61.49-32.29c0.4-0.21,0.95-0.31,1.54-0.31c0.72,0,1.5,0.16,2.09,0.47L545.5,290
					c0.48,0.25,0.76,0.57,0.76,0.84c0,0.26-0.26,0.45-0.47,0.56l-61.49,32.29c-0.9,0.47-2.56,0.4-3.62-0.16l-60.9-31.98
					c-0.48-0.25-0.76-0.57-0.76-0.84C419.01,290.45,419.27,290.26,419.48,290.15z"/>
				<path class="st1" d="M911.83,259.74l61.49-32.29c0.4-0.21,0.95-0.31,1.54-0.31c0.72,0,1.5,0.16,2.09,0.47l60.9,31.98
					c0.48,0.25,0.76,0.57,0.76,0.84c0,0.26-0.26,0.45-0.47,0.56l-61.49,32.29c-0.9,0.47-2.56,0.4-3.62-0.16l-60.9-31.98
					c-0.48-0.25-0.76-0.57-0.76-0.84C911.36,260.04,911.62,259.85,911.83,259.74z"/>
				<path class="st1" d="M1562.05,546.02l61.49-32.29c0.4-0.21,0.95-0.31,1.54-0.31c0.73,0,1.5,0.16,2.09,0.47l41.27,21.67
					l14.06,7.87c1.9,1.06,1.99,3.75,0.17,4.95l-55.79,31.18c-0.9,0.47-2.56,0.4-3.62-0.16l-60.9-31.98
					c-0.48-0.25-0.76-0.57-0.76-0.84C1561.58,546.32,1561.84,546.13,1562.05,546.02z"/>
				<path class="st1" d="M1434.59,304.55l61.49-32.29c0.4-0.21,0.95-0.31,1.54-0.31c0.72,0,1.5,0.16,2.09,0.47l60.9,31.98
					c0.48,0.25,0.76,0.57,0.76,0.84c0,0.26-0.26,0.45-0.47,0.56l-61.49,32.29c-0.9,0.47-2.56,0.4-3.62-0.16l-60.9-31.98
					c-0.48-0.25-0.76-0.57-0.76-0.84C1434.12,304.85,1434.37,304.66,1434.59,304.55z"/>
				<path class="st1" d="M1373.32,258.26l91.94-48.29c0.6-0.32,1.43-0.47,2.3-0.47c1.08,0,2.24,0.24,3.12,0.7l91.06,47.82
					c0.72,0.38,1.14,0.85,1.14,1.26c0,0.38-0.38,0.67-0.7,0.84l-91.94,48.29c-1.35,0.71-3.83,0.6-5.42-0.23l-91.06-47.82
					c-0.71-0.38-1.14-0.85-1.14-1.26C1372.62,258.71,1373,258.43,1373.32,258.26z"/>
				<g class="st0">
					<g>
						<g>
							<path class="st2" d="M1024.95,752.65L734.93,600.34c-2.36-1.24-3.65-3-3.65-4.96c0-2.29,1.8-4.54,4.94-6.2l459.49-241.4
								c5.7-3,14.07-3.29,19.06-0.68l290.02,152.31c2.36,1.24,3.65,3,3.65,4.95c0,2.29-1.8,4.55-4.94,6.2l-459.49,241.4
								c-3.1,1.63-6.99,2.46-10.69,2.46C1030.21,754.43,1027.23,753.84,1024.95,752.65z M1196.8,349.49l-459.49,241.4
								c-2.45,1.29-3.86,2.92-3.86,4.48c0,1.24,0.89,2.36,2.57,3.24l290.02,152.31c4.3,2.26,11.88,1.95,16.89-0.68l459.49-241.4
								c2.45-1.29,3.86-2.92,3.86-4.48c0-1.24-0.89-2.36-2.57-3.24l-290.02-152.31c-1.94-1.02-4.53-1.51-7.26-1.51
								C1203.09,347.3,1199.56,348.05,1196.8,349.49z"/>
						</g>
					</g>
				</g>
				<path class="st1" d="M802.22,725.09c1.58,0,3.16-0.37,4.57-1.11l81.8-42.96l-1.09-1.71l-81.8,42.96c-2.15,1.13-4.82,1.13-6.97,0
					L433.36,530.39c-0.51-0.27-0.81-0.21-0.81-0.75c0-0.53,0.3-1.55,0.81-1.82l83.6-43.9l-1.09-1.71l-83.6,43.9
					c-1.19,0.63-1.9,1.75-1.9,2.99c0,1.25,0.71,2.37,1.9,2.99l365.38,191.88C799.06,724.72,800.64,725.09,802.22,725.09z"/>
				<g class="st0">
					<polygon class="st2" points="1568.03,382.19 1682.17,448.65 1681.59,450.14 1567.05,383.74 					"/>
					<path class="st2" d="M1497.15,542.08c2.65,1.39,5.94,1.39,8.6,0l176.42-93.43l1.24,0.67l-176.67,94.3
						c-1.63,0.85-3.45,1.28-5.28,1.28c-1.83,0-3.65-0.43-5.28-1.28l-28.41-14.92l1.86-1.09L1497.15,542.08z"/>
				</g>
				<path class="st1" d="M1256.47,243.98l73.29-38.49l73.29,38.49l-73.29,38.49L1256.47,243.98z M1329.76,207.59l-69.29,36.39
					l69.29,36.39l69.29-36.39L1329.76,207.59z"/>
				<path class="st1" d="M483.57,845.55L684.9,739.82l201.32,105.73L684.89,951.28L483.57,845.55z M684.9,745.58l-190.35,99.97
					l190.34,99.97l190.35-99.97L684.9,745.58z"/>
				<path class="st1" d="M1464.37,661.28l80.42-42.23l80.42,42.23l-80.42,42.23L1464.37,661.28z M1544.79,621.35l-76.03,39.93
					l76.03,39.93l76.03-39.93L1544.79,621.35z"/>
			</g>
			<g class="st5">
				<path class="st2" d="M1391.1,490.53l-12.55,0.26c-0.85,0.02-9.51,8.87-9.51,8.87l-7.45,1.75c0,0-14.04-3.62-14.75-3.26
					l-10.28,5.12c-0.68,0.34,3.59,8.78,3.59,8.78l-4,3.95c0,0-16.63,3.5-16.76,3.99l-1.98,6.97c-0.14,0.47,14.56,3.58,14.56,3.58
					l1.79,3.83c0,0-9.47,8.57-8.96,8.89l7.48,4.75c0.5,0.31,17.03-3.74,17.03-3.74l6.52,1.46c0,0,3.23,8.62,4.11,8.6l12.56-0.26
					c0.83-0.02,9.49-8.86,9.49-8.86l7.45-1.75c0,0,14.05,3.61,14.75,3.26l10.29-5.12c0.69-0.34-3.58-8.8-3.58-8.8l3.99-3.94
					c0,0,16.63-3.5,16.76-3.99l1.98-6.97c0.13-0.47-14.57-3.58-14.57-3.58l-1.78-3.83c0,0,9.46-8.57,8.94-8.9l-7.46-4.75
					c-0.5-0.32-17.04,3.73-17.04,3.73l-6.55-1.46C1395.19,499.13,1391.97,490.51,1391.1,490.53z M1393.84,522.05
					c-1.6,5.61-11.11,10.36-21.21,10.57s-17.03-4.19-15.43-9.8s11.13-10.36,21.23-10.57
					C1388.52,512.04,1395.43,516.43,1393.84,522.05z"/>
				<path class="st2" d="M1299.82,436.82l-18.04,0.38c-1.22,0.03-13.67,12.75-13.67,12.75l-10.71,2.51c0,0-20.18-5.2-21.21-4.69
					l-14.78,7.37c-0.98,0.49,5.17,12.63,5.17,12.63l-5.75,5.68c0,0-23.9,5.04-24.1,5.74l-2.85,10.02
					c-0.19,0.68,20.94,5.14,20.94,5.14l2.57,5.5c0,0-13.61,12.32-12.88,12.79l10.75,6.83c0.72,0.45,24.48-5.38,24.48-5.38l9.38,2.1
					c0,0,4.65,12.39,5.91,12.36l18.06-0.38c1.2-0.02,13.64-12.74,13.64-12.74l10.71-2.51c0,0,20.2,5.19,21.21,4.68l14.79-7.36
					c0.99-0.49-5.14-12.65-5.14-12.65l5.74-5.66c0,0,23.9-5.04,24.1-5.73l2.85-10.02c0.19-0.68-20.95-5.14-20.95-5.14l-2.56-5.5
					c0,0,13.6-12.32,12.86-12.79l-10.72-6.83c-0.72-0.46-24.49,5.37-24.49,5.37l-9.41-2.1
					C1305.69,449.17,1301.06,436.79,1299.82,436.82z M1303.74,482.13c-2.3,8.07-15.98,14.89-30.49,15.19
					c-14.52,0.3-24.48-6.03-22.18-14.09c2.3-8.07,16-14.89,30.52-15.19C1296.11,467.73,1306.04,474.05,1303.74,482.13z"/>
				<path class="st2" d="M1415.38,426.33l-13.37,1.5c-0.9,0.1-7.19,9.83-7.19,9.83l-7.4,2.48c0,0-16.28-2.25-16.93-1.82l-9.29,6.15
					c-0.61,0.41,6.84,8.46,6.84,8.46l-2.95,4.35c0,0-16.64,5.15-16.62,5.65l0.24,7.18c0.02,0.49,16.83,2.16,16.83,2.16l3.22,3.66
					c0,0-7.24,9.53-6.58,9.8l9.64,4.03c0.65,0.26,16.99-5.42,16.99-5.42l7.49,0.82c0,0,6.4,8.32,7.33,8.22l13.38-1.5
					c0.89-0.1,7.16-9.82,7.16-9.82l7.4-2.49c0,0,16.29,2.24,16.93,1.81l9.29-6.14c0.62-0.41-6.83-8.47-6.83-8.47l2.94-4.34
					c0,0,16.64-5.15,16.62-5.65l-0.24-7.19c-0.02-0.49-16.84-2.15-16.84-2.15l-3.21-3.66c0,0,7.23-9.52,6.57-9.8l-9.62-4.03
					c-0.65-0.27-17,5.42-17,5.42l-7.52-0.82C1422.69,434.55,1416.31,426.23,1415.38,426.33z M1429.03,457.67
					c0.19,5.78-8.4,11.48-19.15,12.68c-10.76,1.2-19.69-2.53-19.88-8.31c-0.19-5.79,8.42-11.48,19.18-12.68
					C1419.92,448.15,1428.83,451.88,1429.03,457.67z"/>
			</g>
			<path class="st6" d="M1215.2,930.5c10.02,0.24,20.42-1.84,28.41-6.21c12.94-7.07,15.26-17.78,6.49-25.54l-5.51,3.01
				c6.11,6.13,4.05,14.27-5.91,19.72c-6.74,3.68-15.62,5.34-24.03,4.92C1210.12,926.11,1207.23,930.43,1215.2,930.5z
				 M1194.34,896.25c-12.94,7.07-15.26,17.78-6.49,25.54l5.51-3.01c-6.12-6.13-4.06-14.27,5.91-19.72
				c6.77-3.7,15.71-5.35,24.16-4.92c4.41,0.29,4.73-4-0.27-4.09C1213.01,889.75,1202.44,891.83,1194.34,896.25z M1241.23,903.54
				l10.74-5.82c1.48-0.8,1.12-1.65-0.81-1.9l-13.41-1.7c-1.93-0.24-3.16,0.43-2.75,1.51l2.81,7.41
				C1238.21,904.13,1239.75,904.35,1241.23,903.54z M1196.67,916.98l-10.65,5.87c-1.47,0.81-1.1,1.67,0.83,1.92l13.23,1.71
				c1.93,0.25,3.16-0.43,2.76-1.51l-2.78-7.51C1199.66,916.39,1198.15,916.17,1196.67,916.98z"/>
			<g class="st7">
				<path class="st2" d="M1570.95,643.05l14.85-7.76c0.62,1.94,1.89,3.62,3.73,4.92l-14.85,7.76c-2.37,1.24-5.13,1.14-6.16-0.22
					C1567.49,646.39,1568.58,644.28,1570.95,643.05z"/>
			</g>
			<g>
				<g>
					<g>
						<path class="st2" d="M828.66,282.15l6.8,3.38l-7.99,4.2l-6.8-3.38L828.66,282.15z M829.7,279.5
							c-0.57-0.28-1.49-0.26-2.06,0.03l-23.87,12.55c-0.57,0.3-0.57,0.77-0.01,1.05l10.9,5.42c0.57,0.28,1.49,0.27,2.05-0.03
							l23.87-12.55c0.57-0.3,0.57-0.77,0.01-1.05L829.7,279.5L829.7,279.5z"/>
					</g>
				</g>
				<g>
					<g>
						<path class="st2" d="M818.81,270.91l6.8,3.38l-16.07,8.45l-6.8-3.38L818.81,270.91z M819.86,268.27
							c-0.56-0.28-1.48-0.27-2.05,0.03l-30.06,15.81c-0.57,0.3-0.57,0.77-0.01,1.05l10.9,5.42c0.56,0.28,1.48,0.27,2.05-0.03
							l30.06-15.81c0.57-0.3,0.57-0.77,0.01-1.05L819.86,268.27L819.86,268.27z"/>
					</g>
				</g>
				<g>
					<g>
						<path class="st2" d="M813.42,257.14l6.8,3.38l-19.88,10.45l-6.8-3.38L813.42,257.14z M814.46,254.5
							c-0.57-0.28-1.49-0.27-2.06,0.03l-40.9,21.51c-0.57,0.3-0.57,0.77,0,1.05l10.9,5.42c0.57,0.28,1.49,0.27,2.05-0.03l40.9-21.51
							c0.57-0.3,0.57-0.77,0-1.05L814.46,254.5L814.46,254.5z"/>
					</g>
				</g>
			</g>
			<path class="st8" d="M1219.84,580c-14.43,6.98-15.44,18.43-2.24,25.57s35.59,7.28,50.03,0.3c14.43-6.98,15.44-18.42,2.24-25.57
				C1256.67,573.16,1234.28,573.02,1219.84,580z M1225.82,583.23c10.81-5.22,27.64-5.12,37.52,0.23s9.13,13.95-1.68,19.18
				s-27.64,5.12-37.52-0.23C1214.25,597.06,1215.01,588.46,1225.82,583.23z M1235.05,584.89l8.96,4.85l9.8-4.74
				c1.81-0.87,4.6-0.86,6.25,0.04c1.65,0.89,1.52,2.32-0.28,3.2l-13.07,6.32c-1.81,0.87-4.6,0.86-6.25-0.04l-11.95-6.47
				c-1.65-0.89-1.52-2.32,0.28-3.2C1230.61,583.98,1233.4,583.99,1235.05,584.89z"/>
		</g>
	</g>
	<g>
		<g>
			<g>
				<path class="st9" d="M1474.3,665.38l-447.77-202.12c-11.99-5.99-31.49-5.99-43.38,0L729.68,590.55
					c-11.9,5.99-11.84,15.75,0.13,21.73l440.69,219.89c11.98,5.98,31.48,5.97,43.38-0.01l276.92-139.3
					C1510.39,682.94,1509.68,678.54,1474.3,665.38z"/>
				<path class="st10" d="M1473.64,669.11l-253.48,127.3c-11.9,5.98-31.4,5.99-43.38,0.01L736.1,576.53
					c-6.02-3.01-9.04-6.98-9.02-10.93c-0.03,7.24-0.06,14.48-0.08,21.71c-0.01,3.96,3,7.93,9.03,10.94l440.7,219.88
					c11.95,5.98,31.47,5.97,43.37,0l253.47-127.31c5.92-2.96,8.87-6.87,8.89-10.78c0.01-7.23,0.04-14.48,0.07-21.71
					C1482.5,662.24,1479.55,666.15,1473.64,669.11z"/>
				<path class="st11" d="M1473.4,647.33l-440.69-219.89c-11.99-5.99-31.49-5.99-43.38,0l-253.47,127.3
					c-11.9,5.99-11.84,15.75,0.13,21.73l440.69,219.89c11.98,5.98,31.48,5.97,43.38-0.01l253.48-127.3
					C1485.44,663.07,1485.37,653.3,1473.4,647.33z"/>
				<g>
					<polygon class="st12" points="1262.09,607.21 1234.53,621.14 1200.52,604.25 1228.09,590.32 					"/>
					<polygon class="st12" points="1295.47,725.45 1267.93,739.38 1197.83,704.54 1197.22,700.55 1294.51,722.35 					"/>
					<polygon class="st12" points="1390.1,637.01 1362.54,650.94 1328.54,634.03 1356.09,620.1 					"/>
					<polygon class="st12" points="1317.94,668.78 1290.37,682.71 1256.34,665.82 1283.9,651.88 					"/>
					<polygon class="st12" points="1279.65,649.76 1252.12,663.71 1218.1,646.8 1245.67,632.87 					"/>
					<polygon class="st12" points="1339.47,645.66 1311.92,659.6 1277.93,642.72 1305.47,628.76 					"/>
					<polygon class="st12" points="1430.56,657.07 1402.99,671 1368.99,654.09 1429.2,653.78 					"/>
					<polygon class="st12" points="1241.39,630.76 1213.86,644.71 1179.85,627.8 1207.42,613.87 					"/>
					<polygon class="st12" points="1229.36,658.59 1201.79,672.53 1167.81,655.62 1195.35,641.71 					"/>
					<polygon class="st12" points="1267.59,677.6 1240.04,691.53 1206.04,674.64 1233.6,660.7 					"/>
					<polygon class="st12" points="1191.53,639.8 1163.97,653.73 1129.97,636.83 1157.53,622.89 					"/>
					<polygon class="st12" points="1396.84,674.16 1369.3,688.11 1316.62,661.94 1395.79,671.1 					"/>
					<polygon class="st12" points="1361.3,692.15 1301.8,722.23 1244.45,693.73 1272.03,679.79 1289.64,688.56 1359.94,689.24 					
						"/>
					<polygon class="st12" points="1222.02,688.94 1194.46,702.86 1141.32,676.48 1140.97,672.61 					"/>
					<polygon class="st12" points="1066.38,476.36 1038.83,490.27 989.35,465.5 1016.92,451.55 					"/>
					<polygon class="st12" points="1107.31,530.28 1079.74,544.22 1045.76,527.33 1073.31,513.4 					"/>
					<polygon class="st12" points="1268.67,576.67 1241.13,590.6 1207.12,573.71 1234.69,559.78 					"/>
					<polygon class="st12" points="1223.38,587.97 1195.84,601.92 1161.83,585.01 1189.38,571.09 					"/>
					<polygon class="st12" points="1165.44,660.81 1137.86,674.75 988.51,600.52 987.25,594.11 					"/>
					<polygon class="st12" points="1106.76,496.2 1079.2,510.14 1045.21,493.24 1072.73,479.3 					"/>
					<polygon class="st12" points="999.43,544.34 971.88,558.27 888.18,516.68 915.7,502.73 					"/>
					<polygon class="st12" points="1228.21,556.54 1200.64,570.48 1166.63,553.59 1194.19,539.67 					"/>
					<polygon class="st12" points="1088.43,554.72 1060.86,568.67 1026.86,551.79 1054.43,537.85 					"/>
					<polygon class="st12" points="953.85,555.68 926.3,569.6 854.28,533.81 853.23,529.6 					"/>
					<polygon class="st12" points="1185.38,568.48 1157.8,582.42 1123.82,565.53 1151.39,551.59 					"/>
					<polygon class="st12" points="1038.11,563.56 1010.55,577.5 976.57,560.61 1004.11,546.66 					"/>
					<polygon class="st12" points="1126.65,573.74 1099.1,587.68 1065.11,570.78 1092.68,556.84 					"/>
					<polygon class="st12" points="1075.94,582.35 1048.37,596.28 1014.38,579.39 1041.94,565.47 					"/>
					<polygon class="st12" points="1309.13,596.77 1281.61,610.7 1247.57,593.81 1275.15,579.88 					"/>
					<polygon class="st12" points="1011.24,584.18 983.67,598.13 930.55,571.72 929.82,567.66 					"/>
					<polygon class="st12" points="1165.44,593.02 1137.64,606.84 1103.89,590.06 1131.45,576.13 					"/>
					<polygon class="st12" points="1114.18,601.35 1086.65,615.3 1052.6,598.4 1080.17,584.47 					"/>
					<polygon class="st12" points="1349.62,616.89 1322.05,630.82 1288.08,613.94 1315.64,599.99 					"/>
					<polygon class="st12" points="1203.17,611.74 1175.6,625.68 1141.6,608.8 1169.17,594.87 					"/>
					<polygon class="st12" points="1300.76,626.43 1273.24,640.37 1239.22,623.48 1266.78,609.54 					"/>
					<polygon class="st12" points="1152,620.16 1124.43,634.09 1090.46,617.21 1118.03,603.27 					"/>
					<polygon class="st12" points="1147.26,516.33 1119.69,530.25 1085.7,513.36 1113.23,499.42 					"/>
					<polygon class="st12" points="1066.89,510.21 1039.36,524.16 955.63,482.56 983.2,468.61 					"/>
					<polygon class="st12" points="1011.78,516.65 984.23,530.59 921.89,499.61 949.44,485.67 					"/>
					<polygon class="st12" points="1187.72,536.42 1160.15,550.36 1126.17,533.47 1153.71,519.54 					"/>
					<polygon class="st12" points="1050.18,535.72 1022.61,549.66 988.61,532.78 1016.17,518.84 					"/>
					<polygon class="st12" points="1145.97,549.51 1118.46,563.45 1084.42,546.57 1112,532.62 					"/>
				</g>
				<polygon class="st10" points="930.03,564.14 929.82,567.66 989.88,597.51 1137.97,671.1 1140.92,669.62 1140.97,672.61 
					1194.59,699.21 1197.43,697.78 1197.22,700.55 1266.89,736.31 1294.51,722.35 1294.48,716.49 1300.49,719.3 1359.94,689.24 
					1360.01,679.79 1369.41,684.47 1395.79,671.1 1395.85,665.98 1401.51,668.24 1429.2,653.78 1429.2,644.12 1395.22,627.21 
					1388.74,630.5 1388.74,624.01 1354.74,607.11 1348.26,610.38 1348.26,603.89 1314.28,587 1307.79,590.63 1307.77,583.78 
					1273.79,566.89 1267.31,570.81 1267.31,563.68 1233.33,546.79 1226.31,551.31 1226.85,543.54 1192.83,526.67 1186.08,531.43 
					1186.36,523.43 1152.35,506.55 1145.9,510.77 1145.9,503.34 1111.87,486.43 1105.3,489.75 1105.4,483.21 1071.37,466.31 
					1065.54,472.79 1065.02,463.33 1015.56,438.56 987.99,452.51 987.99,458.68 981.84,455.62 954.27,469.56 954.27,475.76 
					948.08,472.68 920.53,486.62 920.53,492.82 914.34,489.74 886.82,503.69 886.82,510.06 880.44,506.89 852.92,520.82 
					853.23,529.6 926.41,565.97 				"/>
				<g>
					<polygon class="st13" points="1260.73,594.21 1233.18,608.15 1199.17,591.26 1226.73,577.33 					"/>
					<polygon class="st13" points="1294.11,712.46 1266.57,726.39 1196.47,691.55 1224,677.6 					"/>
					<polygon class="st13" points="1388.74,624.01 1361.18,637.95 1327.18,621.04 1354.74,607.11 					"/>
					<polygon class="st13" points="1316.58,655.79 1289.01,669.71 1254.98,652.83 1282.55,638.88 					"/>
					<polygon class="st13" points="1278.3,636.77 1250.76,650.72 1216.74,633.81 1244.31,619.88 					"/>
					<polygon class="st13" points="1338.11,632.67 1310.56,646.61 1276.58,629.73 1304.11,615.76 					"/>
					<polygon class="st13" points="1429.2,644.07 1401.63,658.01 1367.63,641.1 1395.19,627.16 					"/>
					<polygon class="st13" points="1240.03,617.77 1212.5,631.72 1178.49,614.81 1206.06,600.87 					"/>
					<polygon class="st13" points="1228,645.6 1200.43,659.54 1166.45,642.63 1193.99,628.71 					"/>
					<polygon class="st13" points="1266.23,664.6 1238.69,678.54 1204.68,661.65 1232.24,647.71 					"/>
					<polygon class="st13" points="1190.17,626.81 1162.62,640.74 1128.61,623.84 1156.17,609.9 					"/>
					<polygon class="st13" points="1395.49,661.17 1367.94,675.12 1315.26,648.94 1342.81,635.02 					"/>
					<polygon class="st13" points="1359.94,679.16 1328.01,695.31 1309.69,704.57 1300.44,709.24 1243.1,680.73 1270.67,666.8 
						1288.29,675.56 1320.22,659.41 					"/>
					<polygon class="st13" points="1220.66,675.95 1193.11,689.87 1139.96,663.49 1167.53,649.54 					"/>
					<polygon class="st13" points="1065.02,463.36 1037.48,477.28 987.99,452.51 1015.56,438.56 					"/>
					<polygon class="st13" points="1105.95,517.29 1078.38,531.23 1044.4,514.34 1071.95,500.4 					"/>
					<polygon class="st13" points="1267.31,563.68 1239.77,577.61 1205.76,560.72 1233.33,546.79 					"/>
					<polygon class="st13" points="1222.02,574.98 1194.49,588.93 1160.47,572.02 1188.02,558.1 					"/>
					<polygon class="st13" points="1164.08,647.82 1136.5,661.76 987.15,587.53 1014.67,573.6 					"/>
					<polygon class="st13" points="1105.4,483.21 1077.84,497.15 1043.85,480.25 1071.37,466.31 					"/>
					<polygon class="st13" points="998.07,531.35 970.52,545.27 886.82,503.69 914.34,489.74 					"/>
					<polygon class="st13" points="1226.85,543.54 1199.28,557.49 1165.27,540.6 1192.83,526.67 					"/>
					<polygon class="st13" points="1087.07,541.73 1059.5,555.67 1025.5,538.8 1053.07,524.86 					"/>
					<polygon class="st13" points="952.49,542.68 924.94,556.61 852.92,520.82 880.44,506.89 					"/>
					<polygon class="st13" points="1184.02,555.49 1156.45,569.43 1122.46,552.54 1150.03,538.6 					"/>
					<polygon class="st13" points="1036.76,550.56 1009.19,564.51 975.21,547.61 1002.75,533.67 					"/>
					<polygon class="st13" points="1125.3,560.75 1097.74,574.69 1063.75,557.78 1091.32,543.85 					"/>
					<polygon class="st13" points="1074.58,569.36 1047.02,583.29 1013.02,566.4 1040.58,552.48 					"/>
					<polygon class="st13" points="1307.77,583.78 1280.25,597.71 1246.21,580.82 1273.79,566.89 					"/>
					<polygon class="st13" points="1009.88,571.19 982.32,585.14 929.19,558.73 956.73,544.79 					"/>
					<polygon class="st13" points="1164.08,580.03 1136.28,593.85 1102.53,577.07 1130.1,563.14 					"/>
					<polygon class="st13" points="1112.83,588.36 1085.29,602.31 1051.25,585.41 1078.81,571.48 					"/>
					<polygon class="st13" points="1348.26,603.89 1320.69,617.83 1286.72,600.94 1314.28,587 					"/>
					<polygon class="st13" points="1201.81,598.75 1174.24,612.69 1140.24,595.81 1167.81,581.88 					"/>
					<polygon class="st13" points="1299.4,613.44 1271.88,627.38 1237.86,610.49 1265.42,596.55 					"/>
					<polygon class="st13" points="1150.64,607.17 1123.08,621.1 1089.1,604.21 1116.67,590.28 					"/>
					<polygon class="st13" points="1145.9,503.34 1118.33,517.26 1084.34,500.37 1111.87,486.43 					"/>
					<polygon class="st13" points="1065.54,497.22 1038,511.17 954.27,469.56 981.84,455.62 					"/>
					<polygon class="st13" points="1010.43,503.65 982.87,517.6 920.53,486.62 948.08,472.68 					"/>
					<polygon class="st13" points="1186.36,523.43 1158.79,537.37 1124.81,520.48 1152.35,506.55 					"/>
					<polygon class="st13" points="1048.82,522.73 1021.25,536.67 987.25,519.79 1014.81,505.85 					"/>
					<polygon class="st13" points="1144.61,536.52 1117.1,550.46 1083.06,533.57 1110.64,519.63 					"/>
				</g>
				<polygon class="st12" points="1088.82,662.46 1018.94,697.56 911.12,643.75 981.01,608.66 				"/>
				<g class="st14">
					<path class="st15" d="M1236.16,799.79c0,2.91,2.36,4.09,5.27,2.63c2.91-1.45,5.27-4.99,5.27-7.9c0-2.91-2.36-4.09-5.27-2.63
						S1236.16,796.89,1236.16,799.79z"/>
					<polygon class="st15" points="1305.46,769.72 1331.81,756.54 1331.81,746.4 1305.46,759.58 					"/>
					<polygon class="st15" points="1428.32,708.16 1461.82,691.48 1461.82,682.94 1428.32,699.63 					"/>
					<polygon class="st15" points="1266.28,789.2 1292.63,776.02 1292.63,765.88 1266.28,779.06 					"/>
				</g>
			</g>
			<g>
				<path class="st10" d="M1498.48,241.22L1057.79,21.33c-6.02-3-11.51-3.28-15.46-1.28c-7.25,3.64-14.49,7.28-21.73,10.91
					c3.96-2,474.56,618.62,470.65,620.59c3.61-1.81,7.24-3.63,10.86-5.44c3.63-1.83,7.25-3.64,10.86-5.47
					c3.92-1.97,6.36-6.14,6.38-12.05l0.83-354.91C1520.2,261.8,1510.46,247.2,1498.48,241.22z"/>
				<path class="st12" d="M1418.34,254.12l49.37-24.69l42.72,21.36c5.87,6.82,9.76,15.39,9.74,22.89v1.27L1490.08,290
					L1418.34,254.12z"/>
				<path class="st13" d="M1020.6,30.96c7.25-3.63,14.48-7.27,21.73-10.91c3.96-2,9.45-1.72,15.46,1.28l440.69,219.89
					c5.21,2.6,9.94,6.88,13.68,11.81c-15.22,8.47-31.21,17.63-31.21,17.63L1031.49,43.62C1024.82,35.33,1020.94,30.79,1020.6,30.96z
					"/>
				<path class="st11" d="M1476.76,252.14L1036.08,32.25c-11.99-5.99-21.8-1.14-21.83,10.74l-0.84,354.89
					c-0.04,11.9,9.71,26.52,21.68,32.51l440.69,219.89c11.98,5.97,21.8,1.1,21.84-10.79l0.82-354.89
					C1498.49,272.7,1488.74,258.11,1476.76,252.14z"/>
				<path class="st16" d="M1467.91,279.33L1044.78,68.18c-7.2-3.58-13.07-0.65-13.09,6.48l-0.77,315.65
					c-0.02,7.13,5.8,15.87,13,19.46l423.14,211.15c7.17,3.57,13.1,0.69,13.12-6.44l0.76-315.66
					C1480.97,291.71,1475.1,282.9,1467.91,279.33z"/>
				<path class="st15" d="M1279.8,174.67l-69.09-34.55c-1.42-0.71-2.58-2.46-2.58-3.88l0,0c0-1.42,1.16-2,2.58-1.29l69.09,34.55
					c1.42,0.71,2.59,2.46,2.59,3.88l0,0C1282.39,174.79,1281.22,175.38,1279.8,174.67z"/>
				<path class="st15" d="M1298.9,181.1c0,2.5-2.03,3.51-4.52,2.26c-2.5-1.25-4.52-4.29-4.52-6.79s2.03-3.51,4.52-2.26
					C1296.87,175.56,1298.9,178.6,1298.9,181.1z"/>
				<path class="st17" d="M1405.21,248.06L1044.75,68.18c-7.2-3.58-13.06-0.65-13.09,6.48l-0.74,221.42L1405.21,248.06z"/>
			</g>
		</g>
		<g>
			<polygon class="st9" points="571.49,683.16 921.83,858.37 975.82,831.37 625.48,656.16 			"/>
			<polygon class="st10" points="571.71,660.48 922.04,835.69 976.01,808.41 976.01,789.46 571.68,641.25 			"/>
			<polygon class="st18" points="976.01,808.41 922.04,835.41 922.04,776.68 932.34,773.56 976.01,789.57 			"/>
			<polygon class="st11" points="571.68,641.25 922.02,816.46 976.01,789.46 625.68,614.25 			"/>
			<polygon class="st19" points="590.52,643.23 919.4,808.19 957.67,789.05 628.8,624.09 			"/>
			<g>
				<g>
					<path class="st20" d="M610.88,642.48h12.58c-0.52,1.2-0.52,2.44,0,3.63h-12.58c-2.01,0-3.64-0.81-3.63-1.82
						C607.24,643.29,608.87,642.48,610.88,642.48z"/>
					<path class="st20" d="M626.72,649.44c5.68,2.84,14.88,2.84,20.56,0s5.68-7.44,0-10.28s-14.88-2.84-20.56,0
						S621.04,646.6,626.72,649.44z M629.29,640.44c4.25-2.13,11.17-2.13,15.42,0s4.25,5.58,0,7.71s-11.17,2.13-15.42,0
						C625.04,646.03,625.04,642.57,629.29,640.44z"/>
					<path class="st20" d="M642.99,647.3l-1.71-0.86c2.36-1.18,2.36-3.1,0-4.28l1.71-0.86C646.3,642.95,646.3,645.64,642.99,647.3z"
						/>
				</g>
			</g>
		</g>
		<g>
			<g class="st21">
				<path class="st22" d="M621.6,500.61l26.83-13.5c42.89,14.59,103.22,11.68,142.72-8.24c22.21-11.16,33.64-25.56,34.18-39.82
					s-9.82-28.37-31.2-38.96c-42.7-21.17-113.29-20.24-157.64,2.08c-22.21,11.16-33.64,25.56-34.18,39.82
					c-0.42,11.14,5.81,22.2,18.76,31.55l-26.83,13.51L621.6,500.61z M628.87,441.64c0.41-10.87,9.12-21.84,26.01-30.35
					c33.79-17.01,87.6-17.72,120.14-1.59c16.27,8.07,24.15,18.83,23.74,29.69c-0.41,10.87-9.11,21.84-26.01,30.35
					c-33.79,17.01-87.6,17.72-120.14,1.58C636.34,463.26,628.46,452.51,628.87,441.64z"/>
				<polygon class="st22" points="584.79,482.49 630.47,505.22 532.26,554.66 486.58,531.96 				"/>
			</g>
			<path class="st23" d="M635.04,422.18c0.41-10.87,9.11-21.84,26.01-30.35c33.79-17.01,87.6-17.72,120.14-1.59
				c16.27,8.07,24.15,18.83,23.74,29.69c-0.41,10.86-9.11,21.84-26.01,30.35c-33.79,17.01-87.6,17.72-120.14,1.58
				C642.51,443.81,634.63,433.05,635.04,422.18z"/>
			<path class="st12" d="M621.33,477.13l26.83-13.5c42.89,14.59,103.22,11.68,142.72-8.24c22.21-11.16,33.64-25.56,34.18-39.82
				s4.18-31.53-17.2-42.12c-42.7-21.17-116.51-31.41-188.48,2.05c-22.54,10.48-16.81,28.75-17.35,43.01
				c-0.42,11.14,5.81,22.2,18.76,31.55l-26.83,13.51L621.33,477.13z M653.88,438.33c-16.27-8.07-25.69-9.3-25.28-20.16
				c0.41-10.87,9.11-21.84,26.01-30.35c33.79-17.01,87.6-17.72,120.14-1.59c16.27,8.07,24.15,18.83,23.74,29.69
				c-0.41,10.87-11.18,13.25-28.07,21.76C736.63,454.69,686.42,454.46,653.88,438.33z"/>
			<ellipse class="st24" cx="715.58" cy="406.99" rx="87.71" ry="42.29"/>
			<path class="st25" d="M653.56,377.08c34.25-16.52,89.79-16.52,124.04,0c3.38,1.63,6.34,3.39,9.05,5.2
				c-1.8-0.49-59.88-10.64-85.4,15.51c-19.15,19.62-50.06,16.39-72.74,14.08C625.55,399.48,633.85,386.58,653.56,377.08z"/>
			<path class="st11" d="M621.33,458.25l26.83-13.5c42.89,14.59,103.22,11.68,142.72-8.24c22.21-11.16,33.64-25.56,34.18-39.82
				s-9.82-28.37-31.2-38.96c-42.7-21.17-113.29-20.24-157.64,2.08c-22.21,11.16-33.64,25.56-34.18,39.82
				c-0.42,11.14,5.81,22.2,18.76,31.55l-26.83,13.51L621.33,458.25z M652.34,428.97c-16.27-8.07-24.15-18.82-23.74-29.69
				c0.41-10.87,9.11-21.84,26.01-30.35c33.79-17.01,87.6-17.72,120.14-1.59c16.27,8.07,24.15,18.83,23.74,29.69
				c-0.41,10.87-9.11,21.84-26.01,30.35C738.69,444.4,684.88,445.11,652.34,428.97z"/>
			<polygon class="st26" points="629.73,462.66 629.73,486.19 531.52,535.63 531.52,512.1 			"/>
			<polygon class="st27" points="486.31,489.6 486.31,513.26 531.52,535.63 531.52,511.92 			"/>
			<polygon class="st28" points="630.19,462.86 584.52,440.13 486.31,489.6 531.99,512.3 			"/>
		</g>
		<g>
			<polygon class="st18" points="1187.8,414.32 1323.3,481.62 1323.3,362.13 1187.8,294.84 			"/>
			<g class="st29">
				<polygon class="st11" points="1336.52,356.36 1472.02,423.65 1472.02,304.16 1336.52,236.87 				"/>
				<polygon class="st11" points="1044.74,211.98 1180.24,279.28 1180.24,159.79 1044.74,92.5 				"/>
				<polygon class="st11" points="1191.4,284.09 1326.9,351.38 1326.9,231.89 1191.4,164.6 				"/>
				<polygon class="st11" points="1335.57,493.57 1471.07,560.86 1471.07,441.37 1335.57,374.08 				"/>
				<polygon class="st11" points="1043.78,349.19 1179.28,416.49 1179.28,297 1043.78,229.71 				"/>
			</g>
			<g>
				<polygon class="st12" points="1463.15,420.32 1469.38,416.67 1469.38,297.19 1333.88,229.89 1333.88,254.61 				"/>
				<polygon class="st12" points="1042.1,205.01 1171.1,275.88 1177.6,272.3 1177.6,152.81 1042.1,85.52 				"/>
				<polygon class="st12" points="1188.76,277.11 1317.76,347.98 1324.26,344.4 1324.26,224.92 1188.76,157.62 				"/>
				<polygon class="st12" points="1461.91,557.47 1468.43,553.89 1468.43,434.4 1332.93,367.11 				"/>
				<polygon class="st12" points="1041.14,342.22 1170.14,413.09 1176.64,409.51 1176.64,290.02 1041.14,222.73 				"/>
			</g>
			<g>
				<polygon class="st30" points="1327.39,352.96 1462.89,420.25 1462.89,300.77 1327.39,233.48 				"/>
				<polygon class="st30" points="1035.6,208.59 1171.1,275.88 1171.1,156.39 1035.6,89.1 				"/>
				<polygon class="st30" points="1182.26,280.69 1317.76,347.98 1317.76,228.5 1182.26,161.21 				"/>
				<polygon class="st30" points="1326.43,490.17 1461.93,557.47 1461.93,437.98 1326.43,370.69 				"/>
				<polygon class="st30" points="1034.65,345.8 1170.14,413.09 1170.14,293.6 1034.65,226.31 				"/>
			</g>
			<g>
				<polygon class="st2" points="1327.39,233.6 1333.88,229.89 1469.38,297.19 1462.89,300.77 				"/>
				<polygon class="st2" points="1317.76,228.5 1324.26,224.92 1188.76,157.62 1182.26,161.21 				"/>
				<polygon class="st2" points="1042.1,85.52 1035.6,89.1 1171.1,156.39 1177.6,152.81 				"/>
				<polygon class="st2" points="1176.64,290.02 1170.14,293.6 1034.65,226.31 1041.14,222.73 				"/>
				<polygon class="st2" points="1332.93,367.11 1326.43,370.69 1461.93,437.98 1468.43,434.4 				"/>
			</g>
			<g>
				<path class="st31" d="M1386.3,463.79c0,4.52,3.67,10.03,8.19,12.29s8.19,0.43,8.19-4.1c0-4.52-3.67-10.03-8.19-12.29
					C1389.96,457.43,1386.3,459.26,1386.3,463.79z"/>
				<polygon class="st32" points="1398.44,468.04 1382.6,475.97 1375.41,465.78 1391.25,457.86 				"/>
				<path class="st11" d="M1376.95,463.42c0,4.52,3.67,10.03,8.19,12.29c1.25,0.62,4.28,1.42,4.28,1.42l1.95-1.17
					c1.23-0.82,1.97-2.31,1.97-4.34c0-4.52-3.67-10.03-8.19-12.29c-2.16-1.08-4.12-1.23-5.58-0.6l-2.61,1.55
					C1376.95,460.27,1376.95,462.53,1376.95,463.42z"/>
				<path class="st12" d="M1374.99,464.61c0,4.52,3.67,10.03,8.19,12.29c4.52,2.26,8.19,0.43,8.19-4.1c0-4.52-3.67-10.03-8.19-12.29
					C1378.66,458.25,1374.99,460.08,1374.99,464.61z"/>
				
					<ellipse transform="matrix(0.7882 -0.6154 0.6154 0.7882 4.3912 950.1199)" class="st33" cx="1382.59" cy="468.68" rx="5.31" ry="8.7"/>
				
					<ellipse transform="matrix(0.7882 -0.6154 0.6154 0.7882 3.7111 949.6558)" class="st34" cx="1381.58" cy="469.44" rx="5.31" ry="8.7"/>
				<path class="st10" d="M1389.94,460.48c0,2.71,2.2,6.01,4.91,7.36c2.71,1.36,4.91,0.26,4.91-2.45s-2.2-6.01-4.91-7.36
					C1392.14,456.68,1389.94,457.77,1389.94,460.48z"/>
			</g>
			<g>
				<path class="st31" d="M1386.3,326.76c0,4.52,3.67,10.03,8.19,12.29c4.52,2.26,8.19,0.43,8.19-4.1c0-4.52-3.67-10.03-8.19-12.29
					S1386.3,322.23,1386.3,326.76z"/>
				<polygon class="st32" points="1398.44,331.01 1382.6,338.93 1375.41,328.75 1391.25,320.83 				"/>
				<path class="st11" d="M1376.95,326.39c0,4.52,3.67,10.03,8.19,12.29c1.25,0.62,4.28,1.42,4.28,1.42l1.95-1.17
					c1.23-0.82,1.97-2.31,1.97-4.34c0-4.52-3.67-10.03-8.19-12.29c-2.16-1.08-4.12-1.23-5.58-0.6l-2.61,1.55
					C1376.95,323.24,1376.95,325.5,1376.95,326.39z"/>
				<path class="st12" d="M1374.99,327.58c0,4.52,3.67,10.03,8.19,12.29c4.52,2.26,8.19,0.43,8.19-4.1s-3.67-10.03-8.19-12.29
					C1378.66,321.22,1374.99,323.05,1374.99,327.58z"/>
				<path class="st33" d="M1375.83,328.27c0,3.75,3.04,8.32,6.8,10.19c3.75,1.88,6.8,0.36,6.8-3.4s-3.04-8.32-6.8-10.19
					S1375.83,324.52,1375.83,328.27z"/>
				
					<ellipse transform="matrix(0.7882 -0.6154 0.6154 0.7882 88.0394 920.6351)" class="st34" cx="1381.58" cy="332.41" rx="5.31" ry="8.7"/>
				<path class="st10" d="M1389.94,323.45c0,2.71,2.2,6.01,4.91,7.36c2.71,1.36,4.91,0.26,4.91-2.45s-2.2-6.01-4.91-7.36
					C1392.14,319.64,1389.94,320.74,1389.94,323.45z"/>
			</g>
			<g>
				<path class="st31" d="M1237.35,252.27c0,4.52,3.67,10.03,8.19,12.29c4.52,2.26,8.19,0.43,8.19-4.1c0-4.52-3.67-10.03-8.19-12.29
					S1237.35,247.74,1237.35,252.27z"/>
				<polygon class="st32" points="1249.49,256.52 1233.65,264.44 1226.46,254.26 1242.3,246.34 				"/>
				<path class="st11" d="M1228,251.9c0,4.52,3.67,10.03,8.19,12.29c1.25,0.62,4.28,1.42,4.28,1.42l1.95-1.17
					c1.23-0.82,1.97-2.31,1.97-4.34c0-4.52-3.67-10.03-8.19-12.29c-2.16-1.08-4.12-1.23-5.58-0.6l-2.61,1.55
					C1228,248.75,1228,251.01,1228,251.9z"/>
				<path class="st12" d="M1226.04,253.09c0,4.52,3.67,10.03,8.19,12.29c4.52,2.26,8.19,0.43,8.19-4.1c0-4.52-3.67-10.03-8.19-12.29
					C1229.71,246.73,1226.04,248.56,1226.04,253.09z"/>
				<path class="st33" d="M1226.88,253.78c0,3.75,3.04,8.32,6.8,10.19c3.75,1.88,6.8,0.36,6.8-3.4c0-3.75-3.04-8.32-6.8-10.19
					S1226.88,250.03,1226.88,253.78z"/>
				
					<ellipse transform="matrix(0.7882 -0.6154 0.6154 0.7882 102.3401 813.1897)" class="st34" cx="1232.63" cy="257.91" rx="5.31" ry="8.7"/>
				<path class="st10" d="M1240.99,248.96c0,2.71,2.2,6.01,4.91,7.36c2.71,1.36,4.91,0.26,4.91-2.45s-2.2-6.01-4.91-7.36
					C1243.19,245.15,1240.99,246.25,1240.99,248.96z"/>
			</g>
			<g>
				<path class="st31" d="M1089.14,181.46c0,4.52,3.67,10.03,8.19,12.29c4.52,2.26,8.19,0.43,8.19-4.1s-3.67-10.03-8.19-12.29
					S1089.14,176.93,1089.14,181.46z"/>
				<polygon class="st32" points="1101.28,185.71 1085.44,193.63 1078.25,183.45 1094.09,175.53 				"/>
				<path class="st11" d="M1079.79,181.09c0,4.52,3.67,10.03,8.19,12.29c1.25,0.62,4.28,1.42,4.28,1.42l1.95-1.17
					c1.23-0.82,1.97-2.31,1.97-4.34c0-4.52-3.67-10.03-8.19-12.29c-2.16-1.08-4.12-1.23-5.58-0.6l-2.61,1.55
					C1079.79,177.94,1079.79,180.2,1079.79,181.09z"/>
				<path class="st12" d="M1077.83,182.27c0,4.52,3.67,10.03,8.19,12.29s8.19,0.43,8.19-4.1s-3.67-10.03-8.19-12.29
					C1081.5,175.92,1077.83,177.75,1077.83,182.27z"/>
				
					<ellipse transform="matrix(0.7882 -0.6154 0.6154 0.7882 115.1986 707.4568)" class="st33" cx="1085.44" cy="186.36" rx="5.31" ry="8.7"/>
				
					<ellipse transform="matrix(0.7882 -0.6154 0.6154 0.7882 114.5296 706.9807)" class="st34" cx="1084.41" cy="187.09" rx="5.31" ry="8.7"/>
				<path class="st10" d="M1092.78,178.15c0,2.71,2.2,6.01,4.91,7.36c2.71,1.36,4.91,0.26,4.91-2.45c0-2.71-2.2-6.01-4.91-7.36
					C1094.98,174.34,1092.78,175.44,1092.78,178.15z"/>
			</g>
			<g>
				<path class="st31" d="M1087.58,322.46c0,4.52,3.67,10.03,8.19,12.29c4.52,2.26,8.19,0.43,8.19-4.1c0-4.52-3.67-10.03-8.19-12.29
					S1087.58,317.93,1087.58,322.46z"/>
				<polygon class="st32" points="1099.72,326.71 1083.88,334.63 1076.69,324.45 1092.53,316.53 				"/>
				<path class="st11" d="M1078.23,322.09c0,4.52,3.67,10.03,8.19,12.29c1.25,0.62,4.28,1.42,4.28,1.42l1.95-1.17
					c1.23-0.82,1.97-2.31,1.97-4.34c0-4.52-3.67-10.03-8.19-12.29c-2.16-1.08-4.12-1.23-5.58-0.6l-2.61,1.55
					C1078.23,318.94,1078.23,321.2,1078.23,322.09z"/>
				<path class="st12" d="M1076.27,323.27c0,4.52,3.67,10.03,8.19,12.29c4.52,2.26,8.19,0.43,8.19-4.1c0-4.52-3.67-10.03-8.19-12.29
					C1079.94,316.92,1076.27,318.75,1076.27,323.27z"/>
				
					<ellipse transform="matrix(0.7882 -0.6154 0.6154 0.7882 28.0982 736.3592)" class="st33" cx="1083.88" cy="327.36" rx="5.31" ry="8.7"/>
				
					<ellipse transform="matrix(0.7882 -0.6154 0.6154 0.7882 27.4294 735.8834)" class="st34" cx="1082.85" cy="328.09" rx="5.31" ry="8.7"/>
				<path class="st10" d="M1091.22,319.15c0,2.71,2.2,6.01,4.91,7.36c2.71,1.36,4.91,0.26,4.91-2.45c0-2.71-2.2-6.01-4.91-7.36
					C1093.42,315.34,1091.22,316.44,1091.22,319.15z"/>
			</g>
			<g>
				<g class="st29">
					<path class="st12" d="M1471.99,622.39c-1.53-0.14-3.19-0.61-4.92-1.48l-130.58-65.16V511.4l135.5,67.29V622.39z"/>
					<polygon class="st12" points="1180.2,477.77 1044.7,410.16 1044.7,367.03 1180.2,434.32 					"/>
					<polygon class="st12" points="1191.36,483.34 1191.36,439.13 1326.86,506.42 1326.86,550.95 					"/>
				</g>
				<g>
					<path class="st12" d="M1468.43,571.53v49.93c-0.45-0.18-0.9-0.31-1.36-0.54l-102.17-50.98l-31.97-40.98v-24.71L1468.43,571.53z
						"/>
					<path class="st12" d="M1176.64,476l-132.72-66.23c-0.96-0.48-1.88-1.05-2.78-1.7v-48.21l135.5,67.29V476z"/>
					<polygon class="st12" points="1187.8,481.57 1187.8,431.97 1323.3,499.26 1323.3,549.18 					"/>
				</g>
				<g>
					<polygon class="st30" points="1326.43,550.74 1326.43,507.82 1461.93,575.11 1461.93,618.35 					"/>
					<path class="st30" d="M1034.64,363.44l135.5,67.29v42.02l-126.22-62.98c-3.64-1.81-6.92-4.94-9.28-8.52V363.44z"/>
					<polygon class="st30" points="1181.31,478.32 1181.31,435.55 1316.8,502.84 1316.8,545.94 					"/>
				</g>
				<g>
					<polygon class="st2" points="1326.43,507.95 1332.93,504.24 1468.43,571.53 1461.93,575.11 					"/>
					<polygon class="st2" points="1316.8,502.84 1323.3,499.26 1187.8,431.97 1181.3,435.55 					"/>
					<polygon class="st2" points="1041.14,359.86 1034.65,363.45 1170.14,430.74 1176.64,427.16 					"/>
				</g>
			</g>
		</g>
		<g>
			<g>
				<polygon class="st35" points="1323.58,574.34 1323.63,427.63 1223.22,519.47 1230.31,527.8 				"/>
			</g>
			<g>
				<polygon class="st35" points="1187.14,506.26 1323.63,574.37 1306.31,583.06 1299.4,579.65 1271.63,593.44 1271.75,599.72 
					1265.38,596.54 1237.86,610.49 1237.86,616.72 1231.32,613.44 1203.47,627.26 1203.49,633.46 1197.23,630.36 1169.4,644.17 
					1169.43,650.52 1167.53,649.57 1164.08,651.32 1164.08,647.85 1163.04,647.33 1151.05,653.28 1015.55,585.99 				"/>
			</g>
		</g>
		<g>
			<polygon class="st20" points="1323.35,481.25 1268.63,373.75 1008.65,504.15 1144.15,571.45 			"/>
			<polygon class="st2" points="1232.92,391.79 1023.74,495.32 1023.74,423.5 1232.92,319.96 			"/>
			<polygon class="st10" points="1235.49,393.97 1032.3,495.32 1032.3,423.5 1235.49,322.14 			"/>
			<g>
				<polygon class="st36" points="1191.56,415.89 1287.63,466.91 1236.88,319.7 1191.56,319.7 				"/>
				<polygon class="st37" points="1202.6,410.71 1301.78,461.1 1306,356.06 1202.6,319.7 				"/>
				<polygon class="st38" points="1209.43,407.18 1302.77,453.38 1237.87,319.7 1209.43,319.7 				"/>
				<polygon class="st38" points="1215.63,403.84 1310.38,450.04 1237.87,319.7 1215.63,319.7 				"/>
				<polygon class="st38" points="1220.24,402.54 1310.38,446.86 1237.87,319.7 1220.24,319.7 				"/>
				<polygon class="st38" points="1223.65,399.86 1312.23,446.86 1237.87,319.7 1223.65,319.7 				"/>
				<polygon class="st39" points="1225.94,398.02 1316.67,445.43 1287.63,345.89 1226.75,319.7 				"/>
			</g>
			<g>
				<g>
					<g>
						<polygon class="st40" points="1323.3,472.15 1225.05,418.17 1225.05,318.8 1323.3,367.59 						"/>
						<polygon class="st41" points="1323.3,472.63 1219.64,421.15 1219.64,321.77 1323.3,373.25 						"/>
						<polygon class="st40" points="1323.3,373.25 1219.64,321.77 1225.05,318.8 1323.3,367.59 						"/>
					</g>
					<g>
						<polygon class="st41" points="1209.43,422.76 1316.72,481.7 1322.12,478.72 1322.12,379.35 1209.43,323.38 						"/>
						<polygon class="st40" points="1204.02,425.74 1316.72,481.7 1316.72,382.33 1204.02,326.36 						"/>
						<polygon class="st42" points="1209.43,323.38 1204.02,326.36 1316.72,382.33 1322.12,379.35 						"/>
					</g>
					<g>
						<polygon class="st41" points="1200.65,429.81 1307.94,488.75 1313.35,485.77 1313.35,386.4 1200.65,330.43 						"/>
						<polygon class="st42" points="1195.25,432.78 1307.94,488.75 1307.94,389.37 1195.25,333.41 						"/>
						<polygon class="st43" points="1200.65,330.43 1195.25,333.41 1307.94,389.37 1313.35,386.4 						"/>
					</g>
				</g>
				<g>
					<polygon class="st40" points="1185.8,433.31 1293.09,492.25 1298.5,489.27 1298.5,389.9 1185.8,333.93 					"/>
					<polygon class="st43" points="1180.4,436.29 1293.09,492.25 1293.09,392.88 1180.4,336.91 					"/>
					<polygon class="st44" points="1185.8,333.93 1180.4,336.91 1293.09,392.88 1298.5,389.9 					"/>
				</g>
				<g>
					<polygon class="st40" points="1177.6,438.39 1284.89,497.33 1290.29,494.35 1290.29,394.98 1177.6,339.01 					"/>
					<polygon class="st44" points="1172.19,441.37 1284.89,497.33 1284.89,397.96 1172.19,341.99 					"/>
					<polygon class="st45" points="1177.6,339.01 1172.19,341.99 1284.89,397.96 1290.29,394.98 					"/>
				</g>
				<g>
					<polygon class="st40" points="1166.59,446.51 1273.88,505.45 1279.29,502.47 1279.29,403.1 1166.59,347.13 					"/>
					<polygon class="st45" points="1161.19,449.49 1273.88,505.45 1273.88,406.08 1161.19,350.11 					"/>
					<polygon class="st46" points="1166.59,347.13 1161.19,350.11 1273.88,406.08 1279.29,403.1 					"/>
				</g>
				<g>
					<polygon class="st42" points="1154.12,448 1261.41,506.94 1266.82,503.96 1266.82,404.59 1154.12,348.62 					"/>
					<polygon class="st47" points="1148.72,450.98 1261.41,506.94 1261.41,407.57 1148.72,351.6 					"/>
					<polygon class="st48" points="1154.12,348.62 1148.72,351.6 1261.41,407.57 1266.82,404.59 					"/>
				</g>
				<g>
					<polygon class="st43" points="1142.42,454.04 1249.71,512.98 1255.11,510.01 1255.11,410.63 1142.42,354.66 					"/>
					<polygon class="st49" points="1137.01,457.02 1249.71,512.98 1249.71,413.61 1137.01,357.64 					"/>
					<polygon class="st2" points="1142.42,354.66 1137.01,357.64 1249.71,413.61 1255.11,410.63 					"/>
				</g>
				<g>
					<polygon class="st50" points="1132.72,462.82 1240.01,521.77 1245.41,518.79 1245.41,419.41 1132.72,363.44 					"/>
					<polygon class="st49" points="1127.31,465.8 1240.01,521.77 1240.01,422.39 1127.31,366.42 					"/>
					<polygon class="st2" points="1132.72,363.44 1127.31,366.42 1240.01,422.39 1245.41,419.41 					"/>
				</g>
				<g>
					<polygon class="st51" points="1123.95,467.08 1231.24,526.02 1236.65,523.05 1236.65,423.67 1123.95,367.7 					"/>
					<polygon class="st49" points="1118.55,470.06 1231.24,526.02 1231.24,426.65 1118.55,370.68 					"/>
					<polygon class="st2" points="1123.95,367.7 1118.55,370.68 1231.24,426.65 1236.65,423.67 					"/>
				</g>
				<g>
					<polygon class="st52" points="1112.36,464.31 1219.64,523.25 1225.05,520.28 1225.05,420.9 1112.36,364.93 					"/>
					<polygon class="st53" points="1106.95,467.29 1219.64,523.25 1219.64,423.88 1106.95,367.91 					"/>
					<polygon class="st2" points="1112.36,364.93 1106.95,367.91 1219.64,423.88 1225.05,420.9 					"/>
				</g>
			</g>
			<polygon class="st2" points="1323.35,479 1145.9,567.13 1145.9,495.3 1323.35,407.18 			"/>
			<polygon class="st12" points="1323.3,481.62 1145.9,570.52 1145.9,498.69 1323.35,410.71 			"/>
			<g>
				<polygon class="st12" points="1015.14,500.73 1144.15,571.61 1150.64,568.02 1150.64,448.54 1015.14,381.24 				"/>
				<polygon class="st30" points="1008.65,504.31 1144.15,571.61 1144.15,452.12 1008.65,384.83 				"/>
				<polygon class="st2" points="1015.14,381.24 1008.65,384.83 1144.15,452.12 1150.64,448.54 				"/>
			</g>
		</g>
		<g>
			<path class="st31" d="M1065.59,496.69c0,4.52,3.67,10.03,8.19,12.29c4.52,2.26,8.19,0.43,8.19-4.1c0-4.52-3.67-10.03-8.19-12.29
				S1065.59,492.17,1065.59,496.69z"/>
			<polygon class="st54" points="1077.73,500.94 1061.89,508.87 1054.7,498.68 1070.54,490.76 			"/>
			<path class="st55" d="M1056.24,496.32c0,4.52,3.67,10.03,8.19,12.29c1.25,0.62,4.28,1.42,4.28,1.42l1.95-1.17
				c1.23-0.82,1.97-2.31,1.97-4.34c0-4.52-3.67-10.03-8.19-12.29c-2.16-1.08-4.12-1.23-5.58-0.6l-2.61,1.55
				C1056.24,493.17,1056.24,495.43,1056.24,496.32z"/>
			<path class="st20" d="M1054.28,497.51c0,4.52,3.67,10.03,8.19,12.29c4.52,2.26,8.19,0.43,8.19-4.1c0-4.52-3.67-10.03-8.19-12.29
				C1057.95,491.15,1054.28,492.98,1054.28,497.51z"/>
			<path class="st33" d="M1055.12,498.21c0,3.75,3.04,8.32,6.8,10.19c3.75,1.88,6.8,0.36,6.8-3.4c0-3.75-3.04-8.32-6.8-10.19
				C1058.16,492.93,1055.12,494.45,1055.12,498.21z"/>
			<path class="st56" d="M1054.09,498.95c0,3.75,3.04,8.32,6.8,10.19c3.75,1.88,6.8,0.36,6.8-3.4s-3.04-8.32-6.8-10.19
				C1057.14,493.68,1054.09,495.2,1054.09,498.95z"/>
			<path class="st10" d="M1069.23,493.39c0,2.71,2.2,6.01,4.91,7.36c2.71,1.36,4.91,0.26,4.91-2.45s-2.2-6.01-4.91-7.36
				C1071.43,489.58,1069.23,490.68,1069.23,493.39z"/>
		</g>
	</g>
</g>
<g id="Capa_2">
</g>
</svg>
