<svg width="20" height="19" viewBox="0 0 20 19" fill="none" xmlns="http://www.w3.org/2000/svg">
<path d="M18.8356 9.4161L18.8355 9.4161C18.8236 10.7263 18.5758 11.9096 18.0384 13.0328C18.0045 13.1041 17.9861 13.1618 17.9808 13.2164C17.9757 13.2693 17.9822 13.3275 18.01 13.4006L17.8698 13.454M18.8356 9.4161L18.3977 17.2354C18.6408 17.2858 18.8634 17.2118 19.0042 17.0516C19.1447 16.8919 19.1896 16.6627 19.1126 16.4329L19.1123 16.432C19.0493 16.2479 18.9825 16.0659 18.9164 15.8857L18.9164 15.8857C18.9163 15.8855 18.9162 15.8854 18.9162 15.8852C18.8444 15.686 18.7729 15.4864 18.7014 15.2865C18.4762 14.6572 18.2502 14.0257 18.0098 13.4001L17.8698 13.454M18.8356 9.4161L18.8354 9.41116M18.8356 9.4161L18.8354 9.41116M17.8698 13.454C18.1095 14.0778 18.3347 14.707 18.5597 15.3359C18.6314 15.5362 18.7031 15.7365 18.7752 15.9366L18.6855 9.41474C18.6738 10.7059 18.4298 11.8673 17.903 12.9683C17.8269 13.1283 17.7995 13.2695 17.8698 13.454ZM18.8354 9.41116C18.8216 8.83055 18.7543 8.176 18.5971 7.52376C18.3925 6.67094 18.0606 5.86798 17.6039 5.11341L17.6039 5.11333C17.034 4.17289 16.3032 3.36282 15.4185 2.68544C15.1719 2.49558 14.9157 2.32134 14.6502 2.15887L14.65 2.15877C10.7099 -0.244747 5.33402 0.759842 2.5919 4.3719C1.51922 5.78211 0.961099 7.37517 0.861908 9.11068C0.810078 10.0069 0.92987 10.8914 1.17369 11.7537L1.17373 11.7538L18.8354 9.41116ZM15.2569 15.3362C15.3154 15.355 15.374 15.3719 15.4325 15.387C15.9847 15.53 16.537 15.6731 17.0912 15.8142C17.2503 15.8554 17.4115 15.8935 17.5815 15.9337C17.59 15.9357 17.5985 15.9377 17.607 15.9397C17.6061 15.9369 17.6053 15.9342 17.6045 15.9315C17.5858 15.8703 17.5707 15.8204 17.5544 15.7731M15.2569 15.3362L15.3041 15.1938C15.3038 15.1937 15.3036 15.1936 15.3034 15.1936M15.2569 15.3362L15.3028 15.1934C15.303 15.1934 15.3032 15.1935 15.3034 15.1936M15.2569 15.3362C15.0695 15.2741 14.9076 15.3136 14.7554 15.4322L12.624 2.5231M15.3034 15.1936C15.3589 15.2114 15.4144 15.2275 15.4699 15.2417L15.4701 15.2418C16.0224 15.3848 16.5744 15.5278 17.1282 15.6689L17.1287 15.669C17.2674 15.7049 17.4073 15.7383 17.5544 15.7731M15.3034 15.1936C15.0624 15.1139 14.8492 15.169 14.6633 15.3137C13.8655 15.9337 12.968 16.3788 11.9849 16.6542L11.9847 16.6542C11.0792 16.9091 10.147 16.9959 9.21046 16.9165L9.21039 16.9164C7.93904 16.8092 6.75816 16.4323 5.68276 15.7623C4.38349 14.9509 3.4161 13.8716 2.78089 12.5115L2.78078 12.5113C2.31638 11.5214 2.09671 10.4843 2.11198 9.40197C2.13684 7.77106 2.65631 6.29866 3.67462 4.99151L3.67465 4.99148C4.43572 4.01392 5.39591 3.26991 6.53678 2.73909C7.10251 2.47734 7.69756 2.29084 8.31659 2.17253L8.31692 2.17247C8.9882 2.0426 9.66324 1.98216 10.3376 2.03359C11.1242 2.09481 11.8884 2.24483 12.624 2.5231M17.5544 15.7731C17.5492 15.7578 17.5438 15.7427 17.5381 15.7276L17.5375 15.7261C17.446 15.4735 17.3536 15.2207 17.261 14.9676C17.068 14.4399 16.8745 13.9108 16.6883 13.3799L12.6771 2.38282C13.8655 2.83267 14.8881 3.51026 15.7369 4.42878C16.4414 5.18919 16.9722 6.05124 17.3039 7.01681C17.4494 7.44165 17.5405 7.88642 17.6305 8.32623L17.6356 8.3513C17.7703 9.0063 17.7566 9.67072 17.6844 10.3295C17.6103 10.9883 17.4542 11.6339 17.1888 12.2475C17.1415 12.3574 17.0898 12.4655 17.0382 12.5736C16.9705 12.7153 16.9029 12.857 16.8453 13.0022M17.5544 15.7731C17.5744 15.7779 17.5945 15.7826 17.6147 15.7874C17.651 15.796 17.6878 15.8047 17.7252 15.8136C17.7098 15.764 17.6952 15.7193 17.6786 15.675C17.5867 15.4214 17.4941 15.1681 17.4014 14.9147C17.2085 14.3874 17.0155 13.8599 16.8297 13.3297C16.7946 13.2319 16.8063 13.1001 16.8453 13.0022M16.8453 13.0022L16.706 12.9467C16.706 12.9467 16.7059 12.9468 16.7059 12.9468M16.8453 13.0022L16.7059 12.947C16.7059 12.9469 16.7059 12.9469 16.7059 12.9468M12.624 2.5231C13.7916 2.96509 14.7944 3.62989 15.6268 4.53058L15.6269 4.53072C16.3181 5.27687 16.8375 6.12103 17.162 7.06543C17.3044 7.48106 17.3938 7.91769 17.4844 8.36052L17.4887 8.38138L17.4887 8.3815C17.619 9.01512 17.6066 9.66217 17.5354 10.3127C17.4626 10.9591 17.3097 11.5899 17.0511 12.1879L17.051 12.1882C17.005 12.2952 16.9547 12.4004 16.903 12.5086C16.8949 12.5256 16.8868 12.5425 16.8787 12.5596C16.8191 12.6847 16.7587 12.8138 16.7059 12.9468" fill="#B8BDC9" stroke="#B8BDC9" strokeWidth="0.3" stroke-miterlimit="10"/>
<path d="M5.66206 9.1001C6.63692 9.1001 7.61178 9.1001 8.58856 9.1001C10.1449 9.1001 11.7012 9.1001 13.2575 9.1001C13.6183 9.1001 13.9772 9.1001 14.3379 9.1001C14.6949 9.1001 15 8.75445 15 8.3501C15 7.94358 14.6968 7.6001 14.3379 7.6001C13.3631 7.6001 12.3882 7.6001 11.4114 7.6001C9.85511 7.6001 8.29879 7.6001 6.74247 7.6001C6.38169 7.6001 6.02284 7.6001 5.66206 7.6001C5.30512 7.6001 5 7.94575 5 8.3501C5 8.75662 5.3032 9.1001 5.66206 9.1001Z" fill="#B8BDC9"/>
<path d="M6.52965 12.5C7.30954 12.5 8.08943 12.5 8.87085 12.5C10.1159 12.5 11.361 12.5 12.606 12.5C12.8946 12.5 13.1817 12.5 13.4704 12.5C13.7559 12.5 14 12.1543 14 11.75C14 11.3435 13.7574 11 13.4704 11C12.6905 11 11.9106 11 11.1291 11C9.88409 11 8.63903 11 7.39397 11C7.10535 11 6.81827 11 6.52965 11C6.2441 11 6 11.3457 6 11.75C6 12.1565 6.24256 12.5 6.52965 12.5Z" fill="#B8BDC9"/>
</svg>
