<svg width="21" height="20" fill="none" xmlns="http://www.w3.org/2000/svg"><path d="M18.552 12.29a.5.5 0 0 0-.5.5v4.445c-.001.829-.673 1.501-1.502 1.502H2.503c-.83-.001-1.5-.673-1.502-1.502V4.189c.001-.829.673-1.5 1.502-1.502h4.445a.5.5 0 1 0 0-1H2.503A2.506 2.506 0 0 0 0 4.188v13.046a2.506 2.506 0 0 0 2.503 2.503H16.55a2.506 2.506 0 0 0 2.503-2.503V12.79a.5.5 0 0 0-.5-.5z" fill="#00B3C7"/><path d="M18.855.66a2.253 2.253 0 0 0-3.186 0L6.737 9.59a.5.5 0 0 0-.128.22l-1.175 4.24a.5.5 0 0 0 .616.617l4.24-1.175a.5.5 0 0 0 .22-.128l8.932-8.932a2.255 2.255 0 0 0 0-3.186L18.855.66zM7.828 9.917l7.31-7.31 2.357 2.357-7.31 7.31-2.357-2.357zm-.47.944l1.883 1.884-2.606.722.722-2.606zm11.376-7.136l-.53.531L15.845 1.9l.53-.531a1.251 1.251 0 0 1 1.77 0l.588.587c.488.49.488 1.281 0 1.77z" fill="#00B3C7"/><path d="M18.855.66a2.253 2.253 0 0 0-3.186 0L6.737 9.59a.5.5 0 0 0-.128.22l-1.175 4.24a.5.5 0 0 0 .616.617l4.24-1.175a.5.5 0 0 0 .22-.128l8.932-8.932a2.255 2.255 0 0 0 0-3.186L18.855.66zM7.828 9.917l7.31-7.31 2.357 2.357-7.31 7.31-2.357-2.357zm-.47.944l1.883 1.884-2.606.722.722-2.606zm11.376-7.136l-.53.531L15.845 1.9l.53-.531a1.251 1.251 0 0 1 1.77 0l.588.587c.488.49.488 1.281 0 1.77z" stroke="#00B3C7"/></svg>