<svg width="185" height="49" fill="none" xmlns="http://www.w3.org/2000/svg"><path d="M18.432 0c-3.608 0-6.537 2.924-6.537 6.526s2.93 6.526 6.537 6.526c3.608 0 6.537-2.924 6.537-6.526C25.005 2.924 22.04 0 18.432 0z" fill="#fff"/><path d="M18.432 0c-3.608 0-6.537 2.924-6.537 6.526s2.93 6.526 6.537 6.526c3.608 0 6.537-2.924 6.537-6.526C25.005 2.924 22.04 0 18.432 0zm78.122 2.853h-9.073v45.113h9.073V2.853z" fill="#fff"/><path d="M96.554 2.853h-9.073v45.113h9.073V2.853z" fill="#fff"/><path d="M61.726 11.804c10.252 0 18.397 8.31 18.397 18.58 0 1.594-.286 3.045-.423 3.743l-.003.015-.039.2s-25.505-.178-27.112-.178c.428 1.605 1.357 2.818 2.322 3.888 1.964 2.14 4.465 3.28 7.251 3.28 2.286 0 4.608-.89 6.43-2.46l6.537 4.386c-3.394 3.638-8.252 5.706-13.36 5.706-10.252 0-18.61-8.309-18.61-18.58 0-10.235 8.322-18.58 18.61-18.58zm-9.359 15.3a6.14 6.14 0 0 0-.065.28 13.31 13.31 0 0 0-.042.219l19.682.035-.142-.463c-.465-1.748-1.322-3.317-2.5-4.565-1.858-2.033-4.466-3.21-7.18-3.21-2.716 0-5.288 1.142-7.288 3.21-1.036 1.248-2 2.817-2.465 4.493z" fill="#fff"/><path d="M61.726 11.804c10.252 0 18.397 8.31 18.397 18.58 0 1.594-.286 3.045-.423 3.743l-.003.015-.039.2s-25.505-.178-27.112-.178c.428 1.605 1.357 2.818 2.322 3.888 1.964 2.14 4.465 3.28 7.251 3.28 2.286 0 4.608-.89 6.43-2.46l6.537 4.386c-3.394 3.638-8.252 5.706-13.36 5.706-10.252 0-18.61-8.309-18.61-18.58 0-10.235 8.322-18.58 18.61-18.58zm-9.359 15.3a6.14 6.14 0 0 0-.065.28 13.31 13.31 0 0 0-.042.219l19.682.035-.142-.463c-.465-1.748-1.322-3.317-2.5-4.565-1.858-2.033-4.466-3.21-7.18-3.21-2.716 0-5.288 1.142-7.288 3.21-1.036 1.248-2 2.817-2.465 4.493z" fill="#fff"/><path d="M36.864 30.527c0 10.2-8.251 18.473-18.396 18.473C8.752 49 .572 41.19 0 31.526h9.68c.25 1.96 1.108 3.744 2.5 5.135 1.68 1.676 3.966 2.639 6.288 2.639 2.286 0 4.465-.927 6.18-2.64 1.678-1.675 2.572-3.78 2.572-6.169V13.266h9.644v17.261z" fill="#fff"/><path d="M36.864 30.527c0 10.2-8.251 18.473-18.396 18.473C8.752 49 .572 41.19 0 31.526h9.68c.25 1.96 1.108 3.744 2.5 5.135 1.68 1.676 3.966 2.639 6.288 2.639 2.286 0 4.465-.927 6.18-2.64 1.678-1.675 2.572-3.78 2.572-6.169V13.266h9.644v17.261zM185 30.42c0 9.878-8.573 18.58-18.361 18.58-9.787 0-18.396-8.702-18.396-18.616V13.052h9.109V30.1c0 2.603.929 5.242 2.572 7.275 1.857 1.962 4.322 3.103 6.715 3.103 2.394 0 4.894-1.177 6.68-3.139 1.643-1.925 2.608-4.564 2.608-7.239V13.052H185V30.42z" fill="#fff"/><path d="M185 30.42c0 9.878-8.573 18.58-18.361 18.58-9.787 0-18.396-8.702-18.396-18.616V13.052h9.109V30.1c0 2.603.929 5.242 2.572 7.275 1.857 1.962 4.322 3.103 6.715 3.103 2.394 0 4.894-1.177 6.68-3.139 1.643-1.925 2.608-4.564 2.608-7.239V13.052H185V30.42z" fill="#fff"/><path d="M102.948 30.456c0-10.2 8.716-18.51 19.397-18.51 10.752 0 19.504 8.31 19.468 18.51 0 10.377-8.537 18.508-19.468 18.508-5.215 0-10.109-1.89-13.753-5.385-3.643-3.495-5.644-8.13-5.644-13.123zm19.504 11.02c2.858 0 5.358-1.07 7.502-3.21 1.929-2.104 2.964-4.886 2.964-7.846 0-2.924-1.071-5.599-3-7.632-2.072-2.175-4.608-3.28-7.502-3.28-2.821 0-5.501 1.212-7.287 3.245-2.036 1.961-3.179 4.707-3.179 7.738 0 3.032 1.108 5.742 3.144 7.775 1.857 2.032 4.536 3.21 7.358 3.21z" fill="#fff"/><path d="M102.948 30.456c0-10.2 8.716-18.51 19.397-18.51 10.752 0 19.504 8.31 19.468 18.51 0 10.377-8.537 18.508-19.468 18.508-5.215 0-10.109-1.89-13.753-5.385-3.643-3.495-5.644-8.13-5.644-13.123zm19.504 11.02c2.858 0 5.358-1.07 7.502-3.21 1.929-2.104 2.964-4.886 2.964-7.846 0-2.924-1.071-5.599-3-7.632-2.072-2.175-4.608-3.28-7.502-3.28-2.821 0-5.501 1.212-7.287 3.245-2.036 1.961-3.179 4.707-3.179 7.738 0 3.032 1.108 5.742 3.144 7.775 1.857 2.032 4.536 3.21 7.358 3.21z" fill="#fff"/></svg>