<svg width="117" height="111" viewBox="0 0 117 111" fill="none" xmlns="http://www.w3.org/2000/svg">
<path d="M88.6817 53.3004C88.9855 53.04 89.2345 51.5313 89.1787 49.8242C90.5809 49.3747 91.8891 48.7258 93.0723 47.9105C94.1408 48.9542 95.3766 49.9441 96.0989 49.786C97.5642 49.4667 99.9202 46.1342 99.9698 45.4997C100.001 45.0936 99.076 43.8123 97.7936 42.6271C98.4642 41.3726 98.9613 40.0138 99.2506 38.5847C100.747 38.5681 102.328 38.3945 102.729 37.7704C103.54 36.5077 102.849 32.4859 102.435 32.0034C102.176 31.7006 100.676 31.4516 98.9757 31.5063C98.5665 30.0669 97.9496 28.7194 97.1591 27.497C98.1604 26.4564 99.0739 25.2826 98.923 24.5861C98.6037 23.1208 95.2712 20.7648 94.6368 20.7152C94.2596 20.6853 93.124 21.483 92.0131 22.6269C90.6894 21.8695 89.2417 21.3084 87.7114 20.986C87.6649 19.6344 87.4685 18.3169 86.9074 17.9562C85.6447 17.1451 81.623 17.8364 81.1404 18.2497C80.8687 18.4832 80.6393 19.7191 80.6351 21.2019C79.0624 21.6349 77.5971 22.3148 76.2838 23.1983C75.3393 22.3365 74.3432 21.6287 73.7242 21.7641C72.2589 22.0834 69.9029 25.4159 69.8533 26.0503C69.8265 26.3996 70.5064 27.3968 71.5129 28.4229C70.742 29.8251 70.1943 31.3627 69.9071 32.985C68.634 33.0439 67.4353 33.2485 67.0933 33.7807C66.2821 35.0434 66.9734 39.0652 67.3868 39.5477C67.6203 39.8205 68.8624 40.0499 70.3493 40.052C70.8267 41.5844 71.5449 43.0032 72.4532 44.2752C71.5387 45.2579 70.7596 46.3171 70.8991 46.964C71.2184 48.4292 74.5509 50.7852 75.1853 50.8348C75.5646 50.8648 76.7095 50.0588 77.8245 48.9056C79.1523 49.5845 80.5907 50.0691 82.1035 50.3254C82.1335 51.7576 82.3205 53.2125 82.9147 53.5938C84.1774 54.405 88.1991 53.7137 88.6817 53.3004ZM77.9402 35.9404C77.7532 32.2565 80.5866 29.1183 84.2714 28.9302C87.9552 28.7422 91.0935 31.5776 91.2815 35.2615C91.4696 38.9453 88.6352 42.0835 84.9503 42.2716C81.2675 42.4586 78.1283 39.6232 77.9402 35.9404Z" fill="#EBEBEB"/>
<path d="M75.2691 36.1284C75.0025 30.8946 79.0448 26.4193 84.2787 26.1527C89.5125 25.8861 93.9879 29.9285 94.2555 35.1623C94.5221 40.3961 90.4797 44.8715 85.2459 45.1381C80.01 45.4057 75.5346 41.3643 75.2691 36.1284ZM94.1201 35.1705C93.8577 30.0111 89.4464 26.0256 84.2859 26.2891C79.1265 26.5515 75.1409 30.9628 75.4044 36.1233C75.6679 41.2837 80.0782 45.2683 85.2386 45.0048C90.3981 44.7413 94.3826 40.33 94.1201 35.1705Z" fill="white"/>
<path d="M88.1929 48.979C88.197 48.916 88.2022 48.8529 88.2084 48.7909C87.2691 49.0503 86.2884 49.2156 85.2768 49.2663C77.7727 49.6486 71.3558 43.8536 70.9745 36.3485C70.7244 31.435 73.1238 26.9876 76.9151 24.396C76.9151 24.3949 76.9151 24.3949 76.914 24.3939C76.8975 24.334 76.8831 24.272 76.8707 24.211C72.9967 26.8315 70.5425 31.3555 70.7967 36.3568C71.1832 43.959 77.6829 49.8294 85.2851 49.443C86.2895 49.3913 87.2608 49.2311 88.1929 48.979Z" fill="white"/>
<path d="M94.9199 26.7861C96.8223 28.9984 98.0354 31.8298 98.1946 34.9628C98.1977 35.0238 98.1977 35.0848 98.1997 35.1457C98.2576 35.1209 98.3165 35.0992 98.3744 35.0775C98.3723 35.0362 98.3733 34.9959 98.3712 34.9535C98.2111 31.7936 96.9918 28.9354 95.077 26.6982C95.0264 26.7292 94.9737 26.7582 94.9199 26.7861Z" fill="white"/>
<path d="M65.6156 110.503C93.7663 110.503 116.587 108.443 116.587 105.903C116.587 103.363 93.7663 101.304 65.6156 101.304C37.465 101.304 14.6444 103.363 14.6444 105.903C14.6444 108.443 37.465 110.503 65.6156 110.503Z" fill="#F1F2F3"/>
<path d="M42.221 72.916C42.221 72.916 32.1336 52.6141 16.1913 52.0623C6.25271 68.4706 22.8656 82.338 22.8656 82.338L41.7973 88.2218L42.221 72.916Z" fill="#EEEEEE"/>
<path d="M32.1997 59.6037L28.5211 68.9585L16.5695 52.0821C16.4434 52.0748 16.3195 52.0645 16.1944 52.0604C16.1552 52.1244 16.12 52.1885 16.0818 52.2536L22.4812 61.2911L13.1926 60.3053C13.1823 60.3932 13.1709 60.482 13.1616 60.5668L13.1378 60.8003L22.8646 61.8326L33.5286 76.8945L17.174 75.6844C17.2887 75.8611 17.4065 76.0399 17.5212 76.2114L33.9006 77.4235L41.4749 88.1196L41.7942 88.2177L41.8076 87.7259L28.86 69.4421L32.5862 59.9716C32.4601 59.8527 32.3299 59.7277 32.1997 59.6037Z" fill="white"/>
<path d="M37.7322 82.7907C37.7322 82.7907 21.0583 73.8492 11.4059 82.1159C15.376 107.759 48.2753 104.521 48.2753 104.521L37.7322 82.7907Z" fill="#F7F7F7"/>
<path d="M11.4039 82.1178C11.4194 82.216 11.4359 82.3131 11.4514 82.4113L34.9008 92.7456L22.538 99.206C22.7044 99.3094 22.8718 99.4106 23.0382 99.5078L35.4857 93.004L44.6441 97.0412L44.3062 96.3478L26.475 88.4893L22.5866 78.6231C22.4068 78.6189 22.226 78.6148 22.0472 78.6138L25.8271 88.2021L11.6188 81.9411C11.5475 81.999 11.4741 82.0558 11.4039 82.1178Z" fill="white"/>
<path d="M74.3525 105.878L35.7296 105.506C31.7626 105.468 28.5789 102.221 28.6172 98.2555L29.4345 13.3837C29.4728 9.41677 32.7195 6.23307 36.6854 6.27131L75.3083 6.64331C79.2753 6.68154 82.459 9.92827 82.4208 13.8942L81.6034 98.766C81.5652 102.732 78.3184 105.917 74.3525 105.878Z" fill="#BABABA"/>
<path d="M77.2664 105.879L38.6435 105.507C34.6766 105.469 31.4929 102.223 31.5311 98.2566L32.3485 13.3848C32.3867 9.41781 35.6334 6.23411 39.5994 6.27234L78.2223 6.64434C82.1892 6.68258 85.3729 9.92931 85.3347 13.8952L84.5173 98.7671C84.4791 102.733 81.2324 105.918 77.2664 105.879Z" fill="#D8D8D8"/>
<path d="M35.0641 12.8578C35.0858 10.5814 36.9489 8.75339 39.2254 8.77612L78.7235 9.15639C80.9999 9.17809 82.8279 11.0412 82.8052 13.3176L81.9785 99.1039C81.9568 101.38 80.0937 103.208 77.8173 103.186L38.3191 102.805C36.0427 102.784 34.2147 100.921 34.2375 98.6441L35.0641 12.8578Z" fill="white"/>
<path d="M65.842 79.2267C65.842 79.2267 66.9073 80.4698 66.9073 81.3585C66.9073 82.2461 67.0851 82.957 66.6407 83.0459C66.1964 83.1347 62.4671 83.1347 61.8451 82.7793C61.223 82.4238 60.9574 81.5362 61.223 80.6475C61.4896 79.7599 61.9102 79.2835 61.9102 79.2835L65.842 79.2267Z" fill="#D0D0D0"/>
<path d="M67.1739 81.8018C67.1739 81.8018 64.9533 82.6006 63.4446 82.1573C61.936 81.714 61.4369 80.8005 61.3304 80.3241C61.224 79.8478 60.4252 80.8253 60.4252 80.8253C60.4252 80.8253 60.3364 82.2461 60.4252 82.335C60.5141 82.4239 61.4017 83.8447 61.5795 83.8447C61.7572 83.8447 64.2434 84.2002 64.3323 84.1113C64.4211 84.0224 66.0197 83.4892 66.1086 83.4892C66.1974 83.4892 67.4405 83.9336 67.4405 83.9336C67.4405 83.9336 68.1515 83.4892 68.0626 83.3115C67.9737 83.1338 67.2638 81.9795 67.2638 81.9795L67.1739 81.8018Z" fill="#B0B0B0"/>
<path d="M58.4702 79.5243C58.4702 79.5243 59.5355 80.7674 59.5355 81.6561C59.5355 82.5437 59.7133 83.2546 59.2689 83.3435C58.8246 83.4324 55.0953 83.4324 54.4732 83.0769C53.8512 82.7214 53.5856 81.8338 53.8512 80.9451C54.1178 80.0575 54.5383 79.5811 54.5383 79.5811L58.4702 79.5243Z" fill="#D0D0D0"/>
<path d="M59.8032 82.1004C59.8032 82.1004 57.5825 82.8992 56.0739 82.4559C54.5652 82.0126 54.0661 81.0991 53.9597 80.6227C53.8532 80.1464 53.0544 81.1239 53.0544 81.1239C53.0544 81.1239 52.9656 82.5447 53.0544 82.6336C53.1433 82.7225 54.031 84.1433 54.2087 84.1433C54.3864 84.1433 56.8726 84.4988 56.9615 84.4099C57.0504 84.321 58.6489 83.7878 58.7378 83.7878C58.8267 83.7878 60.0698 84.2322 60.0698 84.2322C60.0698 84.2322 60.7807 83.7878 60.6918 83.6101C60.603 83.4324 59.8931 82.2781 59.8931 82.2781L59.8032 82.1004Z" fill="#B0B0B0"/>
<path d="M66.7296 73.8988L65.8419 79.2267C65.8419 79.2267 65.9308 79.4933 65.3087 79.4933C64.6867 79.4933 62.3782 79.5822 62.2005 79.5822C62.0228 79.5822 61.7562 79.2267 61.6673 78.8713C61.5784 78.5158 61.223 73.9867 61.223 73.9867C61.223 73.9867 63.177 71.5005 66.7296 73.8988Z" fill="#686868"/>
<path d="M59.4477 73.5454L58.5312 79.454C58.5312 79.454 58.6231 79.7496 57.9814 79.7496C57.3397 79.7496 54.9558 79.8477 54.7729 79.8477C54.59 79.8477 54.3141 79.454 54.2232 79.0603C54.1312 78.6666 53.7644 73.6436 53.7644 73.6436C53.7644 73.6436 55.7804 70.8867 59.4477 73.5454Z" fill="#686868"/>
<path d="M50.344 60.264C50.344 60.264 48.4127 62.402 47.8402 63.4508C47.2678 64.4996 46.6405 65.6611 47.4899 67.8094C47.4899 67.8094 46.0071 68.1421 45.5132 68.881C45.5132 68.881 44.5253 66.8753 45.0048 65.2943C45.4842 63.7133 45.6248 61.97 48.7485 58.9413C51.8733 55.9137 50.344 60.264 50.344 60.264Z" fill="#686868"/>
<path d="M74.1087 69.1714C74.1087 69.1714 72.6713 63.6926 71.7516 62.0672C70.832 60.4428 68.4728 58.684 66.6717 58.9785C64.8706 59.273 68.6371 57.6703 68.6371 57.6703C68.6371 57.6703 71.2598 57.938 72.9782 60.9501C74.6966 63.9623 76.2146 69.5992 76.2146 69.5992C76.2146 69.5992 74.5892 70.1231 74.1087 69.1714Z" fill="#686868"/>
<path d="M68.6392 56.8034C68.6392 56.8034 69.1176 56.4965 69.8017 56.9367C70.4857 57.3758 71.7578 58.6571 71.8022 58.747C72.0998 59.3422 71.3258 59.6047 70.741 59.832C70.0517 60.1007 68.2837 57.5143 68.6392 56.8034Z" fill="#B0B0B0"/>
<path d="M65.843 53.7106C65.843 53.7106 65.9732 57.3004 65.4999 58.3192C65.0267 59.3381 54.7326 57.9049 54.6075 56.6401C54.6075 56.6401 55.3846 55.2978 54.8473 54.5228C54.3099 53.7457 64.5524 51.6884 65.843 53.7106Z" fill="#686868"/>
<path d="M76.0885 35.8339C76.0885 35.8339 76.508 36.8642 79.0924 34.565C81.6768 32.2658 80.4574 28.8207 79.6845 27.7502C78.9116 26.6796 77.0536 24.1459 72.8728 25.5492C68.6919 26.9524 70.5705 29.3105 70.5705 29.3105L76.0885 35.8339Z" fill="#B0B0B0"/>
<path d="M76.6372 35.1261C76.6372 35.1261 77.0092 36.0396 79.3011 34.0008C81.5931 31.962 80.5122 28.9065 79.8271 27.9579C79.142 27.0082 77.4938 24.7618 73.7863 26.0059C70.0787 27.2511 71.7444 29.3415 71.7444 29.3415L76.6372 35.1261Z" fill="#D0D0D0"/>
<path d="M46.87 29.9016C46.87 29.9016 47.7183 29.1441 44.6173 27.4453C41.5163 25.7465 38.6178 28.1036 37.8521 29.2144C37.0864 30.3263 35.2842 32.985 38.0722 36.5283C40.8591 40.0716 42.4845 37.4542 42.4845 37.4542L46.87 29.9016Z" fill="#B0B0B0"/>
<path d="M79.1554 41.9006C79.1554 41.9006 74.3566 29.0243 66.6128 27.1643C58.869 25.3043 54.7088 26.5319 49.5535 29.4345C44.3993 32.3361 42.4225 39.5312 41.9864 41.8056C41.5504 44.0799 38.935 52.1844 47.8454 53.9979C56.7559 55.8114 68.9213 53.3448 68.9213 53.3448C68.9213 53.3448 78.1262 50.8245 79.1916 47.089C80.0823 43.9725 79.1554 41.9006 79.1554 41.9006Z" fill="#B0B0B0"/>
<path d="M79.1554 41.9006C79.1554 41.9006 74.3566 29.0243 66.6128 27.1643C58.869 25.3043 56.0036 26.1423 50.8493 29.0439C45.6951 31.9455 43.7183 39.1406 43.2822 41.415C42.8462 43.6893 40.2308 51.7938 49.1412 53.6073C58.0517 55.4208 68.9223 53.3438 68.9223 53.3438C68.9223 53.3438 78.1273 50.8235 79.1926 47.088C80.0823 43.9725 79.1554 41.9006 79.1554 41.9006Z" fill="#D0D0D0"/>
<path d="M53.2477 36.3196C53.2477 36.3196 59.675 33.976 68.5472 35.3379C68.5472 35.3379 71.0665 35.9807 72.7663 39.122C74.4662 42.2633 75.0727 43.2264 75.6566 45.1691C76.2414 47.1117 75.3342 48.2463 74.1872 48.794C73.0402 49.3417 55.5076 52.6308 53.6734 48.3114C51.8393 43.9931 53.2477 36.3196 53.2477 36.3196Z" fill="#B0B0B0"/>
<path d="M46.6147 29.6236C46.6147 29.6236 47.367 28.952 44.6163 27.4454C41.8656 25.9388 38.6808 28.0209 38.0019 29.0067C37.323 29.9925 35.7307 32.891 38.2024 36.0334C40.6741 39.1757 42.1156 36.8538 42.1156 36.8538L46.6147 29.6236Z" fill="#D0D0D0"/>
<path d="M75.0118 44.5604C75.0118 44.5604 72.8841 39.6728 71.7785 38.3852C70.6728 37.0987 70.4878 36.362 68.1453 35.7399C65.8027 35.1168 63.8218 35.2501 61.223 35.3142C58.6241 35.3772 53.6807 35.6221 51.3536 37.2362C49.0265 38.8492 47.8806 42.6519 47.3463 45.0048C46.8121 47.3577 46.0113 50.4845 50.0599 51.0322C54.1095 51.5799 59.8528 52.9449 72.1288 49.508C72.1277 49.507 77.0423 48.7227 75.0118 44.5604Z" fill="#5F5F5F"/>
<path d="M69.2567 46.7457C70.1167 46.6683 70.726 45.6305 70.6177 44.4277C70.5094 43.225 69.7244 42.3127 68.8644 42.3902C68.0044 42.4676 67.3951 43.5054 67.5034 44.7082C67.6117 45.911 68.3967 46.8232 69.2567 46.7457Z" fill="white"/>
<path d="M53.2095 47.9681C54.0695 47.8906 54.6789 46.8528 54.5706 45.65C54.4623 44.4473 53.6773 43.5351 52.8173 43.6125C51.9572 43.69 51.3479 44.7278 51.4562 45.9305C51.5645 47.1333 52.3495 48.0455 53.2095 47.9681Z" fill="white"/>
<path d="M65.7014 47.8764C65.7107 47.9529 65.7149 48.0293 65.7169 48.1068C65.719 48.1771 65.719 48.2484 65.7159 48.3187C65.7138 48.3528 65.7118 48.3869 65.7087 48.421C65.7087 48.422 65.6973 48.5057 65.7056 48.4561C65.7118 48.4127 65.6983 48.4943 65.6963 48.5026C65.689 48.5388 65.6787 48.5739 65.6694 48.6101C65.6653 48.6256 65.6591 48.64 65.6539 48.6545C65.6777 48.5873 65.6632 48.6349 65.6529 48.6524C65.6436 48.6669 65.6343 48.6824 65.625 48.6979C65.6291 48.6907 65.6704 48.6452 65.6343 48.6824C65.6136 48.7041 65.6622 48.67 65.6653 48.669C65.6022 48.6938 65.5361 48.7134 65.472 48.733C64.9337 48.8994 64.3736 48.9976 63.8166 49.0792C62.7647 49.2342 61.6208 49.3024 60.5275 49.3747C59.6337 49.4336 58.7223 49.5153 57.8264 49.4533C57.7861 49.4502 57.7458 49.4471 57.7045 49.4429C57.6859 49.4409 57.567 49.4274 57.6125 49.4336C57.6662 49.4409 57.598 49.4316 57.5918 49.4305C57.5722 49.4274 57.5526 49.4243 57.5329 49.4202C57.503 49.415 57.473 49.4088 57.443 49.4016C57.4162 49.3954 57.3893 49.3882 57.3635 49.3799C57.3511 49.3758 57.3397 49.3706 57.3273 49.3675C57.2684 49.351 57.3676 49.3933 57.349 49.3778C57.3356 49.3665 57.3087 49.3561 57.2932 49.3489C57.2849 49.3448 57.2767 49.3386 57.2694 49.3334C57.3252 49.3685 57.2746 49.3355 57.2508 49.3117C57.132 49.1939 57.071 49.0317 57.0266 48.825C57.0173 48.7837 57.0121 48.7423 57.0039 48.701C57.0008 48.6814 57.0018 48.6411 57.0059 48.7186C57.0049 48.7 57.0018 48.6814 56.9997 48.6628C56.9966 48.6297 56.9946 48.5966 56.9935 48.5636C56.9873 48.1647 56.3673 48.1637 56.3735 48.5636C56.3787 48.8849 56.4614 49.2352 56.6277 49.5122C56.8065 49.8087 57.0628 49.9658 57.3965 50.0237C57.7582 50.0867 58.1281 50.0929 58.4939 50.0898C59.0003 50.0857 59.5056 50.0588 60.0109 50.0278C61.2147 49.9555 62.4237 49.8863 63.6193 49.7271C64.2796 49.6393 64.944 49.5359 65.5836 49.3458C65.6632 49.322 65.7428 49.2972 65.8203 49.2693C66.0466 49.1856 66.1809 49.0224 66.2584 48.7971C66.3566 48.5119 66.3566 48.174 66.3214 47.8764C66.3018 47.71 66.1933 47.5664 66.0114 47.5664C65.8595 47.5664 65.6818 47.709 65.7014 47.8764Z" fill="white"/>
<path d="M46.7449 31.7533L45.9121 31.2118L42.7242 36.4819L43.5664 36.9345L44.2949 35.3999C44.7537 34.3883 45.4946 33.4469 46.1539 32.5531L46.7449 31.7533Z" fill="#5F5F5F"/>
<path d="M66.8185 56.3146C66.8185 56.3146 68.9058 56.1813 70.0156 58.2686C71.2277 60.5482 72.6796 64.2186 71.7031 68.1256C70.7266 72.0326 69.3946 73.6312 67.7072 73.9867C66.0197 74.3421 55.2741 74.2533 53.0545 73.6312C50.8339 73.0091 49.6796 68.8355 49.5908 67.3258C49.5019 65.8161 48.8798 65.3718 50.9227 58.0899C50.9227 58.0899 51.9395 55.6874 55.8073 56.047C59.6255 56.4035 66.8185 56.3146 66.8185 56.3146Z" fill="#BDBDBD"/>
<path d="M50.0784 60.4448C50.0784 60.4448 50.4339 61.2436 50.9661 61.0669C51.4993 60.8892 52.9201 59.3795 53.009 58.403C53.0978 57.4265 53.1867 57.1599 52.5646 56.7155C51.9426 56.2712 50.4329 56.5378 49.6341 57.1599C48.8353 57.7819 49.012 58.6696 49.012 58.6696C49.012 58.6696 49.4564 58.7584 49.723 59.2028C49.9896 59.645 50.1673 59.8228 50.0784 60.4448Z" fill="#B0B0B0"/>
<path d="M71.9748 62.2356C71.9748 62.2356 70.9446 69.9123 66.4671 71.0551C62.2129 72.1412 55.1459 71.5739 52.4231 71.267C49.7003 70.9601 53.5112 75.2277 55.2255 75.4179C56.9398 75.608 64.0853 75.608 64.4666 75.608C64.8479 75.608 69.9174 74.4879 70.0022 74.4765C70.0869 74.4651 72.1825 72.6547 72.5638 71.9882C72.9451 71.3217 74.088 68.6537 74.088 68.3685C74.088 68.0822 73.5165 65.8915 73.4215 65.6053C73.3264 65.3201 71.9748 62.2356 71.9748 62.2356Z" fill="#B0B0B0"/>
<path d="M58.6592 66.153L60.4634 66.0755C60.5213 66.4371 60.6949 66.7585 60.9677 67.0096C61.2932 67.3082 61.7251 67.4694 62.155 67.4508C62.5807 67.4322 62.9817 67.2411 63.2844 66.9104C63.582 66.587 63.7288 66.1819 63.7102 65.7396L63.5727 62.5301L65.3707 62.4536L65.5082 65.6632C65.5888 67.5593 64.1194 69.1682 62.2315 69.2488C60.4252 69.3263 58.839 67.9427 58.6592 66.153ZM61.8357 60.1255C61.164 60.1545 60.6412 60.7238 60.6701 61.3955C60.699 62.0672 61.2684 62.59 61.9401 62.5611C62.6117 62.5322 63.1346 61.9628 63.1057 61.2911C63.0767 60.6205 62.5074 60.0976 61.8357 60.1255Z" fill="white"/>
<path d="M65.6311 68.5172C65.6177 68.1938 65.8678 67.921 66.1902 67.9065C66.5146 67.8921 66.7874 68.1442 66.8019 68.4666C66.8153 68.789 66.5642 69.0639 66.2408 69.0773C65.9184 69.0907 65.6456 68.8396 65.6311 68.5172ZM66.6624 68.4728C66.651 68.2269 66.4454 68.0357 66.1974 68.046C65.9515 68.0564 65.7603 68.263 65.7706 68.511C65.781 68.757 65.9876 68.9481 66.2356 68.9378C66.4805 68.9275 66.6717 68.7218 66.6624 68.4728Z" fill="white"/>
<path d="M66.5033 68.7611C66.4991 68.7611 66.4971 68.7621 66.495 68.7621C66.4516 68.7642 66.4072 68.7663 66.3638 68.7683C66.3576 68.7683 66.3545 68.7673 66.3503 68.7621C66.3131 68.7156 66.277 68.6691 66.2398 68.6226C66.2356 68.6175 66.2315 68.6154 66.2253 68.6164C66.1964 68.6185 66.1664 68.6195 66.1375 68.6206C66.1313 68.6206 66.1292 68.6226 66.1292 68.6288C66.1313 68.6764 66.1333 68.7239 66.1354 68.7704C66.1354 68.7756 66.1344 68.7776 66.1282 68.7776C66.093 68.7787 66.0579 68.7807 66.0228 68.7818C66.0176 68.7818 66.0155 68.7807 66.0155 68.7756C66.0083 68.5916 66 68.4087 65.9918 68.2248C65.9918 68.2207 65.9928 68.2186 65.9969 68.2186C66.0703 68.2155 66.1447 68.2114 66.2181 68.2103C66.2635 68.2093 66.308 68.2196 66.3472 68.2434C66.3865 68.2672 66.4123 68.3013 66.4247 68.3457C66.4351 68.3808 66.4371 68.417 66.4309 68.4532C66.4227 68.5007 66.3989 68.541 66.3596 68.5699C66.3545 68.5741 66.3534 68.5761 66.3576 68.5813C66.4041 68.6392 66.4495 68.696 66.495 68.7539C66.4991 68.757 66.5012 68.758 66.5033 68.7611ZM66.1209 68.417C66.122 68.4428 66.123 68.4676 66.124 68.4935C66.124 68.4997 66.1261 68.5007 66.1323 68.5007C66.1592 68.4997 66.1871 68.4986 66.2139 68.4976C66.2346 68.4966 66.2553 68.4935 66.2749 68.4852C66.2966 68.4759 66.3111 68.4594 66.3162 68.4366C66.3193 68.4222 66.3193 68.4077 66.3162 68.3932C66.3142 68.3767 66.3069 68.3633 66.2935 68.3519C66.2749 68.3364 66.2532 68.3312 66.2305 68.3312C66.1953 68.3312 66.1592 68.3333 66.124 68.3343C66.1189 68.3343 66.1178 68.3374 66.1178 68.3416C66.1178 68.3664 66.1189 68.3922 66.1209 68.417Z" fill="white"/>
<path d="M82.396 72.4832L81.9795 99.1039C81.9578 101.38 80.0947 103.208 77.8183 103.186L38.3202 102.805C36.0437 102.784 34.2158 100.92 34.2385 98.644L34.4452 72.4336L82.396 72.4832Z" fill="#F1F2F3"/>
<path fillRule="evenodd" clipRule="evenodd" d="M92.8336 90.1862C92.9339 92.8626 93.6334 98.8931 93.9951 101.342L94.9623 102.166C94.9623 102.166 92.0142 102.151 91.327 102.044C90.6399 101.934 82.6625 101.025 82.6625 101.025C83.6349 98.0768 84.2001 92.8533 84.6827 90.1211C84.0679 91.1421 82.7473 93.9962 82.057 96.6456L78.7565 96.594C78.8258 92.6952 80.8346 87.6422 82.15 85.8628C83.4665 84.0823 86.5603 83.0645 87.8003 83.0035C89.0403 82.9426 92.7499 82.7886 95.0326 86.2151C95.9295 87.6215 96.7159 89.4247 97.1147 91.1679C97.6924 93.6872 97.6738 96.0277 97.7595 96.4493L95.2165 96.2788C94.9799 94.6337 93.5807 91.8168 92.8336 90.1862Z" fill="#CDCBCB"/>
<path fillRule="evenodd" clipRule="evenodd" d="M85.3275 91.4252C85.4164 91.2578 85.9506 89.5208 86.7566 89.3647C87.0842 89.3317 87.1937 89.8514 87.0398 90.2792C87.0398 90.2792 86.8186 90.6037 86.8124 90.6554C86.8062 90.707 86.0808 91.7579 86.0808 91.7579L85.3275 91.4252Z" fill="#F2DFD9"/>
<path d="M89.6065 84.4456V83.6468C89.6065 83.0843 89.1506 82.6284 88.5882 82.6284C88.0258 82.6284 87.5698 83.0843 87.5698 83.6468V84.4456C87.5698 85.008 88.0258 85.4639 88.5882 85.4639C89.1506 85.4639 89.6065 85.008 89.6065 84.4456Z" fill="#E3D3CF"/>
<path fillRule="evenodd" clipRule="evenodd" d="M91.6236 81.3574C91.761 81.1353 92.3934 80.723 92.5877 80.0958C92.782 79.4675 92.0349 78.9984 92.0659 78.3215C92.0969 77.6447 92.8595 76.134 92.3066 75.577C91.7538 75.02 91.0842 75.9077 90.6864 75.7351C90.3681 75.5977 90.4745 75.1781 90.055 75.0273C89.745 74.9157 89.5621 75.2215 89.2717 75.2556C88.7086 75.3166 88.0328 74.6119 87.0511 75.0831C86.0694 75.5563 86.303 76.9699 85.9176 77.3585C85.5321 77.747 84.815 77.654 84.6135 78.0808C84.412 78.5065 85.1364 79.3538 85.1581 79.7155C85.1798 80.0751 84.8842 80.4378 85.0733 80.7095C85.2521 80.973 85.6851 80.8274 85.7698 81.2231C85.8525 81.6189 86.0777 81.7883 86.2503 81.7708C86.4228 81.7553 86.5396 81.8193 86.6998 81.7883C86.86 81.7584 87.3807 81.6147 87.3807 81.6147L90.674 81.7263L91.2878 81.7625L91.6236 81.3574Z" fill="#616160"/>
<path fillRule="evenodd" clipRule="evenodd" d="M86.6078 82.5913C85.2407 82.305 85.5383 81.0164 85.8565 80.9131C86.1727 80.8098 86.3556 81.2107 86.4032 81.3936C86.4228 81.8049 86.4579 82.1996 86.6078 82.5913Z" fill="#F2DFD9"/>
<path fillRule="evenodd" clipRule="evenodd" d="M90.6978 82.8258C92.0896 82.6987 91.9408 81.3833 91.637 81.2448C91.2609 81.0723 91.138 81.5703 91.0388 81.6602C90.9706 82.0684 90.892 82.4549 90.6978 82.8258Z" fill="#F2DFD9"/>
<path fillRule="evenodd" clipRule="evenodd" d="M88.565 84.2477C88.412 84.2384 86.645 83.7517 86.4435 81.8989C86.242 80.0462 86.6657 78.4042 86.8538 78.1696C87.0418 77.933 88.9204 78.0725 88.9204 78.0725C88.9204 78.0725 90.8021 78.151 90.9633 78.4063C91.1235 78.6625 91.356 80.3417 90.9427 82.1593C90.5283 83.9759 88.7189 84.257 88.565 84.2477Z" fill="#F2DFD9"/>
<path fillRule="evenodd" clipRule="evenodd" d="M86.492 82.1934C86.6873 81.9805 86.3277 80.3127 87.1234 79.6628C87.5099 79.3466 88.227 79.8291 88.6455 79.6907C88.8284 79.6297 89.1653 79.2164 89.5972 79.0789C89.8979 78.9818 90.2988 78.9994 90.5003 79.4458C90.6367 79.7444 90.5272 80.1267 90.5923 80.3055C90.6584 80.4853 91.0625 80.7891 91.0087 81.8317C91.0418 81.6581 91.3466 80.662 91.3466 80.662L91.5481 78.1996L90.6243 76.7085L88.7788 76.9658C88.7788 76.9658 88.0803 77.036 87.8467 77.2427C87.6132 77.4514 86.2978 77.8162 86.2544 78.0198C86.211 78.2233 86.1335 78.4548 86.1872 78.648C86.2409 78.8402 86.0591 80.1794 86.0591 80.1794C86.0591 80.1794 86.3701 80.8129 86.492 82.1934Z" fill="#616160"/>
<path fillRule="evenodd" clipRule="evenodd" d="M93.1705 105.501C89.9289 104.833 86.3216 105.315 82.6439 104.767C75.8074 103.68 75.1326 99.7498 75.8219 98.6679C77.903 95.4036 91.1958 101.613 94.0436 103.512L93.1705 105.501Z" fill="#898989"/>
<path fillRule="evenodd" clipRule="evenodd" d="M93.1705 105.501C92.7603 105.417 92.3438 105.351 91.9222 105.298L92.8254 102.845C93.2842 103.081 93.6458 103.277 93.8649 103.404C93.899 103.443 93.9372 103.543 93.9744 103.673L93.1705 105.501Z" fill="#F2DFD9"/>
<path fillRule="evenodd" clipRule="evenodd" d="M84.7891 105.392C84.5194 105.459 83.9872 105.951 83.7558 106.312C83.5243 106.674 82.2946 105.11 82.2946 105.11L82.2864 104.596C82.5044 104.307 83.6318 103.696 83.9614 103.502L84.7891 105.392Z" fill="#F2DFD9"/>
<path fillRule="evenodd" clipRule="evenodd" d="M81.5693 104.495C81.5641 104.58 81.8514 105.365 82.1552 105.804C82.459 106.242 83.079 106.859 83.2526 106.911C83.4262 106.962 84.0265 106.409 84.0524 106.321C84.0782 106.233 83.1709 104.451 82.8558 104.29C82.5416 104.13 81.5651 104.346 81.5693 104.495Z" fill="#2D2D2D"/>
<path fillRule="evenodd" clipRule="evenodd" d="M95.0036 105.835C95.4717 105.623 96.4224 105.482 96.4782 104.991C96.5278 104.556 94.9168 103.824 93.1136 104.437L93.1167 104.439C92.4988 105.786 93.1674 106.227 95.0036 105.835Z" fill="#2D2D2D"/>
<path fillRule="evenodd" clipRule="evenodd" d="M84.7891 105.392C87.8674 104.762 91.4872 105.522 94.9788 105.008C101.469 103.991 101.917 99.9678 101.266 98.9396C100.47 97.6852 98.3268 97.1675 91.5657 100.039C88.8212 100.944 84.4977 103.148 83.9645 103.504L84.7891 105.392Z" fill="#898989"/>
<path fillRule="evenodd" clipRule="evenodd" d="M91.4789 91.388C91.3869 91.2216 90.7989 89.5942 89.9898 89.4557C89.6613 89.4288 89.4877 89.6954 89.652 90.1181C89.652 90.1181 89.8493 90.3878 89.8555 90.4394C89.8638 90.4911 90.5613 91.5761 90.5613 91.5761L91.4789 91.388Z" fill="#F2DFD9"/>
<path d="M89.9961 88.0132H87.1152V93.1158H89.9961V88.0132Z" fill="#2D2D2D"/>
<path fillRule="evenodd" clipRule="evenodd" d="M78.8485 97.71C79.0882 98.0778 80.9854 98.548 81.8731 97.7224C82.7597 96.8967 86.0208 92.5288 86.0208 92.5288C87.6587 92.8905 89.4587 91.0646 88.5008 89.9403C88.2694 89.622 87.0697 89.3689 86.3618 90.6264C85.7325 91.4676 79.67 94.0788 78.8981 95.4563C78.6584 95.8686 78.6274 97.3824 78.8485 97.71Z" fill="#F2DFD9"/>
<path fillRule="evenodd" clipRule="evenodd" d="M98.2556 97.5549C98.0241 97.929 96.2902 98.5872 95.386 97.7823C94.4808 96.9773 91.2402 92.6135 91.2402 92.6135C89.6107 93.0124 87.6515 91.2981 88.5835 90.1521C88.8078 89.8277 90.0002 89.5497 90.736 90.7897C91.3839 91.6153 97.3514 93.9434 98.1543 95.3033C98.4033 95.7104 98.4684 97.2243 98.2556 97.5549Z" fill="#F2DFD9"/>
<path d="M79.1161 76.1267C79.1161 76.1267 80.0637 76.0068 80.1329 75.0954C80.2011 74.184 80.0296 69.5692 77.9454 67.5965C75.8622 65.6239 72.1339 66.6583 71.1347 68.0967C70.1354 69.5351 69.3284 73.7221 70.8278 76.5504L79.1161 76.1267Z" fill="#D0D0D0"/>
<path d="M70.8278 76.5504C70.8278 76.5504 73.1228 75.5894 75.5108 75.4664C77.8989 75.3434 79.5481 75.951 79.5481 75.951C79.5481 75.951 79.0459 76.7694 75.8198 76.9854C72.5937 77.2014 71.0944 76.9162 70.8278 76.5504Z" fill="#B0B0B0"/>
<path d="M76.7136 78.9208C76.7136 78.9208 77.0123 77.0226 76.5845 76.7312C76.1567 76.4398 74.4228 76.6031 74.1376 76.8325C73.8524 77.0619 73.7397 80.1867 75.4861 80.074C76.7188 79.9945 76.7136 78.9208 76.7136 78.9208Z" fill="#5F5F5F"/>
<path d="M78.5282 78.7204C78.5282 78.7204 78.026 79.5388 77.2314 79.514C76.4367 79.4892 76.1402 78.8433 76.2022 78.1303C76.2394 77.7036 76.2414 77.1239 76.2373 76.7281C76.2342 76.4553 76.4202 76.2176 76.6847 76.1515C77.3843 75.9769 78.6749 75.7433 78.9849 76.2858C78.9839 76.2848 79.08 77.5847 78.5282 78.7204Z" fill="#686868"/>
<path d="M71.9975 76.6465C71.9975 76.6465 72.5173 79.0469 73.2189 79.5057C73.9195 79.9645 74.7503 80.0709 75.0924 79.3259C75.4334 78.5819 75.2474 78.1789 75.1792 77.8183C75.111 77.4587 74.5602 76.3168 74.5602 76.3168C74.5602 76.3168 73.0815 76.3168 72.6826 76.3654C72.2827 76.4171 71.9665 76.3675 71.9975 76.6465Z" fill="#686868"/>
<path d="M52.6173 76.9844C52.6173 76.9844 52.9728 74.7637 52.7062 73.1662C52.4396 71.5676 51.2854 66.3286 46.6674 66.8608C42.0494 67.393 41.7828 72.633 41.7828 72.633C41.7828 72.633 41.5162 77.6953 42.8482 78.4941C44.1812 79.2939 50.7522 79.2939 52.6173 76.9844Z" fill="#D0D0D0"/>
<path d="M52.4376 77.2789C52.4376 77.2789 52.7062 76.63 51.3743 76.4522C50.0423 76.2745 47.5561 76.0968 45.6909 76.5411C43.8258 76.9854 42.2117 77.7005 42.6633 78.3195C43.1148 78.9384 45.5742 79.5874 47.986 79.2629C50.3967 78.9384 51.9023 78.0167 52.4376 77.2789Z" fill="#B0B0B0"/>
<path d="M48.3549 78.4941C48.3549 78.4941 49.1536 79.3817 48.8881 80.7147C48.6215 82.0467 47.8227 82.2244 47.5561 82.2244C47.2895 82.2244 46.1353 81.9578 45.8687 80.7147C45.7622 80.2187 45.6847 79.8219 45.6289 79.5233C45.5545 79.1213 45.7943 78.7297 46.1849 78.6108C46.8162 78.4186 47.7535 78.2213 48.3549 78.4941Z" fill="#5F5F5F"/>
<path d="M50.5744 77.0732C50.5744 77.0732 51.1965 76.8955 51.4621 77.0732C51.7287 77.251 51.7287 78.1386 51.7287 78.1386C51.7287 78.1386 51.8175 80.8025 50.219 81.158C48.6204 81.5135 48.7093 78.6718 48.7093 78.6718L48.7702 77.9423C48.7878 77.7315 48.9252 77.5496 49.1236 77.4762C49.4471 77.3574 49.9772 77.1817 50.5744 77.0732Z" fill="#686868"/>
<path d="M45.3665 77.4391C45.3665 77.4391 44.6411 77.4184 44.4003 77.685C44.1595 77.9516 44.4055 78.9177 44.4055 78.9177C44.4055 78.9177 45.0461 81.84 46.8834 81.7832C48.7196 81.7263 47.8361 78.6615 47.8361 78.6615L47.5685 77.8854C47.491 77.6612 47.2905 77.5021 47.0549 77.4762C46.6716 77.4349 46.0464 77.3926 45.3665 77.4391Z" fill="#686868"/>
<path fillRule="evenodd" clipRule="evenodd" d="M63.6099 1.39094e-05L93.9889 0.0950804C95.1142 0.0981804 96.0318 1.02198 96.0287 2.14728L95.9698 16.3784C95.9667 17.5037 95.0429 18.4213 93.9176 18.4182L75.2804 18.3603L69.253 24.3495C68.9316 24.6688 68.4759 24.7577 68.0584 24.583C67.641 24.4084 67.3837 24.0209 67.3847 23.5683L67.4012 18.3345L63.5376 18.3221C62.4123 18.319 61.4947 17.3952 61.4978 16.2699L61.5567 2.03878C61.5608 0.913481 62.4846 -0.00411943 63.6099 1.39094e-05Z" fill="#E8E8E8"/>
<path fillRule="evenodd" clipRule="evenodd" d="M105.254 53.0689L81.5909 52.9873C80.6196 52.9842 79.8229 53.7767 79.8198 54.747L79.7692 63.83C79.7661 64.8014 80.5586 65.5981 81.5289 65.6012L95.0583 65.6518L100.228 70.8536C100.503 71.1305 100.897 71.2101 101.258 71.0613C101.619 70.9135 101.843 70.5798 101.845 70.1892L101.86 65.6725L105.194 65.6828C106.166 65.6859 106.962 64.8933 106.965 63.923L107.016 54.84C107.017 53.8687 106.226 53.072 105.254 53.0689Z" fill="#CDCBCB"/>
<path fillRule="evenodd" clipRule="evenodd" d="M65.6187 4.34723L92.4058 4.43093C92.7034 4.43197 92.9452 4.67583 92.9442 4.9724C92.9432 5.27 92.6993 5.5118 92.4027 5.51077L65.6156 5.42707C65.318 5.42603 65.0762 5.18217 65.0773 4.8856C65.0773 4.58903 65.3222 4.3462 65.6187 4.34723Z" fill="#D0D0D0"/>
<path fillRule="evenodd" clipRule="evenodd" d="M65.6095 7.3408L92.3966 7.4245C92.6942 7.42553 92.936 7.6694 92.9349 7.96597C92.9339 8.26357 92.69 8.50537 92.3935 8.50433L65.6064 8.42063C65.3088 8.4196 65.067 8.17573 65.068 7.87916C65.068 7.58156 65.3119 7.33977 65.6095 7.3408Z" fill="#D0D0D0"/>
<path fillRule="evenodd" clipRule="evenodd" d="M65.6002 10.3333L92.3873 10.417C92.6849 10.4181 92.9267 10.6619 92.9257 10.9585C92.9246 11.2561 92.6808 11.4979 92.3842 11.4969L65.5971 11.4132C65.2995 11.4121 65.0577 11.1683 65.0587 10.8717C65.0587 10.5741 65.3026 10.3323 65.6002 10.3333Z" fill="#D0D0D0"/>
<path fillRule="evenodd" clipRule="evenodd" d="M65.5908 13.3248L79.3104 13.3682C79.608 13.3693 79.8498 13.6131 79.8488 13.9097C79.8478 14.2073 79.6039 14.4491 79.3073 14.4481L65.5878 14.4047C65.2902 14.4036 65.0483 14.1598 65.0494 13.8632C65.0494 13.5666 65.2932 13.3248 65.5908 13.3248Z" fill="#D0D0D0"/>
<path fillRule="evenodd" clipRule="evenodd" d="M83.0025 56.0046L103.693 56.0769C103.949 56.078 104.158 56.2888 104.158 56.544C104.157 56.8003 103.946 57.009 103.691 57.009L83.0005 56.9367C82.7442 56.9356 82.5355 56.7248 82.5355 56.4696C82.5355 56.2123 82.7463 56.0036 83.0025 56.0046Z" fill="#898989"/>
<path fillRule="evenodd" clipRule="evenodd" d="M82.9943 58.5869L103.685 58.6592C103.941 58.6602 104.15 58.871 104.15 59.1263C104.149 59.3826 103.938 59.5913 103.683 59.5913L82.9922 59.519C82.736 59.5179 82.5272 59.3071 82.5272 59.0519C82.5283 58.7956 82.738 58.5858 82.9943 58.5869Z" fill="#898989"/>
<path fillRule="evenodd" clipRule="evenodd" d="M82.987 61.1692L96.9742 61.2209C97.2305 61.2219 97.4392 61.4327 97.4392 61.6879C97.4382 61.9442 97.2274 62.1529 96.9722 62.1529L82.985 62.1013C82.7287 62.1002 82.52 61.8894 82.52 61.6342C82.52 61.3779 82.7308 61.1682 82.987 61.1692Z" fill="#898989"/>
<path fillRule="evenodd" clipRule="evenodd" d="M25.4851 32.6306L1.82178 32.549C0.850442 32.5459 0.0537422 33.3384 0.0506422 34.3087L9.06302e-06 43.3917C-0.00309094 44.3631 0.789475 45.1598 1.75978 45.1629L15.2892 45.2135L20.459 50.4153C20.7338 50.6922 21.1275 50.7718 21.4892 50.623C21.8498 50.4753 22.0741 50.1415 22.0761 49.7509L22.0906 45.2342L25.4252 45.2445C26.3965 45.2476 27.1932 44.455 27.1963 43.4847L27.2469 34.4017C27.248 33.4304 26.4554 32.6337 25.4851 32.6306Z" fill="#F7F7F7"/>
<path fillRule="evenodd" clipRule="evenodd" d="M3.2333 35.5663L23.9237 35.6386C24.18 35.6397 24.3887 35.8505 24.3887 36.1057C24.3877 36.362 24.1769 36.5707 23.9217 36.5707L3.2302 36.4984C2.97393 36.4973 2.7652 36.2865 2.7652 36.0313C2.76623 35.775 2.97703 35.5653 3.2333 35.5663Z" fill="#EEEEEE"/>
<path fillRule="evenodd" clipRule="evenodd" d="M3.225 38.1486L23.9154 38.2209C24.1717 38.222 24.3804 38.4328 24.3804 38.688C24.3804 38.9432 24.1686 39.153 23.9134 39.153L3.22293 39.0807C2.96667 39.0796 2.75793 38.8688 2.75793 38.6136C2.75793 38.3573 2.96873 38.1476 3.225 38.1486Z" fill="#EEEEEE"/>
<path fillRule="evenodd" clipRule="evenodd" d="M3.21676 40.7309L17.204 40.7826C17.4602 40.7836 17.669 40.9944 17.669 41.2496C17.6679 41.5059 17.4571 41.7146 17.2019 41.7146L3.21469 41.663C2.95843 41.6619 2.74969 41.4511 2.74969 41.1959C2.74969 40.9396 2.9605 40.7309 3.21676 40.7309Z" fill="#EEEEEE"/>
<path d="M27.3513 72.7901C28.1728 73.3471 34.0794 73.5579 35.617 72.445C35.399 70.2161 35.6346 63.7495 35.5126 61.6487L34.9298 58.8928L33.1628 58.9393C33.1132 57.0266 32.4209 55.9044 29.2382 56.3663C27.9445 57.0948 26.4058 58.8204 26.443 61.6601C26.4844 64.8603 27.1674 67.299 27.3513 72.7901Z" fill="#F7F7F7"/>
<rect x="30" y="54" width="2" height="3" rx="0.3" fill="#DBCCC8"/>
<path fillRule="evenodd" clipRule="evenodd" d="M29.9967 55.8093C30.6952 55.6708 31.2449 55.0798 31.5467 54.6778C32.146 53.3479 31.9858 50.9154 30.3304 50.407C29.7538 50.2303 28.7453 50.2334 28.0282 50.8276C27.8928 50.963 27.309 51.7338 27.6489 53.3396C27.9889 54.9454 28.767 55.9788 29.9037 55.8258C29.9347 55.8207 29.9667 55.8155 29.9967 55.8093Z" fill="#F2DFD9"/>
<path fillRule="evenodd" clipRule="evenodd" d="M27.0486 68.4377L27.2408 68.3116L26.783 61.9742L23.3193 61.318L23.1271 61.4441L23.6437 67.9086L27.0486 68.4377Z" fill="#545454"/>
<path fillRule="evenodd" clipRule="evenodd" d="M23.1271 61.4441L26.5918 62.0992L27.0486 68.4377L23.6437 67.9086L23.1271 61.4441Z" fill="#5B5B5B"/>
<path fillRule="evenodd" clipRule="evenodd" d="M34.6435 57.226C35.2501 57.1847 37.0729 58.684 36.8559 64.326C36.829 66.6841 36.3041 70.3928 34.9907 70.3266C33.6774 70.2605 27.2717 65.7831 27.2717 65.7831C26.7954 66.246 25.3632 65.9773 25.2237 65.7107C25.1038 65.3966 24.9591 64.4232 24.9385 64.2403C25.2454 64.5937 26.7375 64.8437 26.9059 64.3663C27.1529 64.4263 33.1008 65.7841 33.1008 65.7841C32.6978 64.3787 31.6675 57.4244 34.6435 57.226Z" fill="#F2DFD9"/>
<path fillRule="evenodd" clipRule="evenodd" d="M34.6436 57.226C35.2129 57.1878 36.859 58.5084 36.8745 63.3485C35.5291 63.582 33.5937 63.456 32.6895 63.2958C32.4436 60.7631 32.5759 57.3645 34.6436 57.226Z" fill="#F7F7F7"/>
<path fillRule="evenodd" clipRule="evenodd" d="M39.3638 106.297C39.3979 106.29 39.65 106.261 39.7058 106.113C39.6635 105.769 39.6779 104.376 39.5477 103.489C39.4888 103.083 39.2842 103.004 39.2119 102.732C39.0114 102.792 38.5165 103.061 38.2075 103.682C37.7198 104.66 37.6402 105.987 36.89 106.196C36.5562 106.267 36.331 106.064 36.3041 105.972C36.1305 106.193 35.1096 106.444 35.2325 106.734C35.2873 106.851 36.1636 107.267 37.4211 106.772C38.0535 106.486 37.8603 105.34 39.06 104.388L39.3638 106.297Z" fill="#545454"/>
<path fillRule="evenodd" clipRule="evenodd" d="M36.3041 105.971C36.5594 105.732 37.3809 103.578 37.8056 103.153L37.6495 101.865L38.996 101.547L39.1355 102.76C38.904 102.856 38.4814 103.128 38.2065 103.681C37.7188 104.659 37.6392 105.986 36.889 106.195C36.5883 106.26 36.3754 106.102 36.3165 106.001C36.3134 105.991 36.3093 105.981 36.3041 105.971Z" fill="#F2D7CB"/>
<path fillRule="evenodd" clipRule="evenodd" d="M29.3684 106.952C29.4045 106.952 29.6556 106.979 29.7414 106.848C29.7745 106.504 30.0907 105.146 30.1578 104.252C30.1888 103.843 30.007 103.721 29.9946 103.441C29.7848 103.456 29.2444 103.61 28.8083 104.149C28.1201 104.998 27.7543 106.277 26.9762 106.317C26.6352 106.314 26.4585 106.068 26.4523 105.97C26.2353 106.147 25.1834 106.171 25.2413 106.482C25.2692 106.607 26.0348 107.205 27.3699 106.995C28.0498 106.853 28.1098 105.692 29.4882 105.024L29.3684 106.952Z" fill="#545454"/>
<path fillRule="evenodd" clipRule="evenodd" d="M26.4534 105.969C26.7551 105.791 28.023 103.868 28.5314 103.543L28.6595 102.251L30.0432 102.234L29.9171 103.449C29.6701 103.492 29.1989 103.666 28.8094 104.147C28.1212 104.996 27.7554 106.275 26.9773 106.315C26.6704 106.312 26.4968 106.111 26.4616 106.001C26.4575 105.991 26.4544 105.981 26.4534 105.969Z" fill="#F2D7CB"/>
<path fillRule="evenodd" clipRule="evenodd" d="M30.1351 102.401C30.6012 97.8484 31.4175 94.176 30.8554 88.8719C33.7952 82.6543 35.3597 76.9131 30.937 73.2447C29.2713 73.2396 27.7419 73.0536 27.3524 72.7901C26.505 76.2011 25.6835 82.8506 25.5781 85.0217C25.6846 87.5647 28.5986 102.4 28.5986 102.4H30.1351V102.401Z" fill="#545454"/>
<path fillRule="evenodd" clipRule="evenodd" d="M22.9163 64.6319C23.0692 64.5679 23.8246 63.9448 23.9052 63.9561C23.9847 63.9665 24.1594 65.0918 24.1056 65.3088C24.0529 65.5258 23.403 66.1127 23.0072 66.0218C22.9163 65.9784 22.9163 64.6319 22.9163 64.6319Z" fill="#F2DFD9"/>
<path fillRule="evenodd" clipRule="evenodd" d="M35.618 72.446C34.8089 73.0319 32.7887 73.2509 30.937 73.2447L29.3942 85.7109L30.8554 88.8719L37.0419 102.247L39.1107 101.906C38.8461 98.674 36.9376 90.2493 35.6666 87.4417C37.943 83.5739 40.763 76.8955 35.618 72.446Z" fill="#5B5B5B"/>
<path fillRule="evenodd" clipRule="evenodd" d="M31.5467 54.6778C31.5642 55.3267 31.558 56.1018 31.5291 56.8633C31.4847 58.062 31.3834 59.2255 31.2336 59.8135C33.3054 60.0016 34.8709 59.0085 35.8815 57.9597C34.3201 56.0356 34.1641 52.3869 32.5614 50.2479C31.2697 48.5243 28.1759 48.5274 27.2842 50.7625C26.3924 52.9976 27.9011 56.3973 25.9832 59.5324C26.1382 59.6099 28.2669 59.209 28.736 59.1232C28.8889 58.1333 29.4407 57.0969 30.0483 56.6019L29.9987 55.8083C29.9677 55.8145 29.9357 55.8197 29.9057 55.8238C28.7691 55.9788 27.992 54.9434 27.651 53.3376C27.311 51.7318 27.8949 50.9619 28.0302 50.8255C28.2297 51.2688 29.8995 52.9511 31.3772 53.1185C31.4692 53.2942 31.525 53.8945 31.5467 54.6778Z" fill="#707070"/>
</svg>
