<svg width="136" height="107" viewBox="0 0 136 107" fill="none" xmlns="http://www.w3.org/2000/svg">
<path d="M48.9085 40.5544C48.9085 40.5544 30.4062 28.7895 16.9312 36.305C16.9069 54.8587 37.5948 58.0329 37.5948 58.0329L56.2106 53.4377L48.9085 40.5544Z" fill="#ECECEC"/>
<path d="M33.956 34.5437L35.5876 44.1286L17.2555 36.1322C17.1474 36.1889 17.0393 36.243 16.934 36.3024C16.934 36.3753 16.9367 36.4456 16.9367 36.5185L26.7538 40.8003L18.5711 44.6283C18.6062 44.7067 18.6413 44.785 18.6764 44.8607L18.7737 45.066L27.3428 41.057L43.7029 48.1943L29.558 55.3694C29.7417 55.4585 29.9281 55.5477 30.1091 55.6314L44.2756 48.4455L55.8946 53.5135L56.208 53.4351L55.9729 53.0218L36.1117 44.3582L34.4611 34.6545C34.2963 34.6194 34.1261 34.5816 33.956 34.5437Z" fill="white"/>
<path d="M50.1296 50.974C50.1296 50.974 31.8542 51.9087 27.9965 63.5791C44.1053 82.8244 69.7234 63.6926 69.7234 63.6926L50.1296 50.974Z" fill="#DBDBDB"/>
<path d="M27.9965 63.5818C28.0586 63.6547 28.1207 63.7276 28.1829 63.8006L52.7635 60.6318L45.7586 72.1616C45.9477 72.1643 46.1368 72.1643 46.3232 72.1616L53.3768 60.5534L62.9778 59.3161L62.351 58.9109L43.6596 61.3206L35.5065 55.0964C35.3553 55.1829 35.204 55.2693 35.0554 55.3585L42.9788 61.4071L28.0856 63.3278C28.0559 63.4116 28.0235 63.4953 27.9965 63.5818Z" fill="white"/>
<path d="M69.6045 76.2435C69.5289 76.0328 68.7914 75.5979 67.8918 75.2845C67.9404 74.4632 67.8648 73.6501 67.6784 72.8667C68.4375 72.5182 69.202 72.0752 69.2668 71.6645C69.3965 70.8352 68.1322 68.936 67.8107 68.7821C67.6054 68.6848 66.749 68.909 65.8738 69.3386C65.3551 68.7361 64.7446 68.2039 64.0584 67.7636C64.3501 66.9802 64.5798 66.1184 64.3339 65.7861C63.8396 65.1081 61.6 64.6596 61.2651 64.7785C61.0544 64.8514 60.6221 65.5862 60.3087 66.4831C59.474 66.4075 58.6473 66.4588 57.8504 66.6236C57.51 65.8915 57.0805 65.1783 56.6861 65.1189C55.8567 64.9892 53.9576 66.2535 53.8036 66.575C53.7118 66.7668 53.9009 67.5178 54.2737 68.3282C53.6118 68.8658 53.0283 69.5088 52.5501 70.2409C51.8369 69.9923 51.1102 69.8302 50.8077 70.0491C50.1296 70.5434 49.6812 72.7829 49.8 73.1179C49.8676 73.307 50.4646 73.6744 51.2399 73.977C51.1481 74.8847 51.2075 75.787 51.4047 76.6487C50.7645 76.9675 50.1944 77.3457 50.1404 77.6942C50.0107 78.5236 51.275 80.4227 51.5965 80.5767C51.7721 80.6604 52.4313 80.5064 53.1688 80.1877C53.7442 80.8711 54.4358 81.4682 55.2246 81.9436C55.0004 82.619 54.8653 83.2863 55.0733 83.5726C55.5677 84.2507 57.8072 84.6991 58.1422 84.5803C58.3313 84.5127 58.7014 83.9103 59.0012 83.135C59.8954 83.1944 60.7815 83.1053 61.6271 82.8864C61.9539 83.5618 62.3511 84.1804 62.7185 84.2372C63.5478 84.3668 65.4469 83.1025 65.6009 82.7811C65.6928 82.5893 65.5037 81.8302 65.1255 81.0143C65.7468 80.4578 66.2898 79.8068 66.7274 79.0693C67.4811 79.3421 68.2781 79.5366 68.5968 79.3043C69.2722 78.8153 69.7234 76.5785 69.6045 76.2435ZM58.3826 78.3534C56.424 77.7104 55.357 75.5979 55.9999 73.6393C56.6429 71.6807 58.7554 70.6137 60.714 71.2566C62.6725 71.8996 63.7396 74.0121 63.0967 75.9707C62.4537 77.9292 60.3439 78.9963 58.3826 78.3534Z" fill="#ECECEC"/>
<path d="M57.945 79.7852C55.1597 78.8694 53.6388 75.86 54.5546 73.0747C55.4704 70.2895 58.4799 68.7686 61.2651 69.6844C64.0503 70.6002 65.5712 73.6096 64.6554 76.3949C63.7396 79.1774 60.7302 80.6983 57.945 79.7852ZM61.2408 69.7573C58.4961 68.8551 55.5298 70.3544 54.6276 73.0991C53.7253 75.8438 55.2246 78.81 57.9693 79.7123C60.714 80.6146 63.6802 79.1152 64.5825 76.3705C65.4848 73.6259 63.9854 70.6596 61.2408 69.7573Z" fill="white"/>
<path d="M67.2516 75.6276C67.2192 75.6141 67.1867 75.5978 67.157 75.5816C67.103 76.1246 66.9922 76.6676 66.8139 77.2079C65.501 81.2007 61.1868 83.3808 57.194 82.0679C54.579 81.2088 52.742 79.0611 52.1531 76.5623C52.1179 76.5596 52.0828 76.5542 52.0477 76.5488C52.6339 79.0963 54.5006 81.2898 57.1616 82.1624C61.2057 83.4915 65.5767 81.2817 66.9058 77.2376C67.0814 76.7054 67.1948 76.1652 67.2516 75.6276Z" fill="white"/>
<path d="M57.0265 67.6502C58.5636 67.1018 60.2844 67.0396 61.9513 67.588C61.9837 67.5988 62.0161 67.6123 62.0485 67.6231C62.0458 67.588 62.0485 67.5529 62.0485 67.5178C62.0269 67.5097 62.0053 67.5016 61.9837 67.4935C60.3034 66.9424 58.5663 67.0018 57.013 67.5502C57.0184 67.5826 57.0238 67.6177 57.0265 67.6502Z" fill="white"/>
<path d="M77.7927 69.5412C77.5252 69.6384 76.9741 70.5785 76.5797 71.7294C75.5315 71.6726 74.4969 71.7726 73.5027 72.013C73.057 71.0459 72.4843 70.0761 71.9656 69.995C70.9093 69.8356 68.4942 71.4538 68.3024 71.8644C68.1781 72.1265 68.4672 73.2152 69.021 74.3282C68.2565 74.9927 67.5811 75.7708 67.0246 76.6487C66.0251 76.2786 64.9283 75.995 64.5041 76.3084C63.6451 76.9432 63.0832 79.796 63.2345 80.2201C63.329 80.4875 64.2664 81.0332 65.4118 81.4303C65.3173 82.492 65.3875 83.5456 65.6036 84.5586C64.6743 84.9963 63.7666 85.5474 63.691 86.0472C63.5316 87.1034 65.1498 89.5185 65.5604 89.7104C65.8036 89.8265 66.7626 89.5834 67.7918 89.1052C68.4807 89.9454 69.302 90.6856 70.2367 91.2907C69.9233 92.2011 69.7207 93.1277 70.0016 93.5113C70.6365 94.3704 73.4892 94.9323 73.9134 94.781C74.1538 94.6946 74.6185 93.93 74.9994 92.944C76.1556 93.0548 77.3037 92.9764 78.4032 92.7198C78.8138 93.5329 79.2974 94.2569 79.7431 94.3245C80.7994 94.4838 83.2145 92.8657 83.4063 92.455C83.5117 92.2308 83.3145 91.3934 82.9039 90.4559C83.7737 89.7184 84.5274 88.8351 85.1299 87.8274C85.9916 88.1111 86.8426 88.2786 87.2046 88.0138C88.0637 87.379 88.6256 84.5289 88.4743 84.1021C88.3878 83.8617 87.6206 83.3943 86.6292 83.0134C86.7021 81.8734 86.5833 80.7442 86.3023 79.669C87.1614 79.2476 87.9475 78.7397 88.0177 78.2723C88.1771 77.2161 86.5589 74.8009 86.1483 74.6091C85.9025 74.493 84.9381 74.7388 83.9007 75.2224C83.1902 74.4335 82.3555 73.7447 81.4126 73.1909C81.7557 72.2291 82.0016 71.2161 81.7017 70.8109C81.0696 69.9491 78.2195 69.3872 77.7927 69.5412ZM80.532 83.8211C79.7215 86.32 77.039 87.6896 74.5374 86.8792C72.0385 86.0688 70.6689 83.3862 71.4793 80.8846C72.2898 78.3858 74.9723 77.0161 77.4739 77.8266C79.9755 78.637 81.3424 81.3223 80.532 83.8211Z" fill="#626261"/>
<path d="M82.3581 84.3723C81.2073 87.9247 77.3793 89.8752 73.8296 88.7243C70.2772 87.5735 68.3267 83.7455 69.4775 80.1958C70.6283 76.6434 74.4563 74.6929 78.0061 75.8437C81.5585 76.9973 83.5116 80.8225 82.3581 84.3723ZM69.5694 80.2255C68.4347 83.7266 70.3582 87.4979 73.8593 88.6325C77.3604 89.7671 81.1317 87.8436 82.2663 84.3425C83.4009 80.8414 81.4774 77.0702 77.9763 75.9356C74.4779 74.801 70.7067 76.7244 69.5694 80.2255Z" fill="white"/>
<path d="M77.0201 72.5397C77.0012 72.5803 76.9822 72.6208 76.9606 72.6613C77.6522 72.7261 78.3465 72.8666 79.0327 73.0881C84.1249 74.7387 86.9236 80.2254 85.2703 85.3177C84.1898 88.6513 81.464 91.0016 78.2816 91.7634C78.2762 91.8066 78.2708 91.8526 78.2627 91.8958C81.5072 91.1367 84.287 88.7486 85.3892 85.3555C87.0614 80.1984 84.2276 74.6415 79.0705 72.9693C78.3924 72.7478 77.7035 72.61 77.0201 72.5397Z" fill="white"/>
<path d="M66.9085 85.6014C66.2034 83.6455 66.1169 81.4546 66.8058 79.3285C66.8193 79.288 66.8355 79.2475 66.849 79.2043C66.8031 79.207 66.7599 79.2043 66.7139 79.2043C66.7058 79.2313 66.695 79.2583 66.6842 79.288C65.99 81.433 66.0737 83.6428 66.7788 85.6176C66.8247 85.6122 66.8652 85.6068 66.9085 85.6014Z" fill="white"/>
<path d="M55.5272 14.2988L54.1413 18.9832L54.452 25.4262L49.1139 26.0313L48.9977 14.9526L52.9554 8.80133L55.5272 14.2988Z" fill="#E8C2B6"/>
<path d="M56.7023 6.10261L55.5812 14.0179L48.9977 14.9526L56.7023 6.10261Z" fill="#838383"/>
<path d="M37.9487 65.7537C39.8235 63.4412 41.6957 61.1288 43.665 58.7029C43.3111 58.6704 41.2472 58.6029 40.4314 58.6353C37.7434 58.7434 35.4985 57.0279 34.7421 54.6425C34.5368 53.9969 34.4827 53.281 34.4827 52.5975C34.4665 44.3391 34.4773 36.0835 34.4719 27.8251C34.4692 25.029 36.1279 22.8814 38.4539 22.1979C38.905 22.0655 39.3994 22.0385 39.8749 22.0358C45.8073 22.025 75.5505 22.0628 79.7188 22.0169C82.4581 21.9872 85.0029 24.4023 85.0218 27.3037C85.0542 31.9151 85.0056 51.3495 85.038 52.919C85.1029 56.0068 82.5608 58.6056 79.3406 58.6245C76.9931 58.638 60.0765 58.6947 57.7748 58.6029C56.4997 58.5516 55.4705 59.1459 54.3601 59.5376C52.923 60.0428 51.5263 60.6641 50.1053 61.226C47.6551 62.1932 45.1995 63.1495 42.7492 64.1166C41.3472 64.6677 39.9505 65.2296 38.5511 65.778C38.3999 65.8374 38.2324 65.8482 38.0703 65.8807C38.0271 65.8374 37.9892 65.7969 37.9487 65.7537Z" fill="#B7B7B7"/>
<path opacity="0.4" d="M77.7846 33.698H41.8253C40.6988 33.698 39.7857 32.7849 39.7857 31.6584C39.7857 30.5319 40.6988 29.6188 41.8253 29.6188H77.7846C78.9111 29.6188 79.8242 30.5319 79.8242 31.6584C79.8242 32.7849 78.9111 33.698 77.7846 33.698Z" fill="#D7D7D7"/>
<path opacity="0.4" d="M77.7846 42.3671H41.8253C40.6988 42.3671 39.7857 41.454 39.7857 40.3275C39.7857 39.201 40.6988 38.2879 41.8253 38.2879H77.7846C78.9111 38.2879 79.8242 39.201 79.8242 40.3275C79.8242 41.454 78.9111 42.3671 77.7846 42.3671Z" fill="#D7D7D7"/>
<path opacity="0.4" d="M77.7846 51.0361H41.8253C40.6988 51.0361 39.7857 50.123 39.7857 48.9965C39.7857 47.87 40.6988 46.9569 41.8253 46.9569H77.7846C78.9111 46.9569 79.8242 47.87 79.8242 48.9965C79.8242 50.123 78.9111 51.0361 77.7846 51.0361Z" fill="#D7D7D7"/>
<path d="M8.87008 4.94102L7.67062 3.52545C7.79759 2.83928 8.31357 2.28818 8.99164 2.12069L9.11321 2.09097L10.418 3.40119L8.87008 4.94102Z" fill="#F2DBCD"/>
<path d="M32.435 3.71997C32.9645 4.65197 33.6156 5.52185 34.3693 6.28906C34.2396 8.97703 35.2473 11.5056 36.9141 13.5344C32.1406 16.2791 25.2491 20.0639 22.6152 20.6258C18.4171 21.5226 8.20825 4.81676 8.20825 4.81676C8.20825 4.81676 8.50812 4.43856 10.4045 2.95815C18.798 6.65646 22.8313 13.2075 22.8313 13.2075C22.8313 13.2075 29.1798 7.15353 32.435 3.71997Z" fill="#4A4A4A"/>
<path d="M7.8408 3.66049C7.8408 3.66049 6.50087 3.13641 3.69674 6.15395C3.12133 6.77258 3.02408 6.4295 2.65128 6.41599C3.22399 5.25436 4.32349 2.77171 4.32349 2.77171L6.81694 1.29671L6.63594 0.591622L8.33247 0C8.33247 0 9.70211 1.34533 9.28338 2.22601C8.68096 2.82574 7.8408 3.66049 7.8408 3.66049Z" fill="#4A4A4A"/>
<path d="M58.5879 8.5637L55.23 8.87437L55.1192 5.27871L60.3169 6.04593L58.5879 8.5637Z" fill="#E8C2B6"/>
<path d="M57.9666 9.66314C57.9747 10.0819 58.0341 10.4682 58.1962 10.6735C59.9386 11.8946 64.6743 10.5654 64.6743 10.5654L65.5037 8.64739L63.999 6.18635L60.8355 6.01886C59.99 5.97294 59.1768 6.37275 58.6419 7.09135C58.1989 7.86126 57.9477 8.75275 57.9666 9.66314Z" fill="#F2DBCD"/>
<path d="M62.1998 6.55375C62.7292 6.69423 63.9584 6.63479 63.8639 7.17509C63.7963 7.5695 63.7288 8.92294 63.7234 9.37679C63.7126 10.4628 64.1205 12.3997 65.7711 12.4159C66.5978 12.424 67.3163 11.6298 67.5325 11.1246C67.7459 10.6276 67.7405 10.0657 67.5676 9.55508C67.1597 8.35563 66.2547 6.76176 66.387 6.13232C66.6113 5.07064 65.9953 4.00356 65.093 4.01167C64.1286 4.01977 62.6725 4.50874 61.7459 4.97609C61.211 5.24624 60.7275 5.60824 60.3168 6.04587L62.1998 6.55375Z" fill="#4A4A4A"/>
<path d="M62.0918 5.45152C62.3025 5.69465 62.2592 6.1485 61.9918 6.46187C61.7244 6.77524 61.338 6.83197 61.1273 6.58884C60.9166 6.34571 60.9598 5.89186 61.2273 5.57849C61.492 5.26512 61.8783 5.20839 62.0918 5.45152Z" fill="#F2DBCD"/>
<path d="M5.87412 22.244L4.16139 21.5308C3.96148 20.8608 4.1695 20.1368 4.69628 19.6776L4.79083 19.5938L6.54949 20.1638L5.87412 22.244Z" fill="#F2DBCD"/>
<path d="M57.0021 5.40298C57.0021 5.40298 50.6699 -4.51952 32.6511 2.77175C34.4367 6.06214 37.8163 12.2836 37.8163 12.2836L46.6636 11.1544L52.5879 14.1611L57.0021 5.40298Z" fill="#B7B7B7"/>
<path d="M46.6636 11.1544C46.6636 11.1544 45.6586 18.1809 46.3178 21.7874C46.977 25.3965 52.2151 32.8499 52.2151 32.8499L53.5253 31.0291L50.6726 22.2493L52.5879 14.1557L46.6636 11.1544Z" fill="#F2DBCD"/>
<path d="M53.4902 31.1344C53.4875 31.329 53.5442 31.9935 54.2898 33.1308C54.9571 34.152 56.9697 35.8674 55.7189 36.2186C54.506 35.6864 53.0201 35.2083 53.0201 35.2083C52.3178 34.8138 51.764 33.5793 51.5641 32.7445L51.2588 30.1025C51.2588 30.1025 52.1449 29.1651 52.1773 29.111L52.6636 29.392C52.8473 30.016 53.1309 30.6023 53.4902 31.1344Z" fill="#F2DBCD"/>
<path d="M53.3254 31.791C53.3254 31.791 53.3038 31.8585 53.293 31.9882C53.1417 31.9017 52.9878 31.8234 52.8338 31.7504C52.4285 31.2588 52.0071 30.7806 51.5965 30.2943C51.9099 30.0998 52.3502 29.8243 52.3772 29.8L55.7 32.4555C55.7 32.4555 55.5623 32.9877 54.7275 32.6797C53.8927 32.3691 53.3254 31.791 53.3254 31.791Z" fill="#F2DBCD"/>
<path d="M32.6511 2.77179C32.6511 2.77179 27.7128 5.1923 26.5998 9.31745C25.4868 13.4453 22.064 23.2354 22.064 23.2354C22.064 23.2354 15.4887 19.2453 6.33067 19.7775C5.32032 21.9603 5.22577 22.4331 5.22577 22.4331C5.22577 22.4331 21.9263 32.6473 25.2545 29.9351C28.5827 27.2228 37.8136 12.281 37.8136 12.281L32.6511 2.77179Z" fill="#585858"/>
<path d="M4.37479 21.574C4.37479 21.574 2.94571 21.7198 1.8219 25.6802C1.59227 26.4933 1.34914 26.234 1.01146 26.3907C0.992546 25.0967 0.838562 22.3844 0.838562 22.3844L2.3865 19.9342L1.90294 19.3885L3.14292 18.0891C3.14292 18.0891 4.97451 18.6618 5.00423 19.637C4.73948 20.4474 4.37479 21.574 4.37479 21.574Z" fill="#4A4A4A"/>
<path d="M75.4262 41.8862C75.5964 42.2834 77.0714 43.0344 78.8517 43.5341C78.8571 45.128 79.1002 46.6895 79.5541 48.1753C78.1277 48.9371 76.704 49.888 76.6311 50.6849C76.4825 52.3004 79.1515 55.8204 79.7891 56.0771C80.197 56.2419 81.8206 55.707 83.4631 54.7696C84.5383 55.8718 85.7782 56.8254 87.156 57.5926C86.6832 59.1432 86.3482 60.829 86.8588 61.4476C87.8962 62.6957 92.2699 63.2981 92.9047 63.028C93.3018 62.8605 94.0474 61.3936 94.5472 59.6214C96.1654 59.67 97.7566 59.4728 99.2748 59.0568C100.02 60.4291 100.933 61.7556 101.701 61.8258C103.316 61.9744 106.836 59.3053 107.093 58.6678C107.247 58.2869 106.793 56.8578 105.977 55.3369C107.19 54.2185 108.241 52.9082 109.076 51.4359C110.486 51.8304 111.907 52.0573 112.463 51.5953C113.711 50.558 114.314 46.1843 114.044 45.5494C113.892 45.1928 112.69 44.5526 111.164 44.0636C111.231 42.2996 111.007 40.5652 110.526 38.9227C111.723 38.2285 112.779 37.4342 112.842 36.7508C112.99 35.1353 110.321 31.6153 109.684 31.3586C109.332 31.2181 108.082 31.5937 106.696 32.296C105.499 31.0426 104.094 29.9755 102.514 29.1488C102.868 27.817 103.049 26.5122 102.611 25.9854C101.574 24.7373 97.2 24.1349 96.5652 24.405C96.2086 24.5563 95.5657 25.7639 95.0767 27.2983C93.3397 27.2902 91.6404 27.5685 90.0331 28.0898C89.3199 26.8256 88.4797 25.6747 87.7665 25.6099C86.151 25.4613 82.631 28.1304 82.3744 28.7679C82.2204 29.1488 82.677 30.5941 83.5036 32.1204C82.369 33.2686 81.3992 34.595 80.6428 36.07C79.1542 35.635 77.5928 35.3514 77.0066 35.8404C75.7585 36.8777 75.1561 41.2541 75.4262 41.8862ZM96.8435 36.4725C100.704 37.4829 103.016 41.4297 102.009 45.2928C100.998 49.1532 97.0515 51.4657 93.1884 50.458C89.3253 49.4477 87.0155 45.5008 88.0232 41.6377C89.0308 37.7773 92.9804 35.4649 96.8435 36.4725Z" fill="#ECECEC"/>
<path d="M97.5188 33.6549C103.006 35.0893 106.304 40.7192 104.87 46.2059C103.435 51.6926 97.8052 54.9911 92.3185 53.5566C86.8318 52.1221 83.5333 46.4922 84.9678 41.0056C86.4023 35.5189 92.0322 32.2204 97.5188 33.6549ZM92.3536 53.4161C97.762 54.829 103.313 51.5791 104.726 46.1708C106.139 40.7624 102.889 35.2109 97.481 33.798C92.0727 32.3852 86.5212 35.635 85.1083 41.0434C83.6954 46.4517 86.9453 52.0005 92.3536 53.4161Z" fill="white"/>
<path d="M80.0431 42.7939C80.1079 42.8182 80.17 42.8452 80.2322 42.8722C80.2727 41.8187 80.4213 40.7543 80.6995 39.6926C82.7553 31.8259 90.83 27.0984 98.6967 29.1542C103.848 30.4995 107.652 34.4275 109.087 39.1847C109.087 39.1847 109.087 39.1847 109.089 39.1847C109.157 39.1874 109.224 39.1928 109.292 39.2009C107.855 34.3491 103.989 30.3401 98.7453 28.9705C90.776 26.8877 82.5986 31.6747 80.5158 39.644C80.2403 40.6949 80.089 41.7484 80.0431 42.7939Z" fill="white"/>
<path d="M100.742 56.9794C97.8376 58.2194 94.5202 58.5462 91.2379 57.6872C91.1731 57.671 91.1109 57.6493 91.0488 57.6331C91.0569 57.7007 91.0596 57.7682 91.0623 57.8358C91.1055 57.8466 91.1488 57.8628 91.192 57.8736C94.504 58.7407 97.8511 58.4139 100.785 57.1712C100.766 57.1064 100.752 57.0442 100.742 56.9794Z" fill="white"/>
<g opacity="0.21">
<path opacity="0.21" d="M97.1298 82.2894C95.3874 81.5438 93.6449 80.7955 91.9025 80.0553C90.3437 79.3935 88.7985 78.6992 87.2127 78.1103C86.7778 77.9482 86.17 77.9752 85.735 78.1454C82.4176 79.4448 78.9597 79.9689 75.4289 79.9716C69.1858 79.977 63.4506 78.3021 58.5123 74.3903C55.1085 71.6943 52.6042 68.3066 51.583 64.0086C50.2836 58.5516 51.7776 53.7376 55.1274 49.3774C60.5168 42.3644 69.9233 39.7143 78.4519 40.5679C78.822 40.6058 79.1921 40.6517 79.5622 40.7057C86.3969 41.7323 92.2618 44.6283 96.4382 50.3419C98.2509 52.8218 99.3153 55.5935 99.5774 58.7245C100.074 64.6705 97.7404 69.3791 93.5612 73.3557C93.0884 73.8041 92.9669 74.131 93.318 74.7388C94.5769 76.9108 95.7737 79.1233 96.9866 81.3196C97.1217 81.5655 97.2271 81.8302 97.3459 82.0841C97.273 82.1544 97.2028 82.2219 97.1298 82.2894Z" fill="#8B8B8C"/>
</g>
<path d="M95.6629 82.5893C94.015 81.8842 92.3671 81.1765 90.7192 80.4768C89.2442 79.85 87.7827 79.1963 86.2834 78.6371C85.8728 78.4831 85.2973 78.5074 84.884 78.6695C81.7449 79.8987 78.4761 80.393 75.1371 80.3957C69.2317 80.4011 63.8072 78.8154 59.139 75.1171C55.9189 72.5669 53.5524 69.3629 52.5853 65.2972C51.3588 60.1347 52.769 55.5827 55.9378 51.4603C61.0355 44.8282 69.9314 42.3212 77.998 43.129C78.3492 43.1641 78.6977 43.2073 79.0461 43.2586C85.5108 44.2285 91.0596 46.9678 95.0064 52.3707C96.7192 54.7156 97.7268 57.3387 97.9753 60.2995C98.4454 65.924 96.2383 70.376 92.2833 74.1364C91.8376 74.5606 91.7214 74.8712 92.0537 75.4466C93.2451 77.5025 94.3743 79.5934 95.5251 81.6708C95.6548 81.9032 95.752 82.1517 95.8655 82.3948C95.8007 82.4624 95.7331 82.5272 95.6629 82.5893Z" fill="#D7D7D7"/>
<path opacity="0.5" d="M85.4783 59.2621H62.913C61.7864 59.2621 60.8734 58.349 60.8734 57.2225C60.8734 56.096 61.7864 55.1829 62.913 55.1829H85.4783C86.6048 55.1829 87.5179 56.096 87.5179 57.2225C87.5152 58.3517 86.6048 59.2621 85.4783 59.2621Z" fill="white"/>
<path opacity="0.5" d="M85.4783 68.339H62.913C61.7864 68.339 60.8734 67.4259 60.8734 66.2994C60.8734 65.1729 61.7864 64.2598 62.913 64.2598H85.4783C86.6048 64.2598 87.5179 65.1729 87.5179 66.2994C87.5152 67.4259 86.6048 68.339 85.4783 68.339Z" fill="white"/>
<path d="M132.527 90.1615L133.216 93.6815C133.373 94.1354 133.654 94.6216 134.213 94.6027C134.213 94.6027 134.583 94.5919 134.94 94.5136C135.11 94.3515 133.967 89.7293 133.967 89.7293L133.94 89.7131C133.048 89.3754 132.527 90.1615 132.527 90.1615Z" fill="#B7B7B7"/>
<path d="M134.94 94.5136L133.967 89.7293L134.224 89.7212L135.164 94.4785L134.94 94.5136Z" fill="#4A4A4A"/>
<path d="M132.797 91.5555L132.862 91.8742L133.419 91.6608L133.359 91.3528L132.797 91.5555Z" fill="white"/>
<path d="M132.932 92.2362L132.997 92.5523L133.554 92.3389L133.492 92.0336L132.932 92.2362Z" fill="white"/>
<path d="M130.914 90.2291L132.527 90.1616C132.773 90.4074 132.857 90.7721 132.743 91.099L132.722 91.1584L131.193 91.6366L130.914 90.2291Z" fill="#F2DBCD"/>
<path d="M110.221 78.1454C110.221 78.1454 112.199 78.6884 113.895 80.7469C115.024 82.1165 115.932 84.8342 117.023 86.7307C118.02 88.465 119.625 89.3403 121.616 89.5456L130.914 90.2318L131.193 91.6392C131.193 91.6392 121.602 95.759 116.861 93.2574C112.123 90.7531 106.064 82.1949 106.064 82.1949L110.221 78.1454Z" fill="#4A4A4A"/>
<path d="M123.402 101.578L122.548 105.063C122.499 105.541 122.551 106.1 123.064 106.319C123.064 106.319 123.404 106.465 123.761 106.543C123.985 106.468 124.89 101.791 124.89 101.791L124.874 101.767C124.207 101.084 123.402 101.578 123.402 101.578Z" fill="#B7B7B7"/>
<path d="M123.761 106.541L124.89 101.789L125.125 101.891L123.98 106.6L123.761 106.541Z" fill="#4A4A4A"/>
<path d="M123.061 102.956L122.988 103.272L123.58 103.312L123.655 103.007L123.061 102.956Z" fill="white"/>
<path d="M122.896 103.631L122.823 103.944L123.418 103.985L123.491 103.68L122.896 103.631Z" fill="white"/>
<path d="M121.91 100.962L123.402 101.578C123.523 101.905 123.445 102.27 123.204 102.521L123.161 102.567L121.573 102.359L121.91 100.962Z" fill="#F2DBCD"/>
<path d="M108.208 81.3007C108.208 81.3007 109.951 81.9598 110.626 84.5397C111.075 86.2579 110.58 89.7671 110.775 91.9472C110.95 93.9408 112.039 95.4104 113.76 96.4316L121.91 100.962L121.57 102.356C121.57 102.356 111.134 102.064 107.887 97.8039C104.637 93.541 102.317 83.4727 102.317 83.4727L108.208 81.3007Z" fill="#585858"/>
<path d="M112.328 70.1382L120.19 75.4601C120.19 75.4601 121.643 74.7794 122.551 74.9333C123.026 75.0144 123.348 75.5655 123.547 76.0734C123.699 76.4597 123.375 76.8622 122.967 76.7973C122.41 76.7082 121.721 76.6434 121.384 76.7811C120.487 77.1485 119.887 76.7244 119.887 76.7244L110.559 72.2346L112.328 70.1382Z" fill="#F2DBCD"/>
<path d="M86.5238 65.6322L83.9385 65.2351L80.8264 57.2847L82.215 54.9857C82.215 54.9857 81.7503 54.7291 81.3532 55.2072C80.9561 55.6854 80.4698 55.8475 80.4698 55.8475C80.4698 55.8475 79.7972 55.6125 80.3213 54.8479C80.5563 54.3239 80.9966 54.4265 82.142 53.6539C82.0313 53.4729 80.2159 54.0024 80.2159 54.0024C79.6378 54.1456 78.9948 55.8637 78.9948 55.8637C78.9813 56.0285 79.011 56.1933 79.0759 56.3446L79.7026 57.7898C79.7026 57.7898 81.5315 66.5966 82.007 67.3639C82.4824 68.1311 84.6004 68.2715 84.6004 68.2715L86.5238 65.6322Z" fill="#F2DBCD"/>
<path d="M102.284 64.0924C105.456 64.3436 112.79 70.4516 112.79 70.4516L111.542 72.7101L105.78 70.3652C105.78 70.3652 108.541 75.5007 111.637 78.8343C112.18 80.4687 110.464 81.3088 107.536 82.4354C104.607 83.5619 102.192 83.497 102.192 83.497C102.192 83.497 97.8267 76.7028 95.2333 73.272C92.6399 69.8411 93.0694 69.0388 92.2266 69.7277C89.4603 69.833 83.7845 68.1662 83.7845 68.1662L86.5238 65.6295L95.6683 65.4053C95.6656 65.4053 99.4827 64.2383 102.284 64.0924Z" fill="#B7B7B7"/>
<path d="M92.8425 57.3441L92.2131 59.9457C91.9457 61.0506 92.2671 62.2149 93.0587 63.028L93.7773 63.7628L92.8425 57.3441Z" fill="#F2DBCD"/>
<path d="M94.4283 55.526C98.3589 53.092 101.36 61.6718 101.36 61.6718C101.36 61.6718 103.692 66.9991 103.351 69.9302C103.057 72.4669 100.069 73.6096 98.2995 73.5745C97.435 73.5583 96.576 73.7204 95.7925 74.0851C94.6417 74.62 93.0749 74.936 91.8781 73.0045C90.7516 71.1864 92.051 68.4336 92.8587 66.5453C93.3855 65.3134 93.4287 63.9329 93.0154 62.6579C92.3157 60.5156 91.7836 57.1631 94.4283 55.526Z" fill="#4A4A4A"/>
</svg>
