<svg width="884" height="746" viewBox="0 0 884 746" fill="none" xmlns="http://www.w3.org/2000/svg">
<path opacity="0.7" d="M653.981 303.013C801.377 284.859 967.144 496.01 985.893 648.221C1004.64 800.431 808.741 691.137 661.345 709.29C513.948 727.444 303.238 902.104 284.495 749.894C265.753 597.683 506.585 321.166 653.981 303.013Z" fill="#A6B4D0" fill-opacity="0.05"/>
<path opacity="0.7" d="M449.916 670.01C302.427 687.276 137.961 475.031 120.138 322.643C102.315 170.256 297.53 280.785 445.019 263.519C592.508 246.253 804.254 72.7993 822.071 225.187C839.887 377.574 597.406 652.744 449.916 670.01Z" fill="#A6B4D0" fill-opacity="0.05"/>
<path d="M245 145.381L326.414 209.461L351.12 225.865L347.807 195.686L245 145.381Z" fill="#CDCBCB"/>
<path d="M245 145.381L365.197 174.049L347.807 195.686L245 145.381Z" fill="#E9E9EA"/>
<path d="M299.213 239.766L326.414 209.461L245 145.381L299.213 239.766Z" fill="#E9E9EA"/>
<path d="M707.213 434.974L879.732 552.667L931.666 582.265L920.862 522.03L707.213 434.974Z" fill="#CDCBCB"/>
<path d="M707.213 434.974L952.864 476.131L920.862 522.03L707.213 434.974Z" fill="#E9E9EA"/>
<path d="M829.189 617.344L879.732 552.667L707.213 434.974L829.189 617.344Z" fill="#E9E9EA"/>
<path d="M373.532 231.884C371.276 231.898 369.044 232.115 366.882 232.541C366.131 232.679 365.398 232.184 365.246 231.435C365.089 230.666 365.603 229.951 366.351 229.799C368.679 229.349 371.088 229.09 373.502 229.09C374.27 229.075 374.896 229.709 374.894 230.465C374.899 230.642 374.873 230.817 374.8 230.972C374.608 231.476 374.101 231.84 373.532 231.884Z" fill="#E9E9EA"/>
<path d="M458.924 359.026C458.197 358.789 457.798 357.993 458.035 357.265C459.385 353.138 459.989 348.643 459.837 343.91C459.8 343.147 460.407 342.496 461.182 342.48C461.945 342.443 462.576 343.062 462.612 343.825C462.766 348.869 462.115 353.698 460.668 358.126C460.667 358.156 460.655 358.173 460.647 358.204C460.381 358.863 459.623 359.232 458.924 359.026ZM460.485 336.889C459.753 337.046 458.993 336.563 458.849 335.821C457.912 331.358 456.381 327.047 454.268 323.012C453.905 322.326 454.166 321.491 454.853 321.136C455.538 320.773 456.375 321.041 456.729 321.721C458.974 325.975 460.597 330.535 461.574 335.242C461.643 335.524 461.606 335.791 461.512 336.031C461.342 336.457 460.968 336.781 460.485 336.889ZM451.855 316.398C451.25 316.87 450.382 316.749 449.91 316.144L449.522 315.634C446.897 312.327 443.821 309.175 440.383 306.299C439.79 305.799 439.71 304.926 440.197 304.343C440.697 303.75 441.571 303.67 442.154 304.157C445.742 307.159 448.94 310.443 451.682 313.898L452.098 314.439C452.411 314.831 452.473 315.345 452.284 315.781C452.202 316.012 452.047 316.205 451.855 316.398ZM435.705 300.953C435.281 301.598 434.426 301.771 433.781 301.347C430.184 298.947 426.126 296.658 421.746 294.536C421.059 294.202 420.781 293.337 421.106 292.682C421.439 291.995 422.273 291.708 422.959 292.042C427.448 294.225 431.613 296.575 435.316 299.058C435.873 299.41 436.068 300.112 435.836 300.713C435.794 300.802 435.742 300.879 435.705 300.953ZM415.956 290.375C415.652 291.1 414.845 291.412 414.165 291.188C413.807 291.057 413.447 290.882 413.088 290.752C412.359 292.152 411.563 293.513 410.709 294.841C410.29 295.471 409.431 295.659 408.786 295.236C408.157 294.817 407.986 293.976 408.391 293.312C409.142 292.138 409.844 290.943 410.481 289.716C407.579 288.618 404.483 287.506 401.094 286.376C400.356 286.119 399.969 285.343 400.206 284.615C400.443 283.888 401.24 283.489 401.967 283.726C405.475 284.899 408.667 286.045 411.682 287.195C412.576 285.155 413.318 283.056 413.887 280.946C414.077 280.206 414.845 279.768 415.585 279.959C416.325 280.149 416.763 280.916 416.573 281.656C415.98 283.874 415.204 286.069 414.262 288.206C414.574 288.324 414.884 288.471 415.203 288.587C415.903 288.874 416.241 289.668 415.956 290.375ZM416.439 274.342C415.678 274.311 415.084 273.656 415.129 272.892C415.253 270.09 415.078 267.309 414.571 264.608C414.239 262.931 413.786 261.241 413.227 259.616C412.983 258.893 413.371 258.1 414.094 257.856C414.817 257.612 415.61 258 415.854 258.723C416.468 260.478 416.953 262.295 417.302 264.102C417.843 267.012 418.039 270.018 417.899 273.045C417.892 273.202 417.861 273.348 417.806 273.485C417.579 274.032 417.05 274.401 416.439 274.342ZM405.273 301.545C401.864 305.13 397.989 308.035 393.766 310.215C393.1 310.559 392.264 310.298 391.91 309.618C391.55 308.94 391.827 308.116 392.507 307.762C396.462 305.731 400.074 303.002 403.291 299.647C403.828 299.091 404.693 299.079 405.263 299.613C405.691 300.027 405.804 300.612 405.601 301.133C405.529 301.295 405.445 301.437 405.273 301.545ZM411.708 252.8C411.04 253.21 410.19 252.99 409.79 252.341C407.459 248.526 404.486 245.101 400.952 242.111C400.359 241.611 400.279 240.738 400.766 240.155C401.266 239.562 402.14 239.482 402.723 239.969C406.494 243.15 409.678 246.822 412.148 250.863C412.374 251.263 412.418 251.722 412.249 252.11C412.14 252.39 411.94 252.621 411.708 252.8ZM385.644 313.29C384.419 313.623 383.177 313.863 381.945 314.042C378.396 314.573 374.645 314.44 371.109 313.621C370.359 313.462 369.911 312.712 370.069 311.962C370.228 311.213 370.978 310.764 371.727 310.923C374.913 311.655 378.324 311.788 381.543 311.313C382.688 311.143 383.83 310.922 384.959 310.63C385.71 310.418 386.452 310.882 386.645 311.615C386.725 311.91 386.694 312.213 386.59 312.477C386.44 312.891 386.088 313.211 385.644 313.29ZM393.071 283.803C387.762 282.319 383.504 281.595 379.644 281.549C378.889 281.555 378.27 280.919 378.283 280.146C378.289 279.412 378.914 278.772 379.687 278.786C383.822 278.837 388.303 279.6 393.848 281.157C394.606 281.358 395.024 282.144 394.817 282.873C394.823 282.901 394.795 282.951 394.782 282.998C394.51 283.658 393.802 284.017 393.071 283.803ZM396.153 236.944C395.779 237.616 394.921 237.849 394.261 237.465C392.478 236.44 390.602 235.551 388.683 234.782C386.383 233.879 384.013 233.152 381.614 232.661C380.865 232.502 380.368 231.769 380.526 231.019C380.679 230.242 381.418 229.773 382.168 229.932C384.704 230.448 387.23 231.211 389.692 232.187C391.728 232.985 393.717 233.926 395.62 235.032C396.22 235.375 396.47 236.097 396.217 236.739C396.196 236.824 396.175 236.865 396.153 236.944ZM364.92 309.811C364.478 310.437 363.62 310.596 362.987 310.155C359.623 307.851 357.401 304.71 356.516 301.097C356.182 299.791 356.055 298.445 356.125 297.084C356.156 296.322 356.811 295.729 357.575 295.774C358.337 295.804 358.93 296.46 358.885 297.224C358.816 298.319 358.929 299.4 359.183 300.447C359.917 303.438 361.698 305.945 364.523 307.873C365.063 308.25 365.247 308.933 365.013 309.526C364.98 309.621 364.919 309.729 364.92 309.811ZM371.763 282.548C367.667 283.77 363.777 286.597 361.387 290.096C360.984 290.729 360.099 290.901 359.473 290.459C358.839 290.055 358.668 289.17 359.11 288.544C361.901 284.478 366.232 281.33 371 279.903C371.734 279.68 372.503 280.094 372.727 280.828C372.818 281.144 372.798 281.466 372.683 281.748C372.516 282.151 372.212 282.454 371.763 282.548Z" fill="#E9E9EA"/>
<path d="M456.883 366.199C455.578 368.221 454.041 370.119 452.332 371.812C451.798 372.345 450.922 372.337 450.372 371.791C449.84 371.257 449.848 370.382 450.393 369.832C451.951 368.271 453.356 366.54 454.557 364.671C454.981 364.026 455.831 363.825 456.475 364.248C457.025 364.601 457.259 365.311 457.014 365.921C456.999 365.998 456.957 366.088 456.883 366.199Z" fill="#E9E9EA"/>
<path d="M878.686 12.4481L805.23 18.5737L774.15 31.3591L755.46 48.208L878.686 12.4481Z" fill="#E9E9EA"/>
<path d="M878.686 12.448L760.9 53.5987L755.46 48.2079" fill="#CDCBCB"/>
<path d="M769.527 72.7583L769.792 72.8698L784.415 85.692L878.434 12.6218L769.527 72.7583Z" fill="#CDCBCB"/>
<path d="M744.22 76.3838L750.799 55.1948L877.902 12.709L783.43 71.6925L744.22 76.3838Z" fill="#E9E9EA"/>
<path d="M878.686 12.4481L805.23 18.5737L774.15 31.3591L755.46 48.208L878.686 12.4481Z" fill="#E9E9EA"/>
<path d="M878.686 12.448L760.9 53.5987L755.46 48.2079" fill="#CDCBCB"/>
<path d="M769.527 72.7583L769.792 72.8698L784.415 85.692L878.434 12.6218L769.527 72.7583Z" fill="#CDCBCB"/>
<path d="M744.22 76.3838L750.799 55.1948L877.902 12.709L783.43 71.6925L744.22 76.3838Z" fill="#E9E9EA"/>
<path d="M434.795 620.223L276.973 620.378L208.405 642.196L165.559 674.863L434.795 620.223Z" fill="#E9E9EA"/>
<path d="M434.795 620.223L176.22 687.322L165.559 674.862" fill="#CDCBCB"/>
<path d="M191.261 729.723L191.805 730.007L220.754 759.94L434.227 620.55L191.261 729.723Z" fill="#CDCBCB"/>
<path d="M136.621 733.01L154.387 688.952L433.077 620.642L221.116 729.893L136.621 733.01Z" fill="#E9E9EA"/>
<path d="M650.737 426.375C653.251 423.009 655.577 419.458 657.6 415.731C658.059 414.884 659.129 414.568 660.004 415.052C660.851 415.511 661.166 416.58 660.683 417.455C658.566 421.314 656.132 425.021 653.545 428.513C652.586 429.77 651.61 431 650.63 432.22C650.281 432.675 649.731 432.896 649.175 432.851C648.799 432.844 648.465 432.708 648.138 432.442C647.399 431.827 647.283 430.705 647.906 429.953C648.883 428.765 649.815 427.569 650.737 426.375Z" fill="#E9E9EA"/>
<path d="M707.578 85.0912C712.532 82.6376 717.787 80.2324 723.627 77.7366C724.52 77.3613 725.557 77.77 725.929 78.6533C726.305 79.5466 725.896 80.5834 725.013 80.956C719.22 83.4286 714.035 85.8153 709.136 88.2331C708.865 88.3795 708.568 88.4261 708.267 88.4203C707.661 88.3886 707.058 88.0466 706.77 87.4399C706.354 86.5571 706.728 85.5083 707.578 85.0912Z" fill="#E9E9EA"/>
<path d="M683.97 102.431C683.451 102.408 682.929 102.13 682.61 101.649C682.063 100.833 682.268 99.7539 683.077 99.2196C687.743 96.0417 692.826 92.9457 698.201 89.9858C699.071 89.5208 700.119 89.8517 700.571 90.6713C701.036 91.5408 700.732 92.5712 699.903 93.0681C694.635 95.989 689.634 99.0314 685.067 102.14C684.702 102.376 684.315 102.446 683.97 102.431Z" fill="#E9E9EA"/>
<path d="M667.221 389.98C667.431 389.038 668.328 388.395 669.29 388.642C670.231 388.852 670.847 389.767 670.627 390.711C669.371 396.53 667.623 402.265 665.322 407.763C665.029 408.47 664.349 408.885 663.617 408.823C663.419 408.8 663.206 408.761 663.03 408.701C662.134 408.34 661.712 407.31 662.079 406.401C664.279 401.123 666.004 395.585 667.221 389.98Z" fill="#E9E9EA"/>
<path d="M670.371 381.674C669.399 381.59 668.714 380.736 668.798 379.764C668.959 378.195 669.076 376.659 669.156 375.069C669.356 370.864 669.281 366.668 668.919 362.558C668.823 361.591 669.549 360.748 670.506 360.654C671.446 360.576 672.317 361.285 672.41 362.242C672.805 366.514 672.878 370.903 672.647 375.233C672.557 376.869 672.46 378.475 672.289 380.089C672.187 381.034 671.386 381.715 670.459 381.683C670.417 381.684 670.399 381.656 670.371 381.674Z" fill="#E9E9EA"/>
<path d="M669.496 353.696C669.334 353.728 669.199 353.742 669.073 353.712C668.287 353.685 667.613 353.116 667.442 352.308C666.364 346.947 664.842 341.479 662.772 335.676C662.452 334.747 662.913 333.75 663.842 333.429C664.772 333.108 665.769 333.57 666.09 334.499C668.21 340.492 669.789 346.093 670.901 351.627C671.057 352.578 670.437 353.5 669.496 353.696Z" fill="#E9E9EA"/>
<path d="M625.19 203.23C624.969 205.541 624.776 207.834 624.66 210.138C624.493 213.619 624.438 217.123 624.533 220.546C624.567 221.519 623.804 222.308 622.839 222.329C622.793 222.319 622.748 222.31 622.686 222.316C621.777 222.268 621.031 221.548 621.035 220.597C620.924 217.072 620.972 213.462 621.158 209.891C621.283 207.541 621.453 205.159 621.691 202.833C621.775 201.861 622.56 201.119 623.601 201.26C624.596 201.391 625.274 202.258 625.19 203.23Z" fill="#E9E9EA"/>
<path d="M625.234 230.885C625.854 236.655 626.844 242.37 628.23 247.927C628.461 248.88 627.876 249.814 626.938 250.062C626.776 250.094 626.596 250.099 626.426 250.102C625.667 250.057 624.999 249.551 624.803 248.77C623.393 243.081 622.355 237.186 621.733 231.246C621.637 230.279 622.346 229.408 623.305 229.324C624.243 229.236 625.138 229.917 625.234 230.885Z" fill="#E9E9EA"/>
<path d="M630.631 176.045C628.935 181.575 627.575 187.24 626.589 192.912C626.436 193.785 625.644 194.422 624.78 194.384C624.708 194.392 624.627 194.371 624.54 194.362C623.586 194.187 622.956 193.298 623.12 192.347C624.124 186.542 625.533 180.736 627.259 175.081C627.556 174.148 628.518 173.627 629.45 173.924C630.407 174.151 630.928 175.113 630.631 176.045Z" fill="#E9E9EA"/>
<path d="M646.503 141.488C646.153 142.061 645.564 142.334 644.928 142.311C644.615 142.297 644.341 142.189 644.086 142.032C643.265 141.513 643.022 140.435 643.539 139.604C646.728 134.597 650.258 129.746 654.023 125.259C654.655 124.504 655.76 124.404 656.512 125.027C657.267 125.66 657.367 126.764 656.744 127.516C653.045 131.89 649.617 136.597 646.503 141.488Z" fill="#E9E9EA"/>
<path d="M649.192 301.552C648.921 301.698 648.596 301.763 648.296 301.757C647.69 301.725 647.114 301.365 646.814 300.794L645.803 298.831C643.465 294.273 641.117 289.718 638.861 285.106C638.423 284.219 638.777 283.175 639.664 282.738C640.551 282.3 641.595 282.653 642.033 283.541C644.281 288.122 646.604 292.663 648.931 297.181L649.942 299.144C650.387 300.061 650.061 301.087 649.192 301.552Z" fill="#E9E9EA"/>
<path d="M634.052 166.227C633.777 166.962 633.069 167.394 632.338 167.332C632.14 167.31 631.971 167.28 631.795 167.219C630.899 166.859 630.45 165.846 630.801 164.953C632.944 159.422 635.434 153.992 638.213 148.806C638.672 147.958 639.741 147.643 640.599 148.099C641.446 148.558 641.761 149.628 641.305 150.485C638.544 155.538 636.122 160.823 634.052 166.227Z" fill="#E9E9EA"/>
<path d="M652.376 307.817C653.263 307.379 654.307 307.733 654.727 308.593C657.798 314.75 660.168 319.833 662.208 324.597C662.584 325.491 662.175 326.527 661.292 326.9C661.03 327.001 660.778 327.057 660.51 327.053C659.859 327.012 659.251 326.65 658.989 325.983C657.012 321.298 654.648 316.277 651.603 310.178C651.165 309.29 651.526 308.234 652.376 307.817Z" fill="#E9E9EA"/>
<path d="M640.915 437.567C641.599 436.885 642.7 436.892 643.4 437.561C644.083 438.244 644.076 439.346 643.407 440.046C639.429 443.97 635.065 447.804 630.009 451.726C629.672 451.986 629.248 452.119 628.867 452.092C628.366 452.054 627.89 451.828 627.579 451.419C626.988 450.636 627.138 449.551 627.875 448.95C632.798 445.128 637.064 441.405 640.915 437.567Z" fill="#E9E9EA"/>
<path d="M628.92 256.827C629.849 256.506 630.837 257.013 631.158 257.942C632.867 262.987 634.975 268.289 637.56 274.104C637.963 274.98 637.572 276.044 636.679 276.419C636.417 276.52 636.138 276.594 635.865 276.57C635.232 276.557 634.633 276.149 634.334 275.545C631.67 269.633 629.563 264.256 627.802 259.098C627.511 258.118 628.025 257.117 628.92 256.827Z" fill="#E9E9EA"/>
<path d="M669.645 109.404C671.211 108.061 672.832 106.767 674.434 105.478C675.216 104.887 676.284 105.01 676.903 105.775C677.494 106.557 677.372 107.625 676.607 108.244C675.015 109.487 673.465 110.73 671.927 112.055C669.074 114.465 666.297 117.078 663.684 119.745C663.329 120.138 662.83 120.27 662.35 120.269C661.939 120.249 661.531 120.08 661.217 119.779C660.507 119.113 660.499 117.994 661.182 117.312C663.88 114.559 666.719 111.897 669.645 109.404Z" fill="#E9E9EA"/>
<path fillRule="evenodd" clipRule="evenodd" d="M574.929 355.058L577.932 304.4L520.801 301.063C520.801 301.063 518.531 354.724 518.531 355.458C489.432 358.595 457.796 362.266 457.796 362.266C457.796 362.266 481.156 459.109 481.156 465.183C481.156 471.256 588.144 480.333 593.483 477.33C598.823 474.326 633.729 362.399 633.729 362.399C633.729 362.399 603.695 357.327 574.929 355.058Z" fill="#EAA18F"/>
<path fillRule="evenodd" clipRule="evenodd" d="M638.534 264.955C642.672 259.349 661.694 249.004 667.5 233.186C673.307 217.368 650.948 205.554 651.883 188.535C652.817 171.516 675.71 133.473 659.158 119.457C642.606 105.441 622.449 127.733 610.502 123.461C600.892 119.991 604.162 109.445 591.548 105.641C582.27 102.838 576.731 110.513 568.054 111.448C551.102 113.049 530.879 95.2291 501.379 107.109C471.878 118.989 478.886 154.563 467.34 164.374C455.794 174.185 434.236 171.783 428.095 182.528C422.022 193.274 443.78 214.565 444.447 223.642C445.115 232.718 436.171 241.795 441.844 248.67C447.184 255.277 460.265 251.673 462.801 261.618C465.338 271.563 472.079 275.834 477.285 275.434C482.49 275.033 485.961 276.635 490.767 275.901C495.572 275.167 511.19 271.496 511.19 271.496L610.102 274.299L628.523 275.233L638.534 264.955Z" fill="#002C2D"/>
<path fillRule="evenodd" clipRule="evenodd" d="M487.829 299.861C446.783 291.252 455.726 252.541 465.204 249.404C474.748 246.334 480.154 258.348 481.622 263.82C482.29 276.301 483.358 288.115 487.829 299.861Z" fill="#F7BCAA"/>
<path fillRule="evenodd" clipRule="evenodd" d="M610.703 306.936C652.484 303.065 648.079 263.62 638.935 259.482C627.656 254.343 623.985 269.293 620.915 271.963C618.912 284.177 616.51 295.79 610.703 306.936Z" fill="#F7BCAA"/>
<path fillRule="evenodd" clipRule="evenodd" d="M546.63 349.651C542.025 349.384 488.965 334.767 482.891 279.104C476.818 223.441 489.566 174.118 495.239 167.044C500.912 159.969 557.376 164.174 557.376 164.174C557.376 164.174 613.907 166.51 618.712 174.185C623.518 181.861 630.526 232.318 618.112 286.913C605.697 341.442 551.236 349.918 546.63 349.651Z" fill="#F7BCAA"/>
<path fillRule="evenodd" clipRule="evenodd" d="M501.659 197.979C513.272 188.501 534.83 202.984 547.377 198.846C552.917 196.978 562.995 184.63 576.01 180.425C585.02 177.556 597.1 178.09 603.174 191.438C607.245 200.448 603.975 211.861 605.977 217.267C607.979 222.673 625.8 234.153 624.198 265.389C625.199 260.183 628.67 227.946 628.67 227.946L634.743 153.929L597.568 150.458L553.184 132.237C553.184 132.237 530.558 119.022 523.55 125.23C516.542 131.437 477.031 142.449 475.696 148.589C474.428 154.663 472.092 161.671 473.627 167.477C475.162 173.284 469.823 213.463 469.823 213.463C469.823 213.463 463.816 231.617 481.636 274.933C481.569 274.999 477.832 217.468 501.659 197.979Z" fill="#002C2D"/>
<path fillRule="evenodd" clipRule="evenodd" d="M734.509 394.569C701.271 371.209 637.265 358.728 596.553 357.193C596.553 357.193 589.077 389.697 548.698 389.897C508.319 389.697 500.844 357.193 500.844 357.193C460.131 358.728 396.192 371.209 362.954 394.569C329.716 417.929 366.291 504.227 366.291 504.227L397.86 506.563L401.998 746.635H695.465L699.603 506.563L749.259 508.899C749.259 508.832 767.747 417.929 734.509 394.569Z" fill="#2AB9D0"/>
<path fillRule="evenodd" clipRule="evenodd" d="M362.02 493.214C362.02 493.214 371.363 569.167 396.993 623.629C422.622 678.091 448.584 722.675 470.81 666.411C483.958 633.173 441.243 517.909 441.243 517.909L429.563 493.815L362.02 493.214Z" fill="#EAA18F"/>
<path d="M419.285 673.886C419.285 673.886 385.313 644.386 434.435 552.949C483.558 461.512 493.369 387.428 500.911 367.805C508.453 348.183 505.583 347.916 515.394 339.84C525.138 331.764 571.19 295.857 582.27 297.526C593.349 299.194 577.931 312.676 577.931 312.676L551.101 337.838C551.101 337.838 561.513 335.168 564.516 335.168C567.52 335.168 573.259 342.577 578.265 347.916C583.338 353.255 585.006 361.665 584.005 365.069C583.004 368.406 587.342 377.817 582.67 378.818L582.003 384.691C581.736 387.027 579.2 388.295 577.131 387.227L575.729 390.364C574.06 394.035 569.589 395.503 566.051 393.434L560.378 390.231L525.138 424.136C525.138 424.136 520.066 527.253 494.57 617.956C469.008 708.659 440.108 703.987 419.285 673.886Z" fill="white"/>
<path d="M421.354 674.954C421.354 674.954 387.382 645.454 436.505 554.017C485.627 462.58 495.438 388.495 502.98 368.873C510.522 349.251 507.652 348.984 517.463 340.908C527.208 332.832 573.26 296.925 584.339 298.593C595.418 300.262 580.001 313.744 580.001 313.744L553.17 338.906C553.17 338.906 563.582 336.236 566.586 336.236C569.589 336.236 575.329 343.645 580.335 348.984C585.407 354.323 587.076 362.733 586.074 366.137C585.073 369.474 589.411 378.885 584.74 379.886L584.072 385.759C583.805 388.095 581.269 389.363 579.2 388.295L577.798 391.432C576.13 395.103 571.658 396.571 568.121 394.502L562.581 391.232L527.341 425.137C527.341 425.137 522.269 528.254 496.773 618.957C471.077 709.727 442.178 704.988 421.354 674.954Z" fill="#F7BCAA"/>
<path d="M670.971 504.293C670.971 504.293 699.403 495.55 716.356 494.482C733.308 493.414 751.596 494.349 751.596 494.349C751.596 494.349 758.07 626.899 741.05 662.406C724.031 697.913 718.425 692.774 697.868 694.309C677.311 695.844 536.885 712.864 470.009 695.844C470.009 695.844 437.105 699.982 424.691 697.379C412.344 694.776 386.648 689.637 390.719 683.497L392.254 678.358C392.254 678.358 386.114 673.219 390.719 668.079C395.325 662.94 385.58 661.939 389.651 655.732C393.789 649.592 383.511 655.198 387.048 646.989L387.582 642.384C387.582 642.384 363.422 634.641 374.234 624.363C378.639 620.158 388.317 620.425 398.261 622.227C411.476 624.63 423.69 630.904 433.968 639.58C442.445 646.722 461.133 654.464 501.312 647.589C572.859 635.242 673.507 632.172 673.507 632.172L670.971 504.293Z" fill="#EAA18F"/>
</svg>
