<svg width="346" height="257" fill="none" xmlns="http://www.w3.org/2000/svg"><g clip-path="url(#clip0)"><path d="M54.474 88.836a25.996 25.996 0 0 1-18.401-7.637 26.1 26.1 0 0 1-7.622-18.437 26.1 26.1 0 0 1 7.622-18.438 25.996 25.996 0 0 1 18.4-7.636h236.842a25.996 25.996 0 0 1 18.401 7.636 26.101 26.101 0 0 1 7.622 18.438 26.101 26.101 0 0 1-7.622 18.437 25.996 25.996 0 0 1-18.401 7.637H54.474z" fill="#E6E6E6"/><path d="M54.474 40.089a22.606 22.606 0 0 0-16 6.64 22.696 22.696 0 0 0-6.628 16.033c0 6.013 2.384 11.78 6.627 16.032 4.244 4.252 10 6.64 16 6.64h236.843a22.604 22.604 0 0 0 16-6.64 22.695 22.695 0 0 0 6.628-16.032c0-6.014-2.384-11.78-6.628-16.033a22.604 22.604 0 0 0-16-6.64H54.474z" fill="#fff"/><path d="M79.239 40.089h-.755v45.346h.755V40.09zm47.079 0h-.755v45.346h.755V40.09zm47.142 0h-.754v45.346h.754V40.09zm46.765 0h-.754v45.346h.754V40.09zm47.142 0h-.755v45.346h.755V40.09zM91.5 55.959a1.09 1.09 0 0 0-1.092 1.095 1.095 1.095 0 0 0 1.092 1.094h22.153a1.093 1.093 0 0 0 .774-1.869 1.103 1.103 0 0 0-.774-.32H91.5zm0 5.67a1.09 1.09 0 0 0-1.092 1.093 1.095 1.095 0 0 0 1.092 1.094h22.153a1.09 1.09 0 0 0 1.094-1.094 1.096 1.096 0 0 0-1.094-1.094H91.5zm0 5.667a1.09 1.09 0 0 0-1.092 1.095 1.095 1.095 0 0 0 1.092 1.094h22.153a1.093 1.093 0 0 0 .774-1.869 1.103 1.103 0 0 0-.774-.32H91.5z" fill="#E6E6E6"/><path d="M138.265 55.96a1.09 1.09 0 0 0-1.092 1.094 1.095 1.095 0 0 0 1.092 1.094h22.153a1.092 1.092 0 0 0 1.092-1.094 1.095 1.095 0 0 0-1.092-1.094h-22.153zm0 5.668a1.09 1.09 0 0 0-1.092 1.094 1.095 1.095 0 0 0 1.092 1.094h22.153a1.092 1.092 0 0 0 1.092-1.094 1.095 1.095 0 0 0-1.092-1.094h-22.153zm0 5.668a1.09 1.09 0 0 0-1.092 1.095 1.095 1.095 0 0 0 1.092 1.094h22.153a1.092 1.092 0 0 0 1.092-1.094 1.095 1.095 0 0 0-1.092-1.095h-22.153z" fill="#00B3C7"/><path d="M185.407 55.96a1.093 1.093 0 0 0 0 2.188h22.153a1.095 1.095 0 0 0 0-2.188h-22.153zm0 5.668a1.093 1.093 0 0 0 0 2.188h22.153a1.095 1.095 0 0 0 0-2.188h-22.153zm0 5.668a1.093 1.093 0 0 0 0 2.188h22.153a1.095 1.095 0 0 0 0-2.188h-22.153zm46.954-11.336a1.089 1.089 0 0 0-1.09 1.094 1.093 1.093 0 0 0 1.09 1.094h22.152a1.093 1.093 0 0 0 .773-1.868 1.092 1.092 0 0 0-.773-.32h-22.152zm0 5.668a1.089 1.089 0 0 0-1.09 1.094 1.092 1.092 0 0 0 1.09 1.094h22.152a1.093 1.093 0 0 0 .773-1.867 1.093 1.093 0 0 0-.773-.32h-22.152zm0 5.668a1.089 1.089 0 0 0-1.09 1.095 1.093 1.093 0 0 0 1.09 1.094h22.152a1.093 1.093 0 0 0 .773-1.868 1.092 1.092 0 0 0-.773-.32h-22.152zm45.822-11.336a1.089 1.089 0 0 0-1.09 1.094 1.097 1.097 0 0 0 1.09 1.094h22.153a1.092 1.092 0 0 0 1.092-1.094 1.095 1.095 0 0 0-1.092-1.094h-22.153zm0 5.668a1.089 1.089 0 0 0-1.09 1.094 1.097 1.097 0 0 0 1.09 1.094h22.153a1.092 1.092 0 0 0 1.092-1.094 1.095 1.095 0 0 0-1.092-1.094h-22.153zm0 5.668a1.089 1.089 0 0 0-1.09 1.095 1.097 1.097 0 0 0 1.09 1.094h22.153a1.092 1.092 0 0 0 1.092-1.094 1.095 1.095 0 0 0-1.092-1.095h-22.153zM44.358 55.96a1.09 1.09 0 0 0-1.09 1.094 1.095 1.095 0 0 0 1.09 1.094H66.51a1.09 1.09 0 0 0 1.094-1.094 1.096 1.096 0 0 0-1.094-1.094H44.358zm0 5.668a1.09 1.09 0 0 0-1.09 1.094 1.095 1.095 0 0 0 1.09 1.094H66.51a1.089 1.089 0 0 0 1.011-.675 1.096 1.096 0 0 0-1.01-1.513H44.357zm0 5.668a1.09 1.09 0 0 0-1.09 1.095 1.095 1.095 0 0 0 1.09 1.094H66.51a1.09 1.09 0 0 0 1.094-1.094 1.096 1.096 0 0 0-1.094-1.095H44.358z" fill="#E6E6E6"/><path d="M149.368 35.81c9.869 0 17.869-8.016 17.869-17.905 0-9.889-8-17.905-17.869-17.905s-17.87 8.016-17.87 17.905c0 9.889 8.001 17.905 17.87 17.905z" fill="#00B3C7"/><path d="M149.368 47.012l-5.587-9.697-5.588-9.697h22.35l-5.587 9.697-5.588 9.697z" fill="#00B3C7"/><path d="M149.512 24.217c3.541 0 6.411-2.876 6.411-6.424 0-3.548-2.87-6.424-6.411-6.424-3.541 0-6.411 2.876-6.411 6.424 0 3.548 2.87 6.424 6.411 6.424z" fill="#fff"/><path d="M335.14 51.84c-2.148 0-4.247.639-6.033 1.834a10.877 10.877 0 0 0-4 4.884 10.902 10.902 0 0 0 2.354 11.859 10.838 10.838 0 0 0 11.835 2.359 10.861 10.861 0 0 0 4.874-4.008 10.893 10.893 0 0 0-4.874-16.1 10.837 10.837 0 0 0-4.156-.827zm0 20.156c-1.83 0-3.62-.543-5.142-1.563a9.274 9.274 0 0 1-3.935-9.52 9.275 9.275 0 0 1 2.533-4.748 9.246 9.246 0 0 1 10.086-2.01 9.256 9.256 0 0 1 4.154 3.415 9.288 9.288 0 0 1-1.151 11.71 9.25 9.25 0 0 1-6.545 2.716z" fill="#E6E6E6"/><path d="M334.54 66.444a.57.57 0 0 1-.405-.168l-3.094-3.1a.573.573 0 0 1 .81-.813l2.622 2.627 4.648-6.35a.57.57 0 0 1 .801-.123.576.576 0 0 1 .123.802l-5.043 6.89a.575.575 0 0 1-.462.235z" fill="#00B3C7"/><path d="M10.86 51.84c-2.148 0-4.247.639-6.033 1.834a10.877 10.877 0 0 0-4 4.884A10.902 10.902 0 0 0 3.18 70.417a10.84 10.84 0 0 0 11.835 2.359 10.865 10.865 0 0 0 4.874-4.008 10.897 10.897 0 0 0-1.35-13.74 10.858 10.858 0 0 0-7.68-3.187zm0 20.156c-1.83 0-3.62-.543-5.142-1.563a9.27 9.27 0 0 1-3.409-4.162 9.291 9.291 0 0 1 2.006-10.107 9.238 9.238 0 0 1 10.087-2.01 9.26 9.26 0 0 1 4.154 3.416 9.288 9.288 0 0 1-1.151 11.71 9.255 9.255 0 0 1-6.545 2.716z" fill="#E6E6E6"/><path d="M7.962 66.356a.572.572 0 0 1-.562-.686.574.574 0 0 1 .156-.294l6.108-6.12a.574.574 0 1 1 .81.813l-6.107 6.119a.57.57 0 0 1-.405.168z" fill="#00B3C7"/><path d="M13.758 66.356a.569.569 0 0 1-.405-.168l-6.107-6.12a.573.573 0 0 1 .81-.811l6.107 6.119a.575.575 0 0 1-.405.98z" fill="#00B3C7"/><path d="M317.094 251.991H216.247v-.826h100.996l-.149.826z" fill="#3F3D56"/><path d="M248.313 240.786h-7.016v9.561h7.016v-9.561zm35.642 0h-7.017v9.561h7.017v-9.561zm4.868-79.3a4.156 4.156 0 0 1-3.164-1.46 4.174 4.174 0 0 1-.95-3.358l1.15-7.341.341-2.183h5.333l.28 3.094 1.111 6.357a4.19 4.19 0 0 1-.914 3.403 4.162 4.162 0 0 1-3.187 1.488zm-52.202-.844a4.154 4.154 0 0 1-3.163-1.46 4.179 4.179 0 0 1-.95-3.358l1.149-7.34.342-2.183h5.333l.28 3.093 1.111 6.357a4.19 4.19 0 0 1-.914 3.403 4.16 4.16 0 0 1-3.188 1.488z" fill="#FFB8B8"/><path d="M284.797 242.754l-8.419-.281-13.752-83.237-13.752 83.518-8.139-.281-2.245-96.172h47.149l-.842 96.453zm-36.661 14.231c-7.143.207-12.735-1.728-16.401-6.321a3.034 3.034 0 0 1-.23-3.455 3.034 3.034 0 0 1 2.948-1.453l2.321.272 4.834-2.42c-.989 5.762 1.701 5.87 8.135 3.939l1.159 5.952a2.935 2.935 0 0 1-.579 2.383 2.92 2.92 0 0 1-2.187 1.103zm35.643 0c-7.144.207-12.735-1.728-16.402-6.321a3.042 3.042 0 0 1-.229-3.455 3.031 3.031 0 0 1 2.948-1.453l2.321.272 4.797-2.028c-.988 5.762 1.737 5.478 8.171 3.547l1.159 5.952a2.934 2.934 0 0 1-.578 2.384 2.93 2.93 0 0 1-2.187 1.102z" fill="#2F2E41"/><path d="M259.82 58.283c6.2 0 11.226-5.036 11.226-11.248s-5.026-11.248-11.226-11.248c-6.2 0-11.226 5.035-11.226 11.248 0 6.212 5.026 11.248 11.226 11.248z" fill="#FFB8B8"/><path d="M271.045 67.563l-12.068.562-.561-12.654 10.384-3.937 2.245 16.029z" fill="#FFB8B8"/><path d="M288.446 150.238c-16.457-3.121-35.206-4.238-47.711 0l3.929-82.675 13.191-3.937.982-1.547 11.086-1.828 5.332 1.688L278.623 67l14.594 8.155c-7.184 27.844-9.312 53.142-4.771 75.083z" fill="#3F3D56"/><path d="M296.303 149.675l-12.068-1.406c2.516-12.28 1.487-28.253 2.105-44.29.392-10.17 2.497-19.427 3.228-30.792 4.576 1.196 6.946 5.454 6.973 10.472.13 23.802 2.373 46.104-.238 66.016zm-52.481-1.125l-11.787-.843 7.016-39.932 2.376-33.229c-.37-4.846 2.215-7.661 6.044-7.827 8.364 9.924 9.333 23.6 6.735 39.088l-10.384 42.743z" fill="#3F3D56"/><path d="M263.46 55.305l-1.447-4.13a13.548 13.548 0 0 0-4.125-5.936 13.503 13.503 0 0 0-6.586-2.963l-9.073-.208 2.52-4.057a12.312 12.312 0 0 1 5.015-4.55 12.287 12.287 0 0 1 6.657-1.206l9.067.905a8.21 8.21 0 0 1 5.525 2.956 8.245 8.245 0 0 1 1.839 5.998l-.832 8.935a5.621 5.621 0 0 1-5.862 5.099 5.61 5.61 0 0 1-2.698-.843z" fill="#2F2E41"/></g><defs><clipPath id="clip0"><path fill="#fff" d="M0 0H346V257H0z"/></clipPath></defs></svg>