<svg width="158" height="95" viewBox="0 0 158 95" fill="none" xmlns="http://www.w3.org/2000/svg">
<path d="M16.7313 23.6577C16.4287 23.7669 15.807 24.8284 15.3622 26.128C14.1784 26.0635 13.011 26.1776 11.8883 26.4488C11.3857 25.3575 10.7375 24.2613 10.1522 24.1703C8.96003 23.9901 6.23181 25.8172 6.01521 26.2818C5.87466 26.5778 6.20205 27.8063 6.82706 29.0646C5.96395 29.8152 5.2017 30.6932 4.57339 31.6853C3.44407 31.267 2.20563 30.9479 1.72778 31.3017C0.757193 32.0193 0.123917 35.2403 0.294224 35.7181C0.401699 36.0207 1.45992 36.6358 2.75292 37.0855C2.64545 38.2843 2.72482 39.4748 2.96953 40.6173C1.91958 41.1117 0.89443 41.7334 0.810104 42.2989C0.629876 43.4911 2.45695 46.2193 2.92158 46.4359C3.19605 46.5665 4.27907 46.292 5.44146 45.753C6.21859 46.7021 7.14618 47.5371 8.20274 48.2216C7.8489 49.2501 7.62072 50.2967 7.93653 50.7299C8.65414 51.7005 11.8751 52.3338 12.3529 52.1635C12.6241 52.0659 13.1499 51.2028 13.5798 50.0884C14.886 50.214 16.1824 50.1248 17.4241 49.8354C17.8871 50.7531 18.4344 51.5715 18.937 51.6476C20.1292 51.8278 22.8574 50.0007 23.074 49.5361C23.1931 49.2831 22.9698 48.3374 22.5069 47.2791C23.489 46.4458 24.3406 45.4488 25.0201 44.3112C25.994 44.6319 26.9547 44.8204 27.3631 44.5212C28.3337 43.8036 28.9669 40.5859 28.7966 40.1048C28.6991 39.8336 27.8327 39.3061 26.7133 38.8762C26.7959 37.5882 26.662 36.3134 26.3446 35.0997C27.3151 34.6235 28.2031 34.0498 28.2824 33.5223C28.4626 32.3302 26.6356 29.602 26.1709 29.3853C25.8932 29.2547 24.8035 29.5325 23.6329 30.0782C22.8309 29.1869 21.8885 28.4098 20.8236 27.7848C21.2105 26.6985 21.4883 25.5543 21.1494 25.0979C20.4318 24.1174 17.2141 23.4825 16.7313 23.6577ZM19.8249 39.7823C18.9106 42.6048 15.8814 44.1508 13.0557 43.2348C10.2332 42.3204 8.68721 39.2913 9.60323 36.4655C10.5176 33.643 13.5467 32.097 16.3725 33.0131C19.1983 33.9291 20.7393 36.9599 19.8249 39.7823Z" fill="#F4F4F4"/>
<path d="M21.8868 40.404C20.5872 44.4153 16.265 46.6177 12.257 45.3181C8.24571 44.0185 6.04329 39.6963 7.34291 35.6883C8.64254 31.677 12.9647 29.4746 16.9727 30.7742C20.984 32.0771 23.1897 36.396 21.8868 40.404ZM7.44543 35.7214C6.164 39.6748 8.33665 43.9341 12.2901 45.2139C16.2435 46.4954 20.5028 44.3227 21.7826 40.3693C23.0641 36.4158 20.8914 32.1565 16.938 30.8767C12.9878 29.597 8.73017 31.7679 7.44543 35.7214Z" fill="white"/>
<path d="M15.8583 27.0423C15.8368 27.0886 15.8153 27.1333 15.7905 27.1796C16.5709 27.2523 17.3547 27.411 18.1301 27.6607C23.8809 29.5242 27.0407 35.7197 25.1739 41.4705C23.9536 45.2354 20.8765 47.8892 17.2819 48.749C17.2753 48.7986 17.2703 48.8499 17.2604 48.8978C20.9245 48.0413 24.0628 45.3445 25.3078 41.5118C27.1961 35.6883 23.9966 29.4134 18.1731 27.5251C17.4092 27.2771 16.6304 27.1217 15.8583 27.0423Z" fill="white"/>
<path d="M4.44108 41.7928C3.64411 39.5838 3.54655 37.1102 4.32534 34.7094C4.34022 34.6631 4.35841 34.6185 4.37494 34.5688C4.32368 34.5722 4.27408 34.5688 4.22282 34.5688C4.2129 34.5986 4.20133 34.63 4.18975 34.6631C3.40601 37.0854 3.50026 39.5805 4.29723 41.811C4.34683 41.8044 4.39147 41.7978 4.44108 41.7928Z" fill="white"/>
<path d="M46.8425 68.6716C46.6673 68.1772 44.9328 67.1554 42.813 66.4163C42.9255 64.4834 42.7486 62.5703 42.3087 60.7333C44.0945 59.9165 45.8935 58.8699 46.0423 57.9076C46.3449 55.9581 43.3719 51.4905 42.6179 51.13C42.1351 50.9002 40.1245 51.4276 38.0626 52.4396C36.8407 51.0225 35.4088 49.7709 33.7934 48.7374C34.4812 46.8938 35.017 44.8717 34.4416 44.0846C33.2759 42.4923 28.0145 41.4341 27.2275 41.7135C26.7348 41.8888 25.7179 43.6117 24.9788 45.7232C23.0194 45.543 21.0733 45.662 19.1999 46.0555C18.398 44.3343 17.391 42.6577 16.4634 42.5138C14.514 42.2112 10.0463 45.1842 9.68589 45.9381C9.47094 46.3879 9.91242 48.1571 10.7888 50.0602C9.23284 51.3251 7.86047 52.8347 6.73776 54.561C5.05784 53.9773 3.34982 53.5953 2.64048 54.1129C1.04819 55.2786 -0.0100228 60.5382 0.269413 61.3269C0.426492 61.7717 1.83524 62.6365 3.6524 63.3442C3.4391 65.4788 3.57799 67.5985 4.04096 69.629C2.53631 70.3796 1.19535 71.2676 1.06804 72.0893C0.765452 74.0388 3.73838 78.5064 4.49401 78.8669C4.90903 79.0653 6.45337 78.7032 8.18951 77.9525C9.54535 79.563 11.1707 80.9618 13.0259 82.0829C12.4951 83.6735 12.1793 85.241 12.6687 85.9123C13.8344 87.5046 19.0941 88.5628 19.8828 88.2834C20.3276 88.1263 21.1973 86.7109 21.905 84.8871C24.0099 85.0277 26.0916 84.8194 28.0823 84.3051C28.8545 85.8925 29.7854 87.3508 30.6452 87.4847C32.5946 87.7873 37.0623 84.8127 37.4228 84.0588C37.6377 83.6074 37.1913 81.8216 36.3067 79.9069C37.7667 78.6007 39.0431 77.0646 40.0749 75.3301C41.8458 75.9717 43.7191 76.4313 44.4682 75.8824C46.0638 74.72 47.122 69.4587 46.8425 68.6716ZM20.4582 73.6287C15.85 72.1141 13.3417 67.1504 14.8563 62.5422C16.3708 57.934 21.3345 55.4257 25.9428 56.9386C30.551 58.4532 33.0593 63.4169 31.5463 68.0251C30.0301 72.6333 25.0664 75.1416 20.4582 73.6287Z" fill="#E3E3E3"/>
<g opacity="0.25">
<path opacity="0.25" d="M19.4248 76.9951C12.8754 74.844 9.30064 67.7655 11.4518 61.2178C13.603 54.6684 20.6814 51.0936 27.2291 53.2448C33.7769 55.3959 37.3533 62.4744 35.2022 69.0221C33.051 75.5715 25.9742 79.1479 19.4248 76.9951ZM27.1746 53.4134C20.7195 51.292 13.7418 54.8172 11.6204 61.274C9.49905 67.7291 13.0242 74.7067 19.481 76.8281C25.9361 78.9495 32.9138 75.4243 35.0352 68.9676C37.1549 62.5124 33.6297 55.5348 27.1746 53.4134Z" fill="white"/>
</g>
<g opacity="0.25">
<path opacity="0.25" d="M41.3101 67.2248C41.2357 67.1901 41.1596 67.1554 41.0868 67.1173C40.9612 68.3922 40.6983 69.6736 40.2816 70.9385C37.1962 80.3269 27.0489 85.4543 17.6606 82.3705C11.5146 80.3517 7.19413 75.302 5.80853 69.4223H5.80688C5.7242 69.414 5.64318 69.4024 5.56216 69.3892C6.94115 75.3814 11.3294 80.5352 17.5878 82.5921C27.0969 85.7172 37.3765 80.522 40.5032 71.0129C40.9132 69.7546 41.1778 68.4864 41.3101 67.2248Z" fill="white"/>
<path opacity="0.25" d="M17.2687 48.463C20.8832 47.1766 24.9325 47.0278 28.8512 48.3175C28.9273 48.3439 29.0017 48.3721 29.0777 48.3985C29.0744 48.3158 29.0761 48.2348 29.0777 48.1521C29.0265 48.1356 28.9752 48.1141 28.924 48.0976C24.9705 46.798 20.8865 46.9418 17.2373 48.2299C17.2488 48.3059 17.2588 48.3836 17.2687 48.463Z" fill="white"/>
</g>
<path d="M121.869 50.9333C121.869 50.9333 133.603 27.1151 152.274 26.4058C163.981 45.5843 144.576 61.8924 144.576 61.8924L122.424 68.8585L121.869 50.9333Z" fill="#DBDBDB"/>
<path d="M133.555 35.3014L137.902 46.244L151.833 26.4322C151.98 26.4239 152.125 26.4124 152.274 26.4074C152.32 26.4835 152.362 26.5579 152.406 26.6339L144.946 37.2442L155.819 36.0537C155.834 36.1562 155.844 36.2588 155.857 36.3613L155.887 36.6341L144.498 37.8808L132.064 55.5646L151.214 54.0831C151.08 54.2914 150.945 54.4981 150.809 54.7015L131.629 56.1847L122.799 68.7411L122.426 68.8585L122.408 68.2814L137.502 46.8161L133.099 35.7363C133.249 35.5908 133.401 35.4452 133.555 35.3014Z" fill="white"/>
<path d="M127.166 62.481C127.166 62.481 146.664 51.9435 158 61.5882C153.45 91.6399 114.901 87.9741 114.901 87.9741L127.166 62.481Z" fill="#ACACAC"/>
<path d="M158 61.5882C157.982 61.7039 157.964 61.818 157.944 61.9321L130.519 74.1297L145.025 81.648C144.832 81.7687 144.637 81.8878 144.44 82.0035L129.835 74.4339L119.124 79.1976L119.516 78.3824L140.371 69.1065L144.888 57.5355C145.098 57.5289 145.31 57.524 145.521 57.5223L141.131 68.7692L157.747 61.3798C157.83 61.4509 157.916 61.5171 158 61.5882Z" fill="white"/>
<path d="M20.7261 88.242V11.1906C20.7261 9.42138 22.1596 7.98782 23.9288 7.98782H103.386C105.155 7.98782 106.589 9.42138 106.589 11.1906V88.3313L20.7261 88.242Z" fill="#ACACAC"/>
<path d="M20.7261 88.3314L37.8312 16.5049C38.4049 14.0958 40.5577 12.396 43.0346 12.396H132.578C136.197 12.396 138.772 15.9146 137.676 19.3637L115.777 88.2867L20.7261 88.3314Z" fill="#F4F4F4"/>
<path d="M75.8394 37.8825C75.8857 38.6249 77.1076 38.9341 77.4879 39.5095C77.0944 39.6649 75.7154 39.5955 75.3334 39.3409C74.8043 38.9887 75.1995 38.1041 74.5877 37.5965L75.8394 37.8825Z" fill="#C7C7C7"/>
<path d="M67.0363 37.6526C66.9966 38.2264 67.2017 38.7902 67.1669 39.3838C66.2592 39.5045 65.4953 39.6765 64.5611 39.6285C64.7793 39.0879 65.2588 38.9853 65.7582 38.6613C66.5634 38.1404 66.1798 37.7783 66.4692 37.0309L67.0363 37.6526Z" fill="#C7C7C7"/>
<path d="M73.1376 17.4391L76.2957 38.0528L74.4488 38.0694L70.3631 23.3519L67.4728 38.3984L66.0294 38.2992C66.0294 38.2992 65.9186 28.9389 65.9731 26.0305C66.0293 23.1237 65.8623 19.0826 67.1388 17.3581C67.1372 17.3564 71.3651 18.408 73.1376 17.4391Z" fill="#575757"/>
<path d="M68.8915 7.43233C69.0023 7.40422 69.1346 7.37612 69.2916 7.33313C69.9481 7.15124 70.2721 6.85693 70.5747 6.29475C70.6574 6.13932 70.9815 4.94883 71.1154 4.92568C71.6197 4.83805 72.4464 4.65947 72.8185 5.04969C73.2037 5.45314 73.1144 6.51466 73.3079 7.02724C73.4137 7.30667 73.6915 7.50343 73.8056 7.75641C74.2553 8.75345 73.1475 10.3937 72.8102 11.3246C72.5903 11.9298 72.4167 13.0293 71.7222 13.355C70.2027 14.0693 69.2156 10.6599 68.9808 9.89269C68.8154 9.35696 68.5509 8.83116 68.4765 8.27725C68.3905 7.62083 68.5062 7.53154 68.8915 7.43233Z" fill="#F2D0C4"/>
<path d="M73.3162 7.09998C73.2963 7.03715 73.2765 6.99581 73.26 6.95117C73.0897 6.4419 73.169 5.39195 72.8251 4.99181C72.5804 4.70742 72.1191 4.72891 71.7123 4.7934C71.5437 5.0315 71.3486 5.33904 71.2196 5.52919C71.2593 5.62344 71.3089 5.72099 71.3684 5.81854C71.7719 6.50639 72.5854 7.24714 73.3162 7.09998Z" fill="#F2D0C4"/>
<path d="M71.4461 5.80703C71.3436 5.69955 71.2543 5.59042 71.1865 5.48625C70.6772 4.70747 71.2394 2.98621 71.6941 2.23389C72.2017 1.39393 72.9309 1.1426 73.7262 1.32614C75.6492 1.76761 75.1036 5.40523 73.8139 6.46676C73.1492 7.01405 72.0463 6.43203 71.4461 5.80703Z" fill="#F2D0C4"/>
<path d="M71.0278 5.03151C70.6971 4.03943 70.2457 3.31687 70.3664 2.38597C70.5003 1.35586 71.7503 0.515897 72.7441 0.557234C73.5692 0.591957 74.543 1.12603 75.0804 1.77088C75.3698 2.1181 75.5765 2.53478 75.5021 3.00767C75.3962 3.68063 75.1879 3.77322 74.8126 3.80464C74.7167 3.81291 74.2669 3.68394 74.1942 3.6426C74.3099 4.71239 72.9822 3.78645 72.6168 3.74015C71.8314 3.64095 71.0278 5.03151 71.0278 5.03151Z" fill="#575757"/>
<path d="M63.0961 19.1802C62.7042 19.8019 61.0905 21.6918 61.1616 21.7827C61.231 21.8753 62.1421 21.0188 62.314 20.8617C62.2247 21.0618 61.5534 22.0373 61.6692 22.1068C61.7849 22.1762 62.939 20.7576 63.283 20.4947C63.3276 20.6104 62.9539 21.3809 63.0961 21.3727C63.5591 21.3462 64.5826 18.9388 63.6054 18.8809C63.6037 18.8809 63.488 18.5568 63.0961 19.1802Z" fill="#F2D0C4"/>
<path d="M79.6721 18.3419C80.064 18.9636 81.6761 20.8535 81.6067 20.9461C81.5372 21.0387 80.6262 20.1822 80.4542 20.0251C80.5435 20.2268 81.2148 21.2007 81.099 21.2701C80.9833 21.3396 79.8292 19.9209 79.4853 19.658C79.4406 19.7738 79.8143 20.5443 79.6721 20.536C79.2091 20.5095 78.1856 18.1021 79.1628 18.0442C79.1645 18.0426 79.2802 17.7202 79.6721 18.3419Z" fill="#F2D0C4"/>
<path d="M73.5394 19.4034C73.6188 18.1418 74.2537 13.3186 74.2636 12.229L75.9237 14.901C76.4693 15.6484 78.2865 18.7734 78.5312 18.9189L79.7035 18.0227C79.5134 17.8508 77.5524 13.6857 77.4746 13.4443C77.1092 12.3199 76.6066 11.2353 75.9005 9.79015C75.2177 8.39462 75.5913 7.87874 73.4832 7.31656C73.4832 7.31656 73.961 8.27227 71.9372 8.35659C69.9133 8.44092 69.8852 7.09169 69.8852 7.09169C69.8852 7.09169 67.9441 6.92304 66.8296 8.29542C65.7135 9.66779 65.2423 11.2898 64.3412 13.2112C63.6632 14.653 63.3276 18.3419 62.8828 19.0578L64.28 19.6332C64.452 19.2777 64.619 17.0819 67.6283 11.184C67.6283 11.184 66.1137 18.5849 66.1203 19.2347C66.1203 19.2347 67.4497 18.8677 69.6885 19.1107C71.924 19.3554 73.5394 19.4034 73.5394 19.4034Z" fill="#ACACAC"/>
<path d="M20.7261 88.3314L40.0898 23.8264C40.6917 21.8208 42.5369 20.4484 44.6319 20.4484H103.995L112.133 9.23297C112.53 8.62284 113.208 8.25577 113.935 8.25577H142.223C143.676 8.25577 144.711 9.66948 144.271 11.0551L118.57 88.3314H20.7261Z" fill="#DADADA"/>
<path d="M63.0961 19.1801C62.7042 19.8019 61.0905 21.6918 61.1616 21.7827C61.231 21.8753 62.1421 21.0188 62.314 20.8617C62.2247 21.0618 61.5534 22.0373 61.6692 22.1068C61.7849 22.1762 62.939 20.7576 63.283 20.4947C63.3276 20.6104 62.9539 21.3809 63.0961 21.3726C63.5591 21.3462 64.5826 18.9387 63.6054 18.8809C63.6037 18.8809 63.488 18.5568 63.0961 19.1801Z" fill="#F2D0C4"/>
<path d="M79.6721 18.3418C80.064 18.9635 81.6761 20.8535 81.6067 20.946C81.5372 21.0386 80.6262 20.1821 80.4542 20.0251C80.5435 20.2268 81.2148 21.2007 81.099 21.2701C80.9833 21.3396 79.8292 19.9209 79.4853 19.658C79.4406 19.7737 79.8143 20.5443 79.6721 20.536C79.2091 20.5095 78.1856 18.1021 79.1628 18.0442C79.1645 18.0426 79.2802 17.7201 79.6721 18.3418Z" fill="#F2D0C4"/>
<path d="M79.897 55.0091C74.6935 55.0091 71.2064 50.7762 72.124 45.5727C73.0417 40.3693 78.022 36.1364 83.2254 36.1364C88.4289 36.1364 91.916 40.3693 90.9983 45.5727C90.0807 50.7762 85.1004 55.0091 79.897 55.0091ZM82.736 38.9093C79.062 38.9093 75.5451 41.8987 74.8986 45.5727C74.2504 49.2467 76.7124 52.2362 80.3864 52.2362C84.0604 52.2362 87.5773 49.2467 88.2255 45.5727C88.8736 41.8987 86.41 38.9093 82.736 38.9093Z" fill="white"/>
<path d="M88.3974 81.1107H63.3326L66.241 64.6124C67.0743 59.8901 71.5933 56.0475 76.3172 56.0475H84.2489C88.9728 56.0475 92.1376 59.8901 91.3042 64.6124L88.3974 81.1107ZM66.5965 78.3378H86.114L88.5347 64.6124C89.0985 61.4179 86.9573 58.8203 83.7628 58.8203H75.8311C72.6366 58.8203 69.581 61.4179 69.0172 64.6124L66.5965 78.3378Z" fill="white"/>
<path d="M96.1604 58.9592C92.4534 58.9592 89.9699 55.9449 90.623 52.2379C91.2761 48.5325 94.8228 45.5182 98.5299 45.5182C102.235 45.5182 104.719 48.5325 104.066 52.2379C103.413 55.9449 99.8659 58.9592 96.1604 58.9592ZM98.1066 47.9223C95.7256 47.9223 93.4471 49.8585 93.0288 52.2395C92.6088 54.6205 94.2027 56.5567 96.5854 56.5567C98.9647 56.5567 101.243 54.6205 101.662 52.2395C102.08 49.8585 100.486 47.9223 98.1066 47.9223Z" fill="white"/>
<path d="M102.811 81.1107H87.1077L87.5972 78.3378H100.526L102.146 69.1528C102.71 65.9583 100.569 63.3607 97.3741 63.3607H94.76C93.4157 63.3607 92.0251 63.8303 90.8429 64.6818L89.454 62.5439C91.2017 61.2823 93.2603 60.5862 95.2494 60.5862H97.8635C99.6344 60.5862 101.187 61.1269 102.391 62.0512C104.398 63.5922 105.44 66.1997 104.919 69.1528L102.811 81.1107Z" fill="white"/>
<path d="M62.1288 59.5991C58.2481 59.5991 55.6456 56.441 56.3301 52.5603C57.0147 48.678 60.73 45.5199 64.6107 45.5199C68.493 45.5199 71.0939 48.678 70.4094 52.5603C69.7248 56.441 66.0112 59.5991 62.1288 59.5991ZM64.1874 47.9224C61.6311 47.9224 59.184 50.0024 58.7343 52.5587C58.2829 55.1149 59.9975 57.195 62.5521 57.195C65.1084 57.195 67.5555 55.1149 68.0069 52.5587C68.4566 50.0024 66.7436 47.9224 64.1874 47.9224Z" fill="white"/>
<path d="M64.6239 81.1107H48.921L51.0291 69.1512C51.8625 64.4272 56.3814 60.5846 61.1053 60.5846H63.7195C65.7069 60.5846 67.5208 61.279 68.8254 62.5423L66.6808 64.6802C65.8012 63.8287 64.576 63.3591 63.2317 63.3591H60.6176C57.4231 63.3591 54.3675 65.9567 53.8036 69.1512L52.1832 78.3362H65.1117L64.6239 81.1107Z" fill="white"/>
<path d="M58.7343 63.4648L67.6927 93.4835H66.6593L57.7009 63.4648H58.7343Z" fill="#7F7F7F"/>
<path d="M49.3492 63.4648L58.3077 93.4835H57.2743L48.3158 63.4648H49.3492Z" fill="#7F7F7F"/>
<path d="M58.6896 63.4648V64.2932L48.9656 64.2883L48.8151 63.4648H58.6896Z" fill="#7F7F7F"/>
<path d="M60.353 69.3562V70.2623L50.6273 70.2573L50.462 69.3495L60.353 69.3562Z" fill="#7F7F7F"/>
<path d="M62.0726 75.5567L62.4645 76.4644L52.7405 76.4578L52.5751 75.5517L62.0726 75.5567Z" fill="#7F7F7F"/>
<path d="M63.8947 81.7588L64.2882 82.6649L54.5642 82.6599L54.3972 81.7522L63.8947 81.7588Z" fill="#7F7F7F"/>
<path d="M65.6027 87.8221L65.9963 88.7282L56.2706 88.7232L56.1052 87.8155L65.6027 87.8221Z" fill="#7F7F7F"/>
<path d="M44.0284 63.4648L43.8779 64.2883L34.1522 64.2932V63.4648H44.0284Z" fill="#ACACAC"/>
<path d="M35.141 63.4648L26.1842 93.4835H25.1508L34.1076 63.4648H35.141Z" fill="#ACACAC"/>
<path d="M44.5261 63.4648L35.5692 93.4835H34.5358L43.4926 63.4648H44.5261Z" fill="#ACACAC"/>
<path d="M32.4905 69.3562V70.2623L42.2145 70.2573L42.3815 69.3495L32.4905 69.3562Z" fill="#ACACAC"/>
<path d="M30.7709 75.5567L30.3773 76.4644L40.103 76.4578L40.2684 75.5517L30.7709 75.5567Z" fill="#ACACAC"/>
<path d="M28.9471 81.7588L28.5536 82.6649L38.2793 82.6599L38.4446 81.7522L28.9471 81.7588Z" fill="#ACACAC"/>
<path d="M27.2391 87.8221L26.8472 88.7282L36.5712 88.7232L36.7382 87.8155L27.2391 87.8221Z" fill="#ACACAC"/>
<path d="M32.2204 64.2943H60.5244V62.798H32.2204V64.2943Z" fill="#7F7F7F"/>
<path d="M35.6767 56.0425L36.4175 58.0035C36.4787 58.278 36.4902 58.6054 36.2058 58.7674C36.2058 58.7674 36.019 58.8766 35.8173 58.946C35.6817 58.9179 34.8268 56.2691 34.8268 56.2691L34.8351 56.2525C35.1757 55.8127 35.6767 56.0425 35.6767 56.0425Z" fill="#535353"/>
<path d="M35.8189 58.9461L34.8285 56.2708L34.6995 56.3452L35.6965 58.9973L35.8189 58.9461Z" fill="#535353"/>
<path d="M35.9727 56.818L36.0372 56.9949L35.6949 57.0611L35.6304 56.8891L35.9727 56.818Z" fill="white"/>
<path d="M36.1149 57.1967L36.1794 57.3736L35.8371 57.4397L35.7726 57.2678L36.1149 57.1967Z" fill="white"/>
<path d="M36.4985 55.5796L35.6767 56.0425C35.6304 56.2393 35.6999 56.4476 35.8586 56.5749L35.8867 56.5981L36.7944 56.365L36.4985 55.5796Z" fill="#F0D1BF"/>
<path d="M43.0594 43.21C43.0594 43.21 42.2443 44.088 42.0343 45.6323C41.8954 46.6608 42.279 48.2895 42.322 49.5676C42.36 50.7366 41.8326 51.6658 40.9066 52.3785L36.4985 55.5812L36.7945 56.3666C36.7945 56.3666 42.8263 55.4622 44.4103 52.7604C45.9943 50.0587 46.3697 43.9425 46.3697 43.9425L43.0594 43.21Z" fill="#676767"/>
<path d="M39.5491 39.8799L37.2822 44.9412C37.2822 44.9412 36.3513 45.0503 35.9462 45.4074C35.7346 45.5943 35.7445 45.968 35.8024 46.2805C35.8454 46.5186 36.1314 46.6194 36.315 46.4607C36.5646 46.2441 36.8854 46.001 37.0971 45.9663C37.6559 45.8737 37.8229 45.4769 37.8229 45.4769L41.0753 40.376L39.5491 39.8799Z" fill="#F0D1BF"/>
<path d="M50.9812 29.6995L52.1419 28.7058L51.2408 23.8L49.8436 23.0857C49.8436 23.0857 49.9957 22.8161 50.3413 22.9302C50.6852 23.0443 50.9779 22.9765 50.9779 22.9765C50.9779 22.9765 51.2391 22.6524 50.7431 22.4342C50.4653 22.2473 50.2784 22.4325 49.4716 22.4011C49.4716 22.2771 50.5347 21.9828 50.5347 21.9828C50.8671 21.8753 51.7137 22.5317 51.7137 22.5317C51.7699 22.6095 51.8079 22.7004 51.8211 22.7946L51.9551 23.7057C51.9551 23.7057 53.7557 28.6446 53.7557 29.1704C53.7557 29.6979 52.7471 30.4204 52.7471 30.4204L50.9812 29.6995Z" fill="#F0D1BF"/>
<path d="M44.736 43.7193C44.736 43.7193 44.0366 44.5609 44.4566 46.5169C44.7245 47.7653 45.9001 49.3377 46.6888 50.4191C47.2543 51.1946 47.2658 52.1718 47.0972 53.1159C46.4507 56.7089 47.4857 61.0955 47.4857 61.0955H48.3241C48.3241 61.0955 49.5823 54.6669 49.9544 50.1496C50.29 46.0755 48.5473 43.0761 48.5109 43.0232L44.736 43.7193Z" fill="#535353"/>
<path d="M49.4883 22.2177L49.3862 22.913L52.0201 23.2995L52.1221 22.6043L49.4883 22.2177Z" fill="#ACACAC"/>
<path d="M52.0313 22.5888L51.9293 23.284L52.1698 23.3193L52.2718 22.624L52.0313 22.5888Z" fill="white"/>
<path d="M52.1188 23.3106C52.3122 23.337 52.4743 23.3238 52.5205 23.0096C52.5702 22.6657 52.4147 22.6359 52.2229 22.6062L52.1188 23.3106Z" fill="#535353"/>
<path d="M49.3839 22.9104L48.873 22.6029L48.9094 22.3499L49.4848 22.2143L49.3839 22.9104Z" fill="white"/>
<path d="M48.873 22.6029L48.6498 22.4425L48.9094 22.3499L48.873 22.6029Z" fill="#5A5A5A"/>
<path d="M49.4207 22.6473L49.3974 22.8059L51.9413 23.1788L51.9645 23.0201L49.4207 22.6473Z" fill="#E8E7E7"/>
<path d="M49.4743 22.3095L49.451 22.4682L51.9948 22.8418L52.0181 22.6831L49.4743 22.3095Z" fill="#E8E7E7"/>
<path d="M42.6791 33.7869C41.1811 34.8882 39.4168 40.1776 39.4168 40.1776L40.7313 40.915L42.8726 37.9768C42.8726 37.9768 43.0809 41.378 42.5683 43.9855C42.8015 44.9644 43.9126 44.8536 45.7132 44.5113C47.5139 44.169 48.6944 43.3936 48.6944 43.3936C48.6944 43.3936 48.7721 38.6746 49.0053 36.1729C49.2384 33.6712 48.7788 33.4033 49.4087 33.486C50.8158 32.6874 53.1224 30.1129 53.1224 30.1129L50.9812 29.6963L46.3697 32.398C46.3697 32.403 44.1143 32.9966 42.6791 33.7869Z" fill="#ACACAC"/>
<path d="M45.2916 27.5285L46.4044 28.6281C46.8773 29.0943 47.0757 29.7706 46.9318 30.4188L46.8012 31.0058L45.2916 27.5285Z" fill="#F0D1BF"/>
<path d="M43.944 27.1119C41.2423 27.1119 42.3914 32.2988 42.3914 32.2988C42.3914 32.2988 42.8726 35.6636 43.944 37.0145C44.8716 38.1835 46.7053 37.8313 47.575 37.2708C48 36.9963 48.4762 36.8128 48.9772 36.7532C49.713 36.6639 50.5893 36.3399 50.5893 35.0121C50.5893 33.7621 49.0979 32.7948 48.1157 32.1053C47.4758 31.6556 47.4047 30.4287 47.2179 29.6698C46.9037 28.3884 45.7612 27.1119 43.944 27.1119Z" fill="#535353"/>
<path d="M47.628 62.0281L49.7246 62.0248C50.0023 62.0628 50.3132 62.1686 50.3661 62.4911C50.3661 62.4911 50.4025 62.7044 50.3959 62.9177C50.3215 63.0334 47.542 62.9028 47.542 62.9028L47.5304 62.8895C47.2361 62.4166 47.628 62.0281 47.628 62.0281Z" fill="#535353"/>
<path d="M50.3958 62.9176L47.542 62.9027L47.5668 63.0516H50.3991L50.3958 62.9176Z" fill="#5A5A5A"/>
<path d="M48.458 62.0248L48.6465 62.0264L48.587 62.3704H48.4051L48.458 62.0248Z" fill="white"/>
<path d="M48.8631 62.0248L49.0516 62.0264L48.9921 62.3704H48.8085L48.8631 62.0248Z" fill="white"/>
<path d="M47.4841 61.0972L47.628 62.0297C47.7966 62.1438 48.0149 62.1505 48.1901 62.0479L48.2216 62.0297L48.3224 61.0989H47.4841V61.0972Z" fill="#F0D1BF"/>
<path d="M50.3413 22.9303C49.9974 22.8146 49.8436 23.0857 49.8436 23.0857L50.7728 23.5603C50.7861 23.5553 50.7976 23.5487 50.8109 23.5437C50.963 23.4809 51.2804 23.3437 51.4259 23.3189C51.34 23.2312 50.5132 22.9882 50.3413 22.9303Z" fill="#F0D1BF"/>
<path d="M11.9247 93.4522L15.1919 93.4472C15.6251 93.4918 16.1113 93.6159 16.1939 93.9912C16.1939 93.9912 16.2518 94.2425 16.2386 94.4905C16.1228 94.6261 11.7924 94.474 11.7924 94.474L11.7709 94.4575C11.3096 93.9069 11.9247 93.4522 11.9247 93.4522Z" fill="#282828"/>
<path d="M16.2336 94.4922L11.7874 94.4757L11.8255 94.6476H16.2419L16.2336 94.4922Z" fill="#282828"/>
<path d="M13.2144 93.4489H13.5104L13.4161 93.8523H13.1317L13.2144 93.4489Z" fill="white"/>
<path d="M13.8444 93.4489H14.142L14.051 93.8523H13.7617L13.8444 93.4489Z" fill="white"/>
<path d="M11.6982 92.3658L11.9214 93.4538C12.1843 93.5861 12.5232 93.5943 12.7994 93.4753L12.849 93.4538L13.0044 92.3658H11.6982Z" fill="#EFC7AF"/>
<path d="M4.29069 93.4522L7.55793 93.4472C7.99114 93.4918 8.47726 93.6159 8.55993 93.9912C8.55993 93.9912 8.6178 94.2425 8.60457 94.4905C8.48883 94.6261 4.15841 94.474 4.15841 94.474L4.13691 94.4575C3.67725 93.9069 4.29069 93.4522 4.29069 93.4522Z" fill="#282828"/>
<path d="M8.59957 94.4922L4.15506 94.4757L4.19144 94.6476H8.60784L8.59957 94.4922Z" fill="#282828"/>
<path d="M5.58035 93.4489H5.87633L5.78704 93.8523H5.49768L5.58035 93.4489Z" fill="white"/>
<path d="M6.21033 93.4489H6.5063L6.41536 93.8523H6.12766L6.21033 93.4489Z" fill="white"/>
<path d="M4.43122 92.3658L4.29068 93.4538C4.55358 93.5861 4.89254 93.5943 5.16867 93.4753L5.21827 93.4538L5.74242 92.3658H4.43122Z" fill="#EFC7AF"/>
<path d="M9.30396 55.778L6.61377 57.534L7.44546 59.6603C7.45869 59.6901 7.47523 59.7182 7.4868 59.7463C7.54467 59.7413 7.60585 59.738 7.66372 59.738C7.67199 59.738 7.68522 59.738 7.69348 59.738C7.70175 59.738 7.71498 59.738 7.72325 59.738C8.44416 59.738 9.06255 60.1779 9.43623 60.7764C9.87275 60.7433 10.306 60.6359 10.7061 60.4457C10.9773 60.3134 11.217 60.1613 11.303 59.9927C11.5907 58.4847 9.30396 55.778 9.30396 55.778Z" fill="#EFC7AF"/>
<path d="M8.71034 60.7796L8.4772 62.2446H10.5573L10.7061 60.444L8.71034 60.7796Z" fill="#F1C6B9"/>
<path d="M9.4643 60.7797L8.83433 59.3792L9.24604 59.1196C9.55193 58.9295 9.68256 58.5558 9.56847 58.2168L9.12038 56.8941C9.12038 56.8941 10.4018 56.7386 10.3605 55.5465C10.3605 54.9314 9.51556 54.9281 9.51556 54.9281C9.51556 54.9281 9.26423 55.4754 8.47718 55.5432C8.13987 55.5019 7.21559 55.6259 6.59388 56.7138C6.1739 57.4463 6.35909 58.5922 6.72285 59.4536C7.04859 60.2242 7.88524 60.6574 8.71197 60.7797H9.4643Z" fill="#252525"/>
<path d="M6.96762 72.549C6.96762 72.549 7.0999 75.5352 7.7464 78.7743C7.93655 79.73 7.86545 80.7155 7.55295 81.6365C6.08632 85.995 4.03107 92.546 4.03107 92.546H5.8598C5.8598 92.546 10.005 84.8012 11.0715 80.9602C12.138 77.1209 12.3232 75.9006 12.3232 75.9006L11.0533 72.5474L6.96762 72.549Z" fill="#575757"/>
<path d="M8.49705 58.7228C8.42264 58.9461 8.57476 59.2387 8.83932 59.3727C9.10222 59.5082 9.37504 59.4471 9.4544 59.2238C9.52881 59.0006 9.37669 58.708 9.11214 58.574C8.84262 58.4384 8.57146 58.4996 8.49705 58.7228Z" fill="#252525"/>
<path d="M12.9333 72.549H6.96762V64.8985C6.96762 63.2218 8.24575 61.8214 9.91244 61.6643C11.4402 61.8098 12.5629 63.164 12.4224 64.6934L12.3827 65.1167L12.9333 72.549Z" fill="#ACACAC"/>
<path d="M13.4756 67.7209C13.4756 67.7209 13.8973 68.1177 14.5653 68.1772C15.2349 68.2367 19.5753 65.9583 19.5753 65.9583L20.5211 65.8111C21.0353 65.821 21.5396 65.654 21.9596 65.3333L23.1765 64.4073L15.2267 66.3782L11.2484 63.1639L13.4756 67.7209Z" fill="#F1C6B9"/>
<path d="M24.4364 64.0651L18.1549 65.7731L18.0375 65.2771L24.0413 63.6451L25.4252 57.476L25.8882 57.5951L24.4364 64.0651Z" fill="#676767"/>
<path d="M9.01126 63.9775C9.01126 63.9775 12.1991 68.4484 13.1631 68.1855C14.1271 67.9226 18.8891 64.0205 18.8891 64.0205L18.5451 63.2036L13.3285 65.6756C13.3285 65.6756 12.5183 64.4239 11.8106 62.9292C11.5295 62.3372 10.9557 61.947 10.3373 61.9883C8.98646 62.0776 9.01126 63.9775 9.01126 63.9775Z" fill="#EFC7AF"/>
<path d="M21.6355 62.8316C21.6189 62.7043 21.528 62.6051 21.4123 62.5836L20.2747 62.3835C19.9936 62.3339 19.7042 62.3984 19.4645 62.5621L18.5336 63.2003L18.398 63.2433L18.5286 64.2883C18.7121 64.1527 18.8196 64.0717 18.8196 64.0717L19.4033 63.6468C19.4033 63.6468 21.1064 64.5429 21.3345 63.2466C21.7562 64.3545 22.0307 64.1445 22.0307 64.1445L21.6355 62.8316Z" fill="#F0D1BF"/>
<path d="M6.96762 72.549C6.96762 72.549 7.80758 75.5964 10.9194 79.0124C11.4386 79.5283 12.1843 80.603 12.0818 82.1193L11.4402 92.5477H13.2938C13.2938 92.5477 15.5557 83.8885 15.0663 79.6192C14.5802 75.35 12.9317 72.5457 12.9317 72.5457H6.97093L6.96762 72.549Z" fill="#676767"/>
<path d="M9.79503 65.9699L9.2279 65.1862C8.75004 64.5264 8.11677 64.2702 8.52683 62.9127C8.93688 61.5552 8.52683 62.9127 8.52683 62.9127C8.86248 62.1289 9.69582 61.6792 10.5358 61.8296C10.5358 61.8296 10.5044 61.7817 11.0087 62.0744C11.513 62.367 11.8255 62.7936 12.138 63.336L12.7845 64.4587L9.79503 65.9699Z" fill="#ACACAC"/>
<path d="M124.919 52.0527L127.467 58.7079L129.073 57.5141L125.485 51.4657L124.919 52.0527Z" fill="#F5C3B4"/>
<path d="M125.235 50.0387C125.395 50.2371 125.478 50.4868 125.465 50.7414L125.577 51.7021L125.447 51.8509L124.995 52.2511C125.012 52.0526 125.033 52.2511 125.033 52.2511L124.309 50.9895C124.309 50.9895 123.433 50.4273 124.537 49.5989C124.643 49.5195 124.79 49.5013 124.901 49.5757C125.177 49.7609 125.235 50.0387 125.235 50.0387Z" fill="#F5C3B4"/>
<path d="M130.543 63.5161C128.714 61.0624 127.467 58.7078 127.467 58.7078L128.848 57.1354L130.543 59.1096V63.5161Z" fill="#6A6A6A"/>
<path d="M134.521 92.3657L133.709 92.5063C133.542 91.501 131.019 86.7307 130.814 84.2522C130.586 81.5025 129.947 78.4402 129.947 78.4402L132.661 77.6334C132.661 77.6334 133.348 77.6334 132.593 83.2386C134.291 85.4675 134.746 90.5205 134.521 92.3657Z" fill="#F5C3B4"/>
<path d="M132.523 75.5964C132.523 75.5964 131.887 79.4308 130.999 83.5314C131.925 86.0083 130.514 92.9181 130.488 92.8933C130.382 92.7924 129.894 93.3943 129.894 93.3943C129.894 93.3943 128.866 87.2963 128.638 84.545C128.41 81.7952 128.353 78.442 128.353 78.442L132.523 75.5964Z" fill="#F0D1BF"/>
<path d="M130.604 92.508C130.604 92.508 130.991 92.8354 130.92 93.2537C130.848 93.672 130.749 94.6492 130.749 94.6492H130.352L130.364 93.7365C130.362 93.677 129.512 94.6492 129.369 94.6492H127.267C127.267 94.6492 127.128 94.0341 128.362 93.8357C129.593 93.6373 130.604 92.508 130.604 92.508Z" fill="#5A5A5A"/>
<path d="M133.618 91.8118L133.674 92.6815C133.686 92.8651 133.636 93.0453 133.53 93.1958C133.415 93.3628 133.221 93.591 132.899 93.8522C133.509 94.0473 134.063 93.3644 134.352 92.9114C134.494 92.6898 134.549 92.4253 134.509 92.1657L134.407 91.4811L133.618 91.8118Z" fill="#F5C3B4"/>
<path d="M134.521 92.2914C134.521 92.2914 135.056 92.3393 135.146 92.7477C135.235 93.1561 135.488 93.9795 135.488 93.9795L135.195 94.2127L134.784 93.3942C134.784 93.3942 133.897 94.588 133.757 94.6475H131.464C131.464 94.6475 131.463 93.8886 132.899 93.8539C134.221 93.8225 134.521 92.2914 134.521 92.2914Z" fill="#535353"/>
<path d="M129.947 60.019H131.589L130.934 58.0894L129.651 58.8781L129.947 60.019Z" fill="#F5C3B4"/>
<path d="M123.441 47.0592L123.831 46.9071L119.107 34.7806L116.91 35.6354L121.634 47.7636L123.413 47.0708L123.441 47.0592Z" fill="#ACACAC"/>
<path opacity="0.25" d="M117.928 7.79766C115.145 7.7894 112.351 7.7216 109.588 8.05395C109.145 8.10686 107.262 8.173 108.513 8.15812C108.198 8.26394 107.882 8.37142 107.564 8.47724C106.552 9.22626 105.693 10.1191 104.603 10.7789C103.58 11.3973 102.523 11.8487 101.46 12.143C97.9048 16.2469 96.6813 22.1315 98.7878 27.5433C101.349 34.1258 108.011 37.899 114.714 37.0789C115.21 36.7597 115.744 36.4919 116.326 36.2902C116.52 36.1843 116.716 36.105 116.916 36.0355C117.685 35.5858 118.464 35.1509 119.284 34.8087C120.139 34.4515 121.025 34.2597 121.918 34.1952C127.251 30.2319 129.514 23.0624 126.988 16.5709C125.324 12.3 121.935 9.21634 117.928 7.79766Z" fill="white"/>
<path d="M107.401 7.95808C99.6128 10.9872 95.757 19.7572 98.7861 27.5434C101.815 35.3312 110.585 39.1871 118.371 36.1579C126.159 33.1288 130.015 24.3588 126.986 16.5726C123.957 8.78481 115.188 4.92893 107.401 7.95808ZM117.756 34.5756C110.843 37.2657 103.059 33.8414 100.368 26.9283C97.6783 20.0151 101.103 12.2306 108.016 9.54045C114.929 6.85026 122.713 10.2746 125.404 17.1877C128.094 24.1009 124.669 31.8854 117.756 34.5756Z" fill="#535353"/>
<path d="M123.152 43.7093C123.133 43.663 123.112 43.6184 123.085 43.5787C123.076 43.5621 123.062 43.5489 123.052 43.534C123.036 43.5109 123.019 43.4877 123.001 43.4679C122.985 43.4481 122.965 43.4332 122.947 43.415C122.932 43.4018 122.918 43.3885 122.904 43.377C122.879 43.3571 122.852 43.3422 122.826 43.3257C122.816 43.3191 122.804 43.3125 122.794 43.3059C122.763 43.2893 122.73 43.2761 122.697 43.2629C122.69 43.2612 122.685 43.2579 122.679 43.2563C122.641 43.2447 122.603 43.2348 122.565 43.2298C122.563 43.2298 122.56 43.2298 122.558 43.2281C122.517 43.2232 122.475 43.2215 122.434 43.2232C122.434 43.2232 122.434 43.2232 122.432 43.2232C122.389 43.2248 122.346 43.2315 122.305 43.243C122.279 43.2496 122.252 43.2546 122.226 43.2645L120.365 43.9887C120.003 44.1293 119.833 44.5575 119.984 44.9444L124.134 55.5994C124.635 54.8189 126.219 57.8415 127.497 58.86C127.892 60.0521 128.251 61.1385 128.544 62.038C128.934 61.818 129.587 60.8061 130.076 60.6953L123.152 43.7093Z" fill="#535353"/>
<path d="M115.491 15.8237C115.881 16.8273 117.012 17.325 118.016 16.9348C119.02 16.5446 119.519 15.4136 119.129 14.4099C118.738 13.4063 117.607 12.9069 116.604 13.2972C115.599 13.6874 115.101 14.8184 115.491 15.8237Z" fill="white"/>
<path d="M119.319 18.117C119.504 18.5948 120.043 18.8313 120.521 18.6461C120.999 18.4609 121.235 17.9219 121.05 17.444C120.865 16.9662 120.326 16.7297 119.848 16.9149C119.37 17.1001 119.134 17.6391 119.319 18.117Z" fill="white"/>
<path d="M127.766 62.0942C127.775 62.0462 127.786 62.0049 127.796 61.9602C126.171 59.8637 124.79 58.3871 124.79 58.3871L126.172 56.8147L129.314 59.7975L130.235 59.8008C130.235 59.8008 131.48 58.9791 132.566 60.1001C132.963 60.5102 133.228 61.6213 132.963 62.7952C132.232 66.0327 132.804 67.7457 132.804 67.7457L128.568 69.3231C128.568 69.3231 128.472 66.5073 128.406 64.533C128.406 64.5314 128.406 64.5281 128.406 64.5264C128.393 64.1412 128.264 63.7741 128.062 63.4467C127.828 63.0697 127.68 62.6101 127.766 62.0942Z" fill="#E3E3E3"/>
<path d="M122.244 51.7302L124.79 58.3871L126.396 57.1916L122.808 51.1432L122.244 51.7302Z" fill="#F0D1BF"/>
<path d="M122.558 49.718C122.718 49.9164 122.801 50.166 122.788 50.4207L122.9 51.3813L122.77 51.5301L122.318 51.9303C122.335 51.7319 122.356 51.9303 122.356 51.9303L121.632 50.6687C121.632 50.6687 120.756 50.1065 121.86 49.2781C121.966 49.1988 122.113 49.1806 122.224 49.255C122.5 49.4385 122.558 49.718 122.558 49.718Z" fill="#F0D1BF"/>
<path d="M128.481 67.6465C128.481 67.6465 127.917 70.5169 127.917 72.2233C127.917 73.1608 128.147 79.0703 128.147 79.0703C128.147 79.0703 132.171 79.3613 132.952 79.3613C133.145 74.5183 134.25 74.3695 134.25 72.1108C134.25 71.1287 133.747 70.0192 133.36 69.3132C133.082 68.8056 132.909 68.4517 132.801 67.7424L132.775 67.6514L128.481 67.6465Z" fill="#535353"/>
<path d="M129.37 54.6205L132.062 55.563L131.796 57.5719C131.793 57.6 131.784 57.6281 131.779 57.6562C131.728 57.6662 131.675 57.6744 131.624 57.6877C131.616 57.6893 131.607 57.6926 131.599 57.6943C131.591 57.6959 131.583 57.6976 131.574 57.6992C130.953 57.8514 130.513 58.3656 130.316 58.9592C129.934 59.0237 129.537 59.0237 129.15 58.9443C128.887 58.8897 128.648 58.8071 128.539 58.6797C127.973 57.4429 129.37 54.6205 129.37 54.6205Z" fill="#F0D1BF"/>
<path d="M129.433 56.3318C130.157 56.6857 129.987 60.4208 130.113 62.9655C130.18 64.3346 131.207 65.4523 132.56 65.6689C133.519 65.8227 134.572 65.8508 135.209 65.4887C134.789 65.1448 132.523 61.8131 133.249 57.4C133.345 56.8196 133.357 55.2025 132.378 54.3245C131.292 53.349 129.049 54.6221 129.049 54.6221C129.049 54.6221 128.438 55.844 129.433 56.3318Z" fill="#535353"/>
</svg>
